%TF.GenerationSoftware,KiCad,Pcbnew,10.0.4*%
%TF.CreationDate,2026-08-04T14:14:54+02:00*%
%TF.ProjectId,astropix_v5,61737472-6f70-4697-985f-76352e6b6963,rev?*%
%TF.SameCoordinates,Original*%
%TF.FileFunction,Copper,L2,Inr*%
%TF.FilePolarity,Positive*%
%FSLAX46Y46*%
G04 Gerber Fmt 4.6, Leading zero omitted, Abs format (unit mm)*
G04 Created by KiCad (PCBNEW 10.0.4) date 2026-08-04 14:14:54*
%MOMM*%
%LPD*%
G01*
G04 APERTURE LIST*
%TA.AperFunction,ComponentPad*%
%ADD10C,2.250000*%
%TD*%
%TA.AperFunction,ComponentPad*%
%ADD11R,1.700000X1.700000*%
%TD*%
%TA.AperFunction,ComponentPad*%
%ADD12O,1.700000X1.700000*%
%TD*%
%TA.AperFunction,ViaPad*%
%ADD13C,0.450000*%
%TD*%
G04 APERTURE END LIST*
D10*
%TO.N,GND*%
%TO.C,J4*%
X209825000Y-74875000D03*
X204745000Y-74875000D03*
X209825000Y-79955000D03*
X204745000Y-79955000D03*
%TD*%
D11*
%TO.N,GND*%
%TO.C,JP5*%
X178980000Y-74855000D03*
%TD*%
D12*
%TO.N,GND*%
%TO.C,J14*%
X196250000Y-61450000D03*
%TD*%
D11*
%TO.N,GND*%
%TO.C,JP3*%
X188750000Y-74855000D03*
%TD*%
D10*
%TO.N,GND*%
%TO.C,J7*%
X157920000Y-80080000D03*
X163000000Y-80080000D03*
X157920000Y-75000000D03*
X163000000Y-75000000D03*
%TD*%
D11*
%TO.N,GND*%
%TO.C,JP4*%
X183980000Y-74855000D03*
%TD*%
D10*
%TO.N,GND*%
%TO.C,J5*%
X157960000Y-120765000D03*
X163040000Y-120765000D03*
X157960000Y-115685000D03*
X163040000Y-115685000D03*
%TD*%
D12*
%TO.N,GND*%
%TO.C,J8*%
X204775000Y-100900000D03*
%TD*%
%TO.N,GND*%
%TO.C,J12*%
X208775000Y-100830000D03*
%TD*%
D10*
%TO.N,GND*%
%TO.C,J1*%
X209140000Y-115685000D03*
X204060000Y-115685000D03*
X209140000Y-120765000D03*
X204060000Y-120765000D03*
%TD*%
D13*
%TO.N,GND*%
X166000000Y-127050001D03*
X183594133Y-120082307D03*
X164812500Y-86561500D03*
X191099980Y-74855000D03*
X196225000Y-124425000D03*
X196534638Y-111910596D03*
X201338235Y-118811765D03*
X165211765Y-111263235D03*
X197325000Y-63950000D03*
X165725000Y-121099992D03*
X173700000Y-114725000D03*
X182599999Y-124125001D03*
X162578859Y-102975000D03*
%TO.N,/Inj*%
X189425000Y-119550000D03*
%TO.N,VDDA*%
X184825000Y-118425000D03*
X193850000Y-119475000D03*
X193025000Y-124050000D03*
%TD*%
%TA.AperFunction,Conductor*%
%TO.N,GND*%
G36*
X210695137Y-60301400D02*
G01*
X210698809Y-60301086D01*
X210713589Y-60301935D01*
X210727854Y-60306273D01*
X210773831Y-60305399D01*
X210778553Y-60305671D01*
X210781723Y-60305895D01*
X210905082Y-60316230D01*
X210930035Y-60320930D01*
X211042512Y-60354340D01*
X211065985Y-60364024D01*
X211169299Y-60419648D01*
X211190301Y-60433907D01*
X211216559Y-60455981D01*
X211280115Y-60509409D01*
X211297778Y-60527655D01*
X211370326Y-60619869D01*
X211383901Y-60641329D01*
X211436145Y-60746393D01*
X211445064Y-60770169D01*
X211470444Y-60867015D01*
X211474495Y-60898460D01*
X211473480Y-74014465D01*
X211453790Y-74081503D01*
X211400983Y-74127253D01*
X211331823Y-74137191D01*
X211268270Y-74108162D01*
X211238995Y-74070750D01*
X211214824Y-74023313D01*
X211137148Y-73916403D01*
X211137148Y-73916402D01*
X210502577Y-74550973D01*
X210489641Y-74519742D01*
X210407563Y-74396903D01*
X210303097Y-74292437D01*
X210180258Y-74210359D01*
X210149024Y-74197421D01*
X210783596Y-73562850D01*
X210676686Y-73485175D01*
X210448784Y-73369052D01*
X210448781Y-73369051D01*
X210205523Y-73290013D01*
X209952889Y-73250000D01*
X209697111Y-73250000D01*
X209444476Y-73290013D01*
X209201218Y-73369051D01*
X209201215Y-73369052D01*
X208973310Y-73485177D01*
X208866403Y-73562849D01*
X208866402Y-73562850D01*
X209500974Y-74197421D01*
X209469742Y-74210359D01*
X209346903Y-74292437D01*
X209242437Y-74396903D01*
X209160359Y-74519742D01*
X209147421Y-74550974D01*
X208512850Y-73916402D01*
X208512849Y-73916403D01*
X208435177Y-74023310D01*
X208319052Y-74251215D01*
X208319051Y-74251218D01*
X208240013Y-74494476D01*
X208200000Y-74747110D01*
X208200000Y-75002889D01*
X208240013Y-75255523D01*
X208319051Y-75498781D01*
X208319052Y-75498784D01*
X208435175Y-75726686D01*
X208512850Y-75833595D01*
X208512850Y-75833596D01*
X209147421Y-75199024D01*
X209160359Y-75230258D01*
X209242437Y-75353097D01*
X209346903Y-75457563D01*
X209469742Y-75539641D01*
X209500974Y-75552577D01*
X208866402Y-76187148D01*
X208973313Y-76264824D01*
X209201215Y-76380947D01*
X209201218Y-76380948D01*
X209444476Y-76459986D01*
X209697111Y-76500000D01*
X209952889Y-76500000D01*
X210205523Y-76459986D01*
X210448781Y-76380948D01*
X210448784Y-76380947D01*
X210676685Y-76264825D01*
X210783595Y-76187148D01*
X210783596Y-76187148D01*
X210149025Y-75552578D01*
X210180258Y-75539641D01*
X210303097Y-75457563D01*
X210407563Y-75353097D01*
X210489641Y-75230258D01*
X210502577Y-75199025D01*
X211137148Y-75833596D01*
X211137148Y-75833595D01*
X211214826Y-75726682D01*
X211238862Y-75679511D01*
X211286836Y-75628714D01*
X211354657Y-75611919D01*
X211420792Y-75634456D01*
X211464244Y-75689171D01*
X211473347Y-75735815D01*
X211473087Y-79093694D01*
X211453397Y-79160732D01*
X211400590Y-79206482D01*
X211331430Y-79216420D01*
X211267877Y-79187391D01*
X211238602Y-79149979D01*
X211214824Y-79103313D01*
X211137148Y-78996403D01*
X211137148Y-78996402D01*
X210502577Y-79630973D01*
X210489641Y-79599742D01*
X210407563Y-79476903D01*
X210303097Y-79372437D01*
X210180258Y-79290359D01*
X210149024Y-79277421D01*
X210783596Y-78642850D01*
X210676686Y-78565175D01*
X210448784Y-78449052D01*
X210448781Y-78449051D01*
X210205523Y-78370013D01*
X209952889Y-78330000D01*
X209697111Y-78330000D01*
X209444476Y-78370013D01*
X209201218Y-78449051D01*
X209201215Y-78449052D01*
X208973310Y-78565177D01*
X208866403Y-78642849D01*
X208866402Y-78642850D01*
X209500974Y-79277421D01*
X209469742Y-79290359D01*
X209346903Y-79372437D01*
X209242437Y-79476903D01*
X209160359Y-79599742D01*
X209147421Y-79630974D01*
X208512850Y-78996402D01*
X208512849Y-78996403D01*
X208435177Y-79103310D01*
X208319052Y-79331215D01*
X208319051Y-79331218D01*
X208240013Y-79574476D01*
X208200000Y-79827110D01*
X208200000Y-80082889D01*
X208240013Y-80335523D01*
X208319051Y-80578781D01*
X208319052Y-80578784D01*
X208435175Y-80806686D01*
X208512850Y-80913595D01*
X208512850Y-80913596D01*
X209147421Y-80279024D01*
X209160359Y-80310258D01*
X209242437Y-80433097D01*
X209346903Y-80537563D01*
X209469742Y-80619641D01*
X209500974Y-80632577D01*
X208866402Y-81267148D01*
X208973313Y-81344824D01*
X209201215Y-81460947D01*
X209201218Y-81460948D01*
X209444476Y-81539986D01*
X209697111Y-81580000D01*
X209952889Y-81580000D01*
X210205523Y-81539986D01*
X210448781Y-81460948D01*
X210448784Y-81460947D01*
X210676685Y-81344825D01*
X210783595Y-81267148D01*
X210783596Y-81267148D01*
X210149025Y-80632578D01*
X210180258Y-80619641D01*
X210303097Y-80537563D01*
X210407563Y-80433097D01*
X210489641Y-80310258D01*
X210502577Y-80279025D01*
X211137148Y-80913596D01*
X211137148Y-80913595D01*
X211214825Y-80806685D01*
X211238467Y-80760284D01*
X211286441Y-80709487D01*
X211354262Y-80692691D01*
X211420397Y-80715227D01*
X211463849Y-80769942D01*
X211472953Y-80816587D01*
X211469503Y-125377814D01*
X211469502Y-125385428D01*
X211469500Y-125385438D01*
X211469500Y-125417438D01*
X211469500Y-125419946D01*
X211469496Y-125472769D01*
X211469500Y-125472828D01*
X211469500Y-133168013D01*
X211449815Y-133235052D01*
X211439663Y-133248693D01*
X211069103Y-133681180D01*
X211010536Y-133719281D01*
X210974940Y-133724500D01*
X169096281Y-133724500D01*
X169029242Y-133704815D01*
X169005025Y-133684455D01*
X168783244Y-133443388D01*
X168752341Y-133380724D01*
X168750500Y-133359433D01*
X168750500Y-127725565D01*
X188474500Y-127725565D01*
X188474500Y-127824435D01*
X188500090Y-127919938D01*
X188549525Y-128005562D01*
X188619438Y-128075475D01*
X188705062Y-128124910D01*
X188800565Y-128150500D01*
X188800567Y-128150500D01*
X188899432Y-128150500D01*
X188899435Y-128150500D01*
X188994938Y-128124910D01*
X189080562Y-128075475D01*
X189150475Y-128005562D01*
X189196661Y-127925565D01*
X189624500Y-127925565D01*
X189624500Y-128024435D01*
X189650090Y-128119938D01*
X189650091Y-128119939D01*
X189650091Y-128119940D01*
X189663337Y-128142882D01*
X189699525Y-128205562D01*
X189769438Y-128275475D01*
X189855062Y-128324910D01*
X189950565Y-128350500D01*
X189950567Y-128350500D01*
X190049432Y-128350500D01*
X190049435Y-128350500D01*
X190144938Y-128324910D01*
X190230562Y-128275475D01*
X190300475Y-128205562D01*
X190349910Y-128119938D01*
X190375500Y-128024435D01*
X190375500Y-127950565D01*
X190624500Y-127950565D01*
X190624500Y-128049435D01*
X190650090Y-128144938D01*
X190699525Y-128230562D01*
X190769438Y-128300475D01*
X190855062Y-128349910D01*
X190950565Y-128375500D01*
X190950567Y-128375500D01*
X191049432Y-128375500D01*
X191049435Y-128375500D01*
X191144938Y-128349910D01*
X191230562Y-128300475D01*
X191300475Y-128230562D01*
X191349910Y-128144938D01*
X191375500Y-128049435D01*
X191375500Y-127975565D01*
X191624500Y-127975565D01*
X191624500Y-128074435D01*
X191650090Y-128169938D01*
X191699525Y-128255562D01*
X191769438Y-128325475D01*
X191855062Y-128374910D01*
X191950565Y-128400500D01*
X191950567Y-128400500D01*
X192049432Y-128400500D01*
X192049435Y-128400500D01*
X192144938Y-128374910D01*
X192230562Y-128325475D01*
X192300475Y-128255562D01*
X192349910Y-128169938D01*
X192375500Y-128074435D01*
X192375500Y-127975565D01*
X192349910Y-127880062D01*
X192300475Y-127794438D01*
X192230562Y-127724525D01*
X192144938Y-127675090D01*
X192049435Y-127649500D01*
X191950565Y-127649500D01*
X191855062Y-127675090D01*
X191855060Y-127675091D01*
X191855059Y-127675091D01*
X191769436Y-127724526D01*
X191699526Y-127794436D01*
X191650091Y-127880059D01*
X191650091Y-127880060D01*
X191650090Y-127880062D01*
X191624500Y-127975565D01*
X191375500Y-127975565D01*
X191375500Y-127950565D01*
X191349910Y-127855062D01*
X191300475Y-127769438D01*
X191230562Y-127699525D01*
X191144938Y-127650090D01*
X191049435Y-127624500D01*
X190950565Y-127624500D01*
X190855062Y-127650090D01*
X190855060Y-127650091D01*
X190855059Y-127650091D01*
X190769436Y-127699526D01*
X190699526Y-127769436D01*
X190650091Y-127855059D01*
X190650091Y-127855060D01*
X190650090Y-127855062D01*
X190624500Y-127950565D01*
X190375500Y-127950565D01*
X190375500Y-127925565D01*
X190349910Y-127830062D01*
X190300475Y-127744438D01*
X190230562Y-127674525D01*
X190144938Y-127625090D01*
X190049435Y-127599500D01*
X189950565Y-127599500D01*
X189855062Y-127625090D01*
X189855060Y-127625091D01*
X189855059Y-127625091D01*
X189769436Y-127674526D01*
X189699526Y-127744436D01*
X189650091Y-127830059D01*
X189650091Y-127830060D01*
X189650090Y-127830062D01*
X189624500Y-127925565D01*
X189196661Y-127925565D01*
X189199910Y-127919938D01*
X189225500Y-127824435D01*
X189225500Y-127725565D01*
X189199910Y-127630062D01*
X189150475Y-127544438D01*
X189080562Y-127474525D01*
X188994938Y-127425090D01*
X188899435Y-127399500D01*
X188800565Y-127399500D01*
X188705062Y-127425090D01*
X188705060Y-127425091D01*
X188705059Y-127425091D01*
X188619436Y-127474526D01*
X188549526Y-127544436D01*
X188500091Y-127630059D01*
X188500091Y-127630060D01*
X188500090Y-127630062D01*
X188474500Y-127725565D01*
X168750500Y-127725565D01*
X168750500Y-126471381D01*
X168716390Y-126266967D01*
X168704627Y-126232704D01*
X168693594Y-126200567D01*
X199955413Y-126200567D01*
X199955413Y-126299437D01*
X199981003Y-126394940D01*
X200030438Y-126480564D01*
X200100351Y-126550477D01*
X200185975Y-126599912D01*
X200281478Y-126625502D01*
X200281480Y-126625502D01*
X200380345Y-126625502D01*
X200380348Y-126625502D01*
X200475851Y-126599912D01*
X200561475Y-126550477D01*
X200631388Y-126480564D01*
X200680823Y-126394940D01*
X200706413Y-126299437D01*
X200706413Y-126200567D01*
X200680823Y-126105064D01*
X200631388Y-126019440D01*
X200561475Y-125949527D01*
X200475851Y-125900092D01*
X200380348Y-125874502D01*
X200281478Y-125874502D01*
X200185975Y-125900092D01*
X200185973Y-125900093D01*
X200185972Y-125900093D01*
X200100349Y-125949528D01*
X200030439Y-126019438D01*
X199981004Y-126105061D01*
X199981004Y-126105062D01*
X199981003Y-126105064D01*
X199955413Y-126200567D01*
X168693594Y-126200567D01*
X168649100Y-126070958D01*
X168550465Y-125888697D01*
X168520274Y-125849908D01*
X168423181Y-125725163D01*
X168423178Y-125725159D01*
X168401890Y-125705562D01*
X168270706Y-125584798D01*
X168211698Y-125546246D01*
X168211697Y-125546245D01*
X168097211Y-125471448D01*
X168049602Y-125450565D01*
X195899500Y-125450565D01*
X195899500Y-125549435D01*
X195925090Y-125644938D01*
X195974525Y-125730562D01*
X196044438Y-125800475D01*
X196130062Y-125849910D01*
X196225565Y-125875500D01*
X196225567Y-125875500D01*
X196324432Y-125875500D01*
X196324435Y-125875500D01*
X196419938Y-125849910D01*
X196505562Y-125800475D01*
X196562319Y-125743718D01*
X196623642Y-125710233D01*
X196693334Y-125715217D01*
X196737681Y-125743718D01*
X196769438Y-125775475D01*
X196855062Y-125824910D01*
X196950565Y-125850500D01*
X196950567Y-125850500D01*
X197049432Y-125850500D01*
X197049435Y-125850500D01*
X197144938Y-125824910D01*
X197230562Y-125775475D01*
X197300475Y-125705562D01*
X197349910Y-125619938D01*
X197375500Y-125524435D01*
X197375500Y-125425565D01*
X197349910Y-125330062D01*
X197300475Y-125244438D01*
X197230562Y-125174525D01*
X197144938Y-125125090D01*
X197049435Y-125099500D01*
X196950565Y-125099500D01*
X196855062Y-125125090D01*
X196855060Y-125125091D01*
X196855059Y-125125091D01*
X196769436Y-125174526D01*
X196712681Y-125231282D01*
X196651358Y-125264767D01*
X196581666Y-125259783D01*
X196537319Y-125231282D01*
X196505563Y-125199526D01*
X196505562Y-125199525D01*
X196419938Y-125150090D01*
X196324435Y-125124500D01*
X196225565Y-125124500D01*
X196130062Y-125150090D01*
X196130060Y-125150091D01*
X196130059Y-125150091D01*
X196044436Y-125199526D01*
X195974526Y-125269436D01*
X195925091Y-125355059D01*
X195925091Y-125355060D01*
X195925090Y-125355062D01*
X195899500Y-125450565D01*
X168049602Y-125450565D01*
X167907428Y-125388202D01*
X167706527Y-125337327D01*
X167500006Y-125320214D01*
X167499994Y-125320214D01*
X167293472Y-125337327D01*
X167092571Y-125388202D01*
X166902788Y-125471448D01*
X166729296Y-125584795D01*
X166576821Y-125725159D01*
X166576818Y-125725163D01*
X166449537Y-125888693D01*
X166449534Y-125888697D01*
X166350900Y-126070956D01*
X166350898Y-126070962D01*
X166283610Y-126266965D01*
X166249500Y-126471381D01*
X166249500Y-133349167D01*
X166229815Y-133416206D01*
X166213181Y-133436848D01*
X165961848Y-133688181D01*
X165900525Y-133721666D01*
X165874167Y-133724500D01*
X156025833Y-133724500D01*
X155958794Y-133704815D01*
X155938152Y-133688181D01*
X155686819Y-133436848D01*
X155653334Y-133375525D01*
X155650500Y-133349167D01*
X155650500Y-126600564D01*
X162624476Y-126600564D01*
X162624476Y-126699434D01*
X162650066Y-126794937D01*
X162699501Y-126880561D01*
X162769414Y-126950474D01*
X162855038Y-126999909D01*
X162950541Y-127025499D01*
X162950543Y-127025499D01*
X163049408Y-127025499D01*
X163049411Y-127025499D01*
X163144914Y-126999909D01*
X163230538Y-126950474D01*
X163300451Y-126880561D01*
X163349886Y-126794937D01*
X163375476Y-126699434D01*
X163375476Y-126600564D01*
X163349886Y-126505061D01*
X163300451Y-126419437D01*
X163230538Y-126349524D01*
X163144914Y-126300089D01*
X163049411Y-126274499D01*
X162950541Y-126274499D01*
X162855038Y-126300089D01*
X162855036Y-126300090D01*
X162855035Y-126300090D01*
X162769412Y-126349525D01*
X162699502Y-126419435D01*
X162650067Y-126505058D01*
X162650067Y-126505059D01*
X162650066Y-126505061D01*
X162624476Y-126600564D01*
X155650500Y-126600564D01*
X155650500Y-125225564D01*
X158424500Y-125225564D01*
X158424500Y-125324434D01*
X158450090Y-125419937D01*
X158499525Y-125505561D01*
X158569438Y-125575474D01*
X158655062Y-125624909D01*
X158750565Y-125650499D01*
X158750567Y-125650499D01*
X158849432Y-125650499D01*
X158849435Y-125650499D01*
X158944938Y-125624909D01*
X159030562Y-125575474D01*
X159100475Y-125505561D01*
X159149910Y-125419937D01*
X159175500Y-125324434D01*
X159175500Y-125225564D01*
X159149910Y-125130061D01*
X159132848Y-125100508D01*
X160624500Y-125100508D01*
X160624500Y-125199378D01*
X160650090Y-125294881D01*
X160699525Y-125380505D01*
X160769438Y-125450418D01*
X160855062Y-125499853D01*
X160950565Y-125525443D01*
X160950567Y-125525443D01*
X161049432Y-125525443D01*
X161049435Y-125525443D01*
X161144938Y-125499853D01*
X161230562Y-125450418D01*
X161300475Y-125380505D01*
X161349910Y-125294881D01*
X161375500Y-125199378D01*
X161375500Y-125100508D01*
X161349910Y-125005005D01*
X161300475Y-124919381D01*
X161230562Y-124849468D01*
X161144938Y-124800033D01*
X161049435Y-124774443D01*
X160950565Y-124774443D01*
X160855062Y-124800033D01*
X160855060Y-124800034D01*
X160855059Y-124800034D01*
X160769436Y-124849469D01*
X160699526Y-124919379D01*
X160650091Y-125005002D01*
X160650091Y-125005003D01*
X160650090Y-125005005D01*
X160624500Y-125100508D01*
X159132848Y-125100508D01*
X159100475Y-125044437D01*
X159030562Y-124974524D01*
X158944938Y-124925089D01*
X158849435Y-124899499D01*
X158750565Y-124899499D01*
X158655062Y-124925089D01*
X158655060Y-124925090D01*
X158655059Y-124925090D01*
X158569436Y-124974525D01*
X158499526Y-125044435D01*
X158450091Y-125130058D01*
X158450091Y-125130059D01*
X158450090Y-125130061D01*
X158424500Y-125225564D01*
X155650500Y-125225564D01*
X155650500Y-123987399D01*
X192549500Y-123987399D01*
X192549500Y-124112601D01*
X192581905Y-124233536D01*
X192644505Y-124341964D01*
X192733036Y-124430495D01*
X192841464Y-124493095D01*
X192962399Y-124525500D01*
X192962401Y-124525500D01*
X193087599Y-124525500D01*
X193087601Y-124525500D01*
X193208536Y-124493095D01*
X193316964Y-124430495D01*
X193358221Y-124389238D01*
X205330899Y-124389238D01*
X205330899Y-124488108D01*
X205356489Y-124583611D01*
X205405924Y-124669235D01*
X205475837Y-124739148D01*
X205561461Y-124788583D01*
X205656964Y-124814173D01*
X205656966Y-124814173D01*
X205755831Y-124814173D01*
X205755834Y-124814173D01*
X205851337Y-124788583D01*
X205936961Y-124739148D01*
X206006874Y-124669235D01*
X206056309Y-124583611D01*
X206081899Y-124488108D01*
X206081899Y-124389238D01*
X206056309Y-124293735D01*
X206006874Y-124208111D01*
X205936961Y-124138198D01*
X205851337Y-124088763D01*
X205755834Y-124063173D01*
X205656964Y-124063173D01*
X205561461Y-124088763D01*
X205561459Y-124088764D01*
X205561458Y-124088764D01*
X205475835Y-124138199D01*
X205405925Y-124208109D01*
X205356490Y-124293732D01*
X205356490Y-124293733D01*
X205356489Y-124293735D01*
X205330899Y-124389238D01*
X193358221Y-124389238D01*
X193405495Y-124341964D01*
X193468095Y-124233536D01*
X193500500Y-124112601D01*
X193500500Y-123987399D01*
X193468095Y-123866464D01*
X193405495Y-123758036D01*
X193316964Y-123669505D01*
X193208536Y-123606905D01*
X193208537Y-123606905D01*
X193168224Y-123596103D01*
X193087601Y-123574500D01*
X192962399Y-123574500D01*
X192881775Y-123596103D01*
X192841463Y-123606905D01*
X192733037Y-123669504D01*
X192733034Y-123669506D01*
X192644506Y-123758034D01*
X192644504Y-123758037D01*
X192581905Y-123866463D01*
X192581905Y-123866464D01*
X192549500Y-123987399D01*
X155650500Y-123987399D01*
X155650500Y-120637110D01*
X156335000Y-120637110D01*
X156335000Y-120892889D01*
X156375013Y-121145523D01*
X156454051Y-121388781D01*
X156454052Y-121388784D01*
X156570175Y-121616686D01*
X156647850Y-121723595D01*
X156647850Y-121723596D01*
X157282421Y-121089024D01*
X157295359Y-121120258D01*
X157377437Y-121243097D01*
X157481903Y-121347563D01*
X157604742Y-121429641D01*
X157635974Y-121442577D01*
X157001402Y-122077148D01*
X157108313Y-122154824D01*
X157336215Y-122270947D01*
X157336218Y-122270948D01*
X157579476Y-122349986D01*
X157832111Y-122390000D01*
X158087889Y-122390000D01*
X158340523Y-122349986D01*
X158583781Y-122270948D01*
X158583784Y-122270947D01*
X158811685Y-122154825D01*
X158918595Y-122077148D01*
X158918596Y-122077148D01*
X158284025Y-121442578D01*
X158315258Y-121429641D01*
X158438097Y-121347563D01*
X158542563Y-121243097D01*
X158624641Y-121120258D01*
X158637578Y-121089025D01*
X159272148Y-121723596D01*
X159272148Y-121723595D01*
X159349825Y-121616685D01*
X159465947Y-121388784D01*
X159465948Y-121388781D01*
X159544986Y-121145523D01*
X159585000Y-120892889D01*
X159585000Y-120637110D01*
X161415000Y-120637110D01*
X161415000Y-120892889D01*
X161455013Y-121145523D01*
X161534051Y-121388781D01*
X161534052Y-121388784D01*
X161650175Y-121616686D01*
X161727850Y-121723595D01*
X161727850Y-121723596D01*
X162362421Y-121089024D01*
X162375359Y-121120258D01*
X162457437Y-121243097D01*
X162561903Y-121347563D01*
X162684742Y-121429641D01*
X162715974Y-121442577D01*
X162081402Y-122077148D01*
X162188313Y-122154824D01*
X162416215Y-122270947D01*
X162416218Y-122270948D01*
X162659476Y-122349986D01*
X162912111Y-122390000D01*
X163167889Y-122390000D01*
X163420523Y-122349986D01*
X163663781Y-122270948D01*
X163663784Y-122270947D01*
X163891685Y-122154825D01*
X163998595Y-122077148D01*
X163998596Y-122077148D01*
X163364025Y-121442578D01*
X163395258Y-121429641D01*
X163518097Y-121347563D01*
X163622563Y-121243097D01*
X163704641Y-121120258D01*
X163717578Y-121089025D01*
X164352148Y-121723596D01*
X164352148Y-121723595D01*
X164429825Y-121616685D01*
X164545947Y-121388784D01*
X164545948Y-121388781D01*
X164573589Y-121303711D01*
X168074500Y-121303711D01*
X168074500Y-121546288D01*
X168106161Y-121786785D01*
X168168947Y-122021104D01*
X168261773Y-122245205D01*
X168261776Y-122245212D01*
X168383064Y-122455289D01*
X168383066Y-122455292D01*
X168383067Y-122455293D01*
X168530733Y-122647736D01*
X168530739Y-122647743D01*
X168702256Y-122819260D01*
X168702262Y-122819265D01*
X168894711Y-122966936D01*
X169104788Y-123088224D01*
X169328900Y-123181054D01*
X169563211Y-123243838D01*
X169743586Y-123267584D01*
X169803711Y-123275500D01*
X169803712Y-123275500D01*
X170046289Y-123275500D01*
X170094388Y-123269167D01*
X170286789Y-123243838D01*
X170521100Y-123181054D01*
X170745212Y-123088224D01*
X170955289Y-122966936D01*
X171147738Y-122819265D01*
X171319265Y-122647738D01*
X171466936Y-122455289D01*
X171588224Y-122245212D01*
X171681054Y-122021100D01*
X171743838Y-121786789D01*
X171755189Y-121700565D01*
X180974500Y-121700565D01*
X180974500Y-121799435D01*
X181000090Y-121894938D01*
X181049525Y-121980562D01*
X181119438Y-122050475D01*
X181205062Y-122099910D01*
X181300565Y-122125500D01*
X181300567Y-122125500D01*
X181399432Y-122125500D01*
X181399435Y-122125500D01*
X181494938Y-122099910D01*
X181580562Y-122050475D01*
X181630472Y-122000565D01*
X191199500Y-122000565D01*
X191199500Y-122099435D01*
X191225090Y-122194938D01*
X191274525Y-122280562D01*
X191344438Y-122350475D01*
X191430062Y-122399910D01*
X191525565Y-122425500D01*
X191525567Y-122425500D01*
X191624432Y-122425500D01*
X191624435Y-122425500D01*
X191719938Y-122399910D01*
X191805562Y-122350475D01*
X191875475Y-122280562D01*
X191924910Y-122194938D01*
X191950500Y-122099435D01*
X191950500Y-122000565D01*
X191924910Y-121905062D01*
X191875475Y-121819438D01*
X191805562Y-121749525D01*
X191719938Y-121700090D01*
X191624435Y-121674500D01*
X191525565Y-121674500D01*
X191430062Y-121700090D01*
X191430060Y-121700091D01*
X191430059Y-121700091D01*
X191344436Y-121749526D01*
X191274526Y-121819436D01*
X191225091Y-121905059D01*
X191225091Y-121905060D01*
X191225090Y-121905062D01*
X191199500Y-122000565D01*
X181630472Y-122000565D01*
X181650475Y-121980562D01*
X181699910Y-121894938D01*
X181725500Y-121799435D01*
X181725500Y-121700565D01*
X181699910Y-121605062D01*
X181668446Y-121550565D01*
X192524500Y-121550565D01*
X192524500Y-121649435D01*
X192550090Y-121744938D01*
X192599525Y-121830562D01*
X192669438Y-121900475D01*
X192755062Y-121949910D01*
X192850565Y-121975500D01*
X192850567Y-121975500D01*
X192949432Y-121975500D01*
X192949435Y-121975500D01*
X193044938Y-121949910D01*
X193130562Y-121900475D01*
X193200475Y-121830562D01*
X193249910Y-121744938D01*
X193275500Y-121649435D01*
X193275500Y-121550565D01*
X193249910Y-121455062D01*
X193200475Y-121369438D01*
X193130562Y-121299525D01*
X193044938Y-121250090D01*
X192949435Y-121224500D01*
X192850565Y-121224500D01*
X192755062Y-121250090D01*
X192755060Y-121250091D01*
X192755059Y-121250091D01*
X192669436Y-121299526D01*
X192599526Y-121369436D01*
X192550091Y-121455059D01*
X192550091Y-121455060D01*
X192550090Y-121455062D01*
X192524500Y-121550565D01*
X181668446Y-121550565D01*
X181650475Y-121519438D01*
X181580562Y-121449525D01*
X181494938Y-121400090D01*
X181399435Y-121374500D01*
X181300565Y-121374500D01*
X181205062Y-121400090D01*
X181205060Y-121400091D01*
X181205059Y-121400091D01*
X181119436Y-121449526D01*
X181049526Y-121519436D01*
X181000091Y-121605059D01*
X181000091Y-121605060D01*
X181000090Y-121605062D01*
X180974500Y-121700565D01*
X171755189Y-121700565D01*
X171775500Y-121546288D01*
X171775500Y-121303712D01*
X171743838Y-121063211D01*
X171681054Y-120828900D01*
X171617541Y-120675565D01*
X180824500Y-120675565D01*
X180824500Y-120774435D01*
X180850090Y-120869938D01*
X180899525Y-120955562D01*
X180969438Y-121025475D01*
X181055062Y-121074910D01*
X181150565Y-121100500D01*
X181150567Y-121100500D01*
X181249432Y-121100500D01*
X181249435Y-121100500D01*
X181344938Y-121074910D01*
X181430406Y-121025565D01*
X193524500Y-121025565D01*
X193524500Y-121124435D01*
X193550090Y-121219938D01*
X193599525Y-121305562D01*
X193669438Y-121375475D01*
X193755062Y-121424910D01*
X193850565Y-121450500D01*
X193850567Y-121450500D01*
X193949432Y-121450500D01*
X193949435Y-121450500D01*
X194044938Y-121424910D01*
X194130562Y-121375475D01*
X194200475Y-121305562D01*
X194249910Y-121219938D01*
X194275500Y-121124435D01*
X194275500Y-121025565D01*
X194249910Y-120930062D01*
X194200475Y-120844438D01*
X194130562Y-120774525D01*
X194044938Y-120725090D01*
X193949435Y-120699500D01*
X193850565Y-120699500D01*
X193755062Y-120725090D01*
X193755060Y-120725091D01*
X193755059Y-120725091D01*
X193669436Y-120774526D01*
X193599526Y-120844436D01*
X193550091Y-120930059D01*
X193550091Y-120930060D01*
X193550090Y-120930062D01*
X193524500Y-121025565D01*
X181430406Y-121025565D01*
X181430562Y-121025475D01*
X181461663Y-120994373D01*
X181522983Y-120960889D01*
X181592675Y-120965873D01*
X181611340Y-120974667D01*
X181655062Y-120999910D01*
X181750565Y-121025500D01*
X181750567Y-121025500D01*
X181849432Y-121025500D01*
X181849435Y-121025500D01*
X181944938Y-120999910D01*
X182030562Y-120950475D01*
X182100475Y-120880562D01*
X182149910Y-120794938D01*
X182175500Y-120699435D01*
X182175500Y-120600565D01*
X182149910Y-120505062D01*
X182118204Y-120450146D01*
X183849500Y-120450146D01*
X183849500Y-120549016D01*
X183875090Y-120644519D01*
X183924525Y-120730143D01*
X183994438Y-120800056D01*
X184080062Y-120849491D01*
X184175565Y-120875081D01*
X184175567Y-120875081D01*
X184274432Y-120875081D01*
X184274435Y-120875081D01*
X184369938Y-120849491D01*
X184455562Y-120800056D01*
X184525475Y-120730143D01*
X184574910Y-120644519D01*
X184600500Y-120549016D01*
X184600500Y-120450146D01*
X184587215Y-120400565D01*
X192574500Y-120400565D01*
X192574500Y-120499435D01*
X192600090Y-120594938D01*
X192649525Y-120680562D01*
X192719438Y-120750475D01*
X192805062Y-120799910D01*
X192900565Y-120825500D01*
X192900567Y-120825500D01*
X192999432Y-120825500D01*
X192999435Y-120825500D01*
X193094938Y-120799910D01*
X193180562Y-120750475D01*
X193250475Y-120680562D01*
X193275562Y-120637110D01*
X202435000Y-120637110D01*
X202435000Y-120892889D01*
X202475013Y-121145523D01*
X202554051Y-121388781D01*
X202554052Y-121388784D01*
X202670175Y-121616686D01*
X202747850Y-121723595D01*
X202747850Y-121723596D01*
X203382421Y-121089024D01*
X203395359Y-121120258D01*
X203477437Y-121243097D01*
X203581903Y-121347563D01*
X203704742Y-121429641D01*
X203735974Y-121442577D01*
X203101402Y-122077148D01*
X203208313Y-122154824D01*
X203436215Y-122270947D01*
X203436218Y-122270948D01*
X203679476Y-122349986D01*
X203932111Y-122390000D01*
X204187889Y-122390000D01*
X204440523Y-122349986D01*
X204683781Y-122270948D01*
X204683784Y-122270947D01*
X204911685Y-122154825D01*
X205018595Y-122077148D01*
X205018596Y-122077148D01*
X204384025Y-121442578D01*
X204415258Y-121429641D01*
X204538097Y-121347563D01*
X204642563Y-121243097D01*
X204724641Y-121120258D01*
X204737577Y-121089025D01*
X205372148Y-121723596D01*
X205372148Y-121723595D01*
X205449825Y-121616685D01*
X205565947Y-121388784D01*
X205565948Y-121388781D01*
X205644986Y-121145523D01*
X205685000Y-120892889D01*
X205685000Y-120637110D01*
X207515000Y-120637110D01*
X207515000Y-120892889D01*
X207555013Y-121145523D01*
X207634051Y-121388781D01*
X207634052Y-121388784D01*
X207750175Y-121616686D01*
X207827850Y-121723595D01*
X207827850Y-121723596D01*
X208462421Y-121089024D01*
X208475359Y-121120258D01*
X208557437Y-121243097D01*
X208661903Y-121347563D01*
X208784742Y-121429641D01*
X208815974Y-121442577D01*
X208181402Y-122077148D01*
X208288313Y-122154824D01*
X208516215Y-122270947D01*
X208516218Y-122270948D01*
X208759476Y-122349986D01*
X209012111Y-122390000D01*
X209267889Y-122390000D01*
X209520523Y-122349986D01*
X209763781Y-122270948D01*
X209763784Y-122270947D01*
X209991685Y-122154825D01*
X210098595Y-122077148D01*
X210098596Y-122077148D01*
X209464025Y-121442578D01*
X209495258Y-121429641D01*
X209618097Y-121347563D01*
X209722563Y-121243097D01*
X209804641Y-121120258D01*
X209817578Y-121089025D01*
X210452148Y-121723596D01*
X210452148Y-121723595D01*
X210529825Y-121616685D01*
X210645947Y-121388784D01*
X210645948Y-121388781D01*
X210724986Y-121145523D01*
X210765000Y-120892889D01*
X210765000Y-120637110D01*
X210724986Y-120384476D01*
X210645948Y-120141218D01*
X210645947Y-120141215D01*
X210529824Y-119913313D01*
X210452148Y-119806403D01*
X210452148Y-119806402D01*
X209817577Y-120440973D01*
X209804641Y-120409742D01*
X209722563Y-120286903D01*
X209618097Y-120182437D01*
X209495258Y-120100359D01*
X209464024Y-120087421D01*
X210098596Y-119452850D01*
X209991686Y-119375175D01*
X209763784Y-119259052D01*
X209763781Y-119259051D01*
X209520523Y-119180013D01*
X209267889Y-119140000D01*
X209012111Y-119140000D01*
X208759476Y-119180013D01*
X208516218Y-119259051D01*
X208516215Y-119259052D01*
X208288310Y-119375177D01*
X208181403Y-119452849D01*
X208181402Y-119452850D01*
X208815974Y-120087421D01*
X208784742Y-120100359D01*
X208661903Y-120182437D01*
X208557437Y-120286903D01*
X208475359Y-120409742D01*
X208462421Y-120440974D01*
X207827850Y-119806402D01*
X207827849Y-119806403D01*
X207750177Y-119913310D01*
X207634052Y-120141215D01*
X207634051Y-120141218D01*
X207555013Y-120384476D01*
X207515000Y-120637110D01*
X205685000Y-120637110D01*
X205644986Y-120384476D01*
X205565948Y-120141218D01*
X205565947Y-120141215D01*
X205449824Y-119913313D01*
X205372148Y-119806403D01*
X205372148Y-119806402D01*
X204737577Y-120440973D01*
X204724641Y-120409742D01*
X204642563Y-120286903D01*
X204538097Y-120182437D01*
X204415258Y-120100359D01*
X204384024Y-120087421D01*
X205018596Y-119452850D01*
X204911686Y-119375175D01*
X204683784Y-119259052D01*
X204683781Y-119259051D01*
X204440523Y-119180013D01*
X204187889Y-119140000D01*
X203932111Y-119140000D01*
X203679476Y-119180013D01*
X203436218Y-119259051D01*
X203436215Y-119259052D01*
X203208310Y-119375177D01*
X203101403Y-119452849D01*
X203101402Y-119452850D01*
X203735974Y-120087421D01*
X203704742Y-120100359D01*
X203581903Y-120182437D01*
X203477437Y-120286903D01*
X203395359Y-120409742D01*
X203382421Y-120440974D01*
X202747850Y-119806402D01*
X202747849Y-119806403D01*
X202670177Y-119913310D01*
X202554052Y-120141215D01*
X202554051Y-120141218D01*
X202475013Y-120384476D01*
X202435000Y-120637110D01*
X193275562Y-120637110D01*
X193299910Y-120594938D01*
X193325500Y-120499435D01*
X193325500Y-120400565D01*
X193299910Y-120305062D01*
X193250475Y-120219438D01*
X193180562Y-120149525D01*
X193094938Y-120100090D01*
X192999435Y-120074500D01*
X192900565Y-120074500D01*
X192805062Y-120100090D01*
X192805060Y-120100091D01*
X192805059Y-120100091D01*
X192719436Y-120149526D01*
X192649526Y-120219436D01*
X192600091Y-120305059D01*
X192600091Y-120305060D01*
X192600090Y-120305062D01*
X192574500Y-120400565D01*
X184587215Y-120400565D01*
X184574910Y-120354643D01*
X184525475Y-120269019D01*
X184455562Y-120199106D01*
X184369938Y-120149671D01*
X184274435Y-120124081D01*
X184175565Y-120124081D01*
X184080062Y-120149671D01*
X184080060Y-120149672D01*
X184080059Y-120149672D01*
X183994436Y-120199107D01*
X183924526Y-120269017D01*
X183875091Y-120354640D01*
X183875091Y-120354641D01*
X183875090Y-120354643D01*
X183849500Y-120450146D01*
X182118204Y-120450146D01*
X182100475Y-120419438D01*
X182030562Y-120349525D01*
X181944938Y-120300090D01*
X181849435Y-120274500D01*
X181750565Y-120274500D01*
X181655062Y-120300090D01*
X181655060Y-120300091D01*
X181655059Y-120300091D01*
X181569436Y-120349526D01*
X181538336Y-120380626D01*
X181477012Y-120414111D01*
X181407321Y-120409125D01*
X181388664Y-120400335D01*
X181344938Y-120375090D01*
X181249435Y-120349500D01*
X181150565Y-120349500D01*
X181055062Y-120375090D01*
X181055060Y-120375091D01*
X181055059Y-120375091D01*
X180969436Y-120424526D01*
X180899526Y-120494436D01*
X180850091Y-120580059D01*
X180850091Y-120580060D01*
X180850090Y-120580062D01*
X180824500Y-120675565D01*
X171617541Y-120675565D01*
X171604682Y-120644521D01*
X171588229Y-120604799D01*
X171588226Y-120604793D01*
X171588224Y-120604788D01*
X171466936Y-120394711D01*
X171360164Y-120255563D01*
X171319266Y-120202263D01*
X171319260Y-120202256D01*
X171147743Y-120030739D01*
X171147736Y-120030733D01*
X170955293Y-119883067D01*
X170955292Y-119883066D01*
X170955289Y-119883064D01*
X170754198Y-119766964D01*
X170745214Y-119761777D01*
X170745205Y-119761773D01*
X170521104Y-119668947D01*
X170286785Y-119606161D01*
X170046289Y-119574500D01*
X170046288Y-119574500D01*
X169803712Y-119574500D01*
X169803711Y-119574500D01*
X169563214Y-119606161D01*
X169328895Y-119668947D01*
X169104794Y-119761773D01*
X169104785Y-119761777D01*
X168894706Y-119883067D01*
X168702263Y-120030733D01*
X168702256Y-120030739D01*
X168530739Y-120202256D01*
X168530733Y-120202263D01*
X168383067Y-120394706D01*
X168261777Y-120604785D01*
X168261773Y-120604794D01*
X168168947Y-120828895D01*
X168106161Y-121063214D01*
X168074500Y-121303711D01*
X164573589Y-121303711D01*
X164587358Y-121261335D01*
X164624986Y-121145523D01*
X164665000Y-120892889D01*
X164665000Y-120637110D01*
X164624986Y-120384476D01*
X164545948Y-120141218D01*
X164545947Y-120141215D01*
X164429824Y-119913313D01*
X164352148Y-119806403D01*
X164352148Y-119806402D01*
X163717577Y-120440973D01*
X163704641Y-120409742D01*
X163622563Y-120286903D01*
X163518097Y-120182437D01*
X163395258Y-120100359D01*
X163364024Y-120087421D01*
X163998596Y-119452850D01*
X163891686Y-119375175D01*
X163663784Y-119259052D01*
X163663781Y-119259051D01*
X163420523Y-119180013D01*
X163167889Y-119140000D01*
X162912111Y-119140000D01*
X162659476Y-119180013D01*
X162416218Y-119259051D01*
X162416215Y-119259052D01*
X162188310Y-119375177D01*
X162081403Y-119452849D01*
X162081402Y-119452850D01*
X162715974Y-120087421D01*
X162684742Y-120100359D01*
X162561903Y-120182437D01*
X162457437Y-120286903D01*
X162375359Y-120409742D01*
X162362421Y-120440974D01*
X161727850Y-119806402D01*
X161727849Y-119806403D01*
X161650177Y-119913310D01*
X161534052Y-120141215D01*
X161534051Y-120141218D01*
X161455013Y-120384476D01*
X161415000Y-120637110D01*
X159585000Y-120637110D01*
X159544986Y-120384476D01*
X159465948Y-120141218D01*
X159465947Y-120141215D01*
X159349824Y-119913313D01*
X159272148Y-119806403D01*
X159272148Y-119806402D01*
X158637577Y-120440973D01*
X158624641Y-120409742D01*
X158542563Y-120286903D01*
X158438097Y-120182437D01*
X158315258Y-120100359D01*
X158284024Y-120087421D01*
X158918596Y-119452850D01*
X158811686Y-119375175D01*
X158583784Y-119259052D01*
X158583781Y-119259051D01*
X158340523Y-119180013D01*
X158087889Y-119140000D01*
X157832111Y-119140000D01*
X157579476Y-119180013D01*
X157336218Y-119259051D01*
X157336215Y-119259052D01*
X157108310Y-119375177D01*
X157001403Y-119452849D01*
X157001402Y-119452850D01*
X157635974Y-120087421D01*
X157604742Y-120100359D01*
X157481903Y-120182437D01*
X157377437Y-120286903D01*
X157295359Y-120409742D01*
X157282421Y-120440974D01*
X156647850Y-119806402D01*
X156647849Y-119806403D01*
X156570177Y-119913310D01*
X156454052Y-120141215D01*
X156454051Y-120141218D01*
X156375013Y-120384476D01*
X156335000Y-120637110D01*
X155650500Y-120637110D01*
X155650500Y-118323543D01*
X159499499Y-118323543D01*
X159537947Y-118516829D01*
X159537950Y-118516839D01*
X159613364Y-118698907D01*
X159613371Y-118698920D01*
X159722860Y-118862781D01*
X159722863Y-118862785D01*
X159862214Y-119002136D01*
X159862218Y-119002139D01*
X160026079Y-119111628D01*
X160026092Y-119111635D01*
X160198467Y-119183034D01*
X160208165Y-119187051D01*
X160208169Y-119187051D01*
X160208170Y-119187052D01*
X160401456Y-119225500D01*
X160401459Y-119225500D01*
X160598543Y-119225500D01*
X160728582Y-119199632D01*
X160791835Y-119187051D01*
X160973914Y-119111632D01*
X161137782Y-119002139D01*
X161277139Y-118862782D01*
X161386632Y-118698914D01*
X161462051Y-118516835D01*
X161490359Y-118374524D01*
X161492771Y-118362399D01*
X184349500Y-118362399D01*
X184349500Y-118487601D01*
X184381905Y-118608536D01*
X184434087Y-118698920D01*
X184444504Y-118716962D01*
X184444506Y-118716965D01*
X184523071Y-118795530D01*
X184556556Y-118856853D01*
X184551572Y-118926545D01*
X184523071Y-118970892D01*
X184499526Y-118994436D01*
X184450091Y-119080059D01*
X184450091Y-119080060D01*
X184450090Y-119080062D01*
X184424500Y-119175565D01*
X184424500Y-119274435D01*
X184450090Y-119369938D01*
X184450091Y-119369939D01*
X184450091Y-119369940D01*
X184453115Y-119375177D01*
X184499525Y-119455562D01*
X184569438Y-119525475D01*
X184655062Y-119574910D01*
X184750565Y-119600500D01*
X184750567Y-119600500D01*
X184849432Y-119600500D01*
X184849435Y-119600500D01*
X184944938Y-119574910D01*
X185030562Y-119525475D01*
X185100475Y-119455562D01*
X185149910Y-119369938D01*
X185175500Y-119274435D01*
X185175500Y-119175565D01*
X185149910Y-119080062D01*
X185100475Y-118994438D01*
X185100473Y-118994436D01*
X185100472Y-118994434D01*
X185095526Y-118987988D01*
X185096565Y-118987190D01*
X185089852Y-118982266D01*
X185080164Y-118957050D01*
X185067221Y-118933346D01*
X185067823Y-118924926D01*
X185064795Y-118917044D01*
X185070278Y-118890596D01*
X185072205Y-118863654D01*
X185077634Y-118855114D01*
X185078979Y-118848629D01*
X185090094Y-118835516D01*
X185099852Y-118820169D01*
X185110688Y-118809118D01*
X185116964Y-118805495D01*
X185132771Y-118789688D01*
X188485375Y-118789688D01*
X188485375Y-118888558D01*
X188510965Y-118984061D01*
X188510966Y-118984062D01*
X188510966Y-118984063D01*
X188523638Y-119006012D01*
X188560400Y-119069685D01*
X188630313Y-119139598D01*
X188715937Y-119189033D01*
X188811440Y-119214623D01*
X188811442Y-119214623D01*
X188860991Y-119214623D01*
X188928030Y-119234308D01*
X188973785Y-119287112D01*
X188983729Y-119356270D01*
X188980767Y-119370707D01*
X188949500Y-119487399D01*
X188949500Y-119612601D01*
X188981905Y-119733536D01*
X189044505Y-119841964D01*
X189133036Y-119930495D01*
X189241464Y-119993095D01*
X189362399Y-120025500D01*
X189362401Y-120025500D01*
X189487599Y-120025500D01*
X189487601Y-120025500D01*
X189608536Y-119993095D01*
X189638899Y-119975565D01*
X190624504Y-119975565D01*
X190624504Y-120074435D01*
X190650094Y-120169938D01*
X190699529Y-120255562D01*
X190769442Y-120325475D01*
X190855066Y-120374910D01*
X190950569Y-120400500D01*
X190950571Y-120400500D01*
X191049436Y-120400500D01*
X191049439Y-120400500D01*
X191144942Y-120374910D01*
X191230566Y-120325475D01*
X191300479Y-120255562D01*
X191349914Y-120169938D01*
X191375504Y-120074435D01*
X191375504Y-119975565D01*
X191349914Y-119880062D01*
X191300479Y-119794438D01*
X191230566Y-119724525D01*
X191144942Y-119675090D01*
X191049439Y-119649500D01*
X190950569Y-119649500D01*
X190855066Y-119675090D01*
X190855064Y-119675091D01*
X190855063Y-119675091D01*
X190769440Y-119724526D01*
X190699530Y-119794436D01*
X190650095Y-119880059D01*
X190650095Y-119880060D01*
X190650094Y-119880062D01*
X190624504Y-119975565D01*
X189638899Y-119975565D01*
X189716964Y-119930495D01*
X189805495Y-119841964D01*
X189868095Y-119733536D01*
X189900500Y-119612601D01*
X189900500Y-119572157D01*
X189920185Y-119505118D01*
X189972989Y-119459363D01*
X189992407Y-119452382D01*
X189999431Y-119450500D01*
X189999435Y-119450500D01*
X190094938Y-119424910D01*
X190116608Y-119412399D01*
X193374500Y-119412399D01*
X193374500Y-119537601D01*
X193406905Y-119658536D01*
X193469505Y-119766964D01*
X193558036Y-119855495D01*
X193666464Y-119918095D01*
X193787399Y-119950500D01*
X193787401Y-119950500D01*
X193912599Y-119950500D01*
X193912601Y-119950500D01*
X194033536Y-119918095D01*
X194141964Y-119855495D01*
X194230495Y-119766964D01*
X194293095Y-119658536D01*
X194325500Y-119537601D01*
X194325500Y-119412399D01*
X194293095Y-119291464D01*
X194230495Y-119183036D01*
X194141964Y-119094505D01*
X194033536Y-119031905D01*
X194033537Y-119031905D01*
X193978377Y-119017125D01*
X193912601Y-118999500D01*
X193787399Y-118999500D01*
X193721623Y-119017125D01*
X193666463Y-119031905D01*
X193558037Y-119094504D01*
X193558034Y-119094506D01*
X193469506Y-119183034D01*
X193469504Y-119183037D01*
X193406905Y-119291463D01*
X193406905Y-119291464D01*
X193374500Y-119412399D01*
X190116608Y-119412399D01*
X190180562Y-119375475D01*
X190250475Y-119305562D01*
X190299910Y-119219938D01*
X190325500Y-119124435D01*
X190325500Y-119025565D01*
X190299910Y-118930062D01*
X190250475Y-118844438D01*
X190180562Y-118774525D01*
X190144374Y-118753631D01*
X190094939Y-118725090D01*
X190063103Y-118716560D01*
X189999435Y-118699500D01*
X189900565Y-118699500D01*
X189805062Y-118725090D01*
X189805060Y-118725091D01*
X189805059Y-118725091D01*
X189719436Y-118774526D01*
X189649526Y-118844436D01*
X189600091Y-118930059D01*
X189600091Y-118930060D01*
X189600090Y-118930062D01*
X189586013Y-118982594D01*
X189571740Y-119006012D01*
X189560524Y-119031039D01*
X189553817Y-119035415D01*
X189549650Y-119042254D01*
X189524981Y-119054237D01*
X189502014Y-119069228D01*
X189490685Y-119070897D01*
X189486804Y-119072783D01*
X189467115Y-119074497D01*
X189466690Y-119074500D01*
X189362399Y-119074500D01*
X189359577Y-119075255D01*
X189348802Y-119075332D01*
X189322305Y-119067754D01*
X189295073Y-119063507D01*
X189289188Y-119058284D01*
X189281625Y-119056121D01*
X189263431Y-119035420D01*
X189242819Y-119017125D01*
X189240692Y-119009550D01*
X189235499Y-119003641D01*
X189231384Y-118976391D01*
X189223936Y-118949856D01*
X189225578Y-118937933D01*
X189225068Y-118934555D01*
X189226476Y-118931412D01*
X189228151Y-118919246D01*
X189236375Y-118888558D01*
X189236375Y-118789688D01*
X189210785Y-118694185D01*
X189171167Y-118625564D01*
X191974499Y-118625564D01*
X191974499Y-118724434D01*
X192000089Y-118819937D01*
X192000090Y-118819938D01*
X192000090Y-118819939D01*
X192013336Y-118842881D01*
X192049524Y-118905561D01*
X192119437Y-118975474D01*
X192205061Y-119024909D01*
X192300564Y-119050499D01*
X192300566Y-119050499D01*
X192399431Y-119050499D01*
X192399434Y-119050499D01*
X192494937Y-119024909D01*
X192580561Y-118975474D01*
X192650474Y-118905561D01*
X192699909Y-118819937D01*
X192725499Y-118724434D01*
X192725499Y-118625564D01*
X192699909Y-118530061D01*
X192650474Y-118444437D01*
X192580561Y-118374524D01*
X192494937Y-118325089D01*
X192489167Y-118323543D01*
X205599499Y-118323543D01*
X205637947Y-118516829D01*
X205637950Y-118516839D01*
X205713364Y-118698907D01*
X205713371Y-118698920D01*
X205822860Y-118862781D01*
X205822863Y-118862785D01*
X205962214Y-119002136D01*
X205962218Y-119002139D01*
X206126079Y-119111628D01*
X206126092Y-119111635D01*
X206298467Y-119183034D01*
X206308165Y-119187051D01*
X206308169Y-119187051D01*
X206308170Y-119187052D01*
X206501456Y-119225500D01*
X206501459Y-119225500D01*
X206698543Y-119225500D01*
X206828582Y-119199632D01*
X206891835Y-119187051D01*
X207073914Y-119111632D01*
X207237782Y-119002139D01*
X207377139Y-118862782D01*
X207486632Y-118698914D01*
X207562051Y-118516835D01*
X207590359Y-118374524D01*
X207600500Y-118323543D01*
X207600500Y-118126456D01*
X207562052Y-117933170D01*
X207562051Y-117933169D01*
X207562051Y-117933165D01*
X207562049Y-117933160D01*
X207486635Y-117751092D01*
X207486628Y-117751079D01*
X207377139Y-117587218D01*
X207377136Y-117587214D01*
X207237785Y-117447863D01*
X207237781Y-117447860D01*
X207073920Y-117338371D01*
X207073907Y-117338364D01*
X206891839Y-117262950D01*
X206891829Y-117262947D01*
X206698543Y-117224500D01*
X206698541Y-117224500D01*
X206501459Y-117224500D01*
X206501457Y-117224500D01*
X206308170Y-117262947D01*
X206308160Y-117262950D01*
X206126092Y-117338364D01*
X206126079Y-117338371D01*
X205962218Y-117447860D01*
X205962214Y-117447863D01*
X205822863Y-117587214D01*
X205822860Y-117587218D01*
X205713371Y-117751079D01*
X205713364Y-117751092D01*
X205637950Y-117933160D01*
X205637947Y-117933170D01*
X205599500Y-118126456D01*
X205599500Y-118126459D01*
X205599500Y-118323541D01*
X205599500Y-118323543D01*
X205599499Y-118323543D01*
X192489167Y-118323543D01*
X192399434Y-118299499D01*
X192300564Y-118299499D01*
X192205061Y-118325089D01*
X192205059Y-118325090D01*
X192205058Y-118325090D01*
X192119435Y-118374525D01*
X192049525Y-118444435D01*
X192000090Y-118530058D01*
X192000090Y-118530059D01*
X192000089Y-118530061D01*
X191974499Y-118625564D01*
X189171167Y-118625564D01*
X189161350Y-118608561D01*
X189091437Y-118538648D01*
X189005813Y-118489213D01*
X188910310Y-118463623D01*
X188811440Y-118463623D01*
X188715937Y-118489213D01*
X188715935Y-118489214D01*
X188715934Y-118489214D01*
X188630311Y-118538649D01*
X188560401Y-118608559D01*
X188510966Y-118694182D01*
X188510966Y-118694183D01*
X188510965Y-118694185D01*
X188485375Y-118789688D01*
X185132771Y-118789688D01*
X185205495Y-118716964D01*
X185268095Y-118608536D01*
X185300500Y-118487601D01*
X185300500Y-118362399D01*
X185268095Y-118241464D01*
X185205495Y-118133036D01*
X185116964Y-118044505D01*
X185008536Y-117981905D01*
X185008537Y-117981905D01*
X184968224Y-117971103D01*
X184887601Y-117949500D01*
X184762399Y-117949500D01*
X184681775Y-117971103D01*
X184641463Y-117981905D01*
X184533037Y-118044504D01*
X184533034Y-118044506D01*
X184444506Y-118133034D01*
X184444504Y-118133037D01*
X184381905Y-118241463D01*
X184381905Y-118241464D01*
X184349500Y-118362399D01*
X161492771Y-118362399D01*
X161499200Y-118330079D01*
X161499200Y-118330078D01*
X161500499Y-118323545D01*
X161500500Y-118323543D01*
X161500500Y-118126456D01*
X161462052Y-117933170D01*
X161462051Y-117933169D01*
X161462051Y-117933165D01*
X161462049Y-117933160D01*
X161386635Y-117751092D01*
X161386628Y-117751079D01*
X161277139Y-117587218D01*
X161277136Y-117587214D01*
X161137785Y-117447863D01*
X161137781Y-117447860D01*
X160973920Y-117338371D01*
X160973907Y-117338364D01*
X160791839Y-117262950D01*
X160791829Y-117262947D01*
X160598543Y-117224500D01*
X160598541Y-117224500D01*
X160401459Y-117224500D01*
X160401457Y-117224500D01*
X160208170Y-117262947D01*
X160208160Y-117262950D01*
X160026092Y-117338364D01*
X160026079Y-117338371D01*
X159862218Y-117447860D01*
X159862214Y-117447863D01*
X159722863Y-117587214D01*
X159722860Y-117587218D01*
X159613371Y-117751079D01*
X159613364Y-117751092D01*
X159537950Y-117933160D01*
X159537947Y-117933170D01*
X159499500Y-118126456D01*
X159499500Y-118126459D01*
X159499500Y-118323541D01*
X159499500Y-118323543D01*
X159499499Y-118323543D01*
X155650500Y-118323543D01*
X155650500Y-115557110D01*
X156335000Y-115557110D01*
X156335000Y-115812889D01*
X156375013Y-116065523D01*
X156454051Y-116308781D01*
X156454052Y-116308784D01*
X156570175Y-116536686D01*
X156647850Y-116643595D01*
X156647850Y-116643596D01*
X157282421Y-116009024D01*
X157295359Y-116040258D01*
X157377437Y-116163097D01*
X157481903Y-116267563D01*
X157604742Y-116349641D01*
X157635974Y-116362577D01*
X157001402Y-116997148D01*
X157108313Y-117074824D01*
X157336215Y-117190947D01*
X157336218Y-117190948D01*
X157579476Y-117269986D01*
X157832111Y-117310000D01*
X158087889Y-117310000D01*
X158340523Y-117269986D01*
X158583781Y-117190948D01*
X158583784Y-117190947D01*
X158811685Y-117074825D01*
X158918595Y-116997148D01*
X158918596Y-116997148D01*
X158284025Y-116362578D01*
X158315258Y-116349641D01*
X158438097Y-116267563D01*
X158542563Y-116163097D01*
X158624641Y-116040258D01*
X158637578Y-116009025D01*
X159272148Y-116643596D01*
X159272148Y-116643595D01*
X159349825Y-116536685D01*
X159465947Y-116308784D01*
X159465948Y-116308781D01*
X159544986Y-116065523D01*
X159585000Y-115812889D01*
X159585000Y-115557110D01*
X161415000Y-115557110D01*
X161415000Y-115812889D01*
X161455013Y-116065523D01*
X161534051Y-116308781D01*
X161534052Y-116308784D01*
X161650175Y-116536686D01*
X161727850Y-116643595D01*
X161727850Y-116643596D01*
X162362421Y-116009024D01*
X162375359Y-116040258D01*
X162457437Y-116163097D01*
X162561903Y-116267563D01*
X162684742Y-116349641D01*
X162715974Y-116362577D01*
X162081402Y-116997148D01*
X162188313Y-117074824D01*
X162416215Y-117190947D01*
X162416218Y-117190948D01*
X162659476Y-117269986D01*
X162912111Y-117310000D01*
X163167889Y-117310000D01*
X163420523Y-117269986D01*
X163663781Y-117190948D01*
X163663784Y-117190947D01*
X163891685Y-117074825D01*
X163998595Y-116997148D01*
X163998596Y-116997148D01*
X163699684Y-116698236D01*
X176546633Y-116698236D01*
X176546633Y-116797106D01*
X176572223Y-116892609D01*
X176621658Y-116978233D01*
X176691571Y-117048146D01*
X176777195Y-117097581D01*
X176872698Y-117123171D01*
X176872700Y-117123171D01*
X176971565Y-117123171D01*
X176971568Y-117123171D01*
X177067071Y-117097581D01*
X177152695Y-117048146D01*
X177222608Y-116978233D01*
X177272043Y-116892609D01*
X177290007Y-116825565D01*
X201149500Y-116825565D01*
X201149500Y-116924435D01*
X201175090Y-117019938D01*
X201224525Y-117105562D01*
X201294438Y-117175475D01*
X201380062Y-117224910D01*
X201475565Y-117250500D01*
X201475567Y-117250500D01*
X201574432Y-117250500D01*
X201574435Y-117250500D01*
X201669938Y-117224910D01*
X201755562Y-117175475D01*
X201825475Y-117105562D01*
X201874910Y-117019938D01*
X201900500Y-116924435D01*
X201900500Y-116825565D01*
X201874910Y-116730062D01*
X201825475Y-116644438D01*
X201755562Y-116574525D01*
X201669938Y-116525090D01*
X201574435Y-116499500D01*
X201475565Y-116499500D01*
X201380062Y-116525090D01*
X201380060Y-116525091D01*
X201380059Y-116525091D01*
X201294436Y-116574526D01*
X201224526Y-116644436D01*
X201175091Y-116730059D01*
X201175091Y-116730060D01*
X201175090Y-116730062D01*
X201149500Y-116825565D01*
X177290007Y-116825565D01*
X177297633Y-116797106D01*
X177297633Y-116698236D01*
X177272043Y-116602733D01*
X177222608Y-116517109D01*
X177152695Y-116447196D01*
X177067071Y-116397761D01*
X176971568Y-116372171D01*
X176872698Y-116372171D01*
X176777195Y-116397761D01*
X176777193Y-116397762D01*
X176777192Y-116397762D01*
X176691569Y-116447197D01*
X176621659Y-116517107D01*
X176572224Y-116602730D01*
X176572224Y-116602731D01*
X176572223Y-116602733D01*
X176546633Y-116698236D01*
X163699684Y-116698236D01*
X163364025Y-116362578D01*
X163395258Y-116349641D01*
X163518097Y-116267563D01*
X163622563Y-116163097D01*
X163704641Y-116040258D01*
X163717578Y-116009025D01*
X164352148Y-116643596D01*
X164352148Y-116643595D01*
X164371310Y-116617223D01*
X164371312Y-116617221D01*
X164429822Y-116536690D01*
X164429823Y-116536688D01*
X164545947Y-116308784D01*
X164545948Y-116308781D01*
X164624986Y-116065523D01*
X164629435Y-116037436D01*
X186387629Y-116037436D01*
X186387629Y-116136306D01*
X186413219Y-116231809D01*
X186462654Y-116317433D01*
X186532567Y-116387346D01*
X186618191Y-116436781D01*
X186713694Y-116462371D01*
X186713696Y-116462371D01*
X186812561Y-116462371D01*
X186812564Y-116462371D01*
X186908067Y-116436781D01*
X186993691Y-116387346D01*
X187005472Y-116375565D01*
X193674500Y-116375565D01*
X193674500Y-116474435D01*
X193700090Y-116569938D01*
X193749525Y-116655562D01*
X193819438Y-116725475D01*
X193905062Y-116774910D01*
X194000565Y-116800500D01*
X194000567Y-116800500D01*
X194099432Y-116800500D01*
X194099435Y-116800500D01*
X194194938Y-116774910D01*
X194280562Y-116725475D01*
X194350475Y-116655562D01*
X194399910Y-116569938D01*
X194425500Y-116474435D01*
X194425500Y-116375565D01*
X194399910Y-116280062D01*
X194350475Y-116194438D01*
X194319102Y-116163065D01*
X195774500Y-116163065D01*
X195774500Y-116261935D01*
X195800090Y-116357438D01*
X195849525Y-116443062D01*
X195919438Y-116512975D01*
X196005062Y-116562410D01*
X196100565Y-116588000D01*
X196100567Y-116588000D01*
X196199432Y-116588000D01*
X196199435Y-116588000D01*
X196294938Y-116562410D01*
X196380562Y-116512975D01*
X196450475Y-116443062D01*
X196499910Y-116357438D01*
X196525500Y-116261935D01*
X196525500Y-116163065D01*
X196499910Y-116067562D01*
X196461229Y-116000565D01*
X196799500Y-116000565D01*
X196799500Y-116099435D01*
X196825090Y-116194938D01*
X196825091Y-116194939D01*
X196825091Y-116194940D01*
X196827685Y-116199433D01*
X196874525Y-116280562D01*
X196944438Y-116350475D01*
X197030062Y-116399910D01*
X197125565Y-116425500D01*
X197125567Y-116425500D01*
X197224432Y-116425500D01*
X197224435Y-116425500D01*
X197319938Y-116399910D01*
X197405562Y-116350475D01*
X197475475Y-116280562D01*
X197524910Y-116194938D01*
X197550197Y-116100565D01*
X198199500Y-116100565D01*
X198199500Y-116199435D01*
X198225090Y-116294938D01*
X198274525Y-116380562D01*
X198344438Y-116450475D01*
X198430062Y-116499910D01*
X198525565Y-116525500D01*
X198525567Y-116525500D01*
X198624432Y-116525500D01*
X198624435Y-116525500D01*
X198719938Y-116499910D01*
X198805562Y-116450475D01*
X198875475Y-116380562D01*
X198924910Y-116294938D01*
X198938565Y-116243978D01*
X200106087Y-116243978D01*
X200106087Y-116342848D01*
X200131677Y-116438351D01*
X200181112Y-116523975D01*
X200251025Y-116593888D01*
X200336649Y-116643323D01*
X200432152Y-116668913D01*
X200432154Y-116668913D01*
X200531019Y-116668913D01*
X200531022Y-116668913D01*
X200626525Y-116643323D01*
X200712149Y-116593888D01*
X200782062Y-116523975D01*
X200831497Y-116438351D01*
X200857087Y-116342848D01*
X200857087Y-116243978D01*
X200831497Y-116148475D01*
X200782062Y-116062851D01*
X200712149Y-115992938D01*
X200626525Y-115943503D01*
X200531022Y-115917913D01*
X200432152Y-115917913D01*
X200336649Y-115943503D01*
X200336647Y-115943504D01*
X200336646Y-115943504D01*
X200251023Y-115992939D01*
X200181113Y-116062849D01*
X200131678Y-116148472D01*
X200131678Y-116148473D01*
X200131677Y-116148475D01*
X200106087Y-116243978D01*
X198938565Y-116243978D01*
X198950500Y-116199435D01*
X198950500Y-116100565D01*
X198924910Y-116005062D01*
X198875475Y-115919438D01*
X198805562Y-115849525D01*
X198719938Y-115800090D01*
X198624435Y-115774500D01*
X198525565Y-115774500D01*
X198430062Y-115800090D01*
X198430060Y-115800091D01*
X198430059Y-115800091D01*
X198344436Y-115849526D01*
X198274526Y-115919436D01*
X198225091Y-116005059D01*
X198225091Y-116005060D01*
X198225090Y-116005062D01*
X198199500Y-116100565D01*
X197550197Y-116100565D01*
X197550500Y-116099435D01*
X197550500Y-116000565D01*
X197524910Y-115905062D01*
X197475475Y-115819438D01*
X197405562Y-115749525D01*
X197319938Y-115700090D01*
X197224435Y-115674500D01*
X197125565Y-115674500D01*
X197030062Y-115700090D01*
X197030060Y-115700091D01*
X197030059Y-115700091D01*
X196944436Y-115749526D01*
X196874526Y-115819436D01*
X196825091Y-115905059D01*
X196825091Y-115905060D01*
X196825090Y-115905062D01*
X196799500Y-116000565D01*
X196461229Y-116000565D01*
X196450475Y-115981938D01*
X196380562Y-115912025D01*
X196294938Y-115862590D01*
X196199435Y-115837000D01*
X196100565Y-115837000D01*
X196005062Y-115862590D01*
X196005060Y-115862591D01*
X196005059Y-115862591D01*
X195919436Y-115912026D01*
X195849526Y-115981936D01*
X195800091Y-116067559D01*
X195800091Y-116067560D01*
X195800090Y-116067562D01*
X195774500Y-116163065D01*
X194319102Y-116163065D01*
X194280562Y-116124525D01*
X194194938Y-116075090D01*
X194099435Y-116049500D01*
X194000565Y-116049500D01*
X193905062Y-116075090D01*
X193905060Y-116075091D01*
X193905059Y-116075091D01*
X193819436Y-116124526D01*
X193749526Y-116194436D01*
X193700091Y-116280059D01*
X193700091Y-116280060D01*
X193700090Y-116280062D01*
X193674500Y-116375565D01*
X187005472Y-116375565D01*
X187063604Y-116317433D01*
X187113039Y-116231809D01*
X187138629Y-116136306D01*
X187138629Y-116037436D01*
X187113039Y-115941933D01*
X187063604Y-115856309D01*
X186993691Y-115786396D01*
X186908067Y-115736961D01*
X186812564Y-115711371D01*
X186713694Y-115711371D01*
X186618191Y-115736961D01*
X186618189Y-115736962D01*
X186618188Y-115736962D01*
X186532565Y-115786397D01*
X186462655Y-115856307D01*
X186413220Y-115941930D01*
X186413220Y-115941931D01*
X186413219Y-115941933D01*
X186387629Y-116037436D01*
X164629435Y-116037436D01*
X164633795Y-116009911D01*
X164665000Y-115812889D01*
X164665000Y-115557110D01*
X164651401Y-115471250D01*
X164649616Y-115459979D01*
X177723774Y-115459979D01*
X177723774Y-115558849D01*
X177749364Y-115654352D01*
X177798799Y-115739976D01*
X177868712Y-115809889D01*
X177954336Y-115859324D01*
X178049839Y-115884914D01*
X178049841Y-115884914D01*
X178148706Y-115884914D01*
X178148709Y-115884914D01*
X178244212Y-115859324D01*
X178329836Y-115809889D01*
X178399749Y-115739976D01*
X178449184Y-115654352D01*
X178474774Y-115558849D01*
X178474774Y-115459979D01*
X178449184Y-115364476D01*
X178399749Y-115278852D01*
X178329836Y-115208939D01*
X178244212Y-115159504D01*
X178148709Y-115133914D01*
X178049839Y-115133914D01*
X177954336Y-115159504D01*
X177954334Y-115159505D01*
X177954333Y-115159505D01*
X177868710Y-115208940D01*
X177798800Y-115278850D01*
X177749365Y-115364473D01*
X177749365Y-115364474D01*
X177749364Y-115364476D01*
X177723774Y-115459979D01*
X164649616Y-115459979D01*
X164624986Y-115304476D01*
X164545948Y-115061218D01*
X164545947Y-115061215D01*
X164429823Y-114833311D01*
X164385520Y-114772334D01*
X176666942Y-114772334D01*
X176666942Y-114871204D01*
X176692532Y-114966707D01*
X176692533Y-114966708D01*
X176692533Y-114966709D01*
X176705779Y-114989651D01*
X176741967Y-115052331D01*
X176811880Y-115122244D01*
X176897504Y-115171679D01*
X176993007Y-115197269D01*
X176993009Y-115197269D01*
X177091874Y-115197269D01*
X177091877Y-115197269D01*
X177187380Y-115171679D01*
X177273004Y-115122244D01*
X177342917Y-115052331D01*
X177392352Y-114966707D01*
X177417942Y-114871204D01*
X177417942Y-114772334D01*
X177392352Y-114676831D01*
X177342917Y-114591207D01*
X177273004Y-114521294D01*
X177187380Y-114471859D01*
X177091877Y-114446269D01*
X176993007Y-114446269D01*
X176897504Y-114471859D01*
X176897502Y-114471860D01*
X176897501Y-114471860D01*
X176811878Y-114521295D01*
X176741968Y-114591205D01*
X176692533Y-114676828D01*
X176692533Y-114676829D01*
X176692532Y-114676831D01*
X176666942Y-114772334D01*
X164385520Y-114772334D01*
X164352148Y-114726403D01*
X164352148Y-114726402D01*
X163717577Y-115360973D01*
X163704641Y-115329742D01*
X163622563Y-115206903D01*
X163518097Y-115102437D01*
X163395258Y-115020359D01*
X163364024Y-115007421D01*
X163998596Y-114372850D01*
X163891686Y-114295175D01*
X163706005Y-114200565D01*
X184349506Y-114200565D01*
X184349506Y-114299435D01*
X184375096Y-114394938D01*
X184424531Y-114480562D01*
X184494444Y-114550475D01*
X184580068Y-114599910D01*
X184675571Y-114625500D01*
X184675573Y-114625500D01*
X184750500Y-114625500D01*
X184817539Y-114645185D01*
X184863294Y-114697989D01*
X184874500Y-114749500D01*
X184874500Y-114750565D01*
X184874500Y-114849435D01*
X184900090Y-114944938D01*
X184949525Y-115030562D01*
X185019438Y-115100475D01*
X185105062Y-115149910D01*
X185200565Y-115175500D01*
X185200567Y-115175500D01*
X185291848Y-115175500D01*
X185358887Y-115195185D01*
X185404642Y-115247989D01*
X185414586Y-115317147D01*
X185411622Y-115331595D01*
X185405869Y-115353062D01*
X185405869Y-115353064D01*
X185405869Y-115451934D01*
X185431459Y-115547437D01*
X185480894Y-115633061D01*
X185550807Y-115702974D01*
X185636431Y-115752409D01*
X185731934Y-115777999D01*
X185731936Y-115777999D01*
X185830801Y-115777999D01*
X185830804Y-115777999D01*
X185926307Y-115752409D01*
X186011931Y-115702974D01*
X186081844Y-115633061D01*
X186125694Y-115557110D01*
X202435000Y-115557110D01*
X202435000Y-115812889D01*
X202475013Y-116065523D01*
X202554051Y-116308781D01*
X202554052Y-116308784D01*
X202670175Y-116536686D01*
X202747850Y-116643595D01*
X202747850Y-116643596D01*
X203382421Y-116009024D01*
X203395359Y-116040258D01*
X203477437Y-116163097D01*
X203581903Y-116267563D01*
X203704742Y-116349641D01*
X203735974Y-116362577D01*
X203101402Y-116997148D01*
X203208313Y-117074824D01*
X203436215Y-117190947D01*
X203436218Y-117190948D01*
X203679476Y-117269986D01*
X203932111Y-117310000D01*
X204187889Y-117310000D01*
X204440523Y-117269986D01*
X204683781Y-117190948D01*
X204683784Y-117190947D01*
X204911685Y-117074825D01*
X205018595Y-116997148D01*
X205018596Y-116997148D01*
X204384025Y-116362578D01*
X204415258Y-116349641D01*
X204538097Y-116267563D01*
X204642563Y-116163097D01*
X204724641Y-116040258D01*
X204737577Y-116009025D01*
X205372148Y-116643596D01*
X205372148Y-116643595D01*
X205449825Y-116536685D01*
X205565947Y-116308784D01*
X205565948Y-116308781D01*
X205644986Y-116065523D01*
X205685000Y-115812889D01*
X205685000Y-115557110D01*
X207515000Y-115557110D01*
X207515000Y-115812889D01*
X207555013Y-116065523D01*
X207634051Y-116308781D01*
X207634052Y-116308784D01*
X207750175Y-116536686D01*
X207827850Y-116643595D01*
X207827850Y-116643596D01*
X208462421Y-116009024D01*
X208475359Y-116040258D01*
X208557437Y-116163097D01*
X208661903Y-116267563D01*
X208784742Y-116349641D01*
X208815974Y-116362577D01*
X208181402Y-116997148D01*
X208288313Y-117074824D01*
X208516215Y-117190947D01*
X208516218Y-117190948D01*
X208759476Y-117269986D01*
X209012111Y-117310000D01*
X209267889Y-117310000D01*
X209520523Y-117269986D01*
X209763781Y-117190948D01*
X209763784Y-117190947D01*
X209991685Y-117074825D01*
X210098595Y-116997148D01*
X210098596Y-116997148D01*
X209464025Y-116362578D01*
X209495258Y-116349641D01*
X209618097Y-116267563D01*
X209722563Y-116163097D01*
X209804641Y-116040258D01*
X209817578Y-116009025D01*
X210452148Y-116643596D01*
X210452148Y-116643595D01*
X210529825Y-116536685D01*
X210645947Y-116308784D01*
X210645948Y-116308781D01*
X210724986Y-116065523D01*
X210765000Y-115812889D01*
X210765000Y-115557110D01*
X210724986Y-115304476D01*
X210645948Y-115061218D01*
X210645947Y-115061215D01*
X210529824Y-114833313D01*
X210452148Y-114726403D01*
X210452148Y-114726402D01*
X209817577Y-115360973D01*
X209804641Y-115329742D01*
X209722563Y-115206903D01*
X209618097Y-115102437D01*
X209495258Y-115020359D01*
X209464024Y-115007421D01*
X210098596Y-114372850D01*
X209991686Y-114295175D01*
X209763784Y-114179052D01*
X209763781Y-114179051D01*
X209520523Y-114100013D01*
X209267889Y-114060000D01*
X209012111Y-114060000D01*
X208759476Y-114100013D01*
X208516218Y-114179051D01*
X208516215Y-114179052D01*
X208288310Y-114295177D01*
X208181403Y-114372849D01*
X208181402Y-114372850D01*
X208815974Y-115007421D01*
X208784742Y-115020359D01*
X208661903Y-115102437D01*
X208557437Y-115206903D01*
X208475359Y-115329742D01*
X208462421Y-115360974D01*
X207827850Y-114726402D01*
X207827849Y-114726403D01*
X207750177Y-114833310D01*
X207634052Y-115061215D01*
X207634051Y-115061218D01*
X207555013Y-115304476D01*
X207515000Y-115557110D01*
X205685000Y-115557110D01*
X205644986Y-115304476D01*
X205565948Y-115061218D01*
X205565947Y-115061215D01*
X205449824Y-114833313D01*
X205372148Y-114726403D01*
X205372148Y-114726402D01*
X204737577Y-115360973D01*
X204724641Y-115329742D01*
X204642563Y-115206903D01*
X204538097Y-115102437D01*
X204415258Y-115020359D01*
X204384024Y-115007421D01*
X205018596Y-114372850D01*
X204911686Y-114295175D01*
X204683784Y-114179052D01*
X204683781Y-114179051D01*
X204440523Y-114100013D01*
X204187889Y-114060000D01*
X203932111Y-114060000D01*
X203679476Y-114100013D01*
X203436218Y-114179051D01*
X203436215Y-114179052D01*
X203208310Y-114295177D01*
X203101403Y-114372849D01*
X203101402Y-114372850D01*
X203735974Y-115007421D01*
X203704742Y-115020359D01*
X203581903Y-115102437D01*
X203477437Y-115206903D01*
X203395359Y-115329742D01*
X203382421Y-115360974D01*
X202747850Y-114726402D01*
X202747849Y-114726403D01*
X202670177Y-114833310D01*
X202554052Y-115061215D01*
X202554051Y-115061218D01*
X202475013Y-115304476D01*
X202435000Y-115557110D01*
X186125694Y-115557110D01*
X186131279Y-115547437D01*
X186156869Y-115451934D01*
X186156869Y-115353064D01*
X186131279Y-115257561D01*
X186081844Y-115171937D01*
X186011931Y-115102024D01*
X185926307Y-115052589D01*
X185830804Y-115026999D01*
X185739521Y-115026999D01*
X185672482Y-115007314D01*
X185626727Y-114954510D01*
X185616783Y-114885352D01*
X185619747Y-114870904D01*
X185625500Y-114849435D01*
X185625500Y-114750565D01*
X185599910Y-114655062D01*
X185550475Y-114569438D01*
X185480562Y-114499525D01*
X185395761Y-114450565D01*
X187289500Y-114450565D01*
X187289500Y-114549435D01*
X187315090Y-114644938D01*
X187315091Y-114644939D01*
X187315091Y-114644940D01*
X187320933Y-114655059D01*
X187364525Y-114730562D01*
X187434438Y-114800475D01*
X187520062Y-114849910D01*
X187615565Y-114875500D01*
X187615567Y-114875500D01*
X187714432Y-114875500D01*
X187714435Y-114875500D01*
X187809938Y-114849910D01*
X187816638Y-114846041D01*
X187884536Y-114829567D01*
X187950564Y-114852417D01*
X187993756Y-114907337D01*
X188002640Y-114953427D01*
X188002640Y-114971295D01*
X188028230Y-115066798D01*
X188077665Y-115152422D01*
X188147578Y-115222335D01*
X188233202Y-115271770D01*
X188328705Y-115297360D01*
X188328707Y-115297360D01*
X188427572Y-115297360D01*
X188427575Y-115297360D01*
X188523078Y-115271770D01*
X188549243Y-115256663D01*
X188617141Y-115240190D01*
X188683169Y-115263042D01*
X188718628Y-115302046D01*
X188749525Y-115355562D01*
X188819438Y-115425475D01*
X188905062Y-115474910D01*
X189000565Y-115500500D01*
X189000567Y-115500500D01*
X189099432Y-115500500D01*
X189099435Y-115500500D01*
X189194938Y-115474910D01*
X189280562Y-115425475D01*
X189350475Y-115355562D01*
X189399910Y-115269938D01*
X189410300Y-115231158D01*
X189446664Y-115171499D01*
X189509511Y-115140969D01*
X189578887Y-115149263D01*
X189592075Y-115155865D01*
X189625062Y-115174910D01*
X189720565Y-115200500D01*
X189720567Y-115200500D01*
X189819432Y-115200500D01*
X189819435Y-115200500D01*
X189914938Y-115174910D01*
X190000562Y-115125475D01*
X190070475Y-115055562D01*
X190119910Y-114969938D01*
X190145500Y-114874435D01*
X190145500Y-114775565D01*
X190119910Y-114680062D01*
X190070475Y-114594438D01*
X190000562Y-114524525D01*
X189914938Y-114475090D01*
X189819435Y-114449500D01*
X189720565Y-114449500D01*
X189625062Y-114475090D01*
X189625060Y-114475091D01*
X189625059Y-114475091D01*
X189539436Y-114524526D01*
X189469526Y-114594436D01*
X189420091Y-114680059D01*
X189420088Y-114680066D01*
X189409698Y-114718842D01*
X189373332Y-114778502D01*
X189310485Y-114809030D01*
X189241110Y-114800734D01*
X189227925Y-114794135D01*
X189194938Y-114775090D01*
X189184652Y-114772334D01*
X189099435Y-114749500D01*
X189000565Y-114749500D01*
X188905062Y-114775090D01*
X188905060Y-114775090D01*
X188905060Y-114775091D01*
X188905057Y-114775092D01*
X188878894Y-114790197D01*
X188810993Y-114806668D01*
X188744967Y-114783815D01*
X188709510Y-114744810D01*
X188678615Y-114691298D01*
X188608702Y-114621385D01*
X188523078Y-114571950D01*
X188427575Y-114546360D01*
X188328705Y-114546360D01*
X188233202Y-114571950D01*
X188233200Y-114571950D01*
X188233200Y-114571951D01*
X188233197Y-114571952D01*
X188226498Y-114575820D01*
X188158597Y-114592291D01*
X188092571Y-114569438D01*
X188049381Y-114514516D01*
X188040500Y-114468432D01*
X188040500Y-114450567D01*
X188040500Y-114450565D01*
X188014910Y-114355062D01*
X187965475Y-114269438D01*
X187895562Y-114199525D01*
X187809938Y-114150090D01*
X187714435Y-114124500D01*
X187615565Y-114124500D01*
X187520062Y-114150090D01*
X187520060Y-114150091D01*
X187520059Y-114150091D01*
X187434436Y-114199526D01*
X187364526Y-114269436D01*
X187315091Y-114355059D01*
X187315091Y-114355060D01*
X187315090Y-114355062D01*
X187289500Y-114450565D01*
X185395761Y-114450565D01*
X185394938Y-114450090D01*
X185299435Y-114424500D01*
X185224506Y-114424500D01*
X185157467Y-114404815D01*
X185111712Y-114352011D01*
X185100506Y-114300500D01*
X185100506Y-114200567D01*
X185100506Y-114200565D01*
X185074916Y-114105062D01*
X185025481Y-114019438D01*
X184955568Y-113949525D01*
X184869946Y-113900091D01*
X184869945Y-113900090D01*
X184855616Y-113896250D01*
X184774441Y-113874500D01*
X184675571Y-113874500D01*
X184580068Y-113900090D01*
X184580066Y-113900091D01*
X184580065Y-113900091D01*
X184494442Y-113949526D01*
X184424532Y-114019436D01*
X184375097Y-114105059D01*
X184375097Y-114105060D01*
X184375096Y-114105062D01*
X184349506Y-114200565D01*
X163706005Y-114200565D01*
X163663784Y-114179052D01*
X163663781Y-114179051D01*
X163420523Y-114100013D01*
X163167889Y-114060000D01*
X162912111Y-114060000D01*
X162659476Y-114100013D01*
X162416218Y-114179051D01*
X162416215Y-114179052D01*
X162188310Y-114295177D01*
X162081403Y-114372849D01*
X162081402Y-114372850D01*
X162715974Y-115007421D01*
X162684742Y-115020359D01*
X162561903Y-115102437D01*
X162457437Y-115206903D01*
X162375359Y-115329742D01*
X162362421Y-115360974D01*
X161727850Y-114726402D01*
X161727849Y-114726403D01*
X161650177Y-114833310D01*
X161534052Y-115061215D01*
X161534051Y-115061218D01*
X161455013Y-115304476D01*
X161415000Y-115557110D01*
X159585000Y-115557110D01*
X159544986Y-115304476D01*
X159465948Y-115061218D01*
X159465947Y-115061215D01*
X159349824Y-114833313D01*
X159272148Y-114726403D01*
X159272148Y-114726402D01*
X158637577Y-115360973D01*
X158624641Y-115329742D01*
X158542563Y-115206903D01*
X158438097Y-115102437D01*
X158315258Y-115020359D01*
X158284024Y-115007421D01*
X158918596Y-114372850D01*
X158811686Y-114295175D01*
X158583784Y-114179052D01*
X158583781Y-114179051D01*
X158340523Y-114100013D01*
X158087889Y-114060000D01*
X157832111Y-114060000D01*
X157579476Y-114100013D01*
X157336218Y-114179051D01*
X157336215Y-114179052D01*
X157108310Y-114295177D01*
X157001403Y-114372849D01*
X157001402Y-114372850D01*
X157635974Y-115007421D01*
X157604742Y-115020359D01*
X157481903Y-115102437D01*
X157377437Y-115206903D01*
X157295359Y-115329742D01*
X157282421Y-115360974D01*
X156647850Y-114726402D01*
X156647849Y-114726403D01*
X156570177Y-114833310D01*
X156454052Y-115061215D01*
X156454051Y-115061218D01*
X156375013Y-115304476D01*
X156335000Y-115557110D01*
X155650500Y-115557110D01*
X155650500Y-113703982D01*
X174124498Y-113703982D01*
X174124498Y-113816018D01*
X174153495Y-113924237D01*
X174209513Y-114021263D01*
X174288735Y-114100485D01*
X174385761Y-114156503D01*
X174493980Y-114185500D01*
X174493982Y-114185500D01*
X174606014Y-114185500D01*
X174606016Y-114185500D01*
X174714235Y-114156503D01*
X174811261Y-114100485D01*
X174890483Y-114021263D01*
X174946501Y-113924237D01*
X174975498Y-113816018D01*
X174975498Y-113775939D01*
X189769874Y-113775939D01*
X189769874Y-113874809D01*
X189795464Y-113970312D01*
X189844899Y-114055936D01*
X189914812Y-114125849D01*
X190000436Y-114175284D01*
X190095939Y-114200874D01*
X190095941Y-114200874D01*
X190194806Y-114200874D01*
X190194809Y-114200874D01*
X190290312Y-114175284D01*
X190375936Y-114125849D01*
X190445849Y-114055936D01*
X190495284Y-113970312D01*
X190510029Y-113915279D01*
X190546394Y-113855620D01*
X190609241Y-113825091D01*
X190629804Y-113823374D01*
X190672306Y-113823374D01*
X190672309Y-113823374D01*
X190767812Y-113797784D01*
X190853436Y-113748349D01*
X190923349Y-113678436D01*
X190972784Y-113592812D01*
X190998374Y-113497309D01*
X190998374Y-113398439D01*
X190972784Y-113302936D01*
X190923349Y-113217312D01*
X190853436Y-113147399D01*
X190767812Y-113097964D01*
X190672309Y-113072374D01*
X190573439Y-113072374D01*
X190477936Y-113097964D01*
X190477934Y-113097965D01*
X190477933Y-113097965D01*
X190392310Y-113147400D01*
X190322400Y-113217310D01*
X190272965Y-113302933D01*
X190272965Y-113302934D01*
X190272964Y-113302936D01*
X190258218Y-113357968D01*
X190221854Y-113417628D01*
X190159007Y-113448157D01*
X190138444Y-113449874D01*
X190095939Y-113449874D01*
X190000436Y-113475464D01*
X190000434Y-113475465D01*
X190000433Y-113475465D01*
X189914810Y-113524900D01*
X189844900Y-113594810D01*
X189795465Y-113680433D01*
X189795465Y-113680434D01*
X189795464Y-113680436D01*
X189769874Y-113775939D01*
X174975498Y-113775939D01*
X174975498Y-113703982D01*
X174946501Y-113595763D01*
X174890483Y-113498737D01*
X174811261Y-113419515D01*
X174745325Y-113381447D01*
X174714237Y-113363498D01*
X174714236Y-113363497D01*
X174714235Y-113363497D01*
X174606016Y-113334500D01*
X174493980Y-113334500D01*
X174385761Y-113363497D01*
X174385758Y-113363498D01*
X174288738Y-113419513D01*
X174288732Y-113419517D01*
X174209515Y-113498734D01*
X174209511Y-113498740D01*
X174153496Y-113595760D01*
X174153495Y-113595763D01*
X174124498Y-113703982D01*
X155650500Y-113703982D01*
X155650500Y-111131995D01*
X157199500Y-111131995D01*
X157199500Y-111368004D01*
X157199501Y-111368020D01*
X157229795Y-111598132D01*
X157230307Y-111602014D01*
X157251856Y-111682435D01*
X157291394Y-111829993D01*
X157381714Y-112048045D01*
X157381719Y-112048056D01*
X157452677Y-112170957D01*
X157499727Y-112252450D01*
X157499729Y-112252453D01*
X157499730Y-112252454D01*
X157643406Y-112439697D01*
X157643412Y-112439704D01*
X157810295Y-112606587D01*
X157810302Y-112606593D01*
X157861167Y-112645623D01*
X157997550Y-112750273D01*
X158128918Y-112826118D01*
X158201943Y-112868280D01*
X158201948Y-112868282D01*
X158201951Y-112868284D01*
X158420007Y-112958606D01*
X158647986Y-113019693D01*
X158881989Y-113050500D01*
X158881996Y-113050500D01*
X159118004Y-113050500D01*
X159118011Y-113050500D01*
X159138861Y-113047755D01*
X179564080Y-113047755D01*
X179564080Y-113146625D01*
X179589670Y-113242128D01*
X179639105Y-113327752D01*
X179709018Y-113397665D01*
X179794642Y-113447100D01*
X179890145Y-113472690D01*
X179890147Y-113472690D01*
X179989012Y-113472690D01*
X179989015Y-113472690D01*
X180084518Y-113447100D01*
X180170142Y-113397665D01*
X180240055Y-113327752D01*
X180289490Y-113242128D01*
X180289490Y-113242125D01*
X180291219Y-113239132D01*
X180341786Y-113190916D01*
X180410393Y-113177693D01*
X180460603Y-113193743D01*
X180464069Y-113195744D01*
X180559572Y-113221334D01*
X180559574Y-113221334D01*
X180658439Y-113221334D01*
X180658442Y-113221334D01*
X180753945Y-113195744D01*
X180839569Y-113146309D01*
X180909482Y-113076396D01*
X180938829Y-113025565D01*
X181374500Y-113025565D01*
X181374500Y-113124435D01*
X181400090Y-113219938D01*
X181449525Y-113305562D01*
X181519438Y-113375475D01*
X181605062Y-113424910D01*
X181700565Y-113450500D01*
X181700567Y-113450500D01*
X181799432Y-113450500D01*
X181799435Y-113450500D01*
X181894938Y-113424910D01*
X181980562Y-113375475D01*
X182050475Y-113305562D01*
X182099910Y-113219938D01*
X182115310Y-113162461D01*
X182151675Y-113102802D01*
X182214522Y-113072273D01*
X182235085Y-113070556D01*
X182263809Y-113070556D01*
X182263812Y-113070556D01*
X182359315Y-113044966D01*
X182444939Y-112995531D01*
X182514852Y-112925618D01*
X182564287Y-112839994D01*
X182587579Y-112753067D01*
X182972012Y-112753067D01*
X182972012Y-112851937D01*
X182997602Y-112947440D01*
X183047037Y-113033064D01*
X183116950Y-113102977D01*
X183202574Y-113152412D01*
X183298077Y-113178002D01*
X183298079Y-113178002D01*
X183396944Y-113178002D01*
X183396947Y-113178002D01*
X183492450Y-113152412D01*
X183578074Y-113102977D01*
X183647987Y-113033064D01*
X183692184Y-112956512D01*
X185540587Y-112956512D01*
X185540587Y-113055382D01*
X185566177Y-113150885D01*
X185566178Y-113150886D01*
X185566178Y-113150887D01*
X185579424Y-113173829D01*
X185615612Y-113236509D01*
X185685525Y-113306422D01*
X185771149Y-113355857D01*
X185866652Y-113381447D01*
X185866654Y-113381447D01*
X185965519Y-113381447D01*
X185965522Y-113381447D01*
X186061025Y-113355857D01*
X186146649Y-113306422D01*
X186216562Y-113236509D01*
X186265997Y-113150885D01*
X186291587Y-113055382D01*
X186291587Y-112956512D01*
X186283295Y-112925565D01*
X187249500Y-112925565D01*
X187249500Y-113024435D01*
X187275090Y-113119938D01*
X187275091Y-113119939D01*
X187275091Y-113119940D01*
X187277686Y-113124435D01*
X187324525Y-113205562D01*
X187394438Y-113275475D01*
X187480062Y-113324910D01*
X187575565Y-113350500D01*
X187575567Y-113350500D01*
X187674432Y-113350500D01*
X187674435Y-113350500D01*
X187769938Y-113324910D01*
X187855562Y-113275475D01*
X187925475Y-113205562D01*
X187974910Y-113119938D01*
X188000500Y-113024435D01*
X188000500Y-112925565D01*
X187974910Y-112830062D01*
X187925475Y-112744438D01*
X187855562Y-112674525D01*
X187769938Y-112625090D01*
X187674435Y-112599500D01*
X187575565Y-112599500D01*
X187480062Y-112625090D01*
X187480060Y-112625091D01*
X187480059Y-112625091D01*
X187394436Y-112674526D01*
X187324526Y-112744436D01*
X187275091Y-112830059D01*
X187275091Y-112830060D01*
X187275090Y-112830062D01*
X187249500Y-112925565D01*
X186283295Y-112925565D01*
X186265997Y-112861009D01*
X186216562Y-112775385D01*
X186146649Y-112705472D01*
X186061025Y-112656037D01*
X185965522Y-112630447D01*
X185866652Y-112630447D01*
X185771149Y-112656037D01*
X185771147Y-112656038D01*
X185771146Y-112656038D01*
X185685523Y-112705473D01*
X185615613Y-112775383D01*
X185566178Y-112861006D01*
X185566178Y-112861007D01*
X185566177Y-112861009D01*
X185540587Y-112956512D01*
X183692184Y-112956512D01*
X183697422Y-112947440D01*
X183723012Y-112851937D01*
X183723012Y-112753067D01*
X183697422Y-112657564D01*
X183647987Y-112571940D01*
X183578074Y-112502027D01*
X183492450Y-112452592D01*
X183396947Y-112427002D01*
X183298077Y-112427002D01*
X183202574Y-112452592D01*
X183202572Y-112452593D01*
X183202571Y-112452593D01*
X183116948Y-112502028D01*
X183047038Y-112571938D01*
X182997603Y-112657561D01*
X182997603Y-112657562D01*
X182997602Y-112657564D01*
X182972012Y-112753067D01*
X182587579Y-112753067D01*
X182589877Y-112744491D01*
X182589877Y-112645621D01*
X182564287Y-112550118D01*
X182514852Y-112464494D01*
X182444939Y-112394581D01*
X182359315Y-112345146D01*
X182263812Y-112319556D01*
X182164942Y-112319556D01*
X182069439Y-112345146D01*
X182069437Y-112345147D01*
X182069436Y-112345147D01*
X181983813Y-112394582D01*
X181913903Y-112464492D01*
X181864468Y-112550115D01*
X181864468Y-112550116D01*
X181864467Y-112550118D01*
X181849337Y-112606587D01*
X181849067Y-112607593D01*
X181812702Y-112667254D01*
X181749855Y-112697783D01*
X181729292Y-112699500D01*
X181700565Y-112699500D01*
X181605062Y-112725090D01*
X181605060Y-112725091D01*
X181605059Y-112725091D01*
X181519436Y-112774526D01*
X181449526Y-112844436D01*
X181400091Y-112930059D01*
X181400091Y-112930060D01*
X181400090Y-112930062D01*
X181374500Y-113025565D01*
X180938829Y-113025565D01*
X180958917Y-112990772D01*
X180984507Y-112895269D01*
X180984507Y-112796399D01*
X180958917Y-112700896D01*
X180909482Y-112615272D01*
X180839569Y-112545359D01*
X180753945Y-112495924D01*
X180658442Y-112470334D01*
X180559572Y-112470334D01*
X180464069Y-112495924D01*
X180464067Y-112495925D01*
X180464066Y-112495925D01*
X180378443Y-112545360D01*
X180308532Y-112615271D01*
X180257366Y-112703892D01*
X180206799Y-112752107D01*
X180138192Y-112765329D01*
X180087986Y-112749281D01*
X180084526Y-112747283D01*
X180084520Y-112747281D01*
X180084518Y-112747280D01*
X179989015Y-112721690D01*
X179890145Y-112721690D01*
X179794642Y-112747280D01*
X179794640Y-112747281D01*
X179794639Y-112747281D01*
X179709016Y-112796716D01*
X179639106Y-112866626D01*
X179589671Y-112952249D01*
X179589671Y-112952250D01*
X179589670Y-112952252D01*
X179564080Y-113047755D01*
X159138861Y-113047755D01*
X159352014Y-113019693D01*
X159579993Y-112958606D01*
X159798049Y-112868284D01*
X160002450Y-112750273D01*
X160189699Y-112606592D01*
X160270726Y-112525565D01*
X178374500Y-112525565D01*
X178374500Y-112624435D01*
X178400090Y-112719938D01*
X178400091Y-112719939D01*
X178400091Y-112719940D01*
X178403065Y-112725091D01*
X178449525Y-112805562D01*
X178519438Y-112875475D01*
X178605062Y-112924910D01*
X178700565Y-112950500D01*
X178700567Y-112950500D01*
X178799432Y-112950500D01*
X178799435Y-112950500D01*
X178894938Y-112924910D01*
X178980562Y-112875475D01*
X179050475Y-112805562D01*
X179099910Y-112719938D01*
X179125500Y-112624435D01*
X179125500Y-112525565D01*
X179099910Y-112430062D01*
X179050475Y-112344438D01*
X178980562Y-112274525D01*
X178894938Y-112225090D01*
X178799435Y-112199500D01*
X178700565Y-112199500D01*
X178605062Y-112225090D01*
X178605060Y-112225091D01*
X178605059Y-112225091D01*
X178519436Y-112274526D01*
X178449526Y-112344436D01*
X178400091Y-112430059D01*
X178400091Y-112430060D01*
X178400090Y-112430062D01*
X178374500Y-112525565D01*
X160270726Y-112525565D01*
X160356592Y-112439699D01*
X160500273Y-112252450D01*
X160536721Y-112189321D01*
X186542154Y-112189321D01*
X186542154Y-112288191D01*
X186567744Y-112383694D01*
X186617179Y-112469318D01*
X186687092Y-112539231D01*
X186772716Y-112588666D01*
X186868219Y-112614256D01*
X186868221Y-112614256D01*
X186967086Y-112614256D01*
X186967089Y-112614256D01*
X187062592Y-112588666D01*
X187148216Y-112539231D01*
X187218129Y-112469318D01*
X187267564Y-112383694D01*
X187293154Y-112288191D01*
X187293154Y-112189321D01*
X187267564Y-112093818D01*
X187218129Y-112008194D01*
X187148216Y-111938281D01*
X187137140Y-111931886D01*
X187088925Y-111881321D01*
X187075701Y-111812714D01*
X187101669Y-111747849D01*
X187158583Y-111707320D01*
X187199140Y-111700500D01*
X187249444Y-111700500D01*
X187249447Y-111700500D01*
X187344950Y-111674910D01*
X187430574Y-111625475D01*
X187449825Y-111606224D01*
X187511148Y-111572739D01*
X187580840Y-111577723D01*
X187625187Y-111606224D01*
X187644438Y-111625475D01*
X187730062Y-111674910D01*
X187825565Y-111700500D01*
X187825567Y-111700500D01*
X187924432Y-111700500D01*
X187924435Y-111700500D01*
X188019938Y-111674910D01*
X188105562Y-111625475D01*
X188175475Y-111555562D01*
X188224910Y-111469938D01*
X188250500Y-111374435D01*
X188250500Y-111275565D01*
X188224910Y-111180062D01*
X188197159Y-111131995D01*
X202199500Y-111131995D01*
X202199500Y-111368004D01*
X202199501Y-111368020D01*
X202229795Y-111598132D01*
X202230307Y-111602014D01*
X202251856Y-111682435D01*
X202291394Y-111829993D01*
X202381714Y-112048045D01*
X202381719Y-112048056D01*
X202452677Y-112170957D01*
X202499727Y-112252450D01*
X202499729Y-112252453D01*
X202499730Y-112252454D01*
X202643406Y-112439697D01*
X202643412Y-112439704D01*
X202810295Y-112606587D01*
X202810302Y-112606593D01*
X202861167Y-112645623D01*
X202997550Y-112750273D01*
X203128918Y-112826118D01*
X203201943Y-112868280D01*
X203201948Y-112868282D01*
X203201951Y-112868284D01*
X203420007Y-112958606D01*
X203647986Y-113019693D01*
X203881989Y-113050500D01*
X203881996Y-113050500D01*
X204118004Y-113050500D01*
X204118011Y-113050500D01*
X204352014Y-113019693D01*
X204579993Y-112958606D01*
X204798049Y-112868284D01*
X205002450Y-112750273D01*
X205189699Y-112606592D01*
X205356592Y-112439699D01*
X205500273Y-112252450D01*
X205618284Y-112048049D01*
X205708606Y-111829993D01*
X205769693Y-111602014D01*
X205800500Y-111368011D01*
X205800500Y-111131989D01*
X205769693Y-110897986D01*
X205708606Y-110670007D01*
X205618284Y-110451951D01*
X205618282Y-110451948D01*
X205618280Y-110451943D01*
X205556210Y-110344436D01*
X205500273Y-110247550D01*
X205405854Y-110124500D01*
X205356593Y-110060302D01*
X205356587Y-110060295D01*
X205189704Y-109893412D01*
X205189697Y-109893406D01*
X205002454Y-109749730D01*
X205002453Y-109749729D01*
X205002450Y-109749727D01*
X204920957Y-109702677D01*
X204798056Y-109631719D01*
X204798045Y-109631714D01*
X204579993Y-109541394D01*
X204352010Y-109480306D01*
X204118020Y-109449501D01*
X204118017Y-109449500D01*
X204118011Y-109449500D01*
X203881989Y-109449500D01*
X203881983Y-109449500D01*
X203881979Y-109449501D01*
X203647989Y-109480306D01*
X203420006Y-109541394D01*
X203201954Y-109631714D01*
X203201943Y-109631719D01*
X202997545Y-109749730D01*
X202810302Y-109893406D01*
X202810295Y-109893412D01*
X202643412Y-110060295D01*
X202643406Y-110060302D01*
X202499730Y-110247545D01*
X202381719Y-110451943D01*
X202381714Y-110451954D01*
X202291394Y-110670006D01*
X202230306Y-110897989D01*
X202199501Y-111131979D01*
X202199500Y-111131995D01*
X188197159Y-111131995D01*
X188175475Y-111094438D01*
X188105562Y-111024525D01*
X188019938Y-110975090D01*
X187924435Y-110949500D01*
X187825565Y-110949500D01*
X187730062Y-110975090D01*
X187730060Y-110975091D01*
X187730059Y-110975091D01*
X187644436Y-111024526D01*
X187625187Y-111043776D01*
X187563864Y-111077261D01*
X187494172Y-111072277D01*
X187449825Y-111043776D01*
X187430575Y-111024526D01*
X187430574Y-111024525D01*
X187344950Y-110975090D01*
X187249447Y-110949500D01*
X187150577Y-110949500D01*
X187055074Y-110975090D01*
X187055072Y-110975091D01*
X187055071Y-110975091D01*
X186969448Y-111024526D01*
X186899538Y-111094436D01*
X186850103Y-111180059D01*
X186850103Y-111180060D01*
X186850102Y-111180062D01*
X186824512Y-111275565D01*
X186824512Y-111374435D01*
X186850102Y-111469938D01*
X186899537Y-111555562D01*
X186969450Y-111625475D01*
X186980525Y-111631869D01*
X187028741Y-111682435D01*
X187041965Y-111751042D01*
X187015997Y-111815907D01*
X186959083Y-111856436D01*
X186918526Y-111863256D01*
X186868219Y-111863256D01*
X186772716Y-111888846D01*
X186772714Y-111888847D01*
X186772713Y-111888847D01*
X186687090Y-111938282D01*
X186617180Y-112008192D01*
X186567745Y-112093815D01*
X186567745Y-112093816D01*
X186567744Y-112093818D01*
X186542154Y-112189321D01*
X160536721Y-112189321D01*
X160618284Y-112048049D01*
X160708606Y-111829993D01*
X160769693Y-111602014D01*
X160800500Y-111368011D01*
X160800500Y-111318135D01*
X175124500Y-111318135D01*
X175124500Y-111417005D01*
X175150090Y-111512508D01*
X175199525Y-111598132D01*
X175269438Y-111668045D01*
X175355062Y-111717480D01*
X175450565Y-111743070D01*
X175450567Y-111743070D01*
X175549432Y-111743070D01*
X175549435Y-111743070D01*
X175644938Y-111717480D01*
X175730562Y-111668045D01*
X175800475Y-111598132D01*
X175849910Y-111512508D01*
X175873206Y-111425565D01*
X176124500Y-111425565D01*
X176124500Y-111524435D01*
X176150090Y-111619938D01*
X176150091Y-111619939D01*
X176150091Y-111619940D01*
X176152962Y-111624912D01*
X176199525Y-111705562D01*
X176269438Y-111775475D01*
X176355062Y-111824910D01*
X176450565Y-111850500D01*
X176450567Y-111850500D01*
X176549432Y-111850500D01*
X176549435Y-111850500D01*
X176644938Y-111824910D01*
X176730562Y-111775475D01*
X176800475Y-111705562D01*
X176849910Y-111619938D01*
X176875500Y-111524435D01*
X176875500Y-111425565D01*
X176849910Y-111330062D01*
X176838268Y-111309897D01*
X180871449Y-111309897D01*
X180871449Y-111408767D01*
X180897039Y-111504270D01*
X180946474Y-111589894D01*
X181016387Y-111659807D01*
X181102011Y-111709242D01*
X181197514Y-111734832D01*
X181197516Y-111734832D01*
X181296381Y-111734832D01*
X181296384Y-111734832D01*
X181391887Y-111709242D01*
X181477511Y-111659807D01*
X181547424Y-111589894D01*
X181547424Y-111589893D01*
X181553171Y-111584147D01*
X181555709Y-111586685D01*
X181598535Y-111555109D01*
X181668262Y-111550632D01*
X181716508Y-111573226D01*
X181719434Y-111575471D01*
X181719438Y-111575475D01*
X181805062Y-111624910D01*
X181900565Y-111650500D01*
X181900567Y-111650500D01*
X181999432Y-111650500D01*
X181999435Y-111650500D01*
X182094938Y-111624910D01*
X182180562Y-111575475D01*
X182250475Y-111505562D01*
X182250481Y-111505550D01*
X182254744Y-111499996D01*
X182311169Y-111458790D01*
X182380915Y-111454630D01*
X182441838Y-111488838D01*
X182447636Y-111495529D01*
X182449537Y-111497430D01*
X182519450Y-111567343D01*
X182605074Y-111616778D01*
X182700577Y-111642368D01*
X182700579Y-111642368D01*
X182799444Y-111642368D01*
X182799447Y-111642368D01*
X182894950Y-111616778D01*
X182980574Y-111567343D01*
X183050487Y-111497430D01*
X183099922Y-111411806D01*
X183125512Y-111316303D01*
X183125512Y-111271434D01*
X183449808Y-111271434D01*
X183449808Y-111370304D01*
X183475398Y-111465807D01*
X183475399Y-111465808D01*
X183475399Y-111465809D01*
X183477784Y-111469940D01*
X183524833Y-111551431D01*
X183594746Y-111621344D01*
X183680370Y-111670779D01*
X183775873Y-111696369D01*
X183775875Y-111696369D01*
X183874740Y-111696369D01*
X183874743Y-111696369D01*
X183970246Y-111670779D01*
X184055870Y-111621344D01*
X184125783Y-111551431D01*
X184144170Y-111519582D01*
X184194737Y-111471367D01*
X184263344Y-111458145D01*
X184328209Y-111484113D01*
X184343753Y-111499843D01*
X184343778Y-111499819D01*
X184349525Y-111505566D01*
X184419438Y-111575479D01*
X184505062Y-111624914D01*
X184600565Y-111650504D01*
X184600567Y-111650504D01*
X184699432Y-111650504D01*
X184699435Y-111650504D01*
X184794938Y-111624914D01*
X184880562Y-111575479D01*
X184950475Y-111505566D01*
X184999910Y-111419942D01*
X185025500Y-111324439D01*
X185025500Y-111225569D01*
X184999910Y-111130066D01*
X184950475Y-111044442D01*
X184880562Y-110974529D01*
X184794938Y-110925094D01*
X184699435Y-110899504D01*
X184600565Y-110899504D01*
X184505062Y-110925094D01*
X184505060Y-110925095D01*
X184505059Y-110925095D01*
X184419436Y-110974530D01*
X184349526Y-111044440D01*
X184331135Y-111076293D01*
X184280566Y-111124506D01*
X184211959Y-111137727D01*
X184147095Y-111111757D01*
X184131554Y-111096029D01*
X184131530Y-111096054D01*
X184055871Y-111020395D01*
X184055870Y-111020394D01*
X183970246Y-110970959D01*
X183874743Y-110945369D01*
X183775873Y-110945369D01*
X183680370Y-110970959D01*
X183680368Y-110970960D01*
X183680367Y-110970960D01*
X183594744Y-111020395D01*
X183524834Y-111090305D01*
X183475399Y-111175928D01*
X183475399Y-111175929D01*
X183475398Y-111175931D01*
X183449808Y-111271434D01*
X183125512Y-111271434D01*
X183125512Y-111217433D01*
X183099922Y-111121930D01*
X183050487Y-111036306D01*
X182980574Y-110966393D01*
X182894950Y-110916958D01*
X182799447Y-110891368D01*
X182700577Y-110891368D01*
X182605074Y-110916958D01*
X182605072Y-110916959D01*
X182605071Y-110916959D01*
X182519448Y-110966394D01*
X182449538Y-111036304D01*
X182445260Y-111041880D01*
X182388831Y-111083081D01*
X182319085Y-111087234D01*
X182258165Y-111053020D01*
X182252372Y-111046335D01*
X182180563Y-110974526D01*
X182180562Y-110974525D01*
X182094938Y-110925090D01*
X181999435Y-110899500D01*
X181900565Y-110899500D01*
X181805062Y-110925090D01*
X181805060Y-110925091D01*
X181805059Y-110925091D01*
X181719436Y-110974526D01*
X181643778Y-111050185D01*
X181641304Y-111047711D01*
X181597834Y-111079431D01*
X181528087Y-111083563D01*
X181480442Y-111061106D01*
X181477513Y-111058858D01*
X181438448Y-111036304D01*
X181391887Y-111009422D01*
X181296384Y-110983832D01*
X181197514Y-110983832D01*
X181102011Y-111009422D01*
X181102009Y-111009423D01*
X181102008Y-111009423D01*
X181016385Y-111058858D01*
X180946475Y-111128768D01*
X180897040Y-111214391D01*
X180897040Y-111214392D01*
X180897039Y-111214394D01*
X180871449Y-111309897D01*
X176838268Y-111309897D01*
X176800475Y-111244438D01*
X176730562Y-111174525D01*
X176644938Y-111125090D01*
X176549435Y-111099500D01*
X176450565Y-111099500D01*
X176355062Y-111125090D01*
X176355060Y-111125091D01*
X176355059Y-111125091D01*
X176269436Y-111174526D01*
X176199526Y-111244436D01*
X176150091Y-111330059D01*
X176150091Y-111330060D01*
X176150090Y-111330062D01*
X176124500Y-111425565D01*
X175873206Y-111425565D01*
X175875500Y-111417005D01*
X175875500Y-111318135D01*
X175849910Y-111222632D01*
X175800475Y-111137008D01*
X175730562Y-111067095D01*
X175644938Y-111017660D01*
X175549435Y-110992070D01*
X175450565Y-110992070D01*
X175355062Y-111017660D01*
X175355060Y-111017661D01*
X175355059Y-111017661D01*
X175269436Y-111067096D01*
X175199526Y-111137006D01*
X175150091Y-111222629D01*
X175150091Y-111222630D01*
X175150090Y-111222632D01*
X175124500Y-111318135D01*
X160800500Y-111318135D01*
X160800500Y-111131989D01*
X160769693Y-110897986D01*
X160708606Y-110670007D01*
X160648776Y-110525565D01*
X172949500Y-110525565D01*
X172949500Y-110624435D01*
X172975090Y-110719938D01*
X173024525Y-110805562D01*
X173094438Y-110875475D01*
X173180062Y-110924910D01*
X173275565Y-110950500D01*
X173275567Y-110950500D01*
X173374432Y-110950500D01*
X173374435Y-110950500D01*
X173469938Y-110924910D01*
X173555562Y-110875475D01*
X173625475Y-110805562D01*
X173674910Y-110719938D01*
X173700500Y-110624435D01*
X173700500Y-110525565D01*
X173680404Y-110450565D01*
X174249500Y-110450565D01*
X174249500Y-110549435D01*
X174275090Y-110644938D01*
X174275091Y-110644939D01*
X174275091Y-110644940D01*
X174275413Y-110645497D01*
X174324525Y-110730562D01*
X174394438Y-110800475D01*
X174480062Y-110849910D01*
X174575565Y-110875500D01*
X174575567Y-110875500D01*
X174674432Y-110875500D01*
X174674435Y-110875500D01*
X174769938Y-110849910D01*
X174855562Y-110800475D01*
X174925475Y-110730562D01*
X174974588Y-110645495D01*
X177919430Y-110645495D01*
X177919430Y-110744365D01*
X177945020Y-110839868D01*
X177994455Y-110925492D01*
X178064368Y-110995405D01*
X178149992Y-111044840D01*
X178245495Y-111070430D01*
X178245497Y-111070430D01*
X178344362Y-111070430D01*
X178344365Y-111070430D01*
X178439868Y-111044840D01*
X178525492Y-110995405D01*
X178595405Y-110925492D01*
X178644840Y-110839868D01*
X178670430Y-110744365D01*
X178670430Y-110645495D01*
X178644840Y-110549992D01*
X178595405Y-110464368D01*
X178581602Y-110450565D01*
X186249500Y-110450565D01*
X186249500Y-110549435D01*
X186275090Y-110644938D01*
X186275091Y-110644939D01*
X186275091Y-110644940D01*
X186275413Y-110645497D01*
X186324525Y-110730562D01*
X186394438Y-110800475D01*
X186480062Y-110849910D01*
X186575565Y-110875500D01*
X186575567Y-110875500D01*
X186674432Y-110875500D01*
X186674435Y-110875500D01*
X186769938Y-110849910D01*
X186855562Y-110800475D01*
X186925475Y-110730562D01*
X186974910Y-110644938D01*
X187000500Y-110549435D01*
X187000500Y-110450565D01*
X186990452Y-110413065D01*
X196362000Y-110413065D01*
X196362000Y-110511935D01*
X196387590Y-110607438D01*
X196437025Y-110693062D01*
X196506938Y-110762975D01*
X196592562Y-110812410D01*
X196688065Y-110838000D01*
X196688067Y-110838000D01*
X196786932Y-110838000D01*
X196786935Y-110838000D01*
X196882438Y-110812410D01*
X196968062Y-110762975D01*
X197037975Y-110693062D01*
X197087410Y-110607438D01*
X197113000Y-110511935D01*
X197113000Y-110413065D01*
X197087410Y-110317562D01*
X197037975Y-110231938D01*
X196968062Y-110162025D01*
X196882438Y-110112590D01*
X196786935Y-110087000D01*
X196688065Y-110087000D01*
X196592562Y-110112590D01*
X196592560Y-110112591D01*
X196592559Y-110112591D01*
X196506936Y-110162026D01*
X196437026Y-110231936D01*
X196387591Y-110317559D01*
X196387591Y-110317560D01*
X196387590Y-110317562D01*
X196362000Y-110413065D01*
X186990452Y-110413065D01*
X186974910Y-110355062D01*
X186925475Y-110269438D01*
X186855562Y-110199525D01*
X186769938Y-110150090D01*
X186674435Y-110124500D01*
X186575565Y-110124500D01*
X186480062Y-110150090D01*
X186480060Y-110150091D01*
X186480059Y-110150091D01*
X186394436Y-110199526D01*
X186324526Y-110269436D01*
X186275091Y-110355059D01*
X186275091Y-110355060D01*
X186275090Y-110355062D01*
X186249500Y-110450565D01*
X178581602Y-110450565D01*
X178525492Y-110394455D01*
X178439868Y-110345020D01*
X178344365Y-110319430D01*
X178245495Y-110319430D01*
X178149992Y-110345020D01*
X178149990Y-110345021D01*
X178149989Y-110345021D01*
X178064366Y-110394456D01*
X177994456Y-110464366D01*
X177945021Y-110549989D01*
X177945021Y-110549990D01*
X177945020Y-110549992D01*
X177919430Y-110645495D01*
X174974588Y-110645495D01*
X174974910Y-110644938D01*
X175000500Y-110549435D01*
X175000500Y-110450565D01*
X174974910Y-110355062D01*
X174925475Y-110269438D01*
X174855562Y-110199525D01*
X174769938Y-110150090D01*
X174674435Y-110124500D01*
X174575565Y-110124500D01*
X174480062Y-110150090D01*
X174480060Y-110150091D01*
X174480059Y-110150091D01*
X174394436Y-110199526D01*
X174324526Y-110269436D01*
X174275091Y-110355059D01*
X174275091Y-110355060D01*
X174275090Y-110355062D01*
X174249500Y-110450565D01*
X173680404Y-110450565D01*
X173674910Y-110430062D01*
X173625475Y-110344438D01*
X173555562Y-110274525D01*
X173469938Y-110225090D01*
X173374435Y-110199500D01*
X173275565Y-110199500D01*
X173180062Y-110225090D01*
X173180060Y-110225091D01*
X173180059Y-110225091D01*
X173094436Y-110274526D01*
X173024526Y-110344436D01*
X172975091Y-110430059D01*
X172975091Y-110430060D01*
X172975090Y-110430062D01*
X172949500Y-110525565D01*
X160648776Y-110525565D01*
X160640025Y-110504439D01*
X160618288Y-110451959D01*
X160618280Y-110451943D01*
X160556210Y-110344436D01*
X160500273Y-110247550D01*
X160405854Y-110124500D01*
X160356593Y-110060302D01*
X160356587Y-110060295D01*
X160189704Y-109893412D01*
X160189697Y-109893406D01*
X160002454Y-109749730D01*
X160002453Y-109749729D01*
X160002450Y-109749727D01*
X159920957Y-109702677D01*
X159798056Y-109631719D01*
X159798045Y-109631714D01*
X159579993Y-109541394D01*
X159352010Y-109480306D01*
X159118020Y-109449501D01*
X159118017Y-109449500D01*
X159118011Y-109449500D01*
X158881989Y-109449500D01*
X158881983Y-109449500D01*
X158881979Y-109449501D01*
X158647989Y-109480306D01*
X158420006Y-109541394D01*
X158201954Y-109631714D01*
X158201943Y-109631719D01*
X157997545Y-109749730D01*
X157810302Y-109893406D01*
X157810295Y-109893412D01*
X157643412Y-110060295D01*
X157643406Y-110060302D01*
X157499730Y-110247545D01*
X157381719Y-110451943D01*
X157381714Y-110451954D01*
X157291394Y-110670006D01*
X157230306Y-110897989D01*
X157199501Y-111131979D01*
X157199500Y-111131995D01*
X155650500Y-111131995D01*
X155650500Y-108587337D01*
X165912742Y-108587337D01*
X165912742Y-108686207D01*
X165938332Y-108781710D01*
X165987767Y-108867334D01*
X166057680Y-108937247D01*
X166143304Y-108986682D01*
X166238807Y-109012272D01*
X166238809Y-109012272D01*
X166337674Y-109012272D01*
X166337677Y-109012272D01*
X166433180Y-108986682D01*
X166518804Y-108937247D01*
X166588717Y-108867334D01*
X166638152Y-108781710D01*
X166663742Y-108686207D01*
X166663742Y-108587337D01*
X166646749Y-108523920D01*
X208024499Y-108523920D01*
X208053340Y-108668907D01*
X208053343Y-108668917D01*
X208109912Y-108805488D01*
X208109919Y-108805501D01*
X208192048Y-108928415D01*
X208192051Y-108928419D01*
X208296580Y-109032948D01*
X208296584Y-109032951D01*
X208419498Y-109115080D01*
X208419511Y-109115087D01*
X208556082Y-109171656D01*
X208556087Y-109171658D01*
X208556091Y-109171658D01*
X208556092Y-109171659D01*
X208701079Y-109200500D01*
X208701082Y-109200500D01*
X208848920Y-109200500D01*
X208946462Y-109181096D01*
X208993913Y-109171658D01*
X209130495Y-109115084D01*
X209253416Y-109032951D01*
X209357951Y-108928416D01*
X209440084Y-108805495D01*
X209496658Y-108668913D01*
X209506096Y-108621462D01*
X209525500Y-108523920D01*
X209525500Y-108376079D01*
X209496659Y-108231092D01*
X209496658Y-108231091D01*
X209496658Y-108231087D01*
X209496656Y-108231082D01*
X209440087Y-108094511D01*
X209440080Y-108094498D01*
X209357951Y-107971584D01*
X209357948Y-107971580D01*
X209253419Y-107867051D01*
X209253415Y-107867048D01*
X209130501Y-107784919D01*
X209130488Y-107784912D01*
X208993917Y-107728343D01*
X208993907Y-107728340D01*
X208848920Y-107699500D01*
X208848918Y-107699500D01*
X208701082Y-107699500D01*
X208701080Y-107699500D01*
X208556092Y-107728340D01*
X208556082Y-107728343D01*
X208419511Y-107784912D01*
X208419498Y-107784919D01*
X208296584Y-107867048D01*
X208296580Y-107867051D01*
X208192051Y-107971580D01*
X208192048Y-107971584D01*
X208109919Y-108094498D01*
X208109912Y-108094511D01*
X208053343Y-108231082D01*
X208053340Y-108231092D01*
X208024500Y-108376079D01*
X208024500Y-108376082D01*
X208024500Y-108523918D01*
X208024500Y-108523920D01*
X208024499Y-108523920D01*
X166646749Y-108523920D01*
X166638152Y-108491834D01*
X166588717Y-108406210D01*
X166518804Y-108336297D01*
X166433180Y-108286862D01*
X166337677Y-108261272D01*
X166238807Y-108261272D01*
X166143304Y-108286862D01*
X166143302Y-108286863D01*
X166143301Y-108286863D01*
X166057678Y-108336298D01*
X165987768Y-108406208D01*
X165938333Y-108491831D01*
X165938333Y-108491832D01*
X165938332Y-108491834D01*
X165912742Y-108587337D01*
X155650500Y-108587337D01*
X155650500Y-107042604D01*
X161018009Y-107042604D01*
X161018009Y-107141474D01*
X161043599Y-107236977D01*
X161093034Y-107322601D01*
X161162947Y-107392514D01*
X161248571Y-107441949D01*
X161344074Y-107467539D01*
X161344076Y-107467539D01*
X161442941Y-107467539D01*
X161442944Y-107467539D01*
X161538447Y-107441949D01*
X161624071Y-107392514D01*
X161693984Y-107322601D01*
X161743419Y-107236977D01*
X161769009Y-107141474D01*
X161769009Y-107042604D01*
X161743419Y-106947101D01*
X161693984Y-106861477D01*
X161624071Y-106791564D01*
X161538447Y-106742129D01*
X161442944Y-106716539D01*
X161344074Y-106716539D01*
X161248571Y-106742129D01*
X161248569Y-106742130D01*
X161248568Y-106742130D01*
X161162945Y-106791565D01*
X161093035Y-106861475D01*
X161043600Y-106947098D01*
X161043600Y-106947099D01*
X161043599Y-106947101D01*
X161018009Y-107042604D01*
X155650500Y-107042604D01*
X155650500Y-105900565D01*
X158174500Y-105900565D01*
X158174500Y-105999435D01*
X158200090Y-106094938D01*
X158200091Y-106094939D01*
X158200091Y-106094940D01*
X158205100Y-106103615D01*
X158249525Y-106180562D01*
X158319438Y-106250475D01*
X158405062Y-106299910D01*
X158500565Y-106325500D01*
X158500567Y-106325500D01*
X158599432Y-106325500D01*
X158599435Y-106325500D01*
X158694938Y-106299910D01*
X158780562Y-106250475D01*
X158850475Y-106180562D01*
X158899910Y-106094938D01*
X158925500Y-105999435D01*
X158925500Y-105900565D01*
X158899910Y-105805062D01*
X158870259Y-105753705D01*
X166296360Y-105753705D01*
X166296360Y-105852575D01*
X166321950Y-105948078D01*
X166371385Y-106033702D01*
X166441298Y-106103615D01*
X166526922Y-106153050D01*
X166622425Y-106178640D01*
X166622427Y-106178640D01*
X166721292Y-106178640D01*
X166721295Y-106178640D01*
X166816798Y-106153050D01*
X166902422Y-106103615D01*
X166952117Y-106053920D01*
X204024499Y-106053920D01*
X204053340Y-106198907D01*
X204053343Y-106198917D01*
X204109912Y-106335488D01*
X204109919Y-106335501D01*
X204192048Y-106458415D01*
X204192051Y-106458419D01*
X204296580Y-106562948D01*
X204296584Y-106562951D01*
X204419498Y-106645080D01*
X204419511Y-106645087D01*
X204556082Y-106701656D01*
X204556087Y-106701658D01*
X204556091Y-106701658D01*
X204556092Y-106701659D01*
X204701079Y-106730500D01*
X204701082Y-106730500D01*
X204848920Y-106730500D01*
X204946462Y-106711096D01*
X204993913Y-106701658D01*
X205130495Y-106645084D01*
X205253416Y-106562951D01*
X205357951Y-106458416D01*
X205440084Y-106335495D01*
X205496658Y-106198913D01*
X205506096Y-106151462D01*
X205525500Y-106053920D01*
X205525500Y-105983920D01*
X208024499Y-105983920D01*
X208053340Y-106128907D01*
X208053343Y-106128917D01*
X208109912Y-106265488D01*
X208109919Y-106265501D01*
X208192048Y-106388415D01*
X208192051Y-106388419D01*
X208296580Y-106492948D01*
X208296584Y-106492951D01*
X208419498Y-106575080D01*
X208419511Y-106575087D01*
X208556082Y-106631656D01*
X208556087Y-106631658D01*
X208556091Y-106631658D01*
X208556092Y-106631659D01*
X208701079Y-106660500D01*
X208701082Y-106660500D01*
X208848920Y-106660500D01*
X208946462Y-106641096D01*
X208993913Y-106631658D01*
X209130495Y-106575084D01*
X209253416Y-106492951D01*
X209357951Y-106388416D01*
X209440084Y-106265495D01*
X209446306Y-106250475D01*
X209467663Y-106198913D01*
X209496658Y-106128913D01*
X209506096Y-106081462D01*
X209525500Y-105983920D01*
X209525500Y-105836079D01*
X209496659Y-105691092D01*
X209496658Y-105691091D01*
X209496658Y-105691087D01*
X209483036Y-105658200D01*
X209440087Y-105554511D01*
X209440080Y-105554498D01*
X209357951Y-105431584D01*
X209357948Y-105431580D01*
X209253419Y-105327051D01*
X209253415Y-105327048D01*
X209130501Y-105244919D01*
X209130488Y-105244912D01*
X208993917Y-105188343D01*
X208993907Y-105188340D01*
X208848920Y-105159500D01*
X208848918Y-105159500D01*
X208701082Y-105159500D01*
X208701080Y-105159500D01*
X208556092Y-105188340D01*
X208556082Y-105188343D01*
X208419511Y-105244912D01*
X208419498Y-105244919D01*
X208296584Y-105327048D01*
X208296580Y-105327051D01*
X208192051Y-105431580D01*
X208192048Y-105431584D01*
X208109919Y-105554498D01*
X208109912Y-105554511D01*
X208053343Y-105691082D01*
X208053340Y-105691092D01*
X208024500Y-105836079D01*
X208024500Y-105836082D01*
X208024500Y-105983918D01*
X208024500Y-105983920D01*
X208024499Y-105983920D01*
X205525500Y-105983920D01*
X205525500Y-105906079D01*
X205525499Y-105906077D01*
X205515177Y-105854181D01*
X205496659Y-105761092D01*
X205496658Y-105761091D01*
X205496658Y-105761087D01*
X205485906Y-105735129D01*
X205440087Y-105624511D01*
X205440080Y-105624498D01*
X205357951Y-105501584D01*
X205357948Y-105501580D01*
X205253419Y-105397051D01*
X205253415Y-105397048D01*
X205130501Y-105314919D01*
X205130488Y-105314912D01*
X204993917Y-105258343D01*
X204993907Y-105258340D01*
X204848920Y-105229500D01*
X204848918Y-105229500D01*
X204701082Y-105229500D01*
X204701080Y-105229500D01*
X204556092Y-105258340D01*
X204556082Y-105258343D01*
X204419511Y-105314912D01*
X204419498Y-105314919D01*
X204296584Y-105397048D01*
X204296580Y-105397051D01*
X204192051Y-105501580D01*
X204192048Y-105501584D01*
X204109919Y-105624498D01*
X204109912Y-105624511D01*
X204053343Y-105761082D01*
X204053340Y-105761092D01*
X204024500Y-105906079D01*
X204024500Y-105906082D01*
X204024500Y-106053918D01*
X204024500Y-106053920D01*
X204024499Y-106053920D01*
X166952117Y-106053920D01*
X166972335Y-106033702D01*
X167021770Y-105948078D01*
X167047360Y-105852575D01*
X167047360Y-105753705D01*
X167021770Y-105658202D01*
X166972335Y-105572578D01*
X166902422Y-105502665D01*
X166816798Y-105453230D01*
X166721295Y-105427640D01*
X166622425Y-105427640D01*
X166526922Y-105453230D01*
X166526920Y-105453231D01*
X166526919Y-105453231D01*
X166441296Y-105502666D01*
X166371386Y-105572576D01*
X166321951Y-105658199D01*
X166321951Y-105658200D01*
X166321950Y-105658202D01*
X166296360Y-105753705D01*
X158870259Y-105753705D01*
X158850475Y-105719438D01*
X158780562Y-105649525D01*
X158694938Y-105600090D01*
X158599435Y-105574500D01*
X158500565Y-105574500D01*
X158405062Y-105600090D01*
X158405060Y-105600091D01*
X158405059Y-105600091D01*
X158319436Y-105649526D01*
X158249526Y-105719436D01*
X158200091Y-105805059D01*
X158200091Y-105805060D01*
X158200090Y-105805062D01*
X158174500Y-105900565D01*
X155650500Y-105900565D01*
X155650500Y-105325567D01*
X159999500Y-105325567D01*
X159999500Y-105424437D01*
X160025090Y-105519940D01*
X160074525Y-105605564D01*
X160144438Y-105675477D01*
X160230062Y-105724912D01*
X160325565Y-105750502D01*
X160325567Y-105750502D01*
X160424432Y-105750502D01*
X160424435Y-105750502D01*
X160519938Y-105724912D01*
X160605562Y-105675477D01*
X160675475Y-105605564D01*
X160724910Y-105519940D01*
X160750500Y-105424437D01*
X160750500Y-105325567D01*
X160724910Y-105230064D01*
X160675475Y-105144440D01*
X160605562Y-105074527D01*
X160519938Y-105025092D01*
X160424435Y-104999502D01*
X160325565Y-104999502D01*
X160230062Y-105025092D01*
X160230060Y-105025093D01*
X160230059Y-105025093D01*
X160144436Y-105074528D01*
X160074526Y-105144438D01*
X160025091Y-105230061D01*
X160025091Y-105230062D01*
X160025090Y-105230064D01*
X159999500Y-105325567D01*
X155650500Y-105325567D01*
X155650500Y-104875565D01*
X167324500Y-104875565D01*
X167324500Y-104974435D01*
X167350090Y-105069938D01*
X167399525Y-105155562D01*
X167469438Y-105225475D01*
X167555062Y-105274910D01*
X167650565Y-105300500D01*
X167650567Y-105300500D01*
X167749432Y-105300500D01*
X167749435Y-105300500D01*
X167844938Y-105274910D01*
X167930562Y-105225475D01*
X167935542Y-105220495D01*
X193919430Y-105220495D01*
X193919430Y-105319365D01*
X193945020Y-105414868D01*
X193994455Y-105500492D01*
X194064368Y-105570405D01*
X194149992Y-105619840D01*
X194245495Y-105645430D01*
X194245497Y-105645430D01*
X194344362Y-105645430D01*
X194344365Y-105645430D01*
X194439868Y-105619840D01*
X194525492Y-105570405D01*
X194555143Y-105540754D01*
X200624500Y-105540754D01*
X200624500Y-105639624D01*
X200650090Y-105735127D01*
X200699525Y-105820751D01*
X200769438Y-105890664D01*
X200855062Y-105940099D01*
X200950565Y-105965689D01*
X200950567Y-105965689D01*
X201049432Y-105965689D01*
X201049435Y-105965689D01*
X201144938Y-105940099D01*
X201230562Y-105890664D01*
X201300475Y-105820751D01*
X201349910Y-105735127D01*
X201375500Y-105639624D01*
X201375500Y-105540754D01*
X201349910Y-105445251D01*
X201300475Y-105359627D01*
X201230562Y-105289714D01*
X201144938Y-105240279D01*
X201049435Y-105214689D01*
X200950565Y-105214689D01*
X200855062Y-105240279D01*
X200855060Y-105240280D01*
X200855059Y-105240280D01*
X200769436Y-105289715D01*
X200699526Y-105359625D01*
X200650091Y-105445248D01*
X200650091Y-105445249D01*
X200650090Y-105445251D01*
X200624500Y-105540754D01*
X194555143Y-105540754D01*
X194595405Y-105500492D01*
X194644840Y-105414868D01*
X194670430Y-105319365D01*
X194670430Y-105220495D01*
X194644840Y-105124992D01*
X194595405Y-105039368D01*
X194525492Y-104969455D01*
X194439868Y-104920020D01*
X194344365Y-104894430D01*
X194245495Y-104894430D01*
X194149992Y-104920020D01*
X194149990Y-104920021D01*
X194149989Y-104920021D01*
X194064366Y-104969456D01*
X193994456Y-105039366D01*
X193945021Y-105124989D01*
X193945021Y-105124990D01*
X193945020Y-105124992D01*
X193919430Y-105220495D01*
X167935542Y-105220495D01*
X168000475Y-105155562D01*
X168049910Y-105069938D01*
X168075500Y-104974435D01*
X168075500Y-104875565D01*
X168049910Y-104780062D01*
X168000475Y-104694438D01*
X167930562Y-104624525D01*
X167844938Y-104575090D01*
X167749435Y-104549500D01*
X167650565Y-104549500D01*
X167555062Y-104575090D01*
X167555060Y-104575091D01*
X167555059Y-104575091D01*
X167469436Y-104624526D01*
X167399526Y-104694436D01*
X167350091Y-104780059D01*
X167350091Y-104780060D01*
X167350090Y-104780062D01*
X167324500Y-104875565D01*
X155650500Y-104875565D01*
X155650500Y-104164690D01*
X160488625Y-104164690D01*
X160488625Y-104263560D01*
X160514215Y-104359063D01*
X160563650Y-104444687D01*
X160633563Y-104514600D01*
X160719187Y-104564035D01*
X160814690Y-104589625D01*
X160814692Y-104589625D01*
X160913557Y-104589625D01*
X160913560Y-104589625D01*
X161009063Y-104564035D01*
X161094687Y-104514600D01*
X161164600Y-104444687D01*
X161214035Y-104359063D01*
X161229710Y-104300565D01*
X202299500Y-104300565D01*
X202299500Y-104399435D01*
X202325090Y-104494938D01*
X202374525Y-104580562D01*
X202444438Y-104650475D01*
X202530062Y-104699910D01*
X202625565Y-104725500D01*
X202625567Y-104725500D01*
X202724432Y-104725500D01*
X202724435Y-104725500D01*
X202819938Y-104699910D01*
X202905562Y-104650475D01*
X202975475Y-104580562D01*
X203024910Y-104494938D01*
X203050500Y-104399435D01*
X203050500Y-104300565D01*
X203024910Y-104205062D01*
X202975475Y-104119438D01*
X202905562Y-104049525D01*
X202819938Y-104000090D01*
X202724435Y-103974500D01*
X202625565Y-103974500D01*
X202530062Y-104000090D01*
X202530060Y-104000091D01*
X202530059Y-104000091D01*
X202444436Y-104049526D01*
X202374526Y-104119436D01*
X202325091Y-104205059D01*
X202325091Y-104205060D01*
X202325090Y-104205062D01*
X202299500Y-104300565D01*
X161229710Y-104300565D01*
X161239625Y-104263560D01*
X161239625Y-104164690D01*
X161214035Y-104069187D01*
X161164600Y-103983563D01*
X161094687Y-103913650D01*
X161009063Y-103864215D01*
X160913560Y-103838625D01*
X160814690Y-103838625D01*
X160719187Y-103864215D01*
X160719185Y-103864216D01*
X160719184Y-103864216D01*
X160633561Y-103913651D01*
X160563651Y-103983561D01*
X160514216Y-104069184D01*
X160514216Y-104069185D01*
X160514215Y-104069187D01*
X160488625Y-104164690D01*
X155650500Y-104164690D01*
X155650500Y-103513920D01*
X204024499Y-103513920D01*
X204053340Y-103658907D01*
X204053343Y-103658917D01*
X204109912Y-103795488D01*
X204109919Y-103795501D01*
X204192048Y-103918415D01*
X204192051Y-103918419D01*
X204296580Y-104022948D01*
X204296584Y-104022951D01*
X204419498Y-104105080D01*
X204419511Y-104105087D01*
X204556082Y-104161656D01*
X204556087Y-104161658D01*
X204556091Y-104161658D01*
X204556092Y-104161659D01*
X204701079Y-104190500D01*
X204701082Y-104190500D01*
X204848920Y-104190500D01*
X204978670Y-104164690D01*
X204993913Y-104161658D01*
X205130495Y-104105084D01*
X205253416Y-104022951D01*
X205357951Y-103918416D01*
X205440084Y-103795495D01*
X205496658Y-103658913D01*
X205506096Y-103611462D01*
X205525500Y-103513920D01*
X205525500Y-103443920D01*
X208024499Y-103443920D01*
X208053340Y-103588907D01*
X208053343Y-103588917D01*
X208109912Y-103725488D01*
X208109919Y-103725501D01*
X208192048Y-103848415D01*
X208192051Y-103848419D01*
X208296580Y-103952948D01*
X208296584Y-103952951D01*
X208419498Y-104035080D01*
X208419511Y-104035087D01*
X208556082Y-104091656D01*
X208556087Y-104091658D01*
X208556091Y-104091658D01*
X208556092Y-104091659D01*
X208701079Y-104120500D01*
X208701082Y-104120500D01*
X208848920Y-104120500D01*
X208946462Y-104101096D01*
X208993913Y-104091658D01*
X209130495Y-104035084D01*
X209253416Y-103952951D01*
X209357951Y-103848416D01*
X209440084Y-103725495D01*
X209496658Y-103588913D01*
X209506096Y-103541462D01*
X209525500Y-103443920D01*
X209525500Y-103296079D01*
X209496659Y-103151092D01*
X209496658Y-103151091D01*
X209496658Y-103151087D01*
X209494112Y-103144940D01*
X209440087Y-103014511D01*
X209440080Y-103014498D01*
X209357951Y-102891584D01*
X209357948Y-102891580D01*
X209253419Y-102787051D01*
X209253415Y-102787048D01*
X209130501Y-102704919D01*
X209130488Y-102704912D01*
X208993917Y-102648343D01*
X208993907Y-102648340D01*
X208848920Y-102619500D01*
X208848918Y-102619500D01*
X208701082Y-102619500D01*
X208701080Y-102619500D01*
X208556092Y-102648340D01*
X208556082Y-102648343D01*
X208419511Y-102704912D01*
X208419498Y-102704919D01*
X208296584Y-102787048D01*
X208296580Y-102787051D01*
X208192051Y-102891580D01*
X208192048Y-102891584D01*
X208109919Y-103014498D01*
X208109912Y-103014511D01*
X208053343Y-103151082D01*
X208053340Y-103151092D01*
X208024500Y-103296079D01*
X208024500Y-103296082D01*
X208024500Y-103443918D01*
X208024500Y-103443920D01*
X208024499Y-103443920D01*
X205525500Y-103443920D01*
X205525500Y-103366079D01*
X205525499Y-103366077D01*
X205515177Y-103314181D01*
X205496659Y-103221092D01*
X205496658Y-103221091D01*
X205496658Y-103221087D01*
X205465116Y-103144938D01*
X205440087Y-103084511D01*
X205440080Y-103084498D01*
X205357951Y-102961584D01*
X205357948Y-102961580D01*
X205253419Y-102857051D01*
X205253415Y-102857048D01*
X205130501Y-102774919D01*
X205130488Y-102774912D01*
X204993917Y-102718343D01*
X204993907Y-102718340D01*
X204848920Y-102689500D01*
X204848918Y-102689500D01*
X204701082Y-102689500D01*
X204701080Y-102689500D01*
X204556092Y-102718340D01*
X204556082Y-102718343D01*
X204419511Y-102774912D01*
X204419498Y-102774919D01*
X204296584Y-102857048D01*
X204296580Y-102857051D01*
X204192051Y-102961580D01*
X204192048Y-102961584D01*
X204109919Y-103084498D01*
X204109912Y-103084511D01*
X204053343Y-103221082D01*
X204053340Y-103221092D01*
X204024500Y-103366079D01*
X204024500Y-103366082D01*
X204024500Y-103513918D01*
X204024500Y-103513920D01*
X204024499Y-103513920D01*
X155650500Y-103513920D01*
X155650500Y-99458920D01*
X157799499Y-99458920D01*
X157828340Y-99603907D01*
X157828343Y-99603917D01*
X157884912Y-99740488D01*
X157884919Y-99740501D01*
X157967048Y-99863415D01*
X157967051Y-99863419D01*
X158071580Y-99967948D01*
X158071584Y-99967951D01*
X158194498Y-100050080D01*
X158194511Y-100050087D01*
X158331082Y-100106656D01*
X158331087Y-100106658D01*
X158331091Y-100106658D01*
X158331092Y-100106659D01*
X158476079Y-100135500D01*
X158476082Y-100135500D01*
X158623920Y-100135500D01*
X158721462Y-100116096D01*
X158768913Y-100106658D01*
X158905495Y-100050084D01*
X159028416Y-99967951D01*
X159132951Y-99863416D01*
X159215084Y-99740495D01*
X159271658Y-99603913D01*
X159289694Y-99513241D01*
X159300500Y-99458920D01*
X159300500Y-99311079D01*
X159271659Y-99166092D01*
X159271658Y-99166091D01*
X159271658Y-99166087D01*
X159271656Y-99166082D01*
X159215087Y-99029511D01*
X159215080Y-99029498D01*
X159132951Y-98906584D01*
X159132948Y-98906580D01*
X159028419Y-98802051D01*
X159028415Y-98802048D01*
X158905501Y-98719919D01*
X158905488Y-98719912D01*
X158768917Y-98663343D01*
X158768907Y-98663340D01*
X158623920Y-98634500D01*
X158623918Y-98634500D01*
X158476082Y-98634500D01*
X158476080Y-98634500D01*
X158331092Y-98663340D01*
X158331082Y-98663343D01*
X158194511Y-98719912D01*
X158194498Y-98719919D01*
X158071584Y-98802048D01*
X158071580Y-98802051D01*
X157967051Y-98906580D01*
X157967048Y-98906584D01*
X157884919Y-99029498D01*
X157884912Y-99029511D01*
X157828343Y-99166082D01*
X157828340Y-99166092D01*
X157799500Y-99311079D01*
X157799500Y-99311082D01*
X157799500Y-99458918D01*
X157799500Y-99458920D01*
X157799499Y-99458920D01*
X155650500Y-99458920D01*
X155650500Y-96918920D01*
X157799499Y-96918920D01*
X157828340Y-97063907D01*
X157828343Y-97063917D01*
X157884912Y-97200488D01*
X157884919Y-97200501D01*
X157967048Y-97323415D01*
X157967051Y-97323419D01*
X158071580Y-97427948D01*
X158071584Y-97427951D01*
X158194498Y-97510080D01*
X158194511Y-97510087D01*
X158331082Y-97566656D01*
X158331087Y-97566658D01*
X158331091Y-97566658D01*
X158331092Y-97566659D01*
X158476079Y-97595500D01*
X158476082Y-97595500D01*
X158623920Y-97595500D01*
X158721462Y-97576096D01*
X158768913Y-97566658D01*
X158905495Y-97510084D01*
X159028416Y-97427951D01*
X159132951Y-97323416D01*
X159215084Y-97200495D01*
X159271658Y-97063913D01*
X159300500Y-96918918D01*
X159300500Y-96771082D01*
X159300500Y-96771079D01*
X159271659Y-96626092D01*
X159271658Y-96626091D01*
X159271658Y-96626087D01*
X159268903Y-96619436D01*
X159215087Y-96489511D01*
X159215080Y-96489498D01*
X159132951Y-96366584D01*
X159132948Y-96366580D01*
X159028419Y-96262051D01*
X159028415Y-96262048D01*
X158905501Y-96179919D01*
X158905488Y-96179912D01*
X158768917Y-96123343D01*
X158768907Y-96123340D01*
X158623920Y-96094500D01*
X158623918Y-96094500D01*
X158476082Y-96094500D01*
X158476080Y-96094500D01*
X158331092Y-96123340D01*
X158331082Y-96123343D01*
X158194511Y-96179912D01*
X158194498Y-96179919D01*
X158071584Y-96262048D01*
X158071580Y-96262051D01*
X157967051Y-96366580D01*
X157967048Y-96366584D01*
X157884919Y-96489498D01*
X157884912Y-96489511D01*
X157828343Y-96626082D01*
X157828340Y-96626092D01*
X157799500Y-96771079D01*
X157799500Y-96771082D01*
X157799500Y-96918918D01*
X157799500Y-96918920D01*
X157799499Y-96918920D01*
X155650500Y-96918920D01*
X155650500Y-94378920D01*
X157799499Y-94378920D01*
X157828340Y-94523907D01*
X157828343Y-94523917D01*
X157884912Y-94660488D01*
X157884919Y-94660501D01*
X157967048Y-94783415D01*
X157967051Y-94783419D01*
X158071580Y-94887948D01*
X158071584Y-94887951D01*
X158194498Y-94970080D01*
X158194511Y-94970087D01*
X158331082Y-95026656D01*
X158331087Y-95026658D01*
X158331091Y-95026658D01*
X158331092Y-95026659D01*
X158476079Y-95055500D01*
X158476082Y-95055500D01*
X158623920Y-95055500D01*
X158721462Y-95036096D01*
X158768913Y-95026658D01*
X158905495Y-94970084D01*
X159028416Y-94887951D01*
X159132951Y-94783416D01*
X159215084Y-94660495D01*
X159271658Y-94523913D01*
X159300500Y-94378918D01*
X159300500Y-94231082D01*
X159300500Y-94231079D01*
X159271659Y-94086092D01*
X159271658Y-94086091D01*
X159271658Y-94086087D01*
X159266618Y-94073920D01*
X159215087Y-93949511D01*
X159215080Y-93949498D01*
X159132951Y-93826584D01*
X159132948Y-93826580D01*
X159028419Y-93722051D01*
X159028415Y-93722048D01*
X158905501Y-93639919D01*
X158905488Y-93639912D01*
X158768917Y-93583343D01*
X158768907Y-93583340D01*
X158623920Y-93554500D01*
X158623918Y-93554500D01*
X158476082Y-93554500D01*
X158476080Y-93554500D01*
X158331092Y-93583340D01*
X158331082Y-93583343D01*
X158194511Y-93639912D01*
X158194498Y-93639919D01*
X158071584Y-93722048D01*
X158071580Y-93722051D01*
X157967051Y-93826580D01*
X157967048Y-93826584D01*
X157884919Y-93949498D01*
X157884912Y-93949511D01*
X157828343Y-94086082D01*
X157828340Y-94086092D01*
X157799500Y-94231079D01*
X157799500Y-94231082D01*
X157799500Y-94378918D01*
X157799500Y-94378920D01*
X157799499Y-94378920D01*
X155650500Y-94378920D01*
X155650500Y-93305480D01*
X167336999Y-93305480D01*
X167336999Y-93417516D01*
X167365996Y-93525735D01*
X167422014Y-93622761D01*
X167501236Y-93701983D01*
X167598262Y-93758001D01*
X167706481Y-93786998D01*
X167706483Y-93786998D01*
X167818515Y-93786998D01*
X167818517Y-93786998D01*
X167926736Y-93758001D01*
X168023762Y-93701983D01*
X168102984Y-93622761D01*
X168159002Y-93525735D01*
X168187999Y-93417516D01*
X168187999Y-93305480D01*
X168159002Y-93197261D01*
X168102984Y-93100235D01*
X168023762Y-93021013D01*
X167926736Y-92964995D01*
X167818517Y-92935998D01*
X167706481Y-92935998D01*
X167598262Y-92964995D01*
X167598259Y-92964996D01*
X167501239Y-93021011D01*
X167501233Y-93021015D01*
X167422016Y-93100232D01*
X167422012Y-93100238D01*
X167365997Y-93197258D01*
X167365996Y-93197261D01*
X167336999Y-93305480D01*
X155650500Y-93305480D01*
X155650500Y-91838920D01*
X157799499Y-91838920D01*
X157828340Y-91983907D01*
X157828343Y-91983917D01*
X157884912Y-92120488D01*
X157884919Y-92120501D01*
X157967048Y-92243415D01*
X157967051Y-92243419D01*
X158071580Y-92347948D01*
X158071584Y-92347951D01*
X158194498Y-92430080D01*
X158194511Y-92430087D01*
X158331082Y-92486656D01*
X158331087Y-92486658D01*
X158331091Y-92486658D01*
X158331092Y-92486659D01*
X158476079Y-92515500D01*
X158476082Y-92515500D01*
X158623920Y-92515500D01*
X158721462Y-92496096D01*
X158768913Y-92486658D01*
X158905495Y-92430084D01*
X159028416Y-92347951D01*
X159132951Y-92243416D01*
X159215084Y-92120495D01*
X159271658Y-91983913D01*
X159300500Y-91838918D01*
X159300500Y-91691082D01*
X159300500Y-91691079D01*
X159271659Y-91546092D01*
X159271658Y-91546091D01*
X159271658Y-91546087D01*
X159271656Y-91546082D01*
X159215087Y-91409511D01*
X159215080Y-91409498D01*
X159132951Y-91286584D01*
X159132948Y-91286580D01*
X159028419Y-91182051D01*
X159028415Y-91182048D01*
X158905501Y-91099919D01*
X158905488Y-91099912D01*
X158768917Y-91043343D01*
X158768907Y-91043340D01*
X158623920Y-91014500D01*
X158623918Y-91014500D01*
X158476082Y-91014500D01*
X158476080Y-91014500D01*
X158331092Y-91043340D01*
X158331082Y-91043343D01*
X158194511Y-91099912D01*
X158194498Y-91099919D01*
X158071584Y-91182048D01*
X158071580Y-91182051D01*
X157967051Y-91286580D01*
X157967048Y-91286584D01*
X157884919Y-91409498D01*
X157884912Y-91409511D01*
X157828343Y-91546082D01*
X157828340Y-91546092D01*
X157799500Y-91691079D01*
X157799500Y-91691082D01*
X157799500Y-91838918D01*
X157799500Y-91838920D01*
X157799499Y-91838920D01*
X155650500Y-91838920D01*
X155650500Y-89298920D01*
X157799499Y-89298920D01*
X157828340Y-89443907D01*
X157828343Y-89443917D01*
X157884912Y-89580488D01*
X157884919Y-89580501D01*
X157967048Y-89703415D01*
X157967051Y-89703419D01*
X158071580Y-89807948D01*
X158071584Y-89807951D01*
X158194498Y-89890080D01*
X158194511Y-89890087D01*
X158331082Y-89946656D01*
X158331087Y-89946658D01*
X158331091Y-89946658D01*
X158331092Y-89946659D01*
X158476079Y-89975500D01*
X158476082Y-89975500D01*
X158623920Y-89975500D01*
X158721462Y-89956096D01*
X158768913Y-89946658D01*
X158905495Y-89890084D01*
X159028416Y-89807951D01*
X159132951Y-89703416D01*
X159215084Y-89580495D01*
X159271658Y-89443913D01*
X159289257Y-89355438D01*
X177019500Y-89355438D01*
X177019500Y-102774562D01*
X177033152Y-102825513D01*
X177039979Y-102850990D01*
X177039982Y-102850995D01*
X177079535Y-102919504D01*
X177079539Y-102919509D01*
X177079540Y-102919511D01*
X177135489Y-102975460D01*
X177135491Y-102975461D01*
X177135495Y-102975464D01*
X177203105Y-103014498D01*
X177204011Y-103015021D01*
X177280438Y-103035500D01*
X177280440Y-103035500D01*
X191759560Y-103035500D01*
X191759562Y-103035500D01*
X191835989Y-103015021D01*
X191904511Y-102975460D01*
X191929406Y-102950565D01*
X199449500Y-102950565D01*
X199449500Y-103049435D01*
X199475090Y-103144938D01*
X199524525Y-103230562D01*
X199594438Y-103300475D01*
X199680062Y-103349910D01*
X199775565Y-103375500D01*
X199775567Y-103375500D01*
X199874432Y-103375500D01*
X199874435Y-103375500D01*
X199969938Y-103349910D01*
X200055562Y-103300475D01*
X200125475Y-103230562D01*
X200174910Y-103144938D01*
X200200500Y-103049435D01*
X200200500Y-102950565D01*
X202649500Y-102950565D01*
X202649500Y-103049435D01*
X202675090Y-103144938D01*
X202724525Y-103230562D01*
X202794438Y-103300475D01*
X202880062Y-103349910D01*
X202975565Y-103375500D01*
X202975567Y-103375500D01*
X203074432Y-103375500D01*
X203074435Y-103375500D01*
X203169938Y-103349910D01*
X203255562Y-103300475D01*
X203325475Y-103230562D01*
X203374910Y-103144938D01*
X203400500Y-103049435D01*
X203400500Y-102950565D01*
X203374910Y-102855062D01*
X203325475Y-102769438D01*
X203255562Y-102699525D01*
X203169938Y-102650090D01*
X203074435Y-102624500D01*
X202975565Y-102624500D01*
X202880062Y-102650090D01*
X202880060Y-102650091D01*
X202880059Y-102650091D01*
X202794436Y-102699526D01*
X202724526Y-102769436D01*
X202675091Y-102855059D01*
X202675091Y-102855060D01*
X202675090Y-102855062D01*
X202649500Y-102950565D01*
X200200500Y-102950565D01*
X200174910Y-102855062D01*
X200125475Y-102769438D01*
X200055562Y-102699525D01*
X199969938Y-102650090D01*
X199874435Y-102624500D01*
X199775565Y-102624500D01*
X199680062Y-102650090D01*
X199680060Y-102650091D01*
X199680059Y-102650091D01*
X199594436Y-102699526D01*
X199524526Y-102769436D01*
X199475091Y-102855059D01*
X199475091Y-102855060D01*
X199475090Y-102855062D01*
X199449500Y-102950565D01*
X191929406Y-102950565D01*
X191960460Y-102919511D01*
X192000021Y-102850989D01*
X192020500Y-102774562D01*
X192020500Y-100650000D01*
X203447769Y-100650000D01*
X204341988Y-100650000D01*
X204309075Y-100707007D01*
X204275000Y-100834174D01*
X204275000Y-100965826D01*
X204309075Y-101092993D01*
X204341988Y-101150000D01*
X203447769Y-101150000D01*
X203458242Y-101216126D01*
X203458242Y-101216129D01*
X203523904Y-101418217D01*
X203620379Y-101607557D01*
X203745272Y-101779459D01*
X203745276Y-101779464D01*
X203895535Y-101929723D01*
X203895540Y-101929727D01*
X204067442Y-102054620D01*
X204256782Y-102151095D01*
X204458871Y-102216757D01*
X204525000Y-102227231D01*
X204525000Y-101333012D01*
X204582007Y-101365925D01*
X204709174Y-101400000D01*
X204840826Y-101400000D01*
X204967993Y-101365925D01*
X205025000Y-101333012D01*
X205025000Y-102227230D01*
X205091126Y-102216757D01*
X205091129Y-102216757D01*
X205293217Y-102151095D01*
X205482557Y-102054620D01*
X205654459Y-101929727D01*
X205654464Y-101929723D01*
X205804723Y-101779464D01*
X205804727Y-101779459D01*
X205929620Y-101607557D01*
X206026095Y-101418217D01*
X206091757Y-101216129D01*
X206091757Y-101216126D01*
X206102231Y-101150000D01*
X205208012Y-101150000D01*
X205240925Y-101092993D01*
X205275000Y-100965826D01*
X205275000Y-100834174D01*
X205240925Y-100707007D01*
X205208012Y-100650000D01*
X206102231Y-100650000D01*
X206100087Y-100636462D01*
X206091757Y-100583873D01*
X206091757Y-100583870D01*
X206090500Y-100580000D01*
X207447769Y-100580000D01*
X208341988Y-100580000D01*
X208309075Y-100637007D01*
X208275000Y-100764174D01*
X208275000Y-100895826D01*
X208309075Y-101022993D01*
X208341988Y-101080000D01*
X207447769Y-101080000D01*
X207458242Y-101146126D01*
X207458242Y-101146129D01*
X207523904Y-101348217D01*
X207620379Y-101537557D01*
X207745272Y-101709459D01*
X207745276Y-101709464D01*
X207895535Y-101859723D01*
X207895540Y-101859727D01*
X208067442Y-101984620D01*
X208256782Y-102081095D01*
X208458871Y-102146757D01*
X208525000Y-102157231D01*
X208525000Y-101263012D01*
X208582007Y-101295925D01*
X208709174Y-101330000D01*
X208840826Y-101330000D01*
X208967993Y-101295925D01*
X209025000Y-101263012D01*
X209025000Y-102157230D01*
X209091126Y-102146757D01*
X209091129Y-102146757D01*
X209293217Y-102081095D01*
X209482557Y-101984620D01*
X209654459Y-101859727D01*
X209654464Y-101859723D01*
X209804723Y-101709464D01*
X209804727Y-101709459D01*
X209929620Y-101537557D01*
X210026095Y-101348217D01*
X210091757Y-101146129D01*
X210091757Y-101146126D01*
X210102231Y-101080000D01*
X209208012Y-101080000D01*
X209240925Y-101022993D01*
X209275000Y-100895826D01*
X209275000Y-100764174D01*
X209240925Y-100637007D01*
X209208012Y-100580000D01*
X210102231Y-100580000D01*
X210091757Y-100513873D01*
X210091757Y-100513870D01*
X210026095Y-100311782D01*
X209929620Y-100122442D01*
X209804727Y-99950540D01*
X209804723Y-99950535D01*
X209654464Y-99800276D01*
X209654459Y-99800272D01*
X209482557Y-99675379D01*
X209293215Y-99578903D01*
X209091124Y-99513241D01*
X209025000Y-99502768D01*
X209025000Y-100396988D01*
X208967993Y-100364075D01*
X208840826Y-100330000D01*
X208709174Y-100330000D01*
X208582007Y-100364075D01*
X208525000Y-100396988D01*
X208525000Y-99502768D01*
X208524999Y-99502768D01*
X208458875Y-99513241D01*
X208256784Y-99578903D01*
X208067442Y-99675379D01*
X207895540Y-99800272D01*
X207895535Y-99800276D01*
X207745276Y-99950535D01*
X207745272Y-99950540D01*
X207620379Y-100122442D01*
X207523904Y-100311782D01*
X207458242Y-100513870D01*
X207458242Y-100513873D01*
X207447769Y-100580000D01*
X206090500Y-100580000D01*
X206026095Y-100381782D01*
X205929620Y-100192442D01*
X205804727Y-100020540D01*
X205804723Y-100020535D01*
X205654464Y-99870276D01*
X205654459Y-99870272D01*
X205482557Y-99745379D01*
X205293215Y-99648903D01*
X205091124Y-99583241D01*
X205025000Y-99572768D01*
X205025000Y-100466988D01*
X204967993Y-100434075D01*
X204840826Y-100400000D01*
X204709174Y-100400000D01*
X204582007Y-100434075D01*
X204525000Y-100466988D01*
X204525000Y-99572768D01*
X204524999Y-99572768D01*
X204458875Y-99583241D01*
X204256784Y-99648903D01*
X204067442Y-99745379D01*
X203895540Y-99870272D01*
X203895535Y-99870276D01*
X203745276Y-100020535D01*
X203745272Y-100020540D01*
X203620379Y-100192442D01*
X203523904Y-100381782D01*
X203458242Y-100583870D01*
X203458242Y-100583873D01*
X203447769Y-100650000D01*
X192020500Y-100650000D01*
X192020500Y-99875565D01*
X198774500Y-99875565D01*
X198774500Y-99974435D01*
X198800090Y-100069938D01*
X198849525Y-100155562D01*
X198919438Y-100225475D01*
X199005062Y-100274910D01*
X199100565Y-100300500D01*
X199100567Y-100300500D01*
X199199432Y-100300500D01*
X199199435Y-100300500D01*
X199294938Y-100274910D01*
X199380562Y-100225475D01*
X199450475Y-100155562D01*
X199499910Y-100069938D01*
X199525500Y-99974435D01*
X199525500Y-99875565D01*
X199499910Y-99780062D01*
X199450475Y-99694438D01*
X199380562Y-99624525D01*
X199294938Y-99575090D01*
X199199435Y-99549500D01*
X199100565Y-99549500D01*
X199005062Y-99575090D01*
X199005060Y-99575091D01*
X199005059Y-99575091D01*
X198919436Y-99624526D01*
X198849526Y-99694436D01*
X198800091Y-99780059D01*
X198800091Y-99780060D01*
X198800090Y-99780062D01*
X198774500Y-99875565D01*
X192020500Y-99875565D01*
X192020500Y-98450565D01*
X198174500Y-98450565D01*
X198174500Y-98549435D01*
X198200090Y-98644938D01*
X198249525Y-98730562D01*
X198319438Y-98800475D01*
X198405062Y-98849910D01*
X198500565Y-98875500D01*
X198500567Y-98875500D01*
X198599432Y-98875500D01*
X198599435Y-98875500D01*
X198694938Y-98849910D01*
X198780562Y-98800475D01*
X198850475Y-98730562D01*
X198899910Y-98644938D01*
X198925500Y-98549435D01*
X198925500Y-98450565D01*
X198899910Y-98355062D01*
X198850475Y-98269438D01*
X198780562Y-98199525D01*
X198694938Y-98150090D01*
X198599435Y-98124500D01*
X198500565Y-98124500D01*
X198405062Y-98150090D01*
X198405060Y-98150091D01*
X198405059Y-98150091D01*
X198319436Y-98199526D01*
X198249526Y-98269436D01*
X198200091Y-98355059D01*
X198200091Y-98355060D01*
X198200090Y-98355062D01*
X198174500Y-98450565D01*
X192020500Y-98450565D01*
X192020500Y-96800565D01*
X199449500Y-96800565D01*
X199449500Y-96899435D01*
X199475090Y-96994938D01*
X199524525Y-97080562D01*
X199594438Y-97150475D01*
X199680062Y-97199910D01*
X199775565Y-97225500D01*
X199775567Y-97225500D01*
X199874432Y-97225500D01*
X199874435Y-97225500D01*
X199969938Y-97199910D01*
X200055562Y-97150475D01*
X200125475Y-97080562D01*
X200174910Y-96994938D01*
X200200500Y-96899435D01*
X200200500Y-96800565D01*
X200174910Y-96705062D01*
X200125475Y-96619438D01*
X200055562Y-96549525D01*
X199969938Y-96500090D01*
X199874435Y-96474500D01*
X199775565Y-96474500D01*
X199680062Y-96500090D01*
X199680060Y-96500091D01*
X199680059Y-96500091D01*
X199594436Y-96549526D01*
X199524526Y-96619436D01*
X199475091Y-96705059D01*
X199475091Y-96705060D01*
X199475090Y-96705062D01*
X199449500Y-96800565D01*
X192020500Y-96800565D01*
X192020500Y-94073920D01*
X208249499Y-94073920D01*
X208278340Y-94218907D01*
X208278343Y-94218917D01*
X208334912Y-94355488D01*
X208334919Y-94355501D01*
X208417048Y-94478415D01*
X208417051Y-94478419D01*
X208521580Y-94582948D01*
X208521584Y-94582951D01*
X208644498Y-94665080D01*
X208644511Y-94665087D01*
X208781082Y-94721656D01*
X208781087Y-94721658D01*
X208781091Y-94721658D01*
X208781092Y-94721659D01*
X208926079Y-94750500D01*
X208926082Y-94750500D01*
X209073920Y-94750500D01*
X209171462Y-94731096D01*
X209218913Y-94721658D01*
X209355495Y-94665084D01*
X209478416Y-94582951D01*
X209582951Y-94478416D01*
X209665084Y-94355495D01*
X209721658Y-94218913D01*
X209731096Y-94171462D01*
X209750500Y-94073920D01*
X209750500Y-93926079D01*
X209721659Y-93781092D01*
X209721658Y-93781091D01*
X209721658Y-93781087D01*
X209721656Y-93781082D01*
X209665087Y-93644511D01*
X209665080Y-93644498D01*
X209582951Y-93521584D01*
X209582948Y-93521580D01*
X209478419Y-93417051D01*
X209478415Y-93417048D01*
X209355501Y-93334919D01*
X209355488Y-93334912D01*
X209218917Y-93278343D01*
X209218907Y-93278340D01*
X209073920Y-93249500D01*
X209073918Y-93249500D01*
X208926082Y-93249500D01*
X208926080Y-93249500D01*
X208781092Y-93278340D01*
X208781082Y-93278343D01*
X208644511Y-93334912D01*
X208644498Y-93334919D01*
X208521584Y-93417048D01*
X208521580Y-93417051D01*
X208417051Y-93521580D01*
X208417048Y-93521584D01*
X208334919Y-93644498D01*
X208334912Y-93644511D01*
X208278343Y-93781082D01*
X208278340Y-93781092D01*
X208249500Y-93926079D01*
X208249500Y-93926082D01*
X208249500Y-94073918D01*
X208249500Y-94073920D01*
X208249499Y-94073920D01*
X192020500Y-94073920D01*
X192020500Y-90073920D01*
X208249499Y-90073920D01*
X208278340Y-90218907D01*
X208278343Y-90218917D01*
X208334912Y-90355488D01*
X208334919Y-90355501D01*
X208417048Y-90478415D01*
X208417051Y-90478419D01*
X208521580Y-90582948D01*
X208521584Y-90582951D01*
X208644498Y-90665080D01*
X208644511Y-90665087D01*
X208781082Y-90721656D01*
X208781087Y-90721658D01*
X208781091Y-90721658D01*
X208781092Y-90721659D01*
X208926079Y-90750500D01*
X208926082Y-90750500D01*
X209073920Y-90750500D01*
X209171462Y-90731096D01*
X209218913Y-90721658D01*
X209355495Y-90665084D01*
X209478416Y-90582951D01*
X209582951Y-90478416D01*
X209665084Y-90355495D01*
X209721658Y-90218913D01*
X209750500Y-90073918D01*
X209750500Y-89926082D01*
X209750500Y-89926079D01*
X209721659Y-89781092D01*
X209721658Y-89781091D01*
X209721658Y-89781087D01*
X209689486Y-89703416D01*
X209665087Y-89644511D01*
X209665080Y-89644498D01*
X209582951Y-89521584D01*
X209582948Y-89521580D01*
X209478419Y-89417051D01*
X209478415Y-89417048D01*
X209355501Y-89334919D01*
X209355488Y-89334912D01*
X209218917Y-89278343D01*
X209218907Y-89278340D01*
X209073920Y-89249500D01*
X209073918Y-89249500D01*
X208926082Y-89249500D01*
X208926080Y-89249500D01*
X208781092Y-89278340D01*
X208781082Y-89278343D01*
X208644511Y-89334912D01*
X208644498Y-89334919D01*
X208521584Y-89417048D01*
X208521580Y-89417051D01*
X208417051Y-89521580D01*
X208417048Y-89521584D01*
X208334919Y-89644498D01*
X208334912Y-89644511D01*
X208278343Y-89781082D01*
X208278340Y-89781092D01*
X208249500Y-89926079D01*
X208249500Y-89926082D01*
X208249500Y-90073918D01*
X208249500Y-90073920D01*
X208249499Y-90073920D01*
X192020500Y-90073920D01*
X192020500Y-89355438D01*
X192000021Y-89279011D01*
X191982983Y-89249500D01*
X191960464Y-89210495D01*
X191960458Y-89210487D01*
X191904512Y-89154541D01*
X191904504Y-89154535D01*
X191835995Y-89114982D01*
X191835990Y-89114979D01*
X191810513Y-89108152D01*
X191759562Y-89094500D01*
X177359562Y-89094500D01*
X177280438Y-89094500D01*
X177242224Y-89104739D01*
X177204009Y-89114979D01*
X177204004Y-89114982D01*
X177135495Y-89154535D01*
X177135487Y-89154541D01*
X177079541Y-89210487D01*
X177079535Y-89210495D01*
X177039982Y-89279004D01*
X177039979Y-89279009D01*
X177034644Y-89298920D01*
X177019500Y-89355438D01*
X159289257Y-89355438D01*
X159293339Y-89334919D01*
X159295682Y-89323141D01*
X159295686Y-89323120D01*
X159298063Y-89311164D01*
X159300500Y-89298918D01*
X159300500Y-89151082D01*
X159300500Y-89151079D01*
X159271659Y-89006092D01*
X159271658Y-89006091D01*
X159271658Y-89006087D01*
X159271656Y-89006082D01*
X159215087Y-88869511D01*
X159215080Y-88869498D01*
X159132951Y-88746584D01*
X159132948Y-88746580D01*
X159028419Y-88642051D01*
X159028415Y-88642048D01*
X158905501Y-88559919D01*
X158905488Y-88559912D01*
X158768917Y-88503343D01*
X158768907Y-88503340D01*
X158623920Y-88474500D01*
X158623918Y-88474500D01*
X158476082Y-88474500D01*
X158476080Y-88474500D01*
X158331092Y-88503340D01*
X158331082Y-88503343D01*
X158194511Y-88559912D01*
X158194498Y-88559919D01*
X158071584Y-88642048D01*
X158071580Y-88642051D01*
X157967051Y-88746580D01*
X157967048Y-88746584D01*
X157884919Y-88869498D01*
X157884912Y-88869511D01*
X157828343Y-89006082D01*
X157828340Y-89006092D01*
X157799500Y-89151079D01*
X157799500Y-89151082D01*
X157799500Y-89298918D01*
X157799500Y-89298920D01*
X157799499Y-89298920D01*
X155650500Y-89298920D01*
X155650500Y-84131995D01*
X157199500Y-84131995D01*
X157199500Y-84368004D01*
X157199501Y-84368020D01*
X157230306Y-84602010D01*
X157291394Y-84829993D01*
X157381714Y-85048045D01*
X157381719Y-85048056D01*
X157440251Y-85149435D01*
X157499727Y-85252450D01*
X157499729Y-85252453D01*
X157499730Y-85252454D01*
X157643406Y-85439697D01*
X157643412Y-85439704D01*
X157810295Y-85606587D01*
X157810301Y-85606592D01*
X157997550Y-85750273D01*
X158128918Y-85826118D01*
X158201943Y-85868280D01*
X158201948Y-85868282D01*
X158201951Y-85868284D01*
X158420007Y-85958606D01*
X158647986Y-86019693D01*
X158881989Y-86050500D01*
X158881996Y-86050500D01*
X159118004Y-86050500D01*
X159118011Y-86050500D01*
X159352014Y-86019693D01*
X159579993Y-85958606D01*
X159798049Y-85868284D01*
X160002450Y-85750273D01*
X160189699Y-85606592D01*
X160356592Y-85439699D01*
X160500273Y-85252450D01*
X160616831Y-85050565D01*
X196999500Y-85050565D01*
X196999500Y-85149435D01*
X197025090Y-85244938D01*
X197074525Y-85330562D01*
X197144438Y-85400475D01*
X197230062Y-85449910D01*
X197325565Y-85475500D01*
X197325567Y-85475500D01*
X197424432Y-85475500D01*
X197424435Y-85475500D01*
X197519938Y-85449910D01*
X197605562Y-85400475D01*
X197675475Y-85330562D01*
X197724910Y-85244938D01*
X197750500Y-85149435D01*
X197750500Y-85050565D01*
X197724910Y-84955062D01*
X197675475Y-84869438D01*
X197605562Y-84799525D01*
X197519938Y-84750090D01*
X197424435Y-84724500D01*
X197325565Y-84724500D01*
X197230062Y-84750090D01*
X197230060Y-84750091D01*
X197230059Y-84750091D01*
X197144436Y-84799526D01*
X197074526Y-84869436D01*
X197025091Y-84955059D01*
X197025091Y-84955060D01*
X197025090Y-84955062D01*
X196999500Y-85050565D01*
X160616831Y-85050565D01*
X160618284Y-85048049D01*
X160708606Y-84829993D01*
X160769693Y-84602014D01*
X160800500Y-84368011D01*
X160800500Y-84131995D01*
X202199500Y-84131995D01*
X202199500Y-84368004D01*
X202199501Y-84368020D01*
X202230306Y-84602010D01*
X202291394Y-84829993D01*
X202381714Y-85048045D01*
X202381719Y-85048056D01*
X202440251Y-85149435D01*
X202499727Y-85252450D01*
X202499729Y-85252453D01*
X202499730Y-85252454D01*
X202643406Y-85439697D01*
X202643412Y-85439704D01*
X202810295Y-85606587D01*
X202810301Y-85606592D01*
X202997550Y-85750273D01*
X203128918Y-85826118D01*
X203201943Y-85868280D01*
X203201948Y-85868282D01*
X203201951Y-85868284D01*
X203420007Y-85958606D01*
X203647986Y-86019693D01*
X203881989Y-86050500D01*
X203881996Y-86050500D01*
X204118004Y-86050500D01*
X204118011Y-86050500D01*
X204352014Y-86019693D01*
X204579993Y-85958606D01*
X204798049Y-85868284D01*
X205002450Y-85750273D01*
X205189699Y-85606592D01*
X205356592Y-85439699D01*
X205500273Y-85252450D01*
X205618284Y-85048049D01*
X205708606Y-84829993D01*
X205769693Y-84602014D01*
X205800500Y-84368011D01*
X205800500Y-84131989D01*
X205769693Y-83897986D01*
X205708606Y-83670007D01*
X205618284Y-83451951D01*
X205618282Y-83451948D01*
X205618280Y-83451943D01*
X205576118Y-83378918D01*
X205500273Y-83247550D01*
X205356592Y-83060301D01*
X205356587Y-83060295D01*
X205189704Y-82893412D01*
X205189697Y-82893406D01*
X205002454Y-82749730D01*
X205002453Y-82749729D01*
X205002450Y-82749727D01*
X204883505Y-82681054D01*
X204798056Y-82631719D01*
X204798045Y-82631714D01*
X204579993Y-82541394D01*
X204352010Y-82480306D01*
X204118020Y-82449501D01*
X204118017Y-82449500D01*
X204118011Y-82449500D01*
X203881989Y-82449500D01*
X203881983Y-82449500D01*
X203881979Y-82449501D01*
X203647989Y-82480306D01*
X203420006Y-82541394D01*
X203201954Y-82631714D01*
X203201943Y-82631719D01*
X202997545Y-82749730D01*
X202810302Y-82893406D01*
X202810295Y-82893412D01*
X202643412Y-83060295D01*
X202643406Y-83060302D01*
X202499730Y-83247545D01*
X202381719Y-83451943D01*
X202381714Y-83451954D01*
X202291394Y-83670006D01*
X202230306Y-83897989D01*
X202199501Y-84131979D01*
X202199500Y-84131995D01*
X160800500Y-84131995D01*
X160800500Y-84131989D01*
X160769693Y-83897986D01*
X160708606Y-83670007D01*
X160618284Y-83451951D01*
X160618282Y-83451948D01*
X160618280Y-83451943D01*
X160576118Y-83378918D01*
X160500273Y-83247550D01*
X160356592Y-83060301D01*
X160356587Y-83060295D01*
X160189704Y-82893412D01*
X160189697Y-82893406D01*
X160002454Y-82749730D01*
X160002453Y-82749729D01*
X160002450Y-82749727D01*
X159883505Y-82681054D01*
X159798056Y-82631719D01*
X159798045Y-82631714D01*
X159579993Y-82541394D01*
X159352010Y-82480306D01*
X159118020Y-82449501D01*
X159118017Y-82449500D01*
X159118011Y-82449500D01*
X158881989Y-82449500D01*
X158881983Y-82449500D01*
X158881979Y-82449501D01*
X158647989Y-82480306D01*
X158420006Y-82541394D01*
X158201954Y-82631714D01*
X158201943Y-82631719D01*
X157997545Y-82749730D01*
X157810302Y-82893406D01*
X157810295Y-82893412D01*
X157643412Y-83060295D01*
X157643406Y-83060302D01*
X157499730Y-83247545D01*
X157381719Y-83451943D01*
X157381714Y-83451954D01*
X157291394Y-83670006D01*
X157230306Y-83897989D01*
X157199501Y-84131979D01*
X157199500Y-84131995D01*
X155650500Y-84131995D01*
X155650500Y-81775565D01*
X188399500Y-81775565D01*
X188399500Y-81874435D01*
X188425090Y-81969938D01*
X188474525Y-82055562D01*
X188544438Y-82125475D01*
X188630062Y-82174910D01*
X188725565Y-82200500D01*
X188725567Y-82200500D01*
X188824432Y-82200500D01*
X188824435Y-82200500D01*
X188919938Y-82174910D01*
X189005562Y-82125475D01*
X189075475Y-82055562D01*
X189124910Y-81969938D01*
X189150500Y-81874435D01*
X189150500Y-81775565D01*
X189124910Y-81680062D01*
X189075475Y-81594438D01*
X189005562Y-81524525D01*
X188919938Y-81475090D01*
X188824435Y-81449500D01*
X188725565Y-81449500D01*
X188630062Y-81475090D01*
X188630060Y-81475091D01*
X188630059Y-81475091D01*
X188544436Y-81524526D01*
X188474526Y-81594436D01*
X188425091Y-81680059D01*
X188425091Y-81680060D01*
X188425090Y-81680062D01*
X188399500Y-81775565D01*
X155650500Y-81775565D01*
X155650500Y-79952110D01*
X156295000Y-79952110D01*
X156295000Y-80207889D01*
X156335013Y-80460523D01*
X156414051Y-80703781D01*
X156414052Y-80703784D01*
X156530175Y-80931686D01*
X156607850Y-81038595D01*
X156607850Y-81038596D01*
X157242421Y-80404024D01*
X157255359Y-80435258D01*
X157337437Y-80558097D01*
X157441903Y-80662563D01*
X157564742Y-80744641D01*
X157595974Y-80757577D01*
X156961402Y-81392148D01*
X157068313Y-81469824D01*
X157296215Y-81585947D01*
X157296218Y-81585948D01*
X157539476Y-81664986D01*
X157792111Y-81705000D01*
X158047889Y-81705000D01*
X158300523Y-81664986D01*
X158543781Y-81585948D01*
X158543784Y-81585947D01*
X158771685Y-81469825D01*
X158878595Y-81392148D01*
X158878596Y-81392148D01*
X158244025Y-80757578D01*
X158275258Y-80744641D01*
X158398097Y-80662563D01*
X158502563Y-80558097D01*
X158584641Y-80435258D01*
X158597577Y-80404025D01*
X159232148Y-81038596D01*
X159232148Y-81038595D01*
X159309825Y-80931685D01*
X159425947Y-80703784D01*
X159425948Y-80703781D01*
X159504986Y-80460523D01*
X159545000Y-80207889D01*
X159545000Y-79952110D01*
X161375000Y-79952110D01*
X161375000Y-80207889D01*
X161415013Y-80460523D01*
X161494051Y-80703781D01*
X161494052Y-80703784D01*
X161610175Y-80931686D01*
X161687850Y-81038595D01*
X161687850Y-81038596D01*
X162322421Y-80404024D01*
X162335359Y-80435258D01*
X162417437Y-80558097D01*
X162521903Y-80662563D01*
X162644742Y-80744641D01*
X162675974Y-80757577D01*
X162041402Y-81392148D01*
X162148313Y-81469824D01*
X162376215Y-81585947D01*
X162376218Y-81585948D01*
X162619476Y-81664986D01*
X162872111Y-81705000D01*
X163127889Y-81705000D01*
X163380523Y-81664986D01*
X163428166Y-81649507D01*
X163623781Y-81585948D01*
X163623784Y-81585947D01*
X163851685Y-81469825D01*
X163958595Y-81392148D01*
X163958596Y-81392148D01*
X163324025Y-80757578D01*
X163355258Y-80744641D01*
X163478097Y-80662563D01*
X163582563Y-80558097D01*
X163664641Y-80435258D01*
X163677578Y-80404025D01*
X164312148Y-81038596D01*
X164312148Y-81038595D01*
X164389825Y-80931685D01*
X164455031Y-80803711D01*
X192899500Y-80803711D01*
X192899500Y-81046288D01*
X192931161Y-81286785D01*
X192993947Y-81521104D01*
X193086773Y-81745205D01*
X193086776Y-81745212D01*
X193208064Y-81955289D01*
X193208066Y-81955292D01*
X193208067Y-81955293D01*
X193355733Y-82147736D01*
X193355739Y-82147743D01*
X193527256Y-82319260D01*
X193527262Y-82319265D01*
X193719711Y-82466936D01*
X193929788Y-82588224D01*
X194153900Y-82681054D01*
X194388211Y-82743838D01*
X194568586Y-82767584D01*
X194628711Y-82775500D01*
X194628712Y-82775500D01*
X194871289Y-82775500D01*
X194919388Y-82769167D01*
X195111789Y-82743838D01*
X195346100Y-82681054D01*
X195570212Y-82588224D01*
X195780289Y-82466936D01*
X195972738Y-82319265D01*
X196144265Y-82147738D01*
X196291936Y-81955289D01*
X196413224Y-81745212D01*
X196506054Y-81521100D01*
X196568838Y-81286789D01*
X196600500Y-81046288D01*
X196600500Y-80803712D01*
X196600166Y-80801178D01*
X196588095Y-80709487D01*
X196568838Y-80563211D01*
X196506054Y-80328900D01*
X196413224Y-80104788D01*
X196291936Y-79894711D01*
X196276342Y-79874388D01*
X196240064Y-79827110D01*
X203120000Y-79827110D01*
X203120000Y-80082889D01*
X203160013Y-80335523D01*
X203239051Y-80578781D01*
X203239052Y-80578784D01*
X203355175Y-80806686D01*
X203432850Y-80913595D01*
X203432850Y-80913596D01*
X204067421Y-80279024D01*
X204080359Y-80310258D01*
X204162437Y-80433097D01*
X204266903Y-80537563D01*
X204389742Y-80619641D01*
X204420974Y-80632577D01*
X203786402Y-81267148D01*
X203893313Y-81344824D01*
X204121215Y-81460947D01*
X204121218Y-81460948D01*
X204364476Y-81539986D01*
X204617111Y-81580000D01*
X204872889Y-81580000D01*
X205125523Y-81539986D01*
X205368781Y-81460948D01*
X205368784Y-81460947D01*
X205596685Y-81344825D01*
X205703595Y-81267148D01*
X205703596Y-81267148D01*
X205069025Y-80632578D01*
X205100258Y-80619641D01*
X205223097Y-80537563D01*
X205327563Y-80433097D01*
X205409641Y-80310258D01*
X205422578Y-80279025D01*
X206057148Y-80913596D01*
X206057148Y-80913595D01*
X206134825Y-80806685D01*
X206250947Y-80578784D01*
X206250948Y-80578781D01*
X206329986Y-80335523D01*
X206370000Y-80082889D01*
X206370000Y-79827110D01*
X206329986Y-79574476D01*
X206250948Y-79331218D01*
X206250947Y-79331215D01*
X206134824Y-79103313D01*
X206057148Y-78996403D01*
X206057148Y-78996402D01*
X205422577Y-79630973D01*
X205409641Y-79599742D01*
X205327563Y-79476903D01*
X205223097Y-79372437D01*
X205100258Y-79290359D01*
X205069024Y-79277421D01*
X205703596Y-78642850D01*
X205596686Y-78565175D01*
X205368784Y-78449052D01*
X205368781Y-78449051D01*
X205125523Y-78370013D01*
X204872889Y-78330000D01*
X204617111Y-78330000D01*
X204364476Y-78370013D01*
X204121218Y-78449051D01*
X204121215Y-78449052D01*
X203893310Y-78565177D01*
X203786403Y-78642849D01*
X203786402Y-78642850D01*
X204420974Y-79277421D01*
X204389742Y-79290359D01*
X204266903Y-79372437D01*
X204162437Y-79476903D01*
X204080359Y-79599742D01*
X204067421Y-79630974D01*
X203432850Y-78996402D01*
X203432849Y-78996403D01*
X203355177Y-79103310D01*
X203239052Y-79331215D01*
X203239051Y-79331218D01*
X203160013Y-79574476D01*
X203120000Y-79827110D01*
X196240064Y-79827110D01*
X196144266Y-79702263D01*
X196144260Y-79702256D01*
X195972743Y-79530739D01*
X195972736Y-79530733D01*
X195780293Y-79383067D01*
X195780292Y-79383066D01*
X195780289Y-79383064D01*
X195570212Y-79261776D01*
X195521269Y-79241503D01*
X195346104Y-79168947D01*
X195111785Y-79106161D01*
X194871289Y-79074500D01*
X194871288Y-79074500D01*
X194628712Y-79074500D01*
X194628711Y-79074500D01*
X194388214Y-79106161D01*
X194153895Y-79168947D01*
X193929794Y-79261773D01*
X193929785Y-79261777D01*
X193719706Y-79383067D01*
X193527263Y-79530733D01*
X193527256Y-79530739D01*
X193355739Y-79702256D01*
X193355733Y-79702263D01*
X193208067Y-79894706D01*
X193086777Y-80104785D01*
X193086773Y-80104794D01*
X192993947Y-80328895D01*
X192931161Y-80563214D01*
X192899500Y-80803711D01*
X164455031Y-80803711D01*
X164505947Y-80703784D01*
X164505948Y-80703781D01*
X164584986Y-80460523D01*
X164625000Y-80207889D01*
X164625000Y-80008920D01*
X187999499Y-80008920D01*
X188028340Y-80153907D01*
X188028343Y-80153917D01*
X188084912Y-80290488D01*
X188084919Y-80290501D01*
X188167048Y-80413415D01*
X188167051Y-80413419D01*
X188271580Y-80517948D01*
X188271584Y-80517951D01*
X188394498Y-80600080D01*
X188394511Y-80600087D01*
X188531082Y-80656656D01*
X188531087Y-80656658D01*
X188531091Y-80656658D01*
X188531092Y-80656659D01*
X188676079Y-80685500D01*
X188676082Y-80685500D01*
X188823920Y-80685500D01*
X188861443Y-80678036D01*
X188939227Y-80662563D01*
X188968913Y-80656658D01*
X189105495Y-80600084D01*
X189228416Y-80517951D01*
X189332951Y-80413416D01*
X189415084Y-80290495D01*
X189471658Y-80153913D01*
X189486361Y-80079999D01*
X189500500Y-80008920D01*
X189500500Y-79861079D01*
X189471659Y-79716092D01*
X189471658Y-79716091D01*
X189471658Y-79716087D01*
X189424362Y-79601903D01*
X189415087Y-79579511D01*
X189415080Y-79579498D01*
X189332951Y-79456584D01*
X189332948Y-79456580D01*
X189228419Y-79352051D01*
X189228415Y-79352048D01*
X189105501Y-79269919D01*
X189105488Y-79269912D01*
X188968917Y-79213343D01*
X188968907Y-79213340D01*
X188823920Y-79184500D01*
X188823918Y-79184500D01*
X188676082Y-79184500D01*
X188676080Y-79184500D01*
X188531092Y-79213340D01*
X188531082Y-79213343D01*
X188394511Y-79269912D01*
X188394498Y-79269919D01*
X188271584Y-79352048D01*
X188271580Y-79352051D01*
X188167051Y-79456580D01*
X188167048Y-79456584D01*
X188084919Y-79579498D01*
X188084912Y-79579511D01*
X188028343Y-79716082D01*
X188028340Y-79716092D01*
X187999500Y-79861079D01*
X187999500Y-79861082D01*
X187999500Y-80008918D01*
X187999500Y-80008920D01*
X187999499Y-80008920D01*
X164625000Y-80008920D01*
X164625000Y-79952110D01*
X164612690Y-79874388D01*
X164584986Y-79699476D01*
X164505948Y-79456218D01*
X164505947Y-79456215D01*
X164389824Y-79228313D01*
X164374624Y-79207392D01*
X164327573Y-79142633D01*
X182767573Y-79142633D01*
X182767573Y-79241503D01*
X182793163Y-79337006D01*
X182842598Y-79422630D01*
X182912511Y-79492543D01*
X182998135Y-79541978D01*
X183093638Y-79567568D01*
X183093640Y-79567568D01*
X183192505Y-79567568D01*
X183192508Y-79567568D01*
X183288011Y-79541978D01*
X183373635Y-79492543D01*
X183443548Y-79422630D01*
X183492983Y-79337006D01*
X183518573Y-79241503D01*
X183518573Y-79142633D01*
X183492983Y-79047130D01*
X183443548Y-78961506D01*
X183373635Y-78891593D01*
X183288011Y-78842158D01*
X183192508Y-78816568D01*
X183093638Y-78816568D01*
X182998135Y-78842158D01*
X182998133Y-78842159D01*
X182998132Y-78842159D01*
X182912509Y-78891594D01*
X182842599Y-78961504D01*
X182793164Y-79047127D01*
X182793164Y-79047128D01*
X182793163Y-79047130D01*
X182767573Y-79142633D01*
X164327573Y-79142633D01*
X164312148Y-79121403D01*
X164312148Y-79121402D01*
X163677577Y-79755973D01*
X163664641Y-79724742D01*
X163582563Y-79601903D01*
X163478097Y-79497437D01*
X163355258Y-79415359D01*
X163324024Y-79402421D01*
X163958596Y-78767850D01*
X163851686Y-78690175D01*
X163623784Y-78574052D01*
X163623781Y-78574051D01*
X163380523Y-78495013D01*
X163127889Y-78455000D01*
X162872111Y-78455000D01*
X162619476Y-78495013D01*
X162376218Y-78574051D01*
X162376215Y-78574052D01*
X162148310Y-78690177D01*
X162041403Y-78767849D01*
X162041402Y-78767850D01*
X162675974Y-79402421D01*
X162644742Y-79415359D01*
X162521903Y-79497437D01*
X162417437Y-79601903D01*
X162335359Y-79724742D01*
X162322421Y-79755974D01*
X161687850Y-79121402D01*
X161687849Y-79121403D01*
X161610177Y-79228310D01*
X161494052Y-79456215D01*
X161494051Y-79456218D01*
X161415013Y-79699476D01*
X161375000Y-79952110D01*
X159545000Y-79952110D01*
X159504986Y-79699476D01*
X159425948Y-79456218D01*
X159425947Y-79456215D01*
X159309824Y-79228313D01*
X159232148Y-79121403D01*
X159232148Y-79121402D01*
X158597577Y-79755973D01*
X158584641Y-79724742D01*
X158502563Y-79601903D01*
X158398097Y-79497437D01*
X158275258Y-79415359D01*
X158244024Y-79402421D01*
X158878596Y-78767850D01*
X158771686Y-78690175D01*
X158543784Y-78574052D01*
X158543781Y-78574051D01*
X158300523Y-78495013D01*
X158047889Y-78455000D01*
X157792111Y-78455000D01*
X157539476Y-78495013D01*
X157296218Y-78574051D01*
X157296215Y-78574052D01*
X157068310Y-78690177D01*
X156961403Y-78767849D01*
X156961402Y-78767850D01*
X157595974Y-79402421D01*
X157564742Y-79415359D01*
X157441903Y-79497437D01*
X157337437Y-79601903D01*
X157255359Y-79724742D01*
X157242421Y-79755974D01*
X156607850Y-79121402D01*
X156607849Y-79121403D01*
X156530177Y-79228310D01*
X156414052Y-79456215D01*
X156414051Y-79456218D01*
X156335013Y-79699476D01*
X156295000Y-79952110D01*
X155650500Y-79952110D01*
X155650500Y-77436530D01*
X159409500Y-77436530D01*
X159409500Y-77643469D01*
X159449868Y-77846412D01*
X159449870Y-77846420D01*
X159529059Y-78037598D01*
X159586541Y-78123626D01*
X159644024Y-78209657D01*
X159790342Y-78355975D01*
X159790345Y-78355977D01*
X159962402Y-78470941D01*
X160153580Y-78550130D01*
X160356530Y-78590499D01*
X160356534Y-78590500D01*
X160356535Y-78590500D01*
X160563466Y-78590500D01*
X160563467Y-78590499D01*
X160766420Y-78550130D01*
X160957598Y-78470941D01*
X161129655Y-78355977D01*
X161275977Y-78209655D01*
X161390941Y-78037598D01*
X161470130Y-77846420D01*
X161510500Y-77643465D01*
X161510500Y-77468920D01*
X178229499Y-77468920D01*
X178258340Y-77613907D01*
X178258343Y-77613917D01*
X178314912Y-77750488D01*
X178314919Y-77750501D01*
X178397048Y-77873415D01*
X178397051Y-77873419D01*
X178501580Y-77977948D01*
X178501584Y-77977951D01*
X178624498Y-78060080D01*
X178624511Y-78060087D01*
X178761082Y-78116656D01*
X178761087Y-78116658D01*
X178761091Y-78116658D01*
X178761092Y-78116659D01*
X178906079Y-78145500D01*
X178906082Y-78145500D01*
X179053920Y-78145500D01*
X179151462Y-78126096D01*
X179198913Y-78116658D01*
X179335495Y-78060084D01*
X179458416Y-77977951D01*
X179562951Y-77873416D01*
X179645084Y-77750495D01*
X179701658Y-77613913D01*
X179711096Y-77566462D01*
X179730500Y-77468920D01*
X183229499Y-77468920D01*
X183258340Y-77613907D01*
X183258343Y-77613917D01*
X183314912Y-77750488D01*
X183314919Y-77750501D01*
X183397048Y-77873415D01*
X183397051Y-77873419D01*
X183501580Y-77977948D01*
X183501584Y-77977951D01*
X183624498Y-78060080D01*
X183624511Y-78060087D01*
X183761082Y-78116656D01*
X183761087Y-78116658D01*
X183761091Y-78116658D01*
X183761092Y-78116659D01*
X183906079Y-78145500D01*
X183906082Y-78145500D01*
X184053920Y-78145500D01*
X184151462Y-78126096D01*
X184198913Y-78116658D01*
X184335495Y-78060084D01*
X184458416Y-77977951D01*
X184562951Y-77873416D01*
X184645084Y-77750495D01*
X184701658Y-77613913D01*
X184711096Y-77566462D01*
X184730500Y-77468920D01*
X187999499Y-77468920D01*
X188028340Y-77613907D01*
X188028343Y-77613917D01*
X188084912Y-77750488D01*
X188084919Y-77750501D01*
X188167048Y-77873415D01*
X188167051Y-77873419D01*
X188271580Y-77977948D01*
X188271584Y-77977951D01*
X188394498Y-78060080D01*
X188394511Y-78060087D01*
X188531082Y-78116656D01*
X188531087Y-78116658D01*
X188531091Y-78116658D01*
X188531092Y-78116659D01*
X188676079Y-78145500D01*
X188676082Y-78145500D01*
X188823920Y-78145500D01*
X188921462Y-78126096D01*
X188968913Y-78116658D01*
X189105495Y-78060084D01*
X189228416Y-77977951D01*
X189332951Y-77873416D01*
X189415084Y-77750495D01*
X189471658Y-77613913D01*
X189481096Y-77566462D01*
X189491623Y-77513543D01*
X206284499Y-77513543D01*
X206322947Y-77706829D01*
X206322950Y-77706839D01*
X206398364Y-77888907D01*
X206398371Y-77888920D01*
X206507860Y-78052781D01*
X206507863Y-78052785D01*
X206647214Y-78192136D01*
X206647218Y-78192139D01*
X206811079Y-78301628D01*
X206811092Y-78301635D01*
X206993160Y-78377049D01*
X206993165Y-78377051D01*
X206993169Y-78377051D01*
X206993170Y-78377052D01*
X207186456Y-78415500D01*
X207186459Y-78415500D01*
X207383543Y-78415500D01*
X207513582Y-78389632D01*
X207576835Y-78377051D01*
X207758914Y-78301632D01*
X207922782Y-78192139D01*
X208062139Y-78052782D01*
X208171632Y-77888914D01*
X208247051Y-77706835D01*
X208285500Y-77513541D01*
X208285500Y-77316459D01*
X208285500Y-77316456D01*
X208247052Y-77123170D01*
X208247051Y-77123169D01*
X208247051Y-77123165D01*
X208212398Y-77039505D01*
X208171635Y-76941092D01*
X208171628Y-76941079D01*
X208062139Y-76777218D01*
X208062136Y-76777214D01*
X207922785Y-76637863D01*
X207922781Y-76637860D01*
X207758920Y-76528371D01*
X207758907Y-76528364D01*
X207576839Y-76452950D01*
X207576829Y-76452947D01*
X207383543Y-76414500D01*
X207383541Y-76414500D01*
X207186459Y-76414500D01*
X207186457Y-76414500D01*
X206993170Y-76452947D01*
X206993160Y-76452950D01*
X206811092Y-76528364D01*
X206811079Y-76528371D01*
X206647218Y-76637860D01*
X206647214Y-76637863D01*
X206507863Y-76777214D01*
X206507860Y-76777218D01*
X206398371Y-76941079D01*
X206398364Y-76941092D01*
X206322950Y-77123160D01*
X206322947Y-77123170D01*
X206284500Y-77316456D01*
X206284500Y-77316459D01*
X206284500Y-77513541D01*
X206284500Y-77513543D01*
X206284499Y-77513543D01*
X189491623Y-77513543D01*
X189500500Y-77468920D01*
X189500500Y-77321081D01*
X189500499Y-77321077D01*
X189471659Y-77176092D01*
X189471658Y-77176091D01*
X189471658Y-77176087D01*
X189449735Y-77123160D01*
X189415087Y-77039511D01*
X189415080Y-77039498D01*
X189332951Y-76916584D01*
X189332948Y-76916580D01*
X189228419Y-76812051D01*
X189228415Y-76812048D01*
X189105501Y-76729919D01*
X189105488Y-76729912D01*
X188968917Y-76673343D01*
X188968907Y-76673340D01*
X188823920Y-76644500D01*
X188823918Y-76644500D01*
X188676082Y-76644500D01*
X188676080Y-76644500D01*
X188531092Y-76673340D01*
X188531082Y-76673343D01*
X188394511Y-76729912D01*
X188394498Y-76729919D01*
X188271584Y-76812048D01*
X188271580Y-76812051D01*
X188167051Y-76916580D01*
X188167048Y-76916584D01*
X188084919Y-77039498D01*
X188084912Y-77039511D01*
X188028343Y-77176082D01*
X188028340Y-77176092D01*
X187999500Y-77321079D01*
X187999500Y-77321081D01*
X187999500Y-77321082D01*
X187999500Y-77468918D01*
X187999500Y-77468920D01*
X187999499Y-77468920D01*
X184730500Y-77468920D01*
X184730500Y-77321079D01*
X184701659Y-77176092D01*
X184701658Y-77176091D01*
X184701658Y-77176087D01*
X184679735Y-77123160D01*
X184645087Y-77039511D01*
X184645080Y-77039498D01*
X184562951Y-76916584D01*
X184562948Y-76916580D01*
X184458419Y-76812051D01*
X184458415Y-76812048D01*
X184335501Y-76729919D01*
X184335488Y-76729912D01*
X184198917Y-76673343D01*
X184198907Y-76673340D01*
X184053920Y-76644500D01*
X184053918Y-76644500D01*
X183906082Y-76644500D01*
X183906080Y-76644500D01*
X183761092Y-76673340D01*
X183761082Y-76673343D01*
X183624511Y-76729912D01*
X183624498Y-76729919D01*
X183501584Y-76812048D01*
X183501580Y-76812051D01*
X183397051Y-76916580D01*
X183397048Y-76916584D01*
X183314919Y-77039498D01*
X183314912Y-77039511D01*
X183258343Y-77176082D01*
X183258340Y-77176092D01*
X183229500Y-77321079D01*
X183229500Y-77321081D01*
X183229500Y-77321082D01*
X183229500Y-77468918D01*
X183229500Y-77468920D01*
X183229499Y-77468920D01*
X179730500Y-77468920D01*
X179730500Y-77321079D01*
X179701659Y-77176092D01*
X179701658Y-77176091D01*
X179701658Y-77176087D01*
X179679735Y-77123160D01*
X179645087Y-77039511D01*
X179645080Y-77039498D01*
X179562951Y-76916584D01*
X179562948Y-76916580D01*
X179458419Y-76812051D01*
X179458415Y-76812048D01*
X179335501Y-76729919D01*
X179335488Y-76729912D01*
X179198917Y-76673343D01*
X179198907Y-76673340D01*
X179053920Y-76644500D01*
X179053918Y-76644500D01*
X178906082Y-76644500D01*
X178906080Y-76644500D01*
X178761092Y-76673340D01*
X178761082Y-76673343D01*
X178624511Y-76729912D01*
X178624498Y-76729919D01*
X178501584Y-76812048D01*
X178501580Y-76812051D01*
X178397051Y-76916580D01*
X178397048Y-76916584D01*
X178314919Y-77039498D01*
X178314912Y-77039511D01*
X178258343Y-77176082D01*
X178258340Y-77176092D01*
X178229500Y-77321079D01*
X178229500Y-77321081D01*
X178229500Y-77321082D01*
X178229500Y-77468918D01*
X178229500Y-77468920D01*
X178229499Y-77468920D01*
X161510500Y-77468920D01*
X161510500Y-77436535D01*
X161510366Y-77435863D01*
X161491136Y-77339181D01*
X161470131Y-77233587D01*
X161470130Y-77233580D01*
X161390941Y-77042402D01*
X161275977Y-76870345D01*
X161275975Y-76870342D01*
X161129657Y-76724024D01*
X161043626Y-76666541D01*
X160957598Y-76609059D01*
X160766420Y-76529870D01*
X160766412Y-76529868D01*
X160563469Y-76489500D01*
X160563465Y-76489500D01*
X160356535Y-76489500D01*
X160356530Y-76489500D01*
X160153587Y-76529868D01*
X160153579Y-76529870D01*
X159962403Y-76609058D01*
X159790342Y-76724024D01*
X159644024Y-76870342D01*
X159529058Y-77042403D01*
X159449870Y-77233579D01*
X159449868Y-77233587D01*
X159409500Y-77436530D01*
X155650500Y-77436530D01*
X155650500Y-74872110D01*
X156295000Y-74872110D01*
X156295000Y-75127889D01*
X156335013Y-75380523D01*
X156414051Y-75623781D01*
X156414052Y-75623784D01*
X156530175Y-75851686D01*
X156607850Y-75958595D01*
X156607850Y-75958596D01*
X157242421Y-75324024D01*
X157255359Y-75355258D01*
X157337437Y-75478097D01*
X157441903Y-75582563D01*
X157564742Y-75664641D01*
X157595974Y-75677577D01*
X156961402Y-76312148D01*
X157068313Y-76389824D01*
X157296215Y-76505947D01*
X157296218Y-76505948D01*
X157539476Y-76584986D01*
X157792111Y-76625000D01*
X158047889Y-76625000D01*
X158300523Y-76584986D01*
X158543781Y-76505948D01*
X158543784Y-76505947D01*
X158771685Y-76389825D01*
X158878595Y-76312148D01*
X158878596Y-76312148D01*
X158244025Y-75677578D01*
X158275258Y-75664641D01*
X158398097Y-75582563D01*
X158502563Y-75478097D01*
X158584641Y-75355258D01*
X158597577Y-75324025D01*
X159232148Y-75958596D01*
X159232148Y-75958595D01*
X159309825Y-75851685D01*
X159425947Y-75623784D01*
X159425948Y-75623781D01*
X159504986Y-75380523D01*
X159545000Y-75127889D01*
X159545000Y-74872110D01*
X161375000Y-74872110D01*
X161375000Y-75127889D01*
X161415013Y-75380523D01*
X161494051Y-75623781D01*
X161494052Y-75623784D01*
X161610175Y-75851686D01*
X161687850Y-75958595D01*
X161687850Y-75958596D01*
X162322421Y-75324024D01*
X162335359Y-75355258D01*
X162417437Y-75478097D01*
X162521903Y-75582563D01*
X162644742Y-75664641D01*
X162675974Y-75677577D01*
X162041402Y-76312148D01*
X162148313Y-76389824D01*
X162376215Y-76505947D01*
X162376218Y-76505948D01*
X162619476Y-76584986D01*
X162872111Y-76625000D01*
X163127889Y-76625000D01*
X163380523Y-76584986D01*
X163623781Y-76505948D01*
X163623784Y-76505947D01*
X163851685Y-76389825D01*
X163958595Y-76312148D01*
X163958596Y-76312148D01*
X163324025Y-75677578D01*
X163355258Y-75664641D01*
X163478097Y-75582563D01*
X163582563Y-75478097D01*
X163664641Y-75355258D01*
X163677578Y-75324025D01*
X164312148Y-75958596D01*
X164312148Y-75958595D01*
X164389825Y-75851685D01*
X164505947Y-75623784D01*
X164505948Y-75623781D01*
X164584986Y-75380523D01*
X164625000Y-75127889D01*
X164625000Y-74872109D01*
X164607503Y-74761635D01*
X164584986Y-74619476D01*
X164505948Y-74376218D01*
X164505947Y-74376215D01*
X164389824Y-74148313D01*
X164312148Y-74041403D01*
X164312148Y-74041402D01*
X163677577Y-74675973D01*
X163664641Y-74644742D01*
X163582563Y-74521903D01*
X163478097Y-74417437D01*
X163355258Y-74335359D01*
X163324024Y-74322421D01*
X163689291Y-73957155D01*
X177630000Y-73957155D01*
X177630000Y-74605000D01*
X178546988Y-74605000D01*
X178514075Y-74662007D01*
X178480000Y-74789174D01*
X178480000Y-74920826D01*
X178514075Y-75047993D01*
X178546988Y-75105000D01*
X177630000Y-75105000D01*
X177630000Y-75752844D01*
X177636401Y-75812372D01*
X177636403Y-75812379D01*
X177686645Y-75947086D01*
X177686649Y-75947093D01*
X177772809Y-76062187D01*
X177772812Y-76062190D01*
X177887906Y-76148350D01*
X177887913Y-76148354D01*
X178022620Y-76198596D01*
X178022627Y-76198598D01*
X178082155Y-76204999D01*
X178082172Y-76205000D01*
X178730000Y-76205000D01*
X178730000Y-75288012D01*
X178787007Y-75320925D01*
X178914174Y-75355000D01*
X179045826Y-75355000D01*
X179172993Y-75320925D01*
X179230000Y-75288012D01*
X179230000Y-76205000D01*
X179877828Y-76205000D01*
X179877844Y-76204999D01*
X179937372Y-76198598D01*
X179937379Y-76198596D01*
X180072086Y-76148354D01*
X180072093Y-76148350D01*
X180187187Y-76062190D01*
X180187190Y-76062187D01*
X180273350Y-75947093D01*
X180273354Y-75947086D01*
X180323596Y-75812379D01*
X180323598Y-75812372D01*
X180329999Y-75752844D01*
X180330000Y-75752827D01*
X180330000Y-75105000D01*
X179413012Y-75105000D01*
X179445925Y-75047993D01*
X179480000Y-74920826D01*
X179480000Y-74789174D01*
X179445925Y-74662007D01*
X179413012Y-74605000D01*
X180330000Y-74605000D01*
X180330000Y-73957172D01*
X180329999Y-73957155D01*
X182630000Y-73957155D01*
X182630000Y-74605000D01*
X183546988Y-74605000D01*
X183514075Y-74662007D01*
X183480000Y-74789174D01*
X183480000Y-74920826D01*
X183514075Y-75047993D01*
X183546988Y-75105000D01*
X182630000Y-75105000D01*
X182630000Y-75752844D01*
X182636401Y-75812372D01*
X182636403Y-75812379D01*
X182686645Y-75947086D01*
X182686649Y-75947093D01*
X182772809Y-76062187D01*
X182772812Y-76062190D01*
X182887906Y-76148350D01*
X182887913Y-76148354D01*
X183022620Y-76198596D01*
X183022627Y-76198598D01*
X183082155Y-76204999D01*
X183082172Y-76205000D01*
X183730000Y-76205000D01*
X183730000Y-75288012D01*
X183787007Y-75320925D01*
X183914174Y-75355000D01*
X184045826Y-75355000D01*
X184172993Y-75320925D01*
X184230000Y-75288012D01*
X184230000Y-76205000D01*
X184877828Y-76205000D01*
X184877844Y-76204999D01*
X184937372Y-76198598D01*
X184937379Y-76198596D01*
X185072086Y-76148354D01*
X185072093Y-76148350D01*
X185187187Y-76062190D01*
X185187190Y-76062187D01*
X185273350Y-75947093D01*
X185273354Y-75947086D01*
X185323596Y-75812379D01*
X185323598Y-75812372D01*
X185329999Y-75752844D01*
X185330000Y-75752827D01*
X185330000Y-75105000D01*
X184413012Y-75105000D01*
X184445925Y-75047993D01*
X184480000Y-74920826D01*
X184480000Y-74789174D01*
X184445925Y-74662007D01*
X184413012Y-74605000D01*
X185330000Y-74605000D01*
X185330000Y-73957172D01*
X185329999Y-73957155D01*
X187400000Y-73957155D01*
X187400000Y-74605000D01*
X188316988Y-74605000D01*
X188284075Y-74662007D01*
X188250000Y-74789174D01*
X188250000Y-74920826D01*
X188284075Y-75047993D01*
X188316988Y-75105000D01*
X187400000Y-75105000D01*
X187400000Y-75752844D01*
X187406401Y-75812372D01*
X187406403Y-75812379D01*
X187456645Y-75947086D01*
X187456649Y-75947093D01*
X187542809Y-76062187D01*
X187542812Y-76062190D01*
X187657906Y-76148350D01*
X187657913Y-76148354D01*
X187792620Y-76198596D01*
X187792627Y-76198598D01*
X187852155Y-76204999D01*
X187852172Y-76205000D01*
X188500000Y-76205000D01*
X188500000Y-75288012D01*
X188557007Y-75320925D01*
X188684174Y-75355000D01*
X188815826Y-75355000D01*
X188942993Y-75320925D01*
X189000000Y-75288012D01*
X189000000Y-76205000D01*
X189647828Y-76205000D01*
X189647844Y-76204999D01*
X189707372Y-76198598D01*
X189707379Y-76198596D01*
X189842086Y-76148354D01*
X189842093Y-76148350D01*
X189957186Y-76062191D01*
X190043352Y-75947089D01*
X190043354Y-75947086D01*
X190093596Y-75812379D01*
X190093598Y-75812372D01*
X190099999Y-75752844D01*
X190100000Y-75752827D01*
X190100000Y-75105000D01*
X189183012Y-75105000D01*
X189215925Y-75047993D01*
X189250000Y-74920826D01*
X189250000Y-74789174D01*
X189238729Y-74747110D01*
X203120000Y-74747110D01*
X203120000Y-75002889D01*
X203160013Y-75255523D01*
X203239051Y-75498781D01*
X203239052Y-75498784D01*
X203355175Y-75726686D01*
X203432850Y-75833595D01*
X203432850Y-75833596D01*
X204067421Y-75199024D01*
X204080359Y-75230258D01*
X204162437Y-75353097D01*
X204266903Y-75457563D01*
X204389742Y-75539641D01*
X204420974Y-75552577D01*
X203786402Y-76187148D01*
X203893313Y-76264824D01*
X204121215Y-76380947D01*
X204121218Y-76380948D01*
X204364476Y-76459986D01*
X204617111Y-76500000D01*
X204872889Y-76500000D01*
X205125523Y-76459986D01*
X205368781Y-76380948D01*
X205368784Y-76380947D01*
X205596685Y-76264825D01*
X205703595Y-76187148D01*
X205703596Y-76187148D01*
X205069025Y-75552578D01*
X205100258Y-75539641D01*
X205223097Y-75457563D01*
X205327563Y-75353097D01*
X205409641Y-75230258D01*
X205422578Y-75199025D01*
X206057148Y-75833596D01*
X206057148Y-75833595D01*
X206134825Y-75726685D01*
X206250947Y-75498784D01*
X206250948Y-75498781D01*
X206329986Y-75255523D01*
X206370000Y-75002889D01*
X206370000Y-74747110D01*
X206329986Y-74494476D01*
X206250948Y-74251218D01*
X206250947Y-74251215D01*
X206134824Y-74023313D01*
X206057148Y-73916403D01*
X206057148Y-73916402D01*
X205422577Y-74550973D01*
X205409641Y-74519742D01*
X205327563Y-74396903D01*
X205223097Y-74292437D01*
X205100258Y-74210359D01*
X205069024Y-74197421D01*
X205703596Y-73562850D01*
X205596686Y-73485175D01*
X205368784Y-73369052D01*
X205368781Y-73369051D01*
X205125523Y-73290013D01*
X204872889Y-73250000D01*
X204617111Y-73250000D01*
X204364476Y-73290013D01*
X204121218Y-73369051D01*
X204121215Y-73369052D01*
X203893310Y-73485177D01*
X203786403Y-73562849D01*
X203786402Y-73562850D01*
X204420974Y-74197421D01*
X204389742Y-74210359D01*
X204266903Y-74292437D01*
X204162437Y-74396903D01*
X204080359Y-74519742D01*
X204067421Y-74550974D01*
X203432850Y-73916402D01*
X203432849Y-73916403D01*
X203355177Y-74023310D01*
X203239052Y-74251215D01*
X203239051Y-74251218D01*
X203160013Y-74494476D01*
X203120000Y-74747110D01*
X189238729Y-74747110D01*
X189215925Y-74662007D01*
X189183012Y-74605000D01*
X190100000Y-74605000D01*
X190100000Y-73957172D01*
X190099999Y-73957155D01*
X190093598Y-73897627D01*
X190093596Y-73897620D01*
X190043354Y-73762913D01*
X190043350Y-73762906D01*
X189984598Y-73684424D01*
X189984596Y-73684422D01*
X189957187Y-73647809D01*
X189842093Y-73561649D01*
X189842086Y-73561645D01*
X189707379Y-73511403D01*
X189707372Y-73511401D01*
X189647844Y-73505000D01*
X189000000Y-73505000D01*
X189000000Y-74421988D01*
X188942993Y-74389075D01*
X188815826Y-74355000D01*
X188684174Y-74355000D01*
X188557007Y-74389075D01*
X188500000Y-74421988D01*
X188500000Y-73505000D01*
X187852155Y-73505000D01*
X187792627Y-73511401D01*
X187792620Y-73511403D01*
X187657913Y-73561645D01*
X187657906Y-73561649D01*
X187542812Y-73647809D01*
X187542809Y-73647812D01*
X187456649Y-73762906D01*
X187456645Y-73762913D01*
X187406403Y-73897620D01*
X187406401Y-73897627D01*
X187400000Y-73957155D01*
X185329999Y-73957155D01*
X185323598Y-73897627D01*
X185323596Y-73897620D01*
X185273354Y-73762913D01*
X185273350Y-73762906D01*
X185187190Y-73647812D01*
X185187187Y-73647809D01*
X185072093Y-73561649D01*
X185072086Y-73561645D01*
X184937379Y-73511403D01*
X184937372Y-73511401D01*
X184877844Y-73505000D01*
X184230000Y-73505000D01*
X184230000Y-74421988D01*
X184172993Y-74389075D01*
X184045826Y-74355000D01*
X183914174Y-74355000D01*
X183787007Y-74389075D01*
X183730000Y-74421988D01*
X183730000Y-73505000D01*
X183082155Y-73505000D01*
X183022627Y-73511401D01*
X183022620Y-73511403D01*
X182887913Y-73561645D01*
X182887906Y-73561649D01*
X182772812Y-73647809D01*
X182772809Y-73647812D01*
X182686649Y-73762906D01*
X182686645Y-73762913D01*
X182636403Y-73897620D01*
X182636401Y-73897627D01*
X182630000Y-73957155D01*
X180329999Y-73957155D01*
X180323598Y-73897627D01*
X180323596Y-73897620D01*
X180273354Y-73762913D01*
X180273350Y-73762906D01*
X180187190Y-73647812D01*
X180187187Y-73647809D01*
X180072093Y-73561649D01*
X180072086Y-73561645D01*
X179937379Y-73511403D01*
X179937372Y-73511401D01*
X179877844Y-73505000D01*
X179230000Y-73505000D01*
X179230000Y-74421988D01*
X179172993Y-74389075D01*
X179045826Y-74355000D01*
X178914174Y-74355000D01*
X178787007Y-74389075D01*
X178730000Y-74421988D01*
X178730000Y-73505000D01*
X178082155Y-73505000D01*
X178022627Y-73511401D01*
X178022620Y-73511403D01*
X177887913Y-73561645D01*
X177887906Y-73561649D01*
X177772812Y-73647809D01*
X177772809Y-73647812D01*
X177686649Y-73762906D01*
X177686645Y-73762913D01*
X177636403Y-73897620D01*
X177636401Y-73897627D01*
X177630000Y-73957155D01*
X163689291Y-73957155D01*
X163958596Y-73687850D01*
X163851686Y-73610175D01*
X163623784Y-73494052D01*
X163623781Y-73494051D01*
X163380523Y-73415013D01*
X163127889Y-73375000D01*
X162872111Y-73375000D01*
X162619476Y-73415013D01*
X162376218Y-73494051D01*
X162376215Y-73494052D01*
X162148310Y-73610177D01*
X162041403Y-73687849D01*
X162041402Y-73687850D01*
X162675974Y-74322421D01*
X162644742Y-74335359D01*
X162521903Y-74417437D01*
X162417437Y-74521903D01*
X162335359Y-74644742D01*
X162322421Y-74675974D01*
X161687850Y-74041402D01*
X161687849Y-74041403D01*
X161610177Y-74148310D01*
X161494052Y-74376215D01*
X161494051Y-74376218D01*
X161415013Y-74619476D01*
X161375000Y-74872110D01*
X159545000Y-74872110D01*
X159504986Y-74619476D01*
X159425948Y-74376218D01*
X159425947Y-74376215D01*
X159309824Y-74148313D01*
X159232148Y-74041403D01*
X159232148Y-74041402D01*
X158597577Y-74675973D01*
X158584641Y-74644742D01*
X158502563Y-74521903D01*
X158398097Y-74417437D01*
X158275258Y-74335359D01*
X158244024Y-74322421D01*
X158878596Y-73687850D01*
X158771686Y-73610175D01*
X158543784Y-73494052D01*
X158543781Y-73494051D01*
X158300523Y-73415013D01*
X158047889Y-73375000D01*
X157792111Y-73375000D01*
X157539476Y-73415013D01*
X157296218Y-73494051D01*
X157296215Y-73494052D01*
X157068310Y-73610177D01*
X156961403Y-73687849D01*
X156961402Y-73687850D01*
X157595974Y-74322421D01*
X157564742Y-74335359D01*
X157441903Y-74417437D01*
X157337437Y-74521903D01*
X157255359Y-74644742D01*
X157242421Y-74675974D01*
X156607850Y-74041402D01*
X156607849Y-74041403D01*
X156530177Y-74148310D01*
X156414052Y-74376215D01*
X156414051Y-74376218D01*
X156335013Y-74619476D01*
X156295000Y-74872110D01*
X155650500Y-74872110D01*
X155650500Y-61523920D01*
X170099499Y-61523920D01*
X170128340Y-61668907D01*
X170128343Y-61668917D01*
X170184912Y-61805488D01*
X170184919Y-61805501D01*
X170267048Y-61928415D01*
X170267051Y-61928419D01*
X170371580Y-62032948D01*
X170371584Y-62032951D01*
X170494498Y-62115080D01*
X170494511Y-62115087D01*
X170597044Y-62157557D01*
X170631087Y-62171658D01*
X170631091Y-62171658D01*
X170631092Y-62171659D01*
X170776079Y-62200500D01*
X170776082Y-62200500D01*
X170923920Y-62200500D01*
X171021462Y-62181096D01*
X171068913Y-62171658D01*
X171205495Y-62115084D01*
X171328416Y-62032951D01*
X171432951Y-61928416D01*
X171515084Y-61805495D01*
X171571658Y-61668913D01*
X171600500Y-61523920D01*
X172639499Y-61523920D01*
X172668340Y-61668907D01*
X172668343Y-61668917D01*
X172724912Y-61805488D01*
X172724919Y-61805501D01*
X172807048Y-61928415D01*
X172807051Y-61928419D01*
X172911580Y-62032948D01*
X172911584Y-62032951D01*
X173034498Y-62115080D01*
X173034511Y-62115087D01*
X173137044Y-62157557D01*
X173171087Y-62171658D01*
X173171091Y-62171658D01*
X173171092Y-62171659D01*
X173316079Y-62200500D01*
X173316082Y-62200500D01*
X173463920Y-62200500D01*
X173561462Y-62181096D01*
X173608913Y-62171658D01*
X173745495Y-62115084D01*
X173868416Y-62032951D01*
X173972951Y-61928416D01*
X174055084Y-61805495D01*
X174111658Y-61668913D01*
X174140500Y-61523920D01*
X175179499Y-61523920D01*
X175208340Y-61668907D01*
X175208343Y-61668917D01*
X175264912Y-61805488D01*
X175264919Y-61805501D01*
X175347048Y-61928415D01*
X175347051Y-61928419D01*
X175451580Y-62032948D01*
X175451584Y-62032951D01*
X175574498Y-62115080D01*
X175574511Y-62115087D01*
X175677044Y-62157557D01*
X175711087Y-62171658D01*
X175711091Y-62171658D01*
X175711092Y-62171659D01*
X175856079Y-62200500D01*
X175856082Y-62200500D01*
X176003920Y-62200500D01*
X176101462Y-62181096D01*
X176148913Y-62171658D01*
X176285495Y-62115084D01*
X176408416Y-62032951D01*
X176512951Y-61928416D01*
X176595084Y-61805495D01*
X176651658Y-61668913D01*
X176680500Y-61523920D01*
X177719499Y-61523920D01*
X177748340Y-61668907D01*
X177748343Y-61668917D01*
X177804912Y-61805488D01*
X177804919Y-61805501D01*
X177887048Y-61928415D01*
X177887051Y-61928419D01*
X177991580Y-62032948D01*
X177991584Y-62032951D01*
X178114498Y-62115080D01*
X178114511Y-62115087D01*
X178217044Y-62157557D01*
X178251087Y-62171658D01*
X178251091Y-62171658D01*
X178251092Y-62171659D01*
X178396079Y-62200500D01*
X178396082Y-62200500D01*
X178543920Y-62200500D01*
X178641462Y-62181096D01*
X178688913Y-62171658D01*
X178825495Y-62115084D01*
X178948416Y-62032951D01*
X179052951Y-61928416D01*
X179135084Y-61805495D01*
X179191658Y-61668913D01*
X179220500Y-61523920D01*
X180259499Y-61523920D01*
X180288340Y-61668907D01*
X180288343Y-61668917D01*
X180344912Y-61805488D01*
X180344919Y-61805501D01*
X180427048Y-61928415D01*
X180427051Y-61928419D01*
X180531580Y-62032948D01*
X180531584Y-62032951D01*
X180654498Y-62115080D01*
X180654511Y-62115087D01*
X180757044Y-62157557D01*
X180791087Y-62171658D01*
X180791091Y-62171658D01*
X180791092Y-62171659D01*
X180936079Y-62200500D01*
X180936082Y-62200500D01*
X181083920Y-62200500D01*
X181181462Y-62181096D01*
X181228913Y-62171658D01*
X181365495Y-62115084D01*
X181488416Y-62032951D01*
X181592951Y-61928416D01*
X181675084Y-61805495D01*
X181731658Y-61668913D01*
X181760500Y-61523920D01*
X182799499Y-61523920D01*
X182828340Y-61668907D01*
X182828343Y-61668917D01*
X182884912Y-61805488D01*
X182884919Y-61805501D01*
X182967048Y-61928415D01*
X182967051Y-61928419D01*
X183071580Y-62032948D01*
X183071584Y-62032951D01*
X183194498Y-62115080D01*
X183194511Y-62115087D01*
X183297044Y-62157557D01*
X183331087Y-62171658D01*
X183331091Y-62171658D01*
X183331092Y-62171659D01*
X183476079Y-62200500D01*
X183476082Y-62200500D01*
X183623920Y-62200500D01*
X183721462Y-62181096D01*
X183768913Y-62171658D01*
X183905495Y-62115084D01*
X184028416Y-62032951D01*
X184132951Y-61928416D01*
X184215084Y-61805495D01*
X184271658Y-61668913D01*
X184300500Y-61523920D01*
X185339499Y-61523920D01*
X185368340Y-61668907D01*
X185368343Y-61668917D01*
X185424912Y-61805488D01*
X185424919Y-61805501D01*
X185507048Y-61928415D01*
X185507051Y-61928419D01*
X185611580Y-62032948D01*
X185611584Y-62032951D01*
X185734498Y-62115080D01*
X185734511Y-62115087D01*
X185837044Y-62157557D01*
X185871087Y-62171658D01*
X185871091Y-62171658D01*
X185871092Y-62171659D01*
X186016079Y-62200500D01*
X186016082Y-62200500D01*
X186163920Y-62200500D01*
X186261462Y-62181096D01*
X186308913Y-62171658D01*
X186445495Y-62115084D01*
X186568416Y-62032951D01*
X186672951Y-61928416D01*
X186755084Y-61805495D01*
X186811658Y-61668913D01*
X186840500Y-61523920D01*
X187879499Y-61523920D01*
X187908340Y-61668907D01*
X187908343Y-61668917D01*
X187964912Y-61805488D01*
X187964919Y-61805501D01*
X188047048Y-61928415D01*
X188047051Y-61928419D01*
X188151580Y-62032948D01*
X188151584Y-62032951D01*
X188274498Y-62115080D01*
X188274511Y-62115087D01*
X188377044Y-62157557D01*
X188411087Y-62171658D01*
X188411091Y-62171658D01*
X188411092Y-62171659D01*
X188556079Y-62200500D01*
X188556082Y-62200500D01*
X188703920Y-62200500D01*
X188801462Y-62181096D01*
X188848913Y-62171658D01*
X188985495Y-62115084D01*
X189108416Y-62032951D01*
X189212951Y-61928416D01*
X189295084Y-61805495D01*
X189351658Y-61668913D01*
X189380500Y-61523920D01*
X190419499Y-61523920D01*
X190448340Y-61668907D01*
X190448343Y-61668917D01*
X190504912Y-61805488D01*
X190504919Y-61805501D01*
X190587048Y-61928415D01*
X190587051Y-61928419D01*
X190691580Y-62032948D01*
X190691584Y-62032951D01*
X190814498Y-62115080D01*
X190814511Y-62115087D01*
X190917044Y-62157557D01*
X190951087Y-62171658D01*
X190951091Y-62171658D01*
X190951092Y-62171659D01*
X191096079Y-62200500D01*
X191096082Y-62200500D01*
X191243920Y-62200500D01*
X191341462Y-62181096D01*
X191388913Y-62171658D01*
X191525495Y-62115084D01*
X191648416Y-62032951D01*
X191752951Y-61928416D01*
X191835084Y-61805495D01*
X191891658Y-61668913D01*
X191920500Y-61523920D01*
X192959499Y-61523920D01*
X192988340Y-61668907D01*
X192988343Y-61668917D01*
X193044912Y-61805488D01*
X193044919Y-61805501D01*
X193127048Y-61928415D01*
X193127051Y-61928419D01*
X193231580Y-62032948D01*
X193231584Y-62032951D01*
X193354498Y-62115080D01*
X193354511Y-62115087D01*
X193457044Y-62157557D01*
X193491087Y-62171658D01*
X193491091Y-62171658D01*
X193491092Y-62171659D01*
X193636079Y-62200500D01*
X193636082Y-62200500D01*
X193783920Y-62200500D01*
X193881462Y-62181096D01*
X193928913Y-62171658D01*
X194065495Y-62115084D01*
X194188416Y-62032951D01*
X194292951Y-61928416D01*
X194375084Y-61805495D01*
X194431658Y-61668913D01*
X194460500Y-61523918D01*
X194460500Y-61376082D01*
X194460500Y-61376079D01*
X194431659Y-61231092D01*
X194431658Y-61231091D01*
X194431658Y-61231087D01*
X194431656Y-61231082D01*
X194375087Y-61094511D01*
X194375080Y-61094498D01*
X194292951Y-60971584D01*
X194292948Y-60971580D01*
X194188419Y-60867051D01*
X194188415Y-60867048D01*
X194065501Y-60784919D01*
X194065488Y-60784912D01*
X193928917Y-60728343D01*
X193928907Y-60728340D01*
X193783920Y-60699500D01*
X193783918Y-60699500D01*
X193636082Y-60699500D01*
X193636080Y-60699500D01*
X193491092Y-60728340D01*
X193491082Y-60728343D01*
X193354511Y-60784912D01*
X193354498Y-60784919D01*
X193231584Y-60867048D01*
X193231580Y-60867051D01*
X193127051Y-60971580D01*
X193127048Y-60971584D01*
X193044919Y-61094498D01*
X193044912Y-61094511D01*
X192988343Y-61231082D01*
X192988340Y-61231092D01*
X192959500Y-61376079D01*
X192959500Y-61376082D01*
X192959500Y-61523918D01*
X192959500Y-61523920D01*
X192959499Y-61523920D01*
X191920500Y-61523920D01*
X191920500Y-61523918D01*
X191920500Y-61376082D01*
X191920500Y-61376079D01*
X191891659Y-61231092D01*
X191891658Y-61231091D01*
X191891658Y-61231087D01*
X191891656Y-61231082D01*
X191835087Y-61094511D01*
X191835080Y-61094498D01*
X191752951Y-60971584D01*
X191752948Y-60971580D01*
X191648419Y-60867051D01*
X191648415Y-60867048D01*
X191525501Y-60784919D01*
X191525488Y-60784912D01*
X191388917Y-60728343D01*
X191388907Y-60728340D01*
X191243920Y-60699500D01*
X191243918Y-60699500D01*
X191096082Y-60699500D01*
X191096080Y-60699500D01*
X190951092Y-60728340D01*
X190951082Y-60728343D01*
X190814511Y-60784912D01*
X190814498Y-60784919D01*
X190691584Y-60867048D01*
X190691580Y-60867051D01*
X190587051Y-60971580D01*
X190587048Y-60971584D01*
X190504919Y-61094498D01*
X190504912Y-61094511D01*
X190448343Y-61231082D01*
X190448340Y-61231092D01*
X190419500Y-61376079D01*
X190419500Y-61376082D01*
X190419500Y-61523918D01*
X190419500Y-61523920D01*
X190419499Y-61523920D01*
X189380500Y-61523920D01*
X189380500Y-61523918D01*
X189380500Y-61376082D01*
X189380500Y-61376079D01*
X189351659Y-61231092D01*
X189351658Y-61231091D01*
X189351658Y-61231087D01*
X189351656Y-61231082D01*
X189295087Y-61094511D01*
X189295080Y-61094498D01*
X189212951Y-60971584D01*
X189212948Y-60971580D01*
X189108419Y-60867051D01*
X189108415Y-60867048D01*
X188985501Y-60784919D01*
X188985488Y-60784912D01*
X188848917Y-60728343D01*
X188848907Y-60728340D01*
X188703920Y-60699500D01*
X188703918Y-60699500D01*
X188556082Y-60699500D01*
X188556080Y-60699500D01*
X188411092Y-60728340D01*
X188411082Y-60728343D01*
X188274511Y-60784912D01*
X188274498Y-60784919D01*
X188151584Y-60867048D01*
X188151580Y-60867051D01*
X188047051Y-60971580D01*
X188047048Y-60971584D01*
X187964919Y-61094498D01*
X187964912Y-61094511D01*
X187908343Y-61231082D01*
X187908340Y-61231092D01*
X187879500Y-61376079D01*
X187879500Y-61376082D01*
X187879500Y-61523918D01*
X187879500Y-61523920D01*
X187879499Y-61523920D01*
X186840500Y-61523920D01*
X186840500Y-61523918D01*
X186840500Y-61376082D01*
X186840500Y-61376079D01*
X186811659Y-61231092D01*
X186811658Y-61231091D01*
X186811658Y-61231087D01*
X186811656Y-61231082D01*
X186755087Y-61094511D01*
X186755080Y-61094498D01*
X186672951Y-60971584D01*
X186672948Y-60971580D01*
X186568419Y-60867051D01*
X186568415Y-60867048D01*
X186445501Y-60784919D01*
X186445488Y-60784912D01*
X186308917Y-60728343D01*
X186308907Y-60728340D01*
X186163920Y-60699500D01*
X186163918Y-60699500D01*
X186016082Y-60699500D01*
X186016080Y-60699500D01*
X185871092Y-60728340D01*
X185871082Y-60728343D01*
X185734511Y-60784912D01*
X185734498Y-60784919D01*
X185611584Y-60867048D01*
X185611580Y-60867051D01*
X185507051Y-60971580D01*
X185507048Y-60971584D01*
X185424919Y-61094498D01*
X185424912Y-61094511D01*
X185368343Y-61231082D01*
X185368340Y-61231092D01*
X185339500Y-61376079D01*
X185339500Y-61376082D01*
X185339500Y-61523918D01*
X185339500Y-61523920D01*
X185339499Y-61523920D01*
X184300500Y-61523920D01*
X184300500Y-61523918D01*
X184300500Y-61376082D01*
X184300500Y-61376079D01*
X184271659Y-61231092D01*
X184271658Y-61231091D01*
X184271658Y-61231087D01*
X184271656Y-61231082D01*
X184215087Y-61094511D01*
X184215080Y-61094498D01*
X184132951Y-60971584D01*
X184132948Y-60971580D01*
X184028419Y-60867051D01*
X184028415Y-60867048D01*
X183905501Y-60784919D01*
X183905488Y-60784912D01*
X183768917Y-60728343D01*
X183768907Y-60728340D01*
X183623920Y-60699500D01*
X183623918Y-60699500D01*
X183476082Y-60699500D01*
X183476080Y-60699500D01*
X183331092Y-60728340D01*
X183331082Y-60728343D01*
X183194511Y-60784912D01*
X183194498Y-60784919D01*
X183071584Y-60867048D01*
X183071580Y-60867051D01*
X182967051Y-60971580D01*
X182967048Y-60971584D01*
X182884919Y-61094498D01*
X182884912Y-61094511D01*
X182828343Y-61231082D01*
X182828340Y-61231092D01*
X182799500Y-61376079D01*
X182799500Y-61376082D01*
X182799500Y-61523918D01*
X182799500Y-61523920D01*
X182799499Y-61523920D01*
X181760500Y-61523920D01*
X181760500Y-61523918D01*
X181760500Y-61376082D01*
X181760500Y-61376079D01*
X181731659Y-61231092D01*
X181731658Y-61231091D01*
X181731658Y-61231087D01*
X181731656Y-61231082D01*
X181675087Y-61094511D01*
X181675080Y-61094498D01*
X181592951Y-60971584D01*
X181592948Y-60971580D01*
X181488419Y-60867051D01*
X181488415Y-60867048D01*
X181365501Y-60784919D01*
X181365488Y-60784912D01*
X181228917Y-60728343D01*
X181228907Y-60728340D01*
X181083920Y-60699500D01*
X181083918Y-60699500D01*
X180936082Y-60699500D01*
X180936080Y-60699500D01*
X180791092Y-60728340D01*
X180791082Y-60728343D01*
X180654511Y-60784912D01*
X180654498Y-60784919D01*
X180531584Y-60867048D01*
X180531580Y-60867051D01*
X180427051Y-60971580D01*
X180427048Y-60971584D01*
X180344919Y-61094498D01*
X180344912Y-61094511D01*
X180288343Y-61231082D01*
X180288340Y-61231092D01*
X180259500Y-61376079D01*
X180259500Y-61376082D01*
X180259500Y-61523918D01*
X180259500Y-61523920D01*
X180259499Y-61523920D01*
X179220500Y-61523920D01*
X179220500Y-61523918D01*
X179220500Y-61376082D01*
X179220500Y-61376079D01*
X179191659Y-61231092D01*
X179191658Y-61231091D01*
X179191658Y-61231087D01*
X179191656Y-61231082D01*
X179135087Y-61094511D01*
X179135080Y-61094498D01*
X179052951Y-60971584D01*
X179052948Y-60971580D01*
X178948419Y-60867051D01*
X178948415Y-60867048D01*
X178825501Y-60784919D01*
X178825488Y-60784912D01*
X178688917Y-60728343D01*
X178688907Y-60728340D01*
X178543920Y-60699500D01*
X178543918Y-60699500D01*
X178396082Y-60699500D01*
X178396080Y-60699500D01*
X178251092Y-60728340D01*
X178251082Y-60728343D01*
X178114511Y-60784912D01*
X178114498Y-60784919D01*
X177991584Y-60867048D01*
X177991580Y-60867051D01*
X177887051Y-60971580D01*
X177887048Y-60971584D01*
X177804919Y-61094498D01*
X177804912Y-61094511D01*
X177748343Y-61231082D01*
X177748340Y-61231092D01*
X177719500Y-61376079D01*
X177719500Y-61376082D01*
X177719500Y-61523918D01*
X177719500Y-61523920D01*
X177719499Y-61523920D01*
X176680500Y-61523920D01*
X176680500Y-61523918D01*
X176680500Y-61376082D01*
X176680500Y-61376079D01*
X176651659Y-61231092D01*
X176651658Y-61231091D01*
X176651658Y-61231087D01*
X176651656Y-61231082D01*
X176595087Y-61094511D01*
X176595080Y-61094498D01*
X176512951Y-60971584D01*
X176512948Y-60971580D01*
X176408419Y-60867051D01*
X176408415Y-60867048D01*
X176285501Y-60784919D01*
X176285488Y-60784912D01*
X176148917Y-60728343D01*
X176148907Y-60728340D01*
X176003920Y-60699500D01*
X176003918Y-60699500D01*
X175856082Y-60699500D01*
X175856080Y-60699500D01*
X175711092Y-60728340D01*
X175711082Y-60728343D01*
X175574511Y-60784912D01*
X175574498Y-60784919D01*
X175451584Y-60867048D01*
X175451580Y-60867051D01*
X175347051Y-60971580D01*
X175347048Y-60971584D01*
X175264919Y-61094498D01*
X175264912Y-61094511D01*
X175208343Y-61231082D01*
X175208340Y-61231092D01*
X175179500Y-61376079D01*
X175179500Y-61376082D01*
X175179500Y-61523918D01*
X175179500Y-61523920D01*
X175179499Y-61523920D01*
X174140500Y-61523920D01*
X174140500Y-61523918D01*
X174140500Y-61376082D01*
X174140500Y-61376079D01*
X174111659Y-61231092D01*
X174111658Y-61231091D01*
X174111658Y-61231087D01*
X174111656Y-61231082D01*
X174055087Y-61094511D01*
X174055080Y-61094498D01*
X173972951Y-60971584D01*
X173972948Y-60971580D01*
X173868419Y-60867051D01*
X173868415Y-60867048D01*
X173745501Y-60784919D01*
X173745488Y-60784912D01*
X173608917Y-60728343D01*
X173608907Y-60728340D01*
X173463920Y-60699500D01*
X173463918Y-60699500D01*
X173316082Y-60699500D01*
X173316080Y-60699500D01*
X173171092Y-60728340D01*
X173171082Y-60728343D01*
X173034511Y-60784912D01*
X173034498Y-60784919D01*
X172911584Y-60867048D01*
X172911580Y-60867051D01*
X172807051Y-60971580D01*
X172807048Y-60971584D01*
X172724919Y-61094498D01*
X172724912Y-61094511D01*
X172668343Y-61231082D01*
X172668340Y-61231092D01*
X172639500Y-61376079D01*
X172639500Y-61376082D01*
X172639500Y-61523918D01*
X172639500Y-61523920D01*
X172639499Y-61523920D01*
X171600500Y-61523920D01*
X171600500Y-61523918D01*
X171600500Y-61376082D01*
X171600500Y-61376079D01*
X171571659Y-61231092D01*
X171571658Y-61231091D01*
X171571658Y-61231087D01*
X171571656Y-61231082D01*
X171515087Y-61094511D01*
X171515080Y-61094498D01*
X171432951Y-60971584D01*
X171432948Y-60971580D01*
X171328419Y-60867051D01*
X171328415Y-60867048D01*
X171205501Y-60784919D01*
X171205488Y-60784912D01*
X171068917Y-60728343D01*
X171068907Y-60728340D01*
X170923920Y-60699500D01*
X170923918Y-60699500D01*
X170776082Y-60699500D01*
X170776080Y-60699500D01*
X170631092Y-60728340D01*
X170631082Y-60728343D01*
X170494511Y-60784912D01*
X170494498Y-60784919D01*
X170371584Y-60867048D01*
X170371580Y-60867051D01*
X170267051Y-60971580D01*
X170267048Y-60971584D01*
X170184919Y-61094498D01*
X170184912Y-61094511D01*
X170128343Y-61231082D01*
X170128340Y-61231092D01*
X170099500Y-61376079D01*
X170099500Y-61376082D01*
X170099500Y-61523918D01*
X170099500Y-61523920D01*
X170099499Y-61523920D01*
X155650500Y-61523920D01*
X155650500Y-61025768D01*
X155651105Y-61013532D01*
X155654026Y-60984075D01*
X155662900Y-60894587D01*
X155667696Y-60870633D01*
X155700803Y-60762193D01*
X155710208Y-60739638D01*
X155763945Y-60639809D01*
X155777595Y-60619535D01*
X155849870Y-60532191D01*
X155867227Y-60514993D01*
X155955244Y-60443520D01*
X155975638Y-60430062D01*
X156075964Y-60377248D01*
X156098604Y-60368052D01*
X156207342Y-60335949D01*
X156231340Y-60331375D01*
X156350397Y-60320677D01*
X156362607Y-60320185D01*
X156404085Y-60320565D01*
X156404088Y-60320563D01*
X156409587Y-60320614D01*
X156416206Y-60320122D01*
X195185031Y-60306379D01*
X195252073Y-60326039D01*
X195297847Y-60378827D01*
X195307815Y-60447982D01*
X195278813Y-60511548D01*
X195272753Y-60518058D01*
X195220276Y-60570535D01*
X195220272Y-60570540D01*
X195095379Y-60742442D01*
X194998904Y-60931782D01*
X194933242Y-61133870D01*
X194933242Y-61133873D01*
X194922769Y-61200000D01*
X195816988Y-61200000D01*
X195784075Y-61257007D01*
X195750000Y-61384174D01*
X195750000Y-61515826D01*
X195784075Y-61642993D01*
X195816988Y-61700000D01*
X194922769Y-61700000D01*
X194933242Y-61766126D01*
X194933242Y-61766129D01*
X194998904Y-61968217D01*
X195095379Y-62157557D01*
X195220272Y-62329459D01*
X195220276Y-62329464D01*
X195370535Y-62479723D01*
X195370540Y-62479727D01*
X195542442Y-62604620D01*
X195731782Y-62701095D01*
X195933871Y-62766757D01*
X196000000Y-62777231D01*
X196000000Y-61883012D01*
X196057007Y-61915925D01*
X196184174Y-61950000D01*
X196315826Y-61950000D01*
X196442993Y-61915925D01*
X196500000Y-61883012D01*
X196500000Y-62777230D01*
X196566126Y-62766757D01*
X196566129Y-62766757D01*
X196768217Y-62701095D01*
X196957557Y-62604620D01*
X197129459Y-62479727D01*
X197129464Y-62479723D01*
X197279723Y-62329464D01*
X197279727Y-62329459D01*
X197404620Y-62157557D01*
X197501095Y-61968217D01*
X197566757Y-61766129D01*
X197566757Y-61766126D01*
X197577231Y-61700000D01*
X196683012Y-61700000D01*
X196715925Y-61642993D01*
X196747831Y-61523920D01*
X198039499Y-61523920D01*
X198068340Y-61668907D01*
X198068343Y-61668917D01*
X198124912Y-61805488D01*
X198124919Y-61805501D01*
X198207048Y-61928415D01*
X198207051Y-61928419D01*
X198311580Y-62032948D01*
X198311584Y-62032951D01*
X198434498Y-62115080D01*
X198434511Y-62115087D01*
X198537044Y-62157557D01*
X198571087Y-62171658D01*
X198571091Y-62171658D01*
X198571092Y-62171659D01*
X198716079Y-62200500D01*
X198716082Y-62200500D01*
X198863920Y-62200500D01*
X198961462Y-62181096D01*
X199008913Y-62171658D01*
X199145495Y-62115084D01*
X199268416Y-62032951D01*
X199372951Y-61928416D01*
X199455084Y-61805495D01*
X199511658Y-61668913D01*
X199540500Y-61523918D01*
X199540500Y-61376082D01*
X199540500Y-61376079D01*
X199511659Y-61231092D01*
X199511658Y-61231091D01*
X199511658Y-61231087D01*
X199511656Y-61231082D01*
X199455087Y-61094511D01*
X199455080Y-61094498D01*
X199372951Y-60971584D01*
X199372948Y-60971580D01*
X199268419Y-60867051D01*
X199268415Y-60867048D01*
X199145501Y-60784919D01*
X199145488Y-60784912D01*
X199008917Y-60728343D01*
X199008907Y-60728340D01*
X198863920Y-60699500D01*
X198863918Y-60699500D01*
X198716082Y-60699500D01*
X198716080Y-60699500D01*
X198571092Y-60728340D01*
X198571082Y-60728343D01*
X198434511Y-60784912D01*
X198434498Y-60784919D01*
X198311584Y-60867048D01*
X198311580Y-60867051D01*
X198207051Y-60971580D01*
X198207048Y-60971584D01*
X198124919Y-61094498D01*
X198124912Y-61094511D01*
X198068343Y-61231082D01*
X198068340Y-61231092D01*
X198039500Y-61376079D01*
X198039500Y-61376082D01*
X198039500Y-61523918D01*
X198039500Y-61523920D01*
X198039499Y-61523920D01*
X196747831Y-61523920D01*
X196750000Y-61515826D01*
X196750000Y-61384174D01*
X196715925Y-61257007D01*
X196683012Y-61200000D01*
X197577231Y-61200000D01*
X197566757Y-61133873D01*
X197566757Y-61133870D01*
X197501095Y-60931782D01*
X197404620Y-60742442D01*
X197279727Y-60570540D01*
X197279723Y-60570535D01*
X197226492Y-60517304D01*
X197193007Y-60455981D01*
X197197991Y-60386289D01*
X197239863Y-60330356D01*
X197305327Y-60305939D01*
X197314083Y-60305624D01*
X210691650Y-60300882D01*
X210695137Y-60301400D01*
G37*
%TD.AperFunction*%
%TD*%
M02*
