%TF.GenerationSoftware,KiCad,Pcbnew,10.0.4*%
%TF.CreationDate,2026-09-25T14:30:54+02:00*%
%TF.ProjectId,astropix_v5_conn,61737472-6f70-4697-985f-76355f636f6e,rev?*%
%TF.SameCoordinates,Original*%
%TF.FileFunction,Copper,L4,Bot*%
%TF.FilePolarity,Positive*%
%FSLAX46Y46*%
G04 Gerber Fmt 4.6, Leading zero omitted, Abs format (unit mm)*
G04 Created by KiCad (PCBNEW 10.0.4) date 2026-09-25 14:30:54*
%MOMM*%
%LPD*%
G01*
G04 APERTURE LIST*
%TA.AperFunction,ComponentPad*%
%ADD10C,2.250000*%
%TD*%
%TA.AperFunction,ComponentPad*%
%ADD11R,1.700000X1.700000*%
%TD*%
%TA.AperFunction,ComponentPad*%
%ADD12O,1.700000X1.700000*%
%TD*%
%TA.AperFunction,ConnectorPad*%
%ADD13R,0.700000X3.200000*%
%TD*%
%TA.AperFunction,ConnectorPad*%
%ADD14R,0.700000X4.300000*%
%TD*%
%TA.AperFunction,ComponentPad*%
%ADD15C,2.000000*%
%TD*%
%TA.AperFunction,ComponentPad*%
%ADD16C,1.700000*%
%TD*%
%TA.AperFunction,ViaPad*%
%ADD17C,0.450000*%
%TD*%
%TA.AperFunction,Conductor*%
%ADD18C,0.125000*%
%TD*%
%TA.AperFunction,Conductor*%
%ADD19C,0.500000*%
%TD*%
%TA.AperFunction,Conductor*%
%ADD20C,0.200000*%
%TD*%
%TA.AperFunction,Conductor*%
%ADD21C,0.250000*%
%TD*%
%TA.AperFunction,Conductor*%
%ADD22C,0.150000*%
%TD*%
%TA.AperFunction,Conductor*%
%ADD23C,0.130000*%
%TD*%
%TA.AperFunction,Conductor*%
%ADD24C,0.140000*%
%TD*%
%TA.AperFunction,Conductor*%
%ADD25C,0.800000*%
%TD*%
%TA.AperFunction,Conductor*%
%ADD26C,0.175000*%
%TD*%
G04 APERTURE END LIST*
D10*
%TO.P,J4,1,In_1*%
%TO.N,Net-(J4-In)*%
X206700000Y-71800000D03*
%TO.P,J4,2,Ext_2*%
%TO.N,GND*%
X209240000Y-69260000D03*
X204160000Y-69260000D03*
X209240000Y-74340000D03*
X204160000Y-74340000D03*
%TD*%
D11*
%TO.P,JP5,1,A_1*%
%TO.N,GND*%
X178980000Y-74855000D03*
D12*
%TO.P,JP5,2,B_2*%
%TO.N,Net-(JP5-B)*%
X178980000Y-77395000D03*
%TD*%
D11*
%TO.P,J14,1,Pin_1_1*%
%TO.N,Net-(J14-Pin_1)*%
X170850000Y-61450000D03*
D12*
%TO.P,J14,2,Pin_2_2*%
%TO.N,/blpix*%
X173390000Y-61450000D03*
%TO.P,J14,3,Pin_3_3*%
%TO.N,Net-(J14-Pin_3)*%
X175930000Y-61450000D03*
%TO.P,J14,4,Pin_4_4*%
%TO.N,Net-(J14-Pin_4)*%
X178470000Y-61450000D03*
%TO.P,J14,5,Pin_5_5*%
%TO.N,Net-(J14-Pin_5)*%
X181010000Y-61450000D03*
%TO.P,J14,6,Pin_6_6*%
%TO.N,/ThPix*%
X183550000Y-61450000D03*
%TO.P,J14,7,Pin_7_7*%
%TO.N,unconnected-(J14-Pin_7-Pad7)*%
X186090000Y-61450000D03*
%TO.P,J14,8,Pin_8_8*%
%TO.N,/VCasc2!*%
X188630000Y-61450000D03*
%TO.P,J14,9,Pin_9_9*%
%TO.N,unconnected-(J14-Pin_9-Pad9)*%
X191170000Y-61450000D03*
%TO.P,J14,10,Pin_10_10*%
%TO.N,Net-(J14-Pin_10)*%
X193710000Y-61450000D03*
%TO.P,J14,11,Pin_11_11*%
%TO.N,GND*%
X196250000Y-61450000D03*
%TO.P,J14,12,Pin_12_12*%
%TO.N,Net-(J14-Pin_12)*%
X198790000Y-61450000D03*
%TD*%
D11*
%TO.P,JP3,1,A_1*%
%TO.N,GND*%
X188750000Y-74855000D03*
D12*
%TO.P,JP3,2,C_2*%
%TO.N,Net-(JP3-C)*%
X188750000Y-77395000D03*
%TO.P,JP3,3,B_3*%
%TO.N,VDDA*%
X188750000Y-79935000D03*
%TD*%
D10*
%TO.P,J7,1,In_1*%
%TO.N,/HV_in_ext*%
X160460000Y-77540000D03*
%TO.P,J7,2,Ext_2*%
%TO.N,GND*%
X157920000Y-80080000D03*
X163000000Y-80080000D03*
X157920000Y-75000000D03*
X163000000Y-75000000D03*
%TD*%
D11*
%TO.P,J2,1,Pin_1_1*%
%TO.N,Net-(J2-Pin_1)*%
X165250000Y-85675000D03*
D12*
%TO.P,J2,2,Pin_2_2*%
%TO.N,Net-(J2-Pin_2)*%
X165250000Y-88215000D03*
%TO.P,J2,3,Pin_3_3*%
%TO.N,Net-(J2-Pin_3)*%
X165250000Y-90755000D03*
%TO.P,J2,4,Pin_4_4*%
%TO.N,Net-(J2-Pin_4)*%
X165250000Y-93295000D03*
%TO.P,J2,5,Pin_5_5*%
%TO.N,Net-(J2-Pin_5)*%
X165250000Y-95835000D03*
%TD*%
D13*
%TO.P,J3,A1,HV_A1*%
%TO.N,unconnected-(J3-HV-PadA1)*%
X156000000Y-130025000D03*
D14*
%TO.P,J3,A2*%
%TO.N,N/C*%
X157000000Y-130575000D03*
%TO.P,J3,A3,VDD33_A3*%
%TO.N,unconnected-(J3-VDD33-PadA3)*%
X158000000Y-130575000D03*
%TO.P,J3,A4,VDD33_A4*%
%TO.N,unconnected-(J3-VDD33-PadA4)*%
X159000000Y-130575000D03*
%TO.P,J3,A5,VSSA_A5*%
%TO.N,VSSA*%
X160000000Y-130575000D03*
%TO.P,J3,A6,VSSA_A6*%
X161000000Y-130575000D03*
%TO.P,J3,A7,POW5_A7*%
%TO.N,unconnected-(J3-POW5-PadA7)*%
X162000000Y-130575000D03*
%TO.P,J3,A8,POW5_A8*%
%TO.N,unconnected-(J3-POW5-PadA8)*%
X163000000Y-130575000D03*
%TO.P,J3,A9,POW7_A9*%
%TO.N,unconnected-(J3-POW7-PadA9)*%
X164000000Y-130575000D03*
%TO.P,J3,A10,POW7_A10*%
%TO.N,unconnected-(J3-POW7-PadA10)*%
X165000000Y-130575000D03*
%TO.P,J3,A11,GND_A11*%
%TO.N,GND*%
X166000000Y-130575000D03*
%TO.P,J3,A12,C1_1_A12*%
%TO.N,unconnected-(J3-C1_1-PadA12)*%
X169000000Y-130575000D03*
%TO.P,J3,A13,C1_2_A13*%
%TO.N,unconnected-(J3-C1_2-PadA13)*%
X170000000Y-130575000D03*
%TO.P,J3,A14,C1_5_A14*%
%TO.N,unconnected-(J3-C1_5-PadA14)*%
X171000000Y-130575000D03*
%TO.P,J3,A15,C1_6_A15*%
%TO.N,unconnected-(J3-C1_6-PadA15)*%
X172000000Y-130575000D03*
%TO.P,J3,A16,FMC_LA23_P_A16*%
%TO.N,/SPI_left_CSN*%
X173000000Y-130575000D03*
%TO.P,J3,A17,FMC_LA23_N_A17*%
%TO.N,/SPI_left_CLK*%
X174000000Y-130575000D03*
%TO.P,J3,A18,FMC_LA21_P_A18*%
%TO.N,/SPI_left_MISO0*%
X175000000Y-130575000D03*
%TO.P,J3,A19,FMC_LA21_N_A19*%
%TO.N,/SPI_left_MISO1*%
X176000000Y-130575000D03*
%TO.P,J3,A20,FMC_LA19_P_A20*%
%TO.N,/SPI_left_MOSI*%
X177000000Y-130575000D03*
%TO.P,J3,A21,FMC_LA19_N_A21*%
%TO.N,/Enable_SPI_diff*%
X178000000Y-130575000D03*
%TO.P,J3,A22,FMC_LA17_CC_P_A22*%
%TO.N,unconnected-(J3-FMC_LA17_CC_P-PadA22)*%
X179000000Y-130575000D03*
%TO.P,J3,A23,FMC_LA17_CC_N_A23*%
%TO.N,/timestamp_clk*%
X180000000Y-130575000D03*
%TO.P,J3,A24,C2_1_A24*%
%TO.N,unconnected-(J3-C2_1-PadA24)*%
X181000000Y-130575000D03*
%TO.P,J3,A25,C2_2_A25*%
%TO.N,unconnected-(J3-C2_2-PadA25)*%
X182000000Y-130575000D03*
%TO.P,J3,A26,C2_5_A26*%
%TO.N,unconnected-(J3-C2_5-PadA26)*%
X183000000Y-130575000D03*
%TO.P,J3,A27,C2_6_A27*%
%TO.N,unconnected-(J3-C2_6-PadA27)*%
X184000000Y-130575000D03*
%TO.P,J3,A28,C3_1_A28*%
%TO.N,/Inj*%
X185000000Y-130575000D03*
%TO.P,J3,A29,C3_2_A29*%
%TO.N,unconnected-(J3-C3_2-PadA29)*%
X186000000Y-130575000D03*
%TO.P,J3,A30,C3_5_A30*%
%TO.N,unconnected-(J3-C3_5-PadA30)*%
X187000000Y-130575000D03*
%TO.P,J3,A31,C3_6_A31*%
%TO.N,unconnected-(J3-C3_6-PadA31)*%
X188000000Y-130575000D03*
%TO.P,J3,A32,C4_1_A32*%
%TO.N,unconnected-(J3-C4_1-PadA32)*%
X189000000Y-130575000D03*
%TO.P,J3,A33,C4_2_A33*%
%TO.N,unconnected-(J3-C4_2-PadA33)*%
X190000000Y-130575000D03*
%TO.P,J3,A34,C4_5_A34*%
%TO.N,unconnected-(J3-C4_5-PadA34)*%
X191000000Y-130575000D03*
%TO.P,J3,A35,C4_6_A35*%
%TO.N,unconnected-(J3-C4_6-PadA35)*%
X192000000Y-130575000D03*
%TO.P,J3,A36,C5_1_A36*%
%TO.N,unconnected-(J3-C5_1-PadA36)*%
X193000000Y-130575000D03*
%TO.P,J3,A37,C5_2_A37*%
%TO.N,unconnected-(J3-C5_2-PadA37)*%
X194000000Y-130575000D03*
%TO.P,J3,A38,C5_5_A38*%
%TO.N,unconnected-(J3-C5_5-PadA38)*%
X195000000Y-130575000D03*
%TO.P,J3,A39,C5_6_A39*%
%TO.N,unconnected-(J3-C5_6-PadA39)*%
X196000000Y-130575000D03*
%TO.P,J3,A40,FMC_LA15_P_A40*%
%TO.N,/SPI_CLK_P*%
X197000000Y-130575000D03*
%TO.P,J3,A41,FMC_LA15_N_A41*%
%TO.N,/SPI_CLK_N*%
X198000000Y-130575000D03*
%TO.P,J3,A42,FMC_LA13_P_A42*%
%TO.N,unconnected-(J3-FMC_LA13_P-PadA42)*%
X199000000Y-130575000D03*
%TO.P,J3,A43,FMC_LA13_N_A43*%
%TO.N,unconnected-(J3-FMC_LA13_N-PadA43)*%
X200000000Y-130575000D03*
%TO.P,J3,A44,FMC_LA11_P_A44*%
%TO.N,/SR_ldpatgen*%
X201000000Y-130575000D03*
%TO.P,J3,A45,FMC_LA11_N_A45*%
%TO.N,/SR_rb*%
X202000000Y-130575000D03*
%TO.P,J3,A46,FMC_LA09_P_A46*%
%TO.N,/SR_sout*%
X203000000Y-130575000D03*
%TO.P,J3,A47,FMC_LA09_N_A47*%
%TO.N,/SR_ldtdac*%
X204000000Y-130575000D03*
%TO.P,J3,A48,FMC_LA07_P_A48*%
%TO.N,unconnected-(J3-FMC_LA07_P-PadA48)*%
X205000000Y-130575000D03*
%TO.P,J3,A49,FMC_LA07_N_A49*%
%TO.N,/SPI_right_MISO1*%
X206000000Y-130575000D03*
%TO.P,J3,A50,FMC_LA05_P_A50*%
%TO.N,/SPI_right_MISO0*%
X207000000Y-130575000D03*
%TO.P,J3,A51,FMC_LA05_N_A51*%
%TO.N,/SPI_right_MOSI*%
X208000000Y-130575000D03*
%TO.P,J3,A52,FMC_LA03_P_A52*%
%TO.N,/SPI_right_CLK*%
X209000000Y-130575000D03*
%TO.P,J3,A53,FMC_LA03_N_A53*%
%TO.N,/SPI_right_CSN*%
X210000000Y-130575000D03*
%TO.P,J3,A54,FMC_LA01_P_A54*%
%TO.N,unconnected-(J3-FMC_LA01_P-PadA54)*%
X211000000Y-130575000D03*
%TD*%
D11*
%TO.P,JP4,1,A_1*%
%TO.N,GND*%
X183980000Y-74855000D03*
D12*
%TO.P,JP4,2,B_2*%
%TO.N,Net-(JP4-B)*%
X183980000Y-77395000D03*
%TD*%
D10*
%TO.P,J5,1,In_1*%
%TO.N,Net-(J5-In)*%
X160500000Y-118225000D03*
%TO.P,J5,2,Ext_2*%
%TO.N,GND*%
X157960000Y-120765000D03*
X163040000Y-120765000D03*
X157960000Y-115685000D03*
X163040000Y-115685000D03*
%TD*%
D11*
%TO.P,J8,1,Pin_1_1*%
%TO.N,/interrupt*%
X204575000Y-101525000D03*
D12*
%TO.P,J8,2,Pin_2_2*%
%TO.N,unconnected-(J8-Pin_2-Pad2)*%
X204575000Y-98985000D03*
%TO.P,J8,3,Pin_3_3*%
%TO.N,GND*%
X204575000Y-96445000D03*
%TD*%
D15*
%TO.P,TP2,1,1_1*%
%TO.N,Net-(U2A-Qdac<1>)*%
X204525000Y-78425000D03*
%TD*%
D11*
%TO.P,J12,1,Pin_1_1*%
%TO.N,Net-(J12-Pin_1)*%
X208550000Y-92100000D03*
D12*
%TO.P,J12,2,Pin_2_2*%
%TO.N,Net-(J12-Pin_2)*%
X208550000Y-89560000D03*
%TO.P,J12,3,Pin_3_3*%
%TO.N,unconnected-(J12-Pin_3-Pad3)*%
X208550000Y-87020000D03*
%TO.P,J12,4,Pin_4_4*%
%TO.N,GND*%
X208550000Y-84480000D03*
%TD*%
D15*
%TO.P,TP1,1,1_1*%
%TO.N,Net-(U2A-Qdac<0>)*%
X209375000Y-78350000D03*
%TD*%
D11*
%TO.P,J9,1,Pin_1_1*%
%TO.N,/SPI_left_CSN*%
X157950000Y-102250000D03*
D16*
%TO.P,J9,2,Pin_2_2*%
%TO.N,/SPI_left_CLK*%
X157950000Y-99710000D03*
%TO.P,J9,3,Pin_3_3*%
%TO.N,/SPI_left_MISO0*%
X157950000Y-97170000D03*
%TO.P,J9,4,Pin_4_4*%
%TO.N,/SPI_left_MISO1*%
X157950000Y-94630000D03*
%TO.P,J9,5,Pin_5_5*%
%TO.N,/SPI_left_MOSI*%
X157950000Y-92090000D03*
%TO.P,J9,6,Pin_6_6*%
%TO.N,GND*%
X157950000Y-89550000D03*
%TD*%
D11*
%TO.P,J10,1,Pin_1_1*%
%TO.N,/SPI_right_MISO1*%
X208575000Y-96500000D03*
D16*
%TO.P,J10,2,Pin_2_2*%
%TO.N,/SPI_right_MISO0*%
X208575000Y-99040000D03*
%TO.P,J10,3,Pin_3_3*%
%TO.N,/SPI_right_MOSI*%
X208575000Y-101580000D03*
%TO.P,J10,4,Pin_4_4*%
%TO.N,/SPI_right_CLK*%
X208575000Y-104120000D03*
%TO.P,J10,5,Pin_5_5*%
%TO.N,/SPI_right_CSN*%
X208575000Y-106660000D03*
%TO.P,J10,6,Pin_6_6*%
%TO.N,GND*%
X208575000Y-109200000D03*
%TD*%
D10*
%TO.P,J1,1,In_1*%
%TO.N,Net-(J1-In)*%
X206600000Y-118225000D03*
%TO.P,J1,2,Ext_2*%
%TO.N,GND*%
X209140000Y-115685000D03*
X204060000Y-115685000D03*
X209140000Y-120765000D03*
X204060000Y-120765000D03*
%TD*%
D17*
%TO.N,Net-(J4-In)*%
X178294930Y-110694930D03*
%TO.N,GND*%
X172862500Y-105031896D03*
X166000000Y-127050001D03*
X167175000Y-109575000D03*
X183594133Y-120082307D03*
X167637500Y-75736500D03*
X191099980Y-74855000D03*
X196400000Y-124050000D03*
X168300000Y-103550000D03*
X196534638Y-111910596D03*
X201142632Y-119277000D03*
X198525000Y-63725000D03*
X164425731Y-122399261D03*
X165305913Y-114244087D03*
X173700000Y-114725000D03*
X182599999Y-124125001D03*
%TO.N,/SPI_left_MISO0*%
X160625000Y-102300000D03*
%TO.N,/SPI_right_CLK*%
X199225000Y-116575000D03*
%TO.N,VDD*%
X161000000Y-125149943D03*
X160825000Y-106950000D03*
X181350000Y-121750000D03*
%TO.N,Net-(JP5-B)*%
X175000000Y-112000000D03*
%TO.N,Net-(J14-Pin_1)*%
X197375000Y-85100000D03*
X186625000Y-110500000D03*
%TO.N,/blpix*%
X188850000Y-127775000D03*
X188860875Y-118839123D03*
X200250000Y-103150000D03*
X185916087Y-113005947D03*
%TO.N,Net-(J14-Pin_3)*%
X198550000Y-98500000D03*
X184650000Y-111275004D03*
%TO.N,Net-(J14-Pin_4)*%
X187200012Y-111325000D03*
X199150000Y-99925000D03*
%TO.N,Net-(J14-Pin_5)*%
X175125000Y-112925000D03*
%TO.N,/ThPix*%
X186917654Y-112238756D03*
X199825000Y-96850000D03*
X189875735Y-119149265D03*
X190000000Y-127975000D03*
%TO.N,/VCasc2!*%
X191000004Y-120025000D03*
X191000000Y-128000000D03*
X201000000Y-105590189D03*
X188200000Y-115025000D03*
%TO.N,Net-(J14-Pin_10)*%
X202375000Y-104375000D03*
X190145374Y-113825374D03*
%TO.N,Net-(J14-Pin_12)*%
X190622874Y-113447874D03*
X201850000Y-103175000D03*
%TO.N,VDDA*%
X184637500Y-118237500D03*
X193850000Y-119475000D03*
X196737500Y-110462500D03*
X162999976Y-126649999D03*
X188997748Y-82047748D03*
X193025000Y-124050000D03*
%TO.N,VSSA*%
X165725000Y-111600000D03*
X158800000Y-125274999D03*
%TO.N,/interrupt*%
X194294930Y-105269930D03*
X211000000Y-112475000D03*
X207125000Y-105450000D03*
X182750012Y-111266868D03*
%TO.N,Net-(J1-In)*%
X202100000Y-117050000D03*
X187665000Y-114500000D03*
%TO.N,suba*%
X170587499Y-82536498D03*
X174549998Y-113760000D03*
%TO.N,Net-(JP3-C)*%
X175500000Y-111367570D03*
%TO.N,Net-(JP4-B)*%
X183143073Y-79192068D03*
X176500000Y-111475000D03*
%TO.N,/SR_out_CK1*%
X178750000Y-112575000D03*
X176922133Y-116747671D03*
%TO.N,/Enable_SPI_diff*%
X178099274Y-115509414D03*
%TO.N,/SPI_MISO0_P*%
X179939580Y-113097190D03*
X181200000Y-120725000D03*
%TO.N,/SPI_MISO0_N*%
X181800000Y-120650000D03*
X180609007Y-112845834D03*
%TO.N,/SPI_CLK_P*%
X184354974Y-120364112D03*
X181750000Y-113075000D03*
X196275000Y-125500000D03*
%TO.N,/SPI_CLK_N*%
X182214377Y-112695056D03*
X197000000Y-125475000D03*
X184821873Y-119916075D03*
%TO.N,Net-(J5-In)*%
X181246949Y-111359332D03*
X177042442Y-114821769D03*
%TO.N,/timestamp_clk*%
X181950000Y-111275000D03*
%TO.N,/hold*%
X191575000Y-122050000D03*
X183347512Y-112802502D03*
%TO.N,/SR_load*%
X206125000Y-124438673D03*
X183825308Y-111320869D03*
%TO.N,/SR_rb*%
X185250000Y-114800000D03*
%TO.N,/SR_ldtdac*%
X186763129Y-116086871D03*
%TO.N,/SR_ldpatgen*%
X184725006Y-114250000D03*
%TO.N,/SR_sout*%
X185781369Y-115402499D03*
%TO.N,/Inj*%
X189425000Y-119550000D03*
%TO.N,Net-(U2A-Qdac<0>)*%
X187625000Y-112975000D03*
%TO.N,Net-(U2A-Qdac<1>)*%
X187875000Y-111325000D03*
%TO.N,Net-(J12-Pin_1)*%
X189700000Y-114825000D03*
%TO.N,Net-(J12-Pin_2)*%
X188825000Y-114925000D03*
%TO.N,/vminuspix*%
X192349999Y-118674999D03*
X192000000Y-128025000D03*
%TO.N,/SPI_left_CLK*%
X159625000Y-104900000D03*
%TO.N,/SPI_left_CSN*%
X158025000Y-105875000D03*
%TO.N,/SPI_right_MISO0*%
X198449106Y-118197566D03*
%TO.N,/SPI_right_MISO1*%
X193750000Y-116450000D03*
%TO.N,/SPI_left_MISO1*%
X161825000Y-99650000D03*
%TO.N,/SPI_right_MOSI*%
X198875000Y-117750000D03*
%TO.N,/SPI_right_CSN*%
X198700000Y-116050000D03*
%TD*%
%TO.N,Net-(J4-In)*%
D18*
X198387602Y-71800000D02*
X206700000Y-71800000D01*
X186237602Y-83950000D02*
X198387602Y-71800000D01*
X174900000Y-109417892D02*
X174900000Y-87350000D01*
X176177038Y-110694930D02*
X174900000Y-109417892D01*
X178300000Y-83950000D02*
X186237602Y-83950000D01*
X174900000Y-87350000D02*
X178300000Y-83950000D01*
X178294930Y-110694930D02*
X176177038Y-110694930D01*
%TO.N,GND*%
D19*
X166000000Y-129899999D02*
X166000000Y-127050001D01*
%TO.N,/SPI_left_MISO0*%
D20*
X160625000Y-105651778D02*
X160625000Y-102300000D01*
X175000000Y-120026778D02*
X160625000Y-105651778D01*
X175000000Y-130575000D02*
X175000000Y-120026778D01*
%TO.N,/SPI_right_CLK*%
X209000000Y-123550000D02*
X204610000Y-119160000D01*
X204610000Y-119160000D02*
X202585000Y-119160000D01*
X209000000Y-130575000D02*
X209000000Y-123550000D01*
X200000000Y-116575000D02*
X199225000Y-116575000D01*
X202585000Y-119160000D02*
X200000000Y-116575000D01*
%TO.N,Net-(JP5-B)*%
D18*
X172325000Y-109325000D02*
X175000000Y-112000000D01*
X172325000Y-84050000D02*
X172325000Y-109325000D01*
X178980000Y-77395000D02*
X172325000Y-84050000D01*
%TO.N,Net-(J14-Pin_1)*%
X186625000Y-109675000D02*
X190400000Y-105900000D01*
X186625000Y-110500000D02*
X186625000Y-109675000D01*
X197375000Y-103125000D02*
X197375000Y-85100000D01*
X190400000Y-105900000D02*
X194600000Y-105900000D01*
X194600000Y-105900000D02*
X197375000Y-103125000D01*
%TO.N,/blpix*%
D21*
X188850000Y-127071750D02*
X188850000Y-127775000D01*
X188860875Y-127060875D02*
X188850000Y-127071750D01*
D22*
X189675000Y-110550000D02*
X193373717Y-110550000D01*
D21*
X188860875Y-118839123D02*
X188860875Y-127060875D01*
D22*
X193373717Y-110550000D02*
X200250000Y-103673717D01*
X185916087Y-113005947D02*
X185916087Y-112558913D01*
X186700000Y-111775000D02*
X188450000Y-111775000D01*
X185916087Y-112558913D02*
X186700000Y-111775000D01*
X200250000Y-103673717D02*
X200250000Y-103150000D01*
X188450000Y-111775000D02*
X189675000Y-110550000D01*
%TO.N,Net-(J14-Pin_3)*%
D18*
X198550000Y-102800000D02*
X198550000Y-98500000D01*
X191093719Y-106650000D02*
X194700000Y-106650000D01*
X184650000Y-111275004D02*
X186468715Y-111275004D01*
X194700000Y-106650000D02*
X198550000Y-102800000D01*
X186468715Y-111275004D02*
X191093719Y-106650000D01*
%TO.N,Net-(J14-Pin_4)*%
X199037500Y-103112500D02*
X199037500Y-100037500D01*
X187200012Y-111325000D02*
X191150012Y-107375000D01*
X199037500Y-100037500D02*
X199150000Y-99925000D01*
X191150012Y-107375000D02*
X194775000Y-107375000D01*
X194775000Y-107375000D02*
X199037500Y-103112500D01*
%TO.N,Net-(J14-Pin_5)*%
X171475000Y-109275000D02*
X175125000Y-112925000D01*
X171475000Y-70775000D02*
X171475000Y-109275000D01*
X181000000Y-61250000D02*
X171475000Y-70775000D01*
%TO.N,/ThPix*%
D23*
X186917654Y-112238756D02*
X188886244Y-112238756D01*
X200825000Y-97850000D02*
X199825000Y-96850000D01*
X188886244Y-112238756D02*
X189975000Y-111150000D01*
X200825000Y-104150000D02*
X200825000Y-97850000D01*
X193825000Y-111150000D02*
X200825000Y-104150000D01*
X189975000Y-111150000D02*
X193825000Y-111150000D01*
D21*
X190000000Y-127975000D02*
X190000000Y-119273530D01*
X190000000Y-119273530D02*
X189875735Y-119149265D01*
%TO.N,/VCasc2!*%
D24*
X201000000Y-105590189D02*
X201000000Y-108475000D01*
X188200000Y-114400000D02*
X188200000Y-115025000D01*
D21*
X191000000Y-128000000D02*
X191000004Y-127999996D01*
D24*
X196750000Y-112725000D02*
X189875000Y-112725000D01*
X189875000Y-112725000D02*
X188200000Y-114400000D01*
D21*
X191000004Y-127999996D02*
X191000004Y-120025000D01*
D24*
X201000000Y-108475000D02*
X196750000Y-112725000D01*
%TO.N,Net-(J14-Pin_10)*%
D18*
X202375000Y-108842892D02*
X202375000Y-104375000D01*
X190145374Y-113825374D02*
X190305374Y-113985374D01*
X190305374Y-113985374D02*
X197232518Y-113985374D01*
X197232518Y-113985374D02*
X202375000Y-108842892D01*
%TO.N,Net-(J14-Pin_12)*%
X197327126Y-113447874D02*
X201850000Y-108925000D01*
X201850000Y-108925000D02*
X201850000Y-103175000D01*
X190622874Y-113447874D02*
X197327126Y-113447874D01*
%TO.N,VSSA*%
D19*
X160000000Y-129899999D02*
X160000000Y-126474999D01*
X160000000Y-126474999D02*
X158800000Y-125274999D01*
X161000000Y-129899999D02*
X161000000Y-127474999D01*
X161000000Y-127474999D02*
X158800000Y-125274999D01*
%TO.N,/interrupt*%
D22*
X182816868Y-111266868D02*
X182750012Y-111266868D01*
X188766880Y-105250000D02*
X194275000Y-105250000D01*
D18*
X210175000Y-105450000D02*
X207125000Y-105450000D01*
D22*
X194275000Y-105250000D02*
X194294930Y-105269930D01*
D18*
X211000000Y-106275000D02*
X210175000Y-105450000D01*
X211000000Y-112475000D02*
X211000000Y-106275000D01*
D22*
X182750012Y-111266868D02*
X188766880Y-105250000D01*
%TO.N,Net-(J1-In)*%
D18*
X187665000Y-114500000D02*
X187762500Y-114597500D01*
X206600000Y-118225000D02*
X206575000Y-118200000D01*
X200612500Y-115562500D02*
X202100000Y-117050000D01*
X206575000Y-118200000D02*
X203250000Y-118200000D01*
X188118781Y-115562500D02*
X200612500Y-115562500D01*
X203250000Y-118200000D02*
X202100000Y-117050000D01*
X187762500Y-115206219D02*
X188118781Y-115562500D01*
X187762500Y-114597500D02*
X187762500Y-115206219D01*
%TO.N,suba*%
D25*
X169725000Y-95123999D02*
X169725000Y-83398997D01*
X169725000Y-108935002D02*
X169725000Y-95123999D01*
X169725000Y-83398997D02*
X170587499Y-82536498D01*
X174549998Y-113760000D02*
X169725000Y-108935002D01*
%TO.N,Net-(JP3-C)*%
D18*
X175500000Y-110725000D02*
X175500000Y-111367570D01*
X173400000Y-85350000D02*
X173400000Y-108625000D01*
X182625000Y-76125000D02*
X173400000Y-85350000D01*
X187480000Y-76125000D02*
X182625000Y-76125000D01*
X188750000Y-77395000D02*
X187480000Y-76125000D01*
X173400000Y-108625000D02*
X175500000Y-110725000D01*
%TO.N,Net-(JP4-B)*%
X180085141Y-82250000D02*
X178300000Y-82250000D01*
X175750000Y-110796446D02*
X176428554Y-111475000D01*
X178300000Y-82250000D02*
X174225000Y-86325000D01*
X174225000Y-86325000D02*
X174225000Y-109096446D01*
X174225000Y-109096446D02*
X175750000Y-110621446D01*
X183143073Y-79192068D02*
X180085141Y-82250000D01*
X176428554Y-111475000D02*
X176500000Y-111475000D01*
X175750000Y-110621446D02*
X175750000Y-110796446D01*
%TO.N,/SR_out_CK1*%
D23*
X178525535Y-112575000D02*
X176502442Y-114598093D01*
X176502442Y-114598093D02*
X176502442Y-116327980D01*
X176502442Y-116327980D02*
X176922133Y-116747671D01*
X178750000Y-112575000D02*
X178525535Y-112575000D01*
%TO.N,/Enable_SPI_diff*%
D20*
X178000000Y-130575000D02*
X178000000Y-115608688D01*
X178000000Y-115608688D02*
X178099274Y-115509414D01*
%TO.N,/SPI_MISO0_P*%
X179939580Y-113097190D02*
X180725000Y-113882610D01*
X180725000Y-113882610D02*
X180725000Y-120250000D01*
X180725000Y-120250000D02*
X181200000Y-120725000D01*
%TO.N,/SPI_MISO0_N*%
X181075000Y-113311827D02*
X181075000Y-119925000D01*
X181075000Y-119925000D02*
X181800000Y-120650000D01*
X180609007Y-112845834D02*
X181075000Y-113311827D01*
%TO.N,/SPI_CLK_P*%
X181750000Y-113075000D02*
X181750000Y-117425000D01*
X197325000Y-126550000D02*
X196275000Y-125500000D01*
X196975000Y-128475000D02*
X197325000Y-128125000D01*
X181750000Y-117425000D02*
X184354974Y-120029974D01*
X184354974Y-120029974D02*
X184354974Y-120364112D01*
X197000000Y-130575000D02*
X196975000Y-130550000D01*
X197325000Y-128125000D02*
X197325000Y-126550000D01*
X196975000Y-130550000D02*
X196975000Y-128475000D01*
%TO.N,/SPI_CLK_N*%
X182275000Y-117450000D02*
X182275000Y-112755679D01*
X198000000Y-128450000D02*
X197675000Y-128125000D01*
X197675000Y-126150000D02*
X197000000Y-125475000D01*
X197675000Y-128125000D02*
X197675000Y-126150000D01*
X198000000Y-130575000D02*
X198000000Y-128450000D01*
X182275000Y-112755679D02*
X182214377Y-112695056D01*
X184821873Y-119916075D02*
X184741075Y-119916075D01*
X184741075Y-119916075D02*
X182275000Y-117450000D01*
%TO.N,Net-(J5-In)*%
D18*
X178035450Y-113913204D02*
X178021262Y-113913204D01*
X177112697Y-114821769D02*
X177042442Y-114821769D01*
X181246949Y-111359332D02*
X180589322Y-111359332D01*
X180589322Y-111359332D02*
X178035450Y-113913204D01*
X178021262Y-113913204D02*
X177112697Y-114821769D01*
%TO.N,/timestamp_clk*%
X181950000Y-111275000D02*
X181300117Y-111924883D01*
X180475117Y-111924883D02*
X178174296Y-114225704D01*
D26*
X178174296Y-114824296D02*
X179425000Y-116075000D01*
D18*
X179425000Y-116075000D02*
X179475000Y-116075000D01*
D20*
X180000000Y-116600000D02*
X179475000Y-116075000D01*
D18*
X181300117Y-111924883D02*
X180475117Y-111924883D01*
D20*
X180000000Y-130575000D02*
X180000000Y-116600000D01*
D26*
X178174296Y-114225704D02*
X178174296Y-114824296D01*
%TO.N,/hold*%
D20*
X183347512Y-112802502D02*
X183347512Y-115072512D01*
X191575000Y-119786823D02*
X191575000Y-122050000D01*
X186639124Y-118364124D02*
X190152301Y-118364124D01*
X183347512Y-115072512D02*
X186639124Y-118364124D01*
X190152301Y-118364124D02*
X191575000Y-119786823D01*
%TO.N,/SR_load*%
D18*
X187487500Y-115320127D02*
X188104873Y-115937500D01*
X203713673Y-124438673D02*
X206125000Y-124438673D01*
X187487500Y-115286548D02*
X187487500Y-115320127D01*
X183825308Y-111320869D02*
X183825308Y-111624356D01*
X195212500Y-115937500D02*
X203713673Y-124438673D01*
X188104873Y-115937500D02*
X195212500Y-115937500D01*
X183825308Y-111624356D02*
X187487500Y-115286548D01*
%TO.N,/SR_rb*%
X202000000Y-125925000D02*
X193776624Y-117701624D01*
X187051624Y-117701624D02*
X185250000Y-115900000D01*
X185250000Y-115900000D02*
X185250000Y-114800000D01*
X193776624Y-117701624D02*
X187051624Y-117701624D01*
X202000000Y-130575000D02*
X202000000Y-125925000D01*
%TO.N,/SR_ldtdac*%
D20*
X204000000Y-126400000D02*
X204000000Y-130575000D01*
X187613758Y-116937500D02*
X194537500Y-116937500D01*
X186763129Y-116086871D02*
X187613758Y-116937500D01*
X194537500Y-116937500D02*
X204000000Y-126400000D01*
%TO.N,/SR_ldpatgen*%
X186869149Y-118014124D02*
X184725006Y-115869981D01*
X201000000Y-125750000D02*
X193264124Y-118014124D01*
X184725006Y-115869981D02*
X184725006Y-114250000D01*
X193264124Y-118014124D02*
X186869149Y-118014124D01*
X201000000Y-130575000D02*
X201000000Y-125750000D01*
%TO.N,/SR_sout*%
X203000000Y-126175000D02*
X194112500Y-117287500D01*
D18*
X185781369Y-115322560D02*
X185781369Y-115402499D01*
D20*
X203000000Y-130575000D02*
X203000000Y-126175000D01*
X194112500Y-117287500D02*
X187237500Y-117287500D01*
X185781369Y-115831369D02*
X185781369Y-115402499D01*
X187237500Y-117287500D02*
X185781369Y-115831369D01*
%TO.N,/Inj*%
D18*
X185000000Y-128500000D02*
X185000000Y-130575000D01*
X189425000Y-127960140D02*
X189172640Y-128212500D01*
X189425000Y-119550000D02*
X189425000Y-127960140D01*
X189172640Y-128212500D02*
X185287500Y-128212500D01*
D20*
X185000000Y-130575000D02*
X184950000Y-130525000D01*
D18*
X185287500Y-128212500D02*
X185000000Y-128500000D01*
%TO.N,Net-(U2A-Qdac<0>)*%
X187625000Y-112975000D02*
X189025000Y-112975000D01*
X190125000Y-111875000D02*
X194050000Y-111875000D01*
X201300000Y-104625000D02*
X201300000Y-89583973D01*
X205875000Y-82550000D02*
X209375000Y-79050000D01*
X201300000Y-89583973D02*
X205875000Y-85008973D01*
X194050000Y-111875000D02*
X201300000Y-104625000D01*
X189025000Y-112975000D02*
X190125000Y-111875000D01*
X209375000Y-79050000D02*
X209375000Y-78350000D01*
X205875000Y-85008973D02*
X205875000Y-82550000D01*
%TO.N,Net-(U2A-Qdac<1>)*%
X193125000Y-109900000D02*
X189300000Y-109900000D01*
X204825000Y-80600000D02*
X199287500Y-86137500D01*
X199287500Y-97072640D02*
X199600000Y-97385140D01*
X199600000Y-103425000D02*
X193125000Y-109900000D01*
X189300000Y-109900000D02*
X187875000Y-111325000D01*
X204525000Y-78425000D02*
X204825000Y-78725000D01*
X199287500Y-86137500D02*
X199287500Y-97072640D01*
X204825000Y-78725000D02*
X204825000Y-80600000D01*
X199600000Y-97385140D02*
X199600000Y-103425000D01*
%TO.N,Net-(J12-Pin_1)*%
X208550000Y-92100000D02*
X205737500Y-94912500D01*
X205737500Y-106012500D02*
X196925000Y-114825000D01*
X196925000Y-114825000D02*
X189700000Y-114825000D01*
X205737500Y-94912500D02*
X205737500Y-106012500D01*
%TO.N,Net-(J12-Pin_2)*%
X202137500Y-110478527D02*
X202137500Y-111637500D01*
X202137500Y-111637500D02*
X198512500Y-115262500D01*
X198512500Y-115262500D02*
X189162500Y-115262500D01*
X209850000Y-92775000D02*
X206650000Y-95975000D01*
X206650000Y-95975000D02*
X206650000Y-105966027D01*
X208550000Y-89560000D02*
X209850000Y-90860000D01*
X209850000Y-90860000D02*
X209850000Y-92775000D01*
X206650000Y-105966027D02*
X202137500Y-110478527D01*
X189162500Y-115262500D02*
X188825000Y-114925000D01*
%TO.N,/vminuspix*%
D19*
X192225000Y-118799998D02*
X192349999Y-118674999D01*
X192000000Y-128025000D02*
X192225000Y-127800000D01*
X192225000Y-127800000D02*
X192225000Y-118799998D01*
%TO.N,/SPI_left_MOSI*%
D20*
X167750000Y-109655026D02*
X167750000Y-103813173D01*
X167725000Y-103788173D02*
X167725000Y-102750000D01*
X167750000Y-103813173D02*
X167725000Y-103788173D01*
X177000000Y-130575000D02*
X177000000Y-118905026D01*
X167725000Y-102750000D02*
X157950000Y-92975000D01*
X177000000Y-118905026D02*
X167750000Y-109655026D01*
D18*
X157950000Y-92090000D02*
X157950000Y-92975000D01*
%TO.N,/SPI_left_CLK*%
D20*
X174000000Y-130575000D02*
X174000000Y-122125000D01*
X174000000Y-122125000D02*
X159650000Y-107775000D01*
X159650000Y-100895000D02*
X158465000Y-99710000D01*
X158465000Y-99710000D02*
X157950000Y-99710000D01*
X159650000Y-107775000D02*
X159650000Y-100895000D01*
%TO.N,/SPI_left_CSN*%
X173000000Y-130575000D02*
X173000000Y-127937006D01*
X173000000Y-127937006D02*
X156900000Y-111837006D01*
X156900000Y-111837006D02*
X156900000Y-107000000D01*
X156900000Y-107000000D02*
X158025000Y-105875000D01*
%TO.N,/SPI_right_MISO0*%
X198449106Y-118224106D02*
X198449106Y-118197566D01*
X207000000Y-130575000D02*
X207000000Y-124000000D01*
X206290000Y-123290000D02*
X203515000Y-123290000D01*
X203515000Y-123290000D02*
X198449106Y-118224106D01*
X207000000Y-124000000D02*
X206290000Y-123290000D01*
%TO.N,/SPI_right_MISO1*%
X206000000Y-130575000D02*
X206000000Y-127475000D01*
X194975000Y-116450000D02*
X193750000Y-116450000D01*
X206000000Y-127475000D02*
X194975000Y-116450000D01*
%TO.N,/SPI_left_MISO1*%
X176000000Y-119350000D02*
X161825000Y-105175000D01*
X161825000Y-105175000D02*
X161825000Y-99650000D01*
X176000000Y-130575000D02*
X176000000Y-119350000D01*
%TO.N,/SPI_right_MOSI*%
X203302459Y-122250000D02*
X198875000Y-117822541D01*
X206525000Y-122250000D02*
X203302459Y-122250000D01*
X208000000Y-130575000D02*
X208000000Y-123725000D01*
X208000000Y-123725000D02*
X206525000Y-122250000D01*
X198875000Y-117822541D02*
X198875000Y-117750000D01*
%TO.N,/SPI_right_CSN*%
X207019517Y-120730483D02*
X207005483Y-120730483D01*
X210000000Y-130575000D02*
X210000000Y-123710966D01*
X202998174Y-118810000D02*
X200238174Y-116050000D01*
X207975000Y-119775000D02*
X207975000Y-116605966D01*
X205085000Y-118810000D02*
X202998174Y-118810000D01*
X207005483Y-120730483D02*
X205085000Y-118810000D01*
X206825000Y-115455966D02*
X206825000Y-109210000D01*
X207975000Y-116605966D02*
X206825000Y-115455966D01*
X208575000Y-107460000D02*
X208575000Y-106660000D01*
X206825000Y-109210000D02*
X208575000Y-107460000D01*
X207019517Y-120730483D02*
X207975000Y-119775000D01*
X210000000Y-123710966D02*
X207019517Y-120730483D01*
X200238174Y-116050000D02*
X198700000Y-116050000D01*
%TO.N,unconnected-(J3-FMC_LA13_N-PadA43)*%
X200000000Y-130575000D02*
X199755913Y-130330913D01*
%TD*%
%TA.AperFunction,Conductor*%
%TO.N,Net-(J1-In)*%
G36*
X206018158Y-117275195D02*
G01*
X206600597Y-118193894D01*
X206602133Y-118202716D01*
X206600741Y-118206192D01*
X206018217Y-119174201D01*
X206011015Y-119179522D01*
X206002165Y-119178196D01*
X205995517Y-119174201D01*
X205899682Y-119116607D01*
X205515441Y-118885689D01*
X205513195Y-118883934D01*
X205226898Y-118597637D01*
X205226897Y-118597636D01*
X205226895Y-118597635D01*
X205134830Y-118559500D01*
X205134828Y-118559500D01*
X204975914Y-118559500D01*
X204969887Y-118557828D01*
X204484141Y-118265909D01*
X204478815Y-118258711D01*
X204478468Y-118255881D01*
X204478468Y-118144307D01*
X204481895Y-118136034D01*
X204484382Y-118134138D01*
X206002498Y-117271287D01*
X206011382Y-117270179D01*
X206018158Y-117275195D01*
G37*
%TD.AperFunction*%
%TD*%
%TA.AperFunction,Conductor*%
%TO.N,Net-(J14-Pin_4)*%
G36*
X199036459Y-99895149D02*
G01*
X199041641Y-99900785D01*
X199148390Y-100146298D01*
X199148983Y-100153908D01*
X199102277Y-100333505D01*
X199096879Y-100340649D01*
X199090954Y-100342260D01*
X198985382Y-100342260D01*
X198977109Y-100338833D01*
X198973765Y-100331952D01*
X198952430Y-100153908D01*
X198926170Y-99934768D01*
X198928588Y-99926149D01*
X198934423Y-99922173D01*
X199027552Y-99894243D01*
X199036459Y-99895149D01*
G37*
%TD.AperFunction*%
%TD*%
%TA.AperFunction,Conductor*%
%TO.N,/SR_ldtdac*%
G36*
X204096128Y-128075890D02*
G01*
X204099435Y-128077260D01*
X204104477Y-128081269D01*
X204335479Y-128404671D01*
X204337357Y-128408835D01*
X204337733Y-128410461D01*
X204336258Y-128419294D01*
X204329919Y-128424234D01*
X204329074Y-128424506D01*
X204325522Y-128425069D01*
X204000033Y-128425999D01*
X203999967Y-128425999D01*
X203674983Y-128425070D01*
X203670507Y-128424166D01*
X203668965Y-128423522D01*
X203662652Y-128417172D01*
X203662338Y-128409140D01*
X203662610Y-128408294D01*
X203664221Y-128405088D01*
X203895149Y-128081790D01*
X203898475Y-128078667D01*
X203900731Y-128077260D01*
X203901512Y-128076773D01*
X203907704Y-128075000D01*
X204091652Y-128075000D01*
X204096128Y-128075890D01*
G37*
%TD.AperFunction*%
%TD*%
%TA.AperFunction,Conductor*%
%TO.N,/SPI_right_CSN*%
G36*
X210096128Y-128075890D02*
G01*
X210099435Y-128077260D01*
X210104477Y-128081269D01*
X210335479Y-128404671D01*
X210337357Y-128408835D01*
X210337733Y-128410461D01*
X210336258Y-128419294D01*
X210329919Y-128424234D01*
X210329074Y-128424506D01*
X210325522Y-128425069D01*
X210000033Y-128425999D01*
X209999967Y-128425999D01*
X209674983Y-128425070D01*
X209670507Y-128424166D01*
X209668965Y-128423522D01*
X209662652Y-128417172D01*
X209662338Y-128409140D01*
X209662610Y-128408294D01*
X209664221Y-128405088D01*
X209895149Y-128081790D01*
X209898475Y-128078667D01*
X209900731Y-128077260D01*
X209901512Y-128076773D01*
X209907704Y-128075000D01*
X210091652Y-128075000D01*
X210096128Y-128075890D01*
G37*
%TD.AperFunction*%
%TD*%
%TA.AperFunction,Conductor*%
%TO.N,/interrupt*%
G36*
X183016699Y-110903718D02*
G01*
X183016788Y-110903774D01*
X183018830Y-110905404D01*
X183110739Y-110997313D01*
X183113276Y-111001110D01*
X183114399Y-111003822D01*
X183115019Y-111010798D01*
X183114998Y-111010894D01*
X183114398Y-111012666D01*
X183114398Y-111012777D01*
X183114341Y-111012833D01*
X183114166Y-111013352D01*
X182943717Y-111377707D01*
X182941010Y-111381388D01*
X182939694Y-111382590D01*
X182931288Y-111385640D01*
X182930808Y-111385618D01*
X182930106Y-111385587D01*
X182924349Y-111383775D01*
X182914797Y-111377707D01*
X182749535Y-111272720D01*
X182747536Y-111271117D01*
X182745761Y-111269342D01*
X182744158Y-111267343D01*
X182633390Y-111092981D01*
X182631744Y-111088729D01*
X182631436Y-111086969D01*
X182633385Y-111078234D01*
X182634066Y-111077263D01*
X182638680Y-111073391D01*
X183002589Y-110903151D01*
X183007019Y-110902063D01*
X183009501Y-110901952D01*
X183009949Y-110901933D01*
X183016699Y-110903718D01*
G37*
%TD.AperFunction*%
%TD*%
%TA.AperFunction,Conductor*%
%TO.N,/SPI_CLK_P*%
G36*
X181753806Y-113070525D02*
G01*
X181956130Y-113115650D01*
X181960298Y-113117488D01*
X181961760Y-113118515D01*
X181961761Y-113118516D01*
X181961762Y-113118516D01*
X181961767Y-113118520D01*
X181964116Y-113122221D01*
X181966563Y-113126069D01*
X181966565Y-113126079D01*
X181966807Y-113127465D01*
X181966486Y-113132843D01*
X181853172Y-113510113D01*
X181851033Y-113514143D01*
X181849292Y-113516277D01*
X181843106Y-113520221D01*
X181842898Y-113520273D01*
X181842725Y-113520317D01*
X181839848Y-113520677D01*
X181661029Y-113520677D01*
X181656549Y-113519785D01*
X181654006Y-113518731D01*
X181648443Y-113513925D01*
X181648241Y-113513587D01*
X181647749Y-113512471D01*
X181647676Y-113512398D01*
X181647676Y-113512305D01*
X181647079Y-113510951D01*
X181533611Y-113133172D01*
X181533175Y-113128632D01*
X181533354Y-113126857D01*
X181533355Y-113126851D01*
X181536307Y-113121364D01*
X181537594Y-113118970D01*
X181537594Y-113118969D01*
X181538686Y-113118078D01*
X181543533Y-113115725D01*
X181746193Y-113070525D01*
X181748740Y-113070245D01*
X181751260Y-113070245D01*
X181753806Y-113070525D01*
G37*
%TD.AperFunction*%
%TD*%
%TA.AperFunction,Conductor*%
%TO.N,/SPI_left_MISO0*%
G36*
X160833401Y-102341157D02*
G01*
X160840729Y-102346301D01*
X160842272Y-102355122D01*
X160842058Y-102355941D01*
X160727503Y-102737343D01*
X160721842Y-102744280D01*
X160716298Y-102745677D01*
X160533702Y-102745677D01*
X160525429Y-102742250D01*
X160522497Y-102737343D01*
X160407941Y-102355941D01*
X160408843Y-102347031D01*
X160415780Y-102341370D01*
X160416571Y-102341163D01*
X160622453Y-102295245D01*
X160627547Y-102295245D01*
X160833401Y-102341157D01*
G37*
%TD.AperFunction*%
%TD*%
%TA.AperFunction,Conductor*%
%TO.N,Net-(U2A-Qdac<1>)*%
G36*
X205510020Y-78423971D02*
G01*
X205518039Y-78427956D01*
X205520890Y-78436445D01*
X205520340Y-78439274D01*
X204890134Y-80369847D01*
X204884309Y-80376648D01*
X204879012Y-80377916D01*
X204769040Y-80377916D01*
X204760767Y-80374489D01*
X204759074Y-80372346D01*
X204129100Y-79348181D01*
X204127685Y-79339339D01*
X204129595Y-79335182D01*
X204821194Y-78382159D01*
X204828826Y-78377477D01*
X204831464Y-78377360D01*
X205510020Y-78423971D01*
G37*
%TD.AperFunction*%
%TD*%
%TA.AperFunction,Conductor*%
%TO.N,/interrupt*%
G36*
X211062805Y-112032750D02*
G01*
X211065419Y-112036737D01*
X211215666Y-112418377D01*
X211215508Y-112427330D01*
X211209065Y-112433550D01*
X211207326Y-112434082D01*
X211002547Y-112479754D01*
X210997453Y-112479754D01*
X210792673Y-112434082D01*
X210785344Y-112428937D01*
X210783801Y-112420116D01*
X210784329Y-112418386D01*
X210934581Y-112036736D01*
X210940801Y-112030294D01*
X210945468Y-112029323D01*
X211054532Y-112029323D01*
X211062805Y-112032750D01*
G37*
%TD.AperFunction*%
%TD*%
%TA.AperFunction,Conductor*%
%TO.N,/hold*%
G36*
X183351318Y-112798027D02*
G01*
X183553642Y-112843152D01*
X183557810Y-112844990D01*
X183559272Y-112846017D01*
X183559273Y-112846018D01*
X183559274Y-112846018D01*
X183559279Y-112846022D01*
X183561628Y-112849723D01*
X183564075Y-112853571D01*
X183564077Y-112853581D01*
X183564319Y-112854967D01*
X183563998Y-112860345D01*
X183450684Y-113237615D01*
X183448545Y-113241645D01*
X183446804Y-113243779D01*
X183440618Y-113247723D01*
X183440410Y-113247775D01*
X183440237Y-113247819D01*
X183437360Y-113248179D01*
X183258541Y-113248179D01*
X183254061Y-113247287D01*
X183251518Y-113246233D01*
X183245955Y-113241427D01*
X183245753Y-113241089D01*
X183245261Y-113239973D01*
X183245188Y-113239900D01*
X183245188Y-113239807D01*
X183244591Y-113238453D01*
X183131123Y-112860674D01*
X183130687Y-112856134D01*
X183130866Y-112854359D01*
X183130867Y-112854353D01*
X183133819Y-112848866D01*
X183135106Y-112846472D01*
X183135106Y-112846471D01*
X183136198Y-112845580D01*
X183141045Y-112843227D01*
X183343705Y-112798027D01*
X183346252Y-112797747D01*
X183348772Y-112797747D01*
X183351318Y-112798027D01*
G37*
%TD.AperFunction*%
%TD*%
%TA.AperFunction,Conductor*%
%TO.N,/SPI_CLK_N*%
G36*
X197805995Y-128111283D02*
G01*
X198043459Y-128248224D01*
X198344132Y-128421616D01*
X198349587Y-128428717D01*
X198349987Y-128431773D01*
X198349329Y-128779802D01*
X198345886Y-128788069D01*
X198337607Y-128791480D01*
X198332108Y-128790095D01*
X197656451Y-128428453D01*
X197650774Y-128421528D01*
X197650281Y-128417688D01*
X197656625Y-128252803D01*
X197660042Y-128244983D01*
X197791880Y-128113145D01*
X197800152Y-128109719D01*
X197805995Y-128111283D01*
G37*
%TD.AperFunction*%
%TD*%
%TA.AperFunction,Conductor*%
%TO.N,Net-(J14-Pin_10)*%
G36*
X202582326Y-104415917D02*
G01*
X202589655Y-104421062D01*
X202591198Y-104429883D01*
X202590666Y-104431622D01*
X202440419Y-104813263D01*
X202434199Y-104819706D01*
X202429532Y-104820677D01*
X202320468Y-104820677D01*
X202312195Y-104817250D01*
X202309581Y-104813263D01*
X202159333Y-104431622D01*
X202159491Y-104422669D01*
X202165934Y-104416449D01*
X202167666Y-104415918D01*
X202372453Y-104370245D01*
X202377547Y-104370245D01*
X202582326Y-104415917D01*
G37*
%TD.AperFunction*%
%TD*%
%TA.AperFunction,Conductor*%
%TO.N,Net-(J14-Pin_5)*%
G36*
X174861359Y-112568843D02*
G01*
X174872722Y-112573786D01*
X175237460Y-112732462D01*
X175243679Y-112738904D01*
X175243521Y-112747857D01*
X175242668Y-112749464D01*
X175130163Y-112926561D01*
X175126561Y-112930163D01*
X174949464Y-113042668D01*
X174940643Y-113044211D01*
X174933314Y-113039066D01*
X174932465Y-113037467D01*
X174768843Y-112661359D01*
X174768685Y-112652406D01*
X174771297Y-112648421D01*
X174848420Y-112571298D01*
X174856692Y-112567872D01*
X174861359Y-112568843D01*
G37*
%TD.AperFunction*%
%TD*%
%TA.AperFunction,Conductor*%
%TO.N,Net-(JP4-B)*%
G36*
X176202387Y-111156103D02*
G01*
X176405396Y-111235274D01*
X176447879Y-111251842D01*
X176454342Y-111258040D01*
X176455309Y-111262068D01*
X176469660Y-111510862D01*
X176466715Y-111519319D01*
X176465861Y-111520182D01*
X176351491Y-111624444D01*
X176343069Y-111627486D01*
X176334963Y-111623680D01*
X176333560Y-111621791D01*
X176272445Y-111519319D01*
X176204957Y-111406160D01*
X176111548Y-111249540D01*
X176110254Y-111240679D01*
X176113322Y-111235276D01*
X176189868Y-111158730D01*
X176198140Y-111155304D01*
X176202387Y-111156103D01*
G37*
%TD.AperFunction*%
%TD*%
%TA.AperFunction,Conductor*%
%TO.N,Net-(J12-Pin_1)*%
G36*
X207711249Y-91752564D02*
G01*
X208546216Y-92097438D01*
X208552553Y-92103763D01*
X208552562Y-92103784D01*
X208897432Y-92938743D01*
X208897423Y-92947698D01*
X208891085Y-92954024D01*
X208890647Y-92954194D01*
X207150170Y-93592659D01*
X207141223Y-93592291D01*
X207137868Y-93589948D01*
X207060051Y-93512131D01*
X207056624Y-93503858D01*
X207057340Y-93499829D01*
X207257497Y-92954194D01*
X207695806Y-91759350D01*
X207701871Y-91752765D01*
X207710818Y-91752397D01*
X207711249Y-91752564D01*
G37*
%TD.AperFunction*%
%TD*%
%TA.AperFunction,Conductor*%
%TO.N,/SPI_right_MOSI*%
G36*
X208096128Y-128075890D02*
G01*
X208099435Y-128077260D01*
X208104477Y-128081269D01*
X208335479Y-128404671D01*
X208337357Y-128408835D01*
X208337733Y-128410461D01*
X208336258Y-128419294D01*
X208329919Y-128424234D01*
X208329074Y-128424506D01*
X208325522Y-128425069D01*
X208000033Y-128425999D01*
X207999967Y-128425999D01*
X207674983Y-128425070D01*
X207670507Y-128424166D01*
X207668965Y-128423522D01*
X207662652Y-128417172D01*
X207662338Y-128409140D01*
X207662610Y-128408294D01*
X207664221Y-128405088D01*
X207895149Y-128081790D01*
X207898475Y-128078667D01*
X207900731Y-128077260D01*
X207901512Y-128076773D01*
X207907704Y-128075000D01*
X208091652Y-128075000D01*
X208096128Y-128075890D01*
G37*
%TD.AperFunction*%
%TD*%
%TA.AperFunction,Conductor*%
%TO.N,/timestamp_clk*%
G36*
X180102252Y-128078427D02*
G01*
X180103500Y-128079900D01*
X180336831Y-128406564D01*
X180338851Y-128415287D01*
X180334110Y-128422885D01*
X180327343Y-128425064D01*
X180000033Y-128425999D01*
X179999967Y-128425999D01*
X179672656Y-128425064D01*
X179664392Y-128421613D01*
X179660989Y-128413331D01*
X179663167Y-128406565D01*
X179896500Y-128079900D01*
X179904098Y-128075159D01*
X179906021Y-128075000D01*
X180093979Y-128075000D01*
X180102252Y-128078427D01*
G37*
%TD.AperFunction*%
%TD*%
%TA.AperFunction,Conductor*%
%TO.N,/SPI_left_CLK*%
G36*
X159833500Y-104941180D02*
G01*
X159840829Y-104946325D01*
X159842374Y-104955146D01*
X159842187Y-104955873D01*
X159731304Y-105336446D01*
X159725700Y-105343430D01*
X159720173Y-105344873D01*
X159537585Y-105346462D01*
X159529282Y-105343107D01*
X159526307Y-105338222D01*
X159408071Y-104956010D01*
X159408899Y-104947094D01*
X159415790Y-104941376D01*
X159416695Y-104941135D01*
X159622407Y-104895253D01*
X159627497Y-104895253D01*
X159833500Y-104941180D01*
G37*
%TD.AperFunction*%
%TD*%
%TA.AperFunction,Conductor*%
%TO.N,/SPI_left_CLK*%
G36*
X159719082Y-104454897D02*
G01*
X159727333Y-104458376D01*
X159730233Y-104463298D01*
X159842150Y-104844107D01*
X159841195Y-104853011D01*
X159834224Y-104858631D01*
X159833471Y-104858826D01*
X159627511Y-104904751D01*
X159622418Y-104904750D01*
X159416672Y-104858859D01*
X159409343Y-104853714D01*
X159407800Y-104844893D01*
X159408030Y-104844020D01*
X159525232Y-104462024D01*
X159530933Y-104455122D01*
X159536487Y-104453758D01*
X159719082Y-104454897D01*
G37*
%TD.AperFunction*%
%TD*%
%TA.AperFunction,Conductor*%
%TO.N,/SPI_right_MISO0*%
G36*
X207096128Y-128075890D02*
G01*
X207099435Y-128077260D01*
X207104477Y-128081269D01*
X207335479Y-128404671D01*
X207337357Y-128408835D01*
X207337733Y-128410461D01*
X207336258Y-128419294D01*
X207329919Y-128424234D01*
X207329074Y-128424506D01*
X207325522Y-128425069D01*
X207000033Y-128425999D01*
X206999967Y-128425999D01*
X206674983Y-128425070D01*
X206670507Y-128424166D01*
X206668965Y-128423522D01*
X206662652Y-128417172D01*
X206662338Y-128409140D01*
X206662610Y-128408294D01*
X206664221Y-128405088D01*
X206895149Y-128081790D01*
X206898475Y-128078667D01*
X206900731Y-128077260D01*
X206901512Y-128076773D01*
X206907704Y-128075000D01*
X207091652Y-128075000D01*
X207096128Y-128075890D01*
G37*
%TD.AperFunction*%
%TD*%
%TA.AperFunction,Conductor*%
%TO.N,Net-(U2A-Qdac<1>)*%
G36*
X188151580Y-110971299D02*
G01*
X188228700Y-111048419D01*
X188232127Y-111056692D01*
X188231156Y-111061359D01*
X188067538Y-111437459D01*
X188061095Y-111443679D01*
X188052142Y-111443521D01*
X188050535Y-111442668D01*
X187873438Y-111330163D01*
X187869836Y-111326561D01*
X187757331Y-111149464D01*
X187755788Y-111140643D01*
X187760933Y-111133314D01*
X187762526Y-111132468D01*
X188138640Y-110968842D01*
X188147593Y-110968685D01*
X188151580Y-110971299D01*
G37*
%TD.AperFunction*%
%TD*%
%TA.AperFunction,Conductor*%
%TO.N,/SPI_left_CLK*%
G36*
X159651342Y-104680547D02*
G01*
X159655491Y-104683505D01*
X159833434Y-104881562D01*
X159836414Y-104890006D01*
X159832550Y-104898084D01*
X159825236Y-104901070D01*
X159750254Y-104904312D01*
X159749749Y-104904323D01*
X159556161Y-104904323D01*
X159547888Y-104900896D01*
X159546514Y-104899242D01*
X159458227Y-104770569D01*
X159456372Y-104761809D01*
X159461255Y-104754303D01*
X159463466Y-104753112D01*
X159642387Y-104680483D01*
X159651342Y-104680547D01*
G37*
%TD.AperFunction*%
%TD*%
%TA.AperFunction,Conductor*%
%TO.N,Net-(J4-In)*%
G36*
X206118189Y-70850497D02*
G01*
X206700672Y-71793853D01*
X206702103Y-71802693D01*
X206700672Y-71806147D01*
X206118189Y-72749502D01*
X206110927Y-72754741D01*
X206102329Y-72753455D01*
X204584263Y-71865888D01*
X204578850Y-71858754D01*
X204578468Y-71855788D01*
X204578468Y-71744211D01*
X204581895Y-71735938D01*
X204584258Y-71734114D01*
X206102330Y-70846543D01*
X206111200Y-70845326D01*
X206118189Y-70850497D01*
G37*
%TD.AperFunction*%
%TD*%
%TA.AperFunction,Conductor*%
%TO.N,/SPI_CLK_N*%
G36*
X184548660Y-119578874D02*
G01*
X184756418Y-119696304D01*
X184761934Y-119703359D01*
X184762299Y-119705284D01*
X184788492Y-119958107D01*
X184785936Y-119966690D01*
X184784579Y-119968100D01*
X184672377Y-120066731D01*
X184663900Y-120069620D01*
X184655865Y-120065669D01*
X184655220Y-120064867D01*
X184607738Y-120000074D01*
X184605475Y-119993158D01*
X184605475Y-119980148D01*
X184605475Y-119980147D01*
X184583134Y-119926214D01*
X184567338Y-119888077D01*
X184496871Y-119817610D01*
X184496207Y-119816946D01*
X184496200Y-119816940D01*
X184411981Y-119732721D01*
X184410817Y-119731364D01*
X184405431Y-119724014D01*
X184403305Y-119715315D01*
X184406593Y-119708827D01*
X184534633Y-119580787D01*
X184542905Y-119577361D01*
X184548660Y-119578874D01*
G37*
%TD.AperFunction*%
%TD*%
%TA.AperFunction,Conductor*%
%TO.N,/SR_ldpatgen*%
G36*
X201096128Y-128075890D02*
G01*
X201099435Y-128077260D01*
X201104477Y-128081269D01*
X201335479Y-128404671D01*
X201337357Y-128408835D01*
X201337733Y-128410461D01*
X201336258Y-128419294D01*
X201329919Y-128424234D01*
X201329074Y-128424506D01*
X201325522Y-128425069D01*
X201000033Y-128425999D01*
X200999967Y-128425999D01*
X200674983Y-128425070D01*
X200670507Y-128424166D01*
X200668965Y-128423522D01*
X200662652Y-128417172D01*
X200662338Y-128409140D01*
X200662610Y-128408294D01*
X200664221Y-128405088D01*
X200895149Y-128081790D01*
X200898475Y-128078667D01*
X200900731Y-128077260D01*
X200901512Y-128076773D01*
X200907704Y-128075000D01*
X201091652Y-128075000D01*
X201096128Y-128075890D01*
G37*
%TD.AperFunction*%
%TD*%
%TA.AperFunction,Conductor*%
%TO.N,/Enable_SPI_diff*%
G36*
X177999884Y-115484690D02*
G01*
X178004094Y-115489348D01*
X178124132Y-115729663D01*
X178125269Y-115736389D01*
X178104194Y-115899655D01*
X178101419Y-115921163D01*
X178101317Y-115921950D01*
X178096859Y-115929716D01*
X178089713Y-115932152D01*
X177911009Y-115932152D01*
X177902736Y-115928725D01*
X177899331Y-115921163D01*
X177887871Y-115732854D01*
X177874879Y-115519355D01*
X177877797Y-115510889D01*
X177883989Y-115507230D01*
X177991062Y-115483161D01*
X177999884Y-115484690D01*
G37*
%TD.AperFunction*%
%TD*%
%TA.AperFunction,Conductor*%
%TO.N,Net-(J14-Pin_3)*%
G36*
X198757326Y-98540917D02*
G01*
X198764655Y-98546062D01*
X198766198Y-98554883D01*
X198765666Y-98556622D01*
X198615419Y-98938263D01*
X198609199Y-98944706D01*
X198604532Y-98945677D01*
X198495468Y-98945677D01*
X198487195Y-98942250D01*
X198484581Y-98938263D01*
X198334333Y-98556622D01*
X198334491Y-98547669D01*
X198340934Y-98541449D01*
X198342666Y-98540918D01*
X198547453Y-98495245D01*
X198552547Y-98495245D01*
X198757326Y-98540917D01*
G37*
%TD.AperFunction*%
%TD*%
%TA.AperFunction,Conductor*%
%TO.N,/interrupt*%
G36*
X194248062Y-105053773D02*
G01*
X194253804Y-105060645D01*
X194254001Y-105061354D01*
X194299626Y-105247443D01*
X194299726Y-105252574D01*
X194253871Y-105476741D01*
X194248855Y-105484159D01*
X194240063Y-105485859D01*
X194237949Y-105485213D01*
X193856494Y-105327984D01*
X193850151Y-105321663D01*
X193849253Y-105317167D01*
X193849253Y-105183598D01*
X193852680Y-105175325D01*
X193857458Y-105172432D01*
X194239145Y-105052974D01*
X194248062Y-105053773D01*
G37*
%TD.AperFunction*%
%TD*%
%TA.AperFunction,Conductor*%
%TO.N,/SPI_left_CLK*%
G36*
X174096128Y-128075890D02*
G01*
X174099435Y-128077260D01*
X174104477Y-128081269D01*
X174335479Y-128404671D01*
X174337357Y-128408835D01*
X174337733Y-128410461D01*
X174336258Y-128419294D01*
X174329919Y-128424234D01*
X174329074Y-128424506D01*
X174325522Y-128425069D01*
X174000033Y-128425999D01*
X173999967Y-128425999D01*
X173674983Y-128425070D01*
X173670507Y-128424166D01*
X173668965Y-128423522D01*
X173662652Y-128417172D01*
X173662338Y-128409140D01*
X173662610Y-128408294D01*
X173664221Y-128405088D01*
X173895149Y-128081790D01*
X173898475Y-128078667D01*
X173900731Y-128077260D01*
X173901512Y-128076773D01*
X173907704Y-128075000D01*
X174091652Y-128075000D01*
X174096128Y-128075890D01*
G37*
%TD.AperFunction*%
%TD*%
%TA.AperFunction,Conductor*%
%TO.N,/ThPix*%
G36*
X186975837Y-112023614D02*
G01*
X187278066Y-112140718D01*
X187353687Y-112170019D01*
X187357538Y-112172465D01*
X187358275Y-112173168D01*
X187359709Y-112174538D01*
X187363328Y-112182728D01*
X187363331Y-112183001D01*
X187363331Y-112293413D01*
X187362439Y-112297893D01*
X187361290Y-112300665D01*
X187354957Y-112306995D01*
X187354709Y-112307095D01*
X186976403Y-112453677D01*
X186971907Y-112454464D01*
X186970126Y-112454423D01*
X186961934Y-112450807D01*
X186961929Y-112450801D01*
X186961165Y-112450000D01*
X186958212Y-112444472D01*
X186913180Y-112242561D01*
X186912899Y-112240014D01*
X186912899Y-112237496D01*
X186913180Y-112234949D01*
X186924827Y-112182728D01*
X186958081Y-112033624D01*
X186959925Y-112029450D01*
X186960948Y-112027993D01*
X186968503Y-112023192D01*
X186969596Y-112023001D01*
X186975837Y-112023614D01*
G37*
%TD.AperFunction*%
%TD*%
%TA.AperFunction,Conductor*%
%TO.N,/SPI_left_MOSI*%
G36*
X177096128Y-128075890D02*
G01*
X177099435Y-128077260D01*
X177104477Y-128081269D01*
X177335479Y-128404671D01*
X177337357Y-128408835D01*
X177337733Y-128410461D01*
X177336258Y-128419294D01*
X177329919Y-128424234D01*
X177329074Y-128424506D01*
X177325522Y-128425069D01*
X177000033Y-128425999D01*
X176999967Y-128425999D01*
X176674983Y-128425070D01*
X176670507Y-128424166D01*
X176668965Y-128423522D01*
X176662652Y-128417172D01*
X176662338Y-128409140D01*
X176662610Y-128408294D01*
X176664221Y-128405088D01*
X176895149Y-128081790D01*
X176898475Y-128078667D01*
X176900731Y-128077260D01*
X176901512Y-128076773D01*
X176907704Y-128075000D01*
X177091652Y-128075000D01*
X177096128Y-128075890D01*
G37*
%TD.AperFunction*%
%TD*%
%TA.AperFunction,Conductor*%
%TO.N,Net-(J14-Pin_3)*%
G36*
X184706616Y-111059335D02*
G01*
X185088263Y-111209585D01*
X185094706Y-111215805D01*
X185095677Y-111220472D01*
X185095677Y-111329535D01*
X185092250Y-111337808D01*
X185088263Y-111340422D01*
X184706622Y-111490670D01*
X184697669Y-111490512D01*
X184691449Y-111484069D01*
X184690917Y-111482330D01*
X184645245Y-111277551D01*
X184645245Y-111272457D01*
X184658616Y-111212504D01*
X184690917Y-111067675D01*
X184696062Y-111060348D01*
X184704883Y-111058805D01*
X184706616Y-111059335D01*
G37*
%TD.AperFunction*%
%TD*%
%TA.AperFunction,Conductor*%
%TO.N,/ThPix*%
G36*
X190117910Y-127530214D02*
G01*
X190120278Y-127531195D01*
X190126007Y-127536286D01*
X190126342Y-127536884D01*
X190127517Y-127539892D01*
X190217387Y-127917295D01*
X190217558Y-127921852D01*
X190217277Y-127923610D01*
X190212588Y-127931238D01*
X190212580Y-127931244D01*
X190211204Y-127932239D01*
X190206895Y-127934177D01*
X190003807Y-127979473D01*
X190001260Y-127979754D01*
X189998740Y-127979754D01*
X189996193Y-127979473D01*
X189793178Y-127934194D01*
X189789005Y-127932353D01*
X189788843Y-127932239D01*
X189787546Y-127931328D01*
X189782743Y-127923774D01*
X189782449Y-127922089D01*
X189782593Y-127917370D01*
X189782611Y-127917295D01*
X189872320Y-127540573D01*
X189874221Y-127536429D01*
X189875728Y-127534348D01*
X189882025Y-127529949D01*
X189882686Y-127529763D01*
X189883323Y-127529674D01*
X189883354Y-127529656D01*
X189883392Y-127529665D01*
X189885864Y-127529323D01*
X190113432Y-127529323D01*
X190117910Y-127530214D01*
G37*
%TD.AperFunction*%
%TD*%
%TA.AperFunction,Conductor*%
%TO.N,/VCasc2!*%
G36*
X201207544Y-105631155D02*
G01*
X201214873Y-105636300D01*
X201216416Y-105645121D01*
X201215952Y-105646682D01*
X201072847Y-106028274D01*
X201066733Y-106034817D01*
X201061892Y-106035866D01*
X200938108Y-106035866D01*
X200929835Y-106032439D01*
X200927153Y-106028274D01*
X200892846Y-105936796D01*
X200784047Y-105646680D01*
X200784351Y-105637733D01*
X200790894Y-105631619D01*
X200792453Y-105631155D01*
X200997453Y-105585434D01*
X201002547Y-105585434D01*
X201207544Y-105631155D01*
G37*
%TD.AperFunction*%
%TD*%
%TA.AperFunction,Conductor*%
%TO.N,/SR_sout*%
G36*
X185785175Y-115398024D02*
G01*
X185987351Y-115443116D01*
X185991519Y-115444954D01*
X185992980Y-115445980D01*
X185992982Y-115445983D01*
X185992985Y-115445984D01*
X185992988Y-115445986D01*
X185995438Y-115449845D01*
X185997784Y-115453535D01*
X185997786Y-115453545D01*
X185998019Y-115454880D01*
X185997657Y-115460392D01*
X185891703Y-115798396D01*
X185889518Y-115802397D01*
X185888711Y-115803363D01*
X185880777Y-115807515D01*
X185872231Y-115804841D01*
X185872225Y-115804836D01*
X185871601Y-115804314D01*
X185868299Y-115799817D01*
X185859041Y-115777466D01*
X185859041Y-115777465D01*
X185859040Y-115777465D01*
X185859038Y-115777465D01*
X185732460Y-115904045D01*
X185728668Y-115906580D01*
X185727023Y-115907262D01*
X185718068Y-115907264D01*
X185716645Y-115906675D01*
X185711395Y-115902366D01*
X185710401Y-115900880D01*
X185709325Y-115898864D01*
X185681675Y-115832109D01*
X185681490Y-115831635D01*
X185681469Y-115831578D01*
X185681294Y-115831096D01*
X185681138Y-115830635D01*
X185664472Y-115777465D01*
X185565194Y-115460758D01*
X185564705Y-115456224D01*
X185564825Y-115454880D01*
X185564863Y-115454447D01*
X185569005Y-115446517D01*
X185570052Y-115445641D01*
X185575001Y-115443202D01*
X185777562Y-115398024D01*
X185780109Y-115397744D01*
X185782629Y-115397744D01*
X185785175Y-115398024D01*
G37*
%TD.AperFunction*%
%TD*%
%TA.AperFunction,Conductor*%
%TO.N,Net-(J12-Pin_1)*%
G36*
X189758211Y-114609959D02*
G01*
X190136098Y-114758728D01*
X190139937Y-114761197D01*
X190142103Y-114763288D01*
X190145675Y-114771500D01*
X190145677Y-114771706D01*
X190145677Y-114877203D01*
X190144786Y-114881681D01*
X190143634Y-114884462D01*
X190137302Y-114890793D01*
X190137111Y-114890871D01*
X189758786Y-115039813D01*
X189754296Y-115040624D01*
X189752517Y-115040593D01*
X189744305Y-115037023D01*
X189744304Y-115037022D01*
X189743547Y-115036238D01*
X189740545Y-115030658D01*
X189695526Y-114828806D01*
X189695245Y-114826259D01*
X189695245Y-114823740D01*
X189695526Y-114821193D01*
X189708616Y-114762500D01*
X189740410Y-114619943D01*
X189742254Y-114615767D01*
X189743277Y-114614310D01*
X189750832Y-114609509D01*
X189751916Y-114609320D01*
X189758211Y-114609959D01*
G37*
%TD.AperFunction*%
%TD*%
%TA.AperFunction,Conductor*%
%TO.N,/ThPix*%
G36*
X190087010Y-119106774D02*
G01*
X190088718Y-119107374D01*
X190095367Y-119113304D01*
X190096131Y-119114879D01*
X190097281Y-119119253D01*
X190124075Y-119546897D01*
X190123466Y-119551423D01*
X190122888Y-119553109D01*
X190116968Y-119559821D01*
X190115668Y-119560458D01*
X190110520Y-119561652D01*
X189883685Y-119561652D01*
X189879208Y-119560761D01*
X189876023Y-119559442D01*
X189870685Y-119554998D01*
X189868367Y-119551423D01*
X189777428Y-119411176D01*
X189776556Y-119409566D01*
X189775823Y-119407917D01*
X189775213Y-119406193D01*
X189775129Y-119405881D01*
X189774910Y-119405062D01*
X189725475Y-119319438D01*
X189705360Y-119299323D01*
X189704538Y-119298410D01*
X189703766Y-119297456D01*
X189703044Y-119296461D01*
X189696895Y-119286978D01*
X189695206Y-119282733D01*
X189694883Y-119280980D01*
X189696752Y-119272226D01*
X189697503Y-119271135D01*
X189701694Y-119267414D01*
X189996642Y-119112415D01*
X189998949Y-119111503D01*
X190001343Y-119110843D01*
X190003799Y-119110443D01*
X190082496Y-119106132D01*
X190087010Y-119106774D01*
G37*
%TD.AperFunction*%
%TD*%
%TA.AperFunction,Conductor*%
%TO.N,/SPI_right_CSN*%
G36*
X198757843Y-115833511D02*
G01*
X199135117Y-115946828D01*
X199139147Y-115948968D01*
X199141279Y-115950708D01*
X199145222Y-115956898D01*
X199145319Y-115957282D01*
X199145677Y-115960151D01*
X199145677Y-116138970D01*
X199144785Y-116143450D01*
X199143731Y-116145993D01*
X199138925Y-116151556D01*
X199138587Y-116151758D01*
X199135951Y-116152920D01*
X198758172Y-116266387D01*
X198753632Y-116266823D01*
X198751857Y-116266644D01*
X198743970Y-116262404D01*
X198743967Y-116262401D01*
X198743079Y-116261313D01*
X198740724Y-116256462D01*
X198695526Y-116053805D01*
X198695245Y-116051258D01*
X198695245Y-116048740D01*
X198695526Y-116046193D01*
X198715039Y-115958701D01*
X198740651Y-115843864D01*
X198742489Y-115839697D01*
X198743516Y-115838235D01*
X198751068Y-115833436D01*
X198752469Y-115833191D01*
X198757843Y-115833511D01*
G37*
%TD.AperFunction*%
%TD*%
%TA.AperFunction,Conductor*%
%TO.N,Net-(U2A-Qdac<0>)*%
G36*
X209819972Y-78608470D02*
G01*
X209825342Y-78613300D01*
X210076409Y-79047259D01*
X210077586Y-79056136D01*
X210072423Y-79063077D01*
X208457489Y-80058917D01*
X208448648Y-80060342D01*
X208443075Y-80057231D01*
X208366291Y-79980447D01*
X208362864Y-79972174D01*
X208363432Y-79968575D01*
X208659101Y-79055278D01*
X208664909Y-79048464D01*
X208666033Y-79047962D01*
X209811022Y-78608237D01*
X209819972Y-78608470D01*
G37*
%TD.AperFunction*%
%TD*%
%TA.AperFunction,Conductor*%
%TO.N,/ThPix*%
G36*
X200016748Y-96735893D02*
G01*
X200017575Y-96737442D01*
X200182865Y-97111847D01*
X200183072Y-97120799D01*
X200180435Y-97124845D01*
X200099845Y-97205435D01*
X200091572Y-97208862D01*
X200086847Y-97207865D01*
X199712442Y-97042575D01*
X199706257Y-97036099D01*
X199706464Y-97027147D01*
X199707286Y-97025606D01*
X199819839Y-96848434D01*
X199823434Y-96844839D01*
X200000599Y-96732290D01*
X200009419Y-96730748D01*
X200016748Y-96735893D01*
G37*
%TD.AperFunction*%
%TD*%
%TA.AperFunction,Conductor*%
%TO.N,/Inj*%
G36*
X185333553Y-128153427D02*
G01*
X185336980Y-128161700D01*
X185336980Y-128266848D01*
X185333989Y-128274661D01*
X185333684Y-128275000D01*
X185349194Y-128417595D01*
X185346682Y-128426190D01*
X185343632Y-128428863D01*
X184668441Y-128838532D01*
X184659590Y-128839894D01*
X184652369Y-128834598D01*
X184650672Y-128828549D01*
X184650012Y-128432697D01*
X184653425Y-128424421D01*
X184657062Y-128421944D01*
X185243306Y-128168306D01*
X185285349Y-128150891D01*
X185289826Y-128150000D01*
X185325280Y-128150000D01*
X185333553Y-128153427D01*
G37*
%TD.AperFunction*%
%TD*%
%TA.AperFunction,Conductor*%
%TO.N,/interrupt*%
G36*
X207181616Y-105234331D02*
G01*
X207563263Y-105384581D01*
X207569706Y-105390801D01*
X207570677Y-105395468D01*
X207570677Y-105504531D01*
X207567250Y-105512804D01*
X207563263Y-105515418D01*
X207181622Y-105665666D01*
X207172669Y-105665508D01*
X207166449Y-105659065D01*
X207165917Y-105657326D01*
X207120245Y-105452547D01*
X207120245Y-105447453D01*
X207133616Y-105387500D01*
X207165917Y-105242671D01*
X207171062Y-105235344D01*
X207179883Y-105233801D01*
X207181616Y-105234331D01*
G37*
%TD.AperFunction*%
%TD*%
%TA.AperFunction,Conductor*%
%TO.N,/SPI_left_MISO0*%
G36*
X175096128Y-128075890D02*
G01*
X175099435Y-128077260D01*
X175104477Y-128081269D01*
X175335479Y-128404671D01*
X175337357Y-128408835D01*
X175337733Y-128410461D01*
X175336258Y-128419294D01*
X175329919Y-128424234D01*
X175329074Y-128424506D01*
X175325522Y-128425069D01*
X175000033Y-128425999D01*
X174999967Y-128425999D01*
X174674983Y-128425070D01*
X174670507Y-128424166D01*
X174668965Y-128423522D01*
X174662652Y-128417172D01*
X174662338Y-128409140D01*
X174662610Y-128408294D01*
X174664221Y-128405088D01*
X174895149Y-128081790D01*
X174898475Y-128078667D01*
X174900731Y-128077260D01*
X174901512Y-128076773D01*
X174907704Y-128075000D01*
X175091652Y-128075000D01*
X175096128Y-128075890D01*
G37*
%TD.AperFunction*%
%TD*%
%TA.AperFunction,Conductor*%
%TO.N,VSSA*%
G36*
X160249448Y-128078427D02*
G01*
X160252425Y-128083486D01*
X160345751Y-128410130D01*
X160344729Y-128419026D01*
X160337715Y-128424594D01*
X160334534Y-128425044D01*
X160000033Y-128425999D01*
X159999967Y-128425999D01*
X159665465Y-128425044D01*
X159657201Y-128421593D01*
X159653798Y-128413311D01*
X159654247Y-128410133D01*
X159747575Y-128083485D01*
X159753143Y-128076472D01*
X159758825Y-128075000D01*
X160241175Y-128075000D01*
X160249448Y-128078427D01*
G37*
%TD.AperFunction*%
%TD*%
%TA.AperFunction,Conductor*%
%TO.N,/SPI_right_MOSI*%
G36*
X198838408Y-117780694D02*
G01*
X199088634Y-117796528D01*
X199096674Y-117800471D01*
X199098147Y-117802567D01*
X199218180Y-118020835D01*
X199219164Y-118029736D01*
X199216201Y-118034746D01*
X199088002Y-118162945D01*
X199079729Y-118166372D01*
X199072927Y-118164192D01*
X198726603Y-117916745D01*
X198721864Y-117909147D01*
X198723885Y-117900423D01*
X198724735Y-117899368D01*
X198829016Y-117784506D01*
X198837114Y-117780686D01*
X198838408Y-117780694D01*
G37*
%TD.AperFunction*%
%TD*%
%TA.AperFunction,Conductor*%
%TO.N,Net-(J5-In)*%
G36*
X177345111Y-114502140D02*
G01*
X177353131Y-114505564D01*
X177427133Y-114579566D01*
X177429669Y-114583361D01*
X177430670Y-114585777D01*
X177431143Y-114593355D01*
X177430982Y-114593941D01*
X177430670Y-114594672D01*
X177430671Y-114594731D01*
X177430627Y-114594774D01*
X177429758Y-114596818D01*
X177210079Y-114966498D01*
X177207027Y-114969891D01*
X177205600Y-114970958D01*
X177196925Y-114973168D01*
X177195995Y-114973034D01*
X177189764Y-114970083D01*
X177077893Y-114867647D01*
X177075194Y-114863969D01*
X177073575Y-114860500D01*
X177072492Y-114854952D01*
X177085070Y-114610818D01*
X177086190Y-114606395D01*
X177087520Y-114603600D01*
X177093838Y-114597728D01*
X177337542Y-114502866D01*
X177342026Y-114502074D01*
X177345111Y-114502140D01*
G37*
%TD.AperFunction*%
%TD*%
%TA.AperFunction,Conductor*%
%TO.N,Net-(J1-In)*%
G36*
X187770634Y-114474524D02*
G01*
X187770704Y-114474502D01*
X187770769Y-114474535D01*
X187772812Y-114474699D01*
X187876961Y-114497184D01*
X187881148Y-114499000D01*
X187882782Y-114500131D01*
X187887566Y-114507311D01*
X187887881Y-114508788D01*
X187888003Y-114513003D01*
X187826876Y-114911247D01*
X187825316Y-114915537D01*
X187824126Y-114917500D01*
X187817766Y-114922553D01*
X187816735Y-114922891D01*
X187813090Y-114923473D01*
X187710833Y-114923473D01*
X187706353Y-114922581D01*
X187703745Y-114921500D01*
X187698255Y-114916815D01*
X187698107Y-114916574D01*
X187697494Y-114915246D01*
X187697415Y-114915167D01*
X187697415Y-114915073D01*
X187696947Y-114914059D01*
X187637207Y-114729800D01*
X187636674Y-114725278D01*
X187637012Y-114720989D01*
X187638248Y-114716608D01*
X187757359Y-114482573D01*
X187760180Y-114478990D01*
X187762190Y-114477272D01*
X187769185Y-114474482D01*
X187769215Y-114474480D01*
X187769747Y-114474453D01*
X187770634Y-114474524D01*
G37*
%TD.AperFunction*%
%TD*%
%TA.AperFunction,Conductor*%
%TO.N,/blpix*%
G36*
X185985032Y-112561159D02*
G01*
X185987744Y-112562283D01*
X185993189Y-112566891D01*
X185993244Y-112566979D01*
X185994321Y-112569192D01*
X186131434Y-112947353D01*
X186132123Y-112951860D01*
X186132044Y-112953638D01*
X186128254Y-112961751D01*
X186128250Y-112961754D01*
X186127376Y-112962553D01*
X186122029Y-112965337D01*
X185919894Y-113010420D01*
X185917347Y-113010701D01*
X185914827Y-113010701D01*
X185912280Y-113010420D01*
X185710668Y-112965454D01*
X185706495Y-112963613D01*
X185705036Y-112962588D01*
X185700233Y-112955034D01*
X185700028Y-112953857D01*
X185700555Y-112947860D01*
X185700739Y-112947353D01*
X185837498Y-112570167D01*
X185839861Y-112566264D01*
X185841842Y-112564097D01*
X185847999Y-112560556D01*
X185848098Y-112560535D01*
X185849860Y-112560346D01*
X185849953Y-112560303D01*
X185850024Y-112560328D01*
X185850574Y-112560270D01*
X185980557Y-112560270D01*
X185985032Y-112561159D01*
G37*
%TD.AperFunction*%
%TD*%
%TA.AperFunction,Conductor*%
%TO.N,Net-(J5-In)*%
G36*
X181194432Y-111143737D02*
G01*
X181198001Y-111145289D01*
X181202642Y-111147307D01*
X181202643Y-111147308D01*
X181203400Y-111148092D01*
X181206402Y-111153672D01*
X181251422Y-111355525D01*
X181251703Y-111358072D01*
X181251703Y-111360591D01*
X181251422Y-111363138D01*
X181206537Y-111564386D01*
X181204696Y-111568559D01*
X181203673Y-111570017D01*
X181196116Y-111574821D01*
X181196106Y-111574823D01*
X181195896Y-111574859D01*
X181195028Y-111575011D01*
X181188735Y-111574371D01*
X180810851Y-111425602D01*
X180807009Y-111423131D01*
X180804844Y-111421040D01*
X180801274Y-111412827D01*
X180801272Y-111412624D01*
X180801272Y-111307127D01*
X180802161Y-111302653D01*
X180803314Y-111299869D01*
X180809643Y-111293538D01*
X180809773Y-111293485D01*
X181188164Y-111144516D01*
X181192652Y-111143706D01*
X181194432Y-111143737D01*
G37*
%TD.AperFunction*%
%TD*%
%TA.AperFunction,Conductor*%
%TO.N,/SPI_MISO0_P*%
G36*
X180961837Y-120342919D02*
G01*
X180964511Y-120343959D01*
X181218414Y-120480570D01*
X181311876Y-120530856D01*
X181315394Y-120533758D01*
X181316521Y-120535139D01*
X181319099Y-120543714D01*
X181319098Y-120543718D01*
X181318956Y-120545119D01*
X181317192Y-120550213D01*
X181205852Y-120725475D01*
X181204249Y-120727474D01*
X181202474Y-120729249D01*
X181200475Y-120730852D01*
X181025500Y-120842010D01*
X181021242Y-120843659D01*
X181019487Y-120843966D01*
X181010748Y-120842016D01*
X181010739Y-120842010D01*
X181009595Y-120841206D01*
X181006018Y-120837177D01*
X180945918Y-120725475D01*
X180819374Y-120490281D01*
X180818038Y-120485919D01*
X180817760Y-120483175D01*
X180819364Y-120475984D01*
X180819566Y-120475645D01*
X180821322Y-120473395D01*
X180947773Y-120346944D01*
X180951563Y-120344411D01*
X180954111Y-120343356D01*
X180961450Y-120342822D01*
X180961837Y-120342919D01*
G37*
%TD.AperFunction*%
%TD*%
%TA.AperFunction,Conductor*%
%TO.N,/SR_rb*%
G36*
X202065243Y-128078427D02*
G01*
X202066011Y-128079274D01*
X202334347Y-128405944D01*
X202336950Y-128414512D01*
X202332732Y-128422411D01*
X202325339Y-128425070D01*
X202000033Y-128425999D01*
X201999967Y-128425999D01*
X201674660Y-128425070D01*
X201666396Y-128421619D01*
X201662993Y-128413337D01*
X201665651Y-128405946D01*
X201933989Y-128079273D01*
X201941888Y-128075056D01*
X201943030Y-128075000D01*
X202056970Y-128075000D01*
X202065243Y-128078427D01*
G37*
%TD.AperFunction*%
%TD*%
%TA.AperFunction,Conductor*%
%TO.N,/Inj*%
G36*
X189428806Y-119545525D02*
G01*
X189630055Y-119590410D01*
X189634225Y-119592250D01*
X189635686Y-119593275D01*
X189635689Y-119593280D01*
X189635694Y-119593281D01*
X189635696Y-119593283D01*
X189638096Y-119597068D01*
X189640489Y-119600831D01*
X189640492Y-119600845D01*
X189640679Y-119601919D01*
X189640039Y-119608212D01*
X189491271Y-119986097D01*
X189488804Y-119989935D01*
X189486714Y-119992101D01*
X189478503Y-119995675D01*
X189478294Y-119995677D01*
X189372795Y-119995677D01*
X189368317Y-119994786D01*
X189365536Y-119993634D01*
X189359205Y-119987302D01*
X189359127Y-119987111D01*
X189210185Y-119608786D01*
X189209374Y-119604296D01*
X189209405Y-119602517D01*
X189212974Y-119594306D01*
X189213762Y-119593545D01*
X189219339Y-119590544D01*
X189421193Y-119545525D01*
X189423740Y-119545245D01*
X189426260Y-119545245D01*
X189428806Y-119545525D01*
G37*
%TD.AperFunction*%
%TD*%
%TA.AperFunction,Conductor*%
%TO.N,/SPI_left_CLK*%
G36*
X158557159Y-99118957D02*
G01*
X158557536Y-99119533D01*
X159415186Y-100515731D01*
X159416597Y-100524574D01*
X159413490Y-100530128D01*
X159283717Y-100659901D01*
X159275444Y-100663328D01*
X159271734Y-100662724D01*
X158464483Y-100392787D01*
X158457723Y-100386913D01*
X158457026Y-100385181D01*
X158149076Y-99399697D01*
X158149879Y-99390778D01*
X158153540Y-99386617D01*
X158540868Y-99116064D01*
X158549612Y-99114137D01*
X158557159Y-99118957D01*
G37*
%TD.AperFunction*%
%TD*%
%TA.AperFunction,Conductor*%
%TO.N,/VCasc2!*%
G36*
X191003810Y-120020525D02*
G01*
X191206825Y-120065804D01*
X191210995Y-120067644D01*
X191212456Y-120068669D01*
X191212458Y-120068673D01*
X191212462Y-120068674D01*
X191214675Y-120072160D01*
X191217259Y-120076225D01*
X191217261Y-120076234D01*
X191217553Y-120077907D01*
X191217409Y-120082629D01*
X191127684Y-120459422D01*
X191125780Y-120463572D01*
X191124276Y-120465650D01*
X191117996Y-120470044D01*
X191117338Y-120470231D01*
X191114140Y-120470677D01*
X190886572Y-120470677D01*
X190882092Y-120469785D01*
X190879723Y-120468803D01*
X190873996Y-120463713D01*
X190873661Y-120463115D01*
X190873419Y-120462497D01*
X190873392Y-120462470D01*
X190873392Y-120462426D01*
X190872487Y-120460111D01*
X190782615Y-120082703D01*
X190782444Y-120078146D01*
X190782725Y-120076388D01*
X190782727Y-120076384D01*
X190782726Y-120076381D01*
X190782726Y-120076378D01*
X190785070Y-120072571D01*
X190787413Y-120068761D01*
X190788798Y-120067758D01*
X190793105Y-120065820D01*
X190996197Y-120020525D01*
X190998744Y-120020245D01*
X191001264Y-120020245D01*
X191003810Y-120020525D01*
G37*
%TD.AperFunction*%
%TD*%
%TA.AperFunction,Conductor*%
%TO.N,VSSA*%
G36*
X161249448Y-128078427D02*
G01*
X161252425Y-128083486D01*
X161345751Y-128410130D01*
X161344729Y-128419026D01*
X161337715Y-128424594D01*
X161334534Y-128425044D01*
X161000033Y-128425999D01*
X160999967Y-128425999D01*
X160665465Y-128425044D01*
X160657201Y-128421593D01*
X160653798Y-128413311D01*
X160654247Y-128410133D01*
X160747575Y-128083485D01*
X160753143Y-128076472D01*
X160758825Y-128075000D01*
X161241175Y-128075000D01*
X161249448Y-128078427D01*
G37*
%TD.AperFunction*%
%TD*%
%TA.AperFunction,Conductor*%
%TO.N,/SR_out_CK1*%
G36*
X176660283Y-116389804D02*
G01*
X177034690Y-116555095D01*
X177040875Y-116561571D01*
X177040668Y-116570523D01*
X177039841Y-116572072D01*
X176927296Y-116749232D01*
X176923694Y-116752834D01*
X176746534Y-116865379D01*
X176737713Y-116866922D01*
X176730384Y-116861777D01*
X176729557Y-116860228D01*
X176564266Y-116485821D01*
X176564060Y-116476871D01*
X176566695Y-116472827D01*
X176647288Y-116392234D01*
X176655560Y-116388808D01*
X176660283Y-116389804D01*
G37*
%TD.AperFunction*%
%TD*%
%TA.AperFunction,Conductor*%
%TO.N,Net-(J12-Pin_2)*%
G36*
X209361185Y-89317492D02*
G01*
X209366801Y-89324350D01*
X209791317Y-90708265D01*
X209790467Y-90717179D01*
X209788404Y-90719969D01*
X209709969Y-90798404D01*
X209701696Y-90801831D01*
X209698265Y-90801317D01*
X208314350Y-90376801D01*
X208307445Y-90371098D01*
X208306567Y-90362279D01*
X208544592Y-89562467D01*
X208550236Y-89555517D01*
X208552464Y-89554593D01*
X209352279Y-89316567D01*
X209361185Y-89317492D01*
G37*
%TD.AperFunction*%
%TD*%
%TA.AperFunction,Conductor*%
%TO.N,/SPI_CLK_N*%
G36*
X197192613Y-125360343D02*
G01*
X197193040Y-125361073D01*
X197381727Y-125711766D01*
X197382629Y-125720676D01*
X197379697Y-125725583D01*
X197250583Y-125854697D01*
X197242310Y-125858124D01*
X197236766Y-125856727D01*
X196886073Y-125668040D01*
X196880412Y-125661103D01*
X196881314Y-125652193D01*
X196881725Y-125651489D01*
X196994839Y-125473434D01*
X196998434Y-125469839D01*
X197176465Y-125356740D01*
X197185284Y-125355198D01*
X197192613Y-125360343D01*
G37*
%TD.AperFunction*%
%TD*%
%TA.AperFunction,Conductor*%
%TO.N,/SPI_right_MISO0*%
G36*
X198637846Y-118080932D02*
G01*
X198638817Y-118081591D01*
X198642784Y-118086174D01*
X198817040Y-118445679D01*
X198818192Y-118450098D01*
X198818361Y-118452984D01*
X198816606Y-118459863D01*
X198816513Y-118460012D01*
X198815461Y-118461334D01*
X198815424Y-118461443D01*
X198815344Y-118461481D01*
X198814861Y-118462090D01*
X198688347Y-118588604D01*
X198684551Y-118591141D01*
X198682139Y-118592140D01*
X198674561Y-118592612D01*
X198673968Y-118592449D01*
X198671084Y-118591220D01*
X198336248Y-118391877D01*
X198332859Y-118388825D01*
X198331790Y-118387393D01*
X198329589Y-118378719D01*
X198329838Y-118377003D01*
X198331417Y-118372616D01*
X198430034Y-118210421D01*
X198431604Y-118208384D01*
X198433365Y-118206557D01*
X198435346Y-118204913D01*
X198623101Y-118081184D01*
X198627323Y-118079467D01*
X198629083Y-118079129D01*
X198637846Y-118080932D01*
G37*
%TD.AperFunction*%
%TD*%
%TA.AperFunction,Conductor*%
%TO.N,/VCasc2!*%
G36*
X188270165Y-114582750D02*
G01*
X188272847Y-114586915D01*
X188415952Y-114968506D01*
X188415648Y-114977455D01*
X188409105Y-114983569D01*
X188407544Y-114984033D01*
X188202547Y-115029754D01*
X188197453Y-115029754D01*
X187992455Y-114984033D01*
X187985126Y-114978888D01*
X187983583Y-114970067D01*
X187984043Y-114968517D01*
X188127153Y-114586915D01*
X188133267Y-114580372D01*
X188138108Y-114579323D01*
X188261892Y-114579323D01*
X188270165Y-114582750D01*
G37*
%TD.AperFunction*%
%TD*%
%TA.AperFunction,Conductor*%
%TO.N,GND*%
G36*
X166246073Y-128078427D02*
G01*
X166249500Y-128086700D01*
X166249500Y-128413620D01*
X166246073Y-128421893D01*
X166237833Y-128425320D01*
X166000032Y-128425999D01*
X165999966Y-128425999D01*
X165665465Y-128425044D01*
X165657201Y-128421593D01*
X165653798Y-128413311D01*
X165654247Y-128410133D01*
X165747575Y-128083485D01*
X165753143Y-128076472D01*
X165758825Y-128075000D01*
X166237800Y-128075000D01*
X166246073Y-128078427D01*
G37*
%TD.AperFunction*%
%TD*%
%TA.AperFunction,Conductor*%
%TO.N,/SPI_CLK_N*%
G36*
X182425185Y-112693998D02*
G01*
X182426846Y-112694122D01*
X182434841Y-112698155D01*
X182437644Y-112706660D01*
X182437552Y-112707489D01*
X182376467Y-113123803D01*
X182371875Y-113131491D01*
X182364891Y-113133804D01*
X182183967Y-113133804D01*
X182175694Y-113130377D01*
X182172669Y-113125146D01*
X182112135Y-112900322D01*
X182113293Y-112891442D01*
X182114181Y-112890118D01*
X182271150Y-112687765D01*
X182278928Y-112683330D01*
X182281255Y-112683270D01*
X182425185Y-112693998D01*
G37*
%TD.AperFunction*%
%TD*%
%TA.AperFunction,Conductor*%
%TO.N,Net-(JP3-C)*%
G36*
X175556680Y-110922782D02*
G01*
X175559462Y-110923935D01*
X175565794Y-110930265D01*
X175565872Y-110930458D01*
X175714813Y-111308782D01*
X175715624Y-111313272D01*
X175715593Y-111315051D01*
X175712023Y-111323263D01*
X175712022Y-111323264D01*
X175711238Y-111324021D01*
X175705658Y-111327023D01*
X175503807Y-111372043D01*
X175501260Y-111372324D01*
X175498740Y-111372324D01*
X175496193Y-111372043D01*
X175294944Y-111327158D01*
X175290771Y-111325317D01*
X175289312Y-111324292D01*
X175284509Y-111316738D01*
X175284320Y-111315655D01*
X175284957Y-111309359D01*
X175433728Y-110931470D01*
X175436199Y-110927630D01*
X175438290Y-110925465D01*
X175446503Y-110921895D01*
X175446706Y-110921893D01*
X175552205Y-110921893D01*
X175556680Y-110922782D01*
G37*
%TD.AperFunction*%
%TD*%
%TA.AperFunction,Conductor*%
%TO.N,/blpix*%
G36*
X200457689Y-103190998D02*
G01*
X200465018Y-103196143D01*
X200466561Y-103204964D01*
X200466141Y-103206405D01*
X200327796Y-103587965D01*
X200321755Y-103594575D01*
X200316797Y-103595677D01*
X200183203Y-103595677D01*
X200174930Y-103592250D01*
X200172204Y-103587965D01*
X200146108Y-103515994D01*
X200033858Y-103206402D01*
X200034259Y-103197459D01*
X200040869Y-103191418D01*
X200042302Y-103191000D01*
X200247453Y-103145245D01*
X200252547Y-103145245D01*
X200457689Y-103190998D01*
G37*
%TD.AperFunction*%
%TD*%
%TA.AperFunction,Conductor*%
%TO.N,Net-(JP5-B)*%
G36*
X178977530Y-77389592D02*
G01*
X178984482Y-77395236D01*
X178985407Y-77397469D01*
X179223432Y-78197278D01*
X179222507Y-78206185D01*
X179215649Y-78211801D01*
X177831734Y-78636317D01*
X177822820Y-78635467D01*
X177820030Y-78633404D01*
X177741595Y-78554969D01*
X177738168Y-78546696D01*
X177738681Y-78543270D01*
X178163198Y-77159348D01*
X178168901Y-77152445D01*
X178177720Y-77151567D01*
X178977530Y-77389592D01*
G37*
%TD.AperFunction*%
%TD*%
%TA.AperFunction,Conductor*%
%TO.N,/SR_sout*%
G36*
X203096128Y-128075890D02*
G01*
X203099435Y-128077260D01*
X203104477Y-128081269D01*
X203335479Y-128404671D01*
X203337357Y-128408835D01*
X203337733Y-128410461D01*
X203336258Y-128419294D01*
X203329919Y-128424234D01*
X203329074Y-128424506D01*
X203325522Y-128425069D01*
X203000033Y-128425999D01*
X202999967Y-128425999D01*
X202674983Y-128425070D01*
X202670507Y-128424166D01*
X202668965Y-128423522D01*
X202662652Y-128417172D01*
X202662338Y-128409140D01*
X202662610Y-128408294D01*
X202664221Y-128405088D01*
X202895149Y-128081790D01*
X202898475Y-128078667D01*
X202900731Y-128077260D01*
X202901512Y-128076773D01*
X202907704Y-128075000D01*
X203091652Y-128075000D01*
X203096128Y-128075890D01*
G37*
%TD.AperFunction*%
%TD*%
%TA.AperFunction,Conductor*%
%TO.N,/SPI_CLK_P*%
G36*
X196464248Y-125382981D02*
G01*
X196465399Y-125383789D01*
X196468980Y-125387821D01*
X196655623Y-125734714D01*
X196656961Y-125739082D01*
X196657238Y-125741824D01*
X196655645Y-125748993D01*
X196655444Y-125749330D01*
X196654690Y-125750297D01*
X196654660Y-125750400D01*
X196654575Y-125750445D01*
X196653669Y-125751610D01*
X196527228Y-125878051D01*
X196523433Y-125880587D01*
X196520889Y-125881641D01*
X196513539Y-125882173D01*
X196513159Y-125882078D01*
X196510488Y-125881039D01*
X196163122Y-125694142D01*
X196159603Y-125691239D01*
X196158476Y-125689858D01*
X196155899Y-125681286D01*
X196156042Y-125679878D01*
X196157804Y-125674789D01*
X196269152Y-125499514D01*
X196270747Y-125497525D01*
X196272525Y-125495747D01*
X196274514Y-125494152D01*
X196449505Y-125382984D01*
X196453753Y-125381339D01*
X196455516Y-125381031D01*
X196464248Y-125382981D01*
G37*
%TD.AperFunction*%
%TD*%
%TA.AperFunction,Conductor*%
%TO.N,Net-(JP5-B)*%
G36*
X174737422Y-111644305D02*
G01*
X174747722Y-111648786D01*
X175110325Y-111806533D01*
X175114074Y-111809135D01*
X175115311Y-111810416D01*
X175118593Y-111818747D01*
X175118574Y-111819835D01*
X175116752Y-111825905D01*
X175005852Y-112000475D01*
X175004249Y-112002474D01*
X175002474Y-112004249D01*
X175000475Y-112005852D01*
X174826428Y-112116420D01*
X174822170Y-112118069D01*
X174820415Y-112118376D01*
X174811676Y-112116426D01*
X174810784Y-112115800D01*
X174806780Y-112110893D01*
X174760386Y-112004249D01*
X174644769Y-111738488D01*
X174643801Y-111734034D01*
X174643748Y-111731020D01*
X174647028Y-111722691D01*
X174647100Y-111722617D01*
X174721776Y-111647941D01*
X174725566Y-111645408D01*
X174728350Y-111644256D01*
X174737304Y-111644256D01*
X174737422Y-111644305D01*
G37*
%TD.AperFunction*%
%TD*%
%TA.AperFunction,Conductor*%
%TO.N,/SPI_MISO0_P*%
G36*
X180128828Y-112980171D02*
G01*
X180129979Y-112980979D01*
X180133560Y-112985011D01*
X180320203Y-113331904D01*
X180321541Y-113336272D01*
X180321818Y-113339014D01*
X180320225Y-113346183D01*
X180320024Y-113346520D01*
X180319270Y-113347487D01*
X180319240Y-113347590D01*
X180319155Y-113347635D01*
X180318249Y-113348800D01*
X180191808Y-113475241D01*
X180188013Y-113477777D01*
X180185469Y-113478831D01*
X180178119Y-113479363D01*
X180177739Y-113479268D01*
X180175068Y-113478229D01*
X179827702Y-113291332D01*
X179824183Y-113288429D01*
X179823056Y-113287048D01*
X179820479Y-113278476D01*
X179820622Y-113277068D01*
X179822384Y-113271979D01*
X179933732Y-113096704D01*
X179935327Y-113094715D01*
X179937105Y-113092937D01*
X179939094Y-113091342D01*
X180114085Y-112980174D01*
X180118333Y-112978529D01*
X180120096Y-112978221D01*
X180128828Y-112980171D01*
G37*
%TD.AperFunction*%
%TD*%
%TA.AperFunction,Conductor*%
%TO.N,Net-(J1-In)*%
G36*
X202291685Y-116935933D02*
G01*
X202292538Y-116937540D01*
X202456156Y-117313640D01*
X202456314Y-117322593D01*
X202453700Y-117326580D01*
X202376580Y-117403700D01*
X202368307Y-117407127D01*
X202363640Y-117406156D01*
X202109063Y-117295405D01*
X201987539Y-117242537D01*
X201981320Y-117236095D01*
X201981478Y-117227142D01*
X201982326Y-117225543D01*
X202094839Y-117048434D01*
X202098434Y-117044839D01*
X202275536Y-116932330D01*
X202284356Y-116930788D01*
X202291685Y-116935933D01*
G37*
%TD.AperFunction*%
%TD*%
%TA.AperFunction,Conductor*%
%TO.N,/SPI_left_MISO1*%
G36*
X162033401Y-99691157D02*
G01*
X162040729Y-99696301D01*
X162042272Y-99705122D01*
X162042058Y-99705941D01*
X161927503Y-100087343D01*
X161921842Y-100094280D01*
X161916298Y-100095677D01*
X161733702Y-100095677D01*
X161725429Y-100092250D01*
X161722497Y-100087343D01*
X161607941Y-99705941D01*
X161608843Y-99697031D01*
X161615780Y-99691370D01*
X161616571Y-99691163D01*
X161822453Y-99645245D01*
X161827547Y-99645245D01*
X162033401Y-99691157D01*
G37*
%TD.AperFunction*%
%TD*%
%TA.AperFunction,Conductor*%
%TO.N,Net-(J14-Pin_5)*%
G36*
X180417662Y-60858134D02*
G01*
X180420922Y-60860322D01*
X180914266Y-61328904D01*
X180917903Y-61337062D01*
X180944336Y-62287971D01*
X180941141Y-62296336D01*
X180935346Y-62299679D01*
X179765532Y-62577702D01*
X179756691Y-62576281D01*
X179754554Y-62574592D01*
X179676495Y-62496533D01*
X179673068Y-62488260D01*
X179674097Y-62483462D01*
X179756725Y-62299679D01*
X180402193Y-60864006D01*
X180408711Y-60857867D01*
X180417662Y-60858134D01*
G37*
%TD.AperFunction*%
%TD*%
%TA.AperFunction,Conductor*%
%TO.N,/SPI_left_MISO1*%
G36*
X176102252Y-128078427D02*
G01*
X176103500Y-128079900D01*
X176336831Y-128406564D01*
X176338851Y-128415287D01*
X176334110Y-128422885D01*
X176327343Y-128425064D01*
X176000033Y-128425999D01*
X175999967Y-128425999D01*
X175672656Y-128425064D01*
X175664392Y-128421613D01*
X175660989Y-128413331D01*
X175663167Y-128406565D01*
X175896500Y-128079900D01*
X175904098Y-128075159D01*
X175906021Y-128075000D01*
X176093979Y-128075000D01*
X176102252Y-128078427D01*
G37*
%TD.AperFunction*%
%TD*%
%TA.AperFunction,Conductor*%
%TO.N,Net-(J14-Pin_1)*%
G36*
X186681680Y-110055212D02*
G01*
X186684462Y-110056365D01*
X186690794Y-110062695D01*
X186690872Y-110062888D01*
X186839813Y-110441212D01*
X186840624Y-110445702D01*
X186840593Y-110447481D01*
X186837023Y-110455693D01*
X186837022Y-110455694D01*
X186836238Y-110456451D01*
X186830658Y-110459453D01*
X186628807Y-110504473D01*
X186626260Y-110504754D01*
X186623740Y-110504754D01*
X186621193Y-110504473D01*
X186419944Y-110459588D01*
X186415771Y-110457747D01*
X186414312Y-110456722D01*
X186409509Y-110449168D01*
X186409320Y-110448085D01*
X186409957Y-110441789D01*
X186558728Y-110063900D01*
X186561199Y-110060060D01*
X186563290Y-110057895D01*
X186571503Y-110054325D01*
X186571706Y-110054323D01*
X186677205Y-110054323D01*
X186681680Y-110055212D01*
G37*
%TD.AperFunction*%
%TD*%
%TA.AperFunction,Conductor*%
%TO.N,/Enable_SPI_diff*%
G36*
X178102252Y-128078427D02*
G01*
X178103500Y-128079900D01*
X178336831Y-128406564D01*
X178338851Y-128415287D01*
X178334110Y-128422885D01*
X178327343Y-128425064D01*
X178000033Y-128425999D01*
X177999967Y-128425999D01*
X177672656Y-128425064D01*
X177664392Y-128421613D01*
X177660989Y-128413331D01*
X177663167Y-128406565D01*
X177896500Y-128079900D01*
X177904098Y-128075159D01*
X177906021Y-128075000D01*
X178093979Y-128075000D01*
X178102252Y-128078427D01*
G37*
%TD.AperFunction*%
%TD*%
%TA.AperFunction,Conductor*%
%TO.N,/SR_load*%
G36*
X206077330Y-124223164D02*
G01*
X206083550Y-124229607D01*
X206084082Y-124231346D01*
X206129754Y-124436126D01*
X206129754Y-124441220D01*
X206084082Y-124645999D01*
X206078937Y-124653328D01*
X206070116Y-124654871D01*
X206068377Y-124654339D01*
X205686737Y-124504091D01*
X205680294Y-124497871D01*
X205679323Y-124493204D01*
X205679323Y-124384141D01*
X205682750Y-124375868D01*
X205686737Y-124373254D01*
X206068379Y-124223006D01*
X206077330Y-124223164D01*
G37*
%TD.AperFunction*%
%TD*%
%TA.AperFunction,Conductor*%
%TO.N,/SPI_CLK_P*%
G36*
X197206309Y-128112100D02*
G01*
X197206779Y-128112371D01*
X197209208Y-128114234D01*
X197338393Y-128243419D01*
X197340842Y-128247009D01*
X197342489Y-128250780D01*
X197343458Y-128255013D01*
X197349628Y-128415360D01*
X197348911Y-128419867D01*
X197347816Y-128422829D01*
X197342363Y-128429087D01*
X196669943Y-128788996D01*
X196665578Y-128790324D01*
X196664454Y-128790435D01*
X196663804Y-128790499D01*
X196655234Y-128787907D01*
X196655220Y-128787895D01*
X196655029Y-128787738D01*
X196651111Y-128781552D01*
X196651020Y-128781190D01*
X196650667Y-128778360D01*
X196650016Y-128434097D01*
X196650896Y-128429623D01*
X196652158Y-128426561D01*
X196657127Y-128420888D01*
X197191989Y-128112444D01*
X197196310Y-128110980D01*
X197198946Y-128110635D01*
X197206309Y-128112100D01*
G37*
%TD.AperFunction*%
%TD*%
%TA.AperFunction,Conductor*%
%TO.N,/SPI_right_CSN*%
G36*
X209131610Y-106917161D02*
G01*
X209133030Y-106921445D01*
X209175203Y-107254431D01*
X209172843Y-107263069D01*
X209170784Y-107265133D01*
X208006916Y-108171309D01*
X207998283Y-108173687D01*
X207991455Y-108170350D01*
X207863667Y-108042562D01*
X207860240Y-108034289D01*
X207861785Y-108028478D01*
X208205207Y-107428902D01*
X208209603Y-107424533D01*
X209115671Y-106912727D01*
X209124557Y-106911643D01*
X209131610Y-106917161D01*
G37*
%TD.AperFunction*%
%TD*%
%TA.AperFunction,Conductor*%
%TO.N,/SR_ldtdac*%
G36*
X186952377Y-115969852D02*
G01*
X186953528Y-115970660D01*
X186957109Y-115974692D01*
X187143752Y-116321585D01*
X187145090Y-116325953D01*
X187145367Y-116328695D01*
X187143774Y-116335864D01*
X187143573Y-116336201D01*
X187142819Y-116337168D01*
X187142789Y-116337271D01*
X187142704Y-116337316D01*
X187141798Y-116338481D01*
X187015357Y-116464922D01*
X187011562Y-116467458D01*
X187009018Y-116468512D01*
X187001668Y-116469044D01*
X187001288Y-116468949D01*
X186998617Y-116467910D01*
X186651251Y-116281013D01*
X186647732Y-116278110D01*
X186646605Y-116276729D01*
X186644028Y-116268157D01*
X186644171Y-116266749D01*
X186645933Y-116261660D01*
X186757281Y-116086385D01*
X186758876Y-116084396D01*
X186760654Y-116082618D01*
X186762643Y-116081023D01*
X186937634Y-115969855D01*
X186941882Y-115968210D01*
X186943645Y-115967902D01*
X186952377Y-115969852D01*
G37*
%TD.AperFunction*%
%TD*%
%TA.AperFunction,Conductor*%
%TO.N,/SR_rb*%
G36*
X185457326Y-114840917D02*
G01*
X185464655Y-114846062D01*
X185466198Y-114854883D01*
X185465666Y-114856622D01*
X185315419Y-115238263D01*
X185309199Y-115244706D01*
X185304532Y-115245677D01*
X185195468Y-115245677D01*
X185187195Y-115242250D01*
X185184581Y-115238263D01*
X185034333Y-114856622D01*
X185034491Y-114847669D01*
X185040934Y-114841449D01*
X185042666Y-114840918D01*
X185247453Y-114795245D01*
X185252547Y-114795245D01*
X185457326Y-114840917D01*
G37*
%TD.AperFunction*%
%TD*%
%TA.AperFunction,Conductor*%
%TO.N,Net-(J4-In)*%
G36*
X178247260Y-110479421D02*
G01*
X178253480Y-110485864D01*
X178254012Y-110487603D01*
X178299684Y-110692383D01*
X178299684Y-110697477D01*
X178254012Y-110902256D01*
X178248867Y-110909585D01*
X178240046Y-110911128D01*
X178238307Y-110910596D01*
X177856667Y-110760348D01*
X177850224Y-110754128D01*
X177849253Y-110749461D01*
X177849253Y-110640398D01*
X177852680Y-110632125D01*
X177856667Y-110629511D01*
X178238309Y-110479263D01*
X178247260Y-110479421D01*
G37*
%TD.AperFunction*%
%TD*%
%TA.AperFunction,Conductor*%
%TO.N,/SPI_right_MISO1*%
G36*
X193805939Y-116232940D02*
G01*
X194187344Y-116347497D01*
X194194280Y-116353157D01*
X194195677Y-116358701D01*
X194195677Y-116541298D01*
X194192250Y-116549571D01*
X194187343Y-116552503D01*
X193805941Y-116667058D01*
X193797031Y-116666156D01*
X193791370Y-116659219D01*
X193791161Y-116658421D01*
X193745245Y-116452546D01*
X193745245Y-116447453D01*
X193791157Y-116241596D01*
X193796301Y-116234270D01*
X193805122Y-116232727D01*
X193805939Y-116232940D01*
G37*
%TD.AperFunction*%
%TD*%
%TA.AperFunction,Conductor*%
%TO.N,/blpix*%
G36*
X189069967Y-118880434D02*
G01*
X189077296Y-118885579D01*
X189078839Y-118894400D01*
X189078802Y-118894563D01*
X188988016Y-119275810D01*
X188982766Y-119283065D01*
X188976634Y-119284800D01*
X188745116Y-119284800D01*
X188736843Y-119281373D01*
X188733734Y-119275810D01*
X188642947Y-118894563D01*
X188644364Y-118885721D01*
X188651619Y-118880471D01*
X188651681Y-118880456D01*
X188858328Y-118834368D01*
X188863422Y-118834368D01*
X189069967Y-118880434D01*
G37*
%TD.AperFunction*%
%TD*%
%TA.AperFunction,Conductor*%
%TO.N,/hold*%
G36*
X191674571Y-121607750D02*
G01*
X191677503Y-121612657D01*
X191792058Y-121994058D01*
X191791156Y-122002968D01*
X191784219Y-122008629D01*
X191783400Y-122008843D01*
X191577547Y-122054754D01*
X191572453Y-122054754D01*
X191366599Y-122008843D01*
X191359270Y-122003698D01*
X191357727Y-121994877D01*
X191357941Y-121994058D01*
X191472497Y-121612657D01*
X191478158Y-121605720D01*
X191483702Y-121604323D01*
X191666298Y-121604323D01*
X191674571Y-121607750D01*
G37*
%TD.AperFunction*%
%TD*%
%TA.AperFunction,Conductor*%
%TO.N,/SPI_right_MISO1*%
G36*
X206102252Y-128078427D02*
G01*
X206103500Y-128079900D01*
X206336831Y-128406564D01*
X206338851Y-128415287D01*
X206334110Y-128422885D01*
X206327343Y-128425064D01*
X206000033Y-128425999D01*
X205999967Y-128425999D01*
X205672656Y-128425064D01*
X205664392Y-128421613D01*
X205660989Y-128413331D01*
X205663167Y-128406565D01*
X205896500Y-128079900D01*
X205904098Y-128075159D01*
X205906021Y-128075000D01*
X206093979Y-128075000D01*
X206102252Y-128078427D01*
G37*
%TD.AperFunction*%
%TD*%
%TA.AperFunction,Conductor*%
%TO.N,Net-(J14-Pin_1)*%
G36*
X197582326Y-85140917D02*
G01*
X197589655Y-85146062D01*
X197591198Y-85154883D01*
X197590666Y-85156622D01*
X197440419Y-85538263D01*
X197434199Y-85544706D01*
X197429532Y-85545677D01*
X197320468Y-85545677D01*
X197312195Y-85542250D01*
X197309581Y-85538263D01*
X197159333Y-85156622D01*
X197159491Y-85147669D01*
X197165934Y-85141449D01*
X197167666Y-85140918D01*
X197372453Y-85095245D01*
X197377547Y-85095245D01*
X197582326Y-85140917D01*
G37*
%TD.AperFunction*%
%TD*%
%TA.AperFunction,Conductor*%
%TO.N,Net-(J14-Pin_4)*%
G36*
X187477319Y-110972028D02*
G01*
X187477466Y-110972173D01*
X187552066Y-111046773D01*
X187554602Y-111050568D01*
X187555754Y-111053349D01*
X187555754Y-111062304D01*
X187555674Y-111062494D01*
X187393478Y-111435324D01*
X187390876Y-111439073D01*
X187389594Y-111440311D01*
X187381263Y-111443593D01*
X187380175Y-111443574D01*
X187374105Y-111441752D01*
X187199535Y-111330852D01*
X187197536Y-111329249D01*
X187195761Y-111327474D01*
X187194158Y-111325475D01*
X187083588Y-111151425D01*
X187081942Y-111147173D01*
X187081634Y-111145413D01*
X187083583Y-111136678D01*
X187084212Y-111135782D01*
X187089114Y-111131782D01*
X187461519Y-110969769D01*
X187465978Y-110968801D01*
X187468988Y-110968748D01*
X187477319Y-110972028D01*
G37*
%TD.AperFunction*%
%TD*%
%TA.AperFunction,Conductor*%
%TO.N,/SPI_left_CSN*%
G36*
X157847806Y-105756314D02*
G01*
X157848521Y-105756732D01*
X158026562Y-105869837D01*
X158030163Y-105873438D01*
X158143258Y-106051463D01*
X158144801Y-106060284D01*
X158139656Y-106067613D01*
X158138926Y-106068040D01*
X157788233Y-106256727D01*
X157779323Y-106257629D01*
X157774416Y-106254697D01*
X157645302Y-106125583D01*
X157641875Y-106117310D01*
X157643271Y-106111767D01*
X157831960Y-105761072D01*
X157838896Y-105755412D01*
X157847806Y-105756314D01*
G37*
%TD.AperFunction*%
%TD*%
%TA.AperFunction,Conductor*%
%TO.N,/SPI_MISO0_N*%
G36*
X180801620Y-112731177D02*
G01*
X180802047Y-112731907D01*
X180990734Y-113082600D01*
X180991636Y-113091510D01*
X180988704Y-113096417D01*
X180859590Y-113225531D01*
X180851317Y-113228958D01*
X180845773Y-113227561D01*
X180495080Y-113038874D01*
X180489419Y-113031937D01*
X180490321Y-113023027D01*
X180490732Y-113022323D01*
X180603846Y-112844268D01*
X180607441Y-112840673D01*
X180785472Y-112727574D01*
X180794291Y-112726032D01*
X180801620Y-112731177D01*
G37*
%TD.AperFunction*%
%TD*%
%TA.AperFunction,Conductor*%
%TO.N,Net-(JP4-B)*%
G36*
X182965930Y-79073546D02*
G01*
X182967534Y-79074397D01*
X183144635Y-79186905D01*
X183148236Y-79190506D01*
X183260741Y-79367603D01*
X183262284Y-79376424D01*
X183257139Y-79383753D01*
X183255532Y-79384606D01*
X182879432Y-79548224D01*
X182870479Y-79548382D01*
X182866492Y-79545768D01*
X182789372Y-79468648D01*
X182785945Y-79460375D01*
X182786916Y-79455708D01*
X182950536Y-79079605D01*
X182956977Y-79073388D01*
X182965930Y-79073546D01*
G37*
%TD.AperFunction*%
%TD*%
%TA.AperFunction,Conductor*%
%TO.N,Net-(J14-Pin_12)*%
G36*
X201853806Y-103170525D02*
G01*
X202055055Y-103215410D01*
X202059225Y-103217250D01*
X202060686Y-103218275D01*
X202060689Y-103218280D01*
X202060694Y-103218281D01*
X202060696Y-103218283D01*
X202063096Y-103222068D01*
X202065489Y-103225831D01*
X202065492Y-103225845D01*
X202065679Y-103226919D01*
X202065039Y-103233212D01*
X201916271Y-103611097D01*
X201913804Y-103614935D01*
X201911714Y-103617101D01*
X201903503Y-103620675D01*
X201903294Y-103620677D01*
X201797795Y-103620677D01*
X201793317Y-103619786D01*
X201790536Y-103618634D01*
X201784205Y-103612302D01*
X201784127Y-103612111D01*
X201635185Y-103233786D01*
X201634374Y-103229296D01*
X201634405Y-103227517D01*
X201637974Y-103219306D01*
X201638762Y-103218545D01*
X201644339Y-103215544D01*
X201846193Y-103170525D01*
X201848740Y-103170245D01*
X201851260Y-103170245D01*
X201853806Y-103170525D01*
G37*
%TD.AperFunction*%
%TD*%
%TA.AperFunction,Conductor*%
%TO.N,Net-(J1-In)*%
G36*
X201836359Y-116693843D02*
G01*
X201847722Y-116698786D01*
X202212460Y-116857462D01*
X202218679Y-116863904D01*
X202218521Y-116872857D01*
X202217668Y-116874464D01*
X202105163Y-117051561D01*
X202101561Y-117055163D01*
X201924464Y-117167668D01*
X201915643Y-117169211D01*
X201908314Y-117164066D01*
X201907465Y-117162467D01*
X201743843Y-116786359D01*
X201743685Y-116777406D01*
X201746297Y-116773421D01*
X201823420Y-116696298D01*
X201831692Y-116692872D01*
X201836359Y-116693843D01*
G37*
%TD.AperFunction*%
%TD*%
%TA.AperFunction,Conductor*%
%TO.N,/SPI_MISO0_N*%
G36*
X181563232Y-120268271D02*
G01*
X181818414Y-120405570D01*
X181913926Y-120456959D01*
X181919587Y-120463896D01*
X181918685Y-120472806D01*
X181918258Y-120473536D01*
X181805163Y-120651561D01*
X181801561Y-120655163D01*
X181623536Y-120768258D01*
X181614715Y-120769801D01*
X181607386Y-120764656D01*
X181606959Y-120763926D01*
X181576897Y-120708052D01*
X181575500Y-120702508D01*
X181575500Y-120675564D01*
X181575499Y-120675562D01*
X181549911Y-120580063D01*
X181549909Y-120580059D01*
X181500477Y-120494441D01*
X181500473Y-120494436D01*
X181430563Y-120424526D01*
X181430562Y-120424525D01*
X181430557Y-120424522D01*
X181424425Y-120420981D01*
X181419972Y-120416393D01*
X181418270Y-120413230D01*
X181417370Y-120404323D01*
X181420300Y-120399418D01*
X181549417Y-120270301D01*
X181557689Y-120266875D01*
X181563232Y-120268271D01*
G37*
%TD.AperFunction*%
%TD*%
%TA.AperFunction,Conductor*%
%TO.N,/VCasc2!*%
G36*
X191124036Y-127557750D02*
G01*
X191127145Y-127563313D01*
X191217927Y-127944559D01*
X191216510Y-127953401D01*
X191209255Y-127958651D01*
X191209092Y-127958688D01*
X191002550Y-128004754D01*
X190997456Y-128004754D01*
X190790907Y-127958688D01*
X190783578Y-127953543D01*
X190782035Y-127944722D01*
X190782060Y-127944611D01*
X190872863Y-127563312D01*
X190878114Y-127556058D01*
X190884245Y-127554323D01*
X191115763Y-127554323D01*
X191124036Y-127557750D01*
G37*
%TD.AperFunction*%
%TD*%
%TA.AperFunction,Conductor*%
%TO.N,/SPI_right_CLK*%
G36*
X199280939Y-116357940D02*
G01*
X199662344Y-116472497D01*
X199669280Y-116478157D01*
X199670677Y-116483701D01*
X199670677Y-116666298D01*
X199667250Y-116674571D01*
X199662343Y-116677503D01*
X199280941Y-116792058D01*
X199272031Y-116791156D01*
X199266370Y-116784219D01*
X199266161Y-116783421D01*
X199220245Y-116577546D01*
X199220245Y-116572453D01*
X199266157Y-116366596D01*
X199271301Y-116359270D01*
X199280122Y-116357727D01*
X199280939Y-116357940D01*
G37*
%TD.AperFunction*%
%TD*%
%TA.AperFunction,Conductor*%
%TO.N,/blpix*%
G36*
X188974032Y-127332750D02*
G01*
X188977141Y-127338313D01*
X189067927Y-127719559D01*
X189066510Y-127728401D01*
X189059255Y-127733651D01*
X189059092Y-127733688D01*
X188852547Y-127779754D01*
X188847453Y-127779754D01*
X188640907Y-127733688D01*
X188633578Y-127728543D01*
X188632035Y-127719722D01*
X188632072Y-127719559D01*
X188722859Y-127338313D01*
X188728109Y-127331058D01*
X188734241Y-127329323D01*
X188965759Y-127329323D01*
X188974032Y-127332750D01*
G37*
%TD.AperFunction*%
%TD*%
%TA.AperFunction,Conductor*%
%TO.N,/SR_ldpatgen*%
G36*
X184728812Y-114245525D02*
G01*
X184931136Y-114290650D01*
X184935304Y-114292488D01*
X184936766Y-114293515D01*
X184936767Y-114293516D01*
X184936768Y-114293516D01*
X184936773Y-114293520D01*
X184939122Y-114297221D01*
X184941569Y-114301069D01*
X184941571Y-114301079D01*
X184941813Y-114302465D01*
X184941492Y-114307843D01*
X184828178Y-114685113D01*
X184826039Y-114689143D01*
X184824298Y-114691277D01*
X184818112Y-114695221D01*
X184817904Y-114695273D01*
X184817731Y-114695317D01*
X184814854Y-114695677D01*
X184636035Y-114695677D01*
X184631555Y-114694785D01*
X184629012Y-114693731D01*
X184623449Y-114688925D01*
X184623247Y-114688587D01*
X184622755Y-114687471D01*
X184622682Y-114687398D01*
X184622682Y-114687305D01*
X184622085Y-114685951D01*
X184508617Y-114308172D01*
X184508181Y-114303632D01*
X184508360Y-114301857D01*
X184508361Y-114301851D01*
X184511313Y-114296364D01*
X184512600Y-114293970D01*
X184512600Y-114293969D01*
X184513692Y-114293078D01*
X184518539Y-114290725D01*
X184721199Y-114245525D01*
X184723746Y-114245245D01*
X184726266Y-114245245D01*
X184728812Y-114245525D01*
G37*
%TD.AperFunction*%
%TD*%
%TA.AperFunction,Conductor*%
%TO.N,Net-(J14-Pin_12)*%
G36*
X190679490Y-113232205D02*
G01*
X191061137Y-113382455D01*
X191067580Y-113388675D01*
X191068551Y-113393342D01*
X191068551Y-113502405D01*
X191065124Y-113510678D01*
X191061137Y-113513292D01*
X190679496Y-113663540D01*
X190670543Y-113663382D01*
X190664323Y-113656939D01*
X190663791Y-113655200D01*
X190618119Y-113450421D01*
X190618119Y-113445327D01*
X190631490Y-113385374D01*
X190663791Y-113240545D01*
X190668936Y-113233218D01*
X190677757Y-113231675D01*
X190679490Y-113232205D01*
G37*
%TD.AperFunction*%
%TD*%
%TA.AperFunction,Conductor*%
%TO.N,/SPI_right_CLK*%
G36*
X209102252Y-128078427D02*
G01*
X209103500Y-128079900D01*
X209336831Y-128406564D01*
X209338851Y-128415287D01*
X209334110Y-128422885D01*
X209327343Y-128425064D01*
X209000033Y-128425999D01*
X208999967Y-128425999D01*
X208672656Y-128425064D01*
X208664392Y-128421613D01*
X208660989Y-128413331D01*
X208663167Y-128406565D01*
X208896500Y-128079900D01*
X208904098Y-128075159D01*
X208906021Y-128075000D01*
X209093979Y-128075000D01*
X209102252Y-128078427D01*
G37*
%TD.AperFunction*%
%TD*%
%TA.AperFunction,Conductor*%
%TO.N,/timestamp_clk*%
G36*
X181772857Y-111156478D02*
G01*
X181774461Y-111157329D01*
X181951562Y-111269837D01*
X181955163Y-111273438D01*
X182067668Y-111450535D01*
X182069211Y-111459356D01*
X182064066Y-111466685D01*
X182062459Y-111467538D01*
X181686359Y-111631156D01*
X181677406Y-111631314D01*
X181673419Y-111628700D01*
X181596299Y-111551580D01*
X181592872Y-111543307D01*
X181593843Y-111538640D01*
X181757463Y-111162537D01*
X181763904Y-111156320D01*
X181772857Y-111156478D01*
G37*
%TD.AperFunction*%
%TD*%
%TA.AperFunction,Conductor*%
%TO.N,Net-(U2A-Qdac<0>)*%
G36*
X187681616Y-112759331D02*
G01*
X188063263Y-112909581D01*
X188069706Y-112915801D01*
X188070677Y-112920468D01*
X188070677Y-113029531D01*
X188067250Y-113037804D01*
X188063263Y-113040418D01*
X187681622Y-113190666D01*
X187672669Y-113190508D01*
X187666449Y-113184065D01*
X187665917Y-113182326D01*
X187620245Y-112977547D01*
X187620245Y-112972453D01*
X187633616Y-112912500D01*
X187665917Y-112767671D01*
X187671062Y-112760344D01*
X187679883Y-112758801D01*
X187681616Y-112759331D01*
G37*
%TD.AperFunction*%
%TD*%
%TA.AperFunction,Conductor*%
%TO.N,Net-(J12-Pin_2)*%
G36*
X189013319Y-114808570D02*
G01*
X189014211Y-114809196D01*
X189018219Y-114814106D01*
X189180228Y-115186507D01*
X189181197Y-115190968D01*
X189181250Y-115193975D01*
X189177970Y-115202307D01*
X189177825Y-115202454D01*
X189103225Y-115277054D01*
X189099430Y-115279590D01*
X189096649Y-115280742D01*
X189087694Y-115280742D01*
X189087504Y-115280662D01*
X189082994Y-115278700D01*
X188834063Y-115170405D01*
X188714673Y-115118465D01*
X188710924Y-115115863D01*
X188709687Y-115114582D01*
X188706405Y-115106251D01*
X188706424Y-115105160D01*
X188708244Y-115099096D01*
X188819152Y-114924514D01*
X188820747Y-114922525D01*
X188822525Y-114920747D01*
X188824514Y-114919152D01*
X188998576Y-114808574D01*
X189002826Y-114806929D01*
X189004588Y-114806621D01*
X189013319Y-114808570D01*
G37*
%TD.AperFunction*%
%TD*%
%TA.AperFunction,Conductor*%
%TO.N,/SPI_left_CSN*%
G36*
X173102252Y-128078427D02*
G01*
X173103500Y-128079900D01*
X173336831Y-128406564D01*
X173338851Y-128415287D01*
X173334110Y-128422885D01*
X173327343Y-128425064D01*
X173000033Y-128425999D01*
X172999967Y-128425999D01*
X172672656Y-128425064D01*
X172664392Y-128421613D01*
X172660989Y-128413331D01*
X172663167Y-128406565D01*
X172896500Y-128079900D01*
X172904098Y-128075159D01*
X172906021Y-128075000D01*
X173093979Y-128075000D01*
X173102252Y-128078427D01*
G37*
%TD.AperFunction*%
%TD*%
%TA.AperFunction,Conductor*%
%TO.N,Net-(JP3-C)*%
G36*
X187601730Y-76153681D02*
G01*
X188985649Y-76578198D01*
X188992554Y-76583901D01*
X188993432Y-76592721D01*
X188755407Y-77392530D01*
X188749763Y-77399482D01*
X188747530Y-77400407D01*
X187947721Y-77638432D01*
X187938814Y-77637507D01*
X187933198Y-77630649D01*
X187508682Y-76246732D01*
X187509532Y-76237820D01*
X187511592Y-76235033D01*
X187590031Y-76156594D01*
X187598303Y-76153168D01*
X187601730Y-76153681D01*
G37*
%TD.AperFunction*%
%TD*%
M02*
