%TF.GenerationSoftware,KiCad,Pcbnew,10.0.4*%
%TF.CreationDate,2026-08-10T13:54:35+02:00*%
%TF.ProjectId,astropix_v5_conn,61737472-6f70-4697-985f-76355f636f6e,rev?*%
%TF.SameCoordinates,Original*%
%TF.FileFunction,Copper,L1,Top*%
%TF.FilePolarity,Positive*%
%FSLAX46Y46*%
G04 Gerber Fmt 4.6, Leading zero omitted, Abs format (unit mm)*
G04 Created by KiCad (PCBNEW 10.0.4) date 2026-08-10 13:54:35*
%MOMM*%
%LPD*%
G01*
G04 APERTURE LIST*
G04 Aperture macros list*
%AMRoundRect*
0 Rectangle with rounded corners*
0 $1 Rounding radius*
0 $2 $3 $4 $5 $6 $7 $8 $9 X,Y pos of 4 corners*
0 Add a 4 corners polygon primitive as box body*
4,1,4,$2,$3,$4,$5,$6,$7,$8,$9,$2,$3,0*
0 Add four circle primitives for the rounded corners*
1,1,$1+$1,$2,$3*
1,1,$1+$1,$4,$5*
1,1,$1+$1,$6,$7*
1,1,$1+$1,$8,$9*
0 Add four rect primitives between the rounded corners*
20,1,$1+$1,$2,$3,$4,$5,0*
20,1,$1+$1,$4,$5,$6,$7,0*
20,1,$1+$1,$6,$7,$8,$9,0*
20,1,$1+$1,$8,$9,$2,$3,0*%
G04 Aperture macros list end*
%TA.AperFunction,EtchedComponent*%
%ADD10C,0.120000*%
%TD*%
%TA.AperFunction,EtchedComponent*%
%ADD11C,0.125000*%
%TD*%
%TA.AperFunction,ComponentPad*%
%ADD12C,2.250000*%
%TD*%
%TA.AperFunction,SMDPad,CuDef*%
%ADD13RoundRect,0.225000X-0.250000X0.225000X-0.250000X-0.225000X0.250000X-0.225000X0.250000X0.225000X0*%
%TD*%
%TA.AperFunction,ComponentPad*%
%ADD14R,1.700000X1.700000*%
%TD*%
%TA.AperFunction,ComponentPad*%
%ADD15O,1.700000X1.700000*%
%TD*%
%TA.AperFunction,SMDPad,CuDef*%
%ADD16C,1.000000*%
%TD*%
%TA.AperFunction,SMDPad,CuDef*%
%ADD17RoundRect,0.200000X-0.275000X0.200000X-0.275000X-0.200000X0.275000X-0.200000X0.275000X0.200000X0*%
%TD*%
%TA.AperFunction,SMDPad,CuDef*%
%ADD18R,0.125000X0.600000*%
%TD*%
%TA.AperFunction,SMDPad,CuDef*%
%ADD19R,19.480000X0.400000*%
%TD*%
%TA.AperFunction,SMDPad,CuDef*%
%ADD20R,0.600000X0.125000*%
%TD*%
%TA.AperFunction,SMDPad,CuDef*%
%ADD21RoundRect,0.250000X-0.325000X-1.100000X0.325000X-1.100000X0.325000X1.100000X-0.325000X1.100000X0*%
%TD*%
%TA.AperFunction,SMDPad,CuDef*%
%ADD22RoundRect,0.200000X-0.200000X-0.275000X0.200000X-0.275000X0.200000X0.275000X-0.200000X0.275000X0*%
%TD*%
%TA.AperFunction,ConnectorPad*%
%ADD23R,0.700000X4.300000*%
%TD*%
%TA.AperFunction,SMDPad,CuDef*%
%ADD24RoundRect,0.225000X-0.225000X-0.250000X0.225000X-0.250000X0.225000X0.250000X-0.225000X0.250000X0*%
%TD*%
%TA.AperFunction,ComponentPad*%
%ADD25C,2.000000*%
%TD*%
%TA.AperFunction,ComponentPad*%
%ADD26C,1.700000*%
%TD*%
%TA.AperFunction,ViaPad*%
%ADD27C,0.450000*%
%TD*%
%TA.AperFunction,Conductor*%
%ADD28C,0.125000*%
%TD*%
%TA.AperFunction,Conductor*%
%ADD29C,0.250000*%
%TD*%
%TA.AperFunction,Conductor*%
%ADD30C,0.450000*%
%TD*%
%TA.AperFunction,Conductor*%
%ADD31C,0.500000*%
%TD*%
%TA.AperFunction,Conductor*%
%ADD32C,0.200000*%
%TD*%
%TA.AperFunction,Conductor*%
%ADD33C,0.150000*%
%TD*%
%TA.AperFunction,Conductor*%
%ADD34C,0.130000*%
%TD*%
%TA.AperFunction,Conductor*%
%ADD35C,0.140000*%
%TD*%
%TA.AperFunction,Conductor*%
%ADD36C,1.000000*%
%TD*%
%TA.AperFunction,Conductor*%
%ADD37C,0.800000*%
%TD*%
%TA.AperFunction,Conductor*%
%ADD38C,0.300000*%
%TD*%
%TA.AperFunction,Conductor*%
%ADD39C,0.160000*%
%TD*%
%TA.AperFunction,Conductor*%
%ADD40C,0.400000*%
%TD*%
%TA.AperFunction,Conductor*%
%ADD41C,0.175000*%
%TD*%
G04 APERTURE END LIST*
%TO.C,U2*%
D10*
X171000000Y-112920000D02*
X171750000Y-112920000D01*
X171350000Y-112570000D02*
X171350000Y-113320000D01*
X171485000Y-93820000D02*
X172235000Y-93820000D01*
X171835000Y-93470000D02*
X171835000Y-94220000D01*
X196720000Y-98130000D02*
X197470000Y-98130000D01*
X197070000Y-97780000D02*
X197070000Y-98530000D01*
D11*
X171750000Y-112920000D02*
G75*
G02*
X170950000Y-112920000I-400000J0D01*
G01*
X170950000Y-112920000D02*
G75*
G02*
X171750000Y-112920000I400000J0D01*
G01*
X172235000Y-93820000D02*
G75*
G02*
X171435000Y-93820000I-400000J0D01*
G01*
X171435000Y-93820000D02*
G75*
G02*
X172235000Y-93820000I400000J0D01*
G01*
X197470000Y-98130000D02*
G75*
G02*
X196670000Y-98130000I-400000J0D01*
G01*
X196670000Y-98130000D02*
G75*
G02*
X197470000Y-98130000I400000J0D01*
G01*
%TD*%
D12*
%TO.P,J4,1,In_1*%
%TO.N,Net-(J4-In)*%
X206700000Y-71800000D03*
%TO.P,J4,2,Ext_2*%
%TO.N,GND*%
X209240000Y-69260000D03*
X204160000Y-69260000D03*
X209240000Y-74340000D03*
X204160000Y-74340000D03*
%TD*%
D13*
%TO.P,C2,1*%
%TO.N,VDD*%
X163675000Y-108150000D03*
%TO.P,C2,2*%
%TO.N,GND*%
X163675000Y-109700000D03*
%TD*%
D14*
%TO.P,JP5,1,A_1*%
%TO.N,GND*%
X178980000Y-74855000D03*
D15*
%TO.P,JP5,2,B_2*%
%TO.N,Net-(JP5-B)*%
X178980000Y-77395000D03*
%TD*%
D16*
%TO.P,FID4,*%
%TO.N,*%
X207500000Y-64125000D03*
%TD*%
D14*
%TO.P,J14,1,Pin_1_1*%
%TO.N,Net-(J14-Pin_1)*%
X170850000Y-61450000D03*
D15*
%TO.P,J14,2,Pin_2_2*%
%TO.N,/blpix*%
X173390000Y-61450000D03*
%TO.P,J14,3,Pin_3_3*%
%TO.N,Net-(J14-Pin_3)*%
X175930000Y-61450000D03*
%TO.P,J14,4,Pin_4_4*%
%TO.N,Net-(J14-Pin_4)*%
X178470000Y-61450000D03*
%TO.P,J14,5,Pin_5_5*%
%TO.N,Net-(J14-Pin_5)*%
X181010000Y-61450000D03*
%TO.P,J14,6,Pin_6_6*%
%TO.N,/ThPix*%
X183550000Y-61450000D03*
%TO.P,J14,7,Pin_7_7*%
%TO.N,unconnected-(J14-Pin_7-Pad7)*%
X186090000Y-61450000D03*
%TO.P,J14,8,Pin_8_8*%
%TO.N,/VCasc2!*%
X188630000Y-61450000D03*
%TO.P,J14,9,Pin_9_9*%
%TO.N,unconnected-(J14-Pin_9-Pad9)*%
X191170000Y-61450000D03*
%TO.P,J14,10,Pin_10_10*%
%TO.N,Net-(J14-Pin_10)*%
X193710000Y-61450000D03*
%TO.P,J14,11,Pin_11_11*%
%TO.N,GND*%
X196250000Y-61450000D03*
%TO.P,J14,12,Pin_12_12*%
%TO.N,Net-(J14-Pin_12)*%
X198790000Y-61450000D03*
%TD*%
D13*
%TO.P,C17,1*%
%TO.N,VDDA*%
X183750000Y-117850000D03*
%TO.P,C17,2*%
%TO.N,GND*%
X183750000Y-119400000D03*
%TD*%
%TO.P,C9,1*%
%TO.N,VSSA*%
X168535000Y-111600000D03*
%TO.P,C9,2*%
%TO.N,GND*%
X168535000Y-113150000D03*
%TD*%
%TO.P,C4,1*%
%TO.N,VDD*%
X162165000Y-108150000D03*
%TO.P,C4,2*%
%TO.N,GND*%
X162165000Y-109700000D03*
%TD*%
D17*
%TO.P,R4,1*%
%TO.N,/interrupt*%
X202075000Y-105450000D03*
%TO.P,R4,2*%
%TO.N,VDD*%
X202075000Y-107100000D03*
%TD*%
%TO.P,R2,1*%
%TO.N,Net-(J1-In)*%
X200050000Y-117825000D03*
%TO.P,R2,2*%
%TO.N,GND*%
X200050000Y-119475000D03*
%TD*%
D18*
%TO.P,U2,B3,chipring_B3*%
%TO.N,Net-(JP5-B)*%
X175470000Y-112050000D03*
%TO.P,U2,B4,sub!_B4*%
%TO.N,suba*%
X175510000Y-113760000D03*
%TO.P,U2,B5,sub!_B5*%
X176440000Y-113770000D03*
%TO.P,U2,B6,dnring_B6*%
%TO.N,Net-(JP3-C)*%
X177320000Y-112000000D03*
%TO.P,U2,B7,pring_pixel_B7*%
%TO.N,Net-(JP4-B)*%
X177750000Y-110640000D03*
%TO.P,U2,B20,VGateComp!_B20*%
%TO.N,Net-(U2A-VGateComp!)*%
X177710000Y-113710000D03*
%TO.P,U2,B21,SR_out_OD_B21*%
%TO.N,/SR_out_0D*%
X178410000Y-112020000D03*
%TO.P,U2,B22,SR_out_CK1_B22*%
%TO.N,/SR_out_CK1*%
X179070000Y-110640000D03*
%TO.P,U2,B23,vpDel_B23*%
%TO.N,Net-(J14-Pin_5)*%
X178240000Y-113670000D03*
%TO.P,U2,B24,pll_clk_B24*%
%TO.N,Net-(J4-In)*%
X179170000Y-111990000D03*
%TO.P,U2,B25,Enable_SPI_diff_B25*%
%TO.N,/Enable_SPI_diff*%
X179730000Y-110640000D03*
%TO.P,U2,B28,SPI_MISO1_P_B28*%
%TO.N,/SPI_MISO1_P*%
X179180000Y-113730000D03*
%TO.P,U2,B29,SPI_MISO1_N_B29*%
%TO.N,/SPI_MISO1_N*%
X179620000Y-113730000D03*
%TO.P,U2,B30,SPI_MISO0_P_B30*%
%TO.N,/SPI_MISO0_P*%
X180372500Y-110640000D03*
%TO.P,U2,B31,SPI_MISO0_N_B31*%
%TO.N,/SPI_MISO0_N*%
X180720000Y-110640000D03*
%TO.P,U2,B33,SPI_MOSI_P_B33*%
%TO.N,/SPI_MOSI_P*%
X180187500Y-113750000D03*
%TO.P,U2,B34,SPI_MOSI_N_B34*%
%TO.N,/SPI_MOSI_N*%
X180550000Y-113750000D03*
%TO.P,U2,B35,SPI_CLK_P_B35*%
%TO.N,/SPI_CLK_P*%
X180870000Y-112040000D03*
%TO.P,U2,B36,SPI_CLK_N_B36*%
%TO.N,/SPI_CLK_N*%
X181265000Y-112060000D03*
%TO.P,U2,B37,SPI_CSN_P_B37*%
%TO.N,/SPI_CSN_P*%
X181100000Y-113750000D03*
%TO.P,U2,B38,SPI_CSN_N_B38*%
%TO.N,/SPI_CSN_N*%
X181530000Y-113730000D03*
%TO.P,U2,B40,HBOut_B40*%
%TO.N,Net-(J5-In)*%
X181847500Y-112060000D03*
%TO.P,U2,B41,timestamp_clk_B41*%
%TO.N,/timestamp_clk*%
X182070000Y-110640000D03*
%TO.P,U2,B42,Clk20_Ext_P_B42*%
%TO.N,/Clk20_Ext_P*%
X181960000Y-113720000D03*
%TO.P,U2,B43,Clk20_Ext_N_B43*%
%TO.N,/Clk20_Ext_N*%
X182440000Y-113710000D03*
%TO.P,U2,B46,interrupt_B46*%
%TO.N,/interrupt*%
X182700000Y-110640000D03*
%TO.P,U2,B47,res_n_B47*%
%TO.N,/res_n*%
X182820000Y-112060000D03*
%TO.P,U2,B48,syncres_B48*%
%TO.N,/syncres*%
X182920000Y-113730000D03*
%TO.P,U2,B49,hold_B49*%
%TO.N,/hold*%
X183290000Y-110640000D03*
%TO.P,U2,B50,SR_ck1_B50*%
%TO.N,/SR_ck1*%
X183550000Y-113750000D03*
%TO.P,U2,B51,SR_ck2_B51*%
%TO.N,/SR_ck2*%
X183640000Y-112040000D03*
%TO.P,U2,B52,SR_load_B52*%
%TO.N,/SR_load*%
X183790000Y-110640000D03*
%TO.P,U2,B53,SR_sin_B53*%
%TO.N,/SR_sin*%
X184227500Y-113770000D03*
%TO.P,U2,B54,SR_rb_B54*%
%TO.N,/SR_rb*%
X184270000Y-111980000D03*
%TO.P,U2,B55,SR_ldtdac_B55*%
%TO.N,/SR_ldtdac*%
X184340000Y-110640000D03*
%TO.P,U2,B56,SR_ldpatgen_B56*%
%TO.N,/SR_ldpatgen*%
X184920000Y-113800000D03*
%TO.P,U2,B57,SR_sout_B57*%
%TO.N,/SR_sout*%
X184842500Y-112060000D03*
%TO.P,U2,B66,VPBias!_B66*%
%TO.N,Net-(J14-Pin_3)*%
X185312500Y-112060000D03*
%TO.P,U2,B67,pamp_B67*%
%TO.N,Net-(J14-Pin_1)*%
X185330000Y-110640000D03*
%TO.P,U2,B68,blpix_B68*%
%TO.N,/blpix*%
X185900000Y-113720000D03*
%TO.P,U2,B69,pload_B69*%
%TO.N,Net-(J14-Pin_4)*%
X185900000Y-112060000D03*
%TO.P,U2,B72,Inj_B72*%
%TO.N,/Inj*%
X186330000Y-112050000D03*
%TO.P,U2,B74,ThPix_B74*%
%TO.N,/ThPix*%
X186972500Y-113710000D03*
%TO.P,U2,B77,ampout_B77*%
%TO.N,Net-(J1-In)*%
X187560000Y-113710000D03*
%TO.P,U2,B78,Qdac<0>_B78*%
%TO.N,Net-(U2A-Qdac<0>)*%
X187430000Y-112060000D03*
%TO.P,U2,B79,Qdac<1>_B79*%
%TO.N,Net-(U2A-Qdac<1>)*%
X187260000Y-110640000D03*
%TO.P,U2,B81,VCasc2!_B81*%
%TO.N,/VCasc2!*%
X188110000Y-112060000D03*
%TO.P,U2,B84,Vtemp1_B84*%
%TO.N,Net-(J12-Pin_1)*%
X188710000Y-112060000D03*
%TO.P,U2,B85,Vtemp2_B85*%
%TO.N,Net-(J12-Pin_2)*%
X188380000Y-110640000D03*
%TO.P,U2,B86,cascpix_B86*%
%TO.N,Net-(J14-Pin_10)*%
X189430000Y-113730000D03*
%TO.P,U2,B93,DigInj_B93*%
%TO.N,/DigInj*%
X189620000Y-112060000D03*
%TO.P,U2,B96,vminusref_B96*%
%TO.N,Net-(J14-Pin_12)*%
X190190000Y-112060000D03*
%TO.P,U2,B97,vminusout_B97*%
%TO.N,Net-(U2A-vminusout)*%
X190100000Y-110640000D03*
%TO.P,U2,B98,vminuspix_B98*%
%TO.N,/vminuspix*%
X191570000Y-113730000D03*
D19*
%TO.P,U2,GNDA_Ring,gnda!_GNDA_Ring*%
%TO.N,GND*%
X184090000Y-109850000D03*
%TO.P,U2,GND_Ring,gnd!_GND_Ring*%
X184090000Y-109175000D03*
D20*
%TO.P,U2,L1,SPI_left_MISO1_L1*%
%TO.N,/SPI_left_MISO1*%
X172370000Y-105630000D03*
%TO.P,U2,L2,SPI_left_MISO0_L2*%
%TO.N,/SPI_left_MISO0*%
X171360000Y-105797500D03*
%TO.P,U2,L3,SPI_left_MOSI_L3*%
%TO.N,/SPI_left_MOSI*%
X172380000Y-106010000D03*
%TO.P,U2,L4,SPI_left_CLK_L4*%
%TO.N,/SPI_left_CLK*%
X171360000Y-106222500D03*
%TO.P,U2,L5,SPI_left_CSN_L5*%
%TO.N,/SPI_left_CSN*%
X172390000Y-106420000D03*
%TO.P,U2,L6,pring4_L6*%
%TO.N,Net-(J2-Pin_5)*%
X172360000Y-104430000D03*
%TO.P,U2,L7,pring3_L7*%
%TO.N,Net-(J2-Pin_4)*%
X171360000Y-104242500D03*
%TO.P,U2,L8,pring2_L8*%
%TO.N,Net-(J2-Pin_3)*%
X172380000Y-104040000D03*
%TO.P,U2,L9,pring1_L9*%
%TO.N,Net-(J2-Pin_2)*%
X171410000Y-103670000D03*
%TO.P,U2,L10,pring0_L10*%
%TO.N,Net-(J2-Pin_1)*%
X172390000Y-103400000D03*
D18*
%TO.P,U2,R1,SPI_right_CSN_R1*%
%TO.N,/SPI_right_CSN*%
X194020000Y-112070000D03*
%TO.P,U2,R2,SPI_right_CLK_R2*%
%TO.N,/SPI_right_CLK*%
X193500000Y-110680000D03*
%TO.P,U2,R3,SPI_right_MOSI_R3*%
%TO.N,/SPI_right_MOSI*%
X193300000Y-112070000D03*
%TO.P,U2,R4,SPI_right_MISO<0>_R4*%
%TO.N,/SPI_right_MISO0*%
X192790000Y-110640000D03*
%TO.P,U2,R5,SPI_right_MISO<1>_R5*%
%TO.N,/SPI_right_MISO1*%
X192537500Y-112060000D03*
D19*
%TO.P,U2,VDDA_Ring,vdda!_VDDA_Ring*%
%TO.N,VDDA*%
X184090000Y-107825000D03*
%TO.P,U2,VDD_Ring,vdd!_VDD_Ring*%
%TO.N,VDD*%
X184090000Y-107150000D03*
%TO.P,U2,VSSA_Ring,vssa!_VSSA_Ring*%
%TO.N,VSSA*%
X184090000Y-108500000D03*
%TD*%
D17*
%TO.P,R3,1*%
%TO.N,Net-(J5-In)*%
X165725000Y-118150000D03*
%TO.P,R3,2*%
%TO.N,GND*%
X165725000Y-119800000D03*
%TD*%
D14*
%TO.P,JP3,1,A_1*%
%TO.N,GND*%
X188750000Y-74855000D03*
D15*
%TO.P,JP3,2,C_2*%
%TO.N,Net-(JP3-C)*%
X188750000Y-77395000D03*
%TO.P,JP3,3,B_3*%
%TO.N,VDDA*%
X188750000Y-79935000D03*
%TD*%
D21*
%TO.P,C15,1*%
%TO.N,GND*%
X167800000Y-76700000D03*
%TO.P,C15,2*%
%TO.N,suba*%
X170750000Y-76700000D03*
%TD*%
D12*
%TO.P,J7,1,In_1*%
%TO.N,/HV_in_ext*%
X160460000Y-77540000D03*
%TO.P,J7,2,Ext_2*%
%TO.N,GND*%
X157920000Y-80080000D03*
X163000000Y-80080000D03*
X157920000Y-75000000D03*
X163000000Y-75000000D03*
%TD*%
D16*
%TO.P,FID3,*%
%TO.N,*%
X167575000Y-64700000D03*
%TD*%
D14*
%TO.P,J2,1,Pin_1_1*%
%TO.N,Net-(J2-Pin_1)*%
X165250000Y-85675000D03*
D15*
%TO.P,J2,2,Pin_2_2*%
%TO.N,Net-(J2-Pin_2)*%
X165250000Y-88215000D03*
%TO.P,J2,3,Pin_3_3*%
%TO.N,Net-(J2-Pin_3)*%
X165250000Y-90755000D03*
%TO.P,J2,4,Pin_4_4*%
%TO.N,Net-(J2-Pin_4)*%
X165250000Y-93295000D03*
%TO.P,J2,5,Pin_5_5*%
%TO.N,Net-(J2-Pin_5)*%
X165250000Y-95835000D03*
%TD*%
D13*
%TO.P,C13,1*%
%TO.N,VDDA*%
X201010000Y-110475000D03*
%TO.P,C13,2*%
%TO.N,GND*%
X201010000Y-112025000D03*
%TD*%
%TO.P,C11,1*%
%TO.N,VSSA*%
X167024000Y-111600000D03*
%TO.P,C11,2*%
%TO.N,GND*%
X167024000Y-113150000D03*
%TD*%
D22*
%TO.P,R1,1*%
%TO.N,/HV_in_ext*%
X168850000Y-73475000D03*
%TO.P,R1,2*%
%TO.N,suba*%
X170500000Y-73475000D03*
%TD*%
D23*
%TO.P,J3,B1,HV*%
%TO.N,unconnected-(J3-HV-PadB1)*%
X156000000Y-130575000D03*
%TO.P,J3,B2*%
%TO.N,N/C*%
X157000000Y-130575000D03*
%TO.P,J3,B3,VDD18*%
%TO.N,unconnected-(J3-VDD18-PadB3)*%
X158000000Y-130575000D03*
%TO.P,J3,B4,VDD18*%
%TO.N,unconnected-(J3-VDD18-PadB4)*%
X159000000Y-130575000D03*
%TO.P,J3,B5,POW4*%
%TO.N,VDD*%
X160000000Y-130575000D03*
%TO.P,J3,B6,POW4*%
X161000000Y-130575000D03*
%TO.P,J3,B7,POW6*%
%TO.N,VDDA*%
X162000000Y-130575000D03*
%TO.P,J3,B8,POW6*%
X163000000Y-130575000D03*
%TO.P,J3,B9,POW8*%
%TO.N,unconnected-(J3-POW8-PadB9)*%
X164000000Y-130575000D03*
%TO.P,J3,B10,POW8*%
%TO.N,unconnected-(J3-POW8-PadB10)*%
X165000000Y-130575000D03*
%TO.P,J3,B11,GND*%
%TO.N,GND*%
X166000000Y-130575000D03*
%TO.P,J3,B12,C1_4*%
%TO.N,unconnected-(J3-C1_4-PadB12)*%
X169000000Y-130575000D03*
%TO.P,J3,B13,C1_3*%
%TO.N,unconnected-(J3-C1_3-PadB13)*%
X170000000Y-130575000D03*
%TO.P,J3,B14,C1_8*%
%TO.N,unconnected-(J3-C1_8-PadB14)*%
X171000000Y-130575000D03*
%TO.P,J3,B15,C1_7*%
%TO.N,unconnected-(J3-C1_7-PadB15)*%
X172000000Y-130575000D03*
%TO.P,J3,B16,FMC_LA24_P*%
%TO.N,/SR_out_CK1*%
X173000000Y-130575000D03*
%TO.P,J3,B17,FMC_LA24_N*%
%TO.N,/SR_out_0D*%
X174000000Y-130575000D03*
%TO.P,J3,B18,FMC_LA22_P*%
%TO.N,/SPI_MISO1_P*%
X175000000Y-130575000D03*
%TO.P,J3,B19,FMC_LA22_N*%
%TO.N,/SPI_MISO1_N*%
X176000000Y-130575000D03*
%TO.P,J3,B20,FMC_LA20_P*%
%TO.N,/SPI_MOSI_P*%
X177000000Y-130575000D03*
%TO.P,J3,B21,FMC_LA20_N*%
%TO.N,/SPI_MOSI_N*%
X178000000Y-130575000D03*
%TO.P,J3,B22,FMC_LA18_CC_P*%
%TO.N,/SPI_CSN_P*%
X179000000Y-130575000D03*
%TO.P,J3,B23,FMC_LA18_CC_N*%
%TO.N,/SPI_CSN_N*%
X180000000Y-130575000D03*
%TO.P,J3,B24,C2_4*%
%TO.N,unconnected-(J3-C2_4-PadB24)*%
X181000000Y-130575000D03*
%TO.P,J3,B25,C2_3*%
%TO.N,unconnected-(J3-C2_3-PadB25)*%
X182000000Y-130575000D03*
%TO.P,J3,B26,C2_8*%
%TO.N,unconnected-(J3-C2_8-PadB26)*%
X183000000Y-130575000D03*
%TO.P,J3,B27,C2_7*%
%TO.N,unconnected-(J3-C2_7-PadB27)*%
X184000000Y-130575000D03*
%TO.P,J3,B28,C3_4*%
%TO.N,unconnected-(J3-C3_4-PadB28)*%
X185000000Y-130575000D03*
%TO.P,J3,B29,C3_3*%
%TO.N,unconnected-(J3-C3_3-PadB29)*%
X186000000Y-130575000D03*
%TO.P,J3,B30,C3_8*%
%TO.N,unconnected-(J3-C3_8-PadB30)*%
X187000000Y-130575000D03*
%TO.P,J3,B31,C3_7*%
%TO.N,unconnected-(J3-C3_7-PadB31)*%
X188000000Y-130575000D03*
%TO.P,J3,B32,C4_4*%
%TO.N,/blpix*%
X189000000Y-130575000D03*
%TO.P,J3,B33,C4_3*%
%TO.N,/ThPix*%
X190000000Y-130575000D03*
%TO.P,J3,B34,C4_8*%
%TO.N,/VCasc2!*%
X191000000Y-130575000D03*
%TO.P,J3,B35,C4_7*%
%TO.N,/vminuspix*%
X192000000Y-130575000D03*
%TO.P,J3,B36,C5_4*%
%TO.N,unconnected-(J3-C5_4-PadB36)*%
X193000000Y-130575000D03*
%TO.P,J3,B37,C5_3*%
%TO.N,unconnected-(J3-C5_3-PadB37)*%
X194000000Y-130575000D03*
%TO.P,J3,B38,C5_8*%
%TO.N,unconnected-(J3-C5_8-PadB38)*%
X195000000Y-130575000D03*
%TO.P,J3,B39,C5_7*%
%TO.N,unconnected-(J3-C5_7-PadB39)*%
X196000000Y-130575000D03*
%TO.P,J3,B40,FMC_LA16_P*%
%TO.N,/SPI_MISO0_P*%
X197000000Y-130575000D03*
%TO.P,J3,B41,FMC_LA16_N*%
%TO.N,/SPI_MISO0_N*%
X198000000Y-130575000D03*
%TO.P,J3,B42,FMC_LA14_P*%
%TO.N,/Clk20_Ext_P*%
X199000000Y-130575000D03*
%TO.P,J3,B43,FMC_LA14_N*%
%TO.N,/Clk20_Ext_N*%
X200000000Y-130575000D03*
%TO.P,J3,B44,FMC_LA12_P*%
%TO.N,/SR_sin*%
X201000000Y-130575000D03*
%TO.P,J3,B45,FMC_LA12_N*%
%TO.N,/syncres*%
X202000000Y-130575000D03*
%TO.P,J3,B46,FMC_LA10_P*%
%TO.N,/res_n*%
X203000000Y-130575000D03*
%TO.P,J3,B47,FMC_LA10_N*%
%TO.N,/hold*%
X204000000Y-130575000D03*
%TO.P,J3,B48,FMC_LA08_P*%
%TO.N,/SR_ck1*%
X205000000Y-130575000D03*
%TO.P,J3,B49,FMC_LA08_N*%
%TO.N,/SR_ck2*%
X206000000Y-130575000D03*
%TO.P,J3,B50,FMC_LA06_P*%
%TO.N,/SR_sin*%
X207000000Y-130575000D03*
%TO.P,J3,B51,FMC_LA06_N*%
%TO.N,/DigInj*%
X208000000Y-130575000D03*
%TO.P,J3,B52,FMC_LA04_P*%
%TO.N,/interrupt*%
X209000000Y-130575000D03*
%TO.P,J3,B53,FMC_LA04_N*%
%TO.N,/SR_load*%
X210000000Y-130575000D03*
%TO.P,J3,B54,FMC_LA02_P*%
X211000000Y-130575000D03*
%TD*%
D14*
%TO.P,JP4,1,A_1*%
%TO.N,GND*%
X183980000Y-74855000D03*
D15*
%TO.P,JP4,2,B_2*%
%TO.N,Net-(JP4-B)*%
X183980000Y-77395000D03*
%TD*%
D12*
%TO.P,J5,1,In_1*%
%TO.N,Net-(J5-In)*%
X160500000Y-118225000D03*
%TO.P,J5,2,Ext_2*%
%TO.N,GND*%
X157960000Y-120765000D03*
X163040000Y-120765000D03*
X157960000Y-115685000D03*
X163040000Y-115685000D03*
%TD*%
D13*
%TO.P,C6,1*%
%TO.N,VSSA*%
X170025000Y-111600000D03*
%TO.P,C6,2*%
%TO.N,GND*%
X170025000Y-113150000D03*
%TD*%
%TO.P,C8,1*%
%TO.N,VDDA*%
X198010000Y-110475000D03*
%TO.P,C8,2*%
%TO.N,GND*%
X198010000Y-112025000D03*
%TD*%
D14*
%TO.P,J8,1,Pin_1_1*%
%TO.N,/interrupt*%
X204575000Y-101525000D03*
D15*
%TO.P,J8,2,Pin_2_2*%
%TO.N,unconnected-(J8-Pin_2-Pad2)*%
X204575000Y-98985000D03*
%TO.P,J8,3,Pin_3_3*%
%TO.N,GND*%
X204575000Y-96445000D03*
%TD*%
D24*
%TO.P,C17,1*%
%TO.N,VDDA*%
X193925000Y-124050000D03*
%TO.P,C17,2*%
%TO.N,GND*%
X195475000Y-124050000D03*
%TD*%
D25*
%TO.P,TP2,1,1_1*%
%TO.N,Net-(U2A-Qdac<1>)*%
X204525000Y-78425000D03*
%TD*%
D13*
%TO.P,C12,1*%
%TO.N,VDD*%
X181350000Y-122575000D03*
%TO.P,C12,2*%
%TO.N,GND*%
X181350000Y-124125000D03*
%TD*%
D14*
%TO.P,J12,1,Pin_1_1*%
%TO.N,Net-(J12-Pin_1)*%
X208550000Y-92100000D03*
D15*
%TO.P,J12,2,Pin_2_2*%
%TO.N,Net-(J12-Pin_2)*%
X208550000Y-89560000D03*
%TO.P,J12,3,Pin_3_3*%
%TO.N,unconnected-(J12-Pin_3-Pad3)*%
X208550000Y-87020000D03*
%TO.P,J12,4,Pin_4_4*%
%TO.N,GND*%
X208550000Y-84480000D03*
%TD*%
D13*
%TO.P,C1,1*%
%TO.N,VDD*%
X165165000Y-108150000D03*
%TO.P,C1,2*%
%TO.N,GND*%
X165165000Y-109700000D03*
%TD*%
D25*
%TO.P,TP1,1,1_1*%
%TO.N,Net-(U2A-Qdac<0>)*%
X209375000Y-78350000D03*
%TD*%
D13*
%TO.P,C10,1*%
%TO.N,VDDA*%
X199500000Y-110475000D03*
%TO.P,C10,2*%
%TO.N,GND*%
X199500000Y-112025000D03*
%TD*%
D22*
%TO.P,R6,1*%
%TO.N,Net-(U2A-vminusout)*%
X190925000Y-116750000D03*
%TO.P,R6,2*%
%TO.N,/vminuspix*%
X192575000Y-116750000D03*
%TD*%
D14*
%TO.P,J9,1,Pin_1_1*%
%TO.N,/SPI_left_CSN*%
X157950000Y-102250000D03*
D26*
%TO.P,J9,2,Pin_2_2*%
%TO.N,/SPI_left_CLK*%
X157950000Y-99710000D03*
%TO.P,J9,3,Pin_3_3*%
%TO.N,/SPI_left_MISO0*%
X157950000Y-97170000D03*
%TO.P,J9,4,Pin_4_4*%
%TO.N,/SPI_left_MISO1*%
X157950000Y-94630000D03*
%TO.P,J9,5,Pin_5_5*%
%TO.N,/SPI_left_MOSI*%
X157950000Y-92090000D03*
%TO.P,J9,6,Pin_6_6*%
%TO.N,GND*%
X157950000Y-89550000D03*
%TD*%
D24*
%TO.P,C16,1*%
%TO.N,VDDA*%
X195350000Y-119100000D03*
%TO.P,C16,2*%
%TO.N,GND*%
X196900000Y-119100000D03*
%TD*%
D21*
%TO.P,C14,1*%
%TO.N,GND*%
X167800000Y-80700000D03*
%TO.P,C14,2*%
%TO.N,suba*%
X170750000Y-80700000D03*
%TD*%
D14*
%TO.P,J10,1,Pin_1_1*%
%TO.N,/SPI_right_MISO1*%
X208575000Y-96500000D03*
D26*
%TO.P,J10,2,Pin_2_2*%
%TO.N,/SPI_right_MISO0*%
X208575000Y-99040000D03*
%TO.P,J10,3,Pin_3_3*%
%TO.N,/SPI_right_MOSI*%
X208575000Y-101580000D03*
%TO.P,J10,4,Pin_4_4*%
%TO.N,/SPI_right_CLK*%
X208575000Y-104120000D03*
%TO.P,J10,5,Pin_5_5*%
%TO.N,/SPI_right_CSN*%
X208575000Y-106660000D03*
%TO.P,J10,6,Pin_6_6*%
%TO.N,GND*%
X208575000Y-109200000D03*
%TD*%
D12*
%TO.P,J1,1,In_1*%
%TO.N,Net-(J1-In)*%
X206600000Y-118225000D03*
%TO.P,J1,2,Ext_2*%
%TO.N,GND*%
X209140000Y-115685000D03*
X204060000Y-115685000D03*
X209140000Y-120765000D03*
X204060000Y-120765000D03*
%TD*%
D24*
%TO.P,C3,1*%
%TO.N,GND*%
X174650000Y-115250000D03*
%TO.P,C3,2*%
%TO.N,Net-(U2A-VGateComp!)*%
X176200000Y-115250000D03*
%TD*%
D27*
%TO.N,Net-(J4-In)*%
X178294930Y-110694930D03*
%TO.N,GND*%
X172862500Y-105049999D03*
X166000000Y-127050001D03*
X167175000Y-109575000D03*
X183594133Y-120082307D03*
X167637500Y-75736500D03*
X191099980Y-74855000D03*
X196225000Y-124425000D03*
X168400000Y-104600000D03*
X196534638Y-111910596D03*
X201142632Y-119277000D03*
X198525000Y-63725000D03*
X164425731Y-122399261D03*
X165305913Y-114244087D03*
X173700000Y-114725000D03*
X182599999Y-124125001D03*
%TO.N,VDD*%
X161000000Y-125149943D03*
X160825000Y-106950000D03*
X181350000Y-121750000D03*
%TO.N,Net-(JP5-B)*%
X175000000Y-112000000D03*
%TO.N,Net-(J14-Pin_1)*%
X197375000Y-85100000D03*
X186625000Y-110500000D03*
%TO.N,/blpix*%
X188850000Y-127775000D03*
X188860875Y-118839123D03*
X200250000Y-103150000D03*
X185916087Y-113005947D03*
%TO.N,Net-(J14-Pin_3)*%
X198550000Y-98500000D03*
X184650000Y-111275004D03*
%TO.N,Net-(J14-Pin_4)*%
X187200012Y-111325000D03*
X199150000Y-99925000D03*
%TO.N,Net-(J14-Pin_5)*%
X175125000Y-112925000D03*
%TO.N,/ThPix*%
X186917654Y-112238756D03*
X199825000Y-96850000D03*
X189950000Y-119075000D03*
X190000000Y-127975000D03*
%TO.N,/VCasc2!*%
X191000004Y-120025000D03*
X191000000Y-128000000D03*
X201000000Y-105590189D03*
X188378140Y-114921860D03*
%TO.N,Net-(J14-Pin_10)*%
X202375000Y-104375000D03*
X190145374Y-113825374D03*
%TO.N,Net-(J14-Pin_12)*%
X190622874Y-113447874D03*
X201850000Y-103175000D03*
%TO.N,VDDA*%
X184825000Y-118425000D03*
X193850000Y-119475000D03*
X196737500Y-110462500D03*
X162999976Y-126649999D03*
X188997748Y-82047748D03*
X193025000Y-124050000D03*
%TO.N,VSSA*%
X165725000Y-111600000D03*
X158800000Y-125274999D03*
%TO.N,/interrupt*%
X194294930Y-105269930D03*
X211000000Y-112475000D03*
X207125000Y-105450000D03*
X182750012Y-111266868D03*
%TO.N,Net-(J1-In)*%
X202100000Y-117050000D03*
X187665000Y-114500000D03*
%TO.N,suba*%
X170587499Y-82536498D03*
X174549998Y-113760000D03*
%TO.N,Net-(JP3-C)*%
X175500000Y-111367570D03*
%TO.N,Net-(JP4-B)*%
X183143073Y-79192068D03*
X176500000Y-111475000D03*
%TO.N,/SR_out_CK1*%
X178750000Y-112575000D03*
X176922133Y-116747671D03*
%TO.N,/Enable_SPI_diff*%
X178099274Y-115509414D03*
%TO.N,/SPI_MISO0_P*%
X179939580Y-113097190D03*
X181200000Y-120725000D03*
%TO.N,/SPI_MISO0_N*%
X181800000Y-120650000D03*
X180609007Y-112845834D03*
%TO.N,/SPI_CLK_P*%
X184225000Y-120499581D03*
X181750000Y-113075000D03*
X196275000Y-125500000D03*
%TO.N,/SPI_CLK_N*%
X182214377Y-112695056D03*
X197000000Y-125475000D03*
X184800000Y-119225000D03*
%TO.N,Net-(J5-In)*%
X181246949Y-111359332D03*
X177042442Y-114821769D03*
%TO.N,/timestamp_clk*%
X181950000Y-111275000D03*
%TO.N,/hold*%
X191575000Y-122050000D03*
X183347512Y-112802502D03*
%TO.N,/SR_ck1*%
X192900000Y-121600000D03*
%TO.N,/SR_ck2*%
X193900000Y-121075000D03*
%TO.N,/SR_load*%
X206125000Y-124438673D03*
X183825308Y-111320869D03*
%TO.N,/SR_sin*%
X192950000Y-120450000D03*
X200330913Y-126250002D03*
%TO.N,/SR_rb*%
X185250000Y-114800000D03*
%TO.N,/SR_ldtdac*%
X186763129Y-116086871D03*
%TO.N,/SR_ldpatgen*%
X184725006Y-114250000D03*
%TO.N,/SR_sout*%
X185781369Y-115402499D03*
%TO.N,/Inj*%
X189425000Y-119550000D03*
%TO.N,Net-(U2A-Qdac<0>)*%
X187625000Y-112975000D03*
%TO.N,Net-(U2A-Qdac<1>)*%
X187875000Y-111325000D03*
%TO.N,Net-(J12-Pin_1)*%
X189770000Y-114825000D03*
%TO.N,Net-(J12-Pin_2)*%
X189050000Y-115125000D03*
%TO.N,/vminuspix*%
X192349999Y-118674999D03*
X192000000Y-128025000D03*
%TO.N,/SPI_left_MISO1*%
X161825000Y-99650000D03*
%TO.N,/SPI_left_MISO0*%
X160625000Y-102300000D03*
%TO.N,/SPI_left_CLK*%
X159625000Y-104900000D03*
%TO.N,/SPI_left_CSN*%
X158025000Y-105875000D03*
%TO.N,/SPI_right_CSN*%
X198525000Y-116075000D03*
%TO.N,/SPI_right_CLK*%
X198050000Y-116575000D03*
%TO.N,/SPI_right_MOSI*%
X198750000Y-117150000D03*
%TO.N,/SPI_right_MISO0*%
X198449106Y-118197566D03*
%TO.N,/SPI_right_MISO1*%
X194050000Y-116425000D03*
%TD*%
%TO.N,Net-(J4-In)*%
D28*
X179170000Y-111990000D02*
X178294930Y-111114930D01*
X178294930Y-111114930D02*
X178294930Y-110694930D01*
%TO.N,GND*%
D29*
X183750000Y-119400000D02*
X183750000Y-119926440D01*
D30*
X166400000Y-113150000D02*
X165305913Y-114244087D01*
X170112372Y-113150000D02*
X170817372Y-113855000D01*
D31*
X165725000Y-119800000D02*
X165725000Y-121099992D01*
D32*
X196534640Y-111910595D02*
X196649045Y-112025000D01*
D30*
X172285000Y-111943718D02*
X174378718Y-109850000D01*
D31*
X165725000Y-121099992D02*
X164425731Y-122399261D01*
D30*
X174378718Y-109850000D02*
X184090000Y-109850000D01*
D28*
X168535000Y-113150000D02*
X167024000Y-113150000D01*
D29*
X195850000Y-124050000D02*
X196225000Y-124425000D01*
D30*
X167024000Y-113150000D02*
X166400000Y-113150000D01*
X193875000Y-109175000D02*
X184407778Y-109175000D01*
X172285000Y-113222437D02*
X172285000Y-111943718D01*
D31*
X196649045Y-112025000D02*
X196534640Y-111910595D01*
D32*
X196649045Y-112025000D02*
X196950000Y-112025000D01*
D31*
X201010000Y-112025000D02*
X196649045Y-112025000D01*
D30*
X170025000Y-113150000D02*
X170112372Y-113150000D01*
D31*
X191119980Y-74875000D02*
X191099980Y-74855000D01*
D30*
X170817372Y-113855000D02*
X171652437Y-113855000D01*
D31*
X193875000Y-109175000D02*
X193875000Y-109250958D01*
D30*
X184407778Y-109175000D02*
X184380778Y-109202000D01*
D29*
X195475000Y-124050000D02*
X195850000Y-124050000D01*
D28*
X167024000Y-113150000D02*
X167024002Y-113150000D01*
D30*
X167050000Y-109700000D02*
X167175000Y-109575000D01*
D31*
X174225000Y-115250000D02*
X173700000Y-114725000D01*
X200944632Y-119475000D02*
X201142632Y-119277000D01*
X200050000Y-119475000D02*
X200944632Y-119475000D01*
X191150000Y-74875000D02*
X191119980Y-74875000D01*
X188750000Y-74855000D02*
X183980000Y-74855000D01*
X166000000Y-129899999D02*
X166000000Y-127050001D01*
D29*
X197897656Y-119475000D02*
X200050000Y-119475000D01*
D31*
X193875000Y-109250958D02*
X196534638Y-111910596D01*
D30*
X165165000Y-109700000D02*
X167050000Y-109700000D01*
D31*
X167637500Y-75736500D02*
X167637500Y-81211500D01*
D28*
X163675000Y-109700000D02*
X165165000Y-109700000D01*
X172862500Y-105049999D02*
X168825000Y-105050000D01*
X168400000Y-104625000D02*
X168400000Y-104600000D01*
D29*
X181350000Y-124125000D02*
X182599999Y-124125001D01*
D31*
X178980000Y-74855000D02*
X183980000Y-74855000D01*
D30*
X171652437Y-113855000D02*
X172285000Y-113222437D01*
D28*
X162165000Y-109700000D02*
X163675000Y-109700000D01*
D31*
X174650000Y-115250000D02*
X174225000Y-115250000D01*
X196997748Y-112072748D02*
X196696790Y-112072748D01*
X196250000Y-61450000D02*
X198525000Y-63725000D01*
D28*
X170025000Y-113150000D02*
X168535000Y-113150000D01*
D29*
X199872726Y-119475000D02*
X200050000Y-119475000D01*
D30*
X184380778Y-109202000D02*
X184090000Y-109202000D01*
D28*
X168825000Y-105050000D02*
X168400000Y-104625000D01*
D29*
X197522656Y-119100000D02*
X197897656Y-119475000D01*
X196900000Y-119100000D02*
X197522656Y-119100000D01*
D32*
X196950000Y-112025000D02*
X196997748Y-112072748D01*
D31*
X188750000Y-74855000D02*
X191099980Y-74855000D01*
D29*
X183750000Y-119926440D02*
X183594133Y-120082307D01*
D31*
X196696790Y-112072748D02*
X196534638Y-111910596D01*
%TO.N,VDD*%
D30*
X161690000Y-108150000D02*
X160825000Y-107285000D01*
X165165000Y-108150000D02*
X173120000Y-108150000D01*
X162165000Y-108150000D02*
X161690000Y-108150000D01*
X160825000Y-106950000D02*
X160825000Y-106925000D01*
D31*
X161000000Y-129899999D02*
X161000000Y-125149999D01*
X160000000Y-126149943D02*
X161000000Y-125149943D01*
D30*
X163675000Y-108150000D02*
X162165000Y-108150000D01*
X173120000Y-108150000D02*
X174080000Y-107190000D01*
D29*
X181350000Y-122575000D02*
X181350000Y-121750000D01*
D30*
X202075000Y-107100000D02*
X184140000Y-107100000D01*
D31*
X184140000Y-107100000D02*
X184090000Y-107150000D01*
D30*
X165165000Y-108150000D02*
X163675000Y-108150000D01*
X174080000Y-107190000D02*
X184090000Y-107190000D01*
D31*
X160000000Y-129899999D02*
X160000000Y-126149943D01*
D30*
X160825000Y-107285000D02*
X160825000Y-106950000D01*
%TO.N,Net-(JP5-B)*%
D28*
X175470000Y-112050000D02*
X175050000Y-112050000D01*
X175050000Y-112050000D02*
X175000000Y-112000000D01*
%TO.N,Net-(J14-Pin_1)*%
X192825000Y-73050000D02*
X197375000Y-77600000D01*
X185470000Y-110500000D02*
X186625000Y-110500000D01*
X170840000Y-61250000D02*
X170840000Y-68090000D01*
X197375000Y-77600000D02*
X197375000Y-85100000D01*
X170840000Y-68090000D02*
X175800000Y-73050000D01*
X175800000Y-73050000D02*
X192825000Y-73050000D01*
X185330000Y-110640000D02*
X185470000Y-110500000D01*
%TO.N,/blpix*%
D33*
X186250000Y-114458274D02*
X185900000Y-114108274D01*
X185900000Y-114108274D02*
X185900000Y-113720000D01*
X185900000Y-113022034D02*
X185916087Y-113005947D01*
X173380000Y-61250000D02*
X173380000Y-68830000D01*
D29*
X189000000Y-127925000D02*
X188850000Y-127775000D01*
D33*
X185900000Y-113720000D02*
X185900000Y-113022034D01*
X175875000Y-71325000D02*
X192452818Y-71325000D01*
D29*
X189000000Y-130575000D02*
X189000000Y-127925000D01*
D33*
X197950000Y-100850000D02*
X200250000Y-103150000D01*
X197950000Y-76822182D02*
X197950000Y-100850000D01*
X192452818Y-71325000D02*
X197950000Y-76822182D01*
X188860875Y-118839123D02*
X186250000Y-116228248D01*
X186250000Y-116228248D02*
X186250000Y-114458274D01*
X173380000Y-68830000D02*
X175875000Y-71325000D01*
%TO.N,Net-(J14-Pin_3)*%
D28*
X175920000Y-69145000D02*
X176450000Y-69675000D01*
X175920000Y-61250000D02*
X175920000Y-69145000D01*
X185312500Y-112060000D02*
X185312500Y-111862500D01*
X198550000Y-75675000D02*
X198550000Y-98500000D01*
X184725004Y-111275004D02*
X184650000Y-111275004D01*
X185312500Y-111862500D02*
X184725004Y-111275004D01*
X192550000Y-69675000D02*
X198550000Y-75675000D01*
X176450000Y-69675000D02*
X192550000Y-69675000D01*
%TO.N,Net-(J14-Pin_4)*%
X178460000Y-61285000D02*
X183300000Y-66125000D01*
X185900000Y-112060000D02*
X185900000Y-111822500D01*
X186397500Y-111325000D02*
X187200012Y-111325000D01*
X192975000Y-66125000D02*
X199150000Y-72300000D01*
X183300000Y-66125000D02*
X192975000Y-66125000D01*
X178460000Y-61250000D02*
X178460000Y-61285000D01*
X199150000Y-72300000D02*
X199150000Y-99925000D01*
X185900000Y-111822500D02*
X186397500Y-111325000D01*
%TO.N,Net-(J14-Pin_5)*%
X177732500Y-112925000D02*
X175125000Y-112925000D01*
X178240000Y-113432500D02*
X177732500Y-112925000D01*
X178240000Y-113670000D02*
X178240000Y-113432500D01*
%TO.N,/ThPix*%
D29*
X190000000Y-127975000D02*
X190000000Y-130575000D01*
D34*
X187090000Y-114110335D02*
X187090000Y-114547254D01*
X187500000Y-114957254D02*
X187500000Y-115950000D01*
D29*
X187125000Y-64925000D02*
X193450000Y-64925000D01*
D34*
X187090000Y-114547254D02*
X187500000Y-114957254D01*
X186975000Y-113707500D02*
X186972500Y-113710000D01*
D29*
X193450000Y-64925000D02*
X199650000Y-71125000D01*
X183540000Y-61340000D02*
X187125000Y-64925000D01*
D28*
X189950000Y-118914860D02*
X189950000Y-119075000D01*
D29*
X183540000Y-61250000D02*
X183540000Y-61340000D01*
D34*
X186975000Y-112296102D02*
X186975000Y-113707500D01*
D29*
X199650000Y-96675000D02*
X199825000Y-96850000D01*
D28*
X187500000Y-115950000D02*
X187500000Y-116464860D01*
D29*
X199650000Y-71125000D02*
X199650000Y-96675000D01*
D34*
X186972500Y-113710000D02*
X186972500Y-113992835D01*
D28*
X187500000Y-116464860D02*
X189950000Y-118914860D01*
D34*
X186917654Y-112238756D02*
X186975000Y-112296102D01*
X186972500Y-113992835D02*
X187090000Y-114110335D01*
%TO.N,/VCasc2!*%
D35*
X188378140Y-114912343D02*
X188110000Y-114644203D01*
D29*
X188378140Y-114921860D02*
X188378140Y-116704611D01*
X200850000Y-105440189D02*
X201000000Y-105590189D01*
X200850000Y-102563971D02*
X200850000Y-105440189D01*
X200500000Y-102213971D02*
X200850000Y-102563971D01*
X188620000Y-61250000D02*
X191020000Y-63650000D01*
X200500000Y-70275000D02*
X200500000Y-102213971D01*
X191020000Y-63650000D02*
X193875000Y-63650000D01*
X191000000Y-128000000D02*
X191000000Y-130575000D01*
D35*
X188378140Y-114921860D02*
X188378140Y-114912343D01*
D29*
X188378140Y-116704611D02*
X191000004Y-119326475D01*
X193875000Y-63650000D02*
X200500000Y-70275000D01*
D35*
X188110000Y-114644203D02*
X188110000Y-112060000D01*
D29*
X191000004Y-119326475D02*
X191000004Y-120025000D01*
%TO.N,Net-(J14-Pin_10)*%
D28*
X193700000Y-61250000D02*
X201300000Y-68850000D01*
X201300000Y-68850000D02*
X201300000Y-102536673D01*
X190050000Y-113730000D02*
X190145374Y-113825374D01*
X201300000Y-102536673D02*
X201362500Y-102599174D01*
X189430000Y-113730000D02*
X190050000Y-113730000D01*
X201362500Y-103362500D02*
X202375000Y-104375000D01*
X201362500Y-102599174D02*
X201362500Y-103362500D01*
%TO.N,Net-(J14-Pin_12)*%
X190190000Y-112060000D02*
X190190000Y-113015000D01*
X201850000Y-64320000D02*
X201850000Y-103175000D01*
X190190000Y-113015000D02*
X190622874Y-113447874D01*
X198780000Y-61250000D02*
X201850000Y-64320000D01*
%TO.N,VDDA*%
D31*
X162000000Y-129899999D02*
X162000000Y-127649975D01*
X201010000Y-110475000D02*
X196750000Y-110475000D01*
D29*
X184250000Y-117850000D02*
X184825000Y-118425000D01*
D31*
X163000000Y-126650023D02*
X162999976Y-126649999D01*
X194165000Y-107890000D02*
X196737500Y-110462500D01*
D30*
X184090000Y-107873000D02*
X184314357Y-107873000D01*
X184314357Y-107873000D02*
X184331356Y-107890000D01*
D29*
X193850000Y-119475000D02*
X194225000Y-119100000D01*
D31*
X188750000Y-79935000D02*
X188750000Y-81800000D01*
D29*
X193925000Y-124050000D02*
X193025000Y-124050000D01*
D31*
X162000000Y-127649975D02*
X162999976Y-126649999D01*
D29*
X183750000Y-117850000D02*
X184250000Y-117850000D01*
X194225000Y-119100000D02*
X195350000Y-119100000D01*
D31*
X188750000Y-81800000D02*
X188997748Y-82047748D01*
X196750000Y-110475000D02*
X196737500Y-110462500D01*
X163000000Y-129899999D02*
X163000000Y-126650023D01*
D30*
X184331356Y-107890000D02*
X194165000Y-107890000D01*
%TO.N,VSSA*%
X167024000Y-111600000D02*
X165725000Y-111600000D01*
X168535000Y-111600000D02*
X167024000Y-111600000D01*
X170025000Y-111600000D02*
X171150000Y-111600000D01*
X174275000Y-108475000D02*
X183826472Y-108475000D01*
X171150000Y-111600000D02*
X174275000Y-108475000D01*
X170025000Y-111600000D02*
X168535000Y-111600000D01*
%TO.N,/interrupt*%
D32*
X200769375Y-106175000D02*
X200044375Y-105450000D01*
X210875000Y-116525000D02*
X210875000Y-112600000D01*
D28*
X204575000Y-105425000D02*
X204600000Y-105450000D01*
D33*
X182700000Y-110640000D02*
X182700000Y-111216856D01*
X182700000Y-111216856D02*
X182750012Y-111266868D01*
D32*
X205535000Y-124760000D02*
X205535000Y-121865000D01*
X202075000Y-105450000D02*
X202075000Y-105878583D01*
X200044375Y-105450000D02*
X194475000Y-105450000D01*
X204575000Y-101525000D02*
X204575000Y-105425000D01*
X209000000Y-130575000D02*
X209000000Y-128225000D01*
X202075000Y-105450000D02*
X204600000Y-105450000D01*
X205535000Y-121865000D02*
X210875000Y-116525000D01*
X207125000Y-105450000D02*
X204600000Y-105450000D01*
X209000000Y-128225000D02*
X205535000Y-124760000D01*
X210875000Y-112600000D02*
X211000000Y-112475000D01*
X194475000Y-105450000D02*
X194294930Y-105269930D01*
X202075000Y-105878583D02*
X201778583Y-106175000D01*
X201778583Y-106175000D02*
X200769375Y-106175000D01*
%TO.N,Net-(J1-In)*%
D28*
X187665000Y-114500000D02*
X187675000Y-114490000D01*
X187675000Y-114490000D02*
X187675000Y-113825000D01*
X187675000Y-113825000D02*
X187560000Y-113710000D01*
X201325000Y-117825000D02*
X202100000Y-117050000D01*
X200050000Y-117825000D02*
X201325000Y-117825000D01*
%TO.N,suba*%
D36*
X170500000Y-73475000D02*
X170500000Y-76450000D01*
D37*
X170750000Y-82373997D02*
X170587499Y-82536498D01*
D38*
X175510000Y-113760000D02*
X174549998Y-113760000D01*
X170587500Y-81211500D02*
X170600000Y-81199000D01*
D37*
X170750000Y-81374000D02*
X170750000Y-82373997D01*
D38*
X175510000Y-113760000D02*
X176430000Y-113760000D01*
D37*
X170750000Y-76700000D02*
X170750000Y-80700000D01*
D38*
X170600000Y-77849000D02*
X170612500Y-77836500D01*
X176430000Y-113760000D02*
X176440000Y-113770000D01*
D37*
X170587500Y-81211500D02*
X170750000Y-81374000D01*
D36*
X170500000Y-76450000D02*
X170750000Y-76700000D01*
%TO.N,Net-(JP3-C)*%
D28*
X177320000Y-112000000D02*
X176132430Y-112000000D01*
X176132430Y-112000000D02*
X175500000Y-111367570D01*
%TO.N,Net-(JP4-B)*%
X177335000Y-110640000D02*
X176500000Y-111475000D01*
X177750000Y-110640000D02*
X177335000Y-110640000D01*
X183980000Y-77395000D02*
X183143073Y-78231927D01*
X183143073Y-78231927D02*
X183143073Y-79192068D01*
%TO.N,Net-(U2A-VGateComp!)*%
D29*
X177313172Y-113710000D02*
X176200000Y-114823172D01*
X176200000Y-114823172D02*
X176200000Y-115250000D01*
X177710000Y-113710000D02*
X177313172Y-113710000D01*
%TO.N,/SR_out_0D*%
D32*
X174000000Y-130575000D02*
X174000000Y-120341556D01*
D34*
X178229154Y-112200846D02*
X178229154Y-112969210D01*
D28*
X177986584Y-114334154D02*
X177931218Y-114334154D01*
D34*
X178410000Y-112020000D02*
X178229154Y-112200846D01*
D28*
X178229154Y-112969210D02*
X178515000Y-113255056D01*
D32*
X174000000Y-120341556D02*
X177617442Y-116724114D01*
X177617442Y-114647930D02*
X177931218Y-114334154D01*
D28*
X178158238Y-114162500D02*
X177986584Y-114334154D01*
X178515000Y-113255056D02*
X178515000Y-114142500D01*
X178515000Y-114142500D02*
X178495000Y-114162500D01*
X178495000Y-114162500D02*
X178158238Y-114162500D01*
D32*
X177617442Y-116724114D02*
X177617442Y-114647930D01*
%TO.N,/SR_out_CK1*%
D34*
X179525000Y-112300000D02*
X179525000Y-111095000D01*
D32*
X176890943Y-116778861D02*
X176922133Y-116747671D01*
D34*
X179525000Y-111095000D02*
X179070000Y-110640000D01*
X179250000Y-112575000D02*
X179525000Y-112300000D01*
D32*
X173000000Y-120669804D02*
X176922133Y-116747671D01*
X173000000Y-130575000D02*
X173000000Y-120669804D01*
D34*
X178750000Y-112575000D02*
X179250000Y-112575000D01*
%TO.N,/Enable_SPI_diff*%
D28*
X179762500Y-110940056D02*
X179802500Y-110980056D01*
X178833722Y-113383722D02*
X178830000Y-113387444D01*
X178830000Y-114411476D02*
X178825000Y-114416476D01*
X179802500Y-112414944D02*
X178833722Y-113383722D01*
X178099274Y-115142202D02*
X178825000Y-114416476D01*
X179802500Y-110980056D02*
X179802500Y-112414944D01*
X178830000Y-113387444D02*
X178830000Y-114411476D01*
X178099274Y-115509414D02*
X178099274Y-115142202D01*
X179762500Y-110672500D02*
X179762500Y-110940056D01*
%TO.N,/SPI_MISO1_P*%
D32*
X179180000Y-115743225D02*
X175325000Y-119598225D01*
X179180000Y-113730000D02*
X179180000Y-115743225D01*
X175325000Y-119598225D02*
X175325000Y-127950000D01*
X175325000Y-127950000D02*
X175000000Y-128275000D01*
X175000000Y-128275000D02*
X175000000Y-130575000D01*
%TO.N,/SPI_MISO1_N*%
X176000000Y-128250000D02*
X176000000Y-130575000D01*
X179620000Y-115798200D02*
X175675000Y-119743200D01*
X179620000Y-113730000D02*
X179620000Y-115798200D01*
X175675000Y-119743200D02*
X175675000Y-127925000D01*
X175675000Y-127925000D02*
X176000000Y-128250000D01*
%TO.N,/SPI_MISO0_P*%
X180170000Y-110780000D02*
X180310000Y-110640000D01*
X179939580Y-113097190D02*
X179939580Y-112819806D01*
X180170000Y-112589386D02*
X180170000Y-110780000D01*
X197000000Y-127769974D02*
X196505026Y-127275000D01*
X179939580Y-112819806D02*
X180170000Y-112589386D01*
X197000000Y-130575000D02*
X197000000Y-127769974D01*
X181200000Y-120894974D02*
X181200000Y-120725000D01*
X196505026Y-127275000D02*
X187580025Y-127275000D01*
X187580025Y-127275000D02*
X181200000Y-120894974D01*
%TO.N,/SPI_MISO0_N*%
X198000000Y-128275000D02*
X196650000Y-126925000D01*
X198000000Y-130575000D02*
X198000000Y-128275000D01*
X187725000Y-126925000D02*
X181800000Y-121000000D01*
X180720000Y-110640000D02*
X180720000Y-111367500D01*
X180520000Y-111567500D02*
X180520000Y-112756827D01*
X196650000Y-126925000D02*
X187725000Y-126925000D01*
X180520000Y-112756827D02*
X180609007Y-112845834D01*
X180720000Y-111367500D02*
X180520000Y-111567500D01*
X181800000Y-121000000D02*
X181800000Y-120650000D01*
%TO.N,/SPI_MOSI_P*%
X177275000Y-128000000D02*
X177000000Y-128275000D01*
X177275000Y-119275000D02*
X177275000Y-128000000D01*
X177000000Y-128275000D02*
X177000000Y-130575000D01*
X180187500Y-113750000D02*
X180187500Y-116362500D01*
X180187500Y-116362500D02*
X177275000Y-119275000D01*
%TO.N,/SPI_MOSI_N*%
X180550000Y-116500000D02*
X177625000Y-119425000D01*
X177625000Y-127925000D02*
X178000000Y-128300000D01*
X180550000Y-113750000D02*
X180550000Y-116500000D01*
X177625000Y-119425000D02*
X177625000Y-127925000D01*
X178000000Y-128300000D02*
X178000000Y-130575000D01*
%TO.N,/SPI_CLK_P*%
X196125000Y-125350000D02*
X196275000Y-125500000D01*
X181547526Y-113075000D02*
X181750000Y-113075000D01*
X184225000Y-120499581D02*
X184225000Y-120969974D01*
X180870000Y-112397474D02*
X181547526Y-113075000D01*
X184225000Y-120969974D02*
X188605026Y-125350000D01*
X180870000Y-112040000D02*
X180870000Y-112397474D01*
X188605026Y-125350000D02*
X196125000Y-125350000D01*
%TO.N,/SPI_CLK_N*%
X181557500Y-112590000D02*
X181265000Y-112297500D01*
X182109321Y-112590000D02*
X181557500Y-112590000D01*
X182214377Y-112695056D02*
X182109321Y-112590000D01*
X181265000Y-112297500D02*
X181265000Y-112060000D01*
X184800000Y-119225000D02*
X184800000Y-121050000D01*
X196525000Y-125000000D02*
X197000000Y-125475000D01*
X184800000Y-121050000D02*
X188750000Y-125000000D01*
X188750000Y-125000000D02*
X196525000Y-125000000D01*
%TO.N,/SPI_CSN_P*%
X179325000Y-118699999D02*
X179325000Y-128075000D01*
X179000000Y-128400000D02*
X179000000Y-130575000D01*
X179530026Y-118494974D02*
X179530025Y-118494974D01*
X179530025Y-118494974D02*
X179425000Y-118600000D01*
X181100000Y-113750000D02*
X181100000Y-116925000D01*
X181100000Y-116925000D02*
X179530026Y-118494974D01*
X179325000Y-128075000D02*
X179000000Y-128400000D01*
X179425000Y-118600000D02*
X179325000Y-118699999D01*
%TO.N,/SPI_CSN_N*%
X181530000Y-113730000D02*
X181530000Y-116989974D01*
X180000000Y-128375000D02*
X180000000Y-130575000D01*
X179675000Y-128050000D02*
X180000000Y-128375000D01*
X179675000Y-118844974D02*
X179675000Y-128050000D01*
X181530000Y-116989974D02*
X179675000Y-118844974D01*
%TO.N,Net-(J5-In)*%
D28*
X160575000Y-118150000D02*
X160500000Y-118225000D01*
X174475000Y-118150000D02*
X177042442Y-115582558D01*
X165725000Y-118150000D02*
X174475000Y-118150000D01*
X181246949Y-111359332D02*
X181847500Y-111959883D01*
X181847500Y-111959883D02*
X181847500Y-112060000D01*
X165725000Y-118150000D02*
X160575000Y-118150000D01*
X177042442Y-115582558D02*
X177042442Y-114821769D01*
%TO.N,/timestamp_clk*%
D33*
X182070000Y-111155000D02*
X181950000Y-111275000D01*
X182070000Y-110640000D02*
X182070000Y-111155000D01*
%TO.N,/Clk20_Ext_P*%
D32*
X181960000Y-120138248D02*
X182275000Y-120453248D01*
X198975000Y-126425000D02*
X199325000Y-126775000D01*
X188205026Y-126425000D02*
X198975000Y-126425000D01*
X199325000Y-126775000D02*
X199325000Y-127900000D01*
X181960000Y-113720000D02*
X181960000Y-120138248D01*
X182275000Y-120453248D02*
X182275000Y-120494974D01*
X199325000Y-127900000D02*
X199000000Y-128225000D01*
X182275000Y-120494974D02*
X188205026Y-126425000D01*
X199000000Y-128225000D02*
X199000000Y-130575000D01*
%TO.N,/Clk20_Ext_N*%
X182625000Y-120350000D02*
X188350000Y-126075000D01*
X188350000Y-126075000D02*
X199141942Y-126075000D01*
X199675000Y-127875000D02*
X200000000Y-128200000D01*
X182625000Y-120308274D02*
X182625000Y-120350000D01*
X199141942Y-126075000D02*
X199675000Y-126608058D01*
X182440000Y-113710000D02*
X182440000Y-120123273D01*
X182440000Y-120123273D02*
X182625000Y-120308274D01*
X200000000Y-128200000D02*
X200000000Y-130575000D01*
X199675000Y-126608058D02*
X199675000Y-127875000D01*
%TO.N,/res_n*%
D33*
X182820000Y-112945000D02*
X182820000Y-112060000D01*
X189379568Y-121480000D02*
X189330000Y-121480000D01*
X183260001Y-113385001D02*
X182820000Y-112945000D01*
X198275000Y-122700000D02*
X190599568Y-122700000D01*
X190599568Y-122700000D02*
X189379568Y-121480000D01*
X189330000Y-121480000D02*
X183260001Y-115410001D01*
X203000000Y-127425000D02*
X198275000Y-122700000D01*
X183260001Y-115410001D02*
X183260001Y-113385001D01*
X203000000Y-130575000D02*
X203000000Y-127425000D01*
%TO.N,/syncres*%
D32*
X202000000Y-127155914D02*
X202000000Y-130575000D01*
X197919086Y-123075000D02*
X202000000Y-127155914D01*
X190464949Y-123075000D02*
X197919086Y-123075000D01*
X182920000Y-113730000D02*
X182920000Y-115530051D01*
X182920000Y-115530051D02*
X190464949Y-123075000D01*
%TO.N,/hold*%
D28*
X183347512Y-110697512D02*
X183347512Y-112802502D01*
X183290000Y-110640000D02*
X183347512Y-110697512D01*
D32*
X204000000Y-130575000D02*
X204000000Y-127525000D01*
X204000000Y-127525000D02*
X198725000Y-122250000D01*
X191775000Y-122250000D02*
X191575000Y-122050000D01*
X198725000Y-122250000D02*
X191775000Y-122250000D01*
%TO.N,/SR_ck1*%
D28*
X192492500Y-121192500D02*
X192900000Y-121600000D01*
X183550000Y-115293414D02*
X189449086Y-121192500D01*
D32*
X205000000Y-127825000D02*
X198775000Y-121600000D01*
D28*
X189449086Y-121192500D02*
X192492500Y-121192500D01*
D32*
X198775000Y-121600000D02*
X192900000Y-121600000D01*
D28*
X183550000Y-113750000D02*
X183550000Y-115293414D01*
D32*
X205000000Y-130575000D02*
X205000000Y-127825000D01*
%TO.N,/SR_ck2*%
D34*
X183932500Y-115282500D02*
X189565000Y-120915000D01*
D32*
X199125000Y-121075000D02*
X193900000Y-121075000D01*
X206000000Y-127950000D02*
X199125000Y-121075000D01*
X206000000Y-130575000D02*
X206000000Y-127950000D01*
D34*
X183932500Y-112332500D02*
X183932500Y-115282500D01*
X183640000Y-112040000D02*
X183932500Y-112332500D01*
X189565000Y-120915000D02*
X193740000Y-120915000D01*
X193740000Y-120915000D02*
X193900000Y-121075000D01*
%TO.N,/SR_load*%
D32*
X210000000Y-130575000D02*
X211000000Y-130575000D01*
X210000000Y-128225000D02*
X206213673Y-124438673D01*
D28*
X183790000Y-111285561D02*
X183825308Y-111320869D01*
D32*
X210000000Y-130575000D02*
X210000000Y-128225000D01*
D28*
X183790000Y-110640000D02*
X183790000Y-111285561D01*
D32*
X206213673Y-124438673D02*
X206125000Y-124438673D01*
%TO.N,/SR_sin*%
D39*
X184227500Y-115127500D02*
X185775000Y-116675000D01*
D32*
X199350000Y-120450000D02*
X192950000Y-120450000D01*
X189700000Y-120600000D02*
X192800000Y-120600000D01*
X201000000Y-126919089D02*
X200330913Y-126250002D01*
X207000000Y-128100000D02*
X199350000Y-120450000D01*
X185775000Y-116675000D02*
X189700000Y-120600000D01*
D39*
X184227500Y-113770000D02*
X184227500Y-115127500D01*
D32*
X192800000Y-120600000D02*
X192950000Y-120450000D01*
X201000000Y-130575000D02*
X201000000Y-126919089D01*
X207000000Y-130575000D02*
X207000000Y-128100000D01*
%TO.N,/SR_rb*%
D28*
X184270000Y-111980000D02*
X184270000Y-112508908D01*
X185250000Y-113488908D02*
X185250000Y-114800000D01*
X184270000Y-112508908D02*
X185250000Y-113488908D01*
%TO.N,/SR_ldtdac*%
X184695000Y-110640000D02*
X185625000Y-111570000D01*
X186155000Y-112552500D02*
X186387500Y-112785000D01*
X185645000Y-112552500D02*
X186155000Y-112552500D01*
X185625000Y-111570000D02*
X185625000Y-112532500D01*
X185625000Y-112532500D02*
X185645000Y-112552500D01*
X186387500Y-112785000D02*
X186387500Y-114189188D01*
X184340000Y-110640000D02*
X184695000Y-110640000D01*
X186537500Y-114339188D02*
X186537500Y-115861242D01*
X186387500Y-114189188D02*
X186537500Y-114339188D01*
X186537500Y-115861242D02*
X186763129Y-116086871D01*
%TO.N,/SR_ldpatgen*%
D32*
X184920000Y-113800000D02*
X184920000Y-114055006D01*
X184920000Y-114055006D02*
X184725006Y-114250000D01*
%TO.N,/SR_sout*%
D28*
X184842500Y-112642500D02*
X185612500Y-113412500D01*
X185612500Y-113412500D02*
X185612500Y-114227360D01*
X184842500Y-112060000D02*
X184842500Y-112642500D01*
X185781369Y-114396229D02*
X185781369Y-115402499D01*
X185612500Y-114227360D02*
X185781369Y-114396229D01*
%TO.N,/Inj*%
D33*
X186330000Y-112287500D02*
X186685000Y-112642500D01*
D28*
X186682500Y-113589878D02*
X186682500Y-114095279D01*
X187200629Y-115725629D02*
X187200629Y-116560158D01*
X186812500Y-114225279D02*
X186812500Y-115337500D01*
D33*
X186685000Y-113587378D02*
X186682500Y-113589878D01*
D28*
X186812500Y-115337500D02*
X187200629Y-115725629D01*
X187200629Y-116560158D02*
X189425000Y-118784529D01*
X186682500Y-114095279D02*
X186812500Y-114225279D01*
X189425000Y-118784529D02*
X189425000Y-119550000D01*
D33*
X186685000Y-112642500D02*
X186685000Y-113587378D01*
X186330000Y-112050000D02*
X186330000Y-112287500D01*
%TO.N,Net-(U2A-Qdac<0>)*%
D28*
X187430000Y-112060000D02*
X187625000Y-112255000D01*
X187625000Y-112255000D02*
X187625000Y-112975000D01*
%TO.N,Net-(U2A-Qdac<1>)*%
X187447500Y-110640000D02*
X187875000Y-111067500D01*
X187260000Y-110640000D02*
X187447500Y-110640000D01*
X187875000Y-111067500D02*
X187875000Y-111325000D01*
%TO.N,Net-(J12-Pin_1)*%
X188710000Y-114166281D02*
X189368719Y-114825000D01*
X189368719Y-114825000D02*
X189770000Y-114825000D01*
X188710000Y-112060000D02*
X188710000Y-114166281D01*
%TO.N,Net-(J12-Pin_2)*%
X189050000Y-114975000D02*
X189050000Y-115125000D01*
X188455000Y-110715000D02*
X188455000Y-114380000D01*
X188455000Y-114380000D02*
X189050000Y-114975000D01*
X188380000Y-110640000D02*
X188455000Y-110715000D01*
%TO.N,/DigInj*%
D34*
X199556138Y-120190000D02*
X199308173Y-119942035D01*
X199895000Y-120190000D02*
X199556138Y-120190000D01*
X192192035Y-119942035D02*
X190310000Y-118060000D01*
X189312874Y-114365374D02*
X189000000Y-114052500D01*
X199308173Y-119942035D02*
X192192035Y-119942035D01*
X190310000Y-118060000D02*
X190310000Y-114365374D01*
X208000000Y-130575000D02*
X208000000Y-128295000D01*
X190310000Y-114365374D02*
X189312874Y-114365374D01*
X208000000Y-128295000D02*
X199895000Y-120190000D01*
X189000000Y-112680000D02*
X189620000Y-112060000D01*
X189000000Y-114052500D02*
X189000000Y-112680000D01*
%TO.N,Net-(U2A-vminusout)*%
D38*
X190100000Y-110640000D02*
X190100000Y-110877500D01*
X190925000Y-116275000D02*
X190925000Y-116750000D01*
X191172874Y-113113990D02*
X191172874Y-116027126D01*
X190900000Y-111677500D02*
X190900000Y-112841116D01*
X190100000Y-110877500D02*
X190900000Y-111677500D01*
X191172874Y-116027126D02*
X190925000Y-116275000D01*
X190900000Y-112841116D02*
X191172874Y-113113990D01*
%TO.N,/vminuspix*%
D40*
X192575000Y-118449998D02*
X192349999Y-118674999D01*
X192575000Y-116750000D02*
X192575000Y-118449998D01*
D38*
X191624874Y-115324874D02*
X192575000Y-116275000D01*
D31*
X192000000Y-130575000D02*
X192000000Y-128025000D01*
D38*
X191624874Y-113730000D02*
X191624874Y-115324874D01*
X192575000Y-116275000D02*
X192575000Y-116750000D01*
X192575000Y-116750000D02*
X192575000Y-116749998D01*
%TO.N,/SPI_left_MISO1*%
D41*
X172370000Y-105630000D02*
X172190000Y-105450000D01*
X161825000Y-98505000D02*
X161825000Y-99650000D01*
X157950000Y-94630000D02*
X161825000Y-98505000D01*
X167625000Y-105450000D02*
X161825000Y-99650000D01*
X172190000Y-105450000D02*
X167625000Y-105450000D01*
%TO.N,/SPI_left_MISO0*%
X157950000Y-97170000D02*
X160625000Y-99845000D01*
X160625000Y-99845000D02*
X160625000Y-102300000D01*
X164125000Y-105800000D02*
X160625000Y-102300000D01*
X171357500Y-105800000D02*
X164125000Y-105800000D01*
%TO.N,/SPI_left_MOSI*%
D28*
X157262500Y-106487500D02*
X156325000Y-105550000D01*
X162375000Y-107300000D02*
X161562500Y-106487500D01*
X156325000Y-93715000D02*
X157950000Y-92090000D01*
X172380000Y-106010000D02*
X172835000Y-106010000D01*
X172835000Y-106010000D02*
X173100000Y-106275000D01*
X156325000Y-105550000D02*
X156325000Y-93715000D01*
X173100000Y-107000000D02*
X172800000Y-107300000D01*
X172800000Y-107300000D02*
X162375000Y-107300000D01*
X161562500Y-106487500D02*
X157262500Y-106487500D01*
X173100000Y-106275000D02*
X173100000Y-107000000D01*
%TO.N,/SPI_left_CLK*%
D41*
X171360000Y-106175500D02*
X171185500Y-106350000D01*
X171185500Y-106350000D02*
X163825000Y-106350000D01*
X162787500Y-105312500D02*
X160037500Y-105312500D01*
X160037500Y-105312500D02*
X159625000Y-104900000D01*
X163825000Y-106350000D02*
X162787500Y-105312500D01*
%TO.N,/SPI_left_CSN*%
D28*
X171960000Y-106850000D02*
X163100000Y-106850000D01*
D32*
X157950000Y-105800000D02*
X158025000Y-105875000D01*
D28*
X172390000Y-106420000D02*
X171960000Y-106850000D01*
D32*
X157950000Y-102250000D02*
X157950000Y-105800000D01*
D28*
X162125000Y-105875000D02*
X158025000Y-105875000D01*
X163100000Y-106850000D02*
X162125000Y-105875000D01*
%TO.N,Net-(J2-Pin_5)*%
X172140000Y-104650000D02*
X169950000Y-104650000D01*
X165250000Y-99950000D02*
X165250000Y-95835000D01*
X172360000Y-104430000D02*
X172140000Y-104650000D01*
X169950000Y-104650000D02*
X165250000Y-99950000D01*
%TO.N,Net-(J2-Pin_4)*%
X168850000Y-96895000D02*
X165250000Y-93295000D01*
X168850000Y-101825000D02*
X168850000Y-96895000D01*
X171267500Y-104242500D02*
X168850000Y-101825000D01*
X171360000Y-104242500D02*
X171267500Y-104242500D01*
%TO.N,Net-(J2-Pin_3)*%
X171897500Y-94897500D02*
X167755000Y-90755000D01*
X167755000Y-90755000D02*
X165250000Y-90755000D01*
X171897500Y-103557500D02*
X171897500Y-94897500D01*
X172380000Y-104040000D02*
X171897500Y-103557500D01*
%TO.N,Net-(J2-Pin_2)*%
X170400000Y-95750000D02*
X166700000Y-92050000D01*
X164525000Y-92050000D02*
X163900000Y-91425000D01*
X166700000Y-92050000D02*
X164525000Y-92050000D01*
X163900000Y-91425000D02*
X163900000Y-89565000D01*
X170400000Y-102660000D02*
X170400000Y-95750000D01*
X163900000Y-89565000D02*
X165250000Y-88215000D01*
X171410000Y-103670000D02*
X170400000Y-102660000D01*
%TO.N,Net-(J2-Pin_1)*%
X166500000Y-85675000D02*
X173400000Y-92575000D01*
X173400000Y-102975000D02*
X172975000Y-103400000D01*
X173400000Y-92575000D02*
X173400000Y-102975000D01*
X165250000Y-85675000D02*
X166500000Y-85675000D01*
X172975000Y-103400000D02*
X172390000Y-103400000D01*
%TO.N,/SPI_right_CSN*%
D34*
X194520000Y-112070000D02*
X198525000Y-116075000D01*
X194020000Y-112070000D02*
X194520000Y-112070000D01*
%TO.N,/SPI_right_CLK*%
D28*
X208575000Y-104920000D02*
X207275000Y-106220000D01*
X205000000Y-113825000D02*
X202825000Y-113825000D01*
D34*
X193500000Y-110680000D02*
X193675000Y-110855000D01*
D28*
X207275000Y-111550000D02*
X205000000Y-113825000D01*
X202825000Y-113825000D02*
X200075000Y-116575000D01*
X208575000Y-104120000D02*
X208575000Y-104920000D01*
D34*
X193675000Y-110855000D02*
X193675000Y-112412500D01*
X193675000Y-112412500D02*
X197837500Y-116575000D01*
D28*
X200075000Y-116575000D02*
X198050000Y-116575000D01*
D34*
X197837500Y-116575000D02*
X198050000Y-116575000D01*
D28*
X207275000Y-106220000D02*
X207275000Y-111550000D01*
%TO.N,/SPI_right_MOSI*%
D34*
X193300000Y-112172500D02*
X193300000Y-112500000D01*
D28*
X203464568Y-114247500D02*
X200562068Y-117150000D01*
D34*
X193300000Y-112500000D02*
X197950000Y-117150000D01*
D28*
X208575000Y-101580000D02*
X209475000Y-101580000D01*
X209475000Y-101580000D02*
X209925000Y-102030000D01*
X206027500Y-114247500D02*
X203464568Y-114247500D01*
X209925000Y-110350000D02*
X206027500Y-114247500D01*
X200562068Y-117150000D02*
X198750000Y-117150000D01*
X209925000Y-102030000D02*
X209925000Y-110350000D01*
D34*
X197950000Y-117150000D02*
X198750000Y-117150000D01*
D32*
X193300000Y-112070000D02*
X193300000Y-112172500D01*
%TO.N,/SPI_right_MISO0*%
D34*
X198422566Y-118197566D02*
X198449106Y-118197566D01*
D28*
X210575000Y-100140000D02*
X210575000Y-111250000D01*
X200501406Y-118437500D02*
X199276408Y-118437500D01*
X209475000Y-99040000D02*
X210575000Y-100140000D01*
X210575000Y-111250000D02*
X203400000Y-118425000D01*
D34*
X192790000Y-110640000D02*
X192900000Y-110750000D01*
X192900000Y-110750000D02*
X192900000Y-112675000D01*
D28*
X200513906Y-118425000D02*
X200501406Y-118437500D01*
X208575000Y-99040000D02*
X209475000Y-99040000D01*
X199036474Y-118197566D02*
X198449106Y-118197566D01*
X199276408Y-118437500D02*
X199036474Y-118197566D01*
D34*
X192900000Y-112675000D02*
X198422566Y-118197566D01*
D28*
X203400000Y-118425000D02*
X200513906Y-118425000D01*
%TO.N,/SPI_right_MISO1*%
X208575000Y-96500000D02*
X209475000Y-96500000D01*
X211025000Y-98050000D02*
X211025000Y-111800000D01*
X197755874Y-118714500D02*
X195466374Y-116425000D01*
X208544568Y-114247500D02*
X204077568Y-118714500D01*
X209475000Y-96500000D02*
X211025000Y-98050000D01*
D34*
X192537500Y-112060000D02*
X192537500Y-114912500D01*
D28*
X208577500Y-114247500D02*
X208544568Y-114247500D01*
X204077568Y-118714500D02*
X197755874Y-118714500D01*
D34*
X192537500Y-114912500D02*
X194050000Y-116425000D01*
D28*
X211025000Y-111800000D02*
X208577500Y-114247500D01*
X195466374Y-116425000D02*
X194050000Y-116425000D01*
%TO.N,/HV_in_ext*%
D37*
X160460000Y-77540000D02*
X163185000Y-77540000D01*
X167250000Y-73475000D02*
X168850000Y-73475000D01*
X163185000Y-77540000D02*
X167250000Y-73475000D01*
%TD*%
%TA.AperFunction,Conductor*%
%TO.N,/VCasc2!*%
G36*
X191120760Y-128075889D02*
G01*
X191123933Y-128077204D01*
X191129298Y-128081686D01*
X191337191Y-128405076D01*
X191338863Y-128409327D01*
X191339178Y-128411074D01*
X191337274Y-128419824D01*
X191330970Y-128424373D01*
X191330240Y-128424588D01*
X191329746Y-128424659D01*
X191329740Y-128424664D01*
X191329731Y-128424662D01*
X191326967Y-128425065D01*
X191000033Y-128425999D01*
X190999967Y-128425999D01*
X190673684Y-128425067D01*
X190669207Y-128424163D01*
X190667569Y-128423479D01*
X190661257Y-128417127D01*
X190660855Y-128409382D01*
X190661073Y-128408643D01*
X190661283Y-128408182D01*
X190661284Y-128408172D01*
X190661293Y-128408163D01*
X190662449Y-128405632D01*
X190870289Y-128082327D01*
X190873458Y-128079045D01*
X190876281Y-128077087D01*
X190882950Y-128075000D01*
X191116285Y-128075000D01*
X191120760Y-128075889D01*
G37*
%TD.AperFunction*%
%TD*%
%TA.AperFunction,Conductor*%
%TO.N,VDDA*%
G36*
X200671448Y-110045012D02*
G01*
X200677933Y-110047730D01*
X200677961Y-110047753D01*
X200679634Y-110049496D01*
X201003971Y-110465975D01*
X201006020Y-110470056D01*
X201006713Y-110472571D01*
X201006247Y-110480145D01*
X201006012Y-110480714D01*
X201004429Y-110483437D01*
X200680297Y-110899650D01*
X200676845Y-110902634D01*
X200674257Y-110904104D01*
X200667351Y-110905577D01*
X200667320Y-110905574D01*
X200665461Y-110905199D01*
X200665370Y-110905211D01*
X200665318Y-110905170D01*
X200664977Y-110905102D01*
X200320064Y-110797995D01*
X200095449Y-110728244D01*
X200091435Y-110726062D01*
X200089296Y-110724281D01*
X200085423Y-110718096D01*
X200085340Y-110717758D01*
X200085000Y-110714958D01*
X200085000Y-110235945D01*
X200085888Y-110231473D01*
X200086957Y-110228893D01*
X200091712Y-110223359D01*
X200092015Y-110223176D01*
X200094583Y-110222023D01*
X200663945Y-110045216D01*
X200668483Y-110044740D01*
X200671448Y-110045012D01*
G37*
%TD.AperFunction*%
%TD*%
%TA.AperFunction,Conductor*%
%TO.N,/VCasc2!*%
G36*
X191003806Y-127995525D02*
G01*
X191206821Y-128040804D01*
X191210991Y-128042644D01*
X191212452Y-128043669D01*
X191212454Y-128043673D01*
X191212458Y-128043674D01*
X191214671Y-128047160D01*
X191217255Y-128051225D01*
X191217257Y-128051234D01*
X191217549Y-128052907D01*
X191217405Y-128057629D01*
X191127680Y-128434422D01*
X191125776Y-128438572D01*
X191124272Y-128440650D01*
X191117992Y-128445044D01*
X191117334Y-128445231D01*
X191114136Y-128445677D01*
X190886568Y-128445677D01*
X190882088Y-128444785D01*
X190879719Y-128443803D01*
X190873992Y-128438713D01*
X190873657Y-128438115D01*
X190873415Y-128437497D01*
X190873388Y-128437470D01*
X190873388Y-128437426D01*
X190872483Y-128435111D01*
X190782611Y-128057703D01*
X190782440Y-128053146D01*
X190782721Y-128051388D01*
X190782723Y-128051384D01*
X190782722Y-128051381D01*
X190782722Y-128051378D01*
X190785066Y-128047571D01*
X190787409Y-128043761D01*
X190788794Y-128042758D01*
X190793101Y-128040820D01*
X190996193Y-127995525D01*
X190998740Y-127995245D01*
X191001260Y-127995245D01*
X191003806Y-127995525D01*
G37*
%TD.AperFunction*%
%TD*%
%TA.AperFunction,Conductor*%
%TO.N,suba*%
G36*
X171077935Y-78052427D02*
G01*
X171081277Y-78059289D01*
X171148407Y-78611889D01*
X171146002Y-78620515D01*
X171138203Y-78624915D01*
X171136792Y-78625000D01*
X170363208Y-78625000D01*
X170354935Y-78621573D01*
X170351508Y-78613300D01*
X170351593Y-78611889D01*
X170418723Y-78059289D01*
X170423123Y-78051490D01*
X170430338Y-78049000D01*
X171069662Y-78049000D01*
X171077935Y-78052427D01*
G37*
%TD.AperFunction*%
%TD*%
%TA.AperFunction,Conductor*%
%TO.N,VSSA*%
G36*
X167366688Y-111169784D02*
G01*
X167369327Y-111170383D01*
X167939003Y-111371470D01*
X167942924Y-111373798D01*
X167945089Y-111375743D01*
X167948663Y-111381796D01*
X167948696Y-111381938D01*
X167948900Y-111383716D01*
X167948951Y-111383823D01*
X167948921Y-111383905D01*
X167949000Y-111384586D01*
X167949000Y-111814394D01*
X167948109Y-111818873D01*
X167946996Y-111821559D01*
X167942417Y-111826984D01*
X167942293Y-111827062D01*
X167939957Y-111828191D01*
X167370243Y-112029292D01*
X167365725Y-112029942D01*
X167362878Y-112029790D01*
X167356181Y-112027233D01*
X167355999Y-112027087D01*
X167354089Y-112025150D01*
X167191774Y-111816722D01*
X167030026Y-111609023D01*
X167027980Y-111604950D01*
X167027285Y-111602428D01*
X167027754Y-111594845D01*
X167027994Y-111594266D01*
X167028382Y-111593600D01*
X167028389Y-111593547D01*
X167028433Y-111593511D01*
X167029566Y-111591567D01*
X167353498Y-111175606D01*
X167356949Y-111172625D01*
X167359430Y-111171216D01*
X167366452Y-111169759D01*
X167366688Y-111169784D01*
G37*
%TD.AperFunction*%
%TD*%
%TA.AperFunction,Conductor*%
%TO.N,/Clk20_Ext_P*%
G36*
X199043627Y-128056496D02*
G01*
X199164900Y-128177769D01*
X199168327Y-128186042D01*
X199164900Y-128194315D01*
X199161521Y-128196669D01*
X199100000Y-128224999D01*
X199100000Y-128225000D01*
X199324073Y-128404258D01*
X199328392Y-128412102D01*
X199325900Y-128420703D01*
X199318056Y-128425022D01*
X199316797Y-128425094D01*
X199000033Y-128425999D01*
X198999967Y-128425999D01*
X198683202Y-128425094D01*
X198674938Y-128421643D01*
X198671535Y-128413361D01*
X198674986Y-128405097D01*
X198675913Y-128404269D01*
X198900000Y-128225000D01*
X198928399Y-128156437D01*
X198930931Y-128152646D01*
X199027084Y-128056494D01*
X199035354Y-128053069D01*
X199043627Y-128056496D01*
G37*
%TD.AperFunction*%
%TD*%
%TA.AperFunction,Conductor*%
%TO.N,Net-(JP4-B)*%
G36*
X183146379Y-77312837D02*
G01*
X183973950Y-77390493D01*
X183981867Y-77394678D01*
X183984506Y-77401049D01*
X184062161Y-78228618D01*
X184059522Y-78237175D01*
X184051605Y-78241360D01*
X184050982Y-78241402D01*
X183187267Y-78276121D01*
X183205098Y-78732084D01*
X183201997Y-78740485D01*
X183193864Y-78744232D01*
X183193407Y-78744241D01*
X183092273Y-78744241D01*
X183084000Y-78740814D01*
X183080573Y-78732541D01*
X183080573Y-78234253D01*
X183081464Y-78229775D01*
X183098879Y-78187733D01*
X183133597Y-77324016D01*
X183137354Y-77315888D01*
X183145758Y-77312796D01*
X183146379Y-77312837D01*
G37*
%TD.AperFunction*%
%TD*%
%TA.AperFunction,Conductor*%
%TO.N,/SPI_left_MISO1*%
G36*
X161912325Y-99207750D02*
G01*
X161915158Y-99212342D01*
X162041605Y-99593821D01*
X162040955Y-99602752D01*
X162034180Y-99608608D01*
X162033046Y-99608921D01*
X161827547Y-99654754D01*
X161822453Y-99654754D01*
X161616953Y-99608921D01*
X161609624Y-99603776D01*
X161608081Y-99594955D01*
X161608390Y-99593834D01*
X161734842Y-99212342D01*
X161740698Y-99205567D01*
X161745948Y-99204323D01*
X161904052Y-99204323D01*
X161912325Y-99207750D01*
G37*
%TD.AperFunction*%
%TD*%
%TA.AperFunction,Conductor*%
%TO.N,Net-(J14-Pin_10)*%
G36*
X202111359Y-104018843D02*
G01*
X202122722Y-104023786D01*
X202487460Y-104182462D01*
X202493679Y-104188904D01*
X202493521Y-104197857D01*
X202492668Y-104199464D01*
X202380163Y-104376561D01*
X202376561Y-104380163D01*
X202199464Y-104492668D01*
X202190643Y-104494211D01*
X202183314Y-104489066D01*
X202182465Y-104487467D01*
X202018843Y-104111359D01*
X202018685Y-104102406D01*
X202021297Y-104098421D01*
X202098420Y-104021298D01*
X202106692Y-104017872D01*
X202111359Y-104018843D01*
G37*
%TD.AperFunction*%
%TD*%
%TA.AperFunction,Conductor*%
%TO.N,/SR_ck2*%
G36*
X193957843Y-120858511D02*
G01*
X194335117Y-120971828D01*
X194339147Y-120973968D01*
X194341279Y-120975708D01*
X194345222Y-120981898D01*
X194345319Y-120982282D01*
X194345677Y-120985151D01*
X194345677Y-121163970D01*
X194344785Y-121168450D01*
X194343731Y-121170993D01*
X194338925Y-121176556D01*
X194338587Y-121176758D01*
X194335951Y-121177920D01*
X193958172Y-121291387D01*
X193953632Y-121291823D01*
X193951857Y-121291644D01*
X193943970Y-121287404D01*
X193943967Y-121287401D01*
X193943079Y-121286313D01*
X193940724Y-121281462D01*
X193895526Y-121078805D01*
X193895245Y-121076258D01*
X193895245Y-121073740D01*
X193895526Y-121071193D01*
X193915039Y-120983701D01*
X193940651Y-120868864D01*
X193942489Y-120864697D01*
X193943516Y-120863235D01*
X193951068Y-120858436D01*
X193952469Y-120858191D01*
X193957843Y-120858511D01*
G37*
%TD.AperFunction*%
%TD*%
%TA.AperFunction,Conductor*%
%TO.N,/SPI_right_CLK*%
G36*
X198106616Y-116359331D02*
G01*
X198488263Y-116509581D01*
X198494706Y-116515801D01*
X198495677Y-116520468D01*
X198495677Y-116629531D01*
X198492250Y-116637804D01*
X198488263Y-116640418D01*
X198106622Y-116790666D01*
X198097669Y-116790508D01*
X198091449Y-116784065D01*
X198090917Y-116782326D01*
X198045245Y-116577547D01*
X198045245Y-116572453D01*
X198058616Y-116512500D01*
X198090917Y-116367671D01*
X198096062Y-116360344D01*
X198104883Y-116358801D01*
X198106616Y-116359331D01*
G37*
%TD.AperFunction*%
%TD*%
%TA.AperFunction,Conductor*%
%TO.N,VDD*%
G36*
X164826121Y-107720208D02*
G01*
X164832817Y-107722765D01*
X164832999Y-107722911D01*
X164834909Y-107724848D01*
X165158971Y-108140975D01*
X165161020Y-108145056D01*
X165161713Y-108147571D01*
X165161247Y-108155145D01*
X165161012Y-108155714D01*
X165159429Y-108158437D01*
X164835503Y-108574386D01*
X164832052Y-108577370D01*
X164829572Y-108578779D01*
X164822538Y-108580239D01*
X164822428Y-108580227D01*
X164822305Y-108580213D01*
X164820800Y-108579871D01*
X164820686Y-108579886D01*
X164820613Y-108579829D01*
X164819666Y-108579614D01*
X164250001Y-108378529D01*
X164246078Y-108376202D01*
X164245502Y-108375684D01*
X164243912Y-108374256D01*
X164240305Y-108368066D01*
X164240273Y-108367924D01*
X164240000Y-108365412D01*
X164240000Y-107935604D01*
X164240889Y-107931130D01*
X164242003Y-107928439D01*
X164246586Y-107923012D01*
X164246717Y-107922929D01*
X164249033Y-107921810D01*
X164818757Y-107720705D01*
X164823271Y-107720056D01*
X164826121Y-107720208D01*
G37*
%TD.AperFunction*%
%TD*%
%TA.AperFunction,Conductor*%
%TO.N,VSSA*%
G36*
X169686121Y-111170208D02*
G01*
X169692817Y-111172765D01*
X169692999Y-111172911D01*
X169694909Y-111174848D01*
X170018971Y-111590975D01*
X170021020Y-111595056D01*
X170021713Y-111597571D01*
X170021247Y-111605145D01*
X170021012Y-111605714D01*
X170019429Y-111608437D01*
X169695503Y-112024386D01*
X169692052Y-112027370D01*
X169689572Y-112028779D01*
X169682538Y-112030239D01*
X169682428Y-112030227D01*
X169682305Y-112030213D01*
X169680800Y-112029871D01*
X169680686Y-112029886D01*
X169680613Y-112029829D01*
X169679666Y-112029614D01*
X169110001Y-111828529D01*
X169106078Y-111826202D01*
X169105502Y-111825684D01*
X169103912Y-111824256D01*
X169100305Y-111818066D01*
X169100273Y-111817924D01*
X169100000Y-111815412D01*
X169100000Y-111385604D01*
X169100889Y-111381130D01*
X169102003Y-111378439D01*
X169106586Y-111373012D01*
X169106717Y-111372929D01*
X169109033Y-111371810D01*
X169678757Y-111170705D01*
X169683271Y-111170056D01*
X169686121Y-111170208D01*
G37*
%TD.AperFunction*%
%TD*%
%TA.AperFunction,Conductor*%
%TO.N,GND*%
G36*
X168619663Y-104559840D02*
G01*
X168624298Y-104565502D01*
X168744098Y-104876345D01*
X168743876Y-104885297D01*
X168741454Y-104888826D01*
X168664317Y-104965963D01*
X168656044Y-104969390D01*
X168650965Y-104968230D01*
X168286630Y-104792686D01*
X168280665Y-104786008D01*
X168281169Y-104777067D01*
X168281713Y-104776065D01*
X168381145Y-104612985D01*
X168388376Y-104607707D01*
X168388548Y-104607667D01*
X168610846Y-104558288D01*
X168619663Y-104559840D01*
G37*
%TD.AperFunction*%
%TD*%
%TA.AperFunction,Conductor*%
%TO.N,/interrupt*%
G36*
X202433023Y-105069237D02*
G01*
X202435972Y-105070357D01*
X202941847Y-105345565D01*
X202945352Y-105348484D01*
X202947397Y-105351013D01*
X202950000Y-105358370D01*
X202950000Y-105540717D01*
X202949108Y-105545197D01*
X202947863Y-105548201D01*
X202942646Y-105553999D01*
X202436616Y-105829291D01*
X202432256Y-105830648D01*
X202429676Y-105830921D01*
X202422259Y-105829217D01*
X202421718Y-105828880D01*
X202421138Y-105828398D01*
X202421088Y-105828384D01*
X202421061Y-105828334D01*
X202419279Y-105826854D01*
X202082810Y-105459616D01*
X202080442Y-105455709D01*
X202079733Y-105453758D01*
X202079920Y-105445285D01*
X202080451Y-105444003D01*
X202080452Y-105444002D01*
X202082631Y-105440578D01*
X202418786Y-105073683D01*
X202422465Y-105070986D01*
X202424817Y-105069889D01*
X202432398Y-105069093D01*
X202433023Y-105069237D01*
G37*
%TD.AperFunction*%
%TD*%
%TA.AperFunction,Conductor*%
%TO.N,/blpix*%
G36*
X199995318Y-102785300D02*
G01*
X200202222Y-102882091D01*
X200362948Y-102957280D01*
X200368989Y-102963890D01*
X200368588Y-102972836D01*
X200367866Y-102974152D01*
X200255163Y-103151561D01*
X200251561Y-103155163D01*
X200074152Y-103267866D01*
X200065331Y-103269409D01*
X200058002Y-103264264D01*
X200057280Y-103262948D01*
X199999450Y-103139329D01*
X199885300Y-102895320D01*
X199884900Y-102886376D01*
X199887624Y-102882093D01*
X199982092Y-102787625D01*
X199990364Y-102784199D01*
X199995318Y-102785300D01*
G37*
%TD.AperFunction*%
%TD*%
%TA.AperFunction,Conductor*%
%TO.N,Net-(J14-Pin_5)*%
G36*
X175183211Y-112709959D02*
G01*
X175561098Y-112858728D01*
X175564937Y-112861197D01*
X175567103Y-112863288D01*
X175570675Y-112871500D01*
X175570677Y-112871706D01*
X175570677Y-112977203D01*
X175569786Y-112981681D01*
X175568634Y-112984462D01*
X175562302Y-112990793D01*
X175562111Y-112990871D01*
X175183786Y-113139813D01*
X175179296Y-113140624D01*
X175177517Y-113140593D01*
X175169305Y-113137023D01*
X175169304Y-113137022D01*
X175168547Y-113136238D01*
X175165545Y-113130658D01*
X175120526Y-112928806D01*
X175120245Y-112926259D01*
X175120245Y-112923740D01*
X175120526Y-112921193D01*
X175133616Y-112862500D01*
X175165410Y-112719943D01*
X175167254Y-112715767D01*
X175168277Y-112714310D01*
X175175832Y-112709509D01*
X175176916Y-112709320D01*
X175183211Y-112709959D01*
G37*
%TD.AperFunction*%
%TD*%
%TA.AperFunction,Conductor*%
%TO.N,/SPI_MISO0_P*%
G36*
X181099209Y-120788283D02*
G01*
X181345636Y-120893654D01*
X181349512Y-120896348D01*
X181470659Y-121023803D01*
X181473875Y-121032160D01*
X181470452Y-121040136D01*
X181345274Y-121165314D01*
X181337001Y-121168741D01*
X181328825Y-121165410D01*
X181046899Y-120889959D01*
X181043376Y-120881726D01*
X181044523Y-120876536D01*
X181084061Y-120793986D01*
X181090723Y-120788007D01*
X181099209Y-120788283D01*
G37*
%TD.AperFunction*%
%TD*%
%TA.AperFunction,Conductor*%
%TO.N,/SR_out_CK1*%
G36*
X178806571Y-112359234D02*
G01*
X179188204Y-112507104D01*
X179194680Y-112513289D01*
X179195677Y-112518014D01*
X179195677Y-112631985D01*
X179192250Y-112640258D01*
X179188204Y-112642895D01*
X178806579Y-112790762D01*
X178797627Y-112790555D01*
X178791442Y-112784079D01*
X178790935Y-112782406D01*
X178745245Y-112577546D01*
X178745245Y-112572453D01*
X178790934Y-112367598D01*
X178796078Y-112360271D01*
X178804899Y-112358728D01*
X178806571Y-112359234D01*
G37*
%TD.AperFunction*%
%TD*%
%TA.AperFunction,Conductor*%
%TO.N,suba*%
G36*
X170998000Y-74778427D02*
G01*
X171001329Y-74785187D01*
X171073279Y-75336810D01*
X171070951Y-75345457D01*
X171063190Y-75349925D01*
X171061697Y-75350023D01*
X170500000Y-75351000D01*
X170425922Y-75351000D01*
X170417649Y-75347573D01*
X170416468Y-75346193D01*
X170013557Y-74793593D01*
X170011452Y-74784889D01*
X170016118Y-74777246D01*
X170023011Y-74775000D01*
X170989727Y-74775000D01*
X170998000Y-74778427D01*
G37*
%TD.AperFunction*%
%TD*%
%TA.AperFunction,Conductor*%
%TO.N,Net-(J14-Pin_3)*%
G36*
X184815091Y-111126251D02*
G01*
X184816411Y-111128033D01*
X185039433Y-111497931D01*
X185040770Y-111506784D01*
X185037686Y-111512244D01*
X184961187Y-111588743D01*
X184952914Y-111592170D01*
X184948640Y-111591361D01*
X184826743Y-111543521D01*
X184707799Y-111496840D01*
X184701350Y-111490629D01*
X184700408Y-111486837D01*
X184681494Y-111236793D01*
X184684287Y-111228287D01*
X184685327Y-111227224D01*
X184798568Y-111125375D01*
X184807011Y-111122391D01*
X184815091Y-111126251D01*
G37*
%TD.AperFunction*%
%TD*%
%TA.AperFunction,Conductor*%
%TO.N,GND*%
G36*
X195904475Y-123716952D02*
G01*
X195911238Y-123719957D01*
X195911571Y-123720261D01*
X195913485Y-123722515D01*
X195975804Y-123818213D01*
X196306939Y-124326710D01*
X196308636Y-124330949D01*
X196309091Y-124333387D01*
X196307877Y-124341107D01*
X196307489Y-124341823D01*
X196305475Y-124344522D01*
X196141498Y-124508499D01*
X196137846Y-124510975D01*
X196134010Y-124512624D01*
X196129700Y-124513571D01*
X195712870Y-124524657D01*
X195708367Y-124523884D01*
X195706379Y-124523121D01*
X195700145Y-124517508D01*
X195699546Y-124516332D01*
X195698372Y-124512540D01*
X195676268Y-124343319D01*
X195607677Y-123818210D01*
X195607978Y-123813665D01*
X195608589Y-123811395D01*
X195613220Y-123804821D01*
X195614057Y-123804241D01*
X195617297Y-123802671D01*
X195897229Y-123717147D01*
X195901767Y-123716691D01*
X195904475Y-123716952D01*
G37*
%TD.AperFunction*%
%TD*%
%TA.AperFunction,Conductor*%
%TO.N,/ThPix*%
G36*
X189787597Y-118662343D02*
G01*
X190101417Y-118909843D01*
X190105791Y-118917657D01*
X190104497Y-118924533D01*
X190059064Y-119009770D01*
X190052148Y-119015459D01*
X190044420Y-119015141D01*
X189795660Y-118916338D01*
X189789909Y-118911421D01*
X189695665Y-118752104D01*
X189694402Y-118743239D01*
X189697460Y-118737876D01*
X189772080Y-118663256D01*
X189780352Y-118659830D01*
X189787597Y-118662343D01*
G37*
%TD.AperFunction*%
%TD*%
%TA.AperFunction,Conductor*%
%TO.N,Net-(J5-In)*%
G36*
X177046248Y-114817294D02*
G01*
X177247497Y-114862179D01*
X177251667Y-114864019D01*
X177253128Y-114865044D01*
X177253131Y-114865049D01*
X177253136Y-114865050D01*
X177253138Y-114865052D01*
X177255538Y-114868837D01*
X177257931Y-114872600D01*
X177257934Y-114872614D01*
X177258121Y-114873688D01*
X177257481Y-114879981D01*
X177108713Y-115257866D01*
X177106246Y-115261704D01*
X177104156Y-115263870D01*
X177095945Y-115267444D01*
X177095736Y-115267446D01*
X176990237Y-115267446D01*
X176985759Y-115266555D01*
X176982978Y-115265403D01*
X176976647Y-115259071D01*
X176976569Y-115258880D01*
X176827627Y-114880555D01*
X176826816Y-114876065D01*
X176826847Y-114874286D01*
X176830416Y-114866075D01*
X176831204Y-114865314D01*
X176836781Y-114862313D01*
X177038635Y-114817294D01*
X177041182Y-114817014D01*
X177043702Y-114817014D01*
X177046248Y-114817294D01*
G37*
%TD.AperFunction*%
%TD*%
%TA.AperFunction,Conductor*%
%TO.N,/VCasc2!*%
G36*
X191117914Y-119580214D02*
G01*
X191120282Y-119581195D01*
X191126011Y-119586286D01*
X191126346Y-119586884D01*
X191127521Y-119589892D01*
X191217391Y-119967295D01*
X191217562Y-119971852D01*
X191217281Y-119973610D01*
X191212592Y-119981238D01*
X191212584Y-119981244D01*
X191211208Y-119982239D01*
X191206899Y-119984177D01*
X191003811Y-120029473D01*
X191001264Y-120029754D01*
X190998744Y-120029754D01*
X190996197Y-120029473D01*
X190793182Y-119984194D01*
X190789009Y-119982353D01*
X190788847Y-119982239D01*
X190787550Y-119981328D01*
X190782747Y-119973774D01*
X190782453Y-119972089D01*
X190782597Y-119967370D01*
X190782615Y-119967295D01*
X190872324Y-119590573D01*
X190874225Y-119586429D01*
X190875732Y-119584348D01*
X190882029Y-119579949D01*
X190882690Y-119579763D01*
X190883327Y-119579674D01*
X190883358Y-119579656D01*
X190883396Y-119579665D01*
X190885868Y-119579323D01*
X191113436Y-119579323D01*
X191117914Y-119580214D01*
G37*
%TD.AperFunction*%
%TD*%
%TA.AperFunction,Conductor*%
%TO.N,/SPI_MISO0_P*%
G36*
X197102252Y-128078427D02*
G01*
X197103500Y-128079900D01*
X197336831Y-128406564D01*
X197338851Y-128415287D01*
X197334110Y-128422885D01*
X197327343Y-128425064D01*
X197000033Y-128425999D01*
X196999967Y-128425999D01*
X196672656Y-128425064D01*
X196664392Y-128421613D01*
X196660989Y-128413331D01*
X196663167Y-128406565D01*
X196896500Y-128079900D01*
X196904098Y-128075159D01*
X196906021Y-128075000D01*
X197093979Y-128075000D01*
X197102252Y-128078427D01*
G37*
%TD.AperFunction*%
%TD*%
%TA.AperFunction,Conductor*%
%TO.N,/SPI_left_CLK*%
G36*
X159817307Y-104785538D02*
G01*
X159817887Y-104786562D01*
X159998221Y-105145719D01*
X159998871Y-105154650D01*
X159996038Y-105159242D01*
X159884242Y-105271038D01*
X159875969Y-105274465D01*
X159870719Y-105273221D01*
X159511562Y-105092887D01*
X159505706Y-105086112D01*
X159506356Y-105077181D01*
X159506929Y-105076167D01*
X159619839Y-104898434D01*
X159623434Y-104894839D01*
X159801158Y-104781935D01*
X159809978Y-104780393D01*
X159817307Y-104785538D01*
G37*
%TD.AperFunction*%
%TD*%
%TA.AperFunction,Conductor*%
%TO.N,VDDA*%
G36*
X193608228Y-123608496D02*
G01*
X193921080Y-124043165D01*
X193923132Y-124051882D01*
X193921080Y-124056835D01*
X193608228Y-124491503D01*
X193600614Y-124496216D01*
X193592991Y-124494863D01*
X193030959Y-124178355D01*
X193025432Y-124171309D01*
X193025000Y-124168160D01*
X193025000Y-123931839D01*
X193028427Y-123923566D01*
X193030959Y-123921644D01*
X193592993Y-123605135D01*
X193601881Y-123604063D01*
X193608228Y-123608496D01*
G37*
%TD.AperFunction*%
%TD*%
%TA.AperFunction,Conductor*%
%TO.N,/SR_ck2*%
G36*
X206096128Y-128075890D02*
G01*
X206099435Y-128077260D01*
X206104477Y-128081269D01*
X206335479Y-128404671D01*
X206337357Y-128408835D01*
X206337733Y-128410461D01*
X206336258Y-128419294D01*
X206329919Y-128424234D01*
X206329074Y-128424506D01*
X206325522Y-128425069D01*
X206000033Y-128425999D01*
X205999967Y-128425999D01*
X205674983Y-128425070D01*
X205670507Y-128424166D01*
X205668965Y-128423522D01*
X205662652Y-128417172D01*
X205662338Y-128409140D01*
X205662610Y-128408294D01*
X205664221Y-128405088D01*
X205895149Y-128081790D01*
X205898475Y-128078667D01*
X205900731Y-128077260D01*
X205901512Y-128076773D01*
X205907704Y-128075000D01*
X206091652Y-128075000D01*
X206096128Y-128075890D01*
G37*
%TD.AperFunction*%
%TD*%
%TA.AperFunction,Conductor*%
%TO.N,GND*%
G36*
X168205397Y-112725476D02*
G01*
X168530401Y-113142811D01*
X168532781Y-113151444D01*
X168530401Y-113157189D01*
X168205397Y-113574523D01*
X168197610Y-113578945D01*
X168189937Y-113577238D01*
X167615471Y-113215940D01*
X167610292Y-113208635D01*
X167610000Y-113206036D01*
X167610000Y-113093963D01*
X167613427Y-113085690D01*
X167615471Y-113084059D01*
X168189938Y-112722760D01*
X168198765Y-112721257D01*
X168205397Y-112725476D01*
G37*
%TD.AperFunction*%
%TD*%
%TA.AperFunction,Conductor*%
%TO.N,GND*%
G36*
X183869800Y-119704517D02*
G01*
X183873227Y-119712790D01*
X183873111Y-119714430D01*
X183815760Y-120119491D01*
X183811208Y-120127202D01*
X183808516Y-120128716D01*
X183755226Y-120150002D01*
X183746272Y-120149889D01*
X183745108Y-120149311D01*
X183419348Y-119964288D01*
X183413846Y-119957222D01*
X183414952Y-119948336D01*
X183416214Y-119946533D01*
X183621496Y-119705209D01*
X183629467Y-119701128D01*
X183630408Y-119701090D01*
X183861527Y-119701090D01*
X183869800Y-119704517D01*
G37*
%TD.AperFunction*%
%TD*%
%TA.AperFunction,Conductor*%
%TO.N,Net-(JP3-C)*%
G36*
X175688319Y-111251140D02*
G01*
X175689211Y-111251766D01*
X175693219Y-111256676D01*
X175855228Y-111629077D01*
X175856197Y-111633538D01*
X175856250Y-111636545D01*
X175852970Y-111644877D01*
X175852825Y-111645024D01*
X175778225Y-111719624D01*
X175774430Y-111722160D01*
X175771649Y-111723312D01*
X175762694Y-111723312D01*
X175762504Y-111723232D01*
X175638992Y-111669499D01*
X175636160Y-111667750D01*
X175633686Y-111665684D01*
X175631456Y-111663204D01*
X175626899Y-111656383D01*
X175626640Y-111655949D01*
X175625976Y-111655506D01*
X175625974Y-111655504D01*
X175584377Y-111627711D01*
X175583928Y-111627342D01*
X175583416Y-111627069D01*
X175545355Y-111619500D01*
X175527701Y-111619500D01*
X175525316Y-111619254D01*
X175523006Y-111618773D01*
X175520724Y-111618048D01*
X175389673Y-111561035D01*
X175385924Y-111558433D01*
X175384687Y-111557152D01*
X175381405Y-111548821D01*
X175381424Y-111547730D01*
X175383244Y-111541666D01*
X175494152Y-111367084D01*
X175495747Y-111365095D01*
X175497525Y-111363317D01*
X175499514Y-111361722D01*
X175673576Y-111251144D01*
X175677826Y-111249499D01*
X175679588Y-111249191D01*
X175688319Y-111251140D01*
G37*
%TD.AperFunction*%
%TD*%
%TA.AperFunction,Conductor*%
%TO.N,Net-(U2A-VGateComp!)*%
G36*
X176482454Y-114374115D02*
G01*
X176483366Y-114374585D01*
X176486278Y-114376711D01*
X176649635Y-114540068D01*
X176652170Y-114543863D01*
X176652171Y-114543864D01*
X176653793Y-114547780D01*
X176654683Y-114552377D01*
X176650128Y-114996935D01*
X176649193Y-115001401D01*
X176648326Y-115003436D01*
X176642603Y-115009408D01*
X176641516Y-115009927D01*
X176637835Y-115010990D01*
X175940104Y-115092636D01*
X175935554Y-115092272D01*
X175932865Y-115091510D01*
X175926812Y-115087426D01*
X175926611Y-115087167D01*
X175925925Y-115086024D01*
X175925840Y-115085957D01*
X175925829Y-115085864D01*
X175925177Y-115084778D01*
X175892013Y-115010765D01*
X175820768Y-114851765D01*
X175819750Y-114847313D01*
X175819681Y-114844866D01*
X175822116Y-114837384D01*
X175822642Y-114836703D01*
X175825104Y-114834332D01*
X176468028Y-114375515D01*
X176472183Y-114373643D01*
X176474466Y-114373116D01*
X176482454Y-114374115D01*
G37*
%TD.AperFunction*%
%TD*%
%TA.AperFunction,Conductor*%
%TO.N,/SPI_right_MISO0*%
G36*
X198173772Y-117852506D02*
G01*
X198483629Y-117973237D01*
X198490093Y-117979434D01*
X198490796Y-117986703D01*
X198440689Y-118209749D01*
X198435533Y-118217070D01*
X198435352Y-118217182D01*
X198272956Y-118315922D01*
X198264107Y-118317292D01*
X198256881Y-118312003D01*
X198256379Y-118311087D01*
X198210152Y-118217070D01*
X198078427Y-117949169D01*
X198077852Y-117940235D01*
X198080652Y-117935738D01*
X198161255Y-117855135D01*
X198169527Y-117851709D01*
X198173772Y-117852506D01*
G37*
%TD.AperFunction*%
%TD*%
%TA.AperFunction,Conductor*%
%TO.N,Net-(J2-Pin_3)*%
G36*
X165658643Y-90010575D02*
G01*
X165662967Y-90011882D01*
X165669918Y-90015570D01*
X165669919Y-90015570D01*
X166937638Y-90688113D01*
X166941172Y-90690995D01*
X166943228Y-90693485D01*
X166945907Y-90700934D01*
X166945907Y-90808134D01*
X166945016Y-90812613D01*
X166943780Y-90815596D01*
X166938454Y-90821453D01*
X165662989Y-91498104D01*
X165658619Y-91499415D01*
X165656819Y-91499587D01*
X165648291Y-91496991D01*
X165646941Y-91495885D01*
X165644067Y-91492404D01*
X165567517Y-91350987D01*
X165249028Y-90762614D01*
X165247681Y-90758256D01*
X165247324Y-90754816D01*
X165248672Y-90748043D01*
X165274929Y-90699537D01*
X165644057Y-90017612D01*
X165646967Y-90014103D01*
X165648376Y-90012960D01*
X165656900Y-90010402D01*
X165658643Y-90010575D01*
G37*
%TD.AperFunction*%
%TD*%
%TA.AperFunction,Conductor*%
%TO.N,Net-(U2A-Qdac<0>)*%
G36*
X187681680Y-112530212D02*
G01*
X187684462Y-112531365D01*
X187690794Y-112537695D01*
X187690872Y-112537888D01*
X187839813Y-112916212D01*
X187840624Y-112920702D01*
X187840593Y-112922481D01*
X187837023Y-112930693D01*
X187837022Y-112930694D01*
X187836238Y-112931451D01*
X187830658Y-112934453D01*
X187628807Y-112979473D01*
X187626260Y-112979754D01*
X187623740Y-112979754D01*
X187621193Y-112979473D01*
X187419944Y-112934588D01*
X187415771Y-112932747D01*
X187414312Y-112931722D01*
X187409509Y-112924168D01*
X187409320Y-112923085D01*
X187409957Y-112916789D01*
X187558728Y-112538900D01*
X187561199Y-112535060D01*
X187563290Y-112532895D01*
X187571503Y-112529325D01*
X187571706Y-112529323D01*
X187677205Y-112529323D01*
X187681680Y-112530212D01*
G37*
%TD.AperFunction*%
%TD*%
%TA.AperFunction,Conductor*%
%TO.N,/SPI_CLK_P*%
G36*
X184228806Y-120495106D02*
G01*
X184431130Y-120540231D01*
X184435298Y-120542069D01*
X184436760Y-120543096D01*
X184436761Y-120543097D01*
X184436762Y-120543097D01*
X184436767Y-120543101D01*
X184439116Y-120546802D01*
X184441563Y-120550650D01*
X184441565Y-120550660D01*
X184441807Y-120552046D01*
X184441486Y-120557424D01*
X184328172Y-120934694D01*
X184326033Y-120938724D01*
X184324292Y-120940858D01*
X184318106Y-120944802D01*
X184317898Y-120944854D01*
X184317725Y-120944898D01*
X184314848Y-120945258D01*
X184136029Y-120945258D01*
X184131549Y-120944366D01*
X184129006Y-120943312D01*
X184123443Y-120938506D01*
X184123241Y-120938168D01*
X184122749Y-120937052D01*
X184122676Y-120936979D01*
X184122676Y-120936886D01*
X184122079Y-120935532D01*
X184008611Y-120557753D01*
X184008175Y-120553213D01*
X184008354Y-120551438D01*
X184008355Y-120551432D01*
X184011307Y-120545945D01*
X184012594Y-120543551D01*
X184012594Y-120543550D01*
X184013686Y-120542659D01*
X184018533Y-120540306D01*
X184221193Y-120495106D01*
X184223740Y-120494826D01*
X184226260Y-120494826D01*
X184228806Y-120495106D01*
G37*
%TD.AperFunction*%
%TD*%
%TA.AperFunction,Conductor*%
%TO.N,VDD*%
G36*
X164017688Y-107719784D02*
G01*
X164020327Y-107720383D01*
X164590003Y-107921470D01*
X164593924Y-107923798D01*
X164596089Y-107925743D01*
X164599663Y-107931796D01*
X164599696Y-107931938D01*
X164599900Y-107933716D01*
X164599951Y-107933823D01*
X164599921Y-107933905D01*
X164600000Y-107934586D01*
X164600000Y-108364394D01*
X164599109Y-108368873D01*
X164597996Y-108371559D01*
X164593417Y-108376984D01*
X164593293Y-108377062D01*
X164590957Y-108378191D01*
X164021243Y-108579292D01*
X164016725Y-108579942D01*
X164013878Y-108579790D01*
X164007181Y-108577233D01*
X164006999Y-108577087D01*
X164005089Y-108575150D01*
X163842774Y-108366722D01*
X163681026Y-108159023D01*
X163678980Y-108154950D01*
X163678285Y-108152428D01*
X163678754Y-108144845D01*
X163678994Y-108144266D01*
X163679382Y-108143600D01*
X163679389Y-108143547D01*
X163679433Y-108143511D01*
X163680566Y-108141567D01*
X164004498Y-107725606D01*
X164007949Y-107722625D01*
X164010430Y-107721216D01*
X164017452Y-107719759D01*
X164017688Y-107719784D01*
G37*
%TD.AperFunction*%
%TD*%
%TA.AperFunction,Conductor*%
%TO.N,VDD*%
G36*
X160249448Y-128078427D02*
G01*
X160252425Y-128083486D01*
X160345751Y-128410130D01*
X160344729Y-128419026D01*
X160337715Y-128424594D01*
X160334534Y-128425044D01*
X160000033Y-128425999D01*
X159999967Y-128425999D01*
X159665465Y-128425044D01*
X159657201Y-128421593D01*
X159653798Y-128413311D01*
X159654247Y-128410133D01*
X159747575Y-128083485D01*
X159753143Y-128076472D01*
X159758825Y-128075000D01*
X160241175Y-128075000D01*
X160249448Y-128078427D01*
G37*
%TD.AperFunction*%
%TD*%
%TA.AperFunction,Conductor*%
%TO.N,/SR_sin*%
G36*
X207057508Y-128018311D02*
G01*
X207059153Y-128018992D01*
X207062951Y-128021529D01*
X207068248Y-128026826D01*
X207069707Y-128028604D01*
X207070965Y-128030489D01*
X207072042Y-128032507D01*
X207099994Y-128099991D01*
X207099995Y-128099992D01*
X207099998Y-128099996D01*
X207100000Y-128100000D01*
X207334145Y-128404388D01*
X207336169Y-128408482D01*
X207336582Y-128410017D01*
X207335423Y-128418897D01*
X207329067Y-128424129D01*
X207328145Y-128424444D01*
X207324395Y-128425072D01*
X207000033Y-128425999D01*
X206999967Y-128425999D01*
X206676003Y-128425073D01*
X206671528Y-128424170D01*
X206670060Y-128423557D01*
X206663746Y-128417206D01*
X206663498Y-128408974D01*
X206663812Y-128408053D01*
X206665606Y-128404710D01*
X206886243Y-128117881D01*
X206889671Y-128114881D01*
X206891222Y-128113989D01*
X206900087Y-128112828D01*
X206900225Y-128112865D01*
X206906478Y-128117045D01*
X206906804Y-128117470D01*
X206907265Y-128118270D01*
X206907328Y-128118318D01*
X206907338Y-128118395D01*
X206908330Y-128120114D01*
X206918042Y-128143561D01*
X206918428Y-128145501D01*
X206918932Y-128145711D01*
X206918933Y-128145710D01*
X206918933Y-128145711D01*
X207043117Y-128021526D01*
X207046912Y-128018991D01*
X207047589Y-128018711D01*
X207048560Y-128018310D01*
X207057508Y-128018311D01*
G37*
%TD.AperFunction*%
%TD*%
%TA.AperFunction,Conductor*%
%TO.N,VDD*%
G36*
X161536376Y-107673227D02*
G01*
X161873842Y-107705546D01*
X161881749Y-107709745D01*
X161884268Y-107715283D01*
X162007157Y-108458338D01*
X162005126Y-108467059D01*
X161998533Y-108471577D01*
X161762369Y-108532432D01*
X161753503Y-108531178D01*
X161751177Y-108529375D01*
X161220976Y-107999174D01*
X161217549Y-107990901D01*
X161220976Y-107982628D01*
X161527002Y-107676601D01*
X161535274Y-107673175D01*
X161536376Y-107673227D01*
G37*
%TD.AperFunction*%
%TD*%
%TA.AperFunction,Conductor*%
%TO.N,Net-(JP4-B)*%
G36*
X183205878Y-78749818D02*
G01*
X183208492Y-78753805D01*
X183358739Y-79135445D01*
X183358581Y-79144398D01*
X183352138Y-79150618D01*
X183350399Y-79151150D01*
X183145620Y-79196822D01*
X183140526Y-79196822D01*
X182935746Y-79151150D01*
X182928417Y-79146005D01*
X182926874Y-79137184D01*
X182927402Y-79135454D01*
X183077654Y-78753804D01*
X183083874Y-78747362D01*
X183088541Y-78746391D01*
X183197605Y-78746391D01*
X183205878Y-78749818D01*
G37*
%TD.AperFunction*%
%TD*%
%TA.AperFunction,Conductor*%
%TO.N,/VCasc2!*%
G36*
X188149993Y-114585351D02*
G01*
X188151763Y-114586084D01*
X188158005Y-114592205D01*
X188159013Y-114594510D01*
X188251622Y-114632069D01*
X188411244Y-114696806D01*
X188415055Y-114699311D01*
X188416655Y-114700888D01*
X188416865Y-114701095D01*
X188420268Y-114708030D01*
X188420355Y-114708753D01*
X188420343Y-114709323D01*
X188420352Y-114709343D01*
X188420342Y-114709365D01*
X188420290Y-114712011D01*
X188388327Y-114910513D01*
X188386737Y-114914790D01*
X188385190Y-114917301D01*
X188379819Y-114921926D01*
X188379751Y-114921955D01*
X188377410Y-114922675D01*
X188169632Y-114963370D01*
X188165071Y-114963357D01*
X188163240Y-114962988D01*
X188162833Y-114962905D01*
X188155904Y-114958611D01*
X188155227Y-114957740D01*
X188153449Y-114954494D01*
X188142022Y-114922432D01*
X188066071Y-114709323D01*
X188060503Y-114693700D01*
X188055641Y-114681964D01*
X188041330Y-114647413D01*
X188040667Y-114645229D01*
X188040223Y-114643000D01*
X188040000Y-114640721D01*
X188040000Y-114598489D01*
X188040889Y-114594016D01*
X188040923Y-114593931D01*
X188041571Y-114592368D01*
X188047896Y-114586037D01*
X188049469Y-114585385D01*
X188049554Y-114585351D01*
X188054027Y-114584462D01*
X188145518Y-114584462D01*
X188149993Y-114585351D01*
G37*
%TD.AperFunction*%
%TD*%
%TA.AperFunction,Conductor*%
%TO.N,/blpix*%
G36*
X185903825Y-113001419D02*
G01*
X186083938Y-113038860D01*
X186120786Y-113046520D01*
X186124987Y-113048302D01*
X186126461Y-113049305D01*
X186131373Y-113056792D01*
X186131563Y-113057791D01*
X186130922Y-113064347D01*
X185978819Y-113442135D01*
X185976324Y-113445953D01*
X185975317Y-113446980D01*
X185974207Y-113448112D01*
X185965971Y-113451623D01*
X185965851Y-113451624D01*
X185839527Y-113451624D01*
X185835050Y-113450733D01*
X185833401Y-113450050D01*
X185827072Y-113443719D01*
X185826389Y-113442069D01*
X185825500Y-113437596D01*
X185825500Y-113370133D01*
X185825500Y-113370131D01*
X185825238Y-113369500D01*
X185825236Y-113369494D01*
X185825236Y-113369493D01*
X185825234Y-113369490D01*
X185816002Y-113347201D01*
X185793073Y-113291846D01*
X185793072Y-113291844D01*
X185767109Y-113265881D01*
X185765401Y-113263713D01*
X185765239Y-113263449D01*
X185763987Y-113261400D01*
X185762838Y-113258896D01*
X185699997Y-113064066D01*
X185699471Y-113059534D01*
X185699615Y-113057754D01*
X185703694Y-113049793D01*
X185704758Y-113048888D01*
X185709596Y-113046428D01*
X185896188Y-113001539D01*
X185898739Y-113001216D01*
X185901276Y-113001176D01*
X185903825Y-113001419D01*
G37*
%TD.AperFunction*%
%TD*%
%TA.AperFunction,Conductor*%
%TO.N,GND*%
G36*
X199702804Y-119095669D02*
G01*
X199703179Y-119095913D01*
X199705407Y-119097804D01*
X200042185Y-119465380D01*
X200044551Y-119469280D01*
X200045262Y-119471232D01*
X200045079Y-119479711D01*
X200044547Y-119480996D01*
X200042364Y-119484425D01*
X199705979Y-119851570D01*
X199702299Y-119854269D01*
X199699834Y-119855419D01*
X199692448Y-119856258D01*
X199692009Y-119856165D01*
X199689250Y-119855203D01*
X199648696Y-119835078D01*
X199647070Y-119834100D01*
X199645539Y-119833000D01*
X199644093Y-119831771D01*
X199501899Y-119689576D01*
X199501890Y-119689568D01*
X199429954Y-119648035D01*
X199429950Y-119648033D01*
X199429810Y-119647997D01*
X199412994Y-119643492D01*
X199349714Y-119626535D01*
X199349711Y-119626535D01*
X199349709Y-119626535D01*
X199232567Y-119626535D01*
X199229895Y-119626226D01*
X199227323Y-119625622D01*
X199224796Y-119624712D01*
X199183584Y-119604259D01*
X199179968Y-119601470D01*
X199177883Y-119599080D01*
X199175000Y-119591389D01*
X199175000Y-119359581D01*
X199175890Y-119355106D01*
X199176250Y-119354234D01*
X199177103Y-119352175D01*
X199177107Y-119352172D01*
X199182710Y-119346172D01*
X199688496Y-119095169D01*
X199692895Y-119093977D01*
X199695615Y-119093792D01*
X199702804Y-119095669D01*
G37*
%TD.AperFunction*%
%TD*%
%TA.AperFunction,Conductor*%
%TO.N,Net-(J14-Pin_3)*%
G36*
X175925583Y-61447889D02*
G01*
X176669281Y-61845157D01*
X176674963Y-61852078D01*
X176674088Y-61860990D01*
X176674070Y-61861022D01*
X175985813Y-63139752D01*
X175978875Y-63145413D01*
X175975511Y-63145907D01*
X175864586Y-63145907D01*
X175856313Y-63142480D01*
X175854217Y-63139628D01*
X175185680Y-61860850D01*
X175184884Y-61851930D01*
X175190421Y-61845171D01*
X175190447Y-61845157D01*
X175914448Y-61447952D01*
X175923348Y-61446978D01*
X175925583Y-61447889D01*
G37*
%TD.AperFunction*%
%TD*%
%TA.AperFunction,Conductor*%
%TO.N,/syncres*%
G36*
X202096128Y-128075890D02*
G01*
X202099435Y-128077260D01*
X202104477Y-128081269D01*
X202335479Y-128404671D01*
X202337357Y-128408835D01*
X202337733Y-128410461D01*
X202336258Y-128419294D01*
X202329919Y-128424234D01*
X202329074Y-128424506D01*
X202325522Y-128425069D01*
X202000033Y-128425999D01*
X201999967Y-128425999D01*
X201674983Y-128425070D01*
X201670507Y-128424166D01*
X201668965Y-128423522D01*
X201662652Y-128417172D01*
X201662338Y-128409140D01*
X201662610Y-128408294D01*
X201664221Y-128405088D01*
X201895149Y-128081790D01*
X201898475Y-128078667D01*
X201900731Y-128077260D01*
X201901512Y-128076773D01*
X201907704Y-128075000D01*
X202091652Y-128075000D01*
X202096128Y-128075890D01*
G37*
%TD.AperFunction*%
%TD*%
%TA.AperFunction,Conductor*%
%TO.N,GND*%
G36*
X170496808Y-112902499D02*
G01*
X170497952Y-112903435D01*
X170500657Y-112906608D01*
X170907165Y-113605579D01*
X170930680Y-113646011D01*
X170932161Y-113650331D01*
X170932514Y-113652952D01*
X170931062Y-113660346D01*
X170930782Y-113660833D01*
X170930240Y-113661540D01*
X170930222Y-113661609D01*
X170930159Y-113661645D01*
X170928912Y-113663274D01*
X170625991Y-113966195D01*
X170622197Y-113968731D01*
X170619658Y-113969783D01*
X170612293Y-113970312D01*
X170611908Y-113970214D01*
X170609232Y-113969170D01*
X169936304Y-113605579D01*
X169932788Y-113602666D01*
X169931209Y-113600724D01*
X169928587Y-113593404D01*
X169928583Y-113592620D01*
X169929037Y-113589340D01*
X170065910Y-113112807D01*
X170067995Y-113108762D01*
X170070518Y-113105593D01*
X170074485Y-113102395D01*
X170482214Y-112901192D01*
X170486619Y-112900011D01*
X170488633Y-112899879D01*
X170496808Y-112902499D01*
G37*
%TD.AperFunction*%
%TD*%
%TA.AperFunction,Conductor*%
%TO.N,Net-(J4-In)*%
G36*
X178301618Y-110694266D02*
G01*
X178474232Y-110814514D01*
X178479061Y-110822055D01*
X178478322Y-110828666D01*
X178367758Y-111090472D01*
X178361383Y-111096760D01*
X178354698Y-111097395D01*
X178349759Y-111096412D01*
X178277165Y-111169006D01*
X178277165Y-111169008D01*
X178271314Y-111171430D01*
X178268892Y-111172434D01*
X178268891Y-111172433D01*
X178268891Y-111172434D01*
X178260620Y-111169008D01*
X178252379Y-111160767D01*
X178249845Y-111156972D01*
X178232446Y-111114967D01*
X178111537Y-110828666D01*
X178111475Y-110819711D01*
X178115625Y-110814515D01*
X178288242Y-110694265D01*
X178296989Y-110692349D01*
X178301618Y-110694266D01*
G37*
%TD.AperFunction*%
%TD*%
%TA.AperFunction,Conductor*%
%TO.N,VDD*%
G36*
X201725318Y-106718240D02*
G01*
X201728447Y-106720664D01*
X202068758Y-107092096D01*
X202071820Y-107100511D01*
X202068758Y-107107904D01*
X201728447Y-107479335D01*
X201720331Y-107483120D01*
X201716404Y-107482621D01*
X201208284Y-107327528D01*
X201201372Y-107321836D01*
X201200000Y-107316338D01*
X201200000Y-106883661D01*
X201203427Y-106875388D01*
X201208282Y-106872471D01*
X201716405Y-106717378D01*
X201725318Y-106718240D01*
G37*
%TD.AperFunction*%
%TD*%
%TA.AperFunction,Conductor*%
%TO.N,GND*%
G36*
X196948015Y-111924889D02*
G01*
X196951839Y-111925761D01*
X197005642Y-111948047D01*
X197011974Y-111954379D01*
X197011974Y-111963333D01*
X197009438Y-111967129D01*
X196880397Y-112096169D01*
X196880397Y-112096170D01*
X196899061Y-112103901D01*
X196905393Y-112110233D01*
X196905393Y-112119187D01*
X196899061Y-112125519D01*
X196894882Y-112126406D01*
X196543470Y-112135370D01*
X196535113Y-112132155D01*
X196532005Y-112127162D01*
X196503262Y-112035099D01*
X196504067Y-112026182D01*
X196509842Y-112020851D01*
X196757097Y-111915473D01*
X196762327Y-111914555D01*
X196948015Y-111924889D01*
G37*
%TD.AperFunction*%
%TD*%
%TA.AperFunction,Conductor*%
%TO.N,GND*%
G36*
X165507688Y-109269784D02*
G01*
X165510327Y-109270383D01*
X166080003Y-109471470D01*
X166083924Y-109473798D01*
X166086089Y-109475743D01*
X166089663Y-109481796D01*
X166089696Y-109481938D01*
X166089900Y-109483716D01*
X166089951Y-109483823D01*
X166089921Y-109483905D01*
X166090000Y-109484586D01*
X166090000Y-109914394D01*
X166089109Y-109918873D01*
X166087996Y-109921559D01*
X166083417Y-109926984D01*
X166083293Y-109927062D01*
X166080957Y-109928191D01*
X165511243Y-110129292D01*
X165506725Y-110129942D01*
X165503878Y-110129790D01*
X165497181Y-110127233D01*
X165496999Y-110127087D01*
X165495089Y-110125150D01*
X165332774Y-109916722D01*
X165171026Y-109709023D01*
X165168980Y-109704950D01*
X165168285Y-109702428D01*
X165168754Y-109694845D01*
X165168994Y-109694266D01*
X165169382Y-109693600D01*
X165169389Y-109693547D01*
X165169433Y-109693511D01*
X165170566Y-109691567D01*
X165494498Y-109275606D01*
X165497949Y-109272625D01*
X165500430Y-109271216D01*
X165507452Y-109269759D01*
X165507688Y-109269784D01*
G37*
%TD.AperFunction*%
%TD*%
%TA.AperFunction,Conductor*%
%TO.N,VDDA*%
G36*
X198353832Y-110044527D02*
G01*
X198366665Y-110048512D01*
X198926770Y-110222444D01*
X198933654Y-110228171D01*
X198935000Y-110233618D01*
X198935000Y-110716381D01*
X198931573Y-110724654D01*
X198926770Y-110727555D01*
X198353832Y-110905472D01*
X198344915Y-110904652D01*
X198341131Y-110901487D01*
X198196978Y-110716381D01*
X198014597Y-110482188D01*
X198012218Y-110473556D01*
X198014597Y-110467812D01*
X198341132Y-110048511D01*
X198348918Y-110044090D01*
X198353832Y-110044527D01*
G37*
%TD.AperFunction*%
%TD*%
%TA.AperFunction,Conductor*%
%TO.N,/SPI_left_MISO0*%
G36*
X158761353Y-96927442D02*
G01*
X158766915Y-96934130D01*
X159208855Y-98300503D01*
X159208141Y-98309430D01*
X159205996Y-98312377D01*
X159092377Y-98425996D01*
X159084104Y-98429423D01*
X159080503Y-98428855D01*
X157714130Y-97986915D01*
X157707313Y-97981109D01*
X157706517Y-97972447D01*
X157944592Y-97172467D01*
X157950236Y-97165517D01*
X157952464Y-97164593D01*
X158752447Y-96926517D01*
X158761353Y-96927442D01*
G37*
%TD.AperFunction*%
%TD*%
%TA.AperFunction,Conductor*%
%TO.N,VDD*%
G36*
X163336121Y-107720208D02*
G01*
X163342817Y-107722765D01*
X163342999Y-107722911D01*
X163344909Y-107724848D01*
X163668971Y-108140975D01*
X163671020Y-108145056D01*
X163671713Y-108147571D01*
X163671247Y-108155145D01*
X163671012Y-108155714D01*
X163669429Y-108158437D01*
X163345503Y-108574386D01*
X163342052Y-108577370D01*
X163339572Y-108578779D01*
X163332538Y-108580239D01*
X163332428Y-108580227D01*
X163332305Y-108580213D01*
X163330800Y-108579871D01*
X163330686Y-108579886D01*
X163330613Y-108579829D01*
X163329666Y-108579614D01*
X162760001Y-108378529D01*
X162756078Y-108376202D01*
X162755502Y-108375684D01*
X162753912Y-108374256D01*
X162750305Y-108368066D01*
X162750273Y-108367924D01*
X162750000Y-108365412D01*
X162750000Y-107935604D01*
X162750889Y-107931130D01*
X162752003Y-107928439D01*
X162756586Y-107923012D01*
X162756717Y-107922929D01*
X162759033Y-107921810D01*
X163328757Y-107720705D01*
X163333271Y-107720056D01*
X163336121Y-107720208D01*
G37*
%TD.AperFunction*%
%TD*%
%TA.AperFunction,Conductor*%
%TO.N,VDDA*%
G36*
X199842613Y-110044418D02*
G01*
X199845019Y-110044895D01*
X199856665Y-110048512D01*
X200414552Y-110221755D01*
X200418562Y-110223935D01*
X200419248Y-110224505D01*
X200420703Y-110225717D01*
X200424568Y-110231870D01*
X200424651Y-110232209D01*
X200424815Y-110233542D01*
X200424869Y-110233644D01*
X200424839Y-110233737D01*
X200425000Y-110235040D01*
X200425000Y-110714053D01*
X200424108Y-110718533D01*
X200423042Y-110721105D01*
X200418284Y-110726640D01*
X200417991Y-110726817D01*
X200415411Y-110727976D01*
X199846054Y-110904781D01*
X199841514Y-110905258D01*
X199838551Y-110904986D01*
X199832064Y-110902267D01*
X199832035Y-110902243D01*
X199830364Y-110900502D01*
X199686978Y-110716381D01*
X199506026Y-110484023D01*
X199503980Y-110479950D01*
X199503285Y-110477428D01*
X199503754Y-110469845D01*
X199503994Y-110469266D01*
X199504382Y-110468600D01*
X199504389Y-110468547D01*
X199504433Y-110468511D01*
X199505566Y-110466567D01*
X199829704Y-110050343D01*
X199833150Y-110047364D01*
X199835744Y-110045892D01*
X199842575Y-110044415D01*
X199842613Y-110044418D01*
G37*
%TD.AperFunction*%
%TD*%
%TA.AperFunction,Conductor*%
%TO.N,Net-(J14-Pin_12)*%
G36*
X190360296Y-113092179D02*
G01*
X190370596Y-113096660D01*
X190733199Y-113254407D01*
X190736948Y-113257009D01*
X190738185Y-113258290D01*
X190741467Y-113266621D01*
X190741448Y-113267709D01*
X190739626Y-113273779D01*
X190628726Y-113448349D01*
X190627123Y-113450348D01*
X190625348Y-113452123D01*
X190623349Y-113453726D01*
X190449302Y-113564294D01*
X190445044Y-113565943D01*
X190443289Y-113566250D01*
X190434550Y-113564300D01*
X190433658Y-113563674D01*
X190429654Y-113558767D01*
X190383260Y-113452123D01*
X190267643Y-113186362D01*
X190266675Y-113181908D01*
X190266622Y-113178894D01*
X190269902Y-113170565D01*
X190269974Y-113170491D01*
X190344650Y-113095815D01*
X190348440Y-113093282D01*
X190351224Y-113092130D01*
X190360178Y-113092130D01*
X190360296Y-113092179D01*
G37*
%TD.AperFunction*%
%TD*%
%TA.AperFunction,Conductor*%
%TO.N,GND*%
G36*
X162508090Y-109272322D02*
G01*
X162511773Y-109273837D01*
X163082559Y-109632820D01*
X163085874Y-109635956D01*
X163087845Y-109638736D01*
X163090000Y-109645503D01*
X163090000Y-109753708D01*
X163089109Y-109758187D01*
X163087805Y-109761334D01*
X163083225Y-109766759D01*
X162512032Y-110125998D01*
X162507771Y-110127627D01*
X162505679Y-110127984D01*
X162497430Y-110126322D01*
X162496308Y-110125608D01*
X162493358Y-110122926D01*
X162212672Y-109762500D01*
X162171026Y-109709023D01*
X162168980Y-109704950D01*
X162168285Y-109702428D01*
X162168754Y-109694845D01*
X162168994Y-109694266D01*
X162169382Y-109693600D01*
X162169389Y-109693547D01*
X162169433Y-109693511D01*
X162170566Y-109691567D01*
X162493172Y-109277310D01*
X162496623Y-109274328D01*
X162498468Y-109273280D01*
X162506786Y-109272032D01*
X162508090Y-109272322D01*
G37*
%TD.AperFunction*%
%TD*%
%TA.AperFunction,Conductor*%
%TO.N,/SR_sout*%
G36*
X185838049Y-114957711D02*
G01*
X185840831Y-114958864D01*
X185847163Y-114965194D01*
X185847241Y-114965387D01*
X185996182Y-115343711D01*
X185996993Y-115348201D01*
X185996962Y-115349980D01*
X185993392Y-115358192D01*
X185993391Y-115358193D01*
X185992607Y-115358950D01*
X185987027Y-115361952D01*
X185785176Y-115406972D01*
X185782629Y-115407253D01*
X185780109Y-115407253D01*
X185777562Y-115406972D01*
X185576313Y-115362087D01*
X185572140Y-115360246D01*
X185570681Y-115359221D01*
X185565878Y-115351667D01*
X185565689Y-115350584D01*
X185566326Y-115344288D01*
X185715097Y-114966399D01*
X185717568Y-114962559D01*
X185719659Y-114960394D01*
X185727872Y-114956824D01*
X185728075Y-114956822D01*
X185833574Y-114956822D01*
X185838049Y-114957711D01*
G37*
%TD.AperFunction*%
%TD*%
%TA.AperFunction,Conductor*%
%TO.N,/HV_in_ext*%
G36*
X160977522Y-76543624D02*
G01*
X162573910Y-77137166D01*
X162580470Y-77143261D01*
X162581532Y-77148132D01*
X162581532Y-77931867D01*
X162578105Y-77940140D01*
X162573909Y-77942834D01*
X160977522Y-78536375D01*
X160968574Y-78536046D01*
X160963033Y-78530743D01*
X160458263Y-77545333D01*
X160457542Y-77536408D01*
X160458264Y-77534666D01*
X160963034Y-76549255D01*
X160969853Y-76543456D01*
X160977522Y-76543624D01*
G37*
%TD.AperFunction*%
%TD*%
%TA.AperFunction,Conductor*%
%TO.N,Net-(J14-Pin_1)*%
G36*
X170844461Y-61455730D02*
G01*
X170846072Y-61456385D01*
X170849943Y-61458955D01*
X171680400Y-62290389D01*
X171682934Y-62294187D01*
X171683665Y-62295955D01*
X171683745Y-62304698D01*
X171683157Y-62306197D01*
X171680848Y-62309876D01*
X170907552Y-63144545D01*
X170903857Y-63147223D01*
X170901441Y-63148333D01*
X170900143Y-63148930D01*
X170895257Y-63150000D01*
X170784981Y-63150000D01*
X170780501Y-63149108D01*
X170776754Y-63147555D01*
X170772601Y-63144644D01*
X170009073Y-62309920D01*
X170006708Y-62306014D01*
X170006041Y-62304175D01*
X170006316Y-62295505D01*
X170006938Y-62294080D01*
X170009330Y-62290546D01*
X170830088Y-61459040D01*
X170833863Y-61456481D01*
X170835508Y-61455787D01*
X170844458Y-61455729D01*
X170844460Y-61455729D01*
X170844461Y-61455730D01*
G37*
%TD.AperFunction*%
%TD*%
%TA.AperFunction,Conductor*%
%TO.N,GND*%
G36*
X197001162Y-61057431D02*
G01*
X197002260Y-61058342D01*
X197005492Y-61062628D01*
X197621801Y-62462955D01*
X197622789Y-62467411D01*
X197622855Y-62470412D01*
X197619611Y-62478758D01*
X197619431Y-62478942D01*
X197279716Y-62818657D01*
X197275920Y-62821193D01*
X197273146Y-62822342D01*
X197264192Y-62822342D01*
X197263956Y-62822242D01*
X195862934Y-62205627D01*
X195859192Y-62203005D01*
X195857961Y-62201718D01*
X195854719Y-62193374D01*
X195854750Y-62191961D01*
X195856097Y-62186762D01*
X196243887Y-61451161D01*
X196245958Y-61448352D01*
X196248352Y-61445958D01*
X196251161Y-61443887D01*
X196986468Y-61056251D01*
X196990834Y-61054953D01*
X196992613Y-61054788D01*
X197001162Y-61057431D01*
G37*
%TD.AperFunction*%
%TD*%
%TA.AperFunction,Conductor*%
%TO.N,/SPI_right_MOSI*%
G36*
X198808211Y-116934959D02*
G01*
X199186098Y-117083728D01*
X199189937Y-117086197D01*
X199192103Y-117088288D01*
X199195675Y-117096500D01*
X199195677Y-117096706D01*
X199195677Y-117202203D01*
X199194786Y-117206681D01*
X199193634Y-117209462D01*
X199187302Y-117215793D01*
X199187111Y-117215871D01*
X198808786Y-117364813D01*
X198804296Y-117365624D01*
X198802517Y-117365593D01*
X198794305Y-117362023D01*
X198794304Y-117362022D01*
X198793547Y-117361238D01*
X198790545Y-117355658D01*
X198745526Y-117153806D01*
X198745245Y-117151259D01*
X198745245Y-117148740D01*
X198745526Y-117146193D01*
X198758616Y-117087500D01*
X198790410Y-116944943D01*
X198792254Y-116940767D01*
X198793277Y-116939310D01*
X198800832Y-116934509D01*
X198801916Y-116934320D01*
X198808211Y-116934959D01*
G37*
%TD.AperFunction*%
%TD*%
%TA.AperFunction,Conductor*%
%TO.N,/SPI_right_MOSI*%
G36*
X198697529Y-116934331D02*
G01*
X198704857Y-116937567D01*
X198705718Y-116937947D01*
X198706483Y-116938748D01*
X198709441Y-116944282D01*
X198754473Y-117146193D01*
X198754754Y-117148740D01*
X198754754Y-117151259D01*
X198754473Y-117153806D01*
X198709572Y-117355127D01*
X198707731Y-117359300D01*
X198706708Y-117360758D01*
X198699151Y-117365562D01*
X198699148Y-117365562D01*
X198698056Y-117365753D01*
X198691812Y-117365139D01*
X198313966Y-117218735D01*
X198310113Y-117216287D01*
X198307943Y-117214215D01*
X198304326Y-117206023D01*
X198304323Y-117205753D01*
X198304323Y-117095341D01*
X198305212Y-117090866D01*
X198306362Y-117088090D01*
X198312693Y-117081760D01*
X198312916Y-117081670D01*
X198691256Y-116935076D01*
X198695743Y-116934290D01*
X198697529Y-116934331D01*
G37*
%TD.AperFunction*%
%TD*%
%TA.AperFunction,Conductor*%
%TO.N,Net-(J14-Pin_3)*%
G36*
X198612805Y-98057750D02*
G01*
X198615419Y-98061737D01*
X198765666Y-98443377D01*
X198765508Y-98452330D01*
X198759065Y-98458550D01*
X198757326Y-98459082D01*
X198552547Y-98504754D01*
X198547453Y-98504754D01*
X198342673Y-98459082D01*
X198335344Y-98453937D01*
X198333801Y-98445116D01*
X198334329Y-98443386D01*
X198484581Y-98061736D01*
X198490801Y-98055294D01*
X198495468Y-98054323D01*
X198604532Y-98054323D01*
X198612805Y-98057750D01*
G37*
%TD.AperFunction*%
%TD*%
%TA.AperFunction,Conductor*%
%TO.N,GND*%
G36*
X181694755Y-123696649D02*
G01*
X182034142Y-123874080D01*
X182268720Y-123996718D01*
X182274464Y-124003588D01*
X182274999Y-124007087D01*
X182274999Y-124242913D01*
X182271572Y-124251186D01*
X182268720Y-124253282D01*
X181694756Y-124553349D01*
X181685836Y-124554145D01*
X181680104Y-124550169D01*
X181447269Y-124251186D01*
X181354597Y-124132187D01*
X181352218Y-124123555D01*
X181354597Y-124117811D01*
X181680106Y-123699828D01*
X181687891Y-123695408D01*
X181694755Y-123696649D01*
G37*
%TD.AperFunction*%
%TD*%
%TA.AperFunction,Conductor*%
%TO.N,Net-(J14-Pin_4)*%
G36*
X199212805Y-99482750D02*
G01*
X199215419Y-99486737D01*
X199365666Y-99868377D01*
X199365508Y-99877330D01*
X199359065Y-99883550D01*
X199357326Y-99884082D01*
X199152547Y-99929754D01*
X199147453Y-99929754D01*
X198942673Y-99884082D01*
X198935344Y-99878937D01*
X198933801Y-99870116D01*
X198934329Y-99868386D01*
X199084581Y-99486736D01*
X199090801Y-99480294D01*
X199095468Y-99479323D01*
X199204532Y-99479323D01*
X199212805Y-99482750D01*
G37*
%TD.AperFunction*%
%TD*%
%TA.AperFunction,Conductor*%
%TO.N,VSSA*%
G36*
X168877688Y-111169784D02*
G01*
X168880327Y-111170383D01*
X169450003Y-111371470D01*
X169453924Y-111373798D01*
X169456089Y-111375743D01*
X169459663Y-111381796D01*
X169459696Y-111381938D01*
X169459900Y-111383716D01*
X169459951Y-111383823D01*
X169459921Y-111383905D01*
X169460000Y-111384586D01*
X169460000Y-111814394D01*
X169459109Y-111818873D01*
X169457996Y-111821559D01*
X169453417Y-111826984D01*
X169453293Y-111827062D01*
X169450957Y-111828191D01*
X168881243Y-112029292D01*
X168876725Y-112029942D01*
X168873878Y-112029790D01*
X168867181Y-112027233D01*
X168866999Y-112027087D01*
X168865089Y-112025150D01*
X168702774Y-111816722D01*
X168541026Y-111609023D01*
X168538980Y-111604950D01*
X168538285Y-111602428D01*
X168538754Y-111594845D01*
X168538994Y-111594266D01*
X168539382Y-111593600D01*
X168539389Y-111593547D01*
X168539433Y-111593511D01*
X168540566Y-111591567D01*
X168864498Y-111175606D01*
X168867949Y-111172625D01*
X168870430Y-111171216D01*
X168877452Y-111169759D01*
X168877688Y-111169784D01*
G37*
%TD.AperFunction*%
%TD*%
%TA.AperFunction,Conductor*%
%TO.N,/ThPix*%
G36*
X190003806Y-127970525D02*
G01*
X190206821Y-128015804D01*
X190210991Y-128017644D01*
X190212452Y-128018669D01*
X190212454Y-128018673D01*
X190212458Y-128018674D01*
X190214671Y-128022160D01*
X190217255Y-128026225D01*
X190217257Y-128026234D01*
X190217549Y-128027907D01*
X190217405Y-128032629D01*
X190127680Y-128409422D01*
X190125776Y-128413572D01*
X190124272Y-128415650D01*
X190117992Y-128420044D01*
X190117334Y-128420231D01*
X190114136Y-128420677D01*
X189886568Y-128420677D01*
X189882088Y-128419785D01*
X189879719Y-128418803D01*
X189873992Y-128413713D01*
X189873657Y-128413115D01*
X189873415Y-128412497D01*
X189873388Y-128412470D01*
X189873388Y-128412426D01*
X189872483Y-128410111D01*
X189782611Y-128032703D01*
X189782440Y-128028146D01*
X189782721Y-128026388D01*
X189782723Y-128026384D01*
X189782722Y-128026381D01*
X189782722Y-128026378D01*
X189785066Y-128022571D01*
X189787409Y-128018761D01*
X189788794Y-128017758D01*
X189793101Y-128015820D01*
X189996193Y-127970525D01*
X189998740Y-127970245D01*
X190001260Y-127970245D01*
X190003806Y-127970525D01*
G37*
%TD.AperFunction*%
%TD*%
%TA.AperFunction,Conductor*%
%TO.N,/hold*%
G36*
X183404192Y-112357714D02*
G01*
X183406974Y-112358867D01*
X183413306Y-112365197D01*
X183413384Y-112365390D01*
X183562325Y-112743714D01*
X183563136Y-112748204D01*
X183563105Y-112749983D01*
X183559535Y-112758195D01*
X183559534Y-112758196D01*
X183558750Y-112758953D01*
X183553170Y-112761955D01*
X183351319Y-112806975D01*
X183348772Y-112807256D01*
X183346252Y-112807256D01*
X183343705Y-112806975D01*
X183142456Y-112762090D01*
X183138283Y-112760249D01*
X183136824Y-112759224D01*
X183132021Y-112751670D01*
X183131832Y-112750587D01*
X183132469Y-112744291D01*
X183281240Y-112366402D01*
X183283711Y-112362562D01*
X183285802Y-112360397D01*
X183294015Y-112356827D01*
X183294218Y-112356825D01*
X183399717Y-112356825D01*
X183404192Y-112357714D01*
G37*
%TD.AperFunction*%
%TD*%
%TA.AperFunction,Conductor*%
%TO.N,/SR_load*%
G36*
X206291121Y-124288961D02*
G01*
X206291564Y-124289516D01*
X206543582Y-124625139D01*
X206545809Y-124633812D01*
X206542499Y-124640437D01*
X206414631Y-124768305D01*
X206406358Y-124771732D01*
X206400469Y-124770142D01*
X206202150Y-124654624D01*
X206196726Y-124647499D01*
X206196453Y-124646143D01*
X206160951Y-124391427D01*
X206163203Y-124382761D01*
X206164954Y-124380904D01*
X206274629Y-124287627D01*
X206283150Y-124284879D01*
X206291121Y-124288961D01*
G37*
%TD.AperFunction*%
%TD*%
%TA.AperFunction,Conductor*%
%TO.N,/SPI_CLK_P*%
G36*
X181480130Y-112830023D02*
G01*
X181481934Y-112830307D01*
X181483723Y-112830735D01*
X181485466Y-112831302D01*
X181507669Y-112840499D01*
X181507670Y-112840499D01*
X181507672Y-112840500D01*
X181614735Y-112840500D01*
X181615185Y-112840509D01*
X181615627Y-112840526D01*
X181616074Y-112840551D01*
X181777244Y-112853033D01*
X181781639Y-112854266D01*
X181783228Y-112855073D01*
X181789053Y-112861875D01*
X181789053Y-112861876D01*
X181789345Y-112862771D01*
X181789461Y-112869650D01*
X181690816Y-113210764D01*
X181689116Y-113214288D01*
X181686945Y-113217345D01*
X181684174Y-113220115D01*
X181634540Y-113255312D01*
X181630371Y-113257175D01*
X181629176Y-113257448D01*
X181627917Y-113257735D01*
X181620229Y-113256862D01*
X181619550Y-113256534D01*
X181616801Y-113254686D01*
X181568121Y-113210764D01*
X181310384Y-112978216D01*
X181307657Y-112974555D01*
X181306893Y-112972949D01*
X181306432Y-112964009D01*
X181306936Y-112962589D01*
X181309686Y-112958235D01*
X181435484Y-112832437D01*
X181439275Y-112829904D01*
X181442884Y-112828409D01*
X181448261Y-112827555D01*
X181480130Y-112830023D01*
G37*
%TD.AperFunction*%
%TD*%
%TA.AperFunction,Conductor*%
%TO.N,GND*%
G36*
X199161448Y-111595012D02*
G01*
X199167933Y-111597730D01*
X199167961Y-111597753D01*
X199169634Y-111599496D01*
X199493971Y-112015975D01*
X199496020Y-112020056D01*
X199496713Y-112022571D01*
X199496247Y-112030145D01*
X199496012Y-112030714D01*
X199494429Y-112033437D01*
X199170297Y-112449650D01*
X199166845Y-112452634D01*
X199164257Y-112454104D01*
X199157351Y-112455577D01*
X199157320Y-112455574D01*
X199155461Y-112455199D01*
X199155370Y-112455211D01*
X199155318Y-112455170D01*
X199154977Y-112455102D01*
X198810064Y-112347995D01*
X198585449Y-112278244D01*
X198581435Y-112276062D01*
X198579296Y-112274281D01*
X198575423Y-112268096D01*
X198575340Y-112267758D01*
X198575000Y-112264958D01*
X198575000Y-111785945D01*
X198575888Y-111781473D01*
X198576957Y-111778893D01*
X198581712Y-111773359D01*
X198582015Y-111773176D01*
X198584583Y-111772023D01*
X199153945Y-111595216D01*
X199158483Y-111594740D01*
X199161448Y-111595012D01*
G37*
%TD.AperFunction*%
%TD*%
%TA.AperFunction,Conductor*%
%TO.N,/ThPix*%
G36*
X187128884Y-112237861D02*
G01*
X187136917Y-112241817D01*
X187139800Y-112250295D01*
X187139519Y-112252194D01*
X187042109Y-112669819D01*
X187036893Y-112677097D01*
X187030715Y-112678861D01*
X186922201Y-112678861D01*
X186913928Y-112675434D01*
X186910501Y-112667161D01*
X186910501Y-112597647D01*
X186910500Y-112597643D01*
X186877061Y-112516916D01*
X186877060Y-112516913D01*
X186876169Y-112514762D01*
X186817013Y-112455607D01*
X186814502Y-112451871D01*
X186810061Y-112441316D01*
X186810012Y-112432364D01*
X186811750Y-112429422D01*
X186971191Y-112232563D01*
X186979060Y-112228292D01*
X186981034Y-112228253D01*
X187128884Y-112237861D01*
G37*
%TD.AperFunction*%
%TD*%
%TA.AperFunction,Conductor*%
%TO.N,/SR_load*%
G36*
X183847093Y-110876083D02*
G01*
X183849954Y-110877268D01*
X183856142Y-110883267D01*
X183975202Y-111147237D01*
X183976231Y-111151687D01*
X183976317Y-111154479D01*
X183974269Y-111161460D01*
X183974083Y-111161731D01*
X183973187Y-111162748D01*
X183973147Y-111162854D01*
X183973058Y-111162893D01*
X183972220Y-111163846D01*
X183795136Y-111321614D01*
X183791363Y-111323869D01*
X183787457Y-111325294D01*
X183783119Y-111325998D01*
X183617691Y-111321356D01*
X183613241Y-111320341D01*
X183611612Y-111319612D01*
X183605462Y-111313107D01*
X183605454Y-111313086D01*
X183605166Y-111312329D01*
X183604849Y-111304955D01*
X183645403Y-111162854D01*
X183724438Y-110885916D01*
X183726524Y-110881856D01*
X183728208Y-110879734D01*
X183734449Y-110875679D01*
X183734901Y-110875562D01*
X183737822Y-110875192D01*
X183842616Y-110875192D01*
X183847093Y-110876083D01*
G37*
%TD.AperFunction*%
%TD*%
%TA.AperFunction,Conductor*%
%TO.N,Net-(J14-Pin_4)*%
G36*
X187147495Y-111109405D02*
G01*
X187151064Y-111110957D01*
X187155705Y-111112975D01*
X187155706Y-111112976D01*
X187156463Y-111113760D01*
X187159465Y-111119340D01*
X187204485Y-111321193D01*
X187204766Y-111323740D01*
X187204766Y-111326259D01*
X187204485Y-111328806D01*
X187159600Y-111530054D01*
X187157759Y-111534227D01*
X187156736Y-111535685D01*
X187149179Y-111540489D01*
X187149169Y-111540491D01*
X187148959Y-111540527D01*
X187148091Y-111540679D01*
X187141798Y-111540039D01*
X186763914Y-111391270D01*
X186760072Y-111388799D01*
X186757907Y-111386708D01*
X186754337Y-111378495D01*
X186754335Y-111378292D01*
X186754335Y-111272795D01*
X186755224Y-111268321D01*
X186756377Y-111265537D01*
X186762706Y-111259206D01*
X186762836Y-111259153D01*
X187141227Y-111110184D01*
X187145715Y-111109374D01*
X187147495Y-111109405D01*
G37*
%TD.AperFunction*%
%TD*%
%TA.AperFunction,Conductor*%
%TO.N,/SPI_right_MISO1*%
G36*
X194106616Y-116209331D02*
G01*
X194488263Y-116359581D01*
X194494706Y-116365801D01*
X194495677Y-116370468D01*
X194495677Y-116479531D01*
X194492250Y-116487804D01*
X194488263Y-116490418D01*
X194106622Y-116640666D01*
X194097669Y-116640508D01*
X194091449Y-116634065D01*
X194090917Y-116632326D01*
X194045245Y-116427547D01*
X194045245Y-116422453D01*
X194058616Y-116362500D01*
X194090917Y-116217671D01*
X194096062Y-116210344D01*
X194104883Y-116208801D01*
X194106616Y-116209331D01*
G37*
%TD.AperFunction*%
%TD*%
%TA.AperFunction,Conductor*%
%TO.N,/SPI_CLK_N*%
G36*
X184803806Y-119220525D02*
G01*
X185006130Y-119265650D01*
X185010298Y-119267488D01*
X185011760Y-119268515D01*
X185011761Y-119268516D01*
X185011762Y-119268516D01*
X185011767Y-119268520D01*
X185014116Y-119272221D01*
X185016563Y-119276069D01*
X185016565Y-119276079D01*
X185016807Y-119277465D01*
X185016486Y-119282843D01*
X184903172Y-119660113D01*
X184901033Y-119664143D01*
X184899292Y-119666277D01*
X184893106Y-119670221D01*
X184892898Y-119670273D01*
X184892725Y-119670317D01*
X184889848Y-119670677D01*
X184711029Y-119670677D01*
X184706549Y-119669785D01*
X184704006Y-119668731D01*
X184698443Y-119663925D01*
X184698241Y-119663587D01*
X184697749Y-119662471D01*
X184697676Y-119662398D01*
X184697676Y-119662305D01*
X184697079Y-119660951D01*
X184583611Y-119283172D01*
X184583175Y-119278632D01*
X184583354Y-119276857D01*
X184583355Y-119276851D01*
X184586307Y-119271364D01*
X184587594Y-119268970D01*
X184587594Y-119268969D01*
X184588686Y-119268078D01*
X184593533Y-119265725D01*
X184796193Y-119220525D01*
X184798740Y-119220245D01*
X184801260Y-119220245D01*
X184803806Y-119220525D01*
G37*
%TD.AperFunction*%
%TD*%
%TA.AperFunction,Conductor*%
%TO.N,VDD*%
G36*
X162507688Y-107719784D02*
G01*
X162510327Y-107720383D01*
X163080003Y-107921470D01*
X163083924Y-107923798D01*
X163086089Y-107925743D01*
X163089663Y-107931796D01*
X163089696Y-107931938D01*
X163089900Y-107933716D01*
X163089951Y-107933823D01*
X163089921Y-107933905D01*
X163090000Y-107934586D01*
X163090000Y-108364394D01*
X163089109Y-108368873D01*
X163087996Y-108371559D01*
X163083417Y-108376984D01*
X163083293Y-108377062D01*
X163080957Y-108378191D01*
X162511243Y-108579292D01*
X162506725Y-108579942D01*
X162503878Y-108579790D01*
X162497181Y-108577233D01*
X162496999Y-108577087D01*
X162495089Y-108575150D01*
X162332774Y-108366722D01*
X162171026Y-108159023D01*
X162168980Y-108154950D01*
X162168285Y-108152428D01*
X162168754Y-108144845D01*
X162168994Y-108144266D01*
X162169382Y-108143600D01*
X162169389Y-108143547D01*
X162169433Y-108143511D01*
X162170566Y-108141567D01*
X162494498Y-107725606D01*
X162497949Y-107722625D01*
X162500430Y-107721216D01*
X162507452Y-107719759D01*
X162507688Y-107719784D01*
G37*
%TD.AperFunction*%
%TD*%
%TA.AperFunction,Conductor*%
%TO.N,GND*%
G36*
X198352613Y-111594418D02*
G01*
X198355019Y-111594895D01*
X198366665Y-111598512D01*
X198924552Y-111771755D01*
X198928562Y-111773935D01*
X198929248Y-111774505D01*
X198930703Y-111775717D01*
X198934568Y-111781870D01*
X198934651Y-111782209D01*
X198934815Y-111783542D01*
X198934869Y-111783644D01*
X198934839Y-111783737D01*
X198935000Y-111785040D01*
X198935000Y-112264053D01*
X198934108Y-112268533D01*
X198933042Y-112271105D01*
X198928284Y-112276640D01*
X198927991Y-112276817D01*
X198925411Y-112277976D01*
X198356054Y-112454781D01*
X198351514Y-112455258D01*
X198348551Y-112454986D01*
X198342064Y-112452267D01*
X198342035Y-112452243D01*
X198340364Y-112450502D01*
X198196978Y-112266381D01*
X198016026Y-112034023D01*
X198013980Y-112029950D01*
X198013285Y-112027428D01*
X198013754Y-112019845D01*
X198013994Y-112019266D01*
X198014382Y-112018600D01*
X198014389Y-112018547D01*
X198014433Y-112018511D01*
X198015566Y-112016567D01*
X198339704Y-111600343D01*
X198343150Y-111597364D01*
X198345744Y-111595892D01*
X198352575Y-111594415D01*
X198352613Y-111594418D01*
G37*
%TD.AperFunction*%
%TD*%
%TA.AperFunction,Conductor*%
%TO.N,GND*%
G36*
X189608044Y-74010678D02*
G01*
X190445047Y-74601504D01*
X190449830Y-74609074D01*
X190450000Y-74611062D01*
X190450000Y-75098937D01*
X190446573Y-75107210D01*
X190445047Y-75108496D01*
X189608046Y-75699320D01*
X189599311Y-75701291D01*
X189593031Y-75698039D01*
X189002794Y-75108496D01*
X188757286Y-74863276D01*
X188753855Y-74855007D01*
X188757276Y-74846733D01*
X189593032Y-74011959D01*
X189601306Y-74008538D01*
X189608044Y-74010678D01*
G37*
%TD.AperFunction*%
%TD*%
%TA.AperFunction,Conductor*%
%TO.N,VSSA*%
G36*
X170367688Y-111169784D02*
G01*
X170370327Y-111170383D01*
X170940003Y-111371470D01*
X170943924Y-111373798D01*
X170946089Y-111375743D01*
X170949663Y-111381796D01*
X170949696Y-111381938D01*
X170949900Y-111383716D01*
X170949951Y-111383823D01*
X170949921Y-111383905D01*
X170950000Y-111384586D01*
X170950000Y-111814394D01*
X170949109Y-111818873D01*
X170947996Y-111821559D01*
X170943417Y-111826984D01*
X170943293Y-111827062D01*
X170940957Y-111828191D01*
X170371243Y-112029292D01*
X170366725Y-112029942D01*
X170363878Y-112029790D01*
X170357181Y-112027233D01*
X170356999Y-112027087D01*
X170355089Y-112025150D01*
X170192774Y-111816722D01*
X170031026Y-111609023D01*
X170028980Y-111604950D01*
X170028285Y-111602428D01*
X170028754Y-111594845D01*
X170028994Y-111594266D01*
X170029382Y-111593600D01*
X170029389Y-111593547D01*
X170029433Y-111593511D01*
X170030566Y-111591567D01*
X170354498Y-111175606D01*
X170357949Y-111172625D01*
X170360430Y-111171216D01*
X170367452Y-111169759D01*
X170367688Y-111169784D01*
G37*
%TD.AperFunction*%
%TD*%
%TA.AperFunction,Conductor*%
%TO.N,/SPI_CLK_N*%
G36*
X196761837Y-125092919D02*
G01*
X196764511Y-125093959D01*
X197018414Y-125230570D01*
X197111876Y-125280856D01*
X197115394Y-125283758D01*
X197116521Y-125285139D01*
X197119099Y-125293714D01*
X197119098Y-125293718D01*
X197118956Y-125295119D01*
X197117192Y-125300213D01*
X197005852Y-125475475D01*
X197004249Y-125477474D01*
X197002474Y-125479249D01*
X197000475Y-125480852D01*
X196825500Y-125592010D01*
X196821242Y-125593659D01*
X196819487Y-125593966D01*
X196810748Y-125592016D01*
X196810739Y-125592010D01*
X196809595Y-125591206D01*
X196806018Y-125587177D01*
X196745918Y-125475475D01*
X196619374Y-125240281D01*
X196618038Y-125235919D01*
X196617760Y-125233175D01*
X196619364Y-125225984D01*
X196619566Y-125225645D01*
X196621322Y-125223395D01*
X196747773Y-125096944D01*
X196751563Y-125094411D01*
X196754111Y-125093356D01*
X196761450Y-125092822D01*
X196761837Y-125092919D01*
G37*
%TD.AperFunction*%
%TD*%
%TA.AperFunction,Conductor*%
%TO.N,VDD*%
G36*
X181353806Y-121745525D02*
G01*
X181556821Y-121790804D01*
X181560991Y-121792644D01*
X181562452Y-121793669D01*
X181562454Y-121793673D01*
X181562458Y-121793674D01*
X181564671Y-121797160D01*
X181567255Y-121801225D01*
X181567257Y-121801234D01*
X181567549Y-121802907D01*
X181567405Y-121807629D01*
X181477680Y-122184422D01*
X181475776Y-122188572D01*
X181474272Y-122190650D01*
X181467992Y-122195044D01*
X181467334Y-122195231D01*
X181464136Y-122195677D01*
X181236568Y-122195677D01*
X181232088Y-122194785D01*
X181229719Y-122193803D01*
X181223992Y-122188713D01*
X181223657Y-122188115D01*
X181223415Y-122187497D01*
X181223388Y-122187470D01*
X181223388Y-122187426D01*
X181222483Y-122185111D01*
X181132611Y-121807703D01*
X181132440Y-121803146D01*
X181132721Y-121801388D01*
X181132723Y-121801384D01*
X181132722Y-121801381D01*
X181132722Y-121801378D01*
X181135066Y-121797571D01*
X181137409Y-121793761D01*
X181138794Y-121792758D01*
X181143101Y-121790820D01*
X181346193Y-121745525D01*
X181348740Y-121745245D01*
X181351260Y-121745245D01*
X181353806Y-121745525D01*
G37*
%TD.AperFunction*%
%TD*%
%TA.AperFunction,Conductor*%
%TO.N,/SR_ck1*%
G36*
X205096128Y-128075890D02*
G01*
X205099435Y-128077260D01*
X205104477Y-128081269D01*
X205335479Y-128404671D01*
X205337357Y-128408835D01*
X205337733Y-128410461D01*
X205336258Y-128419294D01*
X205329919Y-128424234D01*
X205329074Y-128424506D01*
X205325522Y-128425069D01*
X205000033Y-128425999D01*
X204999967Y-128425999D01*
X204674983Y-128425070D01*
X204670507Y-128424166D01*
X204668965Y-128423522D01*
X204662652Y-128417172D01*
X204662338Y-128409140D01*
X204662610Y-128408294D01*
X204664221Y-128405088D01*
X204895149Y-128081790D01*
X204898475Y-128078667D01*
X204900731Y-128077260D01*
X204901512Y-128076773D01*
X204907704Y-128075000D01*
X205091652Y-128075000D01*
X205096128Y-128075890D01*
G37*
%TD.AperFunction*%
%TD*%
%TA.AperFunction,Conductor*%
%TO.N,VDDA*%
G36*
X193080419Y-123832067D02*
G01*
X193461687Y-123922859D01*
X193468942Y-123928109D01*
X193470677Y-123934241D01*
X193470677Y-124165758D01*
X193467250Y-124174031D01*
X193461687Y-124177140D01*
X193080440Y-124267927D01*
X193071598Y-124266510D01*
X193066348Y-124259255D01*
X193066311Y-124259092D01*
X193020245Y-124052547D01*
X193020245Y-124047453D01*
X193045495Y-123934241D01*
X193066311Y-123840906D01*
X193071456Y-123833578D01*
X193080277Y-123832035D01*
X193080419Y-123832067D01*
G37*
%TD.AperFunction*%
%TD*%
%TA.AperFunction,Conductor*%
%TO.N,VSSA*%
G36*
X168196121Y-111170208D02*
G01*
X168202817Y-111172765D01*
X168202999Y-111172911D01*
X168204909Y-111174848D01*
X168528971Y-111590975D01*
X168531020Y-111595056D01*
X168531713Y-111597571D01*
X168531247Y-111605145D01*
X168531012Y-111605714D01*
X168529429Y-111608437D01*
X168205503Y-112024386D01*
X168202052Y-112027370D01*
X168199572Y-112028779D01*
X168192538Y-112030239D01*
X168192428Y-112030227D01*
X168192305Y-112030213D01*
X168190800Y-112029871D01*
X168190686Y-112029886D01*
X168190613Y-112029829D01*
X168189666Y-112029614D01*
X167620001Y-111828529D01*
X167616078Y-111826202D01*
X167615502Y-111825684D01*
X167613912Y-111824256D01*
X167610305Y-111818066D01*
X167610273Y-111817924D01*
X167610000Y-111815412D01*
X167610000Y-111385604D01*
X167610889Y-111381130D01*
X167612003Y-111378439D01*
X167616586Y-111373012D01*
X167616717Y-111372929D01*
X167619033Y-111371810D01*
X168188757Y-111170705D01*
X168193271Y-111170056D01*
X168196121Y-111170208D01*
G37*
%TD.AperFunction*%
%TD*%
%TA.AperFunction,Conductor*%
%TO.N,VDDA*%
G36*
X184604549Y-118025869D02*
G01*
X184607496Y-118027162D01*
X184724387Y-118099089D01*
X184937913Y-118230479D01*
X184941259Y-118233585D01*
X184942303Y-118235028D01*
X184944376Y-118243739D01*
X184944376Y-118243741D01*
X184944107Y-118245416D01*
X184942431Y-118249835D01*
X184830852Y-118425475D01*
X184829249Y-118427474D01*
X184827474Y-118429249D01*
X184825475Y-118430852D01*
X184649901Y-118542390D01*
X184645643Y-118544039D01*
X184643888Y-118544346D01*
X184635149Y-118542396D01*
X184633760Y-118541421D01*
X184630520Y-118537979D01*
X184427530Y-118208095D01*
X184425943Y-118203815D01*
X184425538Y-118201285D01*
X184426875Y-118193732D01*
X184427212Y-118193129D01*
X184429148Y-118190569D01*
X184590070Y-118029647D01*
X184593865Y-118027113D01*
X184596235Y-118026132D01*
X184603895Y-118025684D01*
X184604549Y-118025869D01*
G37*
%TD.AperFunction*%
%TD*%
%TA.AperFunction,Conductor*%
%TO.N,/SPI_left_MOSI*%
G36*
X157947530Y-92084592D02*
G01*
X157954482Y-92090236D01*
X157955407Y-92092469D01*
X158193432Y-92892278D01*
X158192507Y-92901185D01*
X158185649Y-92906801D01*
X156801734Y-93331317D01*
X156792820Y-93330467D01*
X156790030Y-93328404D01*
X156711595Y-93249969D01*
X156708168Y-93241696D01*
X156708681Y-93238270D01*
X157133198Y-91854348D01*
X157138901Y-91847445D01*
X157147720Y-91846567D01*
X157947530Y-92084592D01*
G37*
%TD.AperFunction*%
%TD*%
%TA.AperFunction,Conductor*%
%TO.N,/SPI_left_MISO1*%
G36*
X158761353Y-94387442D02*
G01*
X158766915Y-94394130D01*
X159208855Y-95760503D01*
X159208141Y-95769430D01*
X159205996Y-95772377D01*
X159092377Y-95885996D01*
X159084104Y-95889423D01*
X159080503Y-95888855D01*
X157714130Y-95446915D01*
X157707313Y-95441109D01*
X157706517Y-95432447D01*
X157944592Y-94632467D01*
X157950236Y-94625517D01*
X157952464Y-94624593D01*
X158752447Y-94386517D01*
X158761353Y-94387442D01*
G37*
%TD.AperFunction*%
%TD*%
%TA.AperFunction,Conductor*%
%TO.N,Net-(J2-Pin_4)*%
G36*
X166061185Y-93052492D02*
G01*
X166066801Y-93059350D01*
X166491317Y-94443265D01*
X166490467Y-94452179D01*
X166488404Y-94454969D01*
X166409969Y-94533404D01*
X166401696Y-94536831D01*
X166398265Y-94536317D01*
X165014350Y-94111801D01*
X165007445Y-94106098D01*
X165006567Y-94097279D01*
X165244592Y-93297467D01*
X165250236Y-93290517D01*
X165252464Y-93289593D01*
X166052279Y-93051567D01*
X166061185Y-93052492D01*
G37*
%TD.AperFunction*%
%TD*%
%TA.AperFunction,Conductor*%
%TO.N,VDDA*%
G36*
X163249448Y-128078427D02*
G01*
X163252425Y-128083486D01*
X163345751Y-128410130D01*
X163344729Y-128419026D01*
X163337715Y-128424594D01*
X163334534Y-128425044D01*
X163000033Y-128425999D01*
X162999967Y-128425999D01*
X162665465Y-128425044D01*
X162657201Y-128421593D01*
X162653798Y-128413311D01*
X162654247Y-128410133D01*
X162747575Y-128083485D01*
X162753143Y-128076472D01*
X162758825Y-128075000D01*
X163241175Y-128075000D01*
X163249448Y-128078427D01*
G37*
%TD.AperFunction*%
%TD*%
%TA.AperFunction,Conductor*%
%TO.N,/SPI_right_MISO0*%
G36*
X198507317Y-117982525D02*
G01*
X198885204Y-118131294D01*
X198889043Y-118133763D01*
X198891209Y-118135854D01*
X198894781Y-118144066D01*
X198894783Y-118144272D01*
X198894783Y-118249769D01*
X198893892Y-118254247D01*
X198892740Y-118257028D01*
X198886408Y-118263359D01*
X198886217Y-118263437D01*
X198507892Y-118412379D01*
X198503402Y-118413190D01*
X198501623Y-118413159D01*
X198493411Y-118409589D01*
X198493410Y-118409588D01*
X198492653Y-118408804D01*
X198489651Y-118403224D01*
X198444632Y-118201372D01*
X198444351Y-118198825D01*
X198444351Y-118196306D01*
X198444632Y-118193759D01*
X198457722Y-118135066D01*
X198489516Y-117992509D01*
X198491360Y-117988333D01*
X198492383Y-117986876D01*
X198499938Y-117982075D01*
X198501022Y-117981886D01*
X198507317Y-117982525D01*
G37*
%TD.AperFunction*%
%TD*%
%TA.AperFunction,Conductor*%
%TO.N,Net-(JP5-B)*%
G36*
X175193987Y-111878033D02*
G01*
X175436154Y-111984427D01*
X175442350Y-111990892D01*
X175443148Y-111995139D01*
X175443148Y-112103399D01*
X175439721Y-112111672D01*
X175434327Y-112114739D01*
X175013923Y-112221465D01*
X175005061Y-112220179D01*
X174999704Y-112213004D01*
X174999356Y-112210649D01*
X174992396Y-112055531D01*
X174995448Y-112047113D01*
X174996268Y-112046301D01*
X175057989Y-111990892D01*
X175181469Y-111880039D01*
X175189914Y-111877063D01*
X175193987Y-111878033D01*
G37*
%TD.AperFunction*%
%TD*%
%TA.AperFunction,Conductor*%
%TO.N,/interrupt*%
G36*
X204583266Y-101532276D02*
G01*
X205417237Y-102367228D01*
X205420659Y-102375502D01*
X205417732Y-102383236D01*
X204678493Y-103221041D01*
X204670450Y-103224977D01*
X204669720Y-103225000D01*
X204480280Y-103225000D01*
X204472007Y-103221573D01*
X204471507Y-103221041D01*
X203732267Y-102383236D01*
X203729363Y-102374765D01*
X203732760Y-102367230D01*
X204566723Y-101532286D01*
X204574993Y-101528855D01*
X204583266Y-101532276D01*
G37*
%TD.AperFunction*%
%TD*%
%TA.AperFunction,Conductor*%
%TO.N,GND*%
G36*
X174382119Y-114779761D02*
G01*
X174386409Y-114781322D01*
X174388830Y-114782791D01*
X174393538Y-114788238D01*
X174393642Y-114788484D01*
X174394408Y-114791131D01*
X174517062Y-115532765D01*
X174516914Y-115537329D01*
X174516310Y-115539921D01*
X174512354Y-115546297D01*
X174511940Y-115546638D01*
X174509349Y-115548255D01*
X174275505Y-115654725D01*
X174271061Y-115655770D01*
X174268137Y-115655871D01*
X174261360Y-115653990D01*
X174261263Y-115653927D01*
X174259854Y-115652770D01*
X174259750Y-115652732D01*
X174259716Y-115652657D01*
X174259257Y-115652281D01*
X173714711Y-115093516D01*
X173712224Y-115089688D01*
X173711547Y-115087992D01*
X173711631Y-115079110D01*
X173712303Y-115077517D01*
X173714806Y-115073797D01*
X174052744Y-114735859D01*
X174056539Y-114733325D01*
X174059882Y-114731941D01*
X174066134Y-114731187D01*
X174382119Y-114779761D01*
G37*
%TD.AperFunction*%
%TD*%
%TA.AperFunction,Conductor*%
%TO.N,/SPI_right_CSN*%
G36*
X198264033Y-115717525D02*
G01*
X198264238Y-115717613D01*
X198635429Y-115881484D01*
X198639164Y-115884107D01*
X198639983Y-115884964D01*
X198640397Y-115885398D01*
X198643424Y-115893211D01*
X198643629Y-115893739D01*
X198643604Y-115894846D01*
X198641783Y-115900856D01*
X198530852Y-116075475D01*
X198529249Y-116077474D01*
X198527474Y-116079249D01*
X198525475Y-116080852D01*
X198351365Y-116191460D01*
X198347107Y-116193109D01*
X198345352Y-116193416D01*
X198336613Y-116191466D01*
X198335704Y-116190828D01*
X198331728Y-116185980D01*
X198205853Y-115900856D01*
X198168072Y-115815278D01*
X198167079Y-115810824D01*
X198167010Y-115807825D01*
X198170246Y-115799475D01*
X198170387Y-115799331D01*
X198248511Y-115721206D01*
X198252306Y-115718672D01*
X198255079Y-115717524D01*
X198264033Y-115717525D01*
G37*
%TD.AperFunction*%
%TD*%
%TA.AperFunction,Conductor*%
%TO.N,/vminuspix*%
G36*
X192579706Y-116754917D02*
G01*
X192580990Y-116755448D01*
X192584420Y-116757631D01*
X192584617Y-116757811D01*
X192952354Y-117094737D01*
X192955053Y-117098418D01*
X192956346Y-117101190D01*
X192956776Y-117110030D01*
X192778529Y-117614998D01*
X192776202Y-117618921D01*
X192774259Y-117621085D01*
X192768160Y-117624673D01*
X192768016Y-117624706D01*
X192765413Y-117625000D01*
X192385605Y-117625000D01*
X192381128Y-117624109D01*
X192378439Y-117622995D01*
X192373016Y-117618418D01*
X192372934Y-117618288D01*
X192372186Y-117616740D01*
X192372109Y-117616663D01*
X192372109Y-117616579D01*
X192371808Y-117615957D01*
X192371469Y-117614998D01*
X192193572Y-117111023D01*
X192192923Y-117106506D01*
X192193086Y-117103453D01*
X192196864Y-117095451D01*
X192565384Y-116757808D01*
X192569281Y-116755445D01*
X192571239Y-116754733D01*
X192579706Y-116754917D01*
G37*
%TD.AperFunction*%
%TD*%
%TA.AperFunction,Conductor*%
%TO.N,/SPI_right_MISO1*%
G36*
X193788150Y-116067133D02*
G01*
X194162557Y-116232424D01*
X194168742Y-116238900D01*
X194168535Y-116247852D01*
X194167708Y-116249401D01*
X194055163Y-116426561D01*
X194051561Y-116430163D01*
X193874401Y-116542708D01*
X193865580Y-116544251D01*
X193858251Y-116539106D01*
X193857424Y-116537557D01*
X193692133Y-116163150D01*
X193691927Y-116154200D01*
X193694562Y-116150156D01*
X193775155Y-116069563D01*
X193783427Y-116066137D01*
X193788150Y-116067133D01*
G37*
%TD.AperFunction*%
%TD*%
%TA.AperFunction,Conductor*%
%TO.N,Net-(J1-In)*%
G36*
X201922857Y-116931478D02*
G01*
X201924461Y-116932329D01*
X202101562Y-117044837D01*
X202105163Y-117048438D01*
X202217668Y-117225535D01*
X202219211Y-117234356D01*
X202214066Y-117241685D01*
X202212459Y-117242538D01*
X201836359Y-117406156D01*
X201827406Y-117406314D01*
X201823419Y-117403700D01*
X201746299Y-117326580D01*
X201742872Y-117318307D01*
X201743843Y-117313640D01*
X201907463Y-116937537D01*
X201913904Y-116931320D01*
X201922857Y-116931478D01*
G37*
%TD.AperFunction*%
%TD*%
%TA.AperFunction,Conductor*%
%TO.N,Net-(J1-In)*%
G36*
X200409766Y-117445290D02*
G01*
X200413112Y-117447350D01*
X200919434Y-117759073D01*
X200924682Y-117766328D01*
X200925000Y-117769036D01*
X200925000Y-117880963D01*
X200921573Y-117889236D01*
X200919434Y-117890926D01*
X200409768Y-118204708D01*
X200400926Y-118206127D01*
X200395007Y-118202649D01*
X200109402Y-117890926D01*
X200056240Y-117832902D01*
X200053179Y-117824489D01*
X200056240Y-117817097D01*
X200395008Y-117447349D01*
X200403123Y-117443565D01*
X200409766Y-117445290D01*
G37*
%TD.AperFunction*%
%TD*%
%TA.AperFunction,Conductor*%
%TO.N,VDDA*%
G36*
X194081270Y-119076878D02*
G01*
X194081875Y-119077216D01*
X194084434Y-119079153D01*
X194245348Y-119240067D01*
X194247885Y-119243865D01*
X194248866Y-119246235D01*
X194249314Y-119253897D01*
X194249128Y-119254554D01*
X194248864Y-119255155D01*
X194248864Y-119255190D01*
X194248836Y-119255217D01*
X194247835Y-119257499D01*
X194044520Y-119587912D01*
X194041413Y-119591259D01*
X194039970Y-119592303D01*
X194039969Y-119592304D01*
X194034606Y-119593579D01*
X194031259Y-119594376D01*
X194031257Y-119594376D01*
X194029582Y-119594107D01*
X194025163Y-119592431D01*
X193849523Y-119480852D01*
X193847524Y-119479249D01*
X193845749Y-119477474D01*
X193844146Y-119475475D01*
X193732606Y-119299898D01*
X193730960Y-119295646D01*
X193730652Y-119293886D01*
X193732601Y-119285151D01*
X193733579Y-119283757D01*
X193737016Y-119280522D01*
X194066904Y-119077529D01*
X194071180Y-119075944D01*
X194073713Y-119075538D01*
X194081270Y-119076878D01*
G37*
%TD.AperFunction*%
%TD*%
%TA.AperFunction,Conductor*%
%TO.N,GND*%
G36*
X187906968Y-74011960D02*
G01*
X188742712Y-74846722D01*
X188746144Y-74854993D01*
X188742722Y-74863268D01*
X188742712Y-74863278D01*
X187906968Y-75698039D01*
X187898693Y-75701461D01*
X187891953Y-75699320D01*
X187890138Y-75698039D01*
X187054953Y-75108496D01*
X187050170Y-75100925D01*
X187050000Y-75098937D01*
X187050000Y-74611062D01*
X187053427Y-74602789D01*
X187054947Y-74601507D01*
X187891955Y-74010678D01*
X187900688Y-74008708D01*
X187906968Y-74011960D01*
G37*
%TD.AperFunction*%
%TD*%
%TA.AperFunction,Conductor*%
%TO.N,/interrupt*%
G36*
X208970769Y-128055605D02*
G01*
X208974561Y-128058140D01*
X209068249Y-128151827D01*
X209069705Y-128153602D01*
X209070962Y-128155484D01*
X209072042Y-128157505D01*
X209099997Y-128224996D01*
X209099998Y-128224998D01*
X209100008Y-128225006D01*
X209322255Y-128402804D01*
X209325192Y-128406292D01*
X209325800Y-128407395D01*
X209326793Y-128416295D01*
X209321202Y-128423289D01*
X209321194Y-128423294D01*
X209320547Y-128423650D01*
X209314940Y-128425099D01*
X209000033Y-128425999D01*
X208999967Y-128425999D01*
X208685529Y-128425100D01*
X208681055Y-128424197D01*
X208679893Y-128423712D01*
X208673579Y-128417363D01*
X208673598Y-128408420D01*
X208673883Y-128407736D01*
X208677371Y-128403102D01*
X208900000Y-128225000D01*
X208899999Y-128224999D01*
X208899992Y-128224996D01*
X208840590Y-128197641D01*
X208836898Y-128194961D01*
X208835686Y-128193651D01*
X208832585Y-128185255D01*
X208832608Y-128184661D01*
X208836025Y-128176842D01*
X208954729Y-128058138D01*
X208958516Y-128055607D01*
X208960168Y-128054922D01*
X208969118Y-128054922D01*
X208970769Y-128055605D01*
G37*
%TD.AperFunction*%
%TD*%
%TA.AperFunction,Conductor*%
%TO.N,/ThPix*%
G36*
X190120760Y-128075889D02*
G01*
X190123933Y-128077204D01*
X190129298Y-128081686D01*
X190337191Y-128405076D01*
X190338863Y-128409327D01*
X190339178Y-128411074D01*
X190337274Y-128419824D01*
X190330970Y-128424373D01*
X190330240Y-128424588D01*
X190329746Y-128424659D01*
X190329740Y-128424664D01*
X190329731Y-128424662D01*
X190326967Y-128425065D01*
X190000033Y-128425999D01*
X189999967Y-128425999D01*
X189673684Y-128425067D01*
X189669207Y-128424163D01*
X189667569Y-128423479D01*
X189661257Y-128417127D01*
X189660855Y-128409382D01*
X189661073Y-128408643D01*
X189661283Y-128408182D01*
X189661284Y-128408172D01*
X189661293Y-128408163D01*
X189662449Y-128405632D01*
X189870289Y-128082327D01*
X189873458Y-128079045D01*
X189876281Y-128077087D01*
X189882950Y-128075000D01*
X190116285Y-128075000D01*
X190120760Y-128075889D01*
G37*
%TD.AperFunction*%
%TD*%
%TA.AperFunction,Conductor*%
%TO.N,/SR_sin*%
G36*
X193007843Y-120233511D02*
G01*
X193385117Y-120346828D01*
X193389147Y-120348968D01*
X193391279Y-120350708D01*
X193395222Y-120356898D01*
X193395319Y-120357282D01*
X193395677Y-120360151D01*
X193395677Y-120538970D01*
X193394785Y-120543450D01*
X193393731Y-120545993D01*
X193388925Y-120551556D01*
X193388587Y-120551758D01*
X193385951Y-120552920D01*
X193008172Y-120666387D01*
X193003632Y-120666823D01*
X193001857Y-120666644D01*
X192993970Y-120662404D01*
X192993967Y-120662401D01*
X192993079Y-120661313D01*
X192990724Y-120656462D01*
X192945526Y-120453805D01*
X192945245Y-120451258D01*
X192945245Y-120448740D01*
X192945526Y-120446193D01*
X192965039Y-120358701D01*
X192990651Y-120243864D01*
X192992489Y-120239697D01*
X192993516Y-120238235D01*
X193001068Y-120233436D01*
X193002469Y-120233191D01*
X193007843Y-120233511D01*
G37*
%TD.AperFunction*%
%TD*%
%TA.AperFunction,Conductor*%
%TO.N,/VCasc2!*%
G36*
X200977690Y-105206532D02*
G01*
X200978512Y-105207445D01*
X201178354Y-105454402D01*
X201180894Y-105462989D01*
X201176619Y-105470857D01*
X201174979Y-105471968D01*
X200854236Y-105651730D01*
X200845344Y-105652786D01*
X200845327Y-105652781D01*
X200786773Y-105636194D01*
X200779747Y-105630642D01*
X200778354Y-105626400D01*
X200726659Y-105216268D01*
X200729024Y-105207631D01*
X200736804Y-105203197D01*
X200738267Y-105203105D01*
X200969417Y-105203105D01*
X200977690Y-105206532D01*
G37*
%TD.AperFunction*%
%TD*%
%TA.AperFunction,Conductor*%
%TO.N,/hold*%
G36*
X204096128Y-128075890D02*
G01*
X204099435Y-128077260D01*
X204104477Y-128081269D01*
X204335479Y-128404671D01*
X204337357Y-128408835D01*
X204337733Y-128410461D01*
X204336258Y-128419294D01*
X204329919Y-128424234D01*
X204329074Y-128424506D01*
X204325522Y-128425069D01*
X204000033Y-128425999D01*
X203999967Y-128425999D01*
X203674983Y-128425070D01*
X203670507Y-128424166D01*
X203668965Y-128423522D01*
X203662652Y-128417172D01*
X203662338Y-128409140D01*
X203662610Y-128408294D01*
X203664221Y-128405088D01*
X203895149Y-128081790D01*
X203898475Y-128078667D01*
X203900731Y-128077260D01*
X203901512Y-128076773D01*
X203907704Y-128075000D01*
X204091652Y-128075000D01*
X204096128Y-128075890D01*
G37*
%TD.AperFunction*%
%TD*%
%TA.AperFunction,Conductor*%
%TO.N,/interrupt*%
G36*
X207077968Y-105233843D02*
G01*
X207083629Y-105240780D01*
X207083843Y-105241599D01*
X207129754Y-105447453D01*
X207129754Y-105452547D01*
X207083843Y-105658400D01*
X207078698Y-105665729D01*
X207069877Y-105667272D01*
X207069058Y-105667058D01*
X206687657Y-105552503D01*
X206680720Y-105546842D01*
X206679323Y-105541298D01*
X206679323Y-105358701D01*
X206682750Y-105350428D01*
X206687654Y-105347497D01*
X207069058Y-105232941D01*
X207077968Y-105233843D01*
G37*
%TD.AperFunction*%
%TD*%
%TA.AperFunction,Conductor*%
%TO.N,VSSA*%
G36*
X166685121Y-111170208D02*
G01*
X166691817Y-111172765D01*
X166691999Y-111172911D01*
X166693909Y-111174848D01*
X167017971Y-111590975D01*
X167020020Y-111595056D01*
X167020713Y-111597571D01*
X167020247Y-111605145D01*
X167020012Y-111605714D01*
X167018429Y-111608437D01*
X166694503Y-112024386D01*
X166691052Y-112027370D01*
X166688572Y-112028779D01*
X166681538Y-112030239D01*
X166681428Y-112030227D01*
X166681305Y-112030213D01*
X166679800Y-112029871D01*
X166679686Y-112029886D01*
X166679613Y-112029829D01*
X166678666Y-112029614D01*
X166109001Y-111828529D01*
X166105078Y-111826202D01*
X166104502Y-111825684D01*
X166102912Y-111824256D01*
X166099305Y-111818066D01*
X166099273Y-111817924D01*
X166099000Y-111815412D01*
X166099000Y-111385604D01*
X166099889Y-111381130D01*
X166101003Y-111378439D01*
X166105586Y-111373012D01*
X166105717Y-111372929D01*
X166108033Y-111371810D01*
X166677757Y-111170705D01*
X166682271Y-111170056D01*
X166685121Y-111170208D01*
G37*
%TD.AperFunction*%
%TD*%
%TA.AperFunction,Conductor*%
%TO.N,/ThPix*%
G36*
X184362344Y-61207057D02*
G01*
X184367202Y-61212746D01*
X184884702Y-62503632D01*
X184884600Y-62512587D01*
X184882115Y-62516259D01*
X184715747Y-62682627D01*
X184707474Y-62686054D01*
X184704098Y-62685556D01*
X183314840Y-62266889D01*
X183307908Y-62261221D01*
X183307014Y-62252311D01*
X183307132Y-62251940D01*
X183594356Y-61402440D01*
X183600253Y-61395700D01*
X183602576Y-61394843D01*
X184353486Y-61205754D01*
X184362344Y-61207057D01*
G37*
%TD.AperFunction*%
%TD*%
%TA.AperFunction,Conductor*%
%TO.N,/SR_ck1*%
G36*
X192957843Y-121383511D02*
G01*
X193335117Y-121496828D01*
X193339147Y-121498968D01*
X193341279Y-121500708D01*
X193345222Y-121506898D01*
X193345319Y-121507282D01*
X193345677Y-121510151D01*
X193345677Y-121688970D01*
X193344785Y-121693450D01*
X193343731Y-121695993D01*
X193338925Y-121701556D01*
X193338587Y-121701758D01*
X193335951Y-121702920D01*
X192958172Y-121816387D01*
X192953632Y-121816823D01*
X192951857Y-121816644D01*
X192943970Y-121812404D01*
X192943967Y-121812401D01*
X192943079Y-121811313D01*
X192940724Y-121806462D01*
X192895526Y-121603805D01*
X192895245Y-121601258D01*
X192895245Y-121598740D01*
X192895526Y-121596193D01*
X192915039Y-121508701D01*
X192940651Y-121393864D01*
X192942489Y-121389697D01*
X192943516Y-121388235D01*
X192951068Y-121383436D01*
X192952469Y-121383191D01*
X192957843Y-121383511D01*
G37*
%TD.AperFunction*%
%TD*%
%TA.AperFunction,Conductor*%
%TO.N,Net-(J1-In)*%
G36*
X187731496Y-114055214D02*
G01*
X187734221Y-114056343D01*
X187739525Y-114060733D01*
X187739567Y-114060797D01*
X187740762Y-114063168D01*
X187880287Y-114441493D01*
X187881001Y-114446001D01*
X187880931Y-114447780D01*
X187877181Y-114455912D01*
X187877180Y-114455913D01*
X187876298Y-114456728D01*
X187871020Y-114459528D01*
X187682178Y-114503645D01*
X187677615Y-114503797D01*
X187673527Y-114503124D01*
X187668975Y-114501338D01*
X187569816Y-114435767D01*
X187487945Y-114381627D01*
X187484702Y-114378415D01*
X187483353Y-114376417D01*
X187481407Y-114368721D01*
X187481497Y-114367809D01*
X187482350Y-114364433D01*
X187608589Y-114063638D01*
X187611142Y-114059856D01*
X187613310Y-114057709D01*
X187621543Y-114054323D01*
X187727018Y-114054323D01*
X187731496Y-114055214D01*
G37*
%TD.AperFunction*%
%TD*%
%TA.AperFunction,Conductor*%
%TO.N,GND*%
G36*
X166246073Y-128078427D02*
G01*
X166249500Y-128086700D01*
X166249500Y-128413620D01*
X166246073Y-128421893D01*
X166237833Y-128425320D01*
X166000032Y-128425999D01*
X165999966Y-128425999D01*
X165665465Y-128425044D01*
X165657201Y-128421593D01*
X165653798Y-128413311D01*
X165654247Y-128410133D01*
X165747575Y-128083485D01*
X165753143Y-128076472D01*
X165758825Y-128075000D01*
X166237800Y-128075000D01*
X166246073Y-128078427D01*
G37*
%TD.AperFunction*%
%TD*%
%TA.AperFunction,Conductor*%
%TO.N,GND*%
G36*
X182553400Y-123908490D02*
G01*
X182558650Y-123915745D01*
X182558687Y-123915908D01*
X182604753Y-124122454D01*
X182604753Y-124127548D01*
X182558687Y-124334093D01*
X182553542Y-124341422D01*
X182544721Y-124342965D01*
X182544558Y-124342928D01*
X182163312Y-124252140D01*
X182156057Y-124246890D01*
X182154322Y-124240758D01*
X182154322Y-124125001D01*
X182154322Y-124009239D01*
X182157749Y-124000969D01*
X182163310Y-123997860D01*
X182544559Y-123907073D01*
X182553400Y-123908490D01*
G37*
%TD.AperFunction*%
%TD*%
%TA.AperFunction,Conductor*%
%TO.N,GND*%
G36*
X184838044Y-74010678D02*
G01*
X185675047Y-74601504D01*
X185679830Y-74609074D01*
X185680000Y-74611062D01*
X185680000Y-75098937D01*
X185676573Y-75107210D01*
X185675047Y-75108496D01*
X184838046Y-75699320D01*
X184829311Y-75701291D01*
X184823031Y-75698039D01*
X184232794Y-75108496D01*
X183987286Y-74863276D01*
X183983855Y-74855007D01*
X183987276Y-74846733D01*
X184823032Y-74011959D01*
X184831306Y-74008538D01*
X184838044Y-74010678D01*
G37*
%TD.AperFunction*%
%TD*%
%TA.AperFunction,Conductor*%
%TO.N,VDDA*%
G36*
X189551404Y-80178028D02*
G01*
X189558294Y-80183749D01*
X189559121Y-80192665D01*
X189558849Y-80193445D01*
X189002900Y-81623447D01*
X188996708Y-81629916D01*
X188991995Y-81630907D01*
X188508005Y-81630907D01*
X188499732Y-81627480D01*
X188497100Y-81623447D01*
X188364495Y-81282365D01*
X187941150Y-80193442D01*
X187941346Y-80184492D01*
X187947815Y-80178300D01*
X187948580Y-80178032D01*
X188746541Y-79930978D01*
X188753459Y-79930978D01*
X189551404Y-80178028D01*
G37*
%TD.AperFunction*%
%TD*%
%TA.AperFunction,Conductor*%
%TO.N,/vminuspix*%
G36*
X192404482Y-115892466D02*
G01*
X192408048Y-115894576D01*
X192639993Y-116094871D01*
X192909166Y-116327314D01*
X192911972Y-116330913D01*
X192913397Y-116333747D01*
X192914275Y-116341918D01*
X192861799Y-116545916D01*
X192859821Y-116550031D01*
X192858571Y-116551694D01*
X192851373Y-116556164D01*
X192850007Y-116556420D01*
X192845942Y-116556463D01*
X192192933Y-116448403D01*
X192188662Y-116446794D01*
X192186722Y-116445586D01*
X192181737Y-116439141D01*
X192181407Y-116438087D01*
X192180878Y-116434422D01*
X192182333Y-116340606D01*
X192182483Y-116330913D01*
X192185982Y-116105236D01*
X192186905Y-116100864D01*
X192188556Y-116096964D01*
X192191052Y-116093262D01*
X192388891Y-115895423D01*
X192392684Y-115892889D01*
X192394562Y-115892111D01*
X192403117Y-115891958D01*
X192404482Y-115892466D01*
G37*
%TD.AperFunction*%
%TD*%
%TA.AperFunction,Conductor*%
%TO.N,Net-(J5-In)*%
G36*
X161097156Y-117270787D02*
G01*
X161517004Y-117495728D01*
X162615357Y-118084192D01*
X162621032Y-118091119D01*
X162621532Y-118094504D01*
X162621532Y-118206046D01*
X162618105Y-118214319D01*
X162616073Y-118215942D01*
X161144746Y-119143797D01*
X161135920Y-119145312D01*
X161128648Y-119140204D01*
X160535493Y-118212500D01*
X160499656Y-118156451D01*
X160498087Y-118147635D01*
X160499793Y-118143638D01*
X160537397Y-118087500D01*
X161081910Y-117274588D01*
X161089362Y-117269622D01*
X161097156Y-117270787D01*
G37*
%TD.AperFunction*%
%TD*%
%TA.AperFunction,Conductor*%
%TO.N,/DigInj*%
G36*
X207898672Y-128101748D02*
G01*
X208044316Y-128247392D01*
X208046852Y-128251188D01*
X208064998Y-128294998D01*
X208064999Y-128294998D01*
X208065000Y-128295000D01*
X208301349Y-128402808D01*
X208307452Y-128409358D01*
X208307137Y-128418308D01*
X208300586Y-128424412D01*
X208296525Y-128425152D01*
X208000033Y-128425999D01*
X207999967Y-128425999D01*
X207703474Y-128425152D01*
X207695210Y-128421701D01*
X207691807Y-128413419D01*
X207695258Y-128405155D01*
X207698645Y-128402810D01*
X207935000Y-128295000D01*
X207934998Y-128294998D01*
X207808651Y-128193568D01*
X207804344Y-128185716D01*
X207806851Y-128177120D01*
X207807693Y-128176180D01*
X207882126Y-128101748D01*
X207890399Y-128098321D01*
X207898672Y-128101748D01*
G37*
%TD.AperFunction*%
%TD*%
%TA.AperFunction,Conductor*%
%TO.N,Net-(J5-In)*%
G36*
X181435268Y-111242902D02*
G01*
X181436160Y-111243528D01*
X181440168Y-111248438D01*
X181602177Y-111620839D01*
X181603146Y-111625300D01*
X181603199Y-111628307D01*
X181599919Y-111636639D01*
X181599774Y-111636786D01*
X181525174Y-111711386D01*
X181521379Y-111713922D01*
X181518598Y-111715074D01*
X181509643Y-111715074D01*
X181509452Y-111714994D01*
X181504942Y-111713032D01*
X181436499Y-111683255D01*
X181433669Y-111681507D01*
X181431186Y-111679432D01*
X181428965Y-111676958D01*
X181421585Y-111665913D01*
X181421584Y-111665912D01*
X181379377Y-111637711D01*
X181378928Y-111637342D01*
X181378416Y-111637069D01*
X181340355Y-111629500D01*
X181316573Y-111629500D01*
X181314188Y-111629254D01*
X181311878Y-111628773D01*
X181309596Y-111628048D01*
X181252103Y-111603036D01*
X181136622Y-111552797D01*
X181132873Y-111550195D01*
X181131636Y-111548914D01*
X181128354Y-111540583D01*
X181128373Y-111539492D01*
X181130193Y-111533428D01*
X181241101Y-111358846D01*
X181242696Y-111356857D01*
X181244474Y-111355079D01*
X181246463Y-111353484D01*
X181420525Y-111242906D01*
X181424775Y-111241261D01*
X181426537Y-111240953D01*
X181435268Y-111242902D01*
G37*
%TD.AperFunction*%
%TD*%
%TA.AperFunction,Conductor*%
%TO.N,Net-(J2-Pin_2)*%
G36*
X165247530Y-88209592D02*
G01*
X165254482Y-88215236D01*
X165255407Y-88217469D01*
X165493432Y-89017278D01*
X165492507Y-89026185D01*
X165485649Y-89031801D01*
X164101734Y-89456317D01*
X164092820Y-89455467D01*
X164090030Y-89453404D01*
X164011595Y-89374969D01*
X164008168Y-89366696D01*
X164008681Y-89363270D01*
X164433198Y-87979348D01*
X164438901Y-87972445D01*
X164447720Y-87971567D01*
X165247530Y-88209592D01*
G37*
%TD.AperFunction*%
%TD*%
%TA.AperFunction,Conductor*%
%TO.N,GND*%
G36*
X179838044Y-74010678D02*
G01*
X180675047Y-74601504D01*
X180679830Y-74609074D01*
X180680000Y-74611062D01*
X180680000Y-75098937D01*
X180676573Y-75107210D01*
X180675047Y-75108496D01*
X179838046Y-75699320D01*
X179829311Y-75701291D01*
X179823031Y-75698039D01*
X179232794Y-75108496D01*
X178987286Y-74863276D01*
X178983855Y-74855007D01*
X178987276Y-74846733D01*
X179823032Y-74011959D01*
X179831306Y-74008538D01*
X179838044Y-74010678D01*
G37*
%TD.AperFunction*%
%TD*%
%TA.AperFunction,Conductor*%
%TO.N,/SPI_CLK_P*%
G36*
X195900407Y-125250849D02*
G01*
X196310677Y-125278763D01*
X196318698Y-125282744D01*
X196321139Y-125287247D01*
X196337592Y-125345327D01*
X196336550Y-125354221D01*
X196336541Y-125354236D01*
X196157170Y-125674280D01*
X196150136Y-125679822D01*
X196141244Y-125678766D01*
X196139115Y-125677237D01*
X195891767Y-125453483D01*
X195887931Y-125445391D01*
X195887916Y-125444806D01*
X195887916Y-125262523D01*
X195891343Y-125254250D01*
X195899616Y-125250823D01*
X195900407Y-125250849D01*
G37*
%TD.AperFunction*%
%TD*%
%TA.AperFunction,Conductor*%
%TO.N,Net-(J2-Pin_5)*%
G36*
X165255569Y-95832921D02*
G01*
X165989429Y-96230163D01*
X165995073Y-96237115D01*
X165994195Y-96245935D01*
X165315798Y-97524690D01*
X165308893Y-97530393D01*
X165305462Y-97530907D01*
X165194538Y-97530907D01*
X165186265Y-97527480D01*
X165184202Y-97524690D01*
X164505804Y-96245935D01*
X164504954Y-96237021D01*
X164510568Y-96230164D01*
X165244430Y-95832921D01*
X165253337Y-95831997D01*
X165255569Y-95832921D01*
G37*
%TD.AperFunction*%
%TD*%
%TA.AperFunction,Conductor*%
%TO.N,/res_n*%
G36*
X203077586Y-128078427D02*
G01*
X203078513Y-128079471D01*
X203335181Y-128406139D01*
X203337598Y-128414762D01*
X203333210Y-128422568D01*
X203326014Y-128425068D01*
X203000033Y-128425999D01*
X202999967Y-128425999D01*
X202673985Y-128425068D01*
X202665721Y-128421617D01*
X202662318Y-128413335D01*
X202664816Y-128406142D01*
X202921487Y-128079470D01*
X202929293Y-128075083D01*
X202930687Y-128075000D01*
X203069313Y-128075000D01*
X203077586Y-128078427D01*
G37*
%TD.AperFunction*%
%TD*%
%TA.AperFunction,Conductor*%
%TO.N,/SPI_CLK_N*%
G36*
X182213275Y-112473539D02*
G01*
X182216739Y-112479298D01*
X182242638Y-112580629D01*
X182241366Y-112589493D01*
X182236279Y-112594115D01*
X181992804Y-112708564D01*
X181986642Y-112709615D01*
X181804549Y-112691070D01*
X181796665Y-112686822D01*
X181794034Y-112679430D01*
X181794034Y-112502199D01*
X181797461Y-112493926D01*
X181805732Y-112490499D01*
X181922854Y-112490499D01*
X181960919Y-112482929D01*
X181960926Y-112482924D01*
X181961335Y-112482755D01*
X181965261Y-112481875D01*
X182204849Y-112470508D01*
X182213275Y-112473539D01*
G37*
%TD.AperFunction*%
%TD*%
%TA.AperFunction,Conductor*%
%TO.N,GND*%
G36*
X167888005Y-78778427D02*
G01*
X167890514Y-78782158D01*
X168064463Y-79195286D01*
X168123189Y-79334760D01*
X168123241Y-79343714D01*
X168116946Y-79350083D01*
X168112406Y-79351000D01*
X167637500Y-79351000D01*
X167480117Y-79351000D01*
X167471844Y-79347573D01*
X167468535Y-79340958D01*
X167389413Y-78788358D01*
X167391633Y-78779683D01*
X167399337Y-78775118D01*
X167400995Y-78775000D01*
X167879732Y-78775000D01*
X167888005Y-78778427D01*
G37*
%TD.AperFunction*%
%TD*%
%TA.AperFunction,Conductor*%
%TO.N,/SPI_left_MISO1*%
G36*
X162017307Y-99535538D02*
G01*
X162017887Y-99536562D01*
X162198221Y-99895719D01*
X162198871Y-99904650D01*
X162196038Y-99909242D01*
X162084242Y-100021038D01*
X162075969Y-100024465D01*
X162070719Y-100023221D01*
X161711562Y-99842887D01*
X161705706Y-99836112D01*
X161706356Y-99827181D01*
X161706929Y-99826167D01*
X161819839Y-99648434D01*
X161823434Y-99644839D01*
X162001158Y-99531935D01*
X162009978Y-99530393D01*
X162017307Y-99535538D01*
G37*
%TD.AperFunction*%
%TD*%
%TA.AperFunction,Conductor*%
%TO.N,/SR_ck1*%
G36*
X192636359Y-121243843D02*
G01*
X192647722Y-121248786D01*
X193012460Y-121407462D01*
X193018679Y-121413904D01*
X193018521Y-121422857D01*
X193017668Y-121424464D01*
X192905163Y-121601561D01*
X192901561Y-121605163D01*
X192724464Y-121717668D01*
X192715643Y-121719211D01*
X192708314Y-121714066D01*
X192707465Y-121712467D01*
X192543843Y-121336359D01*
X192543685Y-121327406D01*
X192546297Y-121323421D01*
X192623420Y-121246298D01*
X192631692Y-121242872D01*
X192636359Y-121243843D01*
G37*
%TD.AperFunction*%
%TD*%
%TA.AperFunction,Conductor*%
%TO.N,/interrupt*%
G36*
X210791506Y-112431738D02*
G01*
X210872440Y-112435948D01*
X210877268Y-112437273D01*
X210888765Y-112443312D01*
X211175007Y-112593661D01*
X211180737Y-112600542D01*
X211179924Y-112609460D01*
X211178977Y-112610971D01*
X211023962Y-112820804D01*
X210983644Y-112875382D01*
X210978508Y-112882334D01*
X210970835Y-112886952D01*
X210969097Y-112887082D01*
X210786811Y-112887082D01*
X210778538Y-112883655D01*
X210775111Y-112875382D01*
X210775112Y-112875271D01*
X210777632Y-112609460D01*
X210779207Y-112443311D01*
X210782712Y-112435072D01*
X210791017Y-112431724D01*
X210791506Y-112431738D01*
G37*
%TD.AperFunction*%
%TD*%
%TA.AperFunction,Conductor*%
%TO.N,/Enable_SPI_diff*%
G36*
X178118835Y-115050798D02*
G01*
X178185152Y-115117115D01*
X178188579Y-115125388D01*
X178185152Y-115133661D01*
X178180278Y-115136583D01*
X178161774Y-115142201D01*
X178161773Y-115142202D01*
X178281673Y-115375309D01*
X178282410Y-115384234D01*
X178277957Y-115390261D01*
X178105962Y-115510077D01*
X178097215Y-115511994D01*
X178092586Y-115510077D01*
X177972424Y-115426370D01*
X177920589Y-115390260D01*
X177915761Y-115382720D01*
X177916873Y-115375310D01*
X178036774Y-115142202D01*
X178054190Y-115100156D01*
X178056723Y-115096364D01*
X178102289Y-115050797D01*
X178110562Y-115047371D01*
X178118835Y-115050798D01*
G37*
%TD.AperFunction*%
%TD*%
%TA.AperFunction,Conductor*%
%TO.N,GND*%
G36*
X172814830Y-104834490D02*
G01*
X172821050Y-104840933D01*
X172821582Y-104842672D01*
X172867254Y-105047452D01*
X172867254Y-105052546D01*
X172821582Y-105257325D01*
X172816437Y-105264654D01*
X172807616Y-105266197D01*
X172805877Y-105265665D01*
X172424237Y-105115417D01*
X172417794Y-105109197D01*
X172416823Y-105104534D01*
X172416823Y-104995467D01*
X172420250Y-104987195D01*
X172424237Y-104984581D01*
X172805879Y-104834332D01*
X172814830Y-104834490D01*
G37*
%TD.AperFunction*%
%TD*%
%TA.AperFunction,Conductor*%
%TO.N,/Inj*%
G36*
X189481680Y-119105212D02*
G01*
X189484462Y-119106365D01*
X189490794Y-119112695D01*
X189490872Y-119112888D01*
X189639813Y-119491212D01*
X189640624Y-119495702D01*
X189640593Y-119497481D01*
X189637023Y-119505693D01*
X189637022Y-119505694D01*
X189636238Y-119506451D01*
X189630658Y-119509453D01*
X189428807Y-119554473D01*
X189426260Y-119554754D01*
X189423740Y-119554754D01*
X189421193Y-119554473D01*
X189219944Y-119509588D01*
X189215771Y-119507747D01*
X189214312Y-119506722D01*
X189209509Y-119499168D01*
X189209320Y-119498085D01*
X189209957Y-119491789D01*
X189358728Y-119113900D01*
X189361199Y-119110060D01*
X189363290Y-119107895D01*
X189371503Y-119104325D01*
X189371706Y-119104323D01*
X189477205Y-119104323D01*
X189481680Y-119105212D01*
G37*
%TD.AperFunction*%
%TD*%
%TA.AperFunction,Conductor*%
%TO.N,GND*%
G36*
X197671448Y-111595012D02*
G01*
X197677933Y-111597730D01*
X197677961Y-111597753D01*
X197679634Y-111599496D01*
X198003971Y-112015975D01*
X198006020Y-112020056D01*
X198006713Y-112022571D01*
X198006247Y-112030145D01*
X198006012Y-112030714D01*
X198004429Y-112033437D01*
X197680297Y-112449650D01*
X197676845Y-112452634D01*
X197674257Y-112454104D01*
X197667351Y-112455577D01*
X197667320Y-112455574D01*
X197665461Y-112455199D01*
X197665370Y-112455211D01*
X197665318Y-112455170D01*
X197664977Y-112455102D01*
X197320064Y-112347995D01*
X197095449Y-112278244D01*
X197091435Y-112276062D01*
X197089296Y-112274281D01*
X197085423Y-112268096D01*
X197085340Y-112267758D01*
X197085000Y-112264958D01*
X197085000Y-111785945D01*
X197085888Y-111781473D01*
X197086957Y-111778893D01*
X197091712Y-111773359D01*
X197092015Y-111773176D01*
X197094583Y-111772023D01*
X197663945Y-111595216D01*
X197668483Y-111594740D01*
X197671448Y-111595012D01*
G37*
%TD.AperFunction*%
%TD*%
%TA.AperFunction,Conductor*%
%TO.N,suba*%
G36*
X174983713Y-113607895D02*
G01*
X174987964Y-113609546D01*
X174989963Y-113610819D01*
X174994834Y-113617160D01*
X174995130Y-113618096D01*
X174995675Y-113621624D01*
X174995675Y-113897850D01*
X174994784Y-113902328D01*
X174993878Y-113904515D01*
X174988472Y-113910415D01*
X174987602Y-113910868D01*
X174984226Y-113912013D01*
X174607198Y-113978335D01*
X174602634Y-113978234D01*
X174600743Y-113977814D01*
X174593553Y-113972894D01*
X174592674Y-113971579D01*
X174590982Y-113967624D01*
X174545524Y-113763806D01*
X174545243Y-113761259D01*
X174545243Y-113758740D01*
X174545524Y-113756193D01*
X174576324Y-113618096D01*
X174590953Y-113552504D01*
X174592790Y-113548338D01*
X174593908Y-113546746D01*
X174601204Y-113541994D01*
X174602762Y-113541684D01*
X174607059Y-113541639D01*
X174983713Y-113607895D01*
G37*
%TD.AperFunction*%
%TD*%
%TA.AperFunction,Conductor*%
%TO.N,Net-(J5-In)*%
G36*
X166084766Y-117770290D02*
G01*
X166088112Y-117772350D01*
X166594434Y-118084073D01*
X166599682Y-118091328D01*
X166600000Y-118094036D01*
X166600000Y-118205963D01*
X166596573Y-118214236D01*
X166594434Y-118215926D01*
X166084768Y-118529708D01*
X166075926Y-118531127D01*
X166070007Y-118527649D01*
X165784402Y-118215926D01*
X165731240Y-118157902D01*
X165728179Y-118149489D01*
X165731240Y-118142097D01*
X166070008Y-117772349D01*
X166078123Y-117768565D01*
X166084766Y-117770290D01*
G37*
%TD.AperFunction*%
%TD*%
%TA.AperFunction,Conductor*%
%TO.N,/SPI_right_CLK*%
G36*
X197724432Y-116369139D02*
G01*
X197798260Y-116435177D01*
X197845322Y-116477273D01*
X197847669Y-116480169D01*
X197979897Y-116710545D01*
X197981044Y-116719426D01*
X197975574Y-116726516D01*
X197970637Y-116728035D01*
X197896439Y-116733677D01*
X197887930Y-116730888D01*
X197887073Y-116730073D01*
X197632124Y-116461953D01*
X197628907Y-116453596D01*
X197632329Y-116445619D01*
X197708362Y-116369586D01*
X197716634Y-116366160D01*
X197724432Y-116369139D01*
G37*
%TD.AperFunction*%
%TD*%
%TA.AperFunction,Conductor*%
%TO.N,/SPI_left_CSN*%
G36*
X157956115Y-102256386D02*
G01*
X157959916Y-102258928D01*
X158790591Y-103090580D01*
X158793125Y-103094377D01*
X158793888Y-103096222D01*
X158794017Y-103104839D01*
X158793485Y-103106243D01*
X158791317Y-103109838D01*
X158055032Y-103944295D01*
X158051405Y-103947061D01*
X158047840Y-103948807D01*
X158042694Y-103950000D01*
X157857607Y-103950000D01*
X157853130Y-103949109D01*
X157849460Y-103947589D01*
X157845166Y-103944521D01*
X157108807Y-103109981D01*
X157106513Y-103106036D01*
X157105865Y-103104147D01*
X157106265Y-103095544D01*
X157106885Y-103094170D01*
X157109267Y-103090720D01*
X157940079Y-102258931D01*
X157943866Y-102256396D01*
X157945516Y-102255711D01*
X157954466Y-102255705D01*
X157956115Y-102256386D01*
G37*
%TD.AperFunction*%
%TD*%
%TA.AperFunction,Conductor*%
%TO.N,GND*%
G36*
X196004549Y-124025869D02*
G01*
X196007496Y-124027162D01*
X196124387Y-124099089D01*
X196337913Y-124230479D01*
X196341259Y-124233585D01*
X196342303Y-124235028D01*
X196344376Y-124243739D01*
X196344376Y-124243741D01*
X196344107Y-124245416D01*
X196342431Y-124249835D01*
X196230852Y-124425475D01*
X196229249Y-124427474D01*
X196227474Y-124429249D01*
X196225475Y-124430852D01*
X196049901Y-124542390D01*
X196045643Y-124544039D01*
X196043888Y-124544346D01*
X196035149Y-124542396D01*
X196033760Y-124541421D01*
X196030520Y-124537979D01*
X195827530Y-124208095D01*
X195825943Y-124203815D01*
X195825538Y-124201285D01*
X195826875Y-124193732D01*
X195827212Y-124193129D01*
X195829148Y-124190569D01*
X195990070Y-124029647D01*
X195993865Y-124027113D01*
X195996235Y-124026132D01*
X196003895Y-124025684D01*
X196004549Y-124025869D01*
G37*
%TD.AperFunction*%
%TD*%
%TA.AperFunction,Conductor*%
%TO.N,/SPI_left_MISO0*%
G36*
X160817307Y-102185538D02*
G01*
X160817887Y-102186562D01*
X160998221Y-102545719D01*
X160998871Y-102554650D01*
X160996038Y-102559242D01*
X160884242Y-102671038D01*
X160875969Y-102674465D01*
X160870719Y-102673221D01*
X160511562Y-102492887D01*
X160505706Y-102486112D01*
X160506356Y-102477181D01*
X160506929Y-102476167D01*
X160619839Y-102298434D01*
X160623434Y-102294839D01*
X160801158Y-102181935D01*
X160809978Y-102180393D01*
X160817307Y-102185538D01*
G37*
%TD.AperFunction*%
%TD*%
%TA.AperFunction,Conductor*%
%TO.N,Net-(J14-Pin_12)*%
G36*
X201906680Y-102730212D02*
G01*
X201909462Y-102731365D01*
X201915794Y-102737695D01*
X201915872Y-102737888D01*
X202064813Y-103116212D01*
X202065624Y-103120702D01*
X202065593Y-103122481D01*
X202062023Y-103130693D01*
X202062022Y-103130694D01*
X202061238Y-103131451D01*
X202055658Y-103134453D01*
X201853807Y-103179473D01*
X201851260Y-103179754D01*
X201848740Y-103179754D01*
X201846193Y-103179473D01*
X201644944Y-103134588D01*
X201640771Y-103132747D01*
X201639312Y-103131722D01*
X201634509Y-103124168D01*
X201634320Y-103123085D01*
X201634957Y-103116789D01*
X201783728Y-102738900D01*
X201786199Y-102735060D01*
X201788290Y-102732895D01*
X201796503Y-102729325D01*
X201796706Y-102729323D01*
X201902205Y-102729323D01*
X201906680Y-102730212D01*
G37*
%TD.AperFunction*%
%TD*%
%TA.AperFunction,Conductor*%
%TO.N,/Clk20_Ext_N*%
G36*
X199988451Y-128048285D02*
G01*
X199992241Y-128050819D01*
X200068249Y-128126827D01*
X200069705Y-128128602D01*
X200070962Y-128130484D01*
X200072042Y-128132505D01*
X200099996Y-128199995D01*
X200099998Y-128199997D01*
X200099999Y-128199999D01*
X200100000Y-128200000D01*
X200325235Y-128402712D01*
X200325703Y-128403133D01*
X200328436Y-128406792D01*
X200328978Y-128407928D01*
X200329447Y-128416870D01*
X200323456Y-128423526D01*
X200323451Y-128423528D01*
X200322559Y-128423953D01*
X200317559Y-128425091D01*
X200000033Y-128425999D01*
X199999967Y-128425999D01*
X199682687Y-128425092D01*
X199678213Y-128424189D01*
X199677051Y-128423704D01*
X199670737Y-128417355D01*
X199670738Y-128416868D01*
X199670759Y-128408403D01*
X199671143Y-128407483D01*
X199674110Y-128403299D01*
X199896664Y-128203001D01*
X199899731Y-128201825D01*
X199899997Y-128200002D01*
X199900000Y-128200000D01*
X199899999Y-128199999D01*
X199900000Y-128199999D01*
X199899997Y-128199998D01*
X199899998Y-128199998D01*
X199861913Y-128188607D01*
X199857880Y-128186472D01*
X199856499Y-128185348D01*
X199852248Y-128177489D01*
X199852224Y-128177254D01*
X199853814Y-128170049D01*
X199854023Y-128169699D01*
X199854744Y-128168774D01*
X199854774Y-128168674D01*
X199854857Y-128168628D01*
X199855787Y-128167435D01*
X199972406Y-128050817D01*
X199976193Y-128048286D01*
X199977847Y-128047600D01*
X199986796Y-128047600D01*
X199988451Y-128048285D01*
G37*
%TD.AperFunction*%
%TD*%
%TA.AperFunction,Conductor*%
%TO.N,/SR_out_CK1*%
G36*
X176744939Y-116628985D02*
G01*
X176745654Y-116629403D01*
X176923695Y-116742508D01*
X176927296Y-116746109D01*
X177040391Y-116924134D01*
X177041934Y-116932955D01*
X177036789Y-116940284D01*
X177036059Y-116940711D01*
X176685366Y-117129398D01*
X176676456Y-117130300D01*
X176671549Y-117127368D01*
X176542435Y-116998254D01*
X176539008Y-116989981D01*
X176540404Y-116984438D01*
X176729093Y-116633743D01*
X176736029Y-116628083D01*
X176744939Y-116628985D01*
G37*
%TD.AperFunction*%
%TD*%
%TA.AperFunction,Conductor*%
%TO.N,GND*%
G36*
X167369062Y-112722761D02*
G01*
X167943529Y-113084059D01*
X167948708Y-113091364D01*
X167949000Y-113093963D01*
X167949000Y-113206036D01*
X167945573Y-113214309D01*
X167943529Y-113215940D01*
X167369062Y-113577238D01*
X167360234Y-113578742D01*
X167353602Y-113574523D01*
X167071672Y-113212500D01*
X167028597Y-113157188D01*
X167026218Y-113148556D01*
X167028597Y-113142812D01*
X167353602Y-112725475D01*
X167361389Y-112721054D01*
X167369062Y-112722761D01*
G37*
%TD.AperFunction*%
%TD*%
%TA.AperFunction,Conductor*%
%TO.N,Net-(J14-Pin_1)*%
G36*
X197437805Y-84657750D02*
G01*
X197440419Y-84661737D01*
X197590666Y-85043377D01*
X197590508Y-85052330D01*
X197584065Y-85058550D01*
X197582326Y-85059082D01*
X197377547Y-85104754D01*
X197372453Y-85104754D01*
X197167673Y-85059082D01*
X197160344Y-85053937D01*
X197158801Y-85045116D01*
X197159329Y-85043386D01*
X197309581Y-84661736D01*
X197315801Y-84655294D01*
X197320468Y-84654323D01*
X197429532Y-84654323D01*
X197437805Y-84657750D01*
G37*
%TD.AperFunction*%
%TD*%
%TA.AperFunction,Conductor*%
%TO.N,/SR_sin*%
G36*
X201096128Y-128075890D02*
G01*
X201099435Y-128077260D01*
X201104477Y-128081269D01*
X201335479Y-128404671D01*
X201337357Y-128408835D01*
X201337733Y-128410461D01*
X201336258Y-128419294D01*
X201329919Y-128424234D01*
X201329074Y-128424506D01*
X201325522Y-128425069D01*
X201000033Y-128425999D01*
X200999967Y-128425999D01*
X200674983Y-128425070D01*
X200670507Y-128424166D01*
X200668965Y-128423522D01*
X200662652Y-128417172D01*
X200662338Y-128409140D01*
X200662610Y-128408294D01*
X200664221Y-128405088D01*
X200895149Y-128081790D01*
X200898475Y-128078667D01*
X200900731Y-128077260D01*
X200901512Y-128076773D01*
X200907704Y-128075000D01*
X201091652Y-128075000D01*
X201096128Y-128075890D01*
G37*
%TD.AperFunction*%
%TD*%
%TA.AperFunction,Conductor*%
%TO.N,VDD*%
G36*
X161243323Y-128075889D02*
G01*
X161245827Y-128076927D01*
X161251431Y-128081798D01*
X161251666Y-128082197D01*
X161252835Y-128084921D01*
X161345111Y-128407891D01*
X161345485Y-128412437D01*
X161345282Y-128414208D01*
X161340935Y-128422037D01*
X161340929Y-128422042D01*
X161340334Y-128422514D01*
X161333096Y-128425048D01*
X161000033Y-128425999D01*
X160999967Y-128425999D01*
X160667792Y-128425050D01*
X160663319Y-128424148D01*
X160661673Y-128423460D01*
X160655360Y-128417113D01*
X160655071Y-128416410D01*
X160654642Y-128408749D01*
X160746936Y-128085718D01*
X160749019Y-128081665D01*
X160750708Y-128079538D01*
X160756947Y-128075486D01*
X160757163Y-128075430D01*
X160757394Y-128075371D01*
X160760315Y-128075000D01*
X161238848Y-128075000D01*
X161243323Y-128075889D01*
G37*
%TD.AperFunction*%
%TD*%
%TA.AperFunction,Conductor*%
%TO.N,Net-(J5-In)*%
G36*
X165379992Y-117772350D02*
G01*
X165718758Y-118142096D01*
X165721820Y-118150511D01*
X165718758Y-118157904D01*
X165379992Y-118527649D01*
X165371876Y-118531434D01*
X165365231Y-118529708D01*
X164855566Y-118215926D01*
X164850318Y-118208671D01*
X164850000Y-118205963D01*
X164850000Y-118094036D01*
X164853427Y-118085763D01*
X164855566Y-118084073D01*
X165365233Y-117770290D01*
X165374073Y-117768872D01*
X165379992Y-117772350D01*
G37*
%TD.AperFunction*%
%TD*%
%TA.AperFunction,Conductor*%
%TO.N,/SPI_right_CLK*%
G36*
X209128370Y-104374626D02*
G01*
X209128791Y-104374955D01*
X209133189Y-104382700D01*
X209174886Y-104711930D01*
X209174566Y-104716482D01*
X209173702Y-104719646D01*
X209169371Y-104725972D01*
X207982220Y-105603765D01*
X207978087Y-105605711D01*
X207975871Y-105606262D01*
X207967782Y-105605356D01*
X207966798Y-105604860D01*
X207963791Y-105602685D01*
X207891503Y-105530397D01*
X207888966Y-105526599D01*
X207887883Y-105523983D01*
X207887310Y-105516804D01*
X207887372Y-105516543D01*
X207887883Y-105515146D01*
X207887884Y-105515029D01*
X207887951Y-105514961D01*
X207888318Y-105513960D01*
X208204423Y-104890807D01*
X208206393Y-104888023D01*
X208208692Y-104885618D01*
X208211380Y-104883528D01*
X209113645Y-104373871D01*
X209117973Y-104372446D01*
X209119746Y-104372229D01*
X209128370Y-104374626D01*
G37*
%TD.AperFunction*%
%TD*%
%TA.AperFunction,Conductor*%
%TO.N,/SPI_left_CSN*%
G36*
X158048927Y-105445634D02*
G01*
X158052065Y-105451321D01*
X158098906Y-105658043D01*
X158097392Y-105666869D01*
X158097299Y-105667014D01*
X157953977Y-105887098D01*
X157946591Y-105892160D01*
X157942763Y-105892328D01*
X157811548Y-105876401D01*
X157803748Y-105872002D01*
X157801335Y-105863443D01*
X157824507Y-105662868D01*
X157848803Y-105452562D01*
X157853157Y-105444739D01*
X157860426Y-105442207D01*
X158040654Y-105442207D01*
X158048927Y-105445634D01*
G37*
%TD.AperFunction*%
%TD*%
%TA.AperFunction,Conductor*%
%TO.N,/interrupt*%
G36*
X182769153Y-110824613D02*
G01*
X182771935Y-110825765D01*
X182778266Y-110832094D01*
X182778356Y-110832318D01*
X182871519Y-111070888D01*
X182872319Y-111075383D01*
X182872254Y-111078569D01*
X182869263Y-111086145D01*
X182705253Y-111268871D01*
X182701600Y-111271608D01*
X182698161Y-111273255D01*
X182692582Y-111274391D01*
X182541300Y-111267599D01*
X182536862Y-111266506D01*
X182535250Y-111265751D01*
X182529216Y-111259150D01*
X182528867Y-111258189D01*
X182528451Y-111251621D01*
X182622429Y-110835117D01*
X182624282Y-110830949D01*
X182625739Y-110828885D01*
X182632055Y-110824390D01*
X182632258Y-110824331D01*
X182632774Y-110824183D01*
X182636015Y-110823725D01*
X182764682Y-110823725D01*
X182769153Y-110824613D01*
G37*
%TD.AperFunction*%
%TD*%
%TA.AperFunction,Conductor*%
%TO.N,/SPI_MISO0_N*%
G36*
X180616073Y-112422270D02*
G01*
X180619500Y-112430543D01*
X180619500Y-112447302D01*
X180625857Y-112462649D01*
X180628398Y-112468785D01*
X180629115Y-112471257D01*
X180655283Y-112621714D01*
X180653976Y-112629414D01*
X180524053Y-112862568D01*
X180517033Y-112868127D01*
X180511799Y-112868395D01*
X180394529Y-112847691D01*
X180386977Y-112842878D01*
X180384904Y-112835187D01*
X180396398Y-112698836D01*
X180397243Y-112695360D01*
X180420500Y-112639214D01*
X180420500Y-112539558D01*
X180420500Y-112430543D01*
X180423927Y-112422270D01*
X180432200Y-112418843D01*
X180607800Y-112418843D01*
X180616073Y-112422270D01*
G37*
%TD.AperFunction*%
%TD*%
%TA.AperFunction,Conductor*%
%TO.N,GND*%
G36*
X165732747Y-119805844D02*
G01*
X166119189Y-120147259D01*
X166123120Y-120155305D01*
X166122536Y-120159745D01*
X165977675Y-120592018D01*
X165971797Y-120598773D01*
X165966581Y-120600000D01*
X165483419Y-120600000D01*
X165475146Y-120596573D01*
X165472325Y-120592018D01*
X165327463Y-120159743D01*
X165328084Y-120150811D01*
X165330807Y-120147262D01*
X165717253Y-119805843D01*
X165725722Y-119802934D01*
X165732747Y-119805844D01*
G37*
%TD.AperFunction*%
%TD*%
%TA.AperFunction,Conductor*%
%TO.N,GND*%
G36*
X163345397Y-109275476D02*
G01*
X163670401Y-109692811D01*
X163672781Y-109701444D01*
X163670401Y-109707189D01*
X163345397Y-110124523D01*
X163337610Y-110128945D01*
X163329937Y-110127238D01*
X162755471Y-109765940D01*
X162750292Y-109758635D01*
X162750000Y-109756036D01*
X162750000Y-109643963D01*
X162753427Y-109635690D01*
X162755471Y-109634059D01*
X163329938Y-109272760D01*
X163338765Y-109271257D01*
X163345397Y-109275476D01*
G37*
%TD.AperFunction*%
%TD*%
%TA.AperFunction,Conductor*%
%TO.N,/blpix*%
G36*
X173385583Y-61447889D02*
G01*
X173885504Y-61714937D01*
X174129357Y-61845198D01*
X174135039Y-61852119D01*
X174134188Y-61860986D01*
X173458294Y-63139675D01*
X173451398Y-63145387D01*
X173447950Y-63145907D01*
X173312147Y-63145907D01*
X173303874Y-63142480D01*
X173301737Y-63139549D01*
X172645563Y-61860812D01*
X172644835Y-61851886D01*
X172650343Y-61845213D01*
X173374448Y-61447952D01*
X173383348Y-61446978D01*
X173385583Y-61447889D01*
G37*
%TD.AperFunction*%
%TD*%
%TA.AperFunction,Conductor*%
%TO.N,/SR_out_CK1*%
G36*
X173102252Y-128078427D02*
G01*
X173103500Y-128079900D01*
X173336831Y-128406564D01*
X173338851Y-128415287D01*
X173334110Y-128422885D01*
X173327343Y-128425064D01*
X173000033Y-128425999D01*
X172999967Y-128425999D01*
X172672656Y-128425064D01*
X172664392Y-128421613D01*
X172660989Y-128413331D01*
X172663167Y-128406565D01*
X172896500Y-128079900D01*
X172904098Y-128075159D01*
X172906021Y-128075000D01*
X173093979Y-128075000D01*
X173102252Y-128078427D01*
G37*
%TD.AperFunction*%
%TD*%
%TA.AperFunction,Conductor*%
%TO.N,Net-(J14-Pin_10)*%
G36*
X194315528Y-60860862D02*
G01*
X194317784Y-60864232D01*
X195037965Y-62495482D01*
X195038172Y-62504434D01*
X195035535Y-62508480D01*
X194957446Y-62586569D01*
X194949173Y-62589996D01*
X194946443Y-62589673D01*
X193747004Y-62301842D01*
X193739759Y-62296579D01*
X193738055Y-62289771D01*
X193793948Y-61348799D01*
X193797532Y-61341046D01*
X194298987Y-60860509D01*
X194307330Y-60857260D01*
X194315528Y-60860862D01*
G37*
%TD.AperFunction*%
%TD*%
%TA.AperFunction,Conductor*%
%TO.N,Net-(J14-Pin_10)*%
G36*
X190136595Y-113602662D02*
G01*
X190138485Y-113603116D01*
X190145582Y-113608152D01*
X190146437Y-113609478D01*
X190148064Y-113613462D01*
X190169770Y-113719063D01*
X190169800Y-113723627D01*
X190169289Y-113726286D01*
X190165649Y-113732753D01*
X190165302Y-113733067D01*
X190162854Y-113734770D01*
X189929453Y-113856263D01*
X189925070Y-113857541D01*
X189920873Y-113857908D01*
X189916164Y-113857355D01*
X189784774Y-113813688D01*
X189731237Y-113795895D01*
X189727270Y-113793638D01*
X189725117Y-113791774D01*
X189721381Y-113785587D01*
X189721324Y-113785347D01*
X189721020Y-113782693D01*
X189721020Y-113679821D01*
X189721910Y-113675345D01*
X189722795Y-113673208D01*
X189722797Y-113673207D01*
X189728286Y-113667264D01*
X189729242Y-113666777D01*
X189732716Y-113665649D01*
X190132040Y-113602483D01*
X190136595Y-113602662D01*
G37*
%TD.AperFunction*%
%TD*%
%TA.AperFunction,Conductor*%
%TO.N,/blpix*%
G36*
X188604935Y-118474143D02*
G01*
X188607353Y-118474965D01*
X188813097Y-118571214D01*
X188971715Y-118645417D01*
X188975395Y-118648123D01*
X188976597Y-118649439D01*
X188979647Y-118657845D01*
X188979595Y-118659025D01*
X188977782Y-118664784D01*
X188866727Y-118839598D01*
X188865124Y-118841597D01*
X188863349Y-118843372D01*
X188861350Y-118844975D01*
X188686991Y-118955741D01*
X188682733Y-118957390D01*
X188680978Y-118957697D01*
X188672239Y-118955747D01*
X188672237Y-118955746D01*
X188672237Y-118955745D01*
X188671272Y-118955068D01*
X188667397Y-118950451D01*
X188610325Y-118828452D01*
X188533053Y-118663275D01*
X188497159Y-118586546D01*
X188496071Y-118582119D01*
X188495939Y-118579183D01*
X188497764Y-118572370D01*
X188497825Y-118572274D01*
X188498955Y-118570868D01*
X188498992Y-118570768D01*
X188499063Y-118570734D01*
X188499402Y-118570312D01*
X188591323Y-118478391D01*
X188595118Y-118475857D01*
X188597831Y-118474734D01*
X188604843Y-118474123D01*
X188604935Y-118474143D01*
G37*
%TD.AperFunction*%
%TD*%
%TA.AperFunction,Conductor*%
%TO.N,GND*%
G36*
X164020062Y-109272761D02*
G01*
X164594529Y-109634059D01*
X164599708Y-109641364D01*
X164600000Y-109643963D01*
X164600000Y-109756036D01*
X164596573Y-109764309D01*
X164594529Y-109765940D01*
X164020062Y-110127238D01*
X164011234Y-110128742D01*
X164004602Y-110124523D01*
X163722672Y-109762500D01*
X163679597Y-109707188D01*
X163677218Y-109698556D01*
X163679597Y-109692812D01*
X164004602Y-109275475D01*
X164012389Y-109271054D01*
X164020062Y-109272761D01*
G37*
%TD.AperFunction*%
%TD*%
%TA.AperFunction,Conductor*%
%TO.N,/SR_load*%
G36*
X210657008Y-130231988D02*
G01*
X210992691Y-130566715D01*
X210996130Y-130574983D01*
X210992715Y-130583261D01*
X210992691Y-130583285D01*
X210657008Y-130918011D01*
X210648730Y-130921426D01*
X210641947Y-130919247D01*
X210304900Y-130678500D01*
X210300159Y-130670902D01*
X210300000Y-130668979D01*
X210300000Y-130481021D01*
X210303427Y-130472748D01*
X210304900Y-130471500D01*
X210641947Y-130230752D01*
X210650670Y-130228732D01*
X210657008Y-130231988D01*
G37*
%TD.AperFunction*%
%TD*%
%TA.AperFunction,Conductor*%
%TO.N,GND*%
G36*
X200675084Y-111595347D02*
G01*
X200678868Y-111598512D01*
X201005401Y-112017811D01*
X201007781Y-112026444D01*
X201005401Y-112032189D01*
X200678868Y-112451487D01*
X200671081Y-112455909D01*
X200666167Y-112455472D01*
X200093230Y-112277555D01*
X200086346Y-112271828D01*
X200085000Y-112266381D01*
X200085000Y-111783618D01*
X200088427Y-111775345D01*
X200093228Y-111772444D01*
X200666167Y-111594527D01*
X200675084Y-111595347D01*
G37*
%TD.AperFunction*%
%TD*%
%TA.AperFunction,Conductor*%
%TO.N,VDDA*%
G36*
X195033228Y-118658496D02*
G01*
X195346080Y-119093165D01*
X195348132Y-119101882D01*
X195346080Y-119106835D01*
X195033228Y-119541503D01*
X195025614Y-119546216D01*
X195017991Y-119544863D01*
X194455959Y-119228355D01*
X194450432Y-119221309D01*
X194450000Y-119218160D01*
X194450000Y-118981839D01*
X194453427Y-118973566D01*
X194455959Y-118971644D01*
X195017993Y-118655135D01*
X195026881Y-118654063D01*
X195033228Y-118658496D01*
G37*
%TD.AperFunction*%
%TD*%
%TA.AperFunction,Conductor*%
%TO.N,Net-(J14-Pin_1)*%
G36*
X186577330Y-110284491D02*
G01*
X186583550Y-110290934D01*
X186584082Y-110292673D01*
X186629754Y-110497453D01*
X186629754Y-110502547D01*
X186584082Y-110707326D01*
X186578937Y-110714655D01*
X186570116Y-110716198D01*
X186568377Y-110715666D01*
X186186737Y-110565418D01*
X186180294Y-110559198D01*
X186179323Y-110554531D01*
X186179323Y-110445468D01*
X186182750Y-110437195D01*
X186186737Y-110434581D01*
X186568379Y-110284333D01*
X186577330Y-110284491D01*
G37*
%TD.AperFunction*%
%TD*%
%TA.AperFunction,Conductor*%
%TO.N,/SR_load*%
G36*
X209972916Y-128056495D02*
G01*
X210069065Y-128152643D01*
X210071601Y-128156439D01*
X210099998Y-128224998D01*
X210100000Y-128225000D01*
X210324073Y-128404258D01*
X210328392Y-128412102D01*
X210325900Y-128420703D01*
X210318056Y-128425022D01*
X210316797Y-128425094D01*
X210000033Y-128425999D01*
X209999967Y-128425999D01*
X209683202Y-128425094D01*
X209674938Y-128421643D01*
X209671535Y-128413361D01*
X209674986Y-128405097D01*
X209675913Y-128404269D01*
X209900000Y-128225000D01*
X209899999Y-128224999D01*
X209838478Y-128196669D01*
X209832397Y-128190096D01*
X209832745Y-128181148D01*
X209835096Y-128177772D01*
X209956373Y-128056495D01*
X209964645Y-128053069D01*
X209972916Y-128056495D01*
G37*
%TD.AperFunction*%
%TD*%
%TA.AperFunction,Conductor*%
%TO.N,/VCasc2!*%
G36*
X188381946Y-114917385D02*
G01*
X188584961Y-114962664D01*
X188589131Y-114964504D01*
X188590592Y-114965529D01*
X188590594Y-114965533D01*
X188590598Y-114965534D01*
X188592811Y-114969020D01*
X188595395Y-114973085D01*
X188595397Y-114973094D01*
X188595689Y-114974767D01*
X188595545Y-114979489D01*
X188505820Y-115356282D01*
X188503916Y-115360432D01*
X188502412Y-115362510D01*
X188496132Y-115366904D01*
X188495474Y-115367091D01*
X188492276Y-115367537D01*
X188264708Y-115367537D01*
X188260228Y-115366645D01*
X188257859Y-115365663D01*
X188252132Y-115360573D01*
X188251797Y-115359975D01*
X188251555Y-115359357D01*
X188251528Y-115359330D01*
X188251528Y-115359286D01*
X188250623Y-115356971D01*
X188160751Y-114979563D01*
X188160580Y-114975006D01*
X188160861Y-114973248D01*
X188160863Y-114973244D01*
X188160862Y-114973241D01*
X188160862Y-114973238D01*
X188163206Y-114969431D01*
X188165549Y-114965621D01*
X188166934Y-114964618D01*
X188171241Y-114962680D01*
X188374333Y-114917385D01*
X188376880Y-114917105D01*
X188379400Y-114917105D01*
X188381946Y-114917385D01*
G37*
%TD.AperFunction*%
%TD*%
%TA.AperFunction,Conductor*%
%TO.N,suba*%
G36*
X171145065Y-78778427D02*
G01*
X171148492Y-78786700D01*
X171148407Y-78788111D01*
X171081277Y-79340711D01*
X171076877Y-79348510D01*
X171069662Y-79351000D01*
X170750000Y-79351000D01*
X170430338Y-79351000D01*
X170422065Y-79347573D01*
X170418723Y-79340711D01*
X170351593Y-78788111D01*
X170353998Y-78779485D01*
X170361797Y-78775085D01*
X170363208Y-78775000D01*
X171136792Y-78775000D01*
X171145065Y-78778427D01*
G37*
%TD.AperFunction*%
%TD*%
%TA.AperFunction,Conductor*%
%TO.N,/SR_sin*%
G36*
X192826928Y-120271829D02*
G01*
X192827732Y-120272211D01*
X192832922Y-120277061D01*
X193010403Y-120593733D01*
X193011815Y-120598073D01*
X193012321Y-120602333D01*
X193011960Y-120606902D01*
X192996773Y-120660512D01*
X192994696Y-120664577D01*
X192992884Y-120666870D01*
X192987021Y-120670836D01*
X192986906Y-120670870D01*
X192984383Y-120671323D01*
X192577730Y-120698991D01*
X192573203Y-120698406D01*
X192571516Y-120697838D01*
X192564771Y-120691953D01*
X192564132Y-120690665D01*
X192562916Y-120685472D01*
X192562916Y-120507520D01*
X192563806Y-120503044D01*
X192565349Y-120499318D01*
X192568306Y-120495123D01*
X192812394Y-120274318D01*
X192816306Y-120271979D01*
X192817991Y-120271379D01*
X192826928Y-120271829D01*
G37*
%TD.AperFunction*%
%TD*%
%TA.AperFunction,Conductor*%
%TO.N,/VCasc2!*%
G36*
X189235937Y-60860470D02*
G01*
X189238033Y-60863493D01*
X190001799Y-62451142D01*
X190002298Y-62460083D01*
X189999529Y-62464487D01*
X189833493Y-62630523D01*
X189825220Y-62633950D01*
X189821995Y-62633497D01*
X188666483Y-62302139D01*
X188659475Y-62296564D01*
X188658029Y-62290200D01*
X188713948Y-61348798D01*
X188717532Y-61341046D01*
X189219397Y-60860117D01*
X189227739Y-60856868D01*
X189235937Y-60860470D01*
G37*
%TD.AperFunction*%
%TD*%
%TA.AperFunction,Conductor*%
%TO.N,/blpix*%
G36*
X189120760Y-128075889D02*
G01*
X189123933Y-128077204D01*
X189129298Y-128081686D01*
X189337191Y-128405076D01*
X189338863Y-128409327D01*
X189339178Y-128411074D01*
X189337274Y-128419824D01*
X189330970Y-128424373D01*
X189330240Y-128424588D01*
X189329746Y-128424659D01*
X189329740Y-128424664D01*
X189329731Y-128424662D01*
X189326967Y-128425065D01*
X189000033Y-128425999D01*
X188999967Y-128425999D01*
X188673684Y-128425067D01*
X188669207Y-128424163D01*
X188667569Y-128423479D01*
X188661257Y-128417127D01*
X188660855Y-128409382D01*
X188661073Y-128408643D01*
X188661283Y-128408182D01*
X188661284Y-128408172D01*
X188661293Y-128408163D01*
X188662449Y-128405632D01*
X188870289Y-128082327D01*
X188873458Y-128079045D01*
X188876281Y-128077087D01*
X188882950Y-128075000D01*
X189116285Y-128075000D01*
X189120760Y-128075889D01*
G37*
%TD.AperFunction*%
%TD*%
%TA.AperFunction,Conductor*%
%TO.N,Net-(J12-Pin_1)*%
G36*
X189648418Y-114644229D02*
G01*
X189649151Y-114644800D01*
X189651561Y-114647342D01*
X189769332Y-114816401D01*
X189771161Y-114820586D01*
X189771793Y-114823472D01*
X189771193Y-114830405D01*
X189771166Y-114830471D01*
X189770233Y-114832184D01*
X189770215Y-114832287D01*
X189770154Y-114832328D01*
X189769937Y-114832729D01*
X189651880Y-115002199D01*
X189648589Y-115005364D01*
X189646565Y-115006660D01*
X189638816Y-115008418D01*
X189637897Y-115008304D01*
X189634528Y-115007359D01*
X189368689Y-114887486D01*
X189328946Y-114871024D01*
X189326925Y-114869944D01*
X189325043Y-114868687D01*
X189323268Y-114867231D01*
X189303403Y-114847366D01*
X189300866Y-114843568D01*
X189300185Y-114841923D01*
X189300184Y-114832975D01*
X189300184Y-114832973D01*
X189300865Y-114831327D01*
X189303400Y-114827532D01*
X189372056Y-114758876D01*
X189375845Y-114756344D01*
X189379109Y-114754992D01*
X189385688Y-114754294D01*
X189386558Y-114754452D01*
X189386560Y-114754454D01*
X189634021Y-114642866D01*
X189638466Y-114641839D01*
X189640867Y-114641765D01*
X189648418Y-114644229D01*
G37*
%TD.AperFunction*%
%TD*%
%TA.AperFunction,Conductor*%
%TO.N,/SR_out_0D*%
G36*
X174096128Y-128075890D02*
G01*
X174099435Y-128077260D01*
X174104477Y-128081269D01*
X174335479Y-128404671D01*
X174337357Y-128408835D01*
X174337733Y-128410461D01*
X174336258Y-128419294D01*
X174329919Y-128424234D01*
X174329074Y-128424506D01*
X174325522Y-128425069D01*
X174000033Y-128425999D01*
X173999967Y-128425999D01*
X173674983Y-128425070D01*
X173670507Y-128424166D01*
X173668965Y-128423522D01*
X173662652Y-128417172D01*
X173662338Y-128409140D01*
X173662610Y-128408294D01*
X173664221Y-128405088D01*
X173895149Y-128081790D01*
X173898475Y-128078667D01*
X173900731Y-128077260D01*
X173901512Y-128076773D01*
X173907704Y-128075000D01*
X174091652Y-128075000D01*
X174096128Y-128075890D01*
G37*
%TD.AperFunction*%
%TD*%
%TA.AperFunction,Conductor*%
%TO.N,Net-(J14-Pin_4)*%
G36*
X179075370Y-60861069D02*
G01*
X179077740Y-60864626D01*
X179784071Y-62516518D01*
X179784173Y-62525472D01*
X179781586Y-62529391D01*
X179703460Y-62607517D01*
X179695187Y-62610944D01*
X179692389Y-62610605D01*
X178436887Y-62301382D01*
X178429673Y-62296076D01*
X178428070Y-62288613D01*
X178539703Y-61369299D01*
X178543161Y-61362322D01*
X179058826Y-60860837D01*
X179067145Y-60857527D01*
X179075370Y-60861069D01*
G37*
%TD.AperFunction*%
%TD*%
%TA.AperFunction,Conductor*%
%TO.N,VDD*%
G36*
X181470787Y-121750891D02*
G01*
X181473966Y-121752208D01*
X181479310Y-121756660D01*
X181792684Y-122240810D01*
X181794368Y-122245047D01*
X181794721Y-122246966D01*
X181793008Y-122255486D01*
X181792153Y-122256794D01*
X181789195Y-122259888D01*
X181358724Y-122569720D01*
X181354568Y-122571613D01*
X181351788Y-122572267D01*
X181344649Y-122571695D01*
X181344433Y-122571605D01*
X181342063Y-122570287D01*
X180910924Y-122259975D01*
X180907811Y-122256637D01*
X180906786Y-122254981D01*
X180905282Y-122246428D01*
X180905571Y-122245048D01*
X180905603Y-122244895D01*
X180907228Y-122240944D01*
X181220279Y-121757293D01*
X181223458Y-121754022D01*
X181226292Y-121752068D01*
X181232933Y-121750000D01*
X181466309Y-121750000D01*
X181470787Y-121750891D01*
G37*
%TD.AperFunction*%
%TD*%
%TA.AperFunction,Conductor*%
%TO.N,/SPI_left_CSN*%
G36*
X158081616Y-105659331D02*
G01*
X158463263Y-105809581D01*
X158469706Y-105815801D01*
X158470677Y-105820468D01*
X158470677Y-105929531D01*
X158467250Y-105937804D01*
X158463263Y-105940418D01*
X158081622Y-106090666D01*
X158072669Y-106090508D01*
X158066449Y-106084065D01*
X158065917Y-106082326D01*
X158020245Y-105877547D01*
X158020245Y-105872453D01*
X158033616Y-105812500D01*
X158065917Y-105667671D01*
X158071062Y-105660344D01*
X158079883Y-105658801D01*
X158081616Y-105659331D01*
G37*
%TD.AperFunction*%
%TD*%
%TA.AperFunction,Conductor*%
%TO.N,Net-(J14-Pin_12)*%
G36*
X199395528Y-60860862D02*
G01*
X199397784Y-60864232D01*
X200117965Y-62495482D01*
X200118172Y-62504434D01*
X200115535Y-62508480D01*
X200037446Y-62586569D01*
X200029173Y-62589996D01*
X200026443Y-62589673D01*
X198827004Y-62301842D01*
X198819759Y-62296579D01*
X198818055Y-62289771D01*
X198873948Y-61348799D01*
X198877532Y-61341046D01*
X199378987Y-60860509D01*
X199387330Y-60857260D01*
X199395528Y-60860862D01*
G37*
%TD.AperFunction*%
%TD*%
%TA.AperFunction,Conductor*%
%TO.N,/SR_load*%
G36*
X210358052Y-130230752D02*
G01*
X210695100Y-130471500D01*
X210699841Y-130479098D01*
X210700000Y-130481021D01*
X210700000Y-130668979D01*
X210696573Y-130677252D01*
X210695100Y-130678500D01*
X210358052Y-130919247D01*
X210349328Y-130921267D01*
X210342991Y-130918011D01*
X210007307Y-130583283D01*
X210003869Y-130575017D01*
X210007283Y-130566740D01*
X210342992Y-130231987D01*
X210351269Y-130228573D01*
X210358052Y-130230752D01*
G37*
%TD.AperFunction*%
%TD*%
%TA.AperFunction,Conductor*%
%TO.N,GND*%
G36*
X183136968Y-74011960D02*
G01*
X183972712Y-74846722D01*
X183976144Y-74854993D01*
X183972722Y-74863268D01*
X183972712Y-74863278D01*
X183136968Y-75698039D01*
X183128693Y-75701461D01*
X183121953Y-75699320D01*
X183120138Y-75698039D01*
X182284953Y-75108496D01*
X182280170Y-75100925D01*
X182280000Y-75098937D01*
X182280000Y-74611062D01*
X182283427Y-74602789D01*
X182284947Y-74601507D01*
X183121955Y-74010678D01*
X183130688Y-74008708D01*
X183136968Y-74011960D01*
G37*
%TD.AperFunction*%
%TD*%
%TA.AperFunction,Conductor*%
%TO.N,GND*%
G36*
X199842613Y-111594418D02*
G01*
X199845019Y-111594895D01*
X199856665Y-111598512D01*
X200414552Y-111771755D01*
X200418562Y-111773935D01*
X200419248Y-111774505D01*
X200420703Y-111775717D01*
X200424568Y-111781870D01*
X200424651Y-111782209D01*
X200424815Y-111783542D01*
X200424869Y-111783644D01*
X200424839Y-111783737D01*
X200425000Y-111785040D01*
X200425000Y-112264053D01*
X200424108Y-112268533D01*
X200423042Y-112271105D01*
X200418284Y-112276640D01*
X200417991Y-112276817D01*
X200415411Y-112277976D01*
X199846054Y-112454781D01*
X199841514Y-112455258D01*
X199838551Y-112454986D01*
X199832064Y-112452267D01*
X199832035Y-112452243D01*
X199830364Y-112450502D01*
X199686978Y-112266381D01*
X199506026Y-112034023D01*
X199503980Y-112029950D01*
X199503285Y-112027428D01*
X199503754Y-112019845D01*
X199503994Y-112019266D01*
X199504382Y-112018600D01*
X199504389Y-112018547D01*
X199504433Y-112018511D01*
X199505566Y-112016567D01*
X199829704Y-111600343D01*
X199833150Y-111597364D01*
X199835744Y-111595892D01*
X199842575Y-111594415D01*
X199842613Y-111594418D01*
G37*
%TD.AperFunction*%
%TD*%
%TA.AperFunction,Conductor*%
%TO.N,Net-(J12-Pin_2)*%
G36*
X188880396Y-114715080D02*
G01*
X189200868Y-114959620D01*
X189205366Y-114967363D01*
X189203866Y-114974834D01*
X189151907Y-115063547D01*
X189144769Y-115068954D01*
X189137799Y-115068624D01*
X188886177Y-114976762D01*
X188879946Y-114971425D01*
X188788123Y-114804965D01*
X188787128Y-114796066D01*
X188790093Y-114791043D01*
X188865028Y-114716108D01*
X188873300Y-114712682D01*
X188880396Y-114715080D01*
G37*
%TD.AperFunction*%
%TD*%
%TA.AperFunction,Conductor*%
%TO.N,/timestamp_clk*%
G36*
X182142390Y-110864274D02*
G01*
X182145786Y-110871702D01*
X182174353Y-111266077D01*
X182171533Y-111274576D01*
X182166558Y-111277962D01*
X182080559Y-111308141D01*
X182071618Y-111307647D01*
X182065828Y-111301463D01*
X181966204Y-111053497D01*
X181965505Y-111047307D01*
X181993438Y-110870719D01*
X181998115Y-110863083D01*
X182004994Y-110860847D01*
X182134117Y-110860847D01*
X182142390Y-110864274D01*
G37*
%TD.AperFunction*%
%TD*%
%TA.AperFunction,Conductor*%
%TO.N,Net-(U2A-vminusout)*%
G36*
X191046257Y-115953988D02*
G01*
X191049022Y-115962505D01*
X191048167Y-115966062D01*
X191043357Y-115977672D01*
X191043358Y-115977673D01*
X191311174Y-115977673D01*
X191319447Y-115981100D01*
X191322874Y-115989373D01*
X191322874Y-116024800D01*
X191321983Y-116029277D01*
X191278940Y-116133189D01*
X191278939Y-116133191D01*
X191317862Y-116435182D01*
X191315521Y-116443826D01*
X191308168Y-116448221D01*
X190652021Y-116556800D01*
X190643300Y-116554770D01*
X190638780Y-116548172D01*
X190611938Y-116443826D01*
X190585398Y-116340650D01*
X190586656Y-116331785D01*
X190589130Y-116328839D01*
X191029762Y-115952684D01*
X191038279Y-115949920D01*
X191046257Y-115953988D01*
G37*
%TD.AperFunction*%
%TD*%
%TA.AperFunction,Conductor*%
%TO.N,VDD*%
G36*
X165507688Y-107719784D02*
G01*
X165510327Y-107720383D01*
X166080003Y-107921470D01*
X166083924Y-107923798D01*
X166086089Y-107925743D01*
X166089663Y-107931796D01*
X166089696Y-107931938D01*
X166089900Y-107933716D01*
X166089951Y-107933823D01*
X166089921Y-107933905D01*
X166090000Y-107934586D01*
X166090000Y-108364394D01*
X166089109Y-108368873D01*
X166087996Y-108371559D01*
X166083417Y-108376984D01*
X166083293Y-108377062D01*
X166080957Y-108378191D01*
X165511243Y-108579292D01*
X165506725Y-108579942D01*
X165503878Y-108579790D01*
X165497181Y-108577233D01*
X165496999Y-108577087D01*
X165495089Y-108575150D01*
X165332774Y-108366722D01*
X165171026Y-108159023D01*
X165168980Y-108154950D01*
X165168285Y-108152428D01*
X165168754Y-108144845D01*
X165168994Y-108144266D01*
X165169382Y-108143600D01*
X165169389Y-108143547D01*
X165169433Y-108143511D01*
X165170566Y-108141567D01*
X165494498Y-107725606D01*
X165497949Y-107722625D01*
X165500430Y-107721216D01*
X165507452Y-107719759D01*
X165507688Y-107719784D01*
G37*
%TD.AperFunction*%
%TD*%
%TA.AperFunction,Conductor*%
%TO.N,Net-(J2-Pin_1)*%
G36*
X166105144Y-84836398D02*
G01*
X166107297Y-84839367D01*
X166499998Y-85612498D01*
X166500000Y-85612500D01*
X166542043Y-85629915D01*
X166545839Y-85632451D01*
X166854118Y-85940730D01*
X166857545Y-85949003D01*
X166854118Y-85957276D01*
X166782658Y-86028736D01*
X166774385Y-86032163D01*
X166766112Y-86028736D01*
X166765747Y-86028355D01*
X166499999Y-85737499D01*
X166107297Y-86510632D01*
X166100496Y-86516456D01*
X166091567Y-86515764D01*
X166088598Y-86513611D01*
X165603152Y-86028736D01*
X165257286Y-85683276D01*
X165253855Y-85675007D01*
X165257276Y-85666733D01*
X166088599Y-84836387D01*
X166096873Y-84832966D01*
X166105144Y-84836398D01*
G37*
%TD.AperFunction*%
%TD*%
%TA.AperFunction,Conductor*%
%TO.N,VDDA*%
G36*
X162249448Y-128078427D02*
G01*
X162252425Y-128083486D01*
X162345751Y-128410130D01*
X162344729Y-128419026D01*
X162337715Y-128424594D01*
X162334534Y-128425044D01*
X162000033Y-128425999D01*
X161999967Y-128425999D01*
X161665465Y-128425044D01*
X161657201Y-128421593D01*
X161653798Y-128413311D01*
X161654247Y-128410133D01*
X161747575Y-128083485D01*
X161753143Y-128076472D01*
X161758825Y-128075000D01*
X162241175Y-128075000D01*
X162249448Y-128078427D01*
G37*
%TD.AperFunction*%
%TD*%
%TA.AperFunction,Conductor*%
%TO.N,/blpix*%
G36*
X189063226Y-127728994D02*
G01*
X189070252Y-127734546D01*
X189071645Y-127738788D01*
X189123341Y-128148921D01*
X189120976Y-128157558D01*
X189113196Y-128161992D01*
X189111733Y-128162084D01*
X188880583Y-128162084D01*
X188872310Y-128158657D01*
X188871488Y-128157744D01*
X188671645Y-127910786D01*
X188669105Y-127902199D01*
X188673380Y-127894331D01*
X188675012Y-127893225D01*
X188995764Y-127713457D01*
X189004653Y-127712402D01*
X189063226Y-127728994D01*
G37*
%TD.AperFunction*%
%TD*%
%TA.AperFunction,Conductor*%
%TO.N,GND*%
G36*
X168120679Y-78052427D02*
G01*
X168124106Y-78060700D01*
X168123188Y-78065240D01*
X167892427Y-78613300D01*
X167890515Y-78617840D01*
X167884146Y-78624135D01*
X167879732Y-78625000D01*
X167400995Y-78625000D01*
X167392722Y-78621573D01*
X167389295Y-78613300D01*
X167389413Y-78611642D01*
X167468535Y-78059042D01*
X167473100Y-78051338D01*
X167480117Y-78049000D01*
X168112406Y-78049000D01*
X168120679Y-78052427D01*
G37*
%TD.AperFunction*%
%TD*%
%TA.AperFunction,Conductor*%
%TO.N,GND*%
G36*
X168880062Y-112722761D02*
G01*
X169454529Y-113084059D01*
X169459708Y-113091364D01*
X169460000Y-113093963D01*
X169460000Y-113206036D01*
X169456573Y-113214309D01*
X169454529Y-113215940D01*
X168880062Y-113577238D01*
X168871234Y-113578742D01*
X168864602Y-113574523D01*
X168582672Y-113212500D01*
X168539597Y-113157188D01*
X168537218Y-113148556D01*
X168539597Y-113142812D01*
X168864602Y-112725475D01*
X168872389Y-112721054D01*
X168880062Y-112722761D01*
G37*
%TD.AperFunction*%
%TD*%
%TA.AperFunction,Conductor*%
%TO.N,VDDA*%
G36*
X197675084Y-110045347D02*
G01*
X197678868Y-110048512D01*
X198005401Y-110467811D01*
X198007781Y-110476444D01*
X198005401Y-110482189D01*
X197678868Y-110901487D01*
X197671081Y-110905909D01*
X197666167Y-110905472D01*
X197093230Y-110727555D01*
X197086346Y-110721828D01*
X197085000Y-110716381D01*
X197085000Y-110233618D01*
X197088427Y-110225345D01*
X197093228Y-110222444D01*
X197666167Y-110044527D01*
X197675084Y-110045347D01*
G37*
%TD.AperFunction*%
%TD*%
%TA.AperFunction,Conductor*%
%TO.N,GND*%
G36*
X169692563Y-112723674D02*
G01*
X169693686Y-112724388D01*
X169696640Y-112727072D01*
X170018971Y-113140975D01*
X170021020Y-113145056D01*
X170021713Y-113147571D01*
X170021247Y-113155145D01*
X170021012Y-113155714D01*
X170020614Y-113156398D01*
X170020607Y-113156457D01*
X170020557Y-113156495D01*
X170019429Y-113158437D01*
X169696826Y-113572686D01*
X169693376Y-113575669D01*
X169691532Y-113576717D01*
X169683210Y-113577966D01*
X169681911Y-113577677D01*
X169678223Y-113576160D01*
X169107441Y-113217179D01*
X169104124Y-113214040D01*
X169102154Y-113211260D01*
X169100000Y-113204495D01*
X169100000Y-113096290D01*
X169100890Y-113091814D01*
X169102194Y-113088665D01*
X169102196Y-113088664D01*
X169106773Y-113083240D01*
X169677969Y-112723998D01*
X169682228Y-112722370D01*
X169684322Y-112722013D01*
X169692563Y-112723674D01*
G37*
%TD.AperFunction*%
%TD*%
%TA.AperFunction,Conductor*%
%TO.N,/SR_rb*%
G36*
X185312805Y-114357750D02*
G01*
X185315419Y-114361737D01*
X185465666Y-114743377D01*
X185465508Y-114752330D01*
X185459065Y-114758550D01*
X185457326Y-114759082D01*
X185252547Y-114804754D01*
X185247453Y-114804754D01*
X185042673Y-114759082D01*
X185035344Y-114753937D01*
X185033801Y-114745116D01*
X185034329Y-114743386D01*
X185184581Y-114361736D01*
X185190801Y-114355294D01*
X185195468Y-114354323D01*
X185304532Y-114354323D01*
X185312805Y-114357750D01*
G37*
%TD.AperFunction*%
%TD*%
%TA.AperFunction,Conductor*%
%TO.N,/SR_sin*%
G36*
X200523526Y-126135345D02*
G01*
X200523953Y-126136075D01*
X200712640Y-126486768D01*
X200713542Y-126495678D01*
X200710610Y-126500585D01*
X200581496Y-126629699D01*
X200573223Y-126633126D01*
X200567679Y-126631729D01*
X200216986Y-126443042D01*
X200211325Y-126436105D01*
X200212227Y-126427195D01*
X200212638Y-126426491D01*
X200325752Y-126248436D01*
X200329347Y-126244841D01*
X200507378Y-126131742D01*
X200516197Y-126130200D01*
X200523526Y-126135345D01*
G37*
%TD.AperFunction*%
%TD*%
%TA.AperFunction,Conductor*%
%TO.N,VDDA*%
G36*
X199161448Y-110045012D02*
G01*
X199167933Y-110047730D01*
X199167961Y-110047753D01*
X199169634Y-110049496D01*
X199493971Y-110465975D01*
X199496020Y-110470056D01*
X199496713Y-110472571D01*
X199496247Y-110480145D01*
X199496012Y-110480714D01*
X199494429Y-110483437D01*
X199170297Y-110899650D01*
X199166845Y-110902634D01*
X199164257Y-110904104D01*
X199157351Y-110905577D01*
X199157320Y-110905574D01*
X199155461Y-110905199D01*
X199155370Y-110905211D01*
X199155318Y-110905170D01*
X199154977Y-110905102D01*
X198810064Y-110797995D01*
X198585449Y-110728244D01*
X198581435Y-110726062D01*
X198579296Y-110724281D01*
X198575423Y-110718096D01*
X198575340Y-110717758D01*
X198575000Y-110714958D01*
X198575000Y-110235945D01*
X198575888Y-110231473D01*
X198576957Y-110228893D01*
X198581712Y-110223359D01*
X198582015Y-110223176D01*
X198584583Y-110222023D01*
X199153945Y-110045216D01*
X199158483Y-110044740D01*
X199161448Y-110045012D01*
G37*
%TD.AperFunction*%
%TD*%
%TA.AperFunction,Conductor*%
%TO.N,/SPI_left_MISO0*%
G36*
X160712325Y-101857750D02*
G01*
X160715158Y-101862342D01*
X160841605Y-102243821D01*
X160840955Y-102252752D01*
X160834180Y-102258608D01*
X160833046Y-102258921D01*
X160627547Y-102304754D01*
X160622453Y-102304754D01*
X160416953Y-102258921D01*
X160409624Y-102253776D01*
X160408081Y-102244955D01*
X160408390Y-102243834D01*
X160534842Y-101862342D01*
X160540698Y-101855567D01*
X160545948Y-101854323D01*
X160704052Y-101854323D01*
X160712325Y-101857750D01*
G37*
%TD.AperFunction*%
%TD*%
%TA.AperFunction,Conductor*%
%TO.N,Net-(JP4-B)*%
G36*
X176777307Y-111122028D02*
G01*
X176777454Y-111122173D01*
X176852054Y-111196773D01*
X176854590Y-111200568D01*
X176855742Y-111203349D01*
X176855742Y-111212304D01*
X176855662Y-111212494D01*
X176693466Y-111585324D01*
X176690864Y-111589073D01*
X176689582Y-111590311D01*
X176681251Y-111593593D01*
X176680163Y-111593574D01*
X176674093Y-111591752D01*
X176499523Y-111480852D01*
X176497524Y-111479249D01*
X176495749Y-111477474D01*
X176494146Y-111475475D01*
X176383576Y-111301425D01*
X176381930Y-111297173D01*
X176381622Y-111295413D01*
X176383571Y-111286678D01*
X176384200Y-111285782D01*
X176389102Y-111281782D01*
X176761507Y-111119769D01*
X176765966Y-111118801D01*
X176768976Y-111118748D01*
X176777307Y-111122028D01*
G37*
%TD.AperFunction*%
%TD*%
%TA.AperFunction,Conductor*%
%TO.N,GND*%
G36*
X164835397Y-109275476D02*
G01*
X165160401Y-109692811D01*
X165162781Y-109701444D01*
X165160401Y-109707189D01*
X164835397Y-110124523D01*
X164827610Y-110128945D01*
X164819937Y-110127238D01*
X164245471Y-109765940D01*
X164240292Y-109758635D01*
X164240000Y-109756036D01*
X164240000Y-109643963D01*
X164243427Y-109635690D01*
X164245471Y-109634059D01*
X164819938Y-109272760D01*
X164828765Y-109271257D01*
X164835397Y-109275476D01*
G37*
%TD.AperFunction*%
%TD*%
M02*
