M48
; DRILL file KiCad 10.0.4 date 2026-08-10T17:40:28
; FORMAT={-:-/ absolute / metric / decimal}
; #@! TF.CreationDate,2026-08-10T17:40:28+02:00
; #@! TF.GenerationSoftware,Kicad,Pcbnew,10.0.4
; #@! TF.FileFunction,Plated,1,4,PTH
FMAT,2
METRIC
; #@! TA.AperFunction,Plated,PTH,ViaDrill
T1C0.250
; #@! TA.AperFunction,Plated,PTH,ComponentDrill
T2C1.000
; #@! TA.AperFunction,Plated,PTH,ComponentDrill
T3C1.500
%
G90
G05
T1
X158.025Y-105.875
X158.8Y-125.275
X159.625Y-104.9
X160.625Y-102.3
X160.825Y-106.95
X161.0Y-125.15
X161.825Y-99.65
X163.0Y-126.65
X164.426Y-122.399
X165.306Y-114.244
X165.725Y-111.6
X166.0Y-127.05
X167.175Y-109.575
X167.637Y-75.736
X168.3Y-103.55
X170.587Y-82.536
X172.862Y-105.032
X173.7Y-114.725
X174.55Y-113.76
X175.0Y-112.0
X175.125Y-112.925
X175.5Y-111.368
X176.5Y-111.475
X176.922Y-116.748
X177.042Y-114.822
X178.099Y-115.509
X178.295Y-110.695
X178.75Y-112.575
X179.94Y-113.097
X180.609Y-112.846
X181.2Y-120.725
X181.247Y-111.359
X181.35Y-121.75
X181.75Y-113.075
X181.8Y-120.65
X181.95Y-111.275
X182.214Y-112.695
X182.6Y-124.125
X182.75Y-111.267
X183.143Y-79.192
X183.348Y-112.803
X183.594Y-120.082
X183.825Y-111.321
X184.225Y-120.5
X184.65Y-111.275
X184.725Y-114.25
X184.8Y-119.225
X184.825Y-118.425
X185.25Y-114.8
X185.781Y-115.402
X185.916Y-113.006
X186.625Y-110.5
X186.763Y-116.087
X186.918Y-112.239
X187.2Y-111.325
X187.625Y-112.975
X187.665Y-114.5
X187.875Y-111.325
X188.378Y-114.922
X188.85Y-127.775
X188.861Y-118.839
X188.998Y-82.048
X189.05Y-115.125
X189.425Y-119.55
X189.77Y-114.825
X189.95Y-119.075
X190.0Y-127.975
X190.145Y-113.825
X190.623Y-113.448
X191.0Y-128.0
X191.0Y-120.025
X191.1Y-74.855
X191.575Y-122.05
X192.0Y-128.025
X192.35Y-118.675
X192.9Y-121.6
X192.95Y-120.45
X193.025Y-124.05
X193.75Y-116.45
X193.85Y-119.475
X193.9Y-121.075
X194.295Y-105.27
X196.225Y-124.425
X196.275Y-125.5
X196.535Y-111.911
X196.737Y-110.462
X197.0Y-125.475
X197.375Y-85.1
X198.449Y-118.198
X198.525Y-63.725
X198.55Y-98.5
X198.7Y-116.05
X198.875Y-117.75
X199.15Y-99.925
X199.225Y-116.575
X199.825Y-96.85
X200.25Y-103.15
X200.331Y-126.25
X201.0Y-105.59
X201.143Y-119.277
X201.85Y-103.175
X202.1Y-117.05
X202.375Y-104.375
X206.125Y-124.439
X207.125Y-105.45
X211.0Y-112.475
T2
X157.95Y-89.55
X157.95Y-92.09
X157.95Y-94.63
X157.95Y-97.17
X157.95Y-99.71
X157.95Y-102.25
X165.25Y-85.675
X165.25Y-88.215
X165.25Y-90.755
X165.25Y-93.295
X165.25Y-95.835
X170.85Y-61.45
X173.39Y-61.45
X175.93Y-61.45
X178.47Y-61.45
X178.98Y-74.855
X178.98Y-77.395
X181.01Y-61.45
X183.55Y-61.45
X183.98Y-74.855
X183.98Y-77.395
X186.09Y-61.45
X188.63Y-61.45
X188.75Y-74.855
X188.75Y-77.395
X188.75Y-79.935
X191.17Y-61.45
X193.71Y-61.45
X196.25Y-61.45
X198.79Y-61.45
X204.525Y-78.425
X204.575Y-96.445
X204.575Y-98.985
X204.575Y-101.525
X208.55Y-84.48
X208.55Y-87.02
X208.55Y-89.56
X208.55Y-92.1
X208.575Y-96.5
X208.575Y-99.04
X208.575Y-101.58
X208.575Y-104.12
X208.575Y-106.66
X208.575Y-109.2
X209.375Y-78.35
T3
X157.92Y-75.0
X157.92Y-80.08
X157.96Y-115.685
X157.96Y-120.765
X160.46Y-77.54
X160.5Y-118.225
X163.0Y-75.0
X163.0Y-80.08
X163.04Y-115.685
X163.04Y-120.765
X204.06Y-115.685
X204.06Y-120.765
X204.16Y-69.26
X204.16Y-74.34
X206.6Y-118.225
X206.7Y-71.8
X209.14Y-115.685
X209.14Y-120.765
X209.24Y-69.26
X209.24Y-74.34
M30
