%TF.GenerationSoftware,KiCad,Pcbnew,10.0.4*%
%TF.CreationDate,2026-08-10T17:40:25+02:00*%
%TF.ProjectId,astropix_v5_conn,61737472-6f70-4697-985f-76355f636f6e,rev?*%
%TF.SameCoordinates,Original*%
%TF.FileFunction,Legend,Top*%
%TF.FilePolarity,Positive*%
%FSLAX46Y46*%
G04 Gerber Fmt 4.6, Leading zero omitted, Abs format (unit mm)*
G04 Created by KiCad (PCBNEW 10.0.4) date 2026-08-10 17:40:25*
%MOMM*%
%LPD*%
G01*
G04 APERTURE LIST*
%ADD10C,0.150000*%
%ADD11C,0.350000*%
%ADD12C,0.120000*%
%ADD13C,0.010000*%
G04 APERTURE END LIST*
D10*
X157094160Y-66189216D02*
X157570350Y-66189216D01*
X156998922Y-66474931D02*
X157332255Y-65474931D01*
X157332255Y-65474931D02*
X157665588Y-66474931D01*
X157998922Y-66474931D02*
X157998922Y-65474931D01*
X157998922Y-65474931D02*
X158237017Y-65474931D01*
X158237017Y-65474931D02*
X158379874Y-65522550D01*
X158379874Y-65522550D02*
X158475112Y-65617788D01*
X158475112Y-65617788D02*
X158522731Y-65713026D01*
X158522731Y-65713026D02*
X158570350Y-65903502D01*
X158570350Y-65903502D02*
X158570350Y-66046359D01*
X158570350Y-66046359D02*
X158522731Y-66236835D01*
X158522731Y-66236835D02*
X158475112Y-66332073D01*
X158475112Y-66332073D02*
X158379874Y-66427312D01*
X158379874Y-66427312D02*
X158237017Y-66474931D01*
X158237017Y-66474931D02*
X157998922Y-66474931D01*
X159475112Y-66474931D02*
X158998922Y-66474931D01*
X158998922Y-66474931D02*
X158998922Y-65474931D01*
X157141779Y-68084875D02*
X157141779Y-67084875D01*
X157617969Y-67989636D02*
X157665588Y-68037256D01*
X157665588Y-68037256D02*
X157617969Y-68084875D01*
X157617969Y-68084875D02*
X157570350Y-68037256D01*
X157570350Y-68037256D02*
X157617969Y-67989636D01*
X157617969Y-67989636D02*
X157617969Y-68084875D01*
X158094159Y-68084875D02*
X158094159Y-67084875D01*
X158094159Y-67084875D02*
X158427492Y-67799160D01*
X158427492Y-67799160D02*
X158760825Y-67084875D01*
X158760825Y-67084875D02*
X158760825Y-68084875D01*
X159665587Y-67418208D02*
X159665587Y-68084875D01*
X159237016Y-67418208D02*
X159237016Y-67942017D01*
X159237016Y-67942017D02*
X159284635Y-68037256D01*
X159284635Y-68037256D02*
X159379873Y-68084875D01*
X159379873Y-68084875D02*
X159522730Y-68084875D01*
X159522730Y-68084875D02*
X159617968Y-68037256D01*
X159617968Y-68037256D02*
X159665587Y-67989636D01*
X160141778Y-67418208D02*
X160141778Y-68084875D01*
X160141778Y-67513446D02*
X160189397Y-67465827D01*
X160189397Y-67465827D02*
X160284635Y-67418208D01*
X160284635Y-67418208D02*
X160427492Y-67418208D01*
X160427492Y-67418208D02*
X160522730Y-67465827D01*
X160522730Y-67465827D02*
X160570349Y-67561065D01*
X160570349Y-67561065D02*
X160570349Y-68084875D01*
X161046540Y-67418208D02*
X161046540Y-68084875D01*
X161046540Y-67513446D02*
X161094159Y-67465827D01*
X161094159Y-67465827D02*
X161189397Y-67418208D01*
X161189397Y-67418208D02*
X161332254Y-67418208D01*
X161332254Y-67418208D02*
X161427492Y-67465827D01*
X161427492Y-67465827D02*
X161475111Y-67561065D01*
X161475111Y-67561065D02*
X161475111Y-68084875D01*
X161951302Y-68084875D02*
X161951302Y-67418208D01*
X161951302Y-67084875D02*
X161903683Y-67132494D01*
X161903683Y-67132494D02*
X161951302Y-67180113D01*
X161951302Y-67180113D02*
X161998921Y-67132494D01*
X161998921Y-67132494D02*
X161951302Y-67084875D01*
X161951302Y-67084875D02*
X161951302Y-67180113D01*
X162856063Y-68037256D02*
X162760825Y-68084875D01*
X162760825Y-68084875D02*
X162570349Y-68084875D01*
X162570349Y-68084875D02*
X162475111Y-68037256D01*
X162475111Y-68037256D02*
X162427492Y-67989636D01*
X162427492Y-67989636D02*
X162379873Y-67894398D01*
X162379873Y-67894398D02*
X162379873Y-67608684D01*
X162379873Y-67608684D02*
X162427492Y-67513446D01*
X162427492Y-67513446D02*
X162475111Y-67465827D01*
X162475111Y-67465827D02*
X162570349Y-67418208D01*
X162570349Y-67418208D02*
X162760825Y-67418208D01*
X162760825Y-67418208D02*
X162856063Y-67465827D01*
X163284635Y-68084875D02*
X163284635Y-67084875D01*
X163713206Y-68084875D02*
X163713206Y-67561065D01*
X163713206Y-67561065D02*
X163665587Y-67465827D01*
X163665587Y-67465827D02*
X163570349Y-67418208D01*
X163570349Y-67418208D02*
X163427492Y-67418208D01*
X163427492Y-67418208D02*
X163332254Y-67465827D01*
X163332254Y-67465827D02*
X163284635Y-67513446D01*
X157094160Y-69409104D02*
X157570350Y-69409104D01*
X156998922Y-69694819D02*
X157332255Y-68694819D01*
X157332255Y-68694819D02*
X157665588Y-69694819D01*
X158427493Y-69028152D02*
X158427493Y-69694819D01*
X157998922Y-69028152D02*
X157998922Y-69551961D01*
X157998922Y-69551961D02*
X158046541Y-69647200D01*
X158046541Y-69647200D02*
X158141779Y-69694819D01*
X158141779Y-69694819D02*
X158284636Y-69694819D01*
X158284636Y-69694819D02*
X158379874Y-69647200D01*
X158379874Y-69647200D02*
X158427493Y-69599580D01*
X159332255Y-69028152D02*
X159332255Y-69837676D01*
X159332255Y-69837676D02*
X159284636Y-69932914D01*
X159284636Y-69932914D02*
X159237017Y-69980533D01*
X159237017Y-69980533D02*
X159141779Y-70028152D01*
X159141779Y-70028152D02*
X158998922Y-70028152D01*
X158998922Y-70028152D02*
X158903684Y-69980533D01*
X159332255Y-69647200D02*
X159237017Y-69694819D01*
X159237017Y-69694819D02*
X159046541Y-69694819D01*
X159046541Y-69694819D02*
X158951303Y-69647200D01*
X158951303Y-69647200D02*
X158903684Y-69599580D01*
X158903684Y-69599580D02*
X158856065Y-69504342D01*
X158856065Y-69504342D02*
X158856065Y-69218628D01*
X158856065Y-69218628D02*
X158903684Y-69123390D01*
X158903684Y-69123390D02*
X158951303Y-69075771D01*
X158951303Y-69075771D02*
X159046541Y-69028152D01*
X159046541Y-69028152D02*
X159237017Y-69028152D01*
X159237017Y-69028152D02*
X159332255Y-69075771D01*
X160237017Y-69028152D02*
X160237017Y-69694819D01*
X159808446Y-69028152D02*
X159808446Y-69551961D01*
X159808446Y-69551961D02*
X159856065Y-69647200D01*
X159856065Y-69647200D02*
X159951303Y-69694819D01*
X159951303Y-69694819D02*
X160094160Y-69694819D01*
X160094160Y-69694819D02*
X160189398Y-69647200D01*
X160189398Y-69647200D02*
X160237017Y-69599580D01*
X160665589Y-69647200D02*
X160760827Y-69694819D01*
X160760827Y-69694819D02*
X160951303Y-69694819D01*
X160951303Y-69694819D02*
X161046541Y-69647200D01*
X161046541Y-69647200D02*
X161094160Y-69551961D01*
X161094160Y-69551961D02*
X161094160Y-69504342D01*
X161094160Y-69504342D02*
X161046541Y-69409104D01*
X161046541Y-69409104D02*
X160951303Y-69361485D01*
X160951303Y-69361485D02*
X160808446Y-69361485D01*
X160808446Y-69361485D02*
X160713208Y-69313866D01*
X160713208Y-69313866D02*
X160665589Y-69218628D01*
X160665589Y-69218628D02*
X160665589Y-69171009D01*
X160665589Y-69171009D02*
X160713208Y-69075771D01*
X160713208Y-69075771D02*
X160808446Y-69028152D01*
X160808446Y-69028152D02*
X160951303Y-69028152D01*
X160951303Y-69028152D02*
X161046541Y-69075771D01*
X161379875Y-69028152D02*
X161760827Y-69028152D01*
X161522732Y-68694819D02*
X161522732Y-69551961D01*
X161522732Y-69551961D02*
X161570351Y-69647200D01*
X161570351Y-69647200D02*
X161665589Y-69694819D01*
X161665589Y-69694819D02*
X161760827Y-69694819D01*
X162808447Y-68790057D02*
X162856066Y-68742438D01*
X162856066Y-68742438D02*
X162951304Y-68694819D01*
X162951304Y-68694819D02*
X163189399Y-68694819D01*
X163189399Y-68694819D02*
X163284637Y-68742438D01*
X163284637Y-68742438D02*
X163332256Y-68790057D01*
X163332256Y-68790057D02*
X163379875Y-68885295D01*
X163379875Y-68885295D02*
X163379875Y-68980533D01*
X163379875Y-68980533D02*
X163332256Y-69123390D01*
X163332256Y-69123390D02*
X162760828Y-69694819D01*
X162760828Y-69694819D02*
X163379875Y-69694819D01*
X163998923Y-68694819D02*
X164094161Y-68694819D01*
X164094161Y-68694819D02*
X164189399Y-68742438D01*
X164189399Y-68742438D02*
X164237018Y-68790057D01*
X164237018Y-68790057D02*
X164284637Y-68885295D01*
X164284637Y-68885295D02*
X164332256Y-69075771D01*
X164332256Y-69075771D02*
X164332256Y-69313866D01*
X164332256Y-69313866D02*
X164284637Y-69504342D01*
X164284637Y-69504342D02*
X164237018Y-69599580D01*
X164237018Y-69599580D02*
X164189399Y-69647200D01*
X164189399Y-69647200D02*
X164094161Y-69694819D01*
X164094161Y-69694819D02*
X163998923Y-69694819D01*
X163998923Y-69694819D02*
X163903685Y-69647200D01*
X163903685Y-69647200D02*
X163856066Y-69599580D01*
X163856066Y-69599580D02*
X163808447Y-69504342D01*
X163808447Y-69504342D02*
X163760828Y-69313866D01*
X163760828Y-69313866D02*
X163760828Y-69075771D01*
X163760828Y-69075771D02*
X163808447Y-68885295D01*
X163808447Y-68885295D02*
X163856066Y-68790057D01*
X163856066Y-68790057D02*
X163903685Y-68742438D01*
X163903685Y-68742438D02*
X163998923Y-68694819D01*
X164713209Y-68790057D02*
X164760828Y-68742438D01*
X164760828Y-68742438D02*
X164856066Y-68694819D01*
X164856066Y-68694819D02*
X165094161Y-68694819D01*
X165094161Y-68694819D02*
X165189399Y-68742438D01*
X165189399Y-68742438D02*
X165237018Y-68790057D01*
X165237018Y-68790057D02*
X165284637Y-68885295D01*
X165284637Y-68885295D02*
X165284637Y-68980533D01*
X165284637Y-68980533D02*
X165237018Y-69123390D01*
X165237018Y-69123390D02*
X164665590Y-69694819D01*
X164665590Y-69694819D02*
X165284637Y-69694819D01*
X166141780Y-68694819D02*
X165951304Y-68694819D01*
X165951304Y-68694819D02*
X165856066Y-68742438D01*
X165856066Y-68742438D02*
X165808447Y-68790057D01*
X165808447Y-68790057D02*
X165713209Y-68932914D01*
X165713209Y-68932914D02*
X165665590Y-69123390D01*
X165665590Y-69123390D02*
X165665590Y-69504342D01*
X165665590Y-69504342D02*
X165713209Y-69599580D01*
X165713209Y-69599580D02*
X165760828Y-69647200D01*
X165760828Y-69647200D02*
X165856066Y-69694819D01*
X165856066Y-69694819D02*
X166046542Y-69694819D01*
X166046542Y-69694819D02*
X166141780Y-69647200D01*
X166141780Y-69647200D02*
X166189399Y-69599580D01*
X166189399Y-69599580D02*
X166237018Y-69504342D01*
X166237018Y-69504342D02*
X166237018Y-69266247D01*
X166237018Y-69266247D02*
X166189399Y-69171009D01*
X166189399Y-69171009D02*
X166141780Y-69123390D01*
X166141780Y-69123390D02*
X166046542Y-69075771D01*
X166046542Y-69075771D02*
X165856066Y-69075771D01*
X165856066Y-69075771D02*
X165760828Y-69123390D01*
X165760828Y-69123390D02*
X165713209Y-69171009D01*
X165713209Y-69171009D02*
X165665590Y-69266247D01*
D11*
X176556453Y-68286561D02*
X177746929Y-68286561D01*
X176318358Y-69000847D02*
X177151691Y-66500847D01*
X177151691Y-66500847D02*
X177985024Y-69000847D01*
X178699310Y-68881800D02*
X178937405Y-69000847D01*
X178937405Y-69000847D02*
X179413596Y-69000847D01*
X179413596Y-69000847D02*
X179651691Y-68881800D01*
X179651691Y-68881800D02*
X179770739Y-68643704D01*
X179770739Y-68643704D02*
X179770739Y-68524657D01*
X179770739Y-68524657D02*
X179651691Y-68286561D01*
X179651691Y-68286561D02*
X179413596Y-68167514D01*
X179413596Y-68167514D02*
X179056453Y-68167514D01*
X179056453Y-68167514D02*
X178818358Y-68048466D01*
X178818358Y-68048466D02*
X178699310Y-67810371D01*
X178699310Y-67810371D02*
X178699310Y-67691323D01*
X178699310Y-67691323D02*
X178818358Y-67453228D01*
X178818358Y-67453228D02*
X179056453Y-67334180D01*
X179056453Y-67334180D02*
X179413596Y-67334180D01*
X179413596Y-67334180D02*
X179651691Y-67453228D01*
X180485025Y-67334180D02*
X181437406Y-67334180D01*
X180842168Y-66500847D02*
X180842168Y-68643704D01*
X180842168Y-68643704D02*
X180961215Y-68881800D01*
X180961215Y-68881800D02*
X181199310Y-69000847D01*
X181199310Y-69000847D02*
X181437406Y-69000847D01*
X182270739Y-69000847D02*
X182270739Y-67334180D01*
X182270739Y-67810371D02*
X182389786Y-67572276D01*
X182389786Y-67572276D02*
X182508834Y-67453228D01*
X182508834Y-67453228D02*
X182746929Y-67334180D01*
X182746929Y-67334180D02*
X182985024Y-67334180D01*
X184175500Y-69000847D02*
X183937405Y-68881800D01*
X183937405Y-68881800D02*
X183818358Y-68762752D01*
X183818358Y-68762752D02*
X183699310Y-68524657D01*
X183699310Y-68524657D02*
X183699310Y-67810371D01*
X183699310Y-67810371D02*
X183818358Y-67572276D01*
X183818358Y-67572276D02*
X183937405Y-67453228D01*
X183937405Y-67453228D02*
X184175500Y-67334180D01*
X184175500Y-67334180D02*
X184532643Y-67334180D01*
X184532643Y-67334180D02*
X184770739Y-67453228D01*
X184770739Y-67453228D02*
X184889786Y-67572276D01*
X184889786Y-67572276D02*
X185008834Y-67810371D01*
X185008834Y-67810371D02*
X185008834Y-68524657D01*
X185008834Y-68524657D02*
X184889786Y-68762752D01*
X184889786Y-68762752D02*
X184770739Y-68881800D01*
X184770739Y-68881800D02*
X184532643Y-69000847D01*
X184532643Y-69000847D02*
X184175500Y-69000847D01*
X186080263Y-69000847D02*
X186080263Y-66500847D01*
X186080263Y-66500847D02*
X187032644Y-66500847D01*
X187032644Y-66500847D02*
X187270739Y-66619895D01*
X187270739Y-66619895D02*
X187389786Y-66738942D01*
X187389786Y-66738942D02*
X187508834Y-66977038D01*
X187508834Y-66977038D02*
X187508834Y-67334180D01*
X187508834Y-67334180D02*
X187389786Y-67572276D01*
X187389786Y-67572276D02*
X187270739Y-67691323D01*
X187270739Y-67691323D02*
X187032644Y-67810371D01*
X187032644Y-67810371D02*
X186080263Y-67810371D01*
X188580263Y-69000847D02*
X188580263Y-67334180D01*
X188580263Y-66500847D02*
X188461215Y-66619895D01*
X188461215Y-66619895D02*
X188580263Y-66738942D01*
X188580263Y-66738942D02*
X188699310Y-66619895D01*
X188699310Y-66619895D02*
X188580263Y-66500847D01*
X188580263Y-66500847D02*
X188580263Y-66738942D01*
X189532643Y-69000847D02*
X190842167Y-67334180D01*
X189532643Y-67334180D02*
X190842167Y-69000847D01*
X192985025Y-66500847D02*
X191794549Y-66500847D01*
X191794549Y-66500847D02*
X191675501Y-67691323D01*
X191675501Y-67691323D02*
X191794549Y-67572276D01*
X191794549Y-67572276D02*
X192032644Y-67453228D01*
X192032644Y-67453228D02*
X192627882Y-67453228D01*
X192627882Y-67453228D02*
X192865977Y-67572276D01*
X192865977Y-67572276D02*
X192985025Y-67691323D01*
X192985025Y-67691323D02*
X193104072Y-67929419D01*
X193104072Y-67929419D02*
X193104072Y-68524657D01*
X193104072Y-68524657D02*
X192985025Y-68762752D01*
X192985025Y-68762752D02*
X192865977Y-68881800D01*
X192865977Y-68881800D02*
X192627882Y-69000847D01*
X192627882Y-69000847D02*
X192032644Y-69000847D01*
X192032644Y-69000847D02*
X191794549Y-68881800D01*
X191794549Y-68881800D02*
X191675501Y-68762752D01*
D10*
X165007142Y-105054819D02*
X164673809Y-104578628D01*
X164435714Y-105054819D02*
X164435714Y-104054819D01*
X164435714Y-104054819D02*
X164816666Y-104054819D01*
X164816666Y-104054819D02*
X164911904Y-104102438D01*
X164911904Y-104102438D02*
X164959523Y-104150057D01*
X164959523Y-104150057D02*
X165007142Y-104245295D01*
X165007142Y-104245295D02*
X165007142Y-104388152D01*
X165007142Y-104388152D02*
X164959523Y-104483390D01*
X164959523Y-104483390D02*
X164911904Y-104531009D01*
X164911904Y-104531009D02*
X164816666Y-104578628D01*
X164816666Y-104578628D02*
X164435714Y-104578628D01*
X165959523Y-105054819D02*
X165388095Y-105054819D01*
X165673809Y-105054819D02*
X165673809Y-104054819D01*
X165673809Y-104054819D02*
X165578571Y-104197676D01*
X165578571Y-104197676D02*
X165483333Y-104292914D01*
X165483333Y-104292914D02*
X165388095Y-104340533D01*
X166911904Y-105054819D02*
X166340476Y-105054819D01*
X166626190Y-105054819D02*
X166626190Y-104054819D01*
X166626190Y-104054819D02*
X166530952Y-104197676D01*
X166530952Y-104197676D02*
X166435714Y-104292914D01*
X166435714Y-104292914D02*
X166340476Y-104340533D01*
X202654819Y-108841666D02*
X202178628Y-109174999D01*
X202654819Y-109413094D02*
X201654819Y-109413094D01*
X201654819Y-109413094D02*
X201654819Y-109032142D01*
X201654819Y-109032142D02*
X201702438Y-108936904D01*
X201702438Y-108936904D02*
X201750057Y-108889285D01*
X201750057Y-108889285D02*
X201845295Y-108841666D01*
X201845295Y-108841666D02*
X201988152Y-108841666D01*
X201988152Y-108841666D02*
X202083390Y-108889285D01*
X202083390Y-108889285D02*
X202131009Y-108936904D01*
X202131009Y-108936904D02*
X202178628Y-109032142D01*
X202178628Y-109032142D02*
X202178628Y-109413094D01*
X201988152Y-107984523D02*
X202654819Y-107984523D01*
X201607200Y-108222618D02*
X202321485Y-108460713D01*
X202321485Y-108460713D02*
X202321485Y-107841666D01*
X194854819Y-116717857D02*
X194378628Y-117051190D01*
X194854819Y-117289285D02*
X193854819Y-117289285D01*
X193854819Y-117289285D02*
X193854819Y-116908333D01*
X193854819Y-116908333D02*
X193902438Y-116813095D01*
X193902438Y-116813095D02*
X193950057Y-116765476D01*
X193950057Y-116765476D02*
X194045295Y-116717857D01*
X194045295Y-116717857D02*
X194188152Y-116717857D01*
X194188152Y-116717857D02*
X194283390Y-116765476D01*
X194283390Y-116765476D02*
X194331009Y-116813095D01*
X194331009Y-116813095D02*
X194378628Y-116908333D01*
X194378628Y-116908333D02*
X194378628Y-117289285D01*
X194854819Y-115765476D02*
X194854819Y-116336904D01*
X194854819Y-116051190D02*
X193854819Y-116051190D01*
X193854819Y-116051190D02*
X193997676Y-116146428D01*
X193997676Y-116146428D02*
X194092914Y-116241666D01*
X194092914Y-116241666D02*
X194140533Y-116336904D01*
X193950057Y-115384523D02*
X193902438Y-115336904D01*
X193902438Y-115336904D02*
X193854819Y-115241666D01*
X193854819Y-115241666D02*
X193854819Y-115003571D01*
X193854819Y-115003571D02*
X193902438Y-114908333D01*
X193902438Y-114908333D02*
X193950057Y-114860714D01*
X193950057Y-114860714D02*
X194045295Y-114813095D01*
X194045295Y-114813095D02*
X194140533Y-114813095D01*
X194140533Y-114813095D02*
X194283390Y-114860714D01*
X194283390Y-114860714D02*
X194854819Y-115432142D01*
X194854819Y-115432142D02*
X194854819Y-114813095D01*
X166478571Y-66656009D02*
X166145238Y-66656009D01*
X166145238Y-67179819D02*
X166145238Y-66179819D01*
X166145238Y-66179819D02*
X166621428Y-66179819D01*
X167002381Y-67179819D02*
X167002381Y-66179819D01*
X167478571Y-67179819D02*
X167478571Y-66179819D01*
X167478571Y-66179819D02*
X167716666Y-66179819D01*
X167716666Y-66179819D02*
X167859523Y-66227438D01*
X167859523Y-66227438D02*
X167954761Y-66322676D01*
X167954761Y-66322676D02*
X168002380Y-66417914D01*
X168002380Y-66417914D02*
X168049999Y-66608390D01*
X168049999Y-66608390D02*
X168049999Y-66751247D01*
X168049999Y-66751247D02*
X168002380Y-66941723D01*
X168002380Y-66941723D02*
X167954761Y-67036961D01*
X167954761Y-67036961D02*
X167859523Y-67132200D01*
X167859523Y-67132200D02*
X167716666Y-67179819D01*
X167716666Y-67179819D02*
X167478571Y-67179819D01*
X168383333Y-66179819D02*
X169002380Y-66179819D01*
X169002380Y-66179819D02*
X168669047Y-66560771D01*
X168669047Y-66560771D02*
X168811904Y-66560771D01*
X168811904Y-66560771D02*
X168907142Y-66608390D01*
X168907142Y-66608390D02*
X168954761Y-66656009D01*
X168954761Y-66656009D02*
X169002380Y-66751247D01*
X169002380Y-66751247D02*
X169002380Y-66989342D01*
X169002380Y-66989342D02*
X168954761Y-67084580D01*
X168954761Y-67084580D02*
X168907142Y-67132200D01*
X168907142Y-67132200D02*
X168811904Y-67179819D01*
X168811904Y-67179819D02*
X168526190Y-67179819D01*
X168526190Y-67179819D02*
X168430952Y-67132200D01*
X168430952Y-67132200D02*
X168383333Y-67084580D01*
X206448571Y-66096009D02*
X206115238Y-66096009D01*
X206115238Y-66619819D02*
X206115238Y-65619819D01*
X206115238Y-65619819D02*
X206591428Y-65619819D01*
X206972381Y-66619819D02*
X206972381Y-65619819D01*
X207448571Y-66619819D02*
X207448571Y-65619819D01*
X207448571Y-65619819D02*
X207686666Y-65619819D01*
X207686666Y-65619819D02*
X207829523Y-65667438D01*
X207829523Y-65667438D02*
X207924761Y-65762676D01*
X207924761Y-65762676D02*
X207972380Y-65857914D01*
X207972380Y-65857914D02*
X208019999Y-66048390D01*
X208019999Y-66048390D02*
X208019999Y-66191247D01*
X208019999Y-66191247D02*
X207972380Y-66381723D01*
X207972380Y-66381723D02*
X207924761Y-66476961D01*
X207924761Y-66476961D02*
X207829523Y-66572200D01*
X207829523Y-66572200D02*
X207686666Y-66619819D01*
X207686666Y-66619819D02*
X207448571Y-66619819D01*
X208877142Y-65953152D02*
X208877142Y-66619819D01*
X208639047Y-65572200D02*
X208400952Y-66286485D01*
X208400952Y-66286485D02*
X209019999Y-66286485D01*
X193988095Y-77179819D02*
X193988095Y-76179819D01*
X193988095Y-76656009D02*
X194559523Y-76656009D01*
X194559523Y-77179819D02*
X194559523Y-76179819D01*
X195464285Y-76513152D02*
X195464285Y-77179819D01*
X195226190Y-76132200D02*
X194988095Y-76846485D01*
X194988095Y-76846485D02*
X195607142Y-76846485D01*
X165963095Y-125029819D02*
X165963095Y-124029819D01*
X165963095Y-124506009D02*
X166534523Y-124506009D01*
X166534523Y-125029819D02*
X166534523Y-124029819D01*
X167486904Y-124029819D02*
X167010714Y-124029819D01*
X167010714Y-124029819D02*
X166963095Y-124506009D01*
X166963095Y-124506009D02*
X167010714Y-124458390D01*
X167010714Y-124458390D02*
X167105952Y-124410771D01*
X167105952Y-124410771D02*
X167344047Y-124410771D01*
X167344047Y-124410771D02*
X167439285Y-124458390D01*
X167439285Y-124458390D02*
X167486904Y-124506009D01*
X167486904Y-124506009D02*
X167534523Y-124601247D01*
X167534523Y-124601247D02*
X167534523Y-124839342D01*
X167534523Y-124839342D02*
X167486904Y-124934580D01*
X167486904Y-124934580D02*
X167439285Y-124982200D01*
X167439285Y-124982200D02*
X167344047Y-125029819D01*
X167344047Y-125029819D02*
X167105952Y-125029819D01*
X167105952Y-125029819D02*
X167010714Y-124982200D01*
X167010714Y-124982200D02*
X166963095Y-124934580D01*
X184038095Y-99774819D02*
X184038095Y-98774819D01*
X184038095Y-99251009D02*
X184609523Y-99251009D01*
X184609523Y-99774819D02*
X184609523Y-98774819D01*
X185514285Y-98774819D02*
X185323809Y-98774819D01*
X185323809Y-98774819D02*
X185228571Y-98822438D01*
X185228571Y-98822438D02*
X185180952Y-98870057D01*
X185180952Y-98870057D02*
X185085714Y-99012914D01*
X185085714Y-99012914D02*
X185038095Y-99203390D01*
X185038095Y-99203390D02*
X185038095Y-99584342D01*
X185038095Y-99584342D02*
X185085714Y-99679580D01*
X185085714Y-99679580D02*
X185133333Y-99727200D01*
X185133333Y-99727200D02*
X185228571Y-99774819D01*
X185228571Y-99774819D02*
X185419047Y-99774819D01*
X185419047Y-99774819D02*
X185514285Y-99727200D01*
X185514285Y-99727200D02*
X185561904Y-99679580D01*
X185561904Y-99679580D02*
X185609523Y-99584342D01*
X185609523Y-99584342D02*
X185609523Y-99346247D01*
X185609523Y-99346247D02*
X185561904Y-99251009D01*
X185561904Y-99251009D02*
X185514285Y-99203390D01*
X185514285Y-99203390D02*
X185419047Y-99155771D01*
X185419047Y-99155771D02*
X185228571Y-99155771D01*
X185228571Y-99155771D02*
X185133333Y-99203390D01*
X185133333Y-99203390D02*
X185085714Y-99251009D01*
X185085714Y-99251009D02*
X185038095Y-99346247D01*
X156066666Y-126779819D02*
X156066666Y-127494104D01*
X156066666Y-127494104D02*
X156019047Y-127636961D01*
X156019047Y-127636961D02*
X155923809Y-127732200D01*
X155923809Y-127732200D02*
X155780952Y-127779819D01*
X155780952Y-127779819D02*
X155685714Y-127779819D01*
X156447619Y-126779819D02*
X157066666Y-126779819D01*
X157066666Y-126779819D02*
X156733333Y-127160771D01*
X156733333Y-127160771D02*
X156876190Y-127160771D01*
X156876190Y-127160771D02*
X156971428Y-127208390D01*
X156971428Y-127208390D02*
X157019047Y-127256009D01*
X157019047Y-127256009D02*
X157066666Y-127351247D01*
X157066666Y-127351247D02*
X157066666Y-127589342D01*
X157066666Y-127589342D02*
X157019047Y-127684580D01*
X157019047Y-127684580D02*
X156971428Y-127732200D01*
X156971428Y-127732200D02*
X156876190Y-127779819D01*
X156876190Y-127779819D02*
X156590476Y-127779819D01*
X156590476Y-127779819D02*
X156495238Y-127732200D01*
X156495238Y-127732200D02*
X156447619Y-127684580D01*
X167982142Y-104929819D02*
X167648809Y-104453628D01*
X167410714Y-104929819D02*
X167410714Y-103929819D01*
X167410714Y-103929819D02*
X167791666Y-103929819D01*
X167791666Y-103929819D02*
X167886904Y-103977438D01*
X167886904Y-103977438D02*
X167934523Y-104025057D01*
X167934523Y-104025057D02*
X167982142Y-104120295D01*
X167982142Y-104120295D02*
X167982142Y-104263152D01*
X167982142Y-104263152D02*
X167934523Y-104358390D01*
X167934523Y-104358390D02*
X167886904Y-104406009D01*
X167886904Y-104406009D02*
X167791666Y-104453628D01*
X167791666Y-104453628D02*
X167410714Y-104453628D01*
X168934523Y-104929819D02*
X168363095Y-104929819D01*
X168648809Y-104929819D02*
X168648809Y-103929819D01*
X168648809Y-103929819D02*
X168553571Y-104072676D01*
X168553571Y-104072676D02*
X168458333Y-104167914D01*
X168458333Y-104167914D02*
X168363095Y-104215533D01*
X169553571Y-103929819D02*
X169648809Y-103929819D01*
X169648809Y-103929819D02*
X169744047Y-103977438D01*
X169744047Y-103977438D02*
X169791666Y-104025057D01*
X169791666Y-104025057D02*
X169839285Y-104120295D01*
X169839285Y-104120295D02*
X169886904Y-104310771D01*
X169886904Y-104310771D02*
X169886904Y-104548866D01*
X169886904Y-104548866D02*
X169839285Y-104739342D01*
X169839285Y-104739342D02*
X169791666Y-104834580D01*
X169791666Y-104834580D02*
X169744047Y-104882200D01*
X169744047Y-104882200D02*
X169648809Y-104929819D01*
X169648809Y-104929819D02*
X169553571Y-104929819D01*
X169553571Y-104929819D02*
X169458333Y-104882200D01*
X169458333Y-104882200D02*
X169410714Y-104834580D01*
X169410714Y-104834580D02*
X169363095Y-104739342D01*
X169363095Y-104739342D02*
X169315476Y-104548866D01*
X169315476Y-104548866D02*
X169315476Y-104310771D01*
X169315476Y-104310771D02*
X169363095Y-104120295D01*
X169363095Y-104120295D02*
X169410714Y-104025057D01*
X169410714Y-104025057D02*
X169458333Y-103977438D01*
X169458333Y-103977438D02*
X169553571Y-103929819D01*
X198304819Y-116842857D02*
X197828628Y-117176190D01*
X198304819Y-117414285D02*
X197304819Y-117414285D01*
X197304819Y-117414285D02*
X197304819Y-117033333D01*
X197304819Y-117033333D02*
X197352438Y-116938095D01*
X197352438Y-116938095D02*
X197400057Y-116890476D01*
X197400057Y-116890476D02*
X197495295Y-116842857D01*
X197495295Y-116842857D02*
X197638152Y-116842857D01*
X197638152Y-116842857D02*
X197733390Y-116890476D01*
X197733390Y-116890476D02*
X197781009Y-116938095D01*
X197781009Y-116938095D02*
X197828628Y-117033333D01*
X197828628Y-117033333D02*
X197828628Y-117414285D01*
X198304819Y-115890476D02*
X198304819Y-116461904D01*
X198304819Y-116176190D02*
X197304819Y-116176190D01*
X197304819Y-116176190D02*
X197447676Y-116271428D01*
X197447676Y-116271428D02*
X197542914Y-116366666D01*
X197542914Y-116366666D02*
X197590533Y-116461904D01*
X197304819Y-115557142D02*
X197304819Y-114938095D01*
X197304819Y-114938095D02*
X197685771Y-115271428D01*
X197685771Y-115271428D02*
X197685771Y-115128571D01*
X197685771Y-115128571D02*
X197733390Y-115033333D01*
X197733390Y-115033333D02*
X197781009Y-114985714D01*
X197781009Y-114985714D02*
X197876247Y-114938095D01*
X197876247Y-114938095D02*
X198114342Y-114938095D01*
X198114342Y-114938095D02*
X198209580Y-114985714D01*
X198209580Y-114985714D02*
X198257200Y-115033333D01*
X198257200Y-115033333D02*
X198304819Y-115128571D01*
X198304819Y-115128571D02*
X198304819Y-115414285D01*
X198304819Y-115414285D02*
X198257200Y-115509523D01*
X198257200Y-115509523D02*
X198209580Y-115557142D01*
X198732142Y-114554819D02*
X198398809Y-114078628D01*
X198160714Y-114554819D02*
X198160714Y-113554819D01*
X198160714Y-113554819D02*
X198541666Y-113554819D01*
X198541666Y-113554819D02*
X198636904Y-113602438D01*
X198636904Y-113602438D02*
X198684523Y-113650057D01*
X198684523Y-113650057D02*
X198732142Y-113745295D01*
X198732142Y-113745295D02*
X198732142Y-113888152D01*
X198732142Y-113888152D02*
X198684523Y-113983390D01*
X198684523Y-113983390D02*
X198636904Y-114031009D01*
X198636904Y-114031009D02*
X198541666Y-114078628D01*
X198541666Y-114078628D02*
X198160714Y-114078628D01*
X199684523Y-114554819D02*
X199113095Y-114554819D01*
X199398809Y-114554819D02*
X199398809Y-113554819D01*
X199398809Y-113554819D02*
X199303571Y-113697676D01*
X199303571Y-113697676D02*
X199208333Y-113792914D01*
X199208333Y-113792914D02*
X199113095Y-113840533D01*
X200541666Y-113888152D02*
X200541666Y-114554819D01*
X200303571Y-113507200D02*
X200065476Y-114221485D01*
X200065476Y-114221485D02*
X200684523Y-114221485D01*
X210516666Y-66214819D02*
X210516666Y-66929104D01*
X210516666Y-66929104D02*
X210469047Y-67071961D01*
X210469047Y-67071961D02*
X210373809Y-67167200D01*
X210373809Y-67167200D02*
X210230952Y-67214819D01*
X210230952Y-67214819D02*
X210135714Y-67214819D01*
X211421428Y-66548152D02*
X211421428Y-67214819D01*
X211183333Y-66167200D02*
X210945238Y-66881485D01*
X210945238Y-66881485D02*
X211564285Y-66881485D01*
X163949580Y-111616666D02*
X163997200Y-111664285D01*
X163997200Y-111664285D02*
X164044819Y-111807142D01*
X164044819Y-111807142D02*
X164044819Y-111902380D01*
X164044819Y-111902380D02*
X163997200Y-112045237D01*
X163997200Y-112045237D02*
X163901961Y-112140475D01*
X163901961Y-112140475D02*
X163806723Y-112188094D01*
X163806723Y-112188094D02*
X163616247Y-112235713D01*
X163616247Y-112235713D02*
X163473390Y-112235713D01*
X163473390Y-112235713D02*
X163282914Y-112188094D01*
X163282914Y-112188094D02*
X163187676Y-112140475D01*
X163187676Y-112140475D02*
X163092438Y-112045237D01*
X163092438Y-112045237D02*
X163044819Y-111902380D01*
X163044819Y-111902380D02*
X163044819Y-111807142D01*
X163044819Y-111807142D02*
X163092438Y-111664285D01*
X163092438Y-111664285D02*
X163140057Y-111616666D01*
X163140057Y-111235713D02*
X163092438Y-111188094D01*
X163092438Y-111188094D02*
X163044819Y-111092856D01*
X163044819Y-111092856D02*
X163044819Y-110854761D01*
X163044819Y-110854761D02*
X163092438Y-110759523D01*
X163092438Y-110759523D02*
X163140057Y-110711904D01*
X163140057Y-110711904D02*
X163235295Y-110664285D01*
X163235295Y-110664285D02*
X163330533Y-110664285D01*
X163330533Y-110664285D02*
X163473390Y-110711904D01*
X163473390Y-110711904D02*
X164044819Y-111283332D01*
X164044819Y-111283332D02*
X164044819Y-110664285D01*
X178679819Y-72333333D02*
X179394104Y-72333333D01*
X179394104Y-72333333D02*
X179536961Y-72380952D01*
X179536961Y-72380952D02*
X179632200Y-72476190D01*
X179632200Y-72476190D02*
X179679819Y-72619047D01*
X179679819Y-72619047D02*
X179679819Y-72714285D01*
X179679819Y-71857142D02*
X178679819Y-71857142D01*
X178679819Y-71857142D02*
X178679819Y-71476190D01*
X178679819Y-71476190D02*
X178727438Y-71380952D01*
X178727438Y-71380952D02*
X178775057Y-71333333D01*
X178775057Y-71333333D02*
X178870295Y-71285714D01*
X178870295Y-71285714D02*
X179013152Y-71285714D01*
X179013152Y-71285714D02*
X179108390Y-71333333D01*
X179108390Y-71333333D02*
X179156009Y-71380952D01*
X179156009Y-71380952D02*
X179203628Y-71476190D01*
X179203628Y-71476190D02*
X179203628Y-71857142D01*
X178679819Y-70380952D02*
X178679819Y-70857142D01*
X178679819Y-70857142D02*
X179156009Y-70904761D01*
X179156009Y-70904761D02*
X179108390Y-70857142D01*
X179108390Y-70857142D02*
X179060771Y-70761904D01*
X179060771Y-70761904D02*
X179060771Y-70523809D01*
X179060771Y-70523809D02*
X179108390Y-70428571D01*
X179108390Y-70428571D02*
X179156009Y-70380952D01*
X179156009Y-70380952D02*
X179251247Y-70333333D01*
X179251247Y-70333333D02*
X179489342Y-70333333D01*
X179489342Y-70333333D02*
X179584580Y-70380952D01*
X179584580Y-70380952D02*
X179632200Y-70428571D01*
X179632200Y-70428571D02*
X179679819Y-70523809D01*
X179679819Y-70523809D02*
X179679819Y-70761904D01*
X179679819Y-70761904D02*
X179632200Y-70857142D01*
X179632200Y-70857142D02*
X179584580Y-70904761D01*
X168034819Y-57874523D02*
X168749104Y-57874523D01*
X168749104Y-57874523D02*
X168891961Y-57922142D01*
X168891961Y-57922142D02*
X168987200Y-58017380D01*
X168987200Y-58017380D02*
X169034819Y-58160237D01*
X169034819Y-58160237D02*
X169034819Y-58255475D01*
X169034819Y-56874523D02*
X169034819Y-57445951D01*
X169034819Y-57160237D02*
X168034819Y-57160237D01*
X168034819Y-57160237D02*
X168177676Y-57255475D01*
X168177676Y-57255475D02*
X168272914Y-57350713D01*
X168272914Y-57350713D02*
X168320533Y-57445951D01*
X168368152Y-56017380D02*
X169034819Y-56017380D01*
X167987200Y-56255475D02*
X168701485Y-56493570D01*
X168701485Y-56493570D02*
X168701485Y-55874523D01*
X168944580Y-115491666D02*
X168992200Y-115539285D01*
X168992200Y-115539285D02*
X169039819Y-115682142D01*
X169039819Y-115682142D02*
X169039819Y-115777380D01*
X169039819Y-115777380D02*
X168992200Y-115920237D01*
X168992200Y-115920237D02*
X168896961Y-116015475D01*
X168896961Y-116015475D02*
X168801723Y-116063094D01*
X168801723Y-116063094D02*
X168611247Y-116110713D01*
X168611247Y-116110713D02*
X168468390Y-116110713D01*
X168468390Y-116110713D02*
X168277914Y-116063094D01*
X168277914Y-116063094D02*
X168182676Y-116015475D01*
X168182676Y-116015475D02*
X168087438Y-115920237D01*
X168087438Y-115920237D02*
X168039819Y-115777380D01*
X168039819Y-115777380D02*
X168039819Y-115682142D01*
X168039819Y-115682142D02*
X168087438Y-115539285D01*
X168087438Y-115539285D02*
X168135057Y-115491666D01*
X169039819Y-115015475D02*
X169039819Y-114824999D01*
X169039819Y-114824999D02*
X168992200Y-114729761D01*
X168992200Y-114729761D02*
X168944580Y-114682142D01*
X168944580Y-114682142D02*
X168801723Y-114586904D01*
X168801723Y-114586904D02*
X168611247Y-114539285D01*
X168611247Y-114539285D02*
X168230295Y-114539285D01*
X168230295Y-114539285D02*
X168135057Y-114586904D01*
X168135057Y-114586904D02*
X168087438Y-114634523D01*
X168087438Y-114634523D02*
X168039819Y-114729761D01*
X168039819Y-114729761D02*
X168039819Y-114920237D01*
X168039819Y-114920237D02*
X168087438Y-115015475D01*
X168087438Y-115015475D02*
X168135057Y-115063094D01*
X168135057Y-115063094D02*
X168230295Y-115110713D01*
X168230295Y-115110713D02*
X168468390Y-115110713D01*
X168468390Y-115110713D02*
X168563628Y-115063094D01*
X168563628Y-115063094D02*
X168611247Y-115015475D01*
X168611247Y-115015475D02*
X168658866Y-114920237D01*
X168658866Y-114920237D02*
X168658866Y-114729761D01*
X168658866Y-114729761D02*
X168611247Y-114634523D01*
X168611247Y-114634523D02*
X168563628Y-114586904D01*
X168563628Y-114586904D02*
X168468390Y-114539285D01*
X162474580Y-111716666D02*
X162522200Y-111764285D01*
X162522200Y-111764285D02*
X162569819Y-111907142D01*
X162569819Y-111907142D02*
X162569819Y-112002380D01*
X162569819Y-112002380D02*
X162522200Y-112145237D01*
X162522200Y-112145237D02*
X162426961Y-112240475D01*
X162426961Y-112240475D02*
X162331723Y-112288094D01*
X162331723Y-112288094D02*
X162141247Y-112335713D01*
X162141247Y-112335713D02*
X161998390Y-112335713D01*
X161998390Y-112335713D02*
X161807914Y-112288094D01*
X161807914Y-112288094D02*
X161712676Y-112240475D01*
X161712676Y-112240475D02*
X161617438Y-112145237D01*
X161617438Y-112145237D02*
X161569819Y-112002380D01*
X161569819Y-112002380D02*
X161569819Y-111907142D01*
X161569819Y-111907142D02*
X161617438Y-111764285D01*
X161617438Y-111764285D02*
X161665057Y-111716666D01*
X161903152Y-110859523D02*
X162569819Y-110859523D01*
X161522200Y-111097618D02*
X162236485Y-111335713D01*
X162236485Y-111335713D02*
X162236485Y-110716666D01*
X200579819Y-121291666D02*
X200103628Y-121624999D01*
X200579819Y-121863094D02*
X199579819Y-121863094D01*
X199579819Y-121863094D02*
X199579819Y-121482142D01*
X199579819Y-121482142D02*
X199627438Y-121386904D01*
X199627438Y-121386904D02*
X199675057Y-121339285D01*
X199675057Y-121339285D02*
X199770295Y-121291666D01*
X199770295Y-121291666D02*
X199913152Y-121291666D01*
X199913152Y-121291666D02*
X200008390Y-121339285D01*
X200008390Y-121339285D02*
X200056009Y-121386904D01*
X200056009Y-121386904D02*
X200103628Y-121482142D01*
X200103628Y-121482142D02*
X200103628Y-121863094D01*
X199675057Y-120910713D02*
X199627438Y-120863094D01*
X199627438Y-120863094D02*
X199579819Y-120767856D01*
X199579819Y-120767856D02*
X199579819Y-120529761D01*
X199579819Y-120529761D02*
X199627438Y-120434523D01*
X199627438Y-120434523D02*
X199675057Y-120386904D01*
X199675057Y-120386904D02*
X199770295Y-120339285D01*
X199770295Y-120339285D02*
X199865533Y-120339285D01*
X199865533Y-120339285D02*
X200008390Y-120386904D01*
X200008390Y-120386904D02*
X200579819Y-120958332D01*
X200579819Y-120958332D02*
X200579819Y-120339285D01*
X173948095Y-84114819D02*
X173948095Y-84924342D01*
X173948095Y-84924342D02*
X173995714Y-85019580D01*
X173995714Y-85019580D02*
X174043333Y-85067200D01*
X174043333Y-85067200D02*
X174138571Y-85114819D01*
X174138571Y-85114819D02*
X174329047Y-85114819D01*
X174329047Y-85114819D02*
X174424285Y-85067200D01*
X174424285Y-85067200D02*
X174471904Y-85019580D01*
X174471904Y-85019580D02*
X174519523Y-84924342D01*
X174519523Y-84924342D02*
X174519523Y-84114819D01*
X174948095Y-84210057D02*
X174995714Y-84162438D01*
X174995714Y-84162438D02*
X175090952Y-84114819D01*
X175090952Y-84114819D02*
X175329047Y-84114819D01*
X175329047Y-84114819D02*
X175424285Y-84162438D01*
X175424285Y-84162438D02*
X175471904Y-84210057D01*
X175471904Y-84210057D02*
X175519523Y-84305295D01*
X175519523Y-84305295D02*
X175519523Y-84400533D01*
X175519523Y-84400533D02*
X175471904Y-84543390D01*
X175471904Y-84543390D02*
X174900476Y-85114819D01*
X174900476Y-85114819D02*
X175519523Y-85114819D01*
X166279819Y-116541666D02*
X165803628Y-116874999D01*
X166279819Y-117113094D02*
X165279819Y-117113094D01*
X165279819Y-117113094D02*
X165279819Y-116732142D01*
X165279819Y-116732142D02*
X165327438Y-116636904D01*
X165327438Y-116636904D02*
X165375057Y-116589285D01*
X165375057Y-116589285D02*
X165470295Y-116541666D01*
X165470295Y-116541666D02*
X165613152Y-116541666D01*
X165613152Y-116541666D02*
X165708390Y-116589285D01*
X165708390Y-116589285D02*
X165756009Y-116636904D01*
X165756009Y-116636904D02*
X165803628Y-116732142D01*
X165803628Y-116732142D02*
X165803628Y-117113094D01*
X165279819Y-116208332D02*
X165279819Y-115589285D01*
X165279819Y-115589285D02*
X165660771Y-115922618D01*
X165660771Y-115922618D02*
X165660771Y-115779761D01*
X165660771Y-115779761D02*
X165708390Y-115684523D01*
X165708390Y-115684523D02*
X165756009Y-115636904D01*
X165756009Y-115636904D02*
X165851247Y-115589285D01*
X165851247Y-115589285D02*
X166089342Y-115589285D01*
X166089342Y-115589285D02*
X166184580Y-115636904D01*
X166184580Y-115636904D02*
X166232200Y-115684523D01*
X166232200Y-115684523D02*
X166279819Y-115779761D01*
X166279819Y-115779761D02*
X166279819Y-116065475D01*
X166279819Y-116065475D02*
X166232200Y-116160713D01*
X166232200Y-116160713D02*
X166184580Y-116208332D01*
X188304819Y-72333333D02*
X189019104Y-72333333D01*
X189019104Y-72333333D02*
X189161961Y-72380952D01*
X189161961Y-72380952D02*
X189257200Y-72476190D01*
X189257200Y-72476190D02*
X189304819Y-72619047D01*
X189304819Y-72619047D02*
X189304819Y-72714285D01*
X189304819Y-71857142D02*
X188304819Y-71857142D01*
X188304819Y-71857142D02*
X188304819Y-71476190D01*
X188304819Y-71476190D02*
X188352438Y-71380952D01*
X188352438Y-71380952D02*
X188400057Y-71333333D01*
X188400057Y-71333333D02*
X188495295Y-71285714D01*
X188495295Y-71285714D02*
X188638152Y-71285714D01*
X188638152Y-71285714D02*
X188733390Y-71333333D01*
X188733390Y-71333333D02*
X188781009Y-71380952D01*
X188781009Y-71380952D02*
X188828628Y-71476190D01*
X188828628Y-71476190D02*
X188828628Y-71857142D01*
X188304819Y-70952380D02*
X188304819Y-70333333D01*
X188304819Y-70333333D02*
X188685771Y-70666666D01*
X188685771Y-70666666D02*
X188685771Y-70523809D01*
X188685771Y-70523809D02*
X188733390Y-70428571D01*
X188733390Y-70428571D02*
X188781009Y-70380952D01*
X188781009Y-70380952D02*
X188876247Y-70333333D01*
X188876247Y-70333333D02*
X189114342Y-70333333D01*
X189114342Y-70333333D02*
X189209580Y-70380952D01*
X189209580Y-70380952D02*
X189257200Y-70428571D01*
X189257200Y-70428571D02*
X189304819Y-70523809D01*
X189304819Y-70523809D02*
X189304819Y-70809523D01*
X189304819Y-70809523D02*
X189257200Y-70904761D01*
X189257200Y-70904761D02*
X189209580Y-70952380D01*
X172382142Y-77059580D02*
X172334523Y-77107200D01*
X172334523Y-77107200D02*
X172191666Y-77154819D01*
X172191666Y-77154819D02*
X172096428Y-77154819D01*
X172096428Y-77154819D02*
X171953571Y-77107200D01*
X171953571Y-77107200D02*
X171858333Y-77011961D01*
X171858333Y-77011961D02*
X171810714Y-76916723D01*
X171810714Y-76916723D02*
X171763095Y-76726247D01*
X171763095Y-76726247D02*
X171763095Y-76583390D01*
X171763095Y-76583390D02*
X171810714Y-76392914D01*
X171810714Y-76392914D02*
X171858333Y-76297676D01*
X171858333Y-76297676D02*
X171953571Y-76202438D01*
X171953571Y-76202438D02*
X172096428Y-76154819D01*
X172096428Y-76154819D02*
X172191666Y-76154819D01*
X172191666Y-76154819D02*
X172334523Y-76202438D01*
X172334523Y-76202438D02*
X172382142Y-76250057D01*
X173334523Y-77154819D02*
X172763095Y-77154819D01*
X173048809Y-77154819D02*
X173048809Y-76154819D01*
X173048809Y-76154819D02*
X172953571Y-76297676D01*
X172953571Y-76297676D02*
X172858333Y-76392914D01*
X172858333Y-76392914D02*
X172763095Y-76440533D01*
X174239285Y-76154819D02*
X173763095Y-76154819D01*
X173763095Y-76154819D02*
X173715476Y-76631009D01*
X173715476Y-76631009D02*
X173763095Y-76583390D01*
X173763095Y-76583390D02*
X173858333Y-76535771D01*
X173858333Y-76535771D02*
X174096428Y-76535771D01*
X174096428Y-76535771D02*
X174191666Y-76583390D01*
X174191666Y-76583390D02*
X174239285Y-76631009D01*
X174239285Y-76631009D02*
X174286904Y-76726247D01*
X174286904Y-76726247D02*
X174286904Y-76964342D01*
X174286904Y-76964342D02*
X174239285Y-77059580D01*
X174239285Y-77059580D02*
X174191666Y-77107200D01*
X174191666Y-77107200D02*
X174096428Y-77154819D01*
X174096428Y-77154819D02*
X173858333Y-77154819D01*
X173858333Y-77154819D02*
X173763095Y-77107200D01*
X173763095Y-77107200D02*
X173715476Y-77059580D01*
X155916666Y-71954819D02*
X155916666Y-72669104D01*
X155916666Y-72669104D02*
X155869047Y-72811961D01*
X155869047Y-72811961D02*
X155773809Y-72907200D01*
X155773809Y-72907200D02*
X155630952Y-72954819D01*
X155630952Y-72954819D02*
X155535714Y-72954819D01*
X156297619Y-71954819D02*
X156964285Y-71954819D01*
X156964285Y-71954819D02*
X156535714Y-72954819D01*
X164016666Y-82479819D02*
X164016666Y-83194104D01*
X164016666Y-83194104D02*
X163969047Y-83336961D01*
X163969047Y-83336961D02*
X163873809Y-83432200D01*
X163873809Y-83432200D02*
X163730952Y-83479819D01*
X163730952Y-83479819D02*
X163635714Y-83479819D01*
X164445238Y-82575057D02*
X164492857Y-82527438D01*
X164492857Y-82527438D02*
X164588095Y-82479819D01*
X164588095Y-82479819D02*
X164826190Y-82479819D01*
X164826190Y-82479819D02*
X164921428Y-82527438D01*
X164921428Y-82527438D02*
X164969047Y-82575057D01*
X164969047Y-82575057D02*
X165016666Y-82670295D01*
X165016666Y-82670295D02*
X165016666Y-82765533D01*
X165016666Y-82765533D02*
X164969047Y-82908390D01*
X164969047Y-82908390D02*
X164397619Y-83479819D01*
X164397619Y-83479819D02*
X165016666Y-83479819D01*
X201284580Y-109092857D02*
X201332200Y-109140476D01*
X201332200Y-109140476D02*
X201379819Y-109283333D01*
X201379819Y-109283333D02*
X201379819Y-109378571D01*
X201379819Y-109378571D02*
X201332200Y-109521428D01*
X201332200Y-109521428D02*
X201236961Y-109616666D01*
X201236961Y-109616666D02*
X201141723Y-109664285D01*
X201141723Y-109664285D02*
X200951247Y-109711904D01*
X200951247Y-109711904D02*
X200808390Y-109711904D01*
X200808390Y-109711904D02*
X200617914Y-109664285D01*
X200617914Y-109664285D02*
X200522676Y-109616666D01*
X200522676Y-109616666D02*
X200427438Y-109521428D01*
X200427438Y-109521428D02*
X200379819Y-109378571D01*
X200379819Y-109378571D02*
X200379819Y-109283333D01*
X200379819Y-109283333D02*
X200427438Y-109140476D01*
X200427438Y-109140476D02*
X200475057Y-109092857D01*
X201379819Y-108140476D02*
X201379819Y-108711904D01*
X201379819Y-108426190D02*
X200379819Y-108426190D01*
X200379819Y-108426190D02*
X200522676Y-108521428D01*
X200522676Y-108521428D02*
X200617914Y-108616666D01*
X200617914Y-108616666D02*
X200665533Y-108711904D01*
X200379819Y-107807142D02*
X200379819Y-107188095D01*
X200379819Y-107188095D02*
X200760771Y-107521428D01*
X200760771Y-107521428D02*
X200760771Y-107378571D01*
X200760771Y-107378571D02*
X200808390Y-107283333D01*
X200808390Y-107283333D02*
X200856009Y-107235714D01*
X200856009Y-107235714D02*
X200951247Y-107188095D01*
X200951247Y-107188095D02*
X201189342Y-107188095D01*
X201189342Y-107188095D02*
X201284580Y-107235714D01*
X201284580Y-107235714D02*
X201332200Y-107283333D01*
X201332200Y-107283333D02*
X201379819Y-107378571D01*
X201379819Y-107378571D02*
X201379819Y-107664285D01*
X201379819Y-107664285D02*
X201332200Y-107759523D01*
X201332200Y-107759523D02*
X201284580Y-107807142D01*
X167443580Y-115992857D02*
X167491200Y-116040476D01*
X167491200Y-116040476D02*
X167538819Y-116183333D01*
X167538819Y-116183333D02*
X167538819Y-116278571D01*
X167538819Y-116278571D02*
X167491200Y-116421428D01*
X167491200Y-116421428D02*
X167395961Y-116516666D01*
X167395961Y-116516666D02*
X167300723Y-116564285D01*
X167300723Y-116564285D02*
X167110247Y-116611904D01*
X167110247Y-116611904D02*
X166967390Y-116611904D01*
X166967390Y-116611904D02*
X166776914Y-116564285D01*
X166776914Y-116564285D02*
X166681676Y-116516666D01*
X166681676Y-116516666D02*
X166586438Y-116421428D01*
X166586438Y-116421428D02*
X166538819Y-116278571D01*
X166538819Y-116278571D02*
X166538819Y-116183333D01*
X166538819Y-116183333D02*
X166586438Y-116040476D01*
X166586438Y-116040476D02*
X166634057Y-115992857D01*
X167538819Y-115040476D02*
X167538819Y-115611904D01*
X167538819Y-115326190D02*
X166538819Y-115326190D01*
X166538819Y-115326190D02*
X166681676Y-115421428D01*
X166681676Y-115421428D02*
X166776914Y-115516666D01*
X166776914Y-115516666D02*
X166824533Y-115611904D01*
X167538819Y-114088095D02*
X167538819Y-114659523D01*
X167538819Y-114373809D02*
X166538819Y-114373809D01*
X166538819Y-114373809D02*
X166681676Y-114469047D01*
X166681676Y-114469047D02*
X166776914Y-114564285D01*
X166776914Y-114564285D02*
X166824533Y-114659523D01*
X172133333Y-74029819D02*
X171800000Y-73553628D01*
X171561905Y-74029819D02*
X171561905Y-73029819D01*
X171561905Y-73029819D02*
X171942857Y-73029819D01*
X171942857Y-73029819D02*
X172038095Y-73077438D01*
X172038095Y-73077438D02*
X172085714Y-73125057D01*
X172085714Y-73125057D02*
X172133333Y-73220295D01*
X172133333Y-73220295D02*
X172133333Y-73363152D01*
X172133333Y-73363152D02*
X172085714Y-73458390D01*
X172085714Y-73458390D02*
X172038095Y-73506009D01*
X172038095Y-73506009D02*
X171942857Y-73553628D01*
X171942857Y-73553628D02*
X171561905Y-73553628D01*
X173085714Y-74029819D02*
X172514286Y-74029819D01*
X172800000Y-74029819D02*
X172800000Y-73029819D01*
X172800000Y-73029819D02*
X172704762Y-73172676D01*
X172704762Y-73172676D02*
X172609524Y-73267914D01*
X172609524Y-73267914D02*
X172514286Y-73315533D01*
X183604819Y-72283333D02*
X184319104Y-72283333D01*
X184319104Y-72283333D02*
X184461961Y-72330952D01*
X184461961Y-72330952D02*
X184557200Y-72426190D01*
X184557200Y-72426190D02*
X184604819Y-72569047D01*
X184604819Y-72569047D02*
X184604819Y-72664285D01*
X184604819Y-71807142D02*
X183604819Y-71807142D01*
X183604819Y-71807142D02*
X183604819Y-71426190D01*
X183604819Y-71426190D02*
X183652438Y-71330952D01*
X183652438Y-71330952D02*
X183700057Y-71283333D01*
X183700057Y-71283333D02*
X183795295Y-71235714D01*
X183795295Y-71235714D02*
X183938152Y-71235714D01*
X183938152Y-71235714D02*
X184033390Y-71283333D01*
X184033390Y-71283333D02*
X184081009Y-71330952D01*
X184081009Y-71330952D02*
X184128628Y-71426190D01*
X184128628Y-71426190D02*
X184128628Y-71807142D01*
X183938152Y-70378571D02*
X184604819Y-70378571D01*
X183557200Y-70616666D02*
X184271485Y-70854761D01*
X184271485Y-70854761D02*
X184271485Y-70235714D01*
X155891666Y-112604819D02*
X155891666Y-113319104D01*
X155891666Y-113319104D02*
X155844047Y-113461961D01*
X155844047Y-113461961D02*
X155748809Y-113557200D01*
X155748809Y-113557200D02*
X155605952Y-113604819D01*
X155605952Y-113604819D02*
X155510714Y-113604819D01*
X156844047Y-112604819D02*
X156367857Y-112604819D01*
X156367857Y-112604819D02*
X156320238Y-113081009D01*
X156320238Y-113081009D02*
X156367857Y-113033390D01*
X156367857Y-113033390D02*
X156463095Y-112985771D01*
X156463095Y-112985771D02*
X156701190Y-112985771D01*
X156701190Y-112985771D02*
X156796428Y-113033390D01*
X156796428Y-113033390D02*
X156844047Y-113081009D01*
X156844047Y-113081009D02*
X156891666Y-113176247D01*
X156891666Y-113176247D02*
X156891666Y-113414342D01*
X156891666Y-113414342D02*
X156844047Y-113509580D01*
X156844047Y-113509580D02*
X156796428Y-113557200D01*
X156796428Y-113557200D02*
X156701190Y-113604819D01*
X156701190Y-113604819D02*
X156463095Y-113604819D01*
X156463095Y-113604819D02*
X156367857Y-113557200D01*
X156367857Y-113557200D02*
X156320238Y-113509580D01*
X170519580Y-115541666D02*
X170567200Y-115589285D01*
X170567200Y-115589285D02*
X170614819Y-115732142D01*
X170614819Y-115732142D02*
X170614819Y-115827380D01*
X170614819Y-115827380D02*
X170567200Y-115970237D01*
X170567200Y-115970237D02*
X170471961Y-116065475D01*
X170471961Y-116065475D02*
X170376723Y-116113094D01*
X170376723Y-116113094D02*
X170186247Y-116160713D01*
X170186247Y-116160713D02*
X170043390Y-116160713D01*
X170043390Y-116160713D02*
X169852914Y-116113094D01*
X169852914Y-116113094D02*
X169757676Y-116065475D01*
X169757676Y-116065475D02*
X169662438Y-115970237D01*
X169662438Y-115970237D02*
X169614819Y-115827380D01*
X169614819Y-115827380D02*
X169614819Y-115732142D01*
X169614819Y-115732142D02*
X169662438Y-115589285D01*
X169662438Y-115589285D02*
X169710057Y-115541666D01*
X169614819Y-114684523D02*
X169614819Y-114874999D01*
X169614819Y-114874999D02*
X169662438Y-114970237D01*
X169662438Y-114970237D02*
X169710057Y-115017856D01*
X169710057Y-115017856D02*
X169852914Y-115113094D01*
X169852914Y-115113094D02*
X170043390Y-115160713D01*
X170043390Y-115160713D02*
X170424342Y-115160713D01*
X170424342Y-115160713D02*
X170519580Y-115113094D01*
X170519580Y-115113094D02*
X170567200Y-115065475D01*
X170567200Y-115065475D02*
X170614819Y-114970237D01*
X170614819Y-114970237D02*
X170614819Y-114779761D01*
X170614819Y-114779761D02*
X170567200Y-114684523D01*
X170567200Y-114684523D02*
X170519580Y-114636904D01*
X170519580Y-114636904D02*
X170424342Y-114589285D01*
X170424342Y-114589285D02*
X170186247Y-114589285D01*
X170186247Y-114589285D02*
X170091009Y-114636904D01*
X170091009Y-114636904D02*
X170043390Y-114684523D01*
X170043390Y-114684523D02*
X169995771Y-114779761D01*
X169995771Y-114779761D02*
X169995771Y-114970237D01*
X169995771Y-114970237D02*
X170043390Y-115065475D01*
X170043390Y-115065475D02*
X170091009Y-115113094D01*
X170091009Y-115113094D02*
X170186247Y-115160713D01*
X198283580Y-108991666D02*
X198331200Y-109039285D01*
X198331200Y-109039285D02*
X198378819Y-109182142D01*
X198378819Y-109182142D02*
X198378819Y-109277380D01*
X198378819Y-109277380D02*
X198331200Y-109420237D01*
X198331200Y-109420237D02*
X198235961Y-109515475D01*
X198235961Y-109515475D02*
X198140723Y-109563094D01*
X198140723Y-109563094D02*
X197950247Y-109610713D01*
X197950247Y-109610713D02*
X197807390Y-109610713D01*
X197807390Y-109610713D02*
X197616914Y-109563094D01*
X197616914Y-109563094D02*
X197521676Y-109515475D01*
X197521676Y-109515475D02*
X197426438Y-109420237D01*
X197426438Y-109420237D02*
X197378819Y-109277380D01*
X197378819Y-109277380D02*
X197378819Y-109182142D01*
X197378819Y-109182142D02*
X197426438Y-109039285D01*
X197426438Y-109039285D02*
X197474057Y-108991666D01*
X197807390Y-108420237D02*
X197759771Y-108515475D01*
X197759771Y-108515475D02*
X197712152Y-108563094D01*
X197712152Y-108563094D02*
X197616914Y-108610713D01*
X197616914Y-108610713D02*
X197569295Y-108610713D01*
X197569295Y-108610713D02*
X197474057Y-108563094D01*
X197474057Y-108563094D02*
X197426438Y-108515475D01*
X197426438Y-108515475D02*
X197378819Y-108420237D01*
X197378819Y-108420237D02*
X197378819Y-108229761D01*
X197378819Y-108229761D02*
X197426438Y-108134523D01*
X197426438Y-108134523D02*
X197474057Y-108086904D01*
X197474057Y-108086904D02*
X197569295Y-108039285D01*
X197569295Y-108039285D02*
X197616914Y-108039285D01*
X197616914Y-108039285D02*
X197712152Y-108086904D01*
X197712152Y-108086904D02*
X197759771Y-108134523D01*
X197759771Y-108134523D02*
X197807390Y-108229761D01*
X197807390Y-108229761D02*
X197807390Y-108420237D01*
X197807390Y-108420237D02*
X197855009Y-108515475D01*
X197855009Y-108515475D02*
X197902628Y-108563094D01*
X197902628Y-108563094D02*
X197997866Y-108610713D01*
X197997866Y-108610713D02*
X198188342Y-108610713D01*
X198188342Y-108610713D02*
X198283580Y-108563094D01*
X198283580Y-108563094D02*
X198331200Y-108515475D01*
X198331200Y-108515475D02*
X198378819Y-108420237D01*
X198378819Y-108420237D02*
X198378819Y-108229761D01*
X198378819Y-108229761D02*
X198331200Y-108134523D01*
X198331200Y-108134523D02*
X198283580Y-108086904D01*
X198283580Y-108086904D02*
X198188342Y-108039285D01*
X198188342Y-108039285D02*
X197997866Y-108039285D01*
X197997866Y-108039285D02*
X197902628Y-108086904D01*
X197902628Y-108086904D02*
X197855009Y-108134523D01*
X197855009Y-108134523D02*
X197807390Y-108229761D01*
X204079819Y-104478333D02*
X204794104Y-104478333D01*
X204794104Y-104478333D02*
X204936961Y-104525952D01*
X204936961Y-104525952D02*
X205032200Y-104621190D01*
X205032200Y-104621190D02*
X205079819Y-104764047D01*
X205079819Y-104764047D02*
X205079819Y-104859285D01*
X204508390Y-103859285D02*
X204460771Y-103954523D01*
X204460771Y-103954523D02*
X204413152Y-104002142D01*
X204413152Y-104002142D02*
X204317914Y-104049761D01*
X204317914Y-104049761D02*
X204270295Y-104049761D01*
X204270295Y-104049761D02*
X204175057Y-104002142D01*
X204175057Y-104002142D02*
X204127438Y-103954523D01*
X204127438Y-103954523D02*
X204079819Y-103859285D01*
X204079819Y-103859285D02*
X204079819Y-103668809D01*
X204079819Y-103668809D02*
X204127438Y-103573571D01*
X204127438Y-103573571D02*
X204175057Y-103525952D01*
X204175057Y-103525952D02*
X204270295Y-103478333D01*
X204270295Y-103478333D02*
X204317914Y-103478333D01*
X204317914Y-103478333D02*
X204413152Y-103525952D01*
X204413152Y-103525952D02*
X204460771Y-103573571D01*
X204460771Y-103573571D02*
X204508390Y-103668809D01*
X204508390Y-103668809D02*
X204508390Y-103859285D01*
X204508390Y-103859285D02*
X204556009Y-103954523D01*
X204556009Y-103954523D02*
X204603628Y-104002142D01*
X204603628Y-104002142D02*
X204698866Y-104049761D01*
X204698866Y-104049761D02*
X204889342Y-104049761D01*
X204889342Y-104049761D02*
X204984580Y-104002142D01*
X204984580Y-104002142D02*
X205032200Y-103954523D01*
X205032200Y-103954523D02*
X205079819Y-103859285D01*
X205079819Y-103859285D02*
X205079819Y-103668809D01*
X205079819Y-103668809D02*
X205032200Y-103573571D01*
X205032200Y-103573571D02*
X204984580Y-103525952D01*
X204984580Y-103525952D02*
X204889342Y-103478333D01*
X204889342Y-103478333D02*
X204698866Y-103478333D01*
X204698866Y-103478333D02*
X204603628Y-103525952D01*
X204603628Y-103525952D02*
X204556009Y-103573571D01*
X204556009Y-103573571D02*
X204508390Y-103668809D01*
X201654819Y-79661904D02*
X201654819Y-79090476D01*
X202654819Y-79376190D02*
X201654819Y-79376190D01*
X202654819Y-78757142D02*
X201654819Y-78757142D01*
X201654819Y-78757142D02*
X201654819Y-78376190D01*
X201654819Y-78376190D02*
X201702438Y-78280952D01*
X201702438Y-78280952D02*
X201750057Y-78233333D01*
X201750057Y-78233333D02*
X201845295Y-78185714D01*
X201845295Y-78185714D02*
X201988152Y-78185714D01*
X201988152Y-78185714D02*
X202083390Y-78233333D01*
X202083390Y-78233333D02*
X202131009Y-78280952D01*
X202131009Y-78280952D02*
X202178628Y-78376190D01*
X202178628Y-78376190D02*
X202178628Y-78757142D01*
X201750057Y-77804761D02*
X201702438Y-77757142D01*
X201702438Y-77757142D02*
X201654819Y-77661904D01*
X201654819Y-77661904D02*
X201654819Y-77423809D01*
X201654819Y-77423809D02*
X201702438Y-77328571D01*
X201702438Y-77328571D02*
X201750057Y-77280952D01*
X201750057Y-77280952D02*
X201845295Y-77233333D01*
X201845295Y-77233333D02*
X201940533Y-77233333D01*
X201940533Y-77233333D02*
X202083390Y-77280952D01*
X202083390Y-77280952D02*
X202654819Y-77852380D01*
X202654819Y-77852380D02*
X202654819Y-77233333D01*
X208004819Y-82234523D02*
X208719104Y-82234523D01*
X208719104Y-82234523D02*
X208861961Y-82282142D01*
X208861961Y-82282142D02*
X208957200Y-82377380D01*
X208957200Y-82377380D02*
X209004819Y-82520237D01*
X209004819Y-82520237D02*
X209004819Y-82615475D01*
X209004819Y-81234523D02*
X209004819Y-81805951D01*
X209004819Y-81520237D02*
X208004819Y-81520237D01*
X208004819Y-81520237D02*
X208147676Y-81615475D01*
X208147676Y-81615475D02*
X208242914Y-81710713D01*
X208242914Y-81710713D02*
X208290533Y-81805951D01*
X208100057Y-80853570D02*
X208052438Y-80805951D01*
X208052438Y-80805951D02*
X208004819Y-80710713D01*
X208004819Y-80710713D02*
X208004819Y-80472618D01*
X208004819Y-80472618D02*
X208052438Y-80377380D01*
X208052438Y-80377380D02*
X208100057Y-80329761D01*
X208100057Y-80329761D02*
X208195295Y-80282142D01*
X208195295Y-80282142D02*
X208290533Y-80282142D01*
X208290533Y-80282142D02*
X208433390Y-80329761D01*
X208433390Y-80329761D02*
X209004819Y-80901189D01*
X209004819Y-80901189D02*
X209004819Y-80282142D01*
X165524580Y-111651666D02*
X165572200Y-111699285D01*
X165572200Y-111699285D02*
X165619819Y-111842142D01*
X165619819Y-111842142D02*
X165619819Y-111937380D01*
X165619819Y-111937380D02*
X165572200Y-112080237D01*
X165572200Y-112080237D02*
X165476961Y-112175475D01*
X165476961Y-112175475D02*
X165381723Y-112223094D01*
X165381723Y-112223094D02*
X165191247Y-112270713D01*
X165191247Y-112270713D02*
X165048390Y-112270713D01*
X165048390Y-112270713D02*
X164857914Y-112223094D01*
X164857914Y-112223094D02*
X164762676Y-112175475D01*
X164762676Y-112175475D02*
X164667438Y-112080237D01*
X164667438Y-112080237D02*
X164619819Y-111937380D01*
X164619819Y-111937380D02*
X164619819Y-111842142D01*
X164619819Y-111842142D02*
X164667438Y-111699285D01*
X164667438Y-111699285D02*
X164715057Y-111651666D01*
X165619819Y-110699285D02*
X165619819Y-111270713D01*
X165619819Y-110984999D02*
X164619819Y-110984999D01*
X164619819Y-110984999D02*
X164762676Y-111080237D01*
X164762676Y-111080237D02*
X164857914Y-111175475D01*
X164857914Y-111175475D02*
X164905533Y-111270713D01*
X206579819Y-79611904D02*
X206579819Y-79040476D01*
X207579819Y-79326190D02*
X206579819Y-79326190D01*
X207579819Y-78707142D02*
X206579819Y-78707142D01*
X206579819Y-78707142D02*
X206579819Y-78326190D01*
X206579819Y-78326190D02*
X206627438Y-78230952D01*
X206627438Y-78230952D02*
X206675057Y-78183333D01*
X206675057Y-78183333D02*
X206770295Y-78135714D01*
X206770295Y-78135714D02*
X206913152Y-78135714D01*
X206913152Y-78135714D02*
X207008390Y-78183333D01*
X207008390Y-78183333D02*
X207056009Y-78230952D01*
X207056009Y-78230952D02*
X207103628Y-78326190D01*
X207103628Y-78326190D02*
X207103628Y-78707142D01*
X207579819Y-77183333D02*
X207579819Y-77754761D01*
X207579819Y-77469047D02*
X206579819Y-77469047D01*
X206579819Y-77469047D02*
X206722676Y-77564285D01*
X206722676Y-77564285D02*
X206817914Y-77659523D01*
X206817914Y-77659523D02*
X206865533Y-77754761D01*
X199909580Y-109042857D02*
X199957200Y-109090476D01*
X199957200Y-109090476D02*
X200004819Y-109233333D01*
X200004819Y-109233333D02*
X200004819Y-109328571D01*
X200004819Y-109328571D02*
X199957200Y-109471428D01*
X199957200Y-109471428D02*
X199861961Y-109566666D01*
X199861961Y-109566666D02*
X199766723Y-109614285D01*
X199766723Y-109614285D02*
X199576247Y-109661904D01*
X199576247Y-109661904D02*
X199433390Y-109661904D01*
X199433390Y-109661904D02*
X199242914Y-109614285D01*
X199242914Y-109614285D02*
X199147676Y-109566666D01*
X199147676Y-109566666D02*
X199052438Y-109471428D01*
X199052438Y-109471428D02*
X199004819Y-109328571D01*
X199004819Y-109328571D02*
X199004819Y-109233333D01*
X199004819Y-109233333D02*
X199052438Y-109090476D01*
X199052438Y-109090476D02*
X199100057Y-109042857D01*
X200004819Y-108090476D02*
X200004819Y-108661904D01*
X200004819Y-108376190D02*
X199004819Y-108376190D01*
X199004819Y-108376190D02*
X199147676Y-108471428D01*
X199147676Y-108471428D02*
X199242914Y-108566666D01*
X199242914Y-108566666D02*
X199290533Y-108661904D01*
X199004819Y-107471428D02*
X199004819Y-107376190D01*
X199004819Y-107376190D02*
X199052438Y-107280952D01*
X199052438Y-107280952D02*
X199100057Y-107233333D01*
X199100057Y-107233333D02*
X199195295Y-107185714D01*
X199195295Y-107185714D02*
X199385771Y-107138095D01*
X199385771Y-107138095D02*
X199623866Y-107138095D01*
X199623866Y-107138095D02*
X199814342Y-107185714D01*
X199814342Y-107185714D02*
X199909580Y-107233333D01*
X199909580Y-107233333D02*
X199957200Y-107280952D01*
X199957200Y-107280952D02*
X200004819Y-107376190D01*
X200004819Y-107376190D02*
X200004819Y-107471428D01*
X200004819Y-107471428D02*
X199957200Y-107566666D01*
X199957200Y-107566666D02*
X199909580Y-107614285D01*
X199909580Y-107614285D02*
X199814342Y-107661904D01*
X199814342Y-107661904D02*
X199623866Y-107709523D01*
X199623866Y-107709523D02*
X199385771Y-107709523D01*
X199385771Y-107709523D02*
X199195295Y-107661904D01*
X199195295Y-107661904D02*
X199100057Y-107614285D01*
X199100057Y-107614285D02*
X199052438Y-107566666D01*
X199052438Y-107566666D02*
X199004819Y-107471428D01*
X189108333Y-117229819D02*
X188775000Y-116753628D01*
X188536905Y-117229819D02*
X188536905Y-116229819D01*
X188536905Y-116229819D02*
X188917857Y-116229819D01*
X188917857Y-116229819D02*
X189013095Y-116277438D01*
X189013095Y-116277438D02*
X189060714Y-116325057D01*
X189060714Y-116325057D02*
X189108333Y-116420295D01*
X189108333Y-116420295D02*
X189108333Y-116563152D01*
X189108333Y-116563152D02*
X189060714Y-116658390D01*
X189060714Y-116658390D02*
X189013095Y-116706009D01*
X189013095Y-116706009D02*
X188917857Y-116753628D01*
X188917857Y-116753628D02*
X188536905Y-116753628D01*
X189965476Y-116229819D02*
X189775000Y-116229819D01*
X189775000Y-116229819D02*
X189679762Y-116277438D01*
X189679762Y-116277438D02*
X189632143Y-116325057D01*
X189632143Y-116325057D02*
X189536905Y-116467914D01*
X189536905Y-116467914D02*
X189489286Y-116658390D01*
X189489286Y-116658390D02*
X189489286Y-117039342D01*
X189489286Y-117039342D02*
X189536905Y-117134580D01*
X189536905Y-117134580D02*
X189584524Y-117182200D01*
X189584524Y-117182200D02*
X189679762Y-117229819D01*
X189679762Y-117229819D02*
X189870238Y-117229819D01*
X189870238Y-117229819D02*
X189965476Y-117182200D01*
X189965476Y-117182200D02*
X190013095Y-117134580D01*
X190013095Y-117134580D02*
X190060714Y-117039342D01*
X190060714Y-117039342D02*
X190060714Y-116801247D01*
X190060714Y-116801247D02*
X190013095Y-116706009D01*
X190013095Y-116706009D02*
X189965476Y-116658390D01*
X189965476Y-116658390D02*
X189870238Y-116610771D01*
X189870238Y-116610771D02*
X189679762Y-116610771D01*
X189679762Y-116610771D02*
X189584524Y-116658390D01*
X189584524Y-116658390D02*
X189536905Y-116706009D01*
X189536905Y-116706009D02*
X189489286Y-116801247D01*
X156404819Y-105308333D02*
X157119104Y-105308333D01*
X157119104Y-105308333D02*
X157261961Y-105355952D01*
X157261961Y-105355952D02*
X157357200Y-105451190D01*
X157357200Y-105451190D02*
X157404819Y-105594047D01*
X157404819Y-105594047D02*
X157404819Y-105689285D01*
X157404819Y-104784523D02*
X157404819Y-104594047D01*
X157404819Y-104594047D02*
X157357200Y-104498809D01*
X157357200Y-104498809D02*
X157309580Y-104451190D01*
X157309580Y-104451190D02*
X157166723Y-104355952D01*
X157166723Y-104355952D02*
X156976247Y-104308333D01*
X156976247Y-104308333D02*
X156595295Y-104308333D01*
X156595295Y-104308333D02*
X156500057Y-104355952D01*
X156500057Y-104355952D02*
X156452438Y-104403571D01*
X156452438Y-104403571D02*
X156404819Y-104498809D01*
X156404819Y-104498809D02*
X156404819Y-104689285D01*
X156404819Y-104689285D02*
X156452438Y-104784523D01*
X156452438Y-104784523D02*
X156500057Y-104832142D01*
X156500057Y-104832142D02*
X156595295Y-104879761D01*
X156595295Y-104879761D02*
X156833390Y-104879761D01*
X156833390Y-104879761D02*
X156928628Y-104832142D01*
X156928628Y-104832142D02*
X156976247Y-104784523D01*
X156976247Y-104784523D02*
X157023866Y-104689285D01*
X157023866Y-104689285D02*
X157023866Y-104498809D01*
X157023866Y-104498809D02*
X156976247Y-104403571D01*
X156976247Y-104403571D02*
X156928628Y-104355952D01*
X156928628Y-104355952D02*
X156833390Y-104308333D01*
X172407142Y-81134580D02*
X172359523Y-81182200D01*
X172359523Y-81182200D02*
X172216666Y-81229819D01*
X172216666Y-81229819D02*
X172121428Y-81229819D01*
X172121428Y-81229819D02*
X171978571Y-81182200D01*
X171978571Y-81182200D02*
X171883333Y-81086961D01*
X171883333Y-81086961D02*
X171835714Y-80991723D01*
X171835714Y-80991723D02*
X171788095Y-80801247D01*
X171788095Y-80801247D02*
X171788095Y-80658390D01*
X171788095Y-80658390D02*
X171835714Y-80467914D01*
X171835714Y-80467914D02*
X171883333Y-80372676D01*
X171883333Y-80372676D02*
X171978571Y-80277438D01*
X171978571Y-80277438D02*
X172121428Y-80229819D01*
X172121428Y-80229819D02*
X172216666Y-80229819D01*
X172216666Y-80229819D02*
X172359523Y-80277438D01*
X172359523Y-80277438D02*
X172407142Y-80325057D01*
X173359523Y-81229819D02*
X172788095Y-81229819D01*
X173073809Y-81229819D02*
X173073809Y-80229819D01*
X173073809Y-80229819D02*
X172978571Y-80372676D01*
X172978571Y-80372676D02*
X172883333Y-80467914D01*
X172883333Y-80467914D02*
X172788095Y-80515533D01*
X174216666Y-80563152D02*
X174216666Y-81229819D01*
X173978571Y-80182200D02*
X173740476Y-80896485D01*
X173740476Y-80896485D02*
X174359523Y-80896485D01*
X207554819Y-113059523D02*
X208269104Y-113059523D01*
X208269104Y-113059523D02*
X208411961Y-113107142D01*
X208411961Y-113107142D02*
X208507200Y-113202380D01*
X208507200Y-113202380D02*
X208554819Y-113345237D01*
X208554819Y-113345237D02*
X208554819Y-113440475D01*
X208554819Y-112059523D02*
X208554819Y-112630951D01*
X208554819Y-112345237D02*
X207554819Y-112345237D01*
X207554819Y-112345237D02*
X207697676Y-112440475D01*
X207697676Y-112440475D02*
X207792914Y-112535713D01*
X207792914Y-112535713D02*
X207840533Y-112630951D01*
X207554819Y-111440475D02*
X207554819Y-111345237D01*
X207554819Y-111345237D02*
X207602438Y-111249999D01*
X207602438Y-111249999D02*
X207650057Y-111202380D01*
X207650057Y-111202380D02*
X207745295Y-111154761D01*
X207745295Y-111154761D02*
X207935771Y-111107142D01*
X207935771Y-111107142D02*
X208173866Y-111107142D01*
X208173866Y-111107142D02*
X208364342Y-111154761D01*
X208364342Y-111154761D02*
X208459580Y-111202380D01*
X208459580Y-111202380D02*
X208507200Y-111249999D01*
X208507200Y-111249999D02*
X208554819Y-111345237D01*
X208554819Y-111345237D02*
X208554819Y-111440475D01*
X208554819Y-111440475D02*
X208507200Y-111535713D01*
X208507200Y-111535713D02*
X208459580Y-111583332D01*
X208459580Y-111583332D02*
X208364342Y-111630951D01*
X208364342Y-111630951D02*
X208173866Y-111678570D01*
X208173866Y-111678570D02*
X207935771Y-111678570D01*
X207935771Y-111678570D02*
X207745295Y-111630951D01*
X207745295Y-111630951D02*
X207650057Y-111583332D01*
X207650057Y-111583332D02*
X207602438Y-111535713D01*
X207602438Y-111535713D02*
X207554819Y-111440475D01*
X210641666Y-112629819D02*
X210641666Y-113344104D01*
X210641666Y-113344104D02*
X210594047Y-113486961D01*
X210594047Y-113486961D02*
X210498809Y-113582200D01*
X210498809Y-113582200D02*
X210355952Y-113629819D01*
X210355952Y-113629819D02*
X210260714Y-113629819D01*
X211641666Y-113629819D02*
X211070238Y-113629819D01*
X211355952Y-113629819D02*
X211355952Y-112629819D01*
X211355952Y-112629819D02*
X211260714Y-112772676D01*
X211260714Y-112772676D02*
X211165476Y-112867914D01*
X211165476Y-112867914D02*
X211070238Y-112915533D01*
X175208333Y-117109580D02*
X175160714Y-117157200D01*
X175160714Y-117157200D02*
X175017857Y-117204819D01*
X175017857Y-117204819D02*
X174922619Y-117204819D01*
X174922619Y-117204819D02*
X174779762Y-117157200D01*
X174779762Y-117157200D02*
X174684524Y-117061961D01*
X174684524Y-117061961D02*
X174636905Y-116966723D01*
X174636905Y-116966723D02*
X174589286Y-116776247D01*
X174589286Y-116776247D02*
X174589286Y-116633390D01*
X174589286Y-116633390D02*
X174636905Y-116442914D01*
X174636905Y-116442914D02*
X174684524Y-116347676D01*
X174684524Y-116347676D02*
X174779762Y-116252438D01*
X174779762Y-116252438D02*
X174922619Y-116204819D01*
X174922619Y-116204819D02*
X175017857Y-116204819D01*
X175017857Y-116204819D02*
X175160714Y-116252438D01*
X175160714Y-116252438D02*
X175208333Y-116300057D01*
X175541667Y-116204819D02*
X176160714Y-116204819D01*
X176160714Y-116204819D02*
X175827381Y-116585771D01*
X175827381Y-116585771D02*
X175970238Y-116585771D01*
X175970238Y-116585771D02*
X176065476Y-116633390D01*
X176065476Y-116633390D02*
X176113095Y-116681009D01*
X176113095Y-116681009D02*
X176160714Y-116776247D01*
X176160714Y-116776247D02*
X176160714Y-117014342D01*
X176160714Y-117014342D02*
X176113095Y-117109580D01*
X176113095Y-117109580D02*
X176065476Y-117157200D01*
X176065476Y-117157200D02*
X175970238Y-117204819D01*
X175970238Y-117204819D02*
X175684524Y-117204819D01*
X175684524Y-117204819D02*
X175589286Y-117157200D01*
X175589286Y-117157200D02*
X175541667Y-117109580D01*
X184184580Y-122492857D02*
X184232200Y-122540476D01*
X184232200Y-122540476D02*
X184279819Y-122683333D01*
X184279819Y-122683333D02*
X184279819Y-122778571D01*
X184279819Y-122778571D02*
X184232200Y-122921428D01*
X184232200Y-122921428D02*
X184136961Y-123016666D01*
X184136961Y-123016666D02*
X184041723Y-123064285D01*
X184041723Y-123064285D02*
X183851247Y-123111904D01*
X183851247Y-123111904D02*
X183708390Y-123111904D01*
X183708390Y-123111904D02*
X183517914Y-123064285D01*
X183517914Y-123064285D02*
X183422676Y-123016666D01*
X183422676Y-123016666D02*
X183327438Y-122921428D01*
X183327438Y-122921428D02*
X183279819Y-122778571D01*
X183279819Y-122778571D02*
X183279819Y-122683333D01*
X183279819Y-122683333D02*
X183327438Y-122540476D01*
X183327438Y-122540476D02*
X183375057Y-122492857D01*
X184279819Y-121540476D02*
X184279819Y-122111904D01*
X184279819Y-121826190D02*
X183279819Y-121826190D01*
X183279819Y-121826190D02*
X183422676Y-121921428D01*
X183422676Y-121921428D02*
X183517914Y-122016666D01*
X183517914Y-122016666D02*
X183565533Y-122111904D01*
X183279819Y-121207142D02*
X183279819Y-120540476D01*
X183279819Y-120540476D02*
X184279819Y-120969047D01*
X190832142Y-124509580D02*
X190784523Y-124557200D01*
X190784523Y-124557200D02*
X190641666Y-124604819D01*
X190641666Y-124604819D02*
X190546428Y-124604819D01*
X190546428Y-124604819D02*
X190403571Y-124557200D01*
X190403571Y-124557200D02*
X190308333Y-124461961D01*
X190308333Y-124461961D02*
X190260714Y-124366723D01*
X190260714Y-124366723D02*
X190213095Y-124176247D01*
X190213095Y-124176247D02*
X190213095Y-124033390D01*
X190213095Y-124033390D02*
X190260714Y-123842914D01*
X190260714Y-123842914D02*
X190308333Y-123747676D01*
X190308333Y-123747676D02*
X190403571Y-123652438D01*
X190403571Y-123652438D02*
X190546428Y-123604819D01*
X190546428Y-123604819D02*
X190641666Y-123604819D01*
X190641666Y-123604819D02*
X190784523Y-123652438D01*
X190784523Y-123652438D02*
X190832142Y-123700057D01*
X191784523Y-124604819D02*
X191213095Y-124604819D01*
X191498809Y-124604819D02*
X191498809Y-123604819D01*
X191498809Y-123604819D02*
X191403571Y-123747676D01*
X191403571Y-123747676D02*
X191308333Y-123842914D01*
X191308333Y-123842914D02*
X191213095Y-123890533D01*
X192355952Y-124033390D02*
X192260714Y-123985771D01*
X192260714Y-123985771D02*
X192213095Y-123938152D01*
X192213095Y-123938152D02*
X192165476Y-123842914D01*
X192165476Y-123842914D02*
X192165476Y-123795295D01*
X192165476Y-123795295D02*
X192213095Y-123700057D01*
X192213095Y-123700057D02*
X192260714Y-123652438D01*
X192260714Y-123652438D02*
X192355952Y-123604819D01*
X192355952Y-123604819D02*
X192546428Y-123604819D01*
X192546428Y-123604819D02*
X192641666Y-123652438D01*
X192641666Y-123652438D02*
X192689285Y-123700057D01*
X192689285Y-123700057D02*
X192736904Y-123795295D01*
X192736904Y-123795295D02*
X192736904Y-123842914D01*
X192736904Y-123842914D02*
X192689285Y-123938152D01*
X192689285Y-123938152D02*
X192641666Y-123985771D01*
X192641666Y-123985771D02*
X192546428Y-124033390D01*
X192546428Y-124033390D02*
X192355952Y-124033390D01*
X192355952Y-124033390D02*
X192260714Y-124081009D01*
X192260714Y-124081009D02*
X192213095Y-124128628D01*
X192213095Y-124128628D02*
X192165476Y-124223866D01*
X192165476Y-124223866D02*
X192165476Y-124414342D01*
X192165476Y-124414342D02*
X192213095Y-124509580D01*
X192213095Y-124509580D02*
X192260714Y-124557200D01*
X192260714Y-124557200D02*
X192355952Y-124604819D01*
X192355952Y-124604819D02*
X192546428Y-124604819D01*
X192546428Y-124604819D02*
X192641666Y-124557200D01*
X192641666Y-124557200D02*
X192689285Y-124509580D01*
X192689285Y-124509580D02*
X192736904Y-124414342D01*
X192736904Y-124414342D02*
X192736904Y-124223866D01*
X192736904Y-124223866D02*
X192689285Y-124128628D01*
X192689285Y-124128628D02*
X192641666Y-124081009D01*
X192641666Y-124081009D02*
X192546428Y-124033390D01*
X181709580Y-127042857D02*
X181757200Y-127090476D01*
X181757200Y-127090476D02*
X181804819Y-127233333D01*
X181804819Y-127233333D02*
X181804819Y-127328571D01*
X181804819Y-127328571D02*
X181757200Y-127471428D01*
X181757200Y-127471428D02*
X181661961Y-127566666D01*
X181661961Y-127566666D02*
X181566723Y-127614285D01*
X181566723Y-127614285D02*
X181376247Y-127661904D01*
X181376247Y-127661904D02*
X181233390Y-127661904D01*
X181233390Y-127661904D02*
X181042914Y-127614285D01*
X181042914Y-127614285D02*
X180947676Y-127566666D01*
X180947676Y-127566666D02*
X180852438Y-127471428D01*
X180852438Y-127471428D02*
X180804819Y-127328571D01*
X180804819Y-127328571D02*
X180804819Y-127233333D01*
X180804819Y-127233333D02*
X180852438Y-127090476D01*
X180852438Y-127090476D02*
X180900057Y-127042857D01*
X181804819Y-126090476D02*
X181804819Y-126661904D01*
X181804819Y-126376190D02*
X180804819Y-126376190D01*
X180804819Y-126376190D02*
X180947676Y-126471428D01*
X180947676Y-126471428D02*
X181042914Y-126566666D01*
X181042914Y-126566666D02*
X181090533Y-126661904D01*
X180900057Y-125709523D02*
X180852438Y-125661904D01*
X180852438Y-125661904D02*
X180804819Y-125566666D01*
X180804819Y-125566666D02*
X180804819Y-125328571D01*
X180804819Y-125328571D02*
X180852438Y-125233333D01*
X180852438Y-125233333D02*
X180900057Y-125185714D01*
X180900057Y-125185714D02*
X180995295Y-125138095D01*
X180995295Y-125138095D02*
X181090533Y-125138095D01*
X181090533Y-125138095D02*
X181233390Y-125185714D01*
X181233390Y-125185714D02*
X181804819Y-125757142D01*
X181804819Y-125757142D02*
X181804819Y-125138095D01*
X192732142Y-119309580D02*
X192684523Y-119357200D01*
X192684523Y-119357200D02*
X192541666Y-119404819D01*
X192541666Y-119404819D02*
X192446428Y-119404819D01*
X192446428Y-119404819D02*
X192303571Y-119357200D01*
X192303571Y-119357200D02*
X192208333Y-119261961D01*
X192208333Y-119261961D02*
X192160714Y-119166723D01*
X192160714Y-119166723D02*
X192113095Y-118976247D01*
X192113095Y-118976247D02*
X192113095Y-118833390D01*
X192113095Y-118833390D02*
X192160714Y-118642914D01*
X192160714Y-118642914D02*
X192208333Y-118547676D01*
X192208333Y-118547676D02*
X192303571Y-118452438D01*
X192303571Y-118452438D02*
X192446428Y-118404819D01*
X192446428Y-118404819D02*
X192541666Y-118404819D01*
X192541666Y-118404819D02*
X192684523Y-118452438D01*
X192684523Y-118452438D02*
X192732142Y-118500057D01*
X193684523Y-119404819D02*
X193113095Y-119404819D01*
X193398809Y-119404819D02*
X193398809Y-118404819D01*
X193398809Y-118404819D02*
X193303571Y-118547676D01*
X193303571Y-118547676D02*
X193208333Y-118642914D01*
X193208333Y-118642914D02*
X193113095Y-118690533D01*
X194541666Y-118404819D02*
X194351190Y-118404819D01*
X194351190Y-118404819D02*
X194255952Y-118452438D01*
X194255952Y-118452438D02*
X194208333Y-118500057D01*
X194208333Y-118500057D02*
X194113095Y-118642914D01*
X194113095Y-118642914D02*
X194065476Y-118833390D01*
X194065476Y-118833390D02*
X194065476Y-119214342D01*
X194065476Y-119214342D02*
X194113095Y-119309580D01*
X194113095Y-119309580D02*
X194160714Y-119357200D01*
X194160714Y-119357200D02*
X194255952Y-119404819D01*
X194255952Y-119404819D02*
X194446428Y-119404819D01*
X194446428Y-119404819D02*
X194541666Y-119357200D01*
X194541666Y-119357200D02*
X194589285Y-119309580D01*
X194589285Y-119309580D02*
X194636904Y-119214342D01*
X194636904Y-119214342D02*
X194636904Y-118976247D01*
X194636904Y-118976247D02*
X194589285Y-118881009D01*
X194589285Y-118881009D02*
X194541666Y-118833390D01*
X194541666Y-118833390D02*
X194446428Y-118785771D01*
X194446428Y-118785771D02*
X194255952Y-118785771D01*
X194255952Y-118785771D02*
X194160714Y-118833390D01*
X194160714Y-118833390D02*
X194113095Y-118881009D01*
X194113095Y-118881009D02*
X194065476Y-118976247D01*
%TO.C,R11*%
D12*
X165461359Y-105270000D02*
X165768641Y-105270000D01*
X165461359Y-106030000D02*
X165768641Y-106030000D01*
%TO.C,R4*%
X202597500Y-106037742D02*
X202597500Y-106512258D01*
X201552500Y-106037742D02*
X201552500Y-106512258D01*
%TO.C,R12*%
X195320000Y-116278641D02*
X195320000Y-115971359D01*
X196080000Y-116278641D02*
X196080000Y-115971359D01*
D13*
%TO.C,Logo6*%
X1850267Y-953621D02*
X1869087Y-955860D01*
X1870453Y-956906D01*
X1864716Y-969331D01*
X1848421Y-1001553D01*
X1822933Y-1050944D01*
X1789623Y-1114874D01*
X1749858Y-1190716D01*
X1705006Y-1275841D01*
X1667366Y-1347000D01*
X1619702Y-1437432D01*
X1576347Y-1520594D01*
X1538627Y-1593872D01*
X1507869Y-1654651D01*
X1485397Y-1700318D01*
X1472537Y-1728257D01*
X1470042Y-1736072D01*
X1483294Y-1734146D01*
X1517276Y-1725584D01*
X1568488Y-1711370D01*
X1633428Y-1692492D01*
X1708599Y-1669933D01*
X1750805Y-1657002D01*
X1829921Y-1632906D01*
X1900625Y-1611961D01*
X1959421Y-1595155D01*
X2002811Y-1583476D01*
X2027297Y-1577911D01*
X2031403Y-1577767D01*
X2027739Y-1590282D01*
X2014547Y-1622685D01*
X1993181Y-1671913D01*
X1964991Y-1734900D01*
X1931332Y-1808582D01*
X1895200Y-1886382D01*
X1856214Y-1969804D01*
X1819984Y-2047542D01*
X1788157Y-2116045D01*
X1762379Y-2171763D01*
X1744296Y-2211146D01*
X1736075Y-2229433D01*
X1718749Y-2269467D01*
X1782670Y-2252605D01*
X1819205Y-2243495D01*
X1835695Y-2241769D01*
X1836517Y-2247837D01*
X1830051Y-2257021D01*
X1813299Y-2277798D01*
X1786646Y-2310029D01*
X1753960Y-2349131D01*
X1719112Y-2390520D01*
X1685969Y-2429611D01*
X1658402Y-2461823D01*
X1640279Y-2482569D01*
X1635205Y-2487850D01*
X1632366Y-2476194D01*
X1626427Y-2444752D01*
X1618355Y-2398808D01*
X1612049Y-2361423D01*
X1600689Y-2292254D01*
X1593923Y-2245147D01*
X1592263Y-2217094D01*
X1596221Y-2205088D01*
X1606309Y-2206120D01*
X1623040Y-2217182D01*
X1635058Y-2226300D01*
X1679064Y-2259865D01*
X1697909Y-2192882D01*
X1721609Y-2107740D01*
X1744524Y-2023780D01*
X1765724Y-1944565D01*
X1784285Y-1873663D01*
X1799277Y-1814639D01*
X1809776Y-1771059D01*
X1814852Y-1746487D01*
X1815029Y-1742392D01*
X1802342Y-1745081D01*
X1769144Y-1754928D01*
X1718935Y-1770816D01*
X1655219Y-1791627D01*
X1581496Y-1816244D01*
X1547056Y-1827903D01*
X1470010Y-1853800D01*
X1401377Y-1876310D01*
X1344675Y-1894326D01*
X1303417Y-1906742D01*
X1281120Y-1912451D01*
X1278229Y-1912559D01*
X1281784Y-1900114D01*
X1294032Y-1866693D01*
X1313987Y-1814803D01*
X1340658Y-1746948D01*
X1373060Y-1665636D01*
X1410202Y-1573373D01*
X1451097Y-1472665D01*
X1467491Y-1432521D01*
X1661769Y-957500D01*
X1766111Y-953811D01*
X1813968Y-952880D01*
X1850267Y-953621D01*
G36*
X1850267Y-953621D02*
G01*
X1869087Y-955860D01*
X1870453Y-956906D01*
X1864716Y-969331D01*
X1848421Y-1001553D01*
X1822933Y-1050944D01*
X1789623Y-1114874D01*
X1749858Y-1190716D01*
X1705006Y-1275841D01*
X1667366Y-1347000D01*
X1619702Y-1437432D01*
X1576347Y-1520594D01*
X1538627Y-1593872D01*
X1507869Y-1654651D01*
X1485397Y-1700318D01*
X1472537Y-1728257D01*
X1470042Y-1736072D01*
X1483294Y-1734146D01*
X1517276Y-1725584D01*
X1568488Y-1711370D01*
X1633428Y-1692492D01*
X1708599Y-1669933D01*
X1750805Y-1657002D01*
X1829921Y-1632906D01*
X1900625Y-1611961D01*
X1959421Y-1595155D01*
X2002811Y-1583476D01*
X2027297Y-1577911D01*
X2031403Y-1577767D01*
X2027739Y-1590282D01*
X2014547Y-1622685D01*
X1993181Y-1671913D01*
X1964991Y-1734900D01*
X1931332Y-1808582D01*
X1895200Y-1886382D01*
X1856214Y-1969804D01*
X1819984Y-2047542D01*
X1788157Y-2116045D01*
X1762379Y-2171763D01*
X1744296Y-2211146D01*
X1736075Y-2229433D01*
X1718749Y-2269467D01*
X1782670Y-2252605D01*
X1819205Y-2243495D01*
X1835695Y-2241769D01*
X1836517Y-2247837D01*
X1830051Y-2257021D01*
X1813299Y-2277798D01*
X1786646Y-2310029D01*
X1753960Y-2349131D01*
X1719112Y-2390520D01*
X1685969Y-2429611D01*
X1658402Y-2461823D01*
X1640279Y-2482569D01*
X1635205Y-2487850D01*
X1632366Y-2476194D01*
X1626427Y-2444752D01*
X1618355Y-2398808D01*
X1612049Y-2361423D01*
X1600689Y-2292254D01*
X1593923Y-2245147D01*
X1592263Y-2217094D01*
X1596221Y-2205088D01*
X1606309Y-2206120D01*
X1623040Y-2217182D01*
X1635058Y-2226300D01*
X1679064Y-2259865D01*
X1697909Y-2192882D01*
X1721609Y-2107740D01*
X1744524Y-2023780D01*
X1765724Y-1944565D01*
X1784285Y-1873663D01*
X1799277Y-1814639D01*
X1809776Y-1771059D01*
X1814852Y-1746487D01*
X1815029Y-1742392D01*
X1802342Y-1745081D01*
X1769144Y-1754928D01*
X1718935Y-1770816D01*
X1655219Y-1791627D01*
X1581496Y-1816244D01*
X1547056Y-1827903D01*
X1470010Y-1853800D01*
X1401377Y-1876310D01*
X1344675Y-1894326D01*
X1303417Y-1906742D01*
X1281120Y-1912451D01*
X1278229Y-1912559D01*
X1281784Y-1900114D01*
X1294032Y-1866693D01*
X1313987Y-1814803D01*
X1340658Y-1746948D01*
X1373060Y-1665636D01*
X1410202Y-1573373D01*
X1451097Y-1472665D01*
X1467491Y-1432521D01*
X1661769Y-957500D01*
X1766111Y-953811D01*
X1813968Y-952880D01*
X1850267Y-953621D01*
G37*
X1798034Y-7517D02*
X1827418Y-18593D01*
X1856992Y-43510D01*
X1862899Y-49450D01*
X1873305Y-64107D01*
X1895877Y-98871D01*
X1929624Y-152119D01*
X1973557Y-222230D01*
X2026683Y-307582D01*
X2088014Y-406554D01*
X2156558Y-517524D01*
X2231325Y-638871D01*
X2311325Y-768974D01*
X2395568Y-906210D01*
X2483062Y-1048959D01*
X2572818Y-1195599D01*
X2663845Y-1344508D01*
X2755152Y-1494065D01*
X2845750Y-1642648D01*
X2934647Y-1788637D01*
X3020854Y-1930409D01*
X3103379Y-2066343D01*
X3181233Y-2194817D01*
X3253425Y-2314211D01*
X3318965Y-2422902D01*
X3376862Y-2519269D01*
X3426125Y-2601691D01*
X3465765Y-2668545D01*
X3494791Y-2718211D01*
X3512212Y-2749068D01*
X3514493Y-2753370D01*
X3532975Y-2809923D01*
X3528942Y-2860378D01*
X3503752Y-2901086D01*
X3458762Y-2928401D01*
X3448053Y-2931785D01*
X3427034Y-2933997D01*
X3380660Y-2936007D01*
X3308976Y-2937815D01*
X3212026Y-2939421D01*
X3089856Y-2940824D01*
X2942509Y-2942024D01*
X2770031Y-2943020D01*
X2572465Y-2943813D01*
X2349857Y-2944401D01*
X2102250Y-2944786D01*
X1829691Y-2944965D01*
X1739301Y-2944979D01*
X77799Y-2945050D01*
X39092Y-2906343D01*
X14230Y-2877537D01*
X5000Y-2850774D01*
X6564Y-2814268D01*
X9956Y-2801920D01*
X18507Y-2781615D01*
X32805Y-2752340D01*
X53438Y-2713077D01*
X80995Y-2662811D01*
X116063Y-2600526D01*
X118353Y-2596530D01*
X524253Y-2596530D01*
X536604Y-2598070D01*
X572264Y-2599466D01*
X629143Y-2600720D01*
X705150Y-2601833D01*
X798194Y-2602805D01*
X906186Y-2603638D01*
X1027033Y-2604331D01*
X1158647Y-2604888D01*
X1298935Y-2605307D01*
X1445808Y-2605590D01*
X1597176Y-2605738D01*
X1750947Y-2605753D01*
X1905031Y-2605634D01*
X2057338Y-2605382D01*
X2205777Y-2605000D01*
X2348257Y-2604487D01*
X2482688Y-2603844D01*
X2606980Y-2603073D01*
X2719041Y-2602174D01*
X2816782Y-2601148D01*
X2898111Y-2599997D01*
X2960939Y-2598720D01*
X3003174Y-2597319D01*
X3022727Y-2595796D01*
X3023785Y-2595437D01*
X3018974Y-2583528D01*
X3002051Y-2551725D01*
X2974100Y-2501838D01*
X2936203Y-2435676D01*
X2889444Y-2355049D01*
X2834906Y-2261767D01*
X2773674Y-2157639D01*
X2706830Y-2044475D01*
X2635458Y-1924084D01*
X2560641Y-1798276D01*
X2483464Y-1668861D01*
X2405008Y-1537647D01*
X2326358Y-1406445D01*
X2248597Y-1277065D01*
X2172809Y-1151315D01*
X2100077Y-1031006D01*
X2031485Y-917946D01*
X1968115Y-813946D01*
X1911052Y-720815D01*
X1861379Y-640363D01*
X1820179Y-574399D01*
X1788535Y-524733D01*
X1767532Y-493175D01*
X1758253Y-481533D01*
X1758109Y-481506D01*
X1749913Y-492270D01*
X1730113Y-523211D01*
X1699779Y-572497D01*
X1659982Y-638292D01*
X1611791Y-718764D01*
X1556276Y-812077D01*
X1494507Y-916398D01*
X1427555Y-1029893D01*
X1356488Y-1150727D01*
X1282378Y-1277066D01*
X1206293Y-1407077D01*
X1129305Y-1538925D01*
X1052482Y-1670777D01*
X976896Y-1800797D01*
X903615Y-1927152D01*
X833710Y-2048009D01*
X768251Y-2161532D01*
X708308Y-2265887D01*
X654950Y-2359242D01*
X609249Y-2439760D01*
X572273Y-2505610D01*
X545092Y-2554955D01*
X528778Y-2585963D01*
X524253Y-2596530D01*
X118353Y-2596530D01*
X159231Y-2525207D01*
X211086Y-2435837D01*
X272216Y-2331401D01*
X343209Y-2210884D01*
X424654Y-2073269D01*
X517138Y-1917540D01*
X621250Y-1742683D01*
X737577Y-1547680D01*
X809411Y-1427400D01*
X910911Y-1257733D01*
X1009366Y-1093603D01*
X1103934Y-936391D01*
X1193772Y-787478D01*
X1278037Y-648247D01*
X1355887Y-520080D01*
X1426480Y-404357D01*
X1488973Y-302460D01*
X1542524Y-215772D01*
X1586290Y-145673D01*
X1619429Y-93546D01*
X1641099Y-60773D01*
X1649578Y-49450D01*
X1680296Y-21692D01*
X1708716Y-8653D01*
X1747491Y-5052D01*
X1756152Y-5000D01*
X1798034Y-7517D01*
G36*
X1798034Y-7517D02*
G01*
X1827418Y-18593D01*
X1856992Y-43510D01*
X1862899Y-49450D01*
X1873305Y-64107D01*
X1895877Y-98871D01*
X1929624Y-152119D01*
X1973557Y-222230D01*
X2026683Y-307582D01*
X2088014Y-406554D01*
X2156558Y-517524D01*
X2231325Y-638871D01*
X2311325Y-768974D01*
X2395568Y-906210D01*
X2483062Y-1048959D01*
X2572818Y-1195599D01*
X2663845Y-1344508D01*
X2755152Y-1494065D01*
X2845750Y-1642648D01*
X2934647Y-1788637D01*
X3020854Y-1930409D01*
X3103379Y-2066343D01*
X3181233Y-2194817D01*
X3253425Y-2314211D01*
X3318965Y-2422902D01*
X3376862Y-2519269D01*
X3426125Y-2601691D01*
X3465765Y-2668545D01*
X3494791Y-2718211D01*
X3512212Y-2749068D01*
X3514493Y-2753370D01*
X3532975Y-2809923D01*
X3528942Y-2860378D01*
X3503752Y-2901086D01*
X3458762Y-2928401D01*
X3448053Y-2931785D01*
X3427034Y-2933997D01*
X3380660Y-2936007D01*
X3308976Y-2937815D01*
X3212026Y-2939421D01*
X3089856Y-2940824D01*
X2942509Y-2942024D01*
X2770031Y-2943020D01*
X2572465Y-2943813D01*
X2349857Y-2944401D01*
X2102250Y-2944786D01*
X1829691Y-2944965D01*
X1739301Y-2944979D01*
X77799Y-2945050D01*
X39092Y-2906343D01*
X14230Y-2877537D01*
X5000Y-2850774D01*
X6564Y-2814268D01*
X9956Y-2801920D01*
X18507Y-2781615D01*
X32805Y-2752340D01*
X53438Y-2713077D01*
X80995Y-2662811D01*
X116063Y-2600526D01*
X118353Y-2596530D01*
X524253Y-2596530D01*
X536604Y-2598070D01*
X572264Y-2599466D01*
X629143Y-2600720D01*
X705150Y-2601833D01*
X798194Y-2602805D01*
X906186Y-2603638D01*
X1027033Y-2604331D01*
X1158647Y-2604888D01*
X1298935Y-2605307D01*
X1445808Y-2605590D01*
X1597176Y-2605738D01*
X1750947Y-2605753D01*
X1905031Y-2605634D01*
X2057338Y-2605382D01*
X2205777Y-2605000D01*
X2348257Y-2604487D01*
X2482688Y-2603844D01*
X2606980Y-2603073D01*
X2719041Y-2602174D01*
X2816782Y-2601148D01*
X2898111Y-2599997D01*
X2960939Y-2598720D01*
X3003174Y-2597319D01*
X3022727Y-2595796D01*
X3023785Y-2595437D01*
X3018974Y-2583528D01*
X3002051Y-2551725D01*
X2974100Y-2501838D01*
X2936203Y-2435676D01*
X2889444Y-2355049D01*
X2834906Y-2261767D01*
X2773674Y-2157639D01*
X2706830Y-2044475D01*
X2635458Y-1924084D01*
X2560641Y-1798276D01*
X2483464Y-1668861D01*
X2405008Y-1537647D01*
X2326358Y-1406445D01*
X2248597Y-1277065D01*
X2172809Y-1151315D01*
X2100077Y-1031006D01*
X2031485Y-917946D01*
X1968115Y-813946D01*
X1911052Y-720815D01*
X1861379Y-640363D01*
X1820179Y-574399D01*
X1788535Y-524733D01*
X1767532Y-493175D01*
X1758253Y-481533D01*
X1758109Y-481506D01*
X1749913Y-492270D01*
X1730113Y-523211D01*
X1699779Y-572497D01*
X1659982Y-638292D01*
X1611791Y-718764D01*
X1556276Y-812077D01*
X1494507Y-916398D01*
X1427555Y-1029893D01*
X1356488Y-1150727D01*
X1282378Y-1277066D01*
X1206293Y-1407077D01*
X1129305Y-1538925D01*
X1052482Y-1670777D01*
X976896Y-1800797D01*
X903615Y-1927152D01*
X833710Y-2048009D01*
X768251Y-2161532D01*
X708308Y-2265887D01*
X654950Y-2359242D01*
X609249Y-2439760D01*
X572273Y-2505610D01*
X545092Y-2554955D01*
X528778Y-2585963D01*
X524253Y-2596530D01*
X118353Y-2596530D01*
X159231Y-2525207D01*
X211086Y-2435837D01*
X272216Y-2331401D01*
X343209Y-2210884D01*
X424654Y-2073269D01*
X517138Y-1917540D01*
X621250Y-1742683D01*
X737577Y-1547680D01*
X809411Y-1427400D01*
X910911Y-1257733D01*
X1009366Y-1093603D01*
X1103934Y-936391D01*
X1193772Y-787478D01*
X1278037Y-648247D01*
X1355887Y-520080D01*
X1426480Y-404357D01*
X1488973Y-302460D01*
X1542524Y-215772D01*
X1586290Y-145673D01*
X1619429Y-93546D01*
X1641099Y-60773D01*
X1649578Y-49450D01*
X1680296Y-21692D01*
X1708716Y-8653D01*
X1747491Y-5052D01*
X1756152Y-5000D01*
X1798034Y-7517D01*
G37*
%TO.C,R10*%
D12*
X168471359Y-105905000D02*
X168778641Y-105905000D01*
X168471359Y-105145000D02*
X168778641Y-105145000D01*
%TO.C,R13*%
X197030000Y-116278641D02*
X197030000Y-115971359D01*
X196270000Y-116278641D02*
X196270000Y-115971359D01*
%TO.C,R14*%
X197128641Y-113670000D02*
X196821359Y-113670000D01*
X197128641Y-114430000D02*
X196821359Y-114430000D01*
%TO.C,J4*%
X203500000Y-70500000D02*
X203500000Y-73100000D01*
X208300000Y-68200000D02*
X205100000Y-68200000D01*
X208300000Y-75400000D02*
X205100000Y-75400000D01*
X210380000Y-70000000D02*
X210380000Y-73600000D01*
%TO.C,C2*%
X163165000Y-108784420D02*
X163165000Y-109065580D01*
X164185000Y-108784420D02*
X164185000Y-109065580D01*
D13*
%TO.C,Logo4*%
X162829600Y-64591000D02*
X162042200Y-64591000D01*
X162042200Y-61746200D01*
X162829600Y-61746200D01*
X162829600Y-64591000D01*
G36*
X162829600Y-64591000D02*
G01*
X162042200Y-64591000D01*
X162042200Y-61746200D01*
X162829600Y-61746200D01*
X162829600Y-64591000D01*
G37*
X160439134Y-64916372D02*
X160442000Y-64933900D01*
X160428284Y-64967701D01*
X160416600Y-64972000D01*
X160394065Y-64951427D01*
X160391200Y-64933900D01*
X160404915Y-64900098D01*
X160416600Y-64895800D01*
X160439134Y-64916372D01*
G36*
X160439134Y-64916372D02*
G01*
X160442000Y-64933900D01*
X160428284Y-64967701D01*
X160416600Y-64972000D01*
X160394065Y-64951427D01*
X160391200Y-64933900D01*
X160404915Y-64900098D01*
X160416600Y-64895800D01*
X160439134Y-64916372D01*
G37*
X161656901Y-64934915D02*
X161661200Y-64946600D01*
X161640627Y-64969134D01*
X161623100Y-64972000D01*
X161589298Y-64958284D01*
X161585000Y-64946600D01*
X161605572Y-64924065D01*
X161623100Y-64921200D01*
X161656901Y-64934915D01*
G36*
X161656901Y-64934915D02*
G01*
X161661200Y-64946600D01*
X161640627Y-64969134D01*
X161623100Y-64972000D01*
X161589298Y-64958284D01*
X161585000Y-64946600D01*
X161605572Y-64924065D01*
X161623100Y-64921200D01*
X161656901Y-64934915D01*
G37*
X161762061Y-64940528D02*
X161762800Y-64946600D01*
X161743471Y-64971261D01*
X161737400Y-64972000D01*
X161712738Y-64952671D01*
X161712000Y-64946600D01*
X161731328Y-64921938D01*
X161737400Y-64921200D01*
X161762061Y-64940528D01*
G36*
X161762061Y-64940528D02*
G01*
X161762800Y-64946600D01*
X161743471Y-64971261D01*
X161737400Y-64972000D01*
X161712738Y-64952671D01*
X161712000Y-64946600D01*
X161731328Y-64921938D01*
X161737400Y-64921200D01*
X161762061Y-64940528D01*
G37*
X164655534Y-64916372D02*
X164658400Y-64933900D01*
X164644684Y-64967701D01*
X164633000Y-64972000D01*
X164610465Y-64951427D01*
X164607600Y-64933900D01*
X164621315Y-64900098D01*
X164633000Y-64895800D01*
X164655534Y-64916372D01*
G36*
X164655534Y-64916372D02*
G01*
X164658400Y-64933900D01*
X164644684Y-64967701D01*
X164633000Y-64972000D01*
X164610465Y-64951427D01*
X164607600Y-64933900D01*
X164621315Y-64900098D01*
X164633000Y-64895800D01*
X164655534Y-64916372D01*
G37*
X164887000Y-62381200D02*
X164353600Y-62381200D01*
X164353600Y-64591000D01*
X163566739Y-64591000D01*
X163560119Y-63492450D01*
X163553500Y-62393900D01*
X163280450Y-62386690D01*
X163007400Y-62379481D01*
X163007400Y-61746200D01*
X164887000Y-61746200D01*
X164887000Y-62381200D01*
G36*
X164887000Y-62381200D02*
G01*
X164353600Y-62381200D01*
X164353600Y-64591000D01*
X163566739Y-64591000D01*
X163560119Y-63492450D01*
X163553500Y-62393900D01*
X163280450Y-62386690D01*
X163007400Y-62379481D01*
X163007400Y-61746200D01*
X164887000Y-61746200D01*
X164887000Y-62381200D01*
G37*
X160431089Y-65045644D02*
X160440285Y-65104052D01*
X160442000Y-65149800D01*
X160437431Y-65222246D01*
X160425749Y-65268229D01*
X160416600Y-65276800D01*
X160402110Y-65253955D01*
X160392914Y-65195547D01*
X160391200Y-65149800D01*
X160395768Y-65077353D01*
X160407450Y-65031370D01*
X160416600Y-65022800D01*
X160431089Y-65045644D01*
G36*
X160431089Y-65045644D02*
G01*
X160440285Y-65104052D01*
X160442000Y-65149800D01*
X160437431Y-65222246D01*
X160425749Y-65268229D01*
X160416600Y-65276800D01*
X160402110Y-65253955D01*
X160392914Y-65195547D01*
X160391200Y-65149800D01*
X160395768Y-65077353D01*
X160407450Y-65031370D01*
X160416600Y-65022800D01*
X160431089Y-65045644D01*
G37*
X164647489Y-65045644D02*
X164656685Y-65104052D01*
X164658400Y-65149800D01*
X164653831Y-65222246D01*
X164642149Y-65268229D01*
X164633000Y-65276800D01*
X164618510Y-65253955D01*
X164609314Y-65195547D01*
X164607600Y-65149800D01*
X164612168Y-65077353D01*
X164623850Y-65031370D01*
X164633000Y-65022800D01*
X164647489Y-65045644D01*
G36*
X164647489Y-65045644D02*
G01*
X164656685Y-65104052D01*
X164658400Y-65149800D01*
X164653831Y-65222246D01*
X164642149Y-65268229D01*
X164633000Y-65276800D01*
X164618510Y-65253955D01*
X164609314Y-65195547D01*
X164607600Y-65149800D01*
X164612168Y-65077353D01*
X164623850Y-65031370D01*
X164633000Y-65022800D01*
X164647489Y-65045644D01*
G37*
X159292650Y-65024132D02*
X159353100Y-65026189D01*
X159368734Y-65034299D01*
X159345535Y-65054931D01*
X159330750Y-65065330D01*
X159284720Y-65121744D01*
X159273600Y-65190998D01*
X159264708Y-65255513D01*
X159236675Y-65276782D01*
X159235500Y-65276800D01*
X159211540Y-65263204D01*
X159199838Y-65216131D01*
X159197400Y-65149800D01*
X159197400Y-65022800D01*
X159292650Y-65024132D01*
G36*
X159292650Y-65024132D02*
G01*
X159353100Y-65026189D01*
X159368734Y-65034299D01*
X159345535Y-65054931D01*
X159330750Y-65065330D01*
X159284720Y-65121744D01*
X159273600Y-65190998D01*
X159264708Y-65255513D01*
X159236675Y-65276782D01*
X159235500Y-65276800D01*
X159211540Y-65263204D01*
X159199838Y-65216131D01*
X159197400Y-65149800D01*
X159197400Y-65022800D01*
X159292650Y-65024132D01*
G37*
X157781350Y-64902065D02*
X157801247Y-64934203D01*
X157814990Y-65013076D01*
X157820562Y-65094681D01*
X157822716Y-65191258D01*
X157818176Y-65247155D01*
X157805221Y-65272250D01*
X157788812Y-65276800D01*
X157768339Y-65267693D01*
X157756271Y-65234090D01*
X157750687Y-65166564D01*
X157749600Y-65084183D01*
X157751960Y-64981216D01*
X157759787Y-64922465D01*
X157774195Y-64901530D01*
X157781350Y-64902065D01*
G36*
X157781350Y-64902065D02*
G01*
X157801247Y-64934203D01*
X157814990Y-65013076D01*
X157820562Y-65094681D01*
X157822716Y-65191258D01*
X157818176Y-65247155D01*
X157805221Y-65272250D01*
X157788812Y-65276800D01*
X157768339Y-65267693D01*
X157756271Y-65234090D01*
X157750687Y-65166564D01*
X157749600Y-65084183D01*
X157751960Y-64981216D01*
X157759787Y-64922465D01*
X157774195Y-64901530D01*
X157781350Y-64902065D01*
G37*
X159559350Y-64927457D02*
X159579434Y-64959281D01*
X159593396Y-65035862D01*
X159598610Y-65107374D01*
X159600691Y-65199886D01*
X159595377Y-65252032D01*
X159580768Y-65273946D01*
X159566860Y-65276800D01*
X159545765Y-65267290D01*
X159533629Y-65232342D01*
X159528350Y-65162326D01*
X159527600Y-65096883D01*
X159530197Y-64998024D01*
X159538782Y-64943385D01*
X159554545Y-64926614D01*
X159559350Y-64927457D01*
G36*
X159559350Y-64927457D02*
G01*
X159579434Y-64959281D01*
X159593396Y-65035862D01*
X159598610Y-65107374D01*
X159600691Y-65199886D01*
X159595377Y-65252032D01*
X159580768Y-65273946D01*
X159566860Y-65276800D01*
X159545765Y-65267290D01*
X159533629Y-65232342D01*
X159528350Y-65162326D01*
X159527600Y-65096883D01*
X159530197Y-64998024D01*
X159538782Y-64943385D01*
X159554545Y-64926614D01*
X159559350Y-64927457D01*
G37*
X158227993Y-65028816D02*
X158246375Y-65044732D01*
X158244900Y-65048200D01*
X158208149Y-65071571D01*
X158192600Y-65073600D01*
X158166731Y-65092425D01*
X158156405Y-65152903D01*
X158156000Y-65175200D01*
X158149708Y-65245845D01*
X158128853Y-65274956D01*
X158117900Y-65276800D01*
X158093940Y-65263204D01*
X158082238Y-65216131D01*
X158079800Y-65149800D01*
X158079800Y-65022800D01*
X158170199Y-65022800D01*
X158227993Y-65028816D01*
G36*
X158227993Y-65028816D02*
G01*
X158246375Y-65044732D01*
X158244900Y-65048200D01*
X158208149Y-65071571D01*
X158192600Y-65073600D01*
X158166731Y-65092425D01*
X158156405Y-65152903D01*
X158156000Y-65175200D01*
X158149708Y-65245845D01*
X158128853Y-65274956D01*
X158117900Y-65276800D01*
X158093940Y-65263204D01*
X158082238Y-65216131D01*
X158079800Y-65149800D01*
X158079800Y-65022800D01*
X158170199Y-65022800D01*
X158227993Y-65028816D01*
G37*
X163903796Y-64905779D02*
X163915593Y-64941840D01*
X163920927Y-65013171D01*
X163921800Y-65086300D01*
X163919804Y-65186783D01*
X163912591Y-65245766D01*
X163898325Y-65272435D01*
X163883700Y-65276800D01*
X163863603Y-65266820D01*
X163851806Y-65230759D01*
X163846472Y-65159428D01*
X163845600Y-65086300D01*
X163847595Y-64985816D01*
X163854808Y-64926833D01*
X163869074Y-64900164D01*
X163883700Y-64895800D01*
X163903796Y-64905779D01*
G36*
X163903796Y-64905779D02*
G01*
X163915593Y-64941840D01*
X163920927Y-65013171D01*
X163921800Y-65086300D01*
X163919804Y-65186783D01*
X163912591Y-65245766D01*
X163898325Y-65272435D01*
X163883700Y-65276800D01*
X163863603Y-65266820D01*
X163851806Y-65230759D01*
X163846472Y-65159428D01*
X163845600Y-65086300D01*
X163847595Y-64985816D01*
X163854808Y-64926833D01*
X163869074Y-64900164D01*
X163883700Y-64895800D01*
X163903796Y-64905779D01*
G37*
X157676061Y-65033696D02*
X157698792Y-65049565D01*
X157698800Y-65049898D01*
X157678363Y-65071280D01*
X157662932Y-65073600D01*
X157634058Y-65097389D01*
X157612264Y-65162402D01*
X157609900Y-65175200D01*
X157591326Y-65248885D01*
X157571798Y-65273481D01*
X157555569Y-65250432D01*
X157546895Y-65181179D01*
X157546400Y-65153665D01*
X157548280Y-65079872D01*
X157559410Y-65043328D01*
X157588026Y-65030489D01*
X157622600Y-65028364D01*
X157676061Y-65033696D01*
G36*
X157676061Y-65033696D02*
G01*
X157698792Y-65049565D01*
X157698800Y-65049898D01*
X157678363Y-65071280D01*
X157662932Y-65073600D01*
X157634058Y-65097389D01*
X157612264Y-65162402D01*
X157609900Y-65175200D01*
X157591326Y-65248885D01*
X157571798Y-65273481D01*
X157555569Y-65250432D01*
X157546895Y-65181179D01*
X157546400Y-65153665D01*
X157548280Y-65079872D01*
X157559410Y-65043328D01*
X157588026Y-65030489D01*
X157622600Y-65028364D01*
X157676061Y-65033696D01*
G37*
X161998347Y-65031428D02*
X162015277Y-65051425D01*
X161987532Y-65073961D01*
X161966000Y-65080959D01*
X161929894Y-65104032D01*
X161916064Y-65156865D01*
X161915200Y-65185522D01*
X161908974Y-65245220D01*
X161893618Y-65275763D01*
X161889800Y-65276800D01*
X161875310Y-65253955D01*
X161866114Y-65195547D01*
X161864400Y-65149800D01*
X161866064Y-65074619D01*
X161876300Y-65037129D01*
X161902970Y-65024226D01*
X161940600Y-65022800D01*
X161998347Y-65031428D01*
G36*
X161998347Y-65031428D02*
G01*
X162015277Y-65051425D01*
X161987532Y-65073961D01*
X161966000Y-65080959D01*
X161929894Y-65104032D01*
X161916064Y-65156865D01*
X161915200Y-65185522D01*
X161908974Y-65245220D01*
X161893618Y-65275763D01*
X161889800Y-65276800D01*
X161875310Y-65253955D01*
X161866114Y-65195547D01*
X161864400Y-65149800D01*
X161866064Y-65074619D01*
X161876300Y-65037129D01*
X161902970Y-65024226D01*
X161940600Y-65022800D01*
X161998347Y-65031428D01*
G37*
X162843184Y-65030038D02*
X162855000Y-65045377D01*
X162834459Y-65063163D01*
X162814065Y-65064427D01*
X162767963Y-65080749D01*
X162744345Y-65105350D01*
X162731619Y-65163395D01*
X162761615Y-65216052D01*
X162826771Y-65250676D01*
X162832003Y-65251991D01*
X162872263Y-65264323D01*
X162866082Y-65276085D01*
X162846572Y-65284319D01*
X162808547Y-65298356D01*
X162784351Y-65296354D01*
X162749059Y-65273531D01*
X162733651Y-65262659D01*
X162690689Y-65206888D01*
X162677128Y-65134351D01*
X162695821Y-65068052D01*
X162707680Y-65053279D01*
X162748774Y-65031459D01*
X162801129Y-65023327D01*
X162843184Y-65030038D01*
G36*
X162843184Y-65030038D02*
G01*
X162855000Y-65045377D01*
X162834459Y-65063163D01*
X162814065Y-65064427D01*
X162767963Y-65080749D01*
X162744345Y-65105350D01*
X162731619Y-65163395D01*
X162761615Y-65216052D01*
X162826771Y-65250676D01*
X162832003Y-65251991D01*
X162872263Y-65264323D01*
X162866082Y-65276085D01*
X162846572Y-65284319D01*
X162808547Y-65298356D01*
X162784351Y-65296354D01*
X162749059Y-65273531D01*
X162733651Y-65262659D01*
X162690689Y-65206888D01*
X162677128Y-65134351D01*
X162695821Y-65068052D01*
X162707680Y-65053279D01*
X162748774Y-65031459D01*
X162801129Y-65023327D01*
X162843184Y-65030038D01*
G37*
X158011720Y-65030749D02*
X158029000Y-65049230D01*
X158010660Y-65067834D01*
X157991713Y-65064726D01*
X157950877Y-65062222D01*
X157941253Y-65085563D01*
X157966949Y-65117632D01*
X157977488Y-65124019D01*
X158021960Y-65168501D01*
X158028222Y-65221154D01*
X158003010Y-65266472D01*
X157953055Y-65288944D01*
X157908350Y-65283249D01*
X157878089Y-65259591D01*
X157890888Y-65238220D01*
X157918316Y-65235172D01*
X157960976Y-65224344D01*
X157967803Y-65194739D01*
X157936385Y-65165837D01*
X157927317Y-65162473D01*
X157884661Y-65130750D01*
X157879745Y-65086511D01*
X157908664Y-65046328D01*
X157959150Y-65027462D01*
X158011720Y-65030749D01*
G36*
X158011720Y-65030749D02*
G01*
X158029000Y-65049230D01*
X158010660Y-65067834D01*
X157991713Y-65064726D01*
X157950877Y-65062222D01*
X157941253Y-65085563D01*
X157966949Y-65117632D01*
X157977488Y-65124019D01*
X158021960Y-65168501D01*
X158028222Y-65221154D01*
X158003010Y-65266472D01*
X157953055Y-65288944D01*
X157908350Y-65283249D01*
X157878089Y-65259591D01*
X157890888Y-65238220D01*
X157918316Y-65235172D01*
X157960976Y-65224344D01*
X157967803Y-65194739D01*
X157936385Y-65165837D01*
X157927317Y-65162473D01*
X157884661Y-65130750D01*
X157879745Y-65086511D01*
X157908664Y-65046328D01*
X157959150Y-65027462D01*
X158011720Y-65030749D01*
G37*
X159858475Y-65033193D02*
X159893182Y-65062977D01*
X159905568Y-65119977D01*
X159908147Y-65186883D01*
X159901791Y-65244994D01*
X159887374Y-65275611D01*
X159883200Y-65276800D01*
X159866015Y-65254566D01*
X159857896Y-65200304D01*
X159857800Y-65192979D01*
X159849255Y-65125895D01*
X159828629Y-65080012D01*
X159827924Y-65079284D01*
X159788569Y-65063631D01*
X159754715Y-65090027D01*
X159733929Y-65149764D01*
X159730800Y-65191010D01*
X159724206Y-65248522D01*
X159708064Y-65276327D01*
X159705400Y-65276800D01*
X159690910Y-65253955D01*
X159681714Y-65195547D01*
X159680000Y-65149800D01*
X159680000Y-65022800D01*
X159778882Y-65022800D01*
X159858475Y-65033193D01*
G36*
X159858475Y-65033193D02*
G01*
X159893182Y-65062977D01*
X159905568Y-65119977D01*
X159908147Y-65186883D01*
X159901791Y-65244994D01*
X159887374Y-65275611D01*
X159883200Y-65276800D01*
X159866015Y-65254566D01*
X159857896Y-65200304D01*
X159857800Y-65192979D01*
X159849255Y-65125895D01*
X159828629Y-65080012D01*
X159827924Y-65079284D01*
X159788569Y-65063631D01*
X159754715Y-65090027D01*
X159733929Y-65149764D01*
X159730800Y-65191010D01*
X159724206Y-65248522D01*
X159708064Y-65276327D01*
X159705400Y-65276800D01*
X159690910Y-65253955D01*
X159681714Y-65195547D01*
X159680000Y-65149800D01*
X159680000Y-65022800D01*
X159778882Y-65022800D01*
X159858475Y-65033193D01*
G37*
X160095621Y-65031128D02*
X160111800Y-65047402D01*
X160093389Y-65061876D01*
X160076269Y-65058371D01*
X160036349Y-65055196D01*
X160027313Y-65078797D01*
X160049586Y-65115290D01*
X160073918Y-65134907D01*
X160125462Y-65177976D01*
X160131357Y-65217255D01*
X160097285Y-65262285D01*
X160055678Y-65295083D01*
X160014594Y-65293991D01*
X159991150Y-65285378D01*
X159960319Y-65261032D01*
X159971865Y-65242696D01*
X160010200Y-65244040D01*
X160051650Y-65243089D01*
X160057958Y-65216047D01*
X160029587Y-65173055D01*
X160005964Y-65151477D01*
X159967667Y-65099510D01*
X159973799Y-65052992D01*
X160019986Y-65025464D01*
X160047502Y-65022800D01*
X160095621Y-65031128D01*
G36*
X160095621Y-65031128D02*
G01*
X160111800Y-65047402D01*
X160093389Y-65061876D01*
X160076269Y-65058371D01*
X160036349Y-65055196D01*
X160027313Y-65078797D01*
X160049586Y-65115290D01*
X160073918Y-65134907D01*
X160125462Y-65177976D01*
X160131357Y-65217255D01*
X160097285Y-65262285D01*
X160055678Y-65295083D01*
X160014594Y-65293991D01*
X159991150Y-65285378D01*
X159960319Y-65261032D01*
X159971865Y-65242696D01*
X160010200Y-65244040D01*
X160051650Y-65243089D01*
X160057958Y-65216047D01*
X160029587Y-65173055D01*
X160005964Y-65151477D01*
X159967667Y-65099510D01*
X159973799Y-65052992D01*
X160019986Y-65025464D01*
X160047502Y-65022800D01*
X160095621Y-65031128D01*
G37*
X162334604Y-64925375D02*
X162385346Y-64936146D01*
X162397800Y-64946600D01*
X162376526Y-64967237D01*
X162347000Y-64972000D01*
X162318627Y-64977560D01*
X162303295Y-65001987D01*
X162297133Y-65056899D01*
X162296200Y-65124400D01*
X162292344Y-65205576D01*
X162282270Y-65260612D01*
X162270800Y-65276800D01*
X162257270Y-65253664D01*
X162248097Y-65193225D01*
X162245400Y-65124400D01*
X162244055Y-65039937D01*
X162236708Y-64994336D01*
X162218388Y-64975668D01*
X162184125Y-64972003D01*
X162181900Y-64972000D01*
X162134165Y-64963305D01*
X162118400Y-64946600D01*
X162141365Y-64932690D01*
X162200607Y-64923464D01*
X162258100Y-64921200D01*
X162334604Y-64925375D01*
G36*
X162334604Y-64925375D02*
G01*
X162385346Y-64936146D01*
X162397800Y-64946600D01*
X162376526Y-64967237D01*
X162347000Y-64972000D01*
X162318627Y-64977560D01*
X162303295Y-65001987D01*
X162297133Y-65056899D01*
X162296200Y-65124400D01*
X162292344Y-65205576D01*
X162282270Y-65260612D01*
X162270800Y-65276800D01*
X162257270Y-65253664D01*
X162248097Y-65193225D01*
X162245400Y-65124400D01*
X162244055Y-65039937D01*
X162236708Y-64994336D01*
X162218388Y-64975668D01*
X162184125Y-64972003D01*
X162181900Y-64972000D01*
X162134165Y-64963305D01*
X162118400Y-64946600D01*
X162141365Y-64932690D01*
X162200607Y-64923464D01*
X162258100Y-64921200D01*
X162334604Y-64925375D01*
G37*
X163414475Y-65033193D02*
X163449182Y-65062977D01*
X163461568Y-65119977D01*
X163464147Y-65186883D01*
X163457791Y-65244994D01*
X163443374Y-65275611D01*
X163439200Y-65276800D01*
X163422015Y-65254566D01*
X163413896Y-65200304D01*
X163413800Y-65192979D01*
X163405255Y-65125895D01*
X163384629Y-65080012D01*
X163383924Y-65079284D01*
X163344569Y-65063631D01*
X163310715Y-65090027D01*
X163289929Y-65149764D01*
X163286800Y-65191010D01*
X163280206Y-65248522D01*
X163264064Y-65276327D01*
X163261400Y-65276800D01*
X163246910Y-65253955D01*
X163237714Y-65195547D01*
X163236000Y-65149800D01*
X163236000Y-65022800D01*
X163334882Y-65022800D01*
X163414475Y-65033193D01*
G36*
X163414475Y-65033193D02*
G01*
X163449182Y-65062977D01*
X163461568Y-65119977D01*
X163464147Y-65186883D01*
X163457791Y-65244994D01*
X163443374Y-65275611D01*
X163439200Y-65276800D01*
X163422015Y-65254566D01*
X163413896Y-65200304D01*
X163413800Y-65192979D01*
X163405255Y-65125895D01*
X163384629Y-65080012D01*
X163383924Y-65079284D01*
X163344569Y-65063631D01*
X163310715Y-65090027D01*
X163289929Y-65149764D01*
X163286800Y-65191010D01*
X163280206Y-65248522D01*
X163264064Y-65276327D01*
X163261400Y-65276800D01*
X163246910Y-65253955D01*
X163237714Y-65195547D01*
X163236000Y-65149800D01*
X163236000Y-65022800D01*
X163334882Y-65022800D01*
X163414475Y-65033193D01*
G37*
X160591534Y-64967172D02*
X160594400Y-64984700D01*
X160615239Y-65017320D01*
X160638850Y-65023607D01*
X160669401Y-65026900D01*
X160658731Y-65042662D01*
X160638850Y-65058157D01*
X160604007Y-65109274D01*
X160596482Y-65174079D01*
X160616645Y-65229927D01*
X160635761Y-65246622D01*
X160659824Y-65271470D01*
X160654269Y-65283894D01*
X160615699Y-65284682D01*
X160587507Y-65273447D01*
X160552487Y-65226021D01*
X160543600Y-65163354D01*
X160535038Y-65101090D01*
X160514190Y-65064340D01*
X160511850Y-65063016D01*
X160493170Y-65046335D01*
X160511850Y-65033383D01*
X160541095Y-64997720D01*
X160543600Y-64982583D01*
X160558012Y-64950163D01*
X160569000Y-64946600D01*
X160591534Y-64967172D01*
G36*
X160591534Y-64967172D02*
G01*
X160594400Y-64984700D01*
X160615239Y-65017320D01*
X160638850Y-65023607D01*
X160669401Y-65026900D01*
X160658731Y-65042662D01*
X160638850Y-65058157D01*
X160604007Y-65109274D01*
X160596482Y-65174079D01*
X160616645Y-65229927D01*
X160635761Y-65246622D01*
X160659824Y-65271470D01*
X160654269Y-65283894D01*
X160615699Y-65284682D01*
X160587507Y-65273447D01*
X160552487Y-65226021D01*
X160543600Y-65163354D01*
X160535038Y-65101090D01*
X160514190Y-65064340D01*
X160511850Y-65063016D01*
X160493170Y-65046335D01*
X160511850Y-65033383D01*
X160541095Y-64997720D01*
X160543600Y-64982583D01*
X160558012Y-64950163D01*
X160569000Y-64946600D01*
X160591534Y-64967172D01*
G37*
X161600678Y-65045265D02*
X161613414Y-65100961D01*
X161615216Y-65118050D01*
X161626411Y-65182866D01*
X161650672Y-65209903D01*
X161673900Y-65213300D01*
X161709373Y-65202369D01*
X161727211Y-65161074D01*
X161732583Y-65118050D01*
X161744408Y-65047955D01*
X161760814Y-65024794D01*
X161776668Y-65045638D01*
X161786841Y-65107556D01*
X161788200Y-65149800D01*
X161786723Y-65224960D01*
X161776521Y-65262436D01*
X161748938Y-65275345D01*
X161704380Y-65276800D01*
X161637073Y-65268070D01*
X161590781Y-65247000D01*
X161590080Y-65246320D01*
X161571590Y-65206784D01*
X161561679Y-65145942D01*
X161560906Y-65082661D01*
X161569827Y-65035809D01*
X161583466Y-65022800D01*
X161600678Y-65045265D01*
G36*
X161600678Y-65045265D02*
G01*
X161613414Y-65100961D01*
X161615216Y-65118050D01*
X161626411Y-65182866D01*
X161650672Y-65209903D01*
X161673900Y-65213300D01*
X161709373Y-65202369D01*
X161727211Y-65161074D01*
X161732583Y-65118050D01*
X161744408Y-65047955D01*
X161760814Y-65024794D01*
X161776668Y-65045638D01*
X161786841Y-65107556D01*
X161788200Y-65149800D01*
X161786723Y-65224960D01*
X161776521Y-65262436D01*
X161748938Y-65275345D01*
X161704380Y-65276800D01*
X161637073Y-65268070D01*
X161590781Y-65247000D01*
X161590080Y-65246320D01*
X161571590Y-65206784D01*
X161561679Y-65145942D01*
X161560906Y-65082661D01*
X161569827Y-65035809D01*
X161583466Y-65022800D01*
X161600678Y-65045265D01*
G37*
X161502199Y-64907720D02*
X161501601Y-64934150D01*
X161464350Y-64958396D01*
X161433706Y-64974336D01*
X161445066Y-64993634D01*
X161464350Y-65008364D01*
X161503880Y-65047046D01*
X161498009Y-65069392D01*
X161470700Y-65073600D01*
X161444207Y-65090376D01*
X161433291Y-65145990D01*
X161432600Y-65175200D01*
X161426966Y-65238822D01*
X161412893Y-65274209D01*
X161407200Y-65276800D01*
X161391156Y-65254297D01*
X161382367Y-65198218D01*
X161381800Y-65177316D01*
X161374330Y-65109510D01*
X161355536Y-65068594D01*
X161350050Y-65064950D01*
X161332620Y-65046218D01*
X161346626Y-65031083D01*
X161376389Y-64991454D01*
X161392788Y-64952950D01*
X161426524Y-64906455D01*
X161459711Y-64895800D01*
X161502199Y-64907720D01*
G36*
X161502199Y-64907720D02*
G01*
X161501601Y-64934150D01*
X161464350Y-64958396D01*
X161433706Y-64974336D01*
X161445066Y-64993634D01*
X161464350Y-65008364D01*
X161503880Y-65047046D01*
X161498009Y-65069392D01*
X161470700Y-65073600D01*
X161444207Y-65090376D01*
X161433291Y-65145990D01*
X161432600Y-65175200D01*
X161426966Y-65238822D01*
X161412893Y-65274209D01*
X161407200Y-65276800D01*
X161391156Y-65254297D01*
X161382367Y-65198218D01*
X161381800Y-65177316D01*
X161374330Y-65109510D01*
X161355536Y-65068594D01*
X161350050Y-65064950D01*
X161332620Y-65046218D01*
X161346626Y-65031083D01*
X161376389Y-64991454D01*
X161392788Y-64952950D01*
X161426524Y-64906455D01*
X161459711Y-64895800D01*
X161502199Y-64907720D01*
G37*
X164181318Y-65035956D02*
X164229192Y-65082119D01*
X164231221Y-65086300D01*
X164246338Y-65167700D01*
X164220695Y-65234604D01*
X164164180Y-65276478D01*
X164086677Y-65282786D01*
X164054962Y-65274108D01*
X164003354Y-65231025D01*
X163981497Y-65166101D01*
X164037179Y-65166101D01*
X164050604Y-65203972D01*
X164090271Y-65243541D01*
X164132822Y-65239588D01*
X164164437Y-65196563D01*
X164171483Y-65165038D01*
X164164225Y-65098077D01*
X164129666Y-65062941D01*
X164084817Y-65065213D01*
X164043686Y-65104445D01*
X164037179Y-65166101D01*
X163981497Y-65166101D01*
X163980187Y-65162211D01*
X163991264Y-65087414D01*
X163996733Y-65075965D01*
X164045184Y-65032002D01*
X164113347Y-65018958D01*
X164181318Y-65035956D01*
G36*
X164181318Y-65035956D02*
G01*
X164229192Y-65082119D01*
X164231221Y-65086300D01*
X164246338Y-65167700D01*
X164220695Y-65234604D01*
X164164180Y-65276478D01*
X164086677Y-65282786D01*
X164054962Y-65274108D01*
X164003354Y-65231025D01*
X163981497Y-65166101D01*
X164037179Y-65166101D01*
X164050604Y-65203972D01*
X164090271Y-65243541D01*
X164132822Y-65239588D01*
X164164437Y-65196563D01*
X164171483Y-65165038D01*
X164164225Y-65098077D01*
X164129666Y-65062941D01*
X164084817Y-65065213D01*
X164043686Y-65104445D01*
X164037179Y-65166101D01*
X163981497Y-65166101D01*
X163980187Y-65162211D01*
X163991264Y-65087414D01*
X163996733Y-65075965D01*
X164045184Y-65032002D01*
X164113347Y-65018958D01*
X164181318Y-65035956D01*
G37*
X158522859Y-65036395D02*
X158534561Y-65083468D01*
X158537000Y-65149800D01*
X158534180Y-65226251D01*
X158522579Y-65264358D01*
X158497479Y-65276415D01*
X158488277Y-65276800D01*
X158426723Y-65284088D01*
X158402652Y-65290960D01*
X158357435Y-65286073D01*
X158324375Y-65263746D01*
X158300926Y-65220218D01*
X158286697Y-65156735D01*
X158282856Y-65090945D01*
X158290575Y-65040498D01*
X158308400Y-65022800D01*
X158326687Y-65044754D01*
X158333800Y-65094145D01*
X158345209Y-65162698D01*
X158373323Y-65217444D01*
X158408965Y-65244593D01*
X158431546Y-65241081D01*
X158450282Y-65206125D01*
X158460284Y-65141917D01*
X158460800Y-65122900D01*
X158467282Y-65052821D01*
X158488691Y-65024374D01*
X158498900Y-65022800D01*
X158522859Y-65036395D01*
G36*
X158522859Y-65036395D02*
G01*
X158534561Y-65083468D01*
X158537000Y-65149800D01*
X158534180Y-65226251D01*
X158522579Y-65264358D01*
X158497479Y-65276415D01*
X158488277Y-65276800D01*
X158426723Y-65284088D01*
X158402652Y-65290960D01*
X158357435Y-65286073D01*
X158324375Y-65263746D01*
X158300926Y-65220218D01*
X158286697Y-65156735D01*
X158282856Y-65090945D01*
X158290575Y-65040498D01*
X158308400Y-65022800D01*
X158326687Y-65044754D01*
X158333800Y-65094145D01*
X158345209Y-65162698D01*
X158373323Y-65217444D01*
X158408965Y-65244593D01*
X158431546Y-65241081D01*
X158450282Y-65206125D01*
X158460284Y-65141917D01*
X158460800Y-65122900D01*
X158467282Y-65052821D01*
X158488691Y-65024374D01*
X158498900Y-65022800D01*
X158522859Y-65036395D01*
G37*
X160261684Y-64967017D02*
X160264200Y-64982583D01*
X160283624Y-65024793D01*
X160295950Y-65033383D01*
X160314629Y-65050064D01*
X160295950Y-65063016D01*
X160271874Y-65095880D01*
X160263276Y-65150901D01*
X160269303Y-65207661D01*
X160289106Y-65245743D01*
X160303799Y-65251400D01*
X160330089Y-65263713D01*
X160327700Y-65276800D01*
X160302133Y-65298386D01*
X160257844Y-65290295D01*
X160245150Y-65285378D01*
X160224039Y-65253856D01*
X160213630Y-65193196D01*
X160213400Y-65182233D01*
X160199170Y-65100746D01*
X160168950Y-65058157D01*
X160138398Y-65032229D01*
X160149068Y-65024372D01*
X160168950Y-65023607D01*
X160206565Y-65005061D01*
X160213400Y-64984700D01*
X160227115Y-64950898D01*
X160238800Y-64946600D01*
X160261684Y-64967017D01*
G36*
X160261684Y-64967017D02*
G01*
X160264200Y-64982583D01*
X160283624Y-65024793D01*
X160295950Y-65033383D01*
X160314629Y-65050064D01*
X160295950Y-65063016D01*
X160271874Y-65095880D01*
X160263276Y-65150901D01*
X160269303Y-65207661D01*
X160289106Y-65245743D01*
X160303799Y-65251400D01*
X160330089Y-65263713D01*
X160327700Y-65276800D01*
X160302133Y-65298386D01*
X160257844Y-65290295D01*
X160245150Y-65285378D01*
X160224039Y-65253856D01*
X160213630Y-65193196D01*
X160213400Y-65182233D01*
X160199170Y-65100746D01*
X160168950Y-65058157D01*
X160138398Y-65032229D01*
X160149068Y-65024372D01*
X160168950Y-65023607D01*
X160206565Y-65005061D01*
X160213400Y-64984700D01*
X160227115Y-64950898D01*
X160238800Y-64946600D01*
X160261684Y-64967017D01*
G37*
X161099534Y-64967172D02*
X161102400Y-64984700D01*
X161122731Y-65018374D01*
X161140500Y-65022800D01*
X161174301Y-65036515D01*
X161178600Y-65048200D01*
X161158027Y-65070734D01*
X161140500Y-65073600D01*
X161112236Y-65093944D01*
X161102077Y-65141717D01*
X161109647Y-65197027D01*
X161134572Y-65239981D01*
X161143761Y-65246622D01*
X161167824Y-65271470D01*
X161162269Y-65283894D01*
X161123699Y-65284682D01*
X161095507Y-65273447D01*
X161060487Y-65226021D01*
X161051600Y-65163354D01*
X161043038Y-65101090D01*
X161022190Y-65064340D01*
X161019850Y-65063016D01*
X161001170Y-65046335D01*
X161019850Y-65033383D01*
X161049095Y-64997720D01*
X161051600Y-64982583D01*
X161066012Y-64950163D01*
X161077000Y-64946600D01*
X161099534Y-64967172D01*
G36*
X161099534Y-64967172D02*
G01*
X161102400Y-64984700D01*
X161122731Y-65018374D01*
X161140500Y-65022800D01*
X161174301Y-65036515D01*
X161178600Y-65048200D01*
X161158027Y-65070734D01*
X161140500Y-65073600D01*
X161112236Y-65093944D01*
X161102077Y-65141717D01*
X161109647Y-65197027D01*
X161134572Y-65239981D01*
X161143761Y-65246622D01*
X161167824Y-65271470D01*
X161162269Y-65283894D01*
X161123699Y-65284682D01*
X161095507Y-65273447D01*
X161060487Y-65226021D01*
X161051600Y-65163354D01*
X161043038Y-65101090D01*
X161022190Y-65064340D01*
X161019850Y-65063016D01*
X161001170Y-65046335D01*
X161019850Y-65033383D01*
X161049095Y-64997720D01*
X161051600Y-64982583D01*
X161066012Y-64950163D01*
X161077000Y-64946600D01*
X161099534Y-64967172D01*
G37*
X163720438Y-65033829D02*
X163769255Y-65077039D01*
X163774021Y-65086300D01*
X163787995Y-65164944D01*
X163763429Y-65232695D01*
X163710017Y-65277443D01*
X163637453Y-65287077D01*
X163617000Y-65282444D01*
X163558093Y-65242551D01*
X163520371Y-65177969D01*
X163515643Y-65148284D01*
X163591600Y-65148284D01*
X163605191Y-65218407D01*
X163638720Y-65252419D01*
X163681321Y-65245666D01*
X163717706Y-65202269D01*
X163740237Y-65153241D01*
X163734537Y-65121859D01*
X163705164Y-65089193D01*
X163654378Y-65062200D01*
X163612672Y-65079636D01*
X163592121Y-65135218D01*
X163591600Y-65148284D01*
X163515643Y-65148284D01*
X163515400Y-65146759D01*
X163536196Y-65083125D01*
X163587944Y-65040604D01*
X163654680Y-65022928D01*
X163720438Y-65033829D01*
G36*
X163720438Y-65033829D02*
G01*
X163769255Y-65077039D01*
X163774021Y-65086300D01*
X163787995Y-65164944D01*
X163763429Y-65232695D01*
X163710017Y-65277443D01*
X163637453Y-65287077D01*
X163617000Y-65282444D01*
X163558093Y-65242551D01*
X163520371Y-65177969D01*
X163515643Y-65148284D01*
X163591600Y-65148284D01*
X163605191Y-65218407D01*
X163638720Y-65252419D01*
X163681321Y-65245666D01*
X163717706Y-65202269D01*
X163740237Y-65153241D01*
X163734537Y-65121859D01*
X163705164Y-65089193D01*
X163654378Y-65062200D01*
X163612672Y-65079636D01*
X163592121Y-65135218D01*
X163591600Y-65148284D01*
X163515643Y-65148284D01*
X163515400Y-65146759D01*
X163536196Y-65083125D01*
X163587944Y-65040604D01*
X163654680Y-65022928D01*
X163720438Y-65033829D01*
G37*
X160939089Y-65045644D02*
X160948285Y-65104052D01*
X160950000Y-65149800D01*
X160945456Y-65231215D01*
X160930347Y-65270341D01*
X160913977Y-65276800D01*
X160855909Y-65285220D01*
X160844127Y-65288816D01*
X160795642Y-65287076D01*
X160765850Y-65274854D01*
X160734296Y-65236007D01*
X160721900Y-65161835D01*
X160721400Y-65135837D01*
X160726497Y-65068111D01*
X160739380Y-65027748D01*
X160746800Y-65022800D01*
X160762802Y-65045311D01*
X160771609Y-65101453D01*
X160772200Y-65122900D01*
X160778371Y-65190736D01*
X160793696Y-65234477D01*
X160798712Y-65239387D01*
X160839707Y-65241118D01*
X160875484Y-65204251D01*
X160896791Y-65140831D01*
X160899200Y-65108589D01*
X160905793Y-65051077D01*
X160921935Y-65023272D01*
X160924600Y-65022800D01*
X160939089Y-65045644D01*
G36*
X160939089Y-65045644D02*
G01*
X160948285Y-65104052D01*
X160950000Y-65149800D01*
X160945456Y-65231215D01*
X160930347Y-65270341D01*
X160913977Y-65276800D01*
X160855909Y-65285220D01*
X160844127Y-65288816D01*
X160795642Y-65287076D01*
X160765850Y-65274854D01*
X160734296Y-65236007D01*
X160721900Y-65161835D01*
X160721400Y-65135837D01*
X160726497Y-65068111D01*
X160739380Y-65027748D01*
X160746800Y-65022800D01*
X160762802Y-65045311D01*
X160771609Y-65101453D01*
X160772200Y-65122900D01*
X160778371Y-65190736D01*
X160793696Y-65234477D01*
X160798712Y-65239387D01*
X160839707Y-65241118D01*
X160875484Y-65204251D01*
X160896791Y-65140831D01*
X160899200Y-65108589D01*
X160905793Y-65051077D01*
X160921935Y-65023272D01*
X160924600Y-65022800D01*
X160939089Y-65045644D01*
G37*
X156979601Y-64943380D02*
X156987550Y-64997285D01*
X156987600Y-65002382D01*
X156987600Y-65083565D01*
X157071359Y-65002382D01*
X157134574Y-64948525D01*
X157178299Y-64923958D01*
X157196394Y-64927991D01*
X157182719Y-64959934D01*
X157139999Y-65010100D01*
X157053834Y-65099000D01*
X157140000Y-65187900D01*
X157186429Y-65243644D01*
X157195729Y-65272081D01*
X157174039Y-65272521D01*
X157127499Y-65244273D01*
X157071359Y-65195617D01*
X156987600Y-65114434D01*
X156987600Y-65195617D01*
X156980660Y-65251236D01*
X156963794Y-65276640D01*
X156962200Y-65276800D01*
X156949170Y-65253307D01*
X156940167Y-65190341D01*
X156936800Y-65099172D01*
X156936800Y-65099000D01*
X156940156Y-65007792D01*
X156949151Y-64944769D01*
X156962175Y-64921200D01*
X156962200Y-64921200D01*
X156979601Y-64943380D01*
G36*
X156979601Y-64943380D02*
G01*
X156987550Y-64997285D01*
X156987600Y-65002382D01*
X156987600Y-65083565D01*
X157071359Y-65002382D01*
X157134574Y-64948525D01*
X157178299Y-64923958D01*
X157196394Y-64927991D01*
X157182719Y-64959934D01*
X157139999Y-65010100D01*
X157053834Y-65099000D01*
X157140000Y-65187900D01*
X157186429Y-65243644D01*
X157195729Y-65272081D01*
X157174039Y-65272521D01*
X157127499Y-65244273D01*
X157071359Y-65195617D01*
X156987600Y-65114434D01*
X156987600Y-65195617D01*
X156980660Y-65251236D01*
X156963794Y-65276640D01*
X156962200Y-65276800D01*
X156949170Y-65253307D01*
X156940167Y-65190341D01*
X156936800Y-65099172D01*
X156936800Y-65099000D01*
X156940156Y-65007792D01*
X156949151Y-64944769D01*
X156962175Y-64921200D01*
X156962200Y-64921200D01*
X156979601Y-64943380D01*
G37*
X162974542Y-64917880D02*
X162982000Y-64959300D01*
X162992904Y-65008056D01*
X163033901Y-65022692D01*
X163040420Y-65022800D01*
X163100130Y-65035347D01*
X163129320Y-65053279D01*
X163148138Y-65093295D01*
X163157883Y-65154348D01*
X163158127Y-65217586D01*
X163148441Y-65264154D01*
X163134400Y-65276800D01*
X163115486Y-65255013D01*
X163109000Y-65211630D01*
X163097794Y-65134595D01*
X163069137Y-65080665D01*
X163030470Y-65062094D01*
X163019712Y-65064563D01*
X162991324Y-65101898D01*
X162982000Y-65177917D01*
X162975355Y-65247535D01*
X162953478Y-65275433D01*
X162943900Y-65276800D01*
X162923803Y-65266820D01*
X162912006Y-65230759D01*
X162906672Y-65159428D01*
X162905800Y-65086300D01*
X162907795Y-64985816D01*
X162915008Y-64926833D01*
X162929274Y-64900164D01*
X162943900Y-64895800D01*
X162974542Y-64917880D01*
G36*
X162974542Y-64917880D02*
G01*
X162982000Y-64959300D01*
X162992904Y-65008056D01*
X163033901Y-65022692D01*
X163040420Y-65022800D01*
X163100130Y-65035347D01*
X163129320Y-65053279D01*
X163148138Y-65093295D01*
X163157883Y-65154348D01*
X163158127Y-65217586D01*
X163148441Y-65264154D01*
X163134400Y-65276800D01*
X163115486Y-65255013D01*
X163109000Y-65211630D01*
X163097794Y-65134595D01*
X163069137Y-65080665D01*
X163030470Y-65062094D01*
X163019712Y-65064563D01*
X162991324Y-65101898D01*
X162982000Y-65177917D01*
X162975355Y-65247535D01*
X162953478Y-65275433D01*
X162943900Y-65276800D01*
X162923803Y-65266820D01*
X162912006Y-65230759D01*
X162906672Y-65159428D01*
X162905800Y-65086300D01*
X162907795Y-64985816D01*
X162915008Y-64926833D01*
X162929274Y-64900164D01*
X162943900Y-64895800D01*
X162974542Y-64917880D01*
G37*
X158657693Y-64917536D02*
X158664000Y-64959300D01*
X158672619Y-65005268D01*
X158708744Y-65021585D01*
X158737482Y-65022800D01*
X158799347Y-65036133D01*
X158826382Y-65062977D01*
X158838768Y-65119977D01*
X158841347Y-65186883D01*
X158834991Y-65244994D01*
X158820574Y-65275611D01*
X158816400Y-65276800D01*
X158799215Y-65254566D01*
X158791096Y-65200304D01*
X158791000Y-65192979D01*
X158778833Y-65113613D01*
X158746101Y-65068617D01*
X158699004Y-65065602D01*
X158674053Y-65100274D01*
X158664041Y-65172140D01*
X158664000Y-65177917D01*
X158658222Y-65240528D01*
X158643832Y-65274675D01*
X158638600Y-65276800D01*
X158625801Y-65253162D01*
X158616881Y-65189176D01*
X158613223Y-65095233D01*
X158613200Y-65086300D01*
X158616351Y-64990311D01*
X158624883Y-64923407D01*
X158637408Y-64895978D01*
X158638600Y-64895800D01*
X158657693Y-64917536D01*
G36*
X158657693Y-64917536D02*
G01*
X158664000Y-64959300D01*
X158672619Y-65005268D01*
X158708744Y-65021585D01*
X158737482Y-65022800D01*
X158799347Y-65036133D01*
X158826382Y-65062977D01*
X158838768Y-65119977D01*
X158841347Y-65186883D01*
X158834991Y-65244994D01*
X158820574Y-65275611D01*
X158816400Y-65276800D01*
X158799215Y-65254566D01*
X158791096Y-65200304D01*
X158791000Y-65192979D01*
X158778833Y-65113613D01*
X158746101Y-65068617D01*
X158699004Y-65065602D01*
X158674053Y-65100274D01*
X158664041Y-65172140D01*
X158664000Y-65177917D01*
X158658222Y-65240528D01*
X158643832Y-65274675D01*
X158638600Y-65276800D01*
X158625801Y-65253162D01*
X158616881Y-65189176D01*
X158613223Y-65095233D01*
X158613200Y-65086300D01*
X158616351Y-64990311D01*
X158624883Y-64923407D01*
X158637408Y-64895978D01*
X158638600Y-64895800D01*
X158657693Y-64917536D01*
G37*
X159091524Y-65041727D02*
X159121480Y-65074124D01*
X159137596Y-65131791D01*
X159109928Y-65165020D01*
X159041384Y-65175200D01*
X158985681Y-65183851D01*
X158975807Y-65206950D01*
X159006514Y-65228966D01*
X159054124Y-65233918D01*
X159106858Y-65239364D01*
X159119451Y-65259404D01*
X159086983Y-65284369D01*
X159081022Y-65286782D01*
X159044215Y-65299292D01*
X159036572Y-65300589D01*
X159012806Y-65291111D01*
X158975909Y-65276289D01*
X158923080Y-65230723D01*
X158900007Y-65160168D01*
X158910141Y-65099000D01*
X158968800Y-65099000D01*
X158990073Y-65119637D01*
X159019600Y-65124400D01*
X159060874Y-65113763D01*
X159070400Y-65099000D01*
X159049126Y-65078362D01*
X159019600Y-65073600D01*
X158978325Y-65084236D01*
X158968800Y-65099000D01*
X158910141Y-65099000D01*
X158912550Y-65084465D01*
X158916733Y-65075965D01*
X158963983Y-65033489D01*
X159029412Y-65022012D01*
X159091524Y-65041727D01*
G36*
X159091524Y-65041727D02*
G01*
X159121480Y-65074124D01*
X159137596Y-65131791D01*
X159109928Y-65165020D01*
X159041384Y-65175200D01*
X158985681Y-65183851D01*
X158975807Y-65206950D01*
X159006514Y-65228966D01*
X159054124Y-65233918D01*
X159106858Y-65239364D01*
X159119451Y-65259404D01*
X159086983Y-65284369D01*
X159081022Y-65286782D01*
X159044215Y-65299292D01*
X159036572Y-65300589D01*
X159012806Y-65291111D01*
X158975909Y-65276289D01*
X158923080Y-65230723D01*
X158900007Y-65160168D01*
X158910141Y-65099000D01*
X158968800Y-65099000D01*
X158990073Y-65119637D01*
X159019600Y-65124400D01*
X159060874Y-65113763D01*
X159070400Y-65099000D01*
X159049126Y-65078362D01*
X159019600Y-65073600D01*
X158978325Y-65084236D01*
X158968800Y-65099000D01*
X158910141Y-65099000D01*
X158912550Y-65084465D01*
X158916733Y-65075965D01*
X158963983Y-65033489D01*
X159029412Y-65022012D01*
X159091524Y-65041727D01*
G37*
X157374950Y-65027540D02*
X157425540Y-65035947D01*
X157450963Y-65058029D01*
X157461698Y-65108361D01*
X157465110Y-65152947D01*
X157467046Y-65225581D01*
X157456549Y-65262552D01*
X157427705Y-65278581D01*
X157413352Y-65281745D01*
X157350653Y-65286008D01*
X157316841Y-65281138D01*
X157268839Y-65247261D01*
X157259532Y-65205431D01*
X157326651Y-65205431D01*
X157339917Y-65237417D01*
X157375728Y-65244773D01*
X157377277Y-65244285D01*
X157407329Y-65213693D01*
X157414912Y-65192145D01*
X157409900Y-65155186D01*
X157373788Y-65157718D01*
X157346295Y-65172749D01*
X157326651Y-65205431D01*
X157259532Y-65205431D01*
X157258298Y-65199886D01*
X157281033Y-65154604D01*
X157332861Y-65127007D01*
X157358910Y-65124400D01*
X157406141Y-65114371D01*
X157412366Y-65092650D01*
X157381507Y-65069678D01*
X157346750Y-65066950D01*
X157303860Y-65061373D01*
X157292400Y-65046291D01*
X157314427Y-65030187D01*
X157368573Y-65027003D01*
X157374950Y-65027540D01*
G36*
X157374950Y-65027540D02*
G01*
X157425540Y-65035947D01*
X157450963Y-65058029D01*
X157461698Y-65108361D01*
X157465110Y-65152947D01*
X157467046Y-65225581D01*
X157456549Y-65262552D01*
X157427705Y-65278581D01*
X157413352Y-65281745D01*
X157350653Y-65286008D01*
X157316841Y-65281138D01*
X157268839Y-65247261D01*
X157259532Y-65205431D01*
X157326651Y-65205431D01*
X157339917Y-65237417D01*
X157375728Y-65244773D01*
X157377277Y-65244285D01*
X157407329Y-65213693D01*
X157414912Y-65192145D01*
X157409900Y-65155186D01*
X157373788Y-65157718D01*
X157346295Y-65172749D01*
X157326651Y-65205431D01*
X157259532Y-65205431D01*
X157258298Y-65199886D01*
X157281033Y-65154604D01*
X157332861Y-65127007D01*
X157358910Y-65124400D01*
X157406141Y-65114371D01*
X157412366Y-65092650D01*
X157381507Y-65069678D01*
X157346750Y-65066950D01*
X157303860Y-65061373D01*
X157292400Y-65046291D01*
X157314427Y-65030187D01*
X157368573Y-65027003D01*
X157374950Y-65027540D01*
G37*
X162552101Y-65030046D02*
X162604233Y-65067102D01*
X162626382Y-65127583D01*
X162626400Y-65129479D01*
X162614506Y-65161079D01*
X162570754Y-65173927D01*
X162534389Y-65175200D01*
X162476185Y-65177882D01*
X162459961Y-65189836D01*
X162475355Y-65214932D01*
X162530026Y-65243204D01*
X162573715Y-65239943D01*
X162618143Y-65231569D01*
X162617293Y-65241271D01*
X162589795Y-65263710D01*
X162544045Y-65294977D01*
X162509025Y-65296073D01*
X162460193Y-65266810D01*
X162454251Y-65262659D01*
X162411289Y-65206888D01*
X162397728Y-65134351D01*
X162403362Y-65114366D01*
X162458926Y-65114366D01*
X162484940Y-65123759D01*
X162508989Y-65124400D01*
X162558205Y-65116961D01*
X162575600Y-65101717D01*
X162556342Y-65071753D01*
X162514555Y-65065468D01*
X162474218Y-65086106D01*
X162472746Y-65087809D01*
X162458926Y-65114366D01*
X162403362Y-65114366D01*
X162416421Y-65068052D01*
X162428280Y-65053279D01*
X162487584Y-65023182D01*
X162552101Y-65030046D01*
G36*
X162552101Y-65030046D02*
G01*
X162604233Y-65067102D01*
X162626382Y-65127583D01*
X162626400Y-65129479D01*
X162614506Y-65161079D01*
X162570754Y-65173927D01*
X162534389Y-65175200D01*
X162476185Y-65177882D01*
X162459961Y-65189836D01*
X162475355Y-65214932D01*
X162530026Y-65243204D01*
X162573715Y-65239943D01*
X162618143Y-65231569D01*
X162617293Y-65241271D01*
X162589795Y-65263710D01*
X162544045Y-65294977D01*
X162509025Y-65296073D01*
X162460193Y-65266810D01*
X162454251Y-65262659D01*
X162411289Y-65206888D01*
X162397728Y-65134351D01*
X162403362Y-65114366D01*
X162458926Y-65114366D01*
X162484940Y-65123759D01*
X162508989Y-65124400D01*
X162558205Y-65116961D01*
X162575600Y-65101717D01*
X162556342Y-65071753D01*
X162514555Y-65065468D01*
X162474218Y-65086106D01*
X162472746Y-65087809D01*
X162458926Y-65114366D01*
X162403362Y-65114366D01*
X162416421Y-65068052D01*
X162428280Y-65053279D01*
X162487584Y-65023182D01*
X162552101Y-65030046D01*
G37*
X164908735Y-65044913D02*
X164931087Y-65090990D01*
X164933137Y-65105350D01*
X164933921Y-65151326D01*
X164912696Y-65170892D01*
X164855807Y-65175182D01*
X164847477Y-65175200D01*
X164788469Y-65177820D01*
X164771418Y-65189492D01*
X164786755Y-65214932D01*
X164840466Y-65242949D01*
X164878765Y-65239848D01*
X164926177Y-65238990D01*
X164935941Y-65258910D01*
X164902170Y-65284954D01*
X164897622Y-65286782D01*
X164849176Y-65300369D01*
X164809312Y-65290601D01*
X164765651Y-65262659D01*
X164722799Y-65207463D01*
X164709368Y-65136175D01*
X164715377Y-65114366D01*
X164770326Y-65114366D01*
X164796340Y-65123759D01*
X164820389Y-65124400D01*
X164869605Y-65116961D01*
X164887000Y-65101717D01*
X164867742Y-65071753D01*
X164825955Y-65065468D01*
X164785618Y-65086106D01*
X164784146Y-65087809D01*
X164770326Y-65114366D01*
X164715377Y-65114366D01*
X164727405Y-65070718D01*
X164745764Y-65049474D01*
X164797059Y-65029577D01*
X164853714Y-65027314D01*
X164908735Y-65044913D01*
G36*
X164908735Y-65044913D02*
G01*
X164931087Y-65090990D01*
X164933137Y-65105350D01*
X164933921Y-65151326D01*
X164912696Y-65170892D01*
X164855807Y-65175182D01*
X164847477Y-65175200D01*
X164788469Y-65177820D01*
X164771418Y-65189492D01*
X164786755Y-65214932D01*
X164840466Y-65242949D01*
X164878765Y-65239848D01*
X164926177Y-65238990D01*
X164935941Y-65258910D01*
X164902170Y-65284954D01*
X164897622Y-65286782D01*
X164849176Y-65300369D01*
X164809312Y-65290601D01*
X164765651Y-65262659D01*
X164722799Y-65207463D01*
X164709368Y-65136175D01*
X164715377Y-65114366D01*
X164770326Y-65114366D01*
X164796340Y-65123759D01*
X164820389Y-65124400D01*
X164869605Y-65116961D01*
X164887000Y-65101717D01*
X164867742Y-65071753D01*
X164825955Y-65065468D01*
X164785618Y-65086106D01*
X164784146Y-65087809D01*
X164770326Y-65114366D01*
X164715377Y-65114366D01*
X164727405Y-65070718D01*
X164745764Y-65049474D01*
X164797059Y-65029577D01*
X164853714Y-65027314D01*
X164908735Y-65044913D01*
G37*
X161343140Y-62459769D02*
X161191709Y-62648255D01*
X161069655Y-62801365D01*
X160974175Y-62923032D01*
X160902465Y-63017186D01*
X160851723Y-63087759D01*
X160819144Y-63138683D01*
X160801926Y-63173890D01*
X160797265Y-63197310D01*
X160802357Y-63212875D01*
X160804322Y-63215419D01*
X160829953Y-63246431D01*
X160882413Y-63310514D01*
X160957011Y-63401898D01*
X161049054Y-63514815D01*
X161153853Y-63643497D01*
X161266716Y-63782175D01*
X161382952Y-63925081D01*
X161497870Y-64066447D01*
X161606778Y-64200504D01*
X161704986Y-64321484D01*
X161787803Y-64423618D01*
X161850537Y-64501138D01*
X161888497Y-64548275D01*
X161897184Y-64559250D01*
X161896366Y-64571177D01*
X161869375Y-64579872D01*
X161810749Y-64585762D01*
X161715021Y-64589271D01*
X161576728Y-64590823D01*
X161489219Y-64591000D01*
X161057018Y-64591000D01*
X160010200Y-63470638D01*
X160011570Y-63160869D01*
X160012941Y-62851100D01*
X160513220Y-62299474D01*
X161013500Y-61747848D01*
X161917666Y-61746200D01*
X161343140Y-62459769D01*
G36*
X161343140Y-62459769D02*
G01*
X161191709Y-62648255D01*
X161069655Y-62801365D01*
X160974175Y-62923032D01*
X160902465Y-63017186D01*
X160851723Y-63087759D01*
X160819144Y-63138683D01*
X160801926Y-63173890D01*
X160797265Y-63197310D01*
X160802357Y-63212875D01*
X160804322Y-63215419D01*
X160829953Y-63246431D01*
X160882413Y-63310514D01*
X160957011Y-63401898D01*
X161049054Y-63514815D01*
X161153853Y-63643497D01*
X161266716Y-63782175D01*
X161382952Y-63925081D01*
X161497870Y-64066447D01*
X161606778Y-64200504D01*
X161704986Y-64321484D01*
X161787803Y-64423618D01*
X161850537Y-64501138D01*
X161888497Y-64548275D01*
X161897184Y-64559250D01*
X161896366Y-64571177D01*
X161869375Y-64579872D01*
X161810749Y-64585762D01*
X161715021Y-64589271D01*
X161576728Y-64590823D01*
X161489219Y-64591000D01*
X161057018Y-64591000D01*
X160010200Y-63470638D01*
X160011570Y-63160869D01*
X160012941Y-62851100D01*
X160513220Y-62299474D01*
X161013500Y-61747848D01*
X161917666Y-61746200D01*
X161343140Y-62459769D01*
G37*
X164531400Y-65187006D02*
X164528814Y-65280355D01*
X164518826Y-65336037D01*
X164498092Y-65367019D01*
X164482269Y-65377506D01*
X164398955Y-65400857D01*
X164334550Y-65386978D01*
X164303111Y-65364050D01*
X164315752Y-65344832D01*
X164365858Y-65336260D01*
X164382643Y-65336554D01*
X164441509Y-65330143D01*
X164473319Y-65309430D01*
X164473660Y-65308550D01*
X164461135Y-65284362D01*
X164405887Y-65276800D01*
X164335863Y-65256296D01*
X164296003Y-65201870D01*
X164293588Y-65154284D01*
X164353600Y-65154284D01*
X164359724Y-65207070D01*
X164385641Y-65223123D01*
X164410490Y-65221416D01*
X164458984Y-65197089D01*
X164476087Y-65167629D01*
X164469435Y-65111579D01*
X164436717Y-65071489D01*
X164392182Y-65064297D01*
X164389842Y-65065127D01*
X164363693Y-65098165D01*
X164353600Y-65154284D01*
X164293588Y-65154284D01*
X164292058Y-65124144D01*
X164302800Y-65086300D01*
X164327612Y-65044144D01*
X164370510Y-65026029D01*
X164429171Y-65022800D01*
X164531400Y-65022800D01*
X164531400Y-65187006D01*
G36*
X164531400Y-65187006D02*
G01*
X164528814Y-65280355D01*
X164518826Y-65336037D01*
X164498092Y-65367019D01*
X164482269Y-65377506D01*
X164398955Y-65400857D01*
X164334550Y-65386978D01*
X164303111Y-65364050D01*
X164315752Y-65344832D01*
X164365858Y-65336260D01*
X164382643Y-65336554D01*
X164441509Y-65330143D01*
X164473319Y-65309430D01*
X164473660Y-65308550D01*
X164461135Y-65284362D01*
X164405887Y-65276800D01*
X164335863Y-65256296D01*
X164296003Y-65201870D01*
X164293588Y-65154284D01*
X164353600Y-65154284D01*
X164359724Y-65207070D01*
X164385641Y-65223123D01*
X164410490Y-65221416D01*
X164458984Y-65197089D01*
X164476087Y-65167629D01*
X164469435Y-65111579D01*
X164436717Y-65071489D01*
X164392182Y-65064297D01*
X164389842Y-65065127D01*
X164363693Y-65098165D01*
X164353600Y-65154284D01*
X164293588Y-65154284D01*
X164292058Y-65124144D01*
X164302800Y-65086300D01*
X164327612Y-65044144D01*
X164370510Y-65026029D01*
X164429171Y-65022800D01*
X164531400Y-65022800D01*
X164531400Y-65187006D01*
G37*
X159819700Y-64578300D02*
X156962200Y-64591422D01*
X156962269Y-64552900D01*
X159730800Y-64552900D01*
X159743500Y-64565600D01*
X159756200Y-64552900D01*
X159743500Y-64540200D01*
X159730800Y-64552900D01*
X156962269Y-64552900D01*
X156962349Y-64508661D01*
X156966036Y-64449229D01*
X156975700Y-64359808D01*
X156989469Y-64253220D01*
X157005467Y-64142284D01*
X157021821Y-64039820D01*
X157036656Y-63958647D01*
X157048099Y-63911586D01*
X157050409Y-63906317D01*
X157076735Y-63908398D01*
X157147723Y-63921932D01*
X157258798Y-63945854D01*
X157405388Y-63979105D01*
X157582919Y-64020620D01*
X157786817Y-64069339D01*
X158012511Y-64124199D01*
X158255425Y-64184138D01*
X158374859Y-64213915D01*
X158624223Y-64276097D01*
X158858388Y-64334110D01*
X159072796Y-64386853D01*
X159262891Y-64433222D01*
X159424114Y-64472113D01*
X159551906Y-64502424D01*
X159641711Y-64523052D01*
X159688969Y-64532893D01*
X159695193Y-64533473D01*
X159674500Y-64521489D01*
X159611883Y-64490202D01*
X159511538Y-64441602D01*
X159377663Y-64377681D01*
X159214455Y-64300427D01*
X159026110Y-64211834D01*
X158816826Y-64113889D01*
X158590800Y-64008586D01*
X158479032Y-63956677D01*
X158245915Y-63848470D01*
X158026978Y-63746746D01*
X157826498Y-63653498D01*
X157648749Y-63570721D01*
X157498009Y-63500408D01*
X157378552Y-63444552D01*
X157294655Y-63405147D01*
X157250593Y-63384186D01*
X157244872Y-63381282D01*
X157249421Y-63354926D01*
X157278274Y-63295752D01*
X157326148Y-63212241D01*
X157387762Y-63112872D01*
X157457834Y-63006123D01*
X157531080Y-62900472D01*
X157602219Y-62804400D01*
X157612480Y-62791214D01*
X157632956Y-62805009D01*
X157689225Y-62847983D01*
X157777673Y-62917256D01*
X157894684Y-63009950D01*
X158036645Y-63123185D01*
X158199940Y-63254081D01*
X158380956Y-63399759D01*
X158576078Y-63557341D01*
X158687902Y-63647882D01*
X158888975Y-63810596D01*
X159077707Y-63962863D01*
X159250512Y-64101824D01*
X159403809Y-64224619D01*
X159534013Y-64328388D01*
X159637542Y-64410272D01*
X159710811Y-64467412D01*
X159750238Y-64496947D01*
X159756199Y-64500378D01*
X159740575Y-64478769D01*
X159695681Y-64421575D01*
X159624489Y-64332470D01*
X159529969Y-64215126D01*
X159415091Y-64073219D01*
X159282826Y-63910421D01*
X159136144Y-63730406D01*
X158978015Y-63536848D01*
X158905299Y-63447999D01*
X158742948Y-63249288D01*
X158590749Y-63062133D01*
X158451677Y-62890256D01*
X158328709Y-62737378D01*
X158224824Y-62607217D01*
X158142996Y-62503495D01*
X158086203Y-62429933D01*
X158057422Y-62390251D01*
X158054400Y-62384503D01*
X158075302Y-62353275D01*
X158131069Y-62305466D01*
X158211291Y-62247535D01*
X158305560Y-62185943D01*
X158403465Y-62127148D01*
X158494598Y-62077612D01*
X158568548Y-62043792D01*
X158614907Y-62032150D01*
X158620442Y-62033235D01*
X158636814Y-62057979D01*
X158672470Y-62124505D01*
X158725306Y-62228516D01*
X158793223Y-62365714D01*
X158874119Y-62531802D01*
X158965892Y-62722482D01*
X159066441Y-62933457D01*
X159173665Y-63160429D01*
X159222800Y-63265075D01*
X159331620Y-63496930D01*
X159433881Y-63714143D01*
X159527580Y-63912508D01*
X159610717Y-64087820D01*
X159681288Y-64235872D01*
X159737293Y-64352458D01*
X159776730Y-64433373D01*
X159797596Y-64474411D01*
X159800411Y-64478737D01*
X159795548Y-64453744D01*
X159779329Y-64384044D01*
X159752871Y-64274173D01*
X159717291Y-64128667D01*
X159673707Y-63952063D01*
X159623236Y-63748899D01*
X159566995Y-63523712D01*
X159506102Y-63281036D01*
X159475041Y-63157658D01*
X159412360Y-62907912D01*
X159353973Y-62673258D01*
X159300977Y-62458257D01*
X159254475Y-62267471D01*
X159215566Y-62105460D01*
X159185350Y-61976785D01*
X159164927Y-61886008D01*
X159155398Y-61837689D01*
X159155027Y-61830905D01*
X159186558Y-61820085D01*
X159255854Y-61805689D01*
X159350176Y-61789610D01*
X159456785Y-61773740D01*
X159562940Y-61759970D01*
X159655904Y-61750194D01*
X159722936Y-61746303D01*
X159724663Y-61746296D01*
X159832826Y-61746200D01*
X159819700Y-64578300D01*
G36*
X159819700Y-64578300D02*
G01*
X156962200Y-64591422D01*
X156962269Y-64552900D01*
X159730800Y-64552900D01*
X159743500Y-64565600D01*
X159756200Y-64552900D01*
X159743500Y-64540200D01*
X159730800Y-64552900D01*
X156962269Y-64552900D01*
X156962349Y-64508661D01*
X156966036Y-64449229D01*
X156975700Y-64359808D01*
X156989469Y-64253220D01*
X157005467Y-64142284D01*
X157021821Y-64039820D01*
X157036656Y-63958647D01*
X157048099Y-63911586D01*
X157050409Y-63906317D01*
X157076735Y-63908398D01*
X157147723Y-63921932D01*
X157258798Y-63945854D01*
X157405388Y-63979105D01*
X157582919Y-64020620D01*
X157786817Y-64069339D01*
X158012511Y-64124199D01*
X158255425Y-64184138D01*
X158374859Y-64213915D01*
X158624223Y-64276097D01*
X158858388Y-64334110D01*
X159072796Y-64386853D01*
X159262891Y-64433222D01*
X159424114Y-64472113D01*
X159551906Y-64502424D01*
X159641711Y-64523052D01*
X159688969Y-64532893D01*
X159695193Y-64533473D01*
X159674500Y-64521489D01*
X159611883Y-64490202D01*
X159511538Y-64441602D01*
X159377663Y-64377681D01*
X159214455Y-64300427D01*
X159026110Y-64211834D01*
X158816826Y-64113889D01*
X158590800Y-64008586D01*
X158479032Y-63956677D01*
X158245915Y-63848470D01*
X158026978Y-63746746D01*
X157826498Y-63653498D01*
X157648749Y-63570721D01*
X157498009Y-63500408D01*
X157378552Y-63444552D01*
X157294655Y-63405147D01*
X157250593Y-63384186D01*
X157244872Y-63381282D01*
X157249421Y-63354926D01*
X157278274Y-63295752D01*
X157326148Y-63212241D01*
X157387762Y-63112872D01*
X157457834Y-63006123D01*
X157531080Y-62900472D01*
X157602219Y-62804400D01*
X157612480Y-62791214D01*
X157632956Y-62805009D01*
X157689225Y-62847983D01*
X157777673Y-62917256D01*
X157894684Y-63009950D01*
X158036645Y-63123185D01*
X158199940Y-63254081D01*
X158380956Y-63399759D01*
X158576078Y-63557341D01*
X158687902Y-63647882D01*
X158888975Y-63810596D01*
X159077707Y-63962863D01*
X159250512Y-64101824D01*
X159403809Y-64224619D01*
X159534013Y-64328388D01*
X159637542Y-64410272D01*
X159710811Y-64467412D01*
X159750238Y-64496947D01*
X159756199Y-64500378D01*
X159740575Y-64478769D01*
X159695681Y-64421575D01*
X159624489Y-64332470D01*
X159529969Y-64215126D01*
X159415091Y-64073219D01*
X159282826Y-63910421D01*
X159136144Y-63730406D01*
X158978015Y-63536848D01*
X158905299Y-63447999D01*
X158742948Y-63249288D01*
X158590749Y-63062133D01*
X158451677Y-62890256D01*
X158328709Y-62737378D01*
X158224824Y-62607217D01*
X158142996Y-62503495D01*
X158086203Y-62429933D01*
X158057422Y-62390251D01*
X158054400Y-62384503D01*
X158075302Y-62353275D01*
X158131069Y-62305466D01*
X158211291Y-62247535D01*
X158305560Y-62185943D01*
X158403465Y-62127148D01*
X158494598Y-62077612D01*
X158568548Y-62043792D01*
X158614907Y-62032150D01*
X158620442Y-62033235D01*
X158636814Y-62057979D01*
X158672470Y-62124505D01*
X158725306Y-62228516D01*
X158793223Y-62365714D01*
X158874119Y-62531802D01*
X158965892Y-62722482D01*
X159066441Y-62933457D01*
X159173665Y-63160429D01*
X159222800Y-63265075D01*
X159331620Y-63496930D01*
X159433881Y-63714143D01*
X159527580Y-63912508D01*
X159610717Y-64087820D01*
X159681288Y-64235872D01*
X159737293Y-64352458D01*
X159776730Y-64433373D01*
X159797596Y-64474411D01*
X159800411Y-64478737D01*
X159795548Y-64453744D01*
X159779329Y-64384044D01*
X159752871Y-64274173D01*
X159717291Y-64128667D01*
X159673707Y-63952063D01*
X159623236Y-63748899D01*
X159566995Y-63523712D01*
X159506102Y-63281036D01*
X159475041Y-63157658D01*
X159412360Y-62907912D01*
X159353973Y-62673258D01*
X159300977Y-62458257D01*
X159254475Y-62267471D01*
X159215566Y-62105460D01*
X159185350Y-61976785D01*
X159164927Y-61886008D01*
X159155398Y-61837689D01*
X159155027Y-61830905D01*
X159186558Y-61820085D01*
X159255854Y-61805689D01*
X159350176Y-61789610D01*
X159456785Y-61773740D01*
X159562940Y-61759970D01*
X159655904Y-61750194D01*
X159722936Y-61746303D01*
X159724663Y-61746296D01*
X159832826Y-61746200D01*
X159819700Y-64578300D01*
G37*
%TO.C,JP5*%
D12*
X177650000Y-73525000D02*
X178980000Y-73525000D01*
X177650000Y-74855000D02*
X177650000Y-73525000D01*
X177650000Y-76125000D02*
X177650000Y-78725000D01*
X177650000Y-76125000D02*
X180310000Y-76125000D01*
X177650000Y-78725000D02*
X180310000Y-78725000D01*
X180310000Y-76125000D02*
X180310000Y-78725000D01*
%TO.C,J14*%
X169520000Y-57350000D02*
X169520000Y-60010000D01*
X169520000Y-60010000D02*
X200120000Y-60010000D01*
X169580000Y-62720000D02*
X169580000Y-61450000D01*
X170470000Y-51350000D02*
X171230000Y-51350000D01*
X170470000Y-57350000D02*
X170470000Y-51350000D01*
X170470000Y-60340000D02*
X170470000Y-60010000D01*
X170530000Y-57350000D02*
X170530000Y-51350000D01*
X170650000Y-57350000D02*
X170650000Y-51350000D01*
X170770000Y-57350000D02*
X170770000Y-51350000D01*
X170850000Y-62720000D02*
X169580000Y-62720000D01*
X170890000Y-57350000D02*
X170890000Y-51350000D01*
X171010000Y-57350000D02*
X171010000Y-51350000D01*
X171130000Y-57350000D02*
X171130000Y-51350000D01*
X171230000Y-51350000D02*
X171230000Y-57350000D01*
X171230000Y-60340000D02*
X171230000Y-60010000D01*
X172120000Y-60010000D02*
X172120000Y-57350000D01*
X173010000Y-51350000D02*
X173770000Y-51350000D01*
X173010000Y-57350000D02*
X173010000Y-51350000D01*
X173010000Y-60407071D02*
X173010000Y-60010000D01*
X173770000Y-51350000D02*
X173770000Y-57350000D01*
X173770000Y-60407071D02*
X173770000Y-60010000D01*
X174660000Y-60010000D02*
X174660000Y-57350000D01*
X175550000Y-51350000D02*
X176310000Y-51350000D01*
X175550000Y-57350000D02*
X175550000Y-51350000D01*
X175550000Y-60407071D02*
X175550000Y-60010000D01*
X176310000Y-51350000D02*
X176310000Y-57350000D01*
X176310000Y-60407071D02*
X176310000Y-60010000D01*
X177200000Y-60010000D02*
X177200000Y-57350000D01*
X178090000Y-51350000D02*
X178850000Y-51350000D01*
X178090000Y-57350000D02*
X178090000Y-51350000D01*
X178090000Y-60407071D02*
X178090000Y-60010000D01*
X178850000Y-51350000D02*
X178850000Y-57350000D01*
X178850000Y-60407071D02*
X178850000Y-60010000D01*
X179740000Y-60010000D02*
X179740000Y-57350000D01*
X180630000Y-51350000D02*
X181390000Y-51350000D01*
X180630000Y-57350000D02*
X180630000Y-51350000D01*
X180630000Y-60407071D02*
X180630000Y-60010000D01*
X181390000Y-51350000D02*
X181390000Y-57350000D01*
X181390000Y-60407071D02*
X181390000Y-60010000D01*
X182280000Y-60010000D02*
X182280000Y-57350000D01*
X183170000Y-51350000D02*
X183930000Y-51350000D01*
X183170000Y-57350000D02*
X183170000Y-51350000D01*
X183170000Y-60407071D02*
X183170000Y-60010000D01*
X183930000Y-51350000D02*
X183930000Y-57350000D01*
X183930000Y-60407071D02*
X183930000Y-60010000D01*
X184820000Y-60010000D02*
X184820000Y-57350000D01*
X185710000Y-51350000D02*
X186470000Y-51350000D01*
X185710000Y-57350000D02*
X185710000Y-51350000D01*
X185710000Y-60407071D02*
X185710000Y-60010000D01*
X186470000Y-51350000D02*
X186470000Y-57350000D01*
X186470000Y-60407071D02*
X186470000Y-60010000D01*
X187360000Y-60010000D02*
X187360000Y-57350000D01*
X188250000Y-51350000D02*
X189010000Y-51350000D01*
X188250000Y-57350000D02*
X188250000Y-51350000D01*
X188250000Y-60407071D02*
X188250000Y-60010000D01*
X189010000Y-51350000D02*
X189010000Y-57350000D01*
X189010000Y-60407071D02*
X189010000Y-60010000D01*
X189900000Y-60010000D02*
X189900000Y-57350000D01*
X190790000Y-51350000D02*
X191550000Y-51350000D01*
X190790000Y-57350000D02*
X190790000Y-51350000D01*
X190790000Y-60407071D02*
X190790000Y-60010000D01*
X191550000Y-51350000D02*
X191550000Y-57350000D01*
X191550000Y-60407071D02*
X191550000Y-60010000D01*
X192440000Y-60010000D02*
X192440000Y-57350000D01*
X193330000Y-51350000D02*
X194090000Y-51350000D01*
X193330000Y-57350000D02*
X193330000Y-51350000D01*
X193330000Y-60407071D02*
X193330000Y-60010000D01*
X194090000Y-51350000D02*
X194090000Y-57350000D01*
X194090000Y-60407071D02*
X194090000Y-60010000D01*
X194980000Y-60010000D02*
X194980000Y-57350000D01*
X195870000Y-51350000D02*
X196630000Y-51350000D01*
X195870000Y-57350000D02*
X195870000Y-51350000D01*
X195870000Y-60407071D02*
X195870000Y-60010000D01*
X196630000Y-51350000D02*
X196630000Y-57350000D01*
X196630000Y-60407071D02*
X196630000Y-60010000D01*
X197520000Y-60010000D02*
X197520000Y-57350000D01*
X198410000Y-51350000D02*
X199170000Y-51350000D01*
X198410000Y-57350000D02*
X198410000Y-51350000D01*
X198410000Y-60407071D02*
X198410000Y-60010000D01*
X199170000Y-51350000D02*
X199170000Y-57350000D01*
X199170000Y-60407071D02*
X199170000Y-60010000D01*
X200120000Y-57350000D02*
X169520000Y-57350000D01*
X200120000Y-60010000D02*
X200120000Y-57350000D01*
%TO.C,C9*%
X168025000Y-112234420D02*
X168025000Y-112515580D01*
X169045000Y-112234420D02*
X169045000Y-112515580D01*
%TO.C,C4*%
X161655000Y-108784420D02*
X161655000Y-109065580D01*
X162675000Y-108784420D02*
X162675000Y-109065580D01*
%TO.C,R2*%
X199527500Y-118412742D02*
X199527500Y-118887258D01*
X200572500Y-118412742D02*
X200572500Y-118887258D01*
%TO.C,R3*%
X165202500Y-118737742D02*
X165202500Y-119212258D01*
X166247500Y-118737742D02*
X166247500Y-119212258D01*
%TO.C,JP3*%
X187420000Y-73525000D02*
X188750000Y-73525000D01*
X187420000Y-74855000D02*
X187420000Y-73525000D01*
X187420000Y-76125000D02*
X187420000Y-81265000D01*
X187420000Y-76125000D02*
X190080000Y-76125000D01*
X187420000Y-81265000D02*
X190080000Y-81265000D01*
X190080000Y-76125000D02*
X190080000Y-81265000D01*
%TO.C,C15*%
X168563748Y-75340000D02*
X169986252Y-75340000D01*
X168563748Y-78060000D02*
X169986252Y-78060000D01*
%TO.C,J7*%
X156780000Y-79340000D02*
X156780000Y-75740000D01*
X158860000Y-73940000D02*
X162060000Y-73940000D01*
X158860000Y-81140000D02*
X162060000Y-81140000D01*
X163660000Y-78840000D02*
X163660000Y-76240000D01*
%TO.C,J2*%
X163920000Y-84345000D02*
X165250000Y-84345000D01*
X163920000Y-85675000D02*
X163920000Y-84345000D01*
X163920000Y-86945000D02*
X163920000Y-97165000D01*
X163920000Y-86945000D02*
X166580000Y-86945000D01*
X163920000Y-97165000D02*
X166580000Y-97165000D01*
X166580000Y-86945000D02*
X166580000Y-97165000D01*
%TO.C,C13*%
X200500000Y-111109420D02*
X200500000Y-111390580D01*
X201520000Y-111109420D02*
X201520000Y-111390580D01*
%TO.C,C11*%
X166514000Y-112234420D02*
X166514000Y-112515580D01*
X167534000Y-112234420D02*
X167534000Y-112515580D01*
%TO.C,R1*%
X169437742Y-72952500D02*
X169912258Y-72952500D01*
X169437742Y-73997500D02*
X169912258Y-73997500D01*
%TO.C,JP4*%
X182650000Y-73525000D02*
X183980000Y-73525000D01*
X182650000Y-74855000D02*
X182650000Y-73525000D01*
X182650000Y-76125000D02*
X182650000Y-78725000D01*
X182650000Y-76125000D02*
X185310000Y-76125000D01*
X182650000Y-78725000D02*
X185310000Y-78725000D01*
X185310000Y-76125000D02*
X185310000Y-78725000D01*
%TO.C,J5*%
X156820000Y-120025000D02*
X156820000Y-116425000D01*
X158900000Y-114625000D02*
X162100000Y-114625000D01*
X158900000Y-121825000D02*
X162100000Y-121825000D01*
X163700000Y-119525000D02*
X163700000Y-116925000D01*
%TO.C,C6*%
X169515000Y-112234420D02*
X169515000Y-112515580D01*
X170535000Y-112234420D02*
X170535000Y-112515580D01*
%TO.C,C8*%
X197500000Y-111109420D02*
X197500000Y-111390580D01*
X198520000Y-111109420D02*
X198520000Y-111390580D01*
D13*
%TO.C,Logo5*%
X165281414Y-71131771D02*
X165300234Y-71134010D01*
X165301600Y-71135056D01*
X165295863Y-71147481D01*
X165279568Y-71179703D01*
X165254080Y-71229094D01*
X165220770Y-71293024D01*
X165181005Y-71368866D01*
X165136153Y-71453991D01*
X165098513Y-71525150D01*
X165050849Y-71615582D01*
X165007494Y-71698744D01*
X164969774Y-71772022D01*
X164939016Y-71832801D01*
X164916544Y-71878468D01*
X164903684Y-71906407D01*
X164901189Y-71914222D01*
X164914441Y-71912296D01*
X164948423Y-71903734D01*
X164999635Y-71889520D01*
X165064575Y-71870642D01*
X165139746Y-71848083D01*
X165181952Y-71835152D01*
X165261068Y-71811056D01*
X165331772Y-71790111D01*
X165390568Y-71773305D01*
X165433958Y-71761626D01*
X165458444Y-71756061D01*
X165462550Y-71755917D01*
X165458886Y-71768432D01*
X165445694Y-71800835D01*
X165424328Y-71850063D01*
X165396138Y-71913050D01*
X165362479Y-71986732D01*
X165326347Y-72064532D01*
X165287361Y-72147954D01*
X165251131Y-72225692D01*
X165219304Y-72294195D01*
X165193526Y-72349913D01*
X165175443Y-72389296D01*
X165167222Y-72407583D01*
X165149896Y-72447617D01*
X165213817Y-72430755D01*
X165250352Y-72421645D01*
X165266842Y-72419919D01*
X165267664Y-72425987D01*
X165261198Y-72435171D01*
X165244446Y-72455948D01*
X165217793Y-72488179D01*
X165185107Y-72527281D01*
X165150259Y-72568670D01*
X165117116Y-72607761D01*
X165089549Y-72639973D01*
X165071426Y-72660719D01*
X165066352Y-72666000D01*
X165063513Y-72654344D01*
X165057574Y-72622902D01*
X165049502Y-72576958D01*
X165043196Y-72539573D01*
X165031836Y-72470404D01*
X165025070Y-72423297D01*
X165023410Y-72395244D01*
X165027368Y-72383238D01*
X165037456Y-72384270D01*
X165054187Y-72395332D01*
X165066205Y-72404450D01*
X165110211Y-72438015D01*
X165129056Y-72371032D01*
X165152756Y-72285890D01*
X165175671Y-72201930D01*
X165196871Y-72122715D01*
X165215432Y-72051813D01*
X165230424Y-71992789D01*
X165240923Y-71949209D01*
X165245999Y-71924637D01*
X165246176Y-71920542D01*
X165233489Y-71923231D01*
X165200291Y-71933078D01*
X165150082Y-71948966D01*
X165086366Y-71969777D01*
X165012643Y-71994394D01*
X164978203Y-72006053D01*
X164901157Y-72031950D01*
X164832524Y-72054460D01*
X164775822Y-72072476D01*
X164734564Y-72084892D01*
X164712267Y-72090601D01*
X164709376Y-72090709D01*
X164712931Y-72078264D01*
X164725179Y-72044843D01*
X164745134Y-71992953D01*
X164771805Y-71925098D01*
X164804207Y-71843786D01*
X164841349Y-71751523D01*
X164882244Y-71650815D01*
X164898638Y-71610671D01*
X165092916Y-71135650D01*
X165197258Y-71131961D01*
X165245115Y-71131030D01*
X165281414Y-71131771D01*
G36*
X165281414Y-71131771D02*
G01*
X165300234Y-71134010D01*
X165301600Y-71135056D01*
X165295863Y-71147481D01*
X165279568Y-71179703D01*
X165254080Y-71229094D01*
X165220770Y-71293024D01*
X165181005Y-71368866D01*
X165136153Y-71453991D01*
X165098513Y-71525150D01*
X165050849Y-71615582D01*
X165007494Y-71698744D01*
X164969774Y-71772022D01*
X164939016Y-71832801D01*
X164916544Y-71878468D01*
X164903684Y-71906407D01*
X164901189Y-71914222D01*
X164914441Y-71912296D01*
X164948423Y-71903734D01*
X164999635Y-71889520D01*
X165064575Y-71870642D01*
X165139746Y-71848083D01*
X165181952Y-71835152D01*
X165261068Y-71811056D01*
X165331772Y-71790111D01*
X165390568Y-71773305D01*
X165433958Y-71761626D01*
X165458444Y-71756061D01*
X165462550Y-71755917D01*
X165458886Y-71768432D01*
X165445694Y-71800835D01*
X165424328Y-71850063D01*
X165396138Y-71913050D01*
X165362479Y-71986732D01*
X165326347Y-72064532D01*
X165287361Y-72147954D01*
X165251131Y-72225692D01*
X165219304Y-72294195D01*
X165193526Y-72349913D01*
X165175443Y-72389296D01*
X165167222Y-72407583D01*
X165149896Y-72447617D01*
X165213817Y-72430755D01*
X165250352Y-72421645D01*
X165266842Y-72419919D01*
X165267664Y-72425987D01*
X165261198Y-72435171D01*
X165244446Y-72455948D01*
X165217793Y-72488179D01*
X165185107Y-72527281D01*
X165150259Y-72568670D01*
X165117116Y-72607761D01*
X165089549Y-72639973D01*
X165071426Y-72660719D01*
X165066352Y-72666000D01*
X165063513Y-72654344D01*
X165057574Y-72622902D01*
X165049502Y-72576958D01*
X165043196Y-72539573D01*
X165031836Y-72470404D01*
X165025070Y-72423297D01*
X165023410Y-72395244D01*
X165027368Y-72383238D01*
X165037456Y-72384270D01*
X165054187Y-72395332D01*
X165066205Y-72404450D01*
X165110211Y-72438015D01*
X165129056Y-72371032D01*
X165152756Y-72285890D01*
X165175671Y-72201930D01*
X165196871Y-72122715D01*
X165215432Y-72051813D01*
X165230424Y-71992789D01*
X165240923Y-71949209D01*
X165245999Y-71924637D01*
X165246176Y-71920542D01*
X165233489Y-71923231D01*
X165200291Y-71933078D01*
X165150082Y-71948966D01*
X165086366Y-71969777D01*
X165012643Y-71994394D01*
X164978203Y-72006053D01*
X164901157Y-72031950D01*
X164832524Y-72054460D01*
X164775822Y-72072476D01*
X164734564Y-72084892D01*
X164712267Y-72090601D01*
X164709376Y-72090709D01*
X164712931Y-72078264D01*
X164725179Y-72044843D01*
X164745134Y-71992953D01*
X164771805Y-71925098D01*
X164804207Y-71843786D01*
X164841349Y-71751523D01*
X164882244Y-71650815D01*
X164898638Y-71610671D01*
X165092916Y-71135650D01*
X165197258Y-71131961D01*
X165245115Y-71131030D01*
X165281414Y-71131771D01*
G37*
X165229181Y-70185667D02*
X165258565Y-70196743D01*
X165288139Y-70221660D01*
X165294046Y-70227600D01*
X165304452Y-70242257D01*
X165327024Y-70277021D01*
X165360771Y-70330269D01*
X165404704Y-70400380D01*
X165457830Y-70485732D01*
X165519161Y-70584704D01*
X165587705Y-70695674D01*
X165662472Y-70817021D01*
X165742472Y-70947124D01*
X165826715Y-71084360D01*
X165914209Y-71227109D01*
X166003965Y-71373749D01*
X166094992Y-71522658D01*
X166186299Y-71672215D01*
X166276897Y-71820798D01*
X166365794Y-71966787D01*
X166452001Y-72108559D01*
X166534526Y-72244493D01*
X166612380Y-72372967D01*
X166684572Y-72492361D01*
X166750112Y-72601052D01*
X166808009Y-72697419D01*
X166857272Y-72779841D01*
X166896912Y-72846695D01*
X166925938Y-72896361D01*
X166943359Y-72927218D01*
X166945640Y-72931520D01*
X166964122Y-72988073D01*
X166960089Y-73038528D01*
X166934899Y-73079236D01*
X166889909Y-73106551D01*
X166879200Y-73109935D01*
X166858181Y-73112147D01*
X166811807Y-73114157D01*
X166740123Y-73115965D01*
X166643173Y-73117571D01*
X166521003Y-73118974D01*
X166373656Y-73120174D01*
X166201178Y-73121170D01*
X166003612Y-73121963D01*
X165781004Y-73122551D01*
X165533397Y-73122936D01*
X165260838Y-73123115D01*
X165170448Y-73123129D01*
X163508946Y-73123200D01*
X163470239Y-73084493D01*
X163445377Y-73055687D01*
X163436147Y-73028924D01*
X163437711Y-72992418D01*
X163441103Y-72980070D01*
X163449654Y-72959765D01*
X163463952Y-72930490D01*
X163484585Y-72891227D01*
X163512142Y-72840961D01*
X163547210Y-72778676D01*
X163549500Y-72774680D01*
X163955400Y-72774680D01*
X163967751Y-72776220D01*
X164003411Y-72777616D01*
X164060290Y-72778870D01*
X164136297Y-72779983D01*
X164229341Y-72780955D01*
X164337333Y-72781788D01*
X164458180Y-72782481D01*
X164589794Y-72783038D01*
X164730082Y-72783457D01*
X164876955Y-72783740D01*
X165028323Y-72783888D01*
X165182094Y-72783903D01*
X165336178Y-72783784D01*
X165488485Y-72783532D01*
X165636924Y-72783150D01*
X165779404Y-72782637D01*
X165913835Y-72781994D01*
X166038127Y-72781223D01*
X166150188Y-72780324D01*
X166247929Y-72779298D01*
X166329258Y-72778147D01*
X166392086Y-72776870D01*
X166434321Y-72775469D01*
X166453874Y-72773946D01*
X166454932Y-72773587D01*
X166450121Y-72761678D01*
X166433198Y-72729875D01*
X166405247Y-72679988D01*
X166367350Y-72613826D01*
X166320591Y-72533199D01*
X166266053Y-72439917D01*
X166204821Y-72335789D01*
X166137977Y-72222625D01*
X166066605Y-72102234D01*
X165991788Y-71976426D01*
X165914611Y-71847011D01*
X165836155Y-71715797D01*
X165757505Y-71584595D01*
X165679744Y-71455215D01*
X165603956Y-71329465D01*
X165531224Y-71209156D01*
X165462632Y-71096096D01*
X165399262Y-70992096D01*
X165342199Y-70898965D01*
X165292526Y-70818513D01*
X165251326Y-70752549D01*
X165219682Y-70702883D01*
X165198679Y-70671325D01*
X165189400Y-70659683D01*
X165189256Y-70659656D01*
X165181060Y-70670420D01*
X165161260Y-70701361D01*
X165130926Y-70750647D01*
X165091129Y-70816442D01*
X165042938Y-70896914D01*
X164987423Y-70990227D01*
X164925654Y-71094548D01*
X164858702Y-71208043D01*
X164787635Y-71328877D01*
X164713525Y-71455216D01*
X164637440Y-71585227D01*
X164560452Y-71717075D01*
X164483629Y-71848927D01*
X164408043Y-71978947D01*
X164334762Y-72105302D01*
X164264857Y-72226159D01*
X164199398Y-72339682D01*
X164139455Y-72444037D01*
X164086097Y-72537392D01*
X164040396Y-72617910D01*
X164003420Y-72683760D01*
X163976239Y-72733105D01*
X163959925Y-72764113D01*
X163955400Y-72774680D01*
X163549500Y-72774680D01*
X163590378Y-72703357D01*
X163642233Y-72613987D01*
X163703363Y-72509551D01*
X163774356Y-72389034D01*
X163855801Y-72251419D01*
X163948285Y-72095690D01*
X164052397Y-71920833D01*
X164168724Y-71725830D01*
X164240558Y-71605550D01*
X164342058Y-71435883D01*
X164440513Y-71271753D01*
X164535081Y-71114541D01*
X164624919Y-70965628D01*
X164709184Y-70826397D01*
X164787034Y-70698230D01*
X164857627Y-70582507D01*
X164920120Y-70480610D01*
X164973671Y-70393922D01*
X165017437Y-70323823D01*
X165050576Y-70271696D01*
X165072246Y-70238923D01*
X165080725Y-70227600D01*
X165111443Y-70199842D01*
X165139863Y-70186803D01*
X165178638Y-70183202D01*
X165187299Y-70183150D01*
X165229181Y-70185667D01*
G36*
X165229181Y-70185667D02*
G01*
X165258565Y-70196743D01*
X165288139Y-70221660D01*
X165294046Y-70227600D01*
X165304452Y-70242257D01*
X165327024Y-70277021D01*
X165360771Y-70330269D01*
X165404704Y-70400380D01*
X165457830Y-70485732D01*
X165519161Y-70584704D01*
X165587705Y-70695674D01*
X165662472Y-70817021D01*
X165742472Y-70947124D01*
X165826715Y-71084360D01*
X165914209Y-71227109D01*
X166003965Y-71373749D01*
X166094992Y-71522658D01*
X166186299Y-71672215D01*
X166276897Y-71820798D01*
X166365794Y-71966787D01*
X166452001Y-72108559D01*
X166534526Y-72244493D01*
X166612380Y-72372967D01*
X166684572Y-72492361D01*
X166750112Y-72601052D01*
X166808009Y-72697419D01*
X166857272Y-72779841D01*
X166896912Y-72846695D01*
X166925938Y-72896361D01*
X166943359Y-72927218D01*
X166945640Y-72931520D01*
X166964122Y-72988073D01*
X166960089Y-73038528D01*
X166934899Y-73079236D01*
X166889909Y-73106551D01*
X166879200Y-73109935D01*
X166858181Y-73112147D01*
X166811807Y-73114157D01*
X166740123Y-73115965D01*
X166643173Y-73117571D01*
X166521003Y-73118974D01*
X166373656Y-73120174D01*
X166201178Y-73121170D01*
X166003612Y-73121963D01*
X165781004Y-73122551D01*
X165533397Y-73122936D01*
X165260838Y-73123115D01*
X165170448Y-73123129D01*
X163508946Y-73123200D01*
X163470239Y-73084493D01*
X163445377Y-73055687D01*
X163436147Y-73028924D01*
X163437711Y-72992418D01*
X163441103Y-72980070D01*
X163449654Y-72959765D01*
X163463952Y-72930490D01*
X163484585Y-72891227D01*
X163512142Y-72840961D01*
X163547210Y-72778676D01*
X163549500Y-72774680D01*
X163955400Y-72774680D01*
X163967751Y-72776220D01*
X164003411Y-72777616D01*
X164060290Y-72778870D01*
X164136297Y-72779983D01*
X164229341Y-72780955D01*
X164337333Y-72781788D01*
X164458180Y-72782481D01*
X164589794Y-72783038D01*
X164730082Y-72783457D01*
X164876955Y-72783740D01*
X165028323Y-72783888D01*
X165182094Y-72783903D01*
X165336178Y-72783784D01*
X165488485Y-72783532D01*
X165636924Y-72783150D01*
X165779404Y-72782637D01*
X165913835Y-72781994D01*
X166038127Y-72781223D01*
X166150188Y-72780324D01*
X166247929Y-72779298D01*
X166329258Y-72778147D01*
X166392086Y-72776870D01*
X166434321Y-72775469D01*
X166453874Y-72773946D01*
X166454932Y-72773587D01*
X166450121Y-72761678D01*
X166433198Y-72729875D01*
X166405247Y-72679988D01*
X166367350Y-72613826D01*
X166320591Y-72533199D01*
X166266053Y-72439917D01*
X166204821Y-72335789D01*
X166137977Y-72222625D01*
X166066605Y-72102234D01*
X165991788Y-71976426D01*
X165914611Y-71847011D01*
X165836155Y-71715797D01*
X165757505Y-71584595D01*
X165679744Y-71455215D01*
X165603956Y-71329465D01*
X165531224Y-71209156D01*
X165462632Y-71096096D01*
X165399262Y-70992096D01*
X165342199Y-70898965D01*
X165292526Y-70818513D01*
X165251326Y-70752549D01*
X165219682Y-70702883D01*
X165198679Y-70671325D01*
X165189400Y-70659683D01*
X165189256Y-70659656D01*
X165181060Y-70670420D01*
X165161260Y-70701361D01*
X165130926Y-70750647D01*
X165091129Y-70816442D01*
X165042938Y-70896914D01*
X164987423Y-70990227D01*
X164925654Y-71094548D01*
X164858702Y-71208043D01*
X164787635Y-71328877D01*
X164713525Y-71455216D01*
X164637440Y-71585227D01*
X164560452Y-71717075D01*
X164483629Y-71848927D01*
X164408043Y-71978947D01*
X164334762Y-72105302D01*
X164264857Y-72226159D01*
X164199398Y-72339682D01*
X164139455Y-72444037D01*
X164086097Y-72537392D01*
X164040396Y-72617910D01*
X164003420Y-72683760D01*
X163976239Y-72733105D01*
X163959925Y-72764113D01*
X163955400Y-72774680D01*
X163549500Y-72774680D01*
X163590378Y-72703357D01*
X163642233Y-72613987D01*
X163703363Y-72509551D01*
X163774356Y-72389034D01*
X163855801Y-72251419D01*
X163948285Y-72095690D01*
X164052397Y-71920833D01*
X164168724Y-71725830D01*
X164240558Y-71605550D01*
X164342058Y-71435883D01*
X164440513Y-71271753D01*
X164535081Y-71114541D01*
X164624919Y-70965628D01*
X164709184Y-70826397D01*
X164787034Y-70698230D01*
X164857627Y-70582507D01*
X164920120Y-70480610D01*
X164973671Y-70393922D01*
X165017437Y-70323823D01*
X165050576Y-70271696D01*
X165072246Y-70238923D01*
X165080725Y-70227600D01*
X165111443Y-70199842D01*
X165139863Y-70186803D01*
X165178638Y-70183202D01*
X165187299Y-70183150D01*
X165229181Y-70185667D01*
G37*
%TO.C,J8*%
D12*
X203245000Y-100255000D02*
X203245000Y-95115000D01*
X205905000Y-95115000D02*
X203245000Y-95115000D01*
X205905000Y-100255000D02*
X203245000Y-100255000D01*
X205905000Y-100255000D02*
X205905000Y-95115000D01*
X205905000Y-101525000D02*
X205905000Y-102855000D01*
X205905000Y-102855000D02*
X204575000Y-102855000D01*
%TO.C,TP2*%
X206025000Y-78425000D02*
G75*
G02*
X203025000Y-78425000I-1500000J0D01*
G01*
X203025000Y-78425000D02*
G75*
G02*
X206025000Y-78425000I1500000J0D01*
G01*
%TO.C,J12*%
X207220000Y-90830000D02*
X207220000Y-83150000D01*
X209880000Y-83150000D02*
X207220000Y-83150000D01*
X209880000Y-90830000D02*
X207220000Y-90830000D01*
X209880000Y-90830000D02*
X209880000Y-83150000D01*
X209880000Y-92100000D02*
X209880000Y-93430000D01*
X209880000Y-93430000D02*
X208550000Y-93430000D01*
%TO.C,C1*%
X164655000Y-108784420D02*
X164655000Y-109065580D01*
X165675000Y-108784420D02*
X165675000Y-109065580D01*
%TO.C,TP1*%
X210875000Y-78350000D02*
G75*
G02*
X207875000Y-78350000I-1500000J0D01*
G01*
X207875000Y-78350000D02*
G75*
G02*
X210875000Y-78350000I1500000J0D01*
G01*
%TO.C,C10*%
X198990000Y-111109420D02*
X198990000Y-111390580D01*
X200010000Y-111109420D02*
X200010000Y-111390580D01*
%TO.C,R6*%
X191512742Y-116227500D02*
X191987258Y-116227500D01*
X191512742Y-117272500D02*
X191987258Y-117272500D01*
%TO.C,J9*%
X156570000Y-100980000D02*
X156570000Y-88170000D01*
X159330000Y-88170000D02*
X156570000Y-88170000D01*
X159330000Y-100980000D02*
X156570000Y-100980000D01*
X159330000Y-100980000D02*
X159330000Y-88170000D01*
X159330000Y-102250000D02*
X159330000Y-103630000D01*
X159330000Y-103630000D02*
X157950000Y-103630000D01*
%TO.C,C14*%
X168563748Y-79340000D02*
X169986252Y-79340000D01*
X168563748Y-82060000D02*
X169986252Y-82060000D01*
%TO.C,J10*%
X207195000Y-95120000D02*
X208575000Y-95120000D01*
X207195000Y-96500000D02*
X207195000Y-95120000D01*
X207195000Y-97770000D02*
X207195000Y-110580000D01*
X207195000Y-97770000D02*
X209955000Y-97770000D01*
X207195000Y-110580000D02*
X209955000Y-110580000D01*
X209955000Y-97770000D02*
X209955000Y-110580000D01*
%TO.C,J1*%
X203400000Y-116925000D02*
X203400000Y-119525000D01*
X208200000Y-114625000D02*
X205000000Y-114625000D01*
X208200000Y-121825000D02*
X205000000Y-121825000D01*
X210280000Y-116425000D02*
X210280000Y-120025000D01*
%TO.C,C3*%
X175284420Y-114740000D02*
X175565580Y-114740000D01*
X175284420Y-115760000D02*
X175565580Y-115760000D01*
%TO.C,C17*%
X183240000Y-118484420D02*
X183240000Y-118765580D01*
X184260000Y-118484420D02*
X184260000Y-118765580D01*
%TO.C,C18*%
X194559420Y-123540000D02*
X194840580Y-123540000D01*
X194559420Y-124560000D02*
X194840580Y-124560000D01*
%TO.C,C12*%
X180840000Y-123209420D02*
X180840000Y-123490580D01*
X181860000Y-123209420D02*
X181860000Y-123490580D01*
%TO.C,C16*%
X195984420Y-118590000D02*
X196265580Y-118590000D01*
X195984420Y-119610000D02*
X196265580Y-119610000D01*
%TD*%
M02*
