%TF.GenerationSoftware,KiCad,Pcbnew,10.0.4*%
%TF.CreationDate,2026-08-10T13:54:35+02:00*%
%TF.ProjectId,astropix_v5_conn,61737472-6f70-4697-985f-76355f636f6e,rev?*%
%TF.SameCoordinates,Original*%
%TF.FileFunction,Soldermask,Bot*%
%TF.FilePolarity,Negative*%
%FSLAX46Y46*%
G04 Gerber Fmt 4.6, Leading zero omitted, Abs format (unit mm)*
G04 Created by KiCad (PCBNEW 10.0.4) date 2026-08-10 13:54:35*
%MOMM*%
%LPD*%
G01*
G04 APERTURE LIST*
%ADD10C,2.250000*%
%ADD11C,3.200000*%
%ADD12R,1.700000X1.700000*%
%ADD13O,1.700000X1.700000*%
%ADD14R,0.700000X3.200000*%
%ADD15R,0.700000X4.300000*%
%ADD16C,3.100000*%
%ADD17C,2.000000*%
%ADD18C,1.700000*%
G04 APERTURE END LIST*
D10*
%TO.C,J4*%
X206700000Y-71800000D03*
X209240000Y-69260000D03*
X204160000Y-69260000D03*
X209240000Y-74340000D03*
X204160000Y-74340000D03*
%TD*%
D11*
%TO.C,H5*%
X169925000Y-121425000D03*
%TD*%
D12*
%TO.C,JP5*%
X178980000Y-74855000D03*
D13*
X178980000Y-77395000D03*
%TD*%
D12*
%TO.C,J14*%
X170850000Y-61450000D03*
D13*
X173390000Y-61450000D03*
X175930000Y-61450000D03*
X178470000Y-61450000D03*
X181010000Y-61450000D03*
X183550000Y-61450000D03*
X186090000Y-61450000D03*
X188630000Y-61450000D03*
X191170000Y-61450000D03*
X193710000Y-61450000D03*
X196250000Y-61450000D03*
X198790000Y-61450000D03*
%TD*%
D12*
%TO.C,JP3*%
X188750000Y-74855000D03*
D13*
X188750000Y-77395000D03*
X188750000Y-79935000D03*
%TD*%
D10*
%TO.C,J7*%
X160460000Y-77540000D03*
X157920000Y-80080000D03*
X163000000Y-80080000D03*
X157920000Y-75000000D03*
X163000000Y-75000000D03*
%TD*%
D12*
%TO.C,J2*%
X165250000Y-85675000D03*
D13*
X165250000Y-88215000D03*
X165250000Y-90755000D03*
X165250000Y-93295000D03*
X165250000Y-95835000D03*
%TD*%
D14*
%TO.C,J3*%
X156000000Y-130025000D03*
D15*
X157000000Y-130575000D03*
X158000000Y-130575000D03*
X159000000Y-130575000D03*
X160000000Y-130575000D03*
X161000000Y-130575000D03*
X162000000Y-130575000D03*
X163000000Y-130575000D03*
X164000000Y-130575000D03*
X165000000Y-130575000D03*
X166000000Y-130575000D03*
X169000000Y-130575000D03*
X170000000Y-130575000D03*
X171000000Y-130575000D03*
X172000000Y-130575000D03*
X173000000Y-130575000D03*
X174000000Y-130575000D03*
X175000000Y-130575000D03*
X176000000Y-130575000D03*
X177000000Y-130575000D03*
X178000000Y-130575000D03*
X179000000Y-130575000D03*
X180000000Y-130575000D03*
X181000000Y-130575000D03*
X182000000Y-130575000D03*
X183000000Y-130575000D03*
X184000000Y-130575000D03*
X185000000Y-130575000D03*
X186000000Y-130575000D03*
X187000000Y-130575000D03*
X188000000Y-130575000D03*
X189000000Y-130575000D03*
X190000000Y-130575000D03*
X191000000Y-130575000D03*
X192000000Y-130575000D03*
X193000000Y-130575000D03*
X194000000Y-130575000D03*
X195000000Y-130575000D03*
X196000000Y-130575000D03*
X197000000Y-130575000D03*
X198000000Y-130575000D03*
X199000000Y-130575000D03*
X200000000Y-130575000D03*
X201000000Y-130575000D03*
X202000000Y-130575000D03*
X203000000Y-130575000D03*
X204000000Y-130575000D03*
X205000000Y-130575000D03*
X206000000Y-130575000D03*
X207000000Y-130575000D03*
X208000000Y-130575000D03*
X209000000Y-130575000D03*
X210000000Y-130575000D03*
X211000000Y-130575000D03*
%TD*%
D12*
%TO.C,JP4*%
X183980000Y-74855000D03*
D13*
X183980000Y-77395000D03*
%TD*%
D10*
%TO.C,J5*%
X160500000Y-118225000D03*
X157960000Y-120765000D03*
X163040000Y-120765000D03*
X157960000Y-115685000D03*
X163040000Y-115685000D03*
%TD*%
D16*
%TO.C,H6*%
X159000000Y-84250000D03*
X159000000Y-111250000D03*
X204000000Y-84250000D03*
X204000000Y-111250000D03*
%TD*%
D11*
%TO.C,H4*%
X194750000Y-80925000D03*
%TD*%
D12*
%TO.C,J8*%
X204575000Y-101525000D03*
D13*
X204575000Y-98985000D03*
X204575000Y-96445000D03*
%TD*%
D17*
%TO.C,TP2*%
X204525000Y-78425000D03*
%TD*%
D12*
%TO.C,J12*%
X208550000Y-92100000D03*
D13*
X208550000Y-89560000D03*
X208550000Y-87020000D03*
X208550000Y-84480000D03*
%TD*%
D17*
%TO.C,TP1*%
X209375000Y-78350000D03*
%TD*%
D12*
%TO.C,J9*%
X157950000Y-102250000D03*
D18*
X157950000Y-99710000D03*
X157950000Y-97170000D03*
X157950000Y-94630000D03*
X157950000Y-92090000D03*
X157950000Y-89550000D03*
%TD*%
D12*
%TO.C,J10*%
X208575000Y-96500000D03*
D18*
X208575000Y-99040000D03*
X208575000Y-101580000D03*
X208575000Y-104120000D03*
X208575000Y-106660000D03*
X208575000Y-109200000D03*
%TD*%
D10*
%TO.C,J1*%
X206600000Y-118225000D03*
X209140000Y-115685000D03*
X204060000Y-115685000D03*
X209140000Y-120765000D03*
X204060000Y-120765000D03*
%TD*%
M02*
